<svg xmlns="http://www.w3.org/2000/svg" width="96" height="96" viewBox="0 0 96 96">
  <g id="img27" transform="translate(-794.039 -2920.08)">
    <path id="Elipse_5729" data-name="Elipse 5729" d="M48,0A48,48,0,1,1,0,48,48,48,0,0,1,48,0Z" transform="translate(794.039 2920.081)" fill="#9c3413"/>
    <path id="Path_1018660" data-name="Path 1018660" d="M57.865,39.142a3.01,3.01,0,0,0,.027-2.185l-3.479-8.94a10.968,10.968,0,0,0-6.252-6.251A5.469,5.469,0,0,0,49,18.383a5.569,5.569,0,0,0-.126-3.805,4.041,4.041,0,0,0-1.047-1.185,3.288,3.288,0,0,0,.312-3.044A4.263,4.263,0,0,0,44,8a4.261,4.261,0,0,0-4.139,2.348,3.288,3.288,0,0,0,.312,3.044,4.012,4.012,0,0,0-1.047,1.185A5.569,5.569,0,0,0,39,18.382a5.474,5.474,0,0,0,.84,3.383,10.968,10.968,0,0,0-6.252,6.251l-1.66,4.258-1.864-6.818a11.4,11.4,0,0,0-6.472-7.486A4.959,4.959,0,0,0,24,16V14a4.874,4.874,0,0,0-.114-1H25a1,1,0,0,0,0-2H23.864C23.584,9.457,22.849,7,21,7c-1.363,0-1.4.563-2,.563a.6.6,0,0,1-.439-.125A2.642,2.642,0,0,0,17,7c-1.849,0-2.584,2.457-2.864,4H13a1,1,0,0,0,0,2h1.114A4.874,4.874,0,0,0,14,14v2a4.959,4.959,0,0,0,.408,1.97,11.4,11.4,0,0,0-6.472,7.486L4.552,37.839A2.524,2.524,0,0,0,4.9,39.867,2.991,2.991,0,0,0,4,42V56a1,1,0,0,0,2,0V42a1,1,0,0,1,2,0,1,1,0,0,0,2,0,2.97,2.97,0,0,0-.64-1.83,3.944,3.944,0,0,0,1.287-1.722L12,34.81V54a3,3,0,0,0,3,3h1a3.99,3.99,0,0,0,3-1.357A3.99,3.99,0,0,0,22,57h1a3,3,0,0,0,3-3V34.81l1.354,3.644A3.945,3.945,0,0,0,31.02,41a2.49,2.49,0,0,0,.8-.148A2.766,2.766,0,0,0,32.66,41a3.175,3.175,0,0,0,2.872-1.84l1.39-3.6-2.9,15.249A1,1,0,0,0,35,52h3v2.5A2.5,2.5,0,0,0,40.5,57H41a3.974,3.974,0,0,0,3-1.382A3.974,3.974,0,0,0,47,57h.5A2.5,2.5,0,0,0,50,54.5V52h3a1,1,0,0,0,.982-1.187L51.061,35.475l1.545,3.964a2.807,2.807,0,0,0,1.627,1.4A2.991,2.991,0,0,0,54,42a1,1,0,0,0,2,0,1,1,0,0,1,2,0V56a1,1,0,0,0,2,0V42a2.994,2.994,0,0,0-2.135-2.858ZM41,19v-.152a6.594,6.594,0,0,0,2.794-1.472.3.3,0,0,1,.406,0A6.558,6.558,0,0,0,47,18.849V19a3,3,0,0,1-6,0Zm3-4.937a3.971,3.971,0,0,1,3.122,1.478,4.34,4.34,0,0,1,.164,1.317C45.435,16.294,45.478,15.3,44,15.3c-1.461,0-1.4.965-3.282,1.557a4.37,4.37,0,0,1,.16-1.308A3.967,3.967,0,0,1,44,14.063ZM44,10c1.684,0,2.992,1.031,2.063,2.435a5.892,5.892,0,0,0-4.126,0C41.008,11.031,42.317,10,44,10ZM17,9c.618,0,.75.563,2,.563s1.387-.553,1.963-.569A3.9,3.9,0,0,1,21.816,11H16.184A4.15,4.15,0,0,1,17,9Zm4.8,4a2.926,2.926,0,0,1,.2,1v2a3,3,0,0,1-6,0V14a2.926,2.926,0,0,1,.2-1ZM23,55H22a2,2,0,0,1-2-2V43a1,1,0,0,0-2,0V53a2,2,0,0,1-2,2H15a1,1,0,0,1-1-1V40H24V54A1,1,0,0,1,23,55Zm6.228-17.249-3.29-8.85A1,1,0,0,0,24,29.25V38H14V29.25a1,1,0,0,0-1.938-.349L8.774,37.746c-.544,1.442-2.553,1.622-2.29.607l3.381-12.37a9.406,9.406,0,0,1,5.741-6.335,4.937,4.937,0,0,0,6.788,0,9.408,9.408,0,0,1,5.741,6.335l3.378,12.357A.512.512,0,0,1,31.02,39a1.929,1.929,0,0,1-1.792-1.249ZM41,55h-.5a.5.5,0,0,1-.5-.5V52h3v1A2,2,0,0,1,41,55Zm7-.5a.5.5,0,0,1-.5.5H47a2,2,0,0,1-2-2V52h3Zm2.932-24.863a1,1,0,0,0-1.863.726,4.234,4.234,0,0,1-.009,3.858,1.7,1.7,0,0,1-1.825.716,1,1,0,0,0-.52,1.932,3.5,3.5,0,0,0,2.53-.239L51.792,50H36.208l2.547-13.37a3.5,3.5,0,0,0,2.484.251,1,1,0,0,0-.494-1.938,1.7,1.7,0,0,1-1.805-.722,4.237,4.237,0,0,1-.009-3.858v0a1,1,0,0,0-1.864-.723v0h0l-3.362,8.714a1.194,1.194,0,0,1-.194.274c.044-.807-.16-.964-.7-3.115l2.638-6.769a8.965,8.965,0,0,1,6.071-5.426,4.838,4.838,0,0,0,4.955,0,8.962,8.962,0,0,1,6.073,5.425l3.476,8.929c.423,1.127-1.146,1.8-1.593.956Z" transform="translate(810.039 2935.729)" fill="#fff"/>
  </g>
</svg>
