<svg xmlns="http://www.w3.org/2000/svg" width="96" height="96" viewBox="0 0 96 96">
  <g id="img28" transform="translate(-794.039 -2920.081)">
    <path id="Elipse_5729" data-name="Elipse 5729" d="M48,0A48,48,0,1,1,0,48,48,48,0,0,1,48,0Z" transform="translate(794.039 2920.081)" fill="#9c3413"/>
    <g id="Group_1196535" data-name="Group 1196535" transform="translate(781.236 2938.391)">
      <path id="Path_1018661" data-name="Path 1018661" d="M106.143,57.634h-3.972V48.221a.872.872,0,1,0-1.745,0v4.111H93.838V49.223a15.489,15.489,0,0,1,11.236-14.892,6.071,6.071,0,0,0,12.055,0,15.479,15.479,0,0,1,6.2,3.463.872.872,0,0,0,1.177-1.288,17.231,17.231,0,0,0-6.152-3.621,11.9,11.9,0,0,0,4.163-6.148,4.292,4.292,0,0,0,4.723-6.6c2.151-5.34,2.161-10.535.011-14.32a7.8,7.8,0,0,0-5.557-4.134,10.1,10.1,0,0,0-5.091.592,5.1,5.1,0,0,0-1.1-.947,10.876,10.876,0,0,0-12.387,1.328A.872.872,0,0,0,104.2,4.016a8.84,8.84,0,0,1,5.264-2.261c4.805-.161,5.955,1.818,6.034,1.965a.831.831,0,0,0,.515.5.863.863,0,0,0,.733-.091,7.861,7.861,0,0,1,4.711-.716,6.083,6.083,0,0,1,4.274,3.267c.874,1.538,2.551,5.7.121,12.209a4.268,4.268,0,0,0-2.887-.486v-.143a4.334,4.334,0,0,0-1.38-3.182,41.221,41.221,0,0,1-5.122-6.381,1.453,1.453,0,0,0-2.281-.167,24.149,24.149,0,0,1-12.834,7,2.618,2.618,0,0,0-2.111,2.566V18.4a4.263,4.263,0,0,0-2.117.145,19.318,19.318,0,0,1-2.736-8.973,8.4,8.4,0,0,0,2.95-.178c1.525-.411,2.954-1.774,4.336-3.092a.872.872,0,0,0-1.2-1.263c-1.224,1.167-2.49,2.375-3.586,2.67A7.607,7.607,0,0,1,93.7,7.7a.872.872,0,0,0-1.074.836,20.72,20.72,0,0,0,2.98,10.882,4.293,4.293,0,0,0,4.082,7.32,11.9,11.9,0,0,0,4.163,6.147A17.232,17.232,0,0,0,92.093,49.223v9.283a.872.872,0,0,0,.872.872h13.178a.872.872,0,1,0,0-1.744ZM122.965,23.5V20.191a2.551,2.551,0,1,1-.1,4.827A11.9,11.9,0,0,0,122.965,23.5Zm-24.5,1.67a2.551,2.551,0,1,1,.774-4.981V23.5a11.919,11.919,0,0,0,.1,1.516A2.542,2.542,0,0,1,98.463,25.172ZM111.1,37.934a4.334,4.334,0,0,1-4.213-3.341,11.857,11.857,0,0,0,8.426,0A4.334,4.334,0,0,1,111.1,37.934ZM100.982,23.5V18.089a.871.871,0,0,1,.7-.854,26.028,26.028,0,0,0,13.538-7.266,41.557,41.557,0,0,0,5.182,6.387,2.584,2.584,0,0,1,.818,1.9V23.5a10.119,10.119,0,0,1-20.239,0Zm-.556,34.132H93.838V54.076h6.589v3.558Z" transform="translate(-50.299 0)" fill="#fff"/>
      <path id="Path_1018662" data-name="Path 1018662" d="M252.745,335.509a.872.872,0,0,0-.206,1.216,15.377,15.377,0,0,1,2.85,8.954v3.108H248.8v-4.111a.872.872,0,1,0-1.745,0v9.413h-10.4a.872.872,0,1,0,0,1.745h19.608a.872.872,0,0,0,.872-.872v-9.283a17.113,17.113,0,0,0-3.173-9.964A.872.872,0,0,0,252.745,335.509Zm2.644,18.581H248.8v-3.558h6.589Z" transform="translate(-177.323 -296.456)" fill="#fff"/>
      <path id="Path_1018663" data-name="Path 1018663" d="M196.02,165.91a.872.872,0,0,0,1.188.332l2.248-1.265a.872.872,0,0,0-.028-1.535l-2.248-1.16a.872.872,0,0,0-.8,1.55l.81.418-.838.472A.872.872,0,0,0,196.02,165.91Z" transform="translate(-142.074 -143.375)" fill="#fff"/>
      <path id="Path_1018664" data-name="Path 1018664" d="M282.105,164.977l2.248,1.265a.872.872,0,1,0,.856-1.52l-.838-.472.811-.418a.872.872,0,0,0-.8-1.55l-2.248,1.16a.872.872,0,0,0-.028,1.535Z" transform="translate(-217.882 -143.375)" fill="#fff"/>
      <path id="Path_1018665" data-name="Path 1018665" d="M215.62,219.9a.872.872,0,0,0,1.356,1.1,1.29,1.29,0,0,1,.71-.445,2.573,2.573,0,0,1,.292.253,2.863,2.863,0,0,0,4.31,0,2.573,2.573,0,0,1,.292-.253,1.29,1.29,0,0,1,.709.444.872.872,0,0,0,1.357-1.1,2.946,2.946,0,0,0-2.092-1.093,2.1,2.1,0,0,0-1.465.732c-.347.329-.547.5-.955.5s-.608-.172-.955-.5a2.1,2.1,0,0,0-1.465-.732A2.946,2.946,0,0,0,215.62,219.9Z" transform="translate(-159.33 -193.43)" fill="#fff"/>
      <path id="Path_1018666" data-name="Path 1018666" d="M42.262,299.711l-.072-.285a.8.8,0,0,1,.95-.978.872.872,0,0,0,.379-1.7,2.545,2.545,0,0,0-3.02,3.108l.072.285a.8.8,0,0,1-.635.984l-.339.061a2.546,2.546,0,0,0-1.59,4.03.8.8,0,0,1-.335,1.22l-.152.063a2.546,2.546,0,0,0-.96,4.009l.471.549a.8.8,0,0,1-.171,1.192l-.507.33a2.546,2.546,0,0,0-.406,3.938l.492.489a.8.8,0,0,1-.124,1.236.872.872,0,1,0,.961,1.456,2.546,2.546,0,0,0,.393-3.929l-.492-.489a.8.8,0,0,1,.128-1.239l.507-.33a2.545,2.545,0,0,0,.543-3.789l-.471-.549a.8.8,0,0,1,.3-1.261l.152-.063a2.545,2.545,0,0,0,1.065-3.877.8.8,0,0,1,.5-1.268l.339-.061a2.546,2.546,0,0,0,2.019-3.129Z" transform="translate(0 -262.276)" fill="#fff"/>
      <path id="Path_1018667" data-name="Path 1018667" d="M407.027,318.241A.8.8,0,0,1,406.9,317l.492-.489a2.546,2.546,0,0,0-.406-3.938l-.507-.33a.8.8,0,0,1-.171-1.192l.471-.549a2.546,2.546,0,0,0-.96-4.009l-.152-.063a.8.8,0,0,1-.335-1.22,2.546,2.546,0,0,0-1.59-4.03l-.339-.061a.8.8,0,0,1-.636-.984l.072-.285a2.546,2.546,0,0,0-3.021-3.108.872.872,0,0,0,.379,1.7.8.8,0,0,1,.95.978l-.072.285a2.546,2.546,0,0,0,2.02,3.129l.339.061a.8.8,0,0,1,.5,1.268A2.545,2.545,0,0,0,405,308.046l.152.063a.8.8,0,0,1,.3,1.261l-.471.549a2.546,2.546,0,0,0,.543,3.79l.507.33a.8.8,0,0,1,.128,1.239l-.492.489a2.545,2.545,0,0,0,.392,3.929.872.872,0,0,0,.962-1.456Z" transform="translate(-321.736 -262.276)" fill="#fff"/>
      <path id="Path_1018668" data-name="Path 1018668" d="M63.4,172.409l.349.2a.5.5,0,0,1,.2.66l-.134.262a2.243,2.243,0,0,0,1.665,3.237l.024,0a.493.493,0,0,1,.352.234.872.872,0,0,0,1.49-.907,2.239,2.239,0,0,0-1.583-1.052l-.024,0a.5.5,0,0,1-.37-.72l.134-.262a2.24,2.24,0,0,0-.889-2.969l-.349-.2a.5.5,0,0,1-.06-.826,2.241,2.241,0,0,0,.859-1.926.872.872,0,0,0-1.74.121.5.5,0,0,1-.191.429,2.243,2.243,0,0,0,.269,3.719Z" transform="translate(-23.929 -147.922)" fill="#fff"/>
      <path id="Path_1018669" data-name="Path 1018669" d="M406.6,175.043l-.028,0a2.238,2.238,0,0,0-1.581,1.052.872.872,0,1,0,1.49.907.491.491,0,0,1,.35-.234l.028,0a2.243,2.243,0,0,0,1.663-3.237l-.134-.263a.5.5,0,0,1,.2-.66l.349-.2a2.243,2.243,0,0,0,.269-3.719.5.5,0,0,1-.191-.429.872.872,0,0,0-1.74-.121,2.241,2.241,0,0,0,.859,1.926.5.5,0,0,1-.06.826l-.349.2a2.24,2.24,0,0,0-.889,2.969l.134.262a.5.5,0,0,1-.368.719Z" transform="translate(-326.793 -147.923)" fill="#fff"/>
    </g>
  </g>
</svg>
