<svg xmlns="http://www.w3.org/2000/svg" width="292" height="242" viewBox="0 0 292 242">
  <g id="img2" transform="translate(-1121 -316)">
    <rect id="Rectangle_461554" data-name="Rectangle 461554" width="292" height="242" rx="20" transform="translate(1121 316)" fill="#e1c1b7"/>
    <g id="Group_1193044" data-name="Group 1193044" transform="translate(-2415.912 -1250.838)">
      <g id="Group_1192680" data-name="Group 1192680" transform="translate(3569.402 1580.876)">
        <g id="Group_1192674" data-name="Group 1192674" transform="translate(4.149 118.5)">
          <rect id="Rectangle_461696" data-name="Rectangle 461696" width="72.005" height="22.427" fill="#4f638c"/>
        </g>
        <g id="Group_1192675" data-name="Group 1192675" transform="translate(0.669 1.406)">
          <rect id="Rectangle_461697" data-name="Rectangle 461697" width="79.374" height="124.276" fill="#f2e6d8"/>
        </g>
        <g id="Group_1192676" data-name="Group 1192676" transform="translate(0.669 130.126)">
          <rect id="Rectangle_461698" data-name="Rectangle 461698" width="79.374" height="83.865" fill="#f2e6d8"/>
        </g>
        <g id="Group_1192677" data-name="Group 1192677" transform="translate(59.558 102.111)">
          <rect id="Rectangle_461699" data-name="Rectangle 461699" width="24.099" height="4.75" fill="#4f638c"/>
        </g>
        <g id="Group_1192678" data-name="Group 1192678" transform="translate(59.558 142.141)">
          <rect id="Rectangle_461700" data-name="Rectangle 461700" width="24.099" height="4.75" fill="#4f638c"/>
        </g>
        <g id="Group_1192679" data-name="Group 1192679" transform="translate(0 0)">
          <rect id="Rectangle_461701" data-name="Rectangle 461701" width="81.186" height="11.214" fill="#4f638c"/>
        </g>
      </g>
      <g id="Group_1192683" data-name="Group 1192683" transform="translate(3596.838 1610.276)">
        <g id="Group_1192681" data-name="Group 1192681" transform="translate(0.747 0.749)">
          <rect id="Rectangle_461702" data-name="Rectangle 461702" width="26.221" height="41.253" fill="#fff"/>
        </g>
        <g id="Group_1192682" data-name="Group 1192682" transform="translate(0)">
          <path id="Path_1016519" data-name="Path 1016519" d="M3683.573,1698.585h-26.221a.746.746,0,0,1-.746-.746v-41.253a.746.746,0,0,1,.746-.746h26.221a.746.746,0,0,1,.746.746v41.253A.746.746,0,0,1,3683.573,1698.585Zm-25.476-1.49h24.729v-39.761H3658.1Z" transform="translate(-3656.605 -1655.839)" fill="#bf6849"/>
        </g>
      </g>
      <g id="Group_1192692" data-name="Group 1192692" transform="translate(3703.938 1579.838)">
        <g id="Group_1192685" data-name="Group 1192685" transform="translate(0 0.079)">
          <g id="Group_1192684" data-name="Group 1192684">
            <path id="Path_1016520" data-name="Path 1016520" d="M3927.932,1584.254a13.876,13.876,0,1,1,1.946,20.984l-4.429,1.274,1.24-4.417A13.872,13.872,0,0,1,3927.932,1584.254Z" transform="translate(-3924.019 -1580.035)" fill="#f2e6d8"/>
          </g>
        </g>
        <g id="Group_1192687" data-name="Group 1192687" transform="translate(1.356 20.717)">
          <g id="Group_1192686" data-name="Group 1192686">
            <path id="Path_1016521" data-name="Path 1016521" d="M3927.775,1631.628a.072.072,0,0,0,.009.049,14.007,14.007,0,0,0,.854,1.325l-1.231,4.382a.074.074,0,0,0,.092.092l2.562-.737a.074.074,0,0,0-.041-.143l-2.433.7,1.2-4.288a.075.075,0,0,0-.012-.064,13.854,13.854,0,0,1-.866-1.34.074.074,0,0,0-.1-.028A.078.078,0,0,0,3927.775,1631.628Z" transform="translate(-3927.405 -1631.566)" fill="#3f1c16"/>
          </g>
        </g>
        <g id="Group_1192689" data-name="Group 1192689" transform="translate(5.783 8.816)">
          <g id="Group_1192688" data-name="Group 1192688">
            <path id="Path_1016522" data-name="Path 1016522" d="M3938.458,1618.3a.076.076,0,0,0,.031.073,13.954,13.954,0,0,0,21.054-16.478.074.074,0,0,0-.139.054,13.805,13.805,0,0,1-20.829,16.3.075.075,0,0,0-.1.018C3938.466,1618.283,3938.462,1618.3,3938.458,1618.3Z" transform="translate(-3938.457 -1601.851)" fill="#3f1c16"/>
          </g>
        </g>
        <g id="Group_1192691" data-name="Group 1192691" transform="translate(10.524)">
          <g id="Group_1192690" data-name="Group 1192690">
            <path id="Path_1016523" data-name="Path 1016523" d="M3950.3,1580.3a.075.075,0,0,0,.091.085,13.745,13.745,0,0,1,12.864,3.5.074.074,0,1,0,.1-.107,13.891,13.891,0,0,0-13-3.54A.077.077,0,0,0,3950.3,1580.3Z" transform="translate(-3950.298 -1579.838)" fill="#3f1c16"/>
          </g>
        </g>
      </g>
      <g id="Group_1192699" data-name="Group 1192699" transform="translate(3710.15 1585.058)">
        <g id="Group_1192695" data-name="Group 1192695" transform="translate(0 5.297)">
          <g id="Group_1192694" data-name="Group 1192694">
            <g id="Group_1192693" data-name="Group 1192693">
              <rect id="Rectangle_461703" data-name="Rectangle 461703" width="3.964" height="9.077" fill="#73672c"/>
            </g>
          </g>
        </g>
        <g id="Group_1192698" data-name="Group 1192698" transform="translate(4.993)">
          <g id="Group_1192697" data-name="Group 1192697">
            <g id="Group_1192696" data-name="Group 1192696">
              <path id="Path_1016524" data-name="Path 1016524" d="M3953.613,1607.25H3952v-9.077h1.615c2.375-.534,3-2.887,3.2-4.428a1,1,0,0,1,1.859-.356,3.27,3.27,0,0,1,.363,1.452c.058,1.608.058,2.7.058,2.7h.833a3.533,3.533,0,0,1,3.533,3.533v2.741a3.533,3.533,0,0,1-3.389,3.53Z" transform="translate(-3951.998 -1592.873)" fill="#73672c"/>
            </g>
          </g>
        </g>
      </g>
      <g id="Group_1192737" data-name="Group 1192737" transform="translate(3556.911 1721.216)">
        <g id="Group_1192730" data-name="Group 1192730">
          <g id="Group_1192702" data-name="Group 1192702" transform="translate(30.148 28.572)">
            <g id="Group_1192701" data-name="Group 1192701">
              <g id="Group_1192700" data-name="Group 1192700">
                <path id="Path_1016525" data-name="Path 1016525" d="M3645.148,2004.21c-14.437-.852-16.642,18.86-7.472,19.281S3661.957,2005.2,3645.148,2004.21Z" transform="translate(-3632.187 -2004.183)" fill="#73672c"/>
              </g>
            </g>
          </g>
          <g id="Group_1192705" data-name="Group 1192705" transform="translate(0 19.387)">
            <g id="Group_1192704" data-name="Group 1192704">
              <g id="Group_1192703" data-name="Group 1192703">
                <path id="Path_1016526" data-name="Path 1016526" d="M3560.251,1982.719c-10.738,5.686,6.778,33.1,19.219,23.382a10.273,10.273,0,0,0,3.789-11.128,14.362,14.362,0,0,0-.445-1.451C3579.807,1985.25,3569.05,1978.057,3560.251,1982.719Z" transform="translate(-3556.911 -1981.249)" fill="#73672c"/>
              </g>
            </g>
          </g>
          <g id="Group_1192708" data-name="Group 1192708" transform="translate(12.694)">
            <g id="Group_1192707" data-name="Group 1192707">
              <g id="Group_1192706" data-name="Group 1192706">
                <path id="Path_1016527" data-name="Path 1016527" d="M3596.805,1932.93c-12.308,1.4-8.5,17.13-3.145,23.434s10.575,10.974,13.62,3.811S3611.155,1931.3,3596.805,1932.93Z" transform="translate(-3588.605 -1932.843)" fill="#a38f38"/>
              </g>
            </g>
          </g>
          <g id="Group_1192711" data-name="Group 1192711" transform="translate(9.032 31.594)">
            <g id="Group_1192710" data-name="Group 1192710">
              <g id="Group_1192709" data-name="Group 1192709">
                <path id="Path_1016528" data-name="Path 1016528" d="M3595.9,2031.466a.2.2,0,0,1-.194-.156,26.949,26.949,0,0,0-16.122-19.2.2.2,0,0,1,.152-.368,27.344,27.344,0,0,1,16.359,19.479.2.2,0,0,1-.151.238A.139.139,0,0,1,3595.9,2031.466Z" transform="translate(-3579.462 -2011.729)" fill="#4e1721"/>
              </g>
            </g>
          </g>
          <g id="Group_1192714" data-name="Group 1192714" transform="translate(24.417 9.182)">
            <g id="Group_1192713" data-name="Group 1192713">
              <g id="Group_1192712" data-name="Group 1192712">
                <path id="Path_1016529" data-name="Path 1016529" d="M3623.434,1997.273h-.01a.2.2,0,0,1-.189-.208c.011-.231,1.008-23.3-5.345-41.03a.2.2,0,0,1,.375-.134c6.38,17.81,5.378,40.951,5.368,41.183A.2.2,0,0,1,3623.434,1997.273Z" transform="translate(-3617.878 -1955.769)" fill="#4e1721"/>
              </g>
            </g>
          </g>
          <g id="Group_1192717" data-name="Group 1192717" transform="translate(33.014 37.979)">
            <g id="Group_1192716" data-name="Group 1192716">
              <g id="Group_1192715" data-name="Group 1192715">
                <path id="Path_1016530" data-name="Path 1016530" d="M3639.542,2040.539h-.017a.2.2,0,0,1-.182-.215c.589-6.992,5.208-11.916,8.176-12.646a.2.2,0,0,1,.1.386c-2.854.7-7.3,5.484-7.874,12.293A.2.2,0,0,1,3639.542,2040.539Z" transform="translate(-3639.342 -2027.671)" fill="#4e1721"/>
              </g>
            </g>
          </g>
          <g id="Group_1192720" data-name="Group 1192720" transform="translate(24.354 18.617)">
            <g id="Group_1192719" data-name="Group 1192719">
              <g id="Group_1192718" data-name="Group 1192718">
                <path id="Path_1016531" data-name="Path 1016531" d="M3621.181,1982.287a.2.2,0,0,1-.123-.042l-3.261-2.563a.2.2,0,0,1,.246-.313l3.261,2.563a.2.2,0,0,1,.033.28A.211.211,0,0,1,3621.181,1982.287Z" transform="translate(-3617.721 -1979.326)" fill="#4e1721"/>
              </g>
            </g>
          </g>
          <g id="Group_1192723" data-name="Group 1192723" transform="translate(25.629 9.781)">
            <g id="Group_1192722" data-name="Group 1192722">
              <g id="Group_1192721" data-name="Group 1192721">
                <path id="Path_1016532" data-name="Path 1016532" d="M3621.1,1960.818a.2.2,0,0,1-.183-.278l1.37-3.157a.2.2,0,1,1,.365.159l-1.37,3.157A.2.2,0,0,1,3621.1,1960.818Z" transform="translate(-3620.903 -1957.263)" fill="#4e1721"/>
              </g>
            </g>
          </g>
          <g id="Group_1192726" data-name="Group 1192726" transform="translate(38.465 36.408)">
            <g id="Group_1192725" data-name="Group 1192725">
              <g id="Group_1192724" data-name="Group 1192724">
                <path id="Path_1016533" data-name="Path 1016533" d="M3653.152,2027.05a.2.2,0,0,1-.042,0,.2.2,0,0,1-.153-.236l.625-2.9a.2.2,0,1,1,.389.084l-.625,2.9A.2.2,0,0,1,3653.152,2027.05Z" transform="translate(-3652.952 -2023.75)" fill="#4e1721"/>
              </g>
            </g>
          </g>
          <g id="Group_1192729" data-name="Group 1192729" transform="translate(35.681 42.564)">
            <g id="Group_1192728" data-name="Group 1192728">
              <g id="Group_1192727" data-name="Group 1192727">
                <path id="Path_1016534" data-name="Path 1016534" d="M3646.2,2039.713a.2.2,0,0,1-.012-.4l3.044-.194a.2.2,0,0,1,.025.4l-3.044.194Z" transform="translate(-3646.003 -2039.12)" fill="#4e1721"/>
              </g>
            </g>
          </g>
        </g>
        <g id="Group_1192733" data-name="Group 1192733" transform="translate(15.623 49.441)">
          <g id="Group_1192732" data-name="Group 1192732">
            <g id="Group_1192731" data-name="Group 1192731">
              <rect id="Rectangle_461704" data-name="Rectangle 461704" width="26.058" height="5.646" fill="#bf6849"/>
            </g>
          </g>
        </g>
        <g id="Group_1192736" data-name="Group 1192736" transform="translate(18.01 55.088)">
          <g id="Group_1192735" data-name="Group 1192735">
            <g id="Group_1192734" data-name="Group 1192734">
              <path id="Path_1016535" data-name="Path 1016535" d="M3623.162,2070.39H3601.88l1.666,19.016h17.95Z" transform="translate(-3601.88 -2070.39)" fill="#bf6849"/>
            </g>
          </g>
        </g>
      </g>
      <g id="Group_1192739" data-name="Group 1192739" transform="translate(3707.094 1623.319)">
        <g id="Group_1192738" data-name="Group 1192738">
          <path id="Path_1016536" data-name="Path 1016536" d="M3931.9,1726.779c15.083-13.948,29.583-37.358,32.178-38.331s6.974,14.921,6.487,16.056-18.878,21.464-18.878,21.464Z" transform="translate(-3931.9 -1688.405)" fill="#fcca57"/>
        </g>
      </g>
      <g id="Group_1192741" data-name="Group 1192741" transform="translate(3733.363 1619.228)">
        <g id="Group_1192740" data-name="Group 1192740" transform="translate(0 0)">
          <path id="Path_1016537" data-name="Path 1016537" d="M4033.163,1720.384c-8.673-5.624-1.979-20.316-1.9-31.229a9.989,9.989,0,0,0-7-9.607,30.393,30.393,0,0,0-10-1.341c-11.731,3.051-10.866,4.121-10.866,4.121l-2.7,5.625c-4.541,6.989-4.541,13.88,1.838,15.553,1.3,15.356,2.018,16.879,2.018,16.879Z" transform="translate(-3997.49 -1678.191)" fill="#fcca57"/>
        </g>
      </g>
      <g id="Group_1192743" data-name="Group 1192743" transform="translate(3733.274 1628.897)">
        <g id="Group_1192742" data-name="Group 1192742" transform="translate(0 0)">
          <path id="Path_1016538" data-name="Path 1016538" d="M4002.4,1718.064a.089.089,0,0,0,.023-.174,6.15,6.15,0,0,1-4.51-3.73c-1.155-2.986-.162-7.247,2.724-11.689a.088.088,0,0,0-.148-.1c-2.918,4.49-3.917,8.809-2.741,11.85a6.4,6.4,0,0,0,4.631,3.837A.055.055,0,0,0,4002.4,1718.064Z" transform="translate(-3997.269 -1702.334)" fill="#3f1c16"/>
        </g>
      </g>
      <g id="Group_1192760" data-name="Group 1192760" transform="translate(3730.064 1661.286)">
        <g id="Group_1192746" data-name="Group 1192746" transform="translate(0 107.521)">
          <g id="Group_1192745" data-name="Group 1192745">
            <g id="Group_1192744" data-name="Group 1192744">
              <path id="Path_1016539" data-name="Path 1016539" d="M4013.794,2074.184l-6.485,3.305-18.056.132c0-3.928,15.5-10.849,16.823-12.269s-2.362-13.678-2.362-13.678l14.3.05,3.833,25.66-8.039.059Z" transform="translate(-3989.253 -2051.674)" fill="#f2cf63"/>
            </g>
          </g>
        </g>
        <g id="Group_1192748" data-name="Group 1192748" transform="translate(11.642 117.141)">
          <g id="Group_1192747" data-name="Group 1192747">
            <path id="Path_1016540" data-name="Path 1016540" d="M4018.649,2080.734a.626.626,0,0,1-.3-.73c.174-.547,1.191-1.15,3.474-1.115-1.216-1.507-1.8-2.644-1.554-3.056a.3.3,0,0,1,.337-.132c.58.1,1.818,1.414,2.22,3.658a.087.087,0,0,1-.029.083,5.337,5.337,0,0,1-3.26,1.521A1.608,1.608,0,0,1,4018.649,2080.734Zm1.926-4.858c-.113-.019-.143.029-.154.047-.117.2.081,1.082,1.66,3a.09.09,0,0,1,.011.1.1.1,0,0,1-.083.049c-2.17-.075-3.319.444-3.492.987a.453.453,0,0,0,.227.529c.555.366,2.048.334,3.9-1.246C4022.25,2077.238,4021.093,2075.968,4020.576,2075.876Z" transform="translate(-4018.322 -2075.693)" fill="#3f1c16"/>
          </g>
        </g>
        <g id="Group_1192750" data-name="Group 1192750" transform="translate(6.277 0)">
          <g id="Group_1192749" data-name="Group 1192749">
            <path id="Path_1016541" data-name="Path 1016541" d="M4026.454,1789.547l4.466,11.724.989,94.58h-20.726s-9.27-98.824-5.245-106.862c1.875-3.746,3.071-5.653,3.071-5.653l9.167-.131Z" transform="translate(-4004.925 -1783.206)" fill="#bf5c42"/>
          </g>
        </g>
        <g id="Group_1192757" data-name="Group 1192757" transform="translate(53.65 107.411)">
          <g id="Group_1192752" data-name="Group 1192752">
            <g id="Group_1192751" data-name="Group 1192751">
              <path id="Path_1016542" data-name="Path 1016542" d="M4128.088,2077.432l19.428-.04-13.241-25.992H4123.21Z" transform="translate(-4123.21 -2051.4)" fill="#f2cf63"/>
            </g>
          </g>
          <g id="Group_1192754" data-name="Group 1192754" transform="translate(6.603 16.103)">
            <g id="Group_1192753" data-name="Group 1192753">
              <path id="Path_1016543" data-name="Path 1016543" d="M4152.847,2094.355a.085.085,0,0,0,.049-.016.089.089,0,0,0,.024-.123c-.97-1.426-3.187-2.416-5.788-2.585a9.09,9.09,0,0,0-7.412,2.575.087.087,0,0,0,.008.125.089.089,0,0,0,.125-.007,8.914,8.914,0,0,1,7.268-2.517c2.547.165,4.713,1.126,5.652,2.507A.1.1,0,0,0,4152.847,2094.355Z" transform="translate(-4139.698 -2091.606)" fill="#3f1c16"/>
            </g>
          </g>
          <g id="Group_1192756" data-name="Group 1192756" transform="translate(10.171 10.432)">
            <g id="Group_1192755" data-name="Group 1192755">
              <path id="Path_1016544" data-name="Path 1016544" d="M4151.507,2081.273c-2.179-1.01-3.024-2.393-2.887-3.249a.627.627,0,0,1,.542-.572c.567-.066,1.544.608,2.447,2.706.873-1.729,1.671-2.724,2.145-2.675a.3.3,0,0,1,.259.253c.145.571-.54,2.239-2.419,3.53a.088.088,0,0,1-.05.016A.129.129,0,0,1,4151.507,2081.273Zm.172-.865a.1.1,0,0,1-.082.049.09.09,0,0,1-.08-.055c-.828-2.009-1.765-2.845-2.337-2.776a.453.453,0,0,0-.388.424c-.106.657.539,2,2.74,3.04,1.756-1.224,2.436-2.8,2.307-3.312-.028-.113-.084-.118-.106-.121h-.015C4153.478,2077.656,4152.761,2078.225,4151.679,2080.408Z" transform="translate(-4148.606 -2077.447)" fill="#3f1c16"/>
            </g>
          </g>
        </g>
        <g id="Group_1192759" data-name="Group 1192759" transform="translate(19.527 0.002)">
          <g id="Group_1192758" data-name="Group 1192758">
            <path id="Path_1016545" data-name="Path 1016545" d="M4038.01,1783.21l3.742,14.785,1.884.628,26.169,97.232h20.726l-17.163-88.825A39.143,39.143,0,0,0,4062.346,1788l-4.892-4.659Z" transform="translate(-4038.01 -1783.21)" fill="#bf6849"/>
          </g>
        </g>
      </g>
      <g id="Group_1192762" data-name="Group 1192762" transform="translate(3746.708 1593.971)">
        <g id="Group_1192761" data-name="Group 1192761" transform="translate(0 0)">
          <circle id="Ellipse_15111" data-name="Ellipse 15111" cx="6.022" cy="6.022" r="6.022" transform="translate(0 5.111) rotate(-25.112)" fill="#3f1c16"/>
        </g>
      </g>
      <g id="Group_1192814" data-name="Group 1192814" transform="translate(3736.049 1597.667)">
        <g id="Group_1192764" data-name="Group 1192764" transform="translate(7.661 10.319)">
          <g id="Group_1192763" data-name="Group 1192763">
            <path id="Path_1016546" data-name="Path 1016546" d="M4030.705,1650.12l-7.379,4.99,2.772,9.1a4.18,4.18,0,1,0,7.969-2.523Z" transform="translate(-4023.327 -1650.12)" fill="#dd958b"/>
          </g>
        </g>
        <g id="Group_1192766" data-name="Group 1192766" transform="translate(0 0.157)">
          <g id="Group_1192765" data-name="Group 1192765">
            <path id="Path_1016547" data-name="Path 1016547" d="M4008.116,1626.022c-4.836,2.459-3.98,9.494-3.625,13.164s3.926,8.726,9.307,5.892a10.393,10.393,0,0,0,3.028-2.466,18.82,18.82,0,0,0,3.7-7.932,34.932,34.932,0,0,1-1.381-3.558C4018.573,1626.158,4012.605,1622.786,4008.116,1626.022Z" transform="translate(-4004.198 -1624.747)" fill="#fff"/>
          </g>
        </g>
        <g id="Group_1192768" data-name="Group 1192768" transform="translate(0 0.157)">
          <g id="Group_1192767" data-name="Group 1192767">
            <path id="Path_1016548" data-name="Path 1016548" d="M4008.116,1626.022c-4.836,2.459-3.98,9.494-3.625,13.164s3.926,8.726,9.307,5.892a10.393,10.393,0,0,0,3.028-2.466,18.82,18.82,0,0,0,3.7-7.932,34.932,34.932,0,0,1-1.381-3.558C4018.573,1626.158,4012.605,1622.786,4008.116,1626.022Z" transform="translate(-4004.198 -1624.747)" fill="#dd958b"/>
          </g>
        </g>
        <g id="Group_1192770" data-name="Group 1192770" transform="translate(0.326)">
          <g id="Group_1192769" data-name="Group 1192769">
            <path id="Path_1016549" data-name="Path 1016549" d="M4008.559,1625.642a7.265,7.265,0,0,0-3.548,5.313c3.038-3.387,7.366-5.621,8.643-1.793,3.059.882,2.229,7.146,5.829,5.181a3.849,3.849,0,0,0,1-1.141,6.316,6.316,0,0,1-.446-2.518C4019.469,1625.719,4013.049,1622.4,4008.559,1625.642Z" transform="translate(-4005.011 -1624.355)" fill="#3f1c16"/>
          </g>
        </g>
        <g id="Group_1192772" data-name="Group 1192772" transform="translate(0.4 13.202)">
          <g id="Group_1192771" data-name="Group 1192771">
            <path id="Path_1016550" data-name="Path 1016550" d="M4005.322,1658.673c-.038-.4-.083-.842-.125-1.312a2.447,2.447,0,0,1,1.263,4.715A8.518,8.518,0,0,1,4005.322,1658.673Z" transform="translate(-4005.197 -1657.319)" fill="#dd7d72"/>
          </g>
        </g>
        <g id="Group_1192774" data-name="Group 1192774" transform="translate(8.132 9.944)">
          <g id="Group_1192773" data-name="Group 1192773">
            <path id="Path_1016551" data-name="Path 1016551" d="M4029.063,1650.392a2.449,2.449,0,1,1-3.352-.871A2.449,2.449,0,0,1,4029.063,1650.392Z" transform="translate(-4024.503 -1649.185)" fill="#dd7d72"/>
          </g>
        </g>
        <g id="Group_1192776" data-name="Group 1192776" transform="translate(0.694 9.103)">
          <g id="Group_1192775" data-name="Group 1192775">
            <path id="Path_1016552" data-name="Path 1016552" d="M4007.46,1647.2a.146.146,0,0,1-.111.171,2.254,2.254,0,0,0-1.155.817.147.147,0,0,1-.234-.176,2.5,2.5,0,0,1,1.324-.926.146.146,0,0,1,.175.111S4007.46,1647.2,4007.46,1647.2Z" transform="translate(-4005.931 -1647.084)" fill="#3f1c16"/>
          </g>
        </g>
        <g id="Group_1192781" data-name="Group 1192781" transform="translate(3.489 12.671)">
          <g id="Group_1192778" data-name="Group 1192778" transform="translate(0.148 0.147)">
            <g id="Group_1192777" data-name="Group 1192777">
              <path id="Path_1016553" data-name="Path 1016553" d="M4013.908,1656.36a1.177,1.177,0,0,0-.629,1c.011.5.448.926,1.36.817A18.52,18.52,0,0,1,4013.908,1656.36Z" transform="translate(-4013.279 -1656.36)" fill="#dd7d72"/>
            </g>
          </g>
          <g id="Group_1192780" data-name="Group 1192780">
            <g id="Group_1192779" data-name="Group 1192779">
              <path id="Path_1016554" data-name="Path 1016554" d="M4014.559,1657.93a.079.079,0,0,1,0,.011.147.147,0,0,1-.128.163,1.489,1.489,0,0,1-1.2-.273.93.93,0,0,1-.32-.686,1.326,1.326,0,0,1,.7-1.132.147.147,0,0,1,.148.253,1.033,1.033,0,0,0-.557.873.625.625,0,0,0,.219.471,1.247,1.247,0,0,0,.977.2A.144.144,0,0,1,4014.559,1657.93Z" transform="translate(-4012.909 -1655.992)" fill="#3f1c16"/>
            </g>
          </g>
        </g>
        <g id="Group_1192788" data-name="Group 1192788" transform="translate(14.014 7.871)">
          <g id="Group_1192783" data-name="Group 1192783">
            <g id="Group_1192782" data-name="Group 1192782">
              <path id="Path_1016555" data-name="Path 1016555" d="M4039.189,1646.516a2.561,2.561,0,1,0,2.613-2.507A2.561,2.561,0,0,0,4039.189,1646.516Z" transform="translate(-4039.188 -1644.009)" fill="#dd7d72"/>
            </g>
          </g>
          <g id="Group_1192785" data-name="Group 1192785" transform="translate(1.195 1.009)">
            <g id="Group_1192784" data-name="Group 1192784">
              <path id="Path_1016556" data-name="Path 1016556" d="M4044.871,1646.794a.146.146,0,0,1-.2.161,1.631,1.631,0,0,0-1.975.56,1.453,1.453,0,0,0,.39,1.928.146.146,0,0,1-.2.211,1.725,1.725,0,0,1-.428-2.3,1.928,1.928,0,0,1,2.338-.662A.164.164,0,0,1,4044.871,1646.794Z" transform="translate(-4042.173 -1646.529)" fill="#3f1c16"/>
            </g>
          </g>
          <g id="Group_1192787" data-name="Group 1192787" transform="translate(1.26 2.253)">
            <g id="Group_1192786" data-name="Group 1192786">
              <path id="Path_1016557" data-name="Path 1016557" d="M4043.738,1650.317a1.072,1.072,0,0,1,.016.127.146.146,0,0,1-.138.155.152.152,0,0,1-.155-.138.519.519,0,0,0-.325-.474.594.594,0,0,0-.564.019.147.147,0,1,1-.184-.228.884.884,0,0,1,.867-.058A.814.814,0,0,1,4043.738,1650.317Z" transform="translate(-4042.334 -1649.634)" fill="#3f1c16"/>
            </g>
          </g>
        </g>
        <g id="Group_1192791" data-name="Group 1192791" transform="translate(3.547 13.509)">
          <g id="Group_1192789" data-name="Group 1192789" transform="translate(0.146 0.146)">
            <path id="Path_1016558" data-name="Path 1016558" d="M4013.42,1660.981l4.514-2.532C4017.645,1662.37,4014.934,1663.712,4013.42,1660.981Z" transform="translate(-4013.42 -1658.449)" fill="#3f1c16"/>
          </g>
          <g id="Group_1192790" data-name="Group 1192790">
            <path id="Path_1016559" data-name="Path 1016559" d="M4017.86,1658.2a.148.148,0,0,1,0,.039c-.162,2.188-1.092,3.784-2.369,4.063-.91.2-1.792-.337-2.419-1.471a.146.146,0,0,1,.056-.2l4.514-2.531a.146.146,0,0,1,.15,0A.142.142,0,0,1,4017.86,1658.2Zm-4.454,2.615c.553.926,1.286,1.363,2.028,1.2.9-.2,1.885-1.362,2.114-3.524Z" transform="translate(-4013.056 -1658.084)" fill="#3f1c16"/>
          </g>
        </g>
        <g id="Group_1192794" data-name="Group 1192794" transform="translate(5.27 13.395)">
          <g id="Group_1192792" data-name="Group 1192792" transform="translate(0.146 0.261)">
            <path id="Path_1016560" data-name="Path 1016560" d="M4020.429,1658.5l-2.114,1.8a2.542,2.542,0,0,0-.5,2.118c1.259.086,2.5-1.376,2.7-3.963Z" transform="translate(-4017.722 -1658.452)" fill="#dd7d72"/>
          </g>
          <g id="Group_1192793" data-name="Group 1192793">
            <path id="Path_1016561" data-name="Path 1016561" d="M4020.462,1657.8l-.02.272c-.208,2.8-1.591,4.184-2.851,4.1l-.093-.006-.034-.087a2.644,2.644,0,0,1,.517-2.26l.021-.022,2.137-1.813Zm-2.756,4.081c1.041,0,2.152-1.181,2.413-3.5l-1.914,1.628A2.438,2.438,0,0,0,4017.707,1661.881Z" transform="translate(-4017.357 -1657.8)" fill="#3f1c16"/>
          </g>
        </g>
        <g id="Group_1192797" data-name="Group 1192797" transform="translate(3.695 13.509)">
          <g id="Group_1192795" data-name="Group 1192795" transform="translate(0.145 0.144)">
            <path id="Path_1016562" data-name="Path 1016562" d="M4018.154,1658.447v0l-4.367,2.449C4015.21,1661.635,4017.112,1660.634,4018.154,1658.447Z" transform="translate(-4013.787 -1658.445)" fill="#fff"/>
          </g>
          <g id="Group_1192796" data-name="Group 1192796">
            <path id="Path_1016563" data-name="Path 1016563" d="M4018.08,1658.2a.152.152,0,0,1,0,.042.253.253,0,0,1,0,.027.213.213,0,0,1-.009.024,4.871,4.871,0,0,1-2.652,2.628,2.407,2.407,0,0,1-1.915-.114.146.146,0,0,1,0-.258l4.366-2.449a.147.147,0,0,1,.162.013A.136.136,0,0,1,4018.08,1658.2Zm-4.181,2.459a2.175,2.175,0,0,0,1.424-.017,4.349,4.349,0,0,0,2.256-2.047Z" transform="translate(-4013.424 -1658.085)" fill="#3f1c16"/>
          </g>
        </g>
        <g id="Group_1192799" data-name="Group 1192799" transform="translate(4.836 7.961)">
          <g id="Group_1192798" data-name="Group 1192798">
            <path id="Path_1016564" data-name="Path 1016564" d="M4018.884,1644.64a.146.146,0,0,1-.239.14c-.005,0-.652-.522-2.183-.061a.147.147,0,0,1-.183-.1.152.152,0,0,1,.1-.183c1.7-.511,2.429.094,2.459.12A.134.134,0,0,1,4018.884,1644.64Z" transform="translate(-4016.274 -1644.233)" fill="#3f1c16"/>
          </g>
        </g>
        <g id="Group_1192805" data-name="Group 1192805" transform="translate(0.633 11.387)">
          <g id="Group_1192802" data-name="Group 1192802" transform="translate(0.724)">
            <g id="Group_1192801" data-name="Group 1192801">
              <g id="Group_1192800" data-name="Group 1192800">
                <path id="Path_1016565" data-name="Path 1016565" d="M4007.873,1654.162c.353.447.893.607,1.208.359a.918.918,0,0,0-.068-1.258c-.352-.447-.893-.607-1.208-.359A.918.918,0,0,0,4007.873,1654.162Z" transform="translate(-4007.588 -1652.788)" fill="#3f1c16"/>
              </g>
            </g>
          </g>
          <g id="Group_1192804" data-name="Group 1192804" transform="translate(0 0.498)">
            <g id="Group_1192803" data-name="Group 1192803">
              <path id="Path_1016566" data-name="Path 1016566" d="M4006.861,1654.247a.145.145,0,0,1-.079.159.852.852,0,0,1-.764.053.418.418,0,0,1-.238-.25.153.153,0,0,1,.111-.175.147.147,0,0,1,.175.111c.017.024.212.183.585,0a.147.147,0,0,1,.2.066C4006.853,1654.223,4006.857,1654.235,4006.861,1654.247Z" transform="translate(-4005.779 -1654.031)" fill="#3f1c16"/>
            </g>
          </g>
        </g>
        <g id="Group_1192811" data-name="Group 1192811" transform="translate(5.18 9.933)">
          <g id="Group_1192808" data-name="Group 1192808" transform="translate(0.725)">
            <g id="Group_1192807" data-name="Group 1192807">
              <g id="Group_1192806" data-name="Group 1192806">
                <path id="Path_1016567" data-name="Path 1016567" d="M4019.229,1650.532c.352.447.893.607,1.207.359a.919.919,0,0,0-.068-1.258c-.353-.446-.893-.607-1.207-.359A.913.913,0,0,0,4019.229,1650.532Z" transform="translate(-4018.941 -1649.157)" fill="#3f1c16"/>
              </g>
            </g>
          </g>
          <g id="Group_1192810" data-name="Group 1192810" transform="translate(0 0.503)">
            <g id="Group_1192809" data-name="Group 1192809">
              <path id="Path_1016568" data-name="Path 1016568" d="M4018.216,1650.627a.146.146,0,0,1-.079.159.852.852,0,0,1-.763.054.416.416,0,0,1-.238-.25.145.145,0,0,1,.111-.175.147.147,0,0,1,.175.11c.017.024.213.183.585,0a.146.146,0,0,1,.2.066A.231.231,0,0,1,4018.216,1650.627Z" transform="translate(-4017.131 -1650.412)" fill="#3f1c16"/>
            </g>
          </g>
        </g>
        <g id="Group_1192813" data-name="Group 1192813" transform="translate(8.49 2.697)">
          <g id="Group_1192812" data-name="Group 1192812">
            <path id="Path_1016569" data-name="Path 1016569" d="M4027.533,1631.334a4.834,4.834,0,0,0-1.848,2.847l-.287-.059a5.046,5.046,0,0,1,1.975-3.033Z" transform="translate(-4025.397 -1631.089)" fill="#dd7d72"/>
          </g>
        </g>
      </g>
      <g id="Group_1192816" data-name="Group 1192816" transform="translate(3732.786 1635.039)">
        <g id="Group_1192815" data-name="Group 1192815" transform="translate(0 0)">
          <path id="Path_1016570" data-name="Path 1016570" d="M3996.05,1735.023l3.244,12.813,19.093,1.933a6.782,6.782,0,0,0,7.405-5.847l3.344-24.956-14.921-1.3-.811,16.381Z" transform="translate(-3996.05 -1717.669)" fill="#fcca57"/>
        </g>
      </g>
      <g id="Group_1192818" data-name="Group 1192818" transform="translate(3732.698 1641.599)">
        <g id="Group_1192817" data-name="Group 1192817">
          <path id="Path_1016571" data-name="Path 1016571" d="M3999.163,1757.743a.081.081,0,0,0,.021,0,.088.088,0,0,0,.064-.107l-3.217-12.706,14.325-.483a.088.088,0,0,0,.082-.063l3.082-10.218a.089.089,0,0,0-.169-.051l-3.063,10.157-14.371.484a.089.089,0,0,0-.083.11l3.244,12.813A.084.084,0,0,0,3999.163,1757.743Z" transform="translate(-3995.831 -1734.049)" fill="#3f1c16"/>
        </g>
      </g>
      <g id="Group_1192820" data-name="Group 1192820" transform="translate(3762.438 1653.601)">
        <g id="Group_1192819" data-name="Group 1192819" transform="translate(0 0)">
          <path id="Path_1016572" data-name="Path 1016572" d="M4070.177,1771.8a.088.088,0,0,0,.087-.076l1.074-7.6a.089.089,0,1,0-.175-.025l-1.074,7.6a.088.088,0,0,0,.075.1Z" transform="translate(-4070.088 -1764.017)" fill="#3f1c16"/>
        </g>
      </g>
      <g id="Group_1192822" data-name="Group 1192822" transform="translate(3751.509 1623.437)">
        <g id="Group_1192821" data-name="Group 1192821" transform="translate(0 0)">
          <path id="Path_1016573" data-name="Path 1016573" d="M4042.888,1696.013a.088.088,0,0,0,.086-.07c.337-1.57,2.12-6.72,10.946-7.067a.088.088,0,0,0,.085-.092.085.085,0,0,0-.092-.085c-8.953.351-10.769,5.6-11.112,7.206a.089.089,0,0,0,.068.1A.064.064,0,0,0,4042.888,1696.013Z" transform="translate(-4042.799 -1688.7)" fill="#3f1c16"/>
        </g>
      </g>
      <g id="Group_1192823" data-name="Group 1192823" transform="translate(3735.979 1604.172)">
        <path id="Path_1016574" data-name="Path 1016574" d="M4010.7,1655.546a5.194,5.194,0,0,1-2.478-.642c-5.784-3.088-3.913-14.117-3.893-14.228a.093.093,0,1,1,.184.032c-.019.11-1.867,11.007,3.8,14.031,4.928,2.631,9.32-3.979,9.363-4.046a.093.093,0,0,1,.156.1C4017.791,1650.852,4014.675,1655.546,4010.7,1655.546Z" transform="translate(-4004.024 -1640.598)" fill="#3f1c16"/>
      </g>
      <g id="Group_1192918" data-name="Group 1192918" transform="translate(3616.473 1589.025)">
        <g id="Group_1192836" data-name="Group 1192836" transform="translate(29.003 25.384)">
          <g id="Group_1192825" data-name="Group 1192825" transform="translate(0.192)">
            <g id="Group_1192824" data-name="Group 1192824">
              <path id="Path_1016575" data-name="Path 1016575" d="M3791.312,1739.4s0,8.586-.094,9.426-1.306,2.893-3.266,2.333a3.055,3.055,0,0,1-3.173.84,2.29,2.29,0,0,1-2.52-.28,1.789,1.789,0,0,1-1.077.772,1.427,1.427,0,0,1-1.494-.5,1.451,1.451,0,0,1-.277-.575c-.378-1.623-.884-4.553-.884-4.553-.016-7.728,2.971-10.807,3.251-11.928s4.759-57.676,8.492-62.155a25.771,25.771,0,0,1,9.146-6.626l5.506,18.105Z" transform="translate(-3778.527 -1666.16)" fill="#dd8973"/>
            </g>
          </g>
          <g id="Group_1192827" data-name="Group 1192827" transform="translate(0 76.162)">
            <g id="Group_1192826" data-name="Group 1192826">
              <path id="Path_1016576" data-name="Path 1016576" d="M3782.33,1863.037a14.087,14.087,0,0,0,4.09-.714,1.611,1.611,0,0,0,.7-.45,1.458,1.458,0,0,0,.361-.728,1,1,0,0,0-.275-.948c-.566-.547-1.844-.543-2.816-.443a5.424,5.424,0,0,0,2.309-3.182.193.193,0,0,0-.373-.1,5.2,5.2,0,0,1-3.169,3.474.193.193,0,0,0,.1.373c.8-.171,3.027-.476,3.683.156a.628.628,0,0,1,.163.6,1.072,1.072,0,0,1-.267.535,1.226,1.226,0,0,1-.534.342c-1.441.461-6.264,1.74-7.893-1.173a.193.193,0,0,0-.337.188A4.525,4.525,0,0,0,3782.33,1863.037Z" transform="translate(-3778.048 -1856.328)" fill="#3f1c16"/>
            </g>
          </g>
          <g id="Group_1192829" data-name="Group 1192829" transform="translate(3.729 82.506)">
            <g id="Group_1192828" data-name="Group 1192828">
              <path id="Path_1016577" data-name="Path 1016577" d="M3787.551,1875.417a.192.192,0,0,0,.185-.139,5,5,0,0,0,.242-2.989.193.193,0,1,0-.357.145,4.854,4.854,0,0,1-.255,2.735.193.193,0,0,0,.131.239A.125.125,0,0,0,3787.551,1875.417Z" transform="translate(-3787.358 -1872.169)" fill="#3f1c16"/>
            </g>
          </g>
          <g id="Group_1192831" data-name="Group 1192831" transform="translate(6.252 82.196)">
            <g id="Group_1192830" data-name="Group 1192830">
              <path id="Path_1016578" data-name="Path 1016578" d="M3793.851,1875.233a.193.193,0,0,0,.175-.112c1.09-2.371.331-3.588.3-3.639a.193.193,0,0,0-.324.21c.006.01.668,1.107-.324,3.267a.192.192,0,0,0,.094.256A.159.159,0,0,0,3793.851,1875.233Z" transform="translate(-3793.658 -1871.394)" fill="#3f1c16"/>
            </g>
          </g>
          <g id="Group_1192833" data-name="Group 1192833" transform="translate(9.051 80.623)">
            <g id="Group_1192832" data-name="Group 1192832">
              <path id="Path_1016579" data-name="Path 1016579" d="M3801.213,1872.038a.193.193,0,0,0,.186-.143c.477-1.771.7-3.884.048-4.337a.583.583,0,0,0-.717.071.193.193,0,1,0,.221.316c.125-.088.217-.111.274-.071.341.239.343,1.908-.2,3.921a.193.193,0,0,0,.136.236A.138.138,0,0,0,3801.213,1872.038Z" transform="translate(-3800.648 -1867.467)" fill="#3f1c16"/>
            </g>
          </g>
          <g id="Group_1192835" data-name="Group 1192835" transform="translate(9.984 79.601)">
            <g id="Group_1192834" data-name="Group 1192834">
              <path id="Path_1016580" data-name="Path 1016580" d="M3803.171,1866.963a.193.193,0,0,0,.193-.193,1.376,1.376,0,0,1,.519-1.14,2.1,2.1,0,0,1,1.821-.229.193.193,0,0,0,.1-.373,2.477,2.477,0,0,0-2.156.3,1.748,1.748,0,0,0-.669,1.446A.194.194,0,0,0,3803.171,1866.963Z" transform="translate(-3802.978 -1864.915)" fill="#3f1c16"/>
            </g>
          </g>
        </g>
        <g id="Group_1192850" data-name="Group 1192850" transform="translate(20.716 139.43)">
          <g id="Group_1192838" data-name="Group 1192838" transform="translate(0)">
            <g id="Group_1192837" data-name="Group 1192837">
              <path id="Path_1016581" data-name="Path 1016581" d="M3796.179,1950.92l6.681,66.852-45.5.147c2.334-8.379,21.845-14.667,23.554-17.033s-5.513-47.353-5.513-47.353Z" transform="translate(-3757.358 -1950.92)" fill="#dd8973"/>
            </g>
          </g>
          <g id="Group_1192841" data-name="Group 1192841" transform="translate(0 62.274)">
            <g id="Group_1192839" data-name="Group 1192839">
              <path id="Path_1016582" data-name="Path 1016582" d="M3802.859,2110.988l-45.5.147c.05-.18.111-.359.177-.537.015-.041.03-.082.046-.123.068-.177.142-.352.226-.527.006-.011.012-.023.018-.034.082-.169.171-.337.266-.5l.054-.095c.1-.177.212-.354.329-.529l.021-.03q.175-.261.37-.518l.037-.049q.208-.272.434-.54l.01-.012c.313-.369.655-.733,1.02-1.091h0l42.049-.136Z" transform="translate(-3757.357 -2106.411)" fill="#fff"/>
            </g>
            <g id="Group_1192840" data-name="Group 1192840" transform="translate(0.262 0.196)">
              <path id="Path_1016583" data-name="Path 1016583" d="M3802.631,2106.9l-41.795.135q-.514.509-.963,1.035c-.149.176-.291.354-.427.532l-.154-.118.117.166c-.127.168-.249.338-.383.538-.115.171-.221.345-.323.52l-.052.093c-.092.163-.18.328-.277.526-.081.17-.153.342-.22.515l-.045.118c-.033.092-.066.184-.1.276l45.029-.145Z" transform="translate(-3758.012 -2106.9)" fill="#3f1c16"/>
            </g>
          </g>
          <g id="Group_1192843" data-name="Group 1192843" transform="translate(15.69 45.761)">
            <g id="Group_1192842" data-name="Group 1192842">
              <path id="Path_1016584" data-name="Path 1016584" d="M3801.486,2069.366c-4.693-1.241-4.977-2.755-4.951-3.19a1.128,1.128,0,0,1,1.085-.973c1.092-.158,2.574.53,3.516,2.352.061-1.254.328-1.993.774-2.11.258-.066.515.088.69.417a3.012,3.012,0,0,1-.936,3.463.194.194,0,0,1-.128.049A.15.15,0,0,1,3801.486,2069.366Zm.521-3.548c-.191.05-.54.666-.5,2.641a.193.193,0,0,1-.375.07c-.806-2.25-2.354-3.1-3.463-2.945-.447.065-.736.3-.754.613-.041.7,1.134,1.844,4.563,2.768a2.635,2.635,0,0,0,.775-2.922c-.074-.139-.165-.227-.234-.227A.047.047,0,0,1,3802.007,2065.818Z" transform="translate(-3796.533 -2065.181)" fill="#3f1c16"/>
            </g>
          </g>
          <g id="Group_1192845" data-name="Group 1192845" transform="translate(0 42.62)">
            <g id="Group_1192844" data-name="Group 1192844">
              <path id="Path_1016585" data-name="Path 1016585" d="M3802.859,2081.569l-45.5.147c2.334-8.379,21.845-14.667,23.554-17.033.544-.752.414-3.69-.016-7.345a10.653,10.653,0,0,1,6.614,3.451c4.453,1.344,10.239.15,13.118-2.041Z" transform="translate(-3757.357 -2057.338)" fill="#4f638c"/>
            </g>
          </g>
          <g id="Group_1192847" data-name="Group 1192847" transform="translate(2.542 42.621)">
            <g id="Group_1192846" data-name="Group 1192846">
              <path id="Path_1016586" data-name="Path 1016586" d="M3784.716,2064.686c.544-.753.414-3.69-.016-7.345a10.653,10.653,0,0,1,6.614,3.451c2.291,6.415-1.375,15.156-13.076,16.848a49.57,49.57,0,0,1-14.535-.041C3769.67,2071.3,3783.3,2066.644,3784.716,2064.686Z" transform="translate(-3763.704 -2057.341)" fill="#ccc"/>
            </g>
          </g>
          <g id="Group_1192849" data-name="Group 1192849" transform="translate(0 61.617)">
            <g id="Group_1192848" data-name="Group 1192848">
              <path id="Path_1016587" data-name="Path 1016587" d="M3761.219,2104.77h41.128l.512,5.235-45.5.147A11.863,11.863,0,0,1,3761.219,2104.77Z" transform="translate(-3757.358 -2104.77)" fill="#ccc"/>
            </g>
          </g>
        </g>
        <g id="Group_1192864" data-name="Group 1192864" transform="translate(54.342 139.43)">
          <g id="Group_1192852" data-name="Group 1192852">
            <g id="Group_1192851" data-name="Group 1192851">
              <path id="Path_1016588" data-name="Path 1016588" d="M3880.138,1950.92l6.68,66.852-45.5.147c2.334-8.379,21.845-14.667,23.555-17.033s-5.513-47.353-5.513-47.353Z" transform="translate(-3841.317 -1950.92)" fill="#ddab9e"/>
            </g>
          </g>
          <g id="Group_1192855" data-name="Group 1192855" transform="translate(0 62.274)">
            <g id="Group_1192853" data-name="Group 1192853">
              <path id="Path_1016589" data-name="Path 1016589" d="M3886.819,2110.988l-45.5.147c.05-.18.111-.359.177-.537.015-.041.03-.082.046-.123.069-.177.142-.352.226-.527.005-.011.012-.023.017-.034.082-.169.171-.337.266-.5l.054-.095c.1-.177.212-.354.329-.529l.021-.03q.175-.261.37-.518l.037-.049q.207-.272.434-.54l.01-.012c.313-.369.655-.733,1.02-1.091h0l42.049-.136Z" transform="translate(-3841.317 -2106.411)" fill="#fff"/>
            </g>
            <g id="Group_1192854" data-name="Group 1192854" transform="translate(0.263 0.196)">
              <path id="Path_1016590" data-name="Path 1016590" d="M3886.591,2106.9l-41.795.135q-.517.513-.962,1.035c-.149.176-.292.354-.44.548l-.024.033c-.128.169-.249.338-.383.539-.115.171-.222.345-.323.52l-.053.093c-.092.163-.18.328-.276.526-.081.171-.153.342-.221.514l-.045.119c-.034.092-.066.184-.1.276l45.029-.146Z" transform="translate(-3841.973 -2106.9)" fill="#3f1c16"/>
            </g>
          </g>
          <g id="Group_1192857" data-name="Group 1192857" transform="translate(15.69 45.761)">
            <g id="Group_1192856" data-name="Group 1192856">
              <path id="Path_1016591" data-name="Path 1016591" d="M3885.446,2069.365c-4.693-1.241-4.977-2.755-4.952-3.19a1.128,1.128,0,0,1,1.084-.973c1.1-.161,2.575.53,3.516,2.352.061-1.254.328-1.993.774-2.11.259-.066.515.088.69.417a3.013,3.013,0,0,1-.936,3.463.2.2,0,0,1-.128.048A.165.165,0,0,1,3885.446,2069.365Zm.521-3.548c-.191.05-.54.667-.5,2.642a.193.193,0,0,1-.375.07c-.807-2.25-2.359-3.1-3.463-2.945-.448.065-.737.3-.754.613-.041.7,1.133,1.844,4.564,2.767a2.636,2.636,0,0,0,.775-2.922c-.074-.139-.166-.227-.233-.227A.053.053,0,0,1,3885.967,2065.816Z" transform="translate(-3880.493 -2065.179)" fill="#3f1c16"/>
            </g>
          </g>
          <g id="Group_1192859" data-name="Group 1192859" transform="translate(0 42.62)">
            <g id="Group_1192858" data-name="Group 1192858">
              <path id="Path_1016592" data-name="Path 1016592" d="M3886.819,2081.569l-45.5.147c2.334-8.379,21.845-14.667,23.555-17.033.544-.752.414-3.69-.016-7.345a10.653,10.653,0,0,1,6.613,3.451c4.453,1.344,10.238.15,13.117-2.041Z" transform="translate(-3841.317 -2057.338)" fill="#4f638c"/>
            </g>
          </g>
          <g id="Group_1192861" data-name="Group 1192861" transform="translate(2.546 42.621)">
            <g id="Group_1192860" data-name="Group 1192860">
              <path id="Path_1016593" data-name="Path 1016593" d="M3868.686,2064.686c.544-.753.414-3.69-.016-7.345a10.651,10.651,0,0,1,6.613,3.451c2.291,6.415-1.374,15.156-13.076,16.848a49.568,49.568,0,0,1-14.534-.041C3853.635,2071.3,3867.268,2066.644,3868.686,2064.686Z" transform="translate(-3847.673 -2057.341)" fill="#f2e6d8"/>
            </g>
          </g>
          <g id="Group_1192863" data-name="Group 1192863" transform="translate(0 61.617)">
            <g id="Group_1192862" data-name="Group 1192862">
              <path id="Path_1016594" data-name="Path 1016594" d="M3845.18,2104.77h41.128l.512,5.235-45.5.147A11.865,11.865,0,0,1,3845.18,2104.77Z" transform="translate(-3841.318 -2104.77)" fill="#f2e6d8"/>
            </g>
          </g>
        </g>
        <g id="Group_1192866" data-name="Group 1192866" transform="translate(37.11 81.008)">
          <g id="Group_1192865" data-name="Group 1192865">
            <path id="Path_1016595" data-name="Path 1016595" d="M3802.584,1811.952c.187.373-4.293,57.862-4.293,57.862h24.823l14.184-60.849-30.8-3.92Z" transform="translate(-3798.291 -1805.046)" fill="#73672c"/>
          </g>
        </g>
        <g id="Group_1192868" data-name="Group 1192868" transform="translate(60.813 85.113)">
          <g id="Group_1192867" data-name="Group 1192867">
            <path id="Path_1016596" data-name="Path 1016596" d="M3890.509,1818.841c1.866,27.251,1.68,57.489,1.68,57.489h-30.236l-4.479-61.035Z" transform="translate(-3857.473 -1815.295)" fill="#a38f38"/>
          </g>
        </g>
        <g id="Group_1192870" data-name="Group 1192870" transform="translate(41.376 21.175)">
          <g id="Group_1192869" data-name="Group 1192869">
            <path id="Path_1016597" data-name="Path 1016597" d="M3834.978,1655.65c10.76,1.316,14.679,2.716,14.679,2.716s5.413,11.2,5.413,11.946,7.839,35.651,7.839,36.957c1.12,5.6,1.493,18.105,1.493,18.105-19.6-1.306-48.9-5.6-55.432-2.987-.373-46.29,3.173-56,8.212-62.342C3824.649,1656.315,3834.978,1655.65,3834.978,1655.65Z" transform="translate(-3808.943 -1655.65)" fill="#4f638c"/>
          </g>
        </g>
        <g id="Group_1192872" data-name="Group 1192872" transform="translate(55.977 7.354)">
          <g id="Group_1192871" data-name="Group 1192871">
            <path id="Path_1016598" data-name="Path 1016598" d="M3845.4,1624.188l11.533-3.047,2.584,13.356a5.98,5.98,0,1,1-11.765,2.143Z" transform="translate(-3845.4 -1621.141)" fill="#ddab9e"/>
          </g>
        </g>
        <g id="Group_1192903" data-name="Group 1192903" transform="translate(53.34)">
          <g id="Group_1192874" data-name="Group 1192874">
            <g id="Group_1192873" data-name="Group 1192873">
              <path id="Path_1016599" data-name="Path 1016599" d="M3855.974,1609.692c2.015,1.142-1.959,7.9-1.959,7.9l-2.259.828c-.442,1.861-.009,4.787-5.784,5.259s-8.385-.748-6.6-4.655c-.65-3.273.833-4.545.833-4.545l.941-3.751c-.529-1.282-.146-1.766-.146-1.766-2.546-3.308.068-6.164,2.459-5.184,1.316-1.681,3.254-.889,3.437-.134.4-.667,1.366.242,1.265.861C3852.346,1604.044,3858.113,1607.012,3855.974,1609.692Z" transform="translate(-3838.815 -1602.778)" fill="#3f1c16"/>
            </g>
          </g>
          <g id="Group_1192876" data-name="Group 1192876" transform="translate(1.005 4.345)">
            <g id="Group_1192875" data-name="Group 1192875">
              <path id="Path_1016600" data-name="Path 1016600" d="M3850.642,1614.414c.137,1.1,2.228,1.55,2.559,1.483-.906,1.36-1.293,2.2-1.149,2.384.75,1.072-.933,5.211-1.618,5.617-6.426-1.36-9.11-.711-9.11-.711.208-2.943,1.088-6.946,1.967-7.973a4.561,4.561,0,0,0,2.263-1.586C3846.321,1615.543,3849.861,1615.223,3850.642,1614.414Z" transform="translate(-3841.324 -1613.628)" fill="#ddab9e"/>
            </g>
          </g>
          <g id="Group_1192878" data-name="Group 1192878" transform="translate(6.566 10.971)">
            <g id="Group_1192877" data-name="Group 1192877">
              <path id="Path_1016601" data-name="Path 1016601" d="M3858.759,1633.816c-1.32-.279-2.48-.473-3.493-.606a2.513,2.513,0,0,1,4.721-1.618A5.8,5.8,0,0,1,3858.759,1633.816Z" transform="translate(-3855.21 -1630.173)" fill="#dd8973"/>
            </g>
          </g>
          <g id="Group_1192880" data-name="Group 1192880" transform="translate(7.151 9.414)">
            <g id="Group_1192879" data-name="Group 1192879">
              <path id="Path_1016602" data-name="Path 1016602" d="M3856.759,1627.363a.667.667,0,1,0,.254-1.042A.777.777,0,0,0,3856.759,1627.363Z" transform="translate(-3856.671 -1626.283)" fill="#3f1c16"/>
            </g>
          </g>
          <g id="Group_1192882" data-name="Group 1192882" transform="translate(2.361 8.94)">
            <g id="Group_1192881" data-name="Group 1192881">
              <path id="Path_1016603" data-name="Path 1016603" d="M3844.8,1626.182a.668.668,0,1,0,.255-1.043A.777.777,0,0,0,3844.8,1626.182Z" transform="translate(-3844.711 -1625.101)" fill="#3f1c16"/>
            </g>
          </g>
          <g id="Group_1192889" data-name="Group 1192889" transform="translate(11.807 11.186)">
            <g id="Group_1192884" data-name="Group 1192884">
              <g id="Group_1192883" data-name="Group 1192883">
                <path id="Path_1016604" data-name="Path 1016604" d="M3868.846,1631.754a2.67,2.67,0,1,0,3.743-.5A2.669,2.669,0,0,0,3868.846,1631.754Z" transform="translate(-3868.295 -1630.707)" fill="#dd8973"/>
              </g>
            </g>
            <g id="Group_1192886" data-name="Group 1192886" transform="translate(1.131 1.314)">
              <g id="Group_1192885" data-name="Group 1192885">
                <path id="Path_1016605" data-name="Path 1016605" d="M3871.313,1636.348l-.01,0a.119.119,0,0,1-.138-.1,1.767,1.767,0,0,1,1.039-2.163,1.978,1.978,0,0,1,2.333.87.119.119,0,0,1-.208.116,1.735,1.735,0,0,0-2.045-.762,1.546,1.546,0,0,0-.884,1.9A.119.119,0,0,1,3871.313,1636.348Z" transform="translate(-3871.12 -1633.989)" fill="#3f1c16"/>
              </g>
            </g>
            <g id="Group_1192888" data-name="Group 1192888" transform="translate(1.61 1.796)">
              <g id="Group_1192887" data-name="Group 1192887">
                <path id="Path_1016606" data-name="Path 1016606" d="M3873.066,1636.592a.122.122,0,0,1-.1-.015.119.119,0,0,1-.035-.165.586.586,0,0,0,.02-.634.656.656,0,0,0-.516-.349.119.119,0,0,1-.124-.113.121.121,0,0,1,.113-.125.889.889,0,0,1,.734.469.822.822,0,0,1-.026.883A.113.113,0,0,1,3873.066,1636.592Z" transform="translate(-3872.315 -1635.191)" fill="#3f1c16"/>
              </g>
            </g>
          </g>
          <g id="Group_1192894" data-name="Group 1192894" transform="translate(2.454 14.432)">
            <g id="Group_1192891" data-name="Group 1192891" transform="translate(0.121 0.122)">
              <g id="Group_1192890" data-name="Group 1192890">
                <path id="Path_1016607" data-name="Path 1016607" d="M3850.59,1639.644l-5.109-.524a.273.273,0,0,0-.133.019.113.113,0,0,0-.072.07c-.291,1.242,1.479,2.488,5.379.615a.111.111,0,0,0,.065-.067C3850.734,1639.7,3850.682,1639.652,3850.59,1639.644Z" transform="translate(-3845.246 -1639.119)" fill="#fff"/>
              </g>
            </g>
            <g id="Group_1192893" data-name="Group 1192893">
              <g id="Group_1192892" data-name="Group 1192892">
                <path id="Path_1016608" data-name="Path 1016608" d="M3848.526,1640.5a3.577,3.577,0,0,1-3.1-.243,1.214,1.214,0,0,1-.453-1.258.228.228,0,0,1,.14-.153.381.381,0,0,1,.193-.028l5.108.523a.278.278,0,0,1,.206.107.188.188,0,0,1,.029.155.229.229,0,0,1-.129.145A10.991,10.991,0,0,1,3848.526,1640.5Zm-3.3-1.442-.017.006a.965.965,0,0,0,.367,1.007c.324.26,1.619.987,4.758-.5l-5.053-.518A.245.245,0,0,0,3845.23,1639.057Zm5.2.533h0Z" transform="translate(-3844.943 -1638.814)" fill="#3f1c16"/>
              </g>
            </g>
          </g>
          <g id="Group_1192896" data-name="Group 1192896" transform="translate(6.614 7.644)">
            <g id="Group_1192895" data-name="Group 1192895">
              <path id="Path_1016609" data-name="Path 1016609" d="M3858.622,1623.548a5.676,5.676,0,0,0-2.913-.672.634.634,0,0,1-.211-1.012C3857.112,1621.826,3858.7,1622.671,3858.622,1623.548Z" transform="translate(-3855.33 -1621.864)" fill="#3f1c16"/>
            </g>
          </g>
          <g id="Group_1192898" data-name="Group 1192898" transform="translate(2.532 7.322)">
            <g id="Group_1192897" data-name="Group 1192897">
              <path id="Path_1016610" data-name="Path 1016610" d="M3846.888,1621.065c.313.485.03.846-.19.855a2.46,2.46,0,0,0-1.562.333A1.568,1.568,0,0,1,3846.888,1621.065Z" transform="translate(-3845.136 -1621.061)" fill="#3f1c16"/>
            </g>
          </g>
          <g id="Group_1192900" data-name="Group 1192900" transform="translate(2.366 9.633)">
            <g id="Group_1192899" data-name="Group 1192899">
              <path id="Path_1016611" data-name="Path 1016611" d="M3846.9,1626.83s-2.378,3.24-2.164,3.4a11.415,11.415,0,0,0,1.843.453C3847.32,1629.489,3846.9,1626.83,3846.9,1626.83Z" transform="translate(-3844.722 -1626.83)" fill="#dd8973"/>
            </g>
          </g>
          <g id="Group_1192902" data-name="Group 1192902" transform="translate(2.255 9.515)">
            <g id="Group_1192901" data-name="Group 1192901">
              <path id="Path_1016612" data-name="Path 1016612" d="M3846.441,1630.622a.116.116,0,0,1-.051,0,9.974,9.974,0,0,1-1.893-.475c-.1-.075-.308-.231,2.14-3.566a.119.119,0,0,1,.192.141,24.69,24.69,0,0,0-2.149,3.257,12.279,12.279,0,0,0,1.752.408.119.119,0,0,1,.009.232Z" transform="translate(-3844.445 -1626.536)" fill="#3f1c16"/>
            </g>
          </g>
        </g>
        <g id="Group_1192916" data-name="Group 1192916" transform="translate(0 29.811)">
          <g id="Group_1192906" data-name="Group 1192906">
            <g id="Group_1192905" data-name="Group 1192905">
              <g id="Group_1192904" data-name="Group 1192904">
                <path id="Path_1016613" data-name="Path 1016613" d="M3727,1721.255c-6.208.413-16.393.34-16.584-1.3-.071-.615.487-.575.372-1.465,0,0-2.626-.759-3.092-2.907l-.871-.65a1.721,1.721,0,0,1-.67-1.109h0a1.707,1.707,0,0,1,.256-1.213,1.715,1.715,0,0,1,1.809-.744,14.3,14.3,0,0,0,4.293.312,14.276,14.276,0,0,1-6.327-2.927,1.514,1.514,0,0,1-.54-.954,1.418,1.418,0,0,1-.009-.33c0-.013,0-.025,0-.038a1.49,1.49,0,0,1,2.015-1.265c2.393.907,6.856,2.18,11.281,1.214l-3.082-5.156a1.891,1.891,0,0,1,1.348-2.841c.491-.072.737-.107,1.589.512,4.856,4.362,18.722,2.829,36.8-1.5,1.081.063,6.519-6.2,24.648-21.679l17.632,16.223c-3.674,11.535-26.795,21.532-35.048,23.808C3755.056,1719.389,3745.7,1720.01,3727,1721.255Z" transform="translate(-3705.63 -1677.214)" fill="#ddab9e"/>
              </g>
            </g>
          </g>
          <g id="Group_1192909" data-name="Group 1192909" transform="translate(6.763 34.841)">
            <g id="Group_1192908" data-name="Group 1192908">
              <g id="Group_1192907" data-name="Group 1192907">
                <path id="Path_1016614" data-name="Path 1016614" d="M3722.594,1764.437a.118.118,0,0,1,.067-.226c1.537.356,4.229.683,4.256.686a.117.117,0,0,1,.094.071l.084.194a.118.118,0,1,1-.217.093l-.057-.132c-.429-.053-2.8-.355-4.213-.682A.028.028,0,0,1,3722.594,1764.437Z" transform="translate(-3722.516 -1764.208)" fill="#3f1c16"/>
              </g>
            </g>
          </g>
          <g id="Group_1192912" data-name="Group 1192912" transform="translate(2.716 38.461)">
            <g id="Group_1192911" data-name="Group 1192911">
              <g id="Group_1192910" data-name="Group 1192910">
                <path id="Path_1016615" data-name="Path 1016615" d="M3712.892,1773.624c-.135-.049-.27-.1-.4-.15a.118.118,0,0,1,.082-.221h0a36.511,36.511,0,0,0,7.543,1.826.119.119,0,0,1,.08.046.116.116,0,0,1,.023.089l-.05.328a.118.118,0,0,1-.233-.036l.032-.209A37.427,37.427,0,0,1,3712.892,1773.624Z" transform="translate(-3712.413 -1773.246)" fill="#3f1c16"/>
              </g>
            </g>
          </g>
          <g id="Group_1192915" data-name="Group 1192915" transform="translate(5.606 41.165)">
            <g id="Group_1192914" data-name="Group 1192914">
              <g id="Group_1192913" data-name="Group 1192913">
                <path id="Path_1016616" data-name="Path 1016616" d="M3720.225,1780.439c-.175-.063-.354-.135-.53-.219a.118.118,0,0,1-.057-.157.122.122,0,0,1,.157-.057,7.51,7.51,0,0,0,2.257.608.118.118,0,0,1-.02.235A7.669,7.669,0,0,1,3720.225,1780.439Z" transform="translate(-3719.627 -1779.997)" fill="#3f1c16"/>
              </g>
            </g>
          </g>
        </g>
        <g id="Group_1192917" data-name="Group 1192917" transform="translate(72.18 23.632)">
          <path id="Path_1016617" data-name="Path 1016617" d="M3906.888,1678.908c0,9.457-9.231,16.812-15.039,16.812s-5.993-7.355-5.993-16.812,4.708-17.124,10.516-17.124S3906.888,1669.452,3906.888,1678.908Z" transform="translate(-3885.856 -1661.784)" fill="#ddab9e"/>
        </g>
      </g>
      <g id="Group_1192919" data-name="Group 1192919" transform="translate(3603.036 1608.791)">
        <rect id="Rectangle_461705" data-name="Rectangle 461705" width="15.255" height="4.391" transform="translate(0)" fill="#f2cf63"/>
      </g>
      <g id="Group_1192934" data-name="Group 1192934" transform="translate(3603.072 1616.936)">
        <g id="Group_1192921" data-name="Group 1192921" transform="translate(3.999 9.479)">
          <g id="Group_1192920" data-name="Group 1192920">
            <path id="Path_1016618" data-name="Path 1016618" d="M3687.743,1701.921a1.651,1.651,0,0,1-1.311-1.608l.054-4.176-1.368.006-.054,4.176a1.652,1.652,0,0,1-1.3,1.62l-1.615.355.006,1.22,7.208-.032-.006-1.22Z" transform="translate(-3682.153 -1696.136)" fill="#f2cf63"/>
          </g>
        </g>
        <g id="Group_1192924" data-name="Group 1192924" transform="translate(8.577 0.716)">
          <g id="Group_1192923" data-name="Group 1192923">
            <g id="Group_1192922" data-name="Group 1192922">
              <path id="Path_1016619" data-name="Path 1016619" d="M3694.628,1680.537l-.038-.755a5.54,5.54,0,0,0,4.812-3.831.731.731,0,0,0-.7-.94l-5.112.023,0-.756,5.112-.023a1.487,1.487,0,0,1,1.43,1.908A6.326,6.326,0,0,1,3694.628,1680.537Z" transform="translate(-3693.584 -1674.256)" fill="#f2cf63"/>
            </g>
          </g>
        </g>
        <g id="Group_1192927" data-name="Group 1192927" transform="translate(0 0.755)">
          <g id="Group_1192926" data-name="Group 1192926">
            <g id="Group_1192925" data-name="Group 1192925">
              <path id="Path_1016620" data-name="Path 1016620" d="M3677.772,1680.618l.032-.755a5.541,5.541,0,0,1-4.846-3.788.73.73,0,0,1,.11-.649.722.722,0,0,1,.583-.3l5.112-.023,0-.756-5.112.023a1.486,1.486,0,0,0-1.413,1.921A6.332,6.332,0,0,0,3677.772,1680.618Z" transform="translate(-3672.169 -1674.351)" fill="#f2cf63"/>
            </g>
          </g>
        </g>
        <g id="Group_1192929" data-name="Group 1192929" transform="translate(3.468 0.002)">
          <g id="Group_1192928" data-name="Group 1192928">
            <path id="Path_1016621" data-name="Path 1016621" d="M3685.013,1682.84h0a4.138,4.138,0,0,1-4.158-4.121l-.028-6.21,8.28-.037.028,6.21a4.139,4.139,0,0,1-4.122,4.158Z" transform="translate(-3680.827 -1672.472)" fill="#f2cf63"/>
          </g>
        </g>
        <g id="Group_1192931" data-name="Group 1192931" transform="translate(6.658 0)">
          <g id="Group_1192930" data-name="Group 1192930">
            <path id="Path_1016622" data-name="Path 1016622" d="M3691.9,1672.476l.028,6.21a4.138,4.138,0,0,1-3.13,4.033,4.151,4.151,0,0,0,.993.116h0a4.139,4.139,0,0,0,4.122-4.158l-.028-6.21Z" transform="translate(-3688.794 -1672.467)" fill="#f2cf63"/>
          </g>
        </g>
        <g id="Group_1192933" data-name="Group 1192933" transform="translate(8.315 2.252)">
          <g id="Group_1192932" data-name="Group 1192932">
            <path id="Path_1016623" data-name="Path 1016623" d="M3694.143,1681.566a1.8,1.8,0,0,0,.255-3.476,1.8,1.8,0,0,0-.255,3.476Z" transform="translate(-3692.93 -1678.09)" fill="#f2cf63"/>
          </g>
        </g>
      </g>
      <g id="Group_1192943" data-name="Group 1192943" transform="translate(3603.281 1637.547)">
        <g id="Group_1192936" data-name="Group 1192936">
          <g id="Group_1192935" data-name="Group 1192935">
            <circle id="Ellipse_15112" data-name="Ellipse 15112" cx="1.589" cy="1.589" r="1.589" fill="#a38f38"/>
          </g>
        </g>
        <g id="Group_1192938" data-name="Group 1192938" transform="translate(5.275 0.142)">
          <g id="Group_1192937" data-name="Group 1192937">
            <path id="Path_1016624" data-name="Path 1016624" d="M3693.908,1727.175h-6.6a1.444,1.444,0,0,1-1.445-1.445h0a1.444,1.444,0,0,1,1.445-1.445h6.6a1.445,1.445,0,0,1,1.445,1.445h0a1.443,1.443,0,0,1-1.445,1.445Z" transform="translate(-3685.864 -1724.286)" fill="#a38f38"/>
          </g>
        </g>
        <g id="Group_1192940" data-name="Group 1192940" transform="translate(0 6.552)">
          <g id="Group_1192939" data-name="Group 1192939">
            <path id="Path_1016625" data-name="Path 1016625" d="M3675.871,1741.881a1.59,1.59,0,1,1-1.59-1.589A1.59,1.59,0,0,1,3675.871,1741.881Z" transform="translate(-3672.692 -1740.292)" fill="#a38f38"/>
          </g>
        </g>
        <g id="Group_1192942" data-name="Group 1192942" transform="translate(5.275 6.694)">
          <g id="Group_1192941" data-name="Group 1192941">
            <path id="Path_1016626" data-name="Path 1016626" d="M3693.908,1743.535h-6.6a1.444,1.444,0,0,1-1.445-1.445h0a1.444,1.444,0,0,1,1.445-1.445h6.6a1.445,1.445,0,0,1,1.445,1.445h0a1.442,1.442,0,0,1-1.445,1.444Z" transform="translate(-3685.864 -1740.646)" fill="#a38f38"/>
          </g>
        </g>
      </g>
      <g id="Group_1193034" data-name="Group 1193034" transform="translate(3694.21 1656.338)">
        <g id="Group_1193033" data-name="Group 1193033">
          <g id="Group_1192954" data-name="Group 1192954" transform="translate(46.199 110.237)">
            <g id="Group_1192945" data-name="Group 1192945" transform="translate(0)">
              <g id="Group_1192944" data-name="Group 1192944">
                <path id="Path_1016627" data-name="Path 1016627" d="M4022.36,2067.582a12.675,12.675,0,0,0,1.026-3.715c-.3-1.776-7.831-9.138-7.831-9.138l9.135-8.63,16.334,15.563-11.948,11.532h-13.991C4016.581,2070.257,4020.109,2068.467,4022.36,2067.582Z" transform="translate(-4015.085 -2046.099)" fill="#ddab9e"/>
              </g>
            </g>
            <g id="Group_1192947" data-name="Group 1192947" transform="translate(0 7.424)">
              <g id="Group_1192946" data-name="Group 1192946">
                <path id="Path_1016628" data-name="Path 1016628" d="M4022.359,2078.694a12.684,12.684,0,0,0,1.026-3.715h0a1.072,1.072,0,0,0-.029-.117l-.01-.032c-.013-.04-.028-.081-.045-.125a.059.059,0,0,1,0-.009c-.02-.046-.042-.1-.067-.146l-.019-.038c-.024-.047-.049-.1-.078-.146l-.008-.015c-.031-.056-.066-.115-.1-.174l-.024-.04c-.034-.055-.07-.112-.108-.17l-.012-.019c-.042-.065-.088-.132-.135-.2l-.026-.038c-.044-.064-.09-.128-.138-.194l-.013-.018c-.053-.073-.109-.149-.167-.225l-.022-.029q-.082-.109-.169-.221l-.011-.014c-.063-.082-.129-.164-.2-.249l-.013-.015-.2-.251,0-.006c-.293-.358-.613-.733-.948-1.115,3.5-2.763,5.43-.92,5.43-.92,2.406-.889,5.088-4.271,6.219-5.817l8.543,8.14h0l-11.949,11.532h-13.991C4016.58,2081.37,4020.108,2079.58,4022.359,2078.694Z" transform="translate(-4015.084 -2064.635)" fill="#73672c"/>
              </g>
            </g>
            <g id="Group_1192949" data-name="Group 1192949" transform="translate(0.002 12.64)">
              <g id="Group_1192948" data-name="Group 1192948">
                <path id="Path_1016629" data-name="Path 1016629" d="M4026.083,2078.121c.031.021.058.04.081.057a1.3,1.3,0,0,1,.1.082c2.645,3.576,4.089,7.872.533,13.306a2.186,2.186,0,0,1-.547.55h-11.163c1.5-2.937,5.024-4.728,7.274-5.612a12.683,12.683,0,0,0,1.026-3.715h0a1.2,1.2,0,0,0-.053-.189c-.009-.028-.019-.055-.03-.085h0a.023.023,0,0,0,0-.008h0c-.019-.046-.042-.1-.067-.147h0a5.685,5.685,0,0,0-.363-.619c-.04-.06-.081-.121-.124-.183h0l-.025-.037h0l-.025-.034-.126-.177h0c-.053-.073-.109-.149-.167-.225h0l-.021-.028h0l-.169-.221,0,0-.008-.011h0l-.1-.124-.11-.139h0l-.2-.252v0l0,0h0l-.126-.152-.1-.119c-.229-.275-.472-.557-.724-.844a9.572,9.572,0,0,1,.839-.6c.069-.044.138-.086.206-.126q.322-.189.619-.327.256-.119.5-.2c.114-.041.226-.077.335-.107a4.585,4.585,0,0,1,.541-.119,3.894,3.894,0,0,1,.426-.041,3.445,3.445,0,0,1,.563.023c.058.007.113.016.167.025a2.822,2.822,0,0,1,1.01.383A.206.206,0,0,1,4026.083,2078.121Z" transform="translate(-4015.089 -2077.66)" fill="#f2e6d8"/>
              </g>
            </g>
            <g id="Group_1192951" data-name="Group 1192951" transform="translate(0.003 13.576)">
              <g id="Group_1192950" data-name="Group 1192950">
                <path id="Path_1016630" data-name="Path 1016630" d="M4015.09,2093.514a9.112,9.112,0,0,1,2.36-2.828l10.449-.033.264-.254,10.779-10.4,2.087,1.988-9.713,9.374h0l-2.189,2.113h0l-.047.046h-4.146l.034-.033Z" transform="translate(-4015.09 -2079.996)" fill="#f2e6d8"/>
              </g>
            </g>
            <g id="Group_1192953" data-name="Group 1192953" transform="translate(7.119 21.329)">
              <g id="Group_1192952" data-name="Group 1192952">
                <path id="Path_1016631" data-name="Path 1016631" d="M4035.895,2100.258a.16.16,0,0,0,.127-.061.146.146,0,0,0-.03-.209c-.053-.039-.585-.389-2.959-.632a.159.159,0,0,0-.174.135.154.154,0,0,0,.141.167,7.754,7.754,0,0,1,2.8.573A.16.16,0,0,0,4035.895,2100.258Z" transform="translate(-4032.859 -2099.354)" fill="#3f1c16"/>
              </g>
            </g>
          </g>
          <g id="Group_1192971" data-name="Group 1192971" transform="translate(0 63.335)">
            <g id="Group_1192968" data-name="Group 1192968" transform="translate(0 45.208)">
              <g id="Group_1192956" data-name="Group 1192956" transform="translate(0.002)">
                <g id="Group_1192955" data-name="Group 1192955">
                  <path id="Path_1016632" data-name="Path 1016632" d="M3925.457,2041.87l3.242,28.959-28.964.082c1.485-4.659,13.905-8.156,14.994-9.472s-2.06-14.63-2.06-14.63Z" transform="translate(-3899.735 -2041.87)" fill="#ddab9e"/>
                </g>
              </g>
              <g id="Group_1192959" data-name="Group 1192959" transform="translate(0 26.415)">
                <g id="Group_1192957" data-name="Group 1192957">
                  <path id="Path_1016633" data-name="Path 1016633" d="M3928.695,2110.37l-28.964.082c.032-.1.071-.2.113-.3.01-.023.019-.046.029-.068.043-.1.091-.2.144-.293l.011-.02q.078-.141.169-.28l.034-.053c.066-.1.135-.2.209-.294l.013-.016q.111-.145.235-.288l.024-.028q.131-.151.276-.3l.007-.006q.3-.308.649-.607h0l26.766-.075Z" transform="translate(-3899.731 -2107.825)" fill="#fff"/>
                </g>
                <g id="Group_1192958" data-name="Group 1192958" transform="translate(0.225 0.15)">
                  <path id="Path_1016634" data-name="Path 1016634" d="M3928.607,2108.2l-26.563.075c-.216.187-.415.375-.6.566-.094.1-.185.2-.271.294l-.023.027c-.08.093-.157.187-.242.3-.073.095-.14.191-.2.286l-.034.052c-.059.089-.113.18-.174.289-.051.093-.1.188-.139.282l-.028.065c-.013.03-.025.059-.037.089l28.565-.081Z" transform="translate(-3900.293 -2108.2)" fill="#3f1c16"/>
                </g>
              </g>
              <g id="Group_1192961" data-name="Group 1192961" transform="translate(9.953 17.191)">
                <g id="Group_1192960" data-name="Group 1192960">
                  <path id="Path_1016635" data-name="Path 1016635" d="M3927.766,2087.207c-2.905-.671-3.193-1.486-3.183-1.8.01-.3.267-.523.669-.59a2.393,2.393,0,0,1,2.268,1.227c.052-.647.228-1.032.511-1.1a.468.468,0,0,1,.5.3,1.619,1.619,0,0,1-.635,1.938.162.162,0,0,1-.1.034C3927.79,2087.211,3927.778,2087.207,3927.766,2087.207Zm.34-1.975c-.083.02-.313.324-.284,1.424a.154.154,0,0,1-.127.153.159.159,0,0,1-.179-.093,2.225,2.225,0,0,0-2.21-1.606c-.193.032-.4.128-.407.3-.01.3.584.943,2.863,1.481a1.3,1.3,0,0,0,.491-1.519c-.047-.091-.106-.141-.139-.141Z" transform="translate(-3924.583 -2084.793)" fill="#3f1c16"/>
                </g>
              </g>
              <g id="Group_1192963" data-name="Group 1192963" transform="translate(0 15.486)">
                <g id="Group_1192962" data-name="Group 1192962">
                  <path id="Path_1016636" data-name="Path 1016636" d="M3928.695,2094.011l-28.964.082c1.486-4.659,13.905-8.155,14.993-9.471.346-.418.263-2.052-.01-4.084a7.049,7.049,0,0,1,4.21,1.919,11.708,11.708,0,0,0,8.35-1.135Z" transform="translate(-3899.731 -2080.537)" fill="#73672c"/>
                </g>
              </g>
              <g id="Group_1192965" data-name="Group 1192965" transform="translate(1.619 15.484)">
                <g id="Group_1192964" data-name="Group 1192964">
                  <path id="Path_1016637" data-name="Path 1016637" d="M3917.148,2084.616c.346-.418.263-2.052-.01-4.084a7.05,7.05,0,0,1,4.21,1.919c1.458,3.567-.875,8.427-8.324,9.368a36.063,36.063,0,0,1-9.252-.023C3907.569,2088.293,3916.247,2085.706,3917.148,2084.616Z" transform="translate(-3903.773 -2080.532)" fill="#f2e6d8"/>
                </g>
              </g>
              <g id="Group_1192967" data-name="Group 1192967" transform="translate(0.001 26.048)">
                <g id="Group_1192966" data-name="Group 1192966">
                  <path id="Path_1016638" data-name="Path 1016638" d="M3902.191,2106.91h26.18l.326,2.911-28.964.082A6.7,6.7,0,0,1,3902.191,2106.91Z" transform="translate(-3899.733 -2106.91)" fill="#f2e6d8"/>
                </g>
              </g>
            </g>
            <g id="Group_1192970" data-name="Group 1192970" transform="translate(8.995)">
              <g id="Group_1192969" data-name="Group 1192969">
                <path id="Path_1016639" data-name="Path 1016639" d="M3946.2,1946.876l-2.972,40.927-21.038-.657,5.5-58.156,18.134.645Z" transform="translate(-3922.19 -1928.99)" fill="#f2ae52"/>
              </g>
            </g>
          </g>
          <g id="Group_1192973" data-name="Group 1192973" transform="translate(24.145 63.451)">
            <g id="Group_1192972" data-name="Group 1192972">
              <path id="Path_1016640" data-name="Path 1016640" d="M3960.147,1954.587l.951-23.773,22.409-1.535c-.915,6.14-.352,31-.352,31l14.082,17.832-14.482,12.572-18.673-23.442a16.211,16.211,0,0,1-3.574-6.721A15.848,15.848,0,0,1,3960.147,1954.587Z" transform="translate(-3960.018 -1929.28)" fill="#f2cf63"/>
            </g>
          </g>
          <g id="Group_1193016" data-name="Group 1193016" transform="translate(9.77)">
            <g id="Group_1192975" data-name="Group 1192975" transform="translate(0 32.295)">
              <g id="Group_1192974" data-name="Group 1192974">
                <path id="Path_1016641" data-name="Path 1016641" d="M3962.767,1892.007l-1.441-30.377c-.979-2.341-6.872-7.462-9.061-8.661a11.768,11.768,0,0,0-5.486-1.438l-3.019-.043-7.759,5.163-3.483,1.822-8.393,10.326,6.492,3.8-6.175,19.437Z" transform="translate(-3924.125 -1851.488)" fill="#73672c"/>
              </g>
            </g>
            <g id="Group_1193013" data-name="Group 1193013" transform="translate(0.344)">
              <g id="Group_1192977" data-name="Group 1192977" transform="translate(14.152 23.167)">
                <g id="Group_1192976" data-name="Group 1192976">
                  <path id="Path_1016642" data-name="Path 1016642" d="M3968.843,1843.616h0a3.753,3.753,0,0,0,1.644-1.082,3.494,3.494,0,0,0,.68-3.512l-3.732-10.326-7.115,2.365,3.732,10.326a3.647,3.647,0,0,0,1.81,2.016A3.9,3.9,0,0,0,3968.843,1843.616Z" transform="translate(-3960.32 -1828.696)" fill="#ddab9e"/>
                </g>
              </g>
              <g id="Group_1192979" data-name="Group 1192979" transform="translate(0 0.993)">
                <g id="Group_1192978" data-name="Group 1192978">
                  <path id="Path_1016643" data-name="Path 1016643" d="M3952.1,1798.353c3.823-1.947,8.112-8.749,3.167-11.945,3.075-1.189.773-3.089-.646-1.866,1.253-3.248-1.449-3.358-2-1.451.074-2.272-6.629-10.435-15.748-6.606.213-4.274-11.468-5.607-10.2,5.151-2.463,1.593-2.532,5.778,1.815,5.919s17.947,10.624,17.947,10.624Z" transform="translate(-3924.984 -1773.33)" fill="#3f1c16"/>
                </g>
              </g>
              <g id="Group_1192981" data-name="Group 1192981" transform="translate(1.195 9.394)">
                <g id="Group_1192980" data-name="Group 1192980">
                  <path id="Path_1016644" data-name="Path 1016644" d="M3948.843,1809.455c-3.475-.715-2.5-4.91-.286-8.694-2.034-.141-4.3-2.549-2.727-5.908-.9.33-1.049-.3-1.049-.3-4.968,2.266-9.441,1.029-9.692-.251-1.338,3.21-4.091,3.516-4.683,3.394a23.382,23.382,0,0,0-1.4,8.109c.149,1.734-2.388,4.025-.024,7.68s10.847,6.905,19.373.182C3948.659,1811.2,3948.843,1809.455,3948.843,1809.455Z" transform="translate(-3927.969 -1794.307)" fill="#ddab9e"/>
                </g>
              </g>
              <g id="Group_1192983" data-name="Group 1192983" transform="translate(1.197 21.078)">
                <g id="Group_1192982" data-name="Group 1192982">
                  <path id="Path_1016645" data-name="Path 1016645" d="M3929.014,1823.48a3.034,3.034,0,0,1,2.11,3.651,3.154,3.154,0,0,1-2.9,2.3C3927.359,1826.764,3928.994,1824.926,3929.014,1823.48Z" transform="translate(-3927.974 -1823.48)" fill="#dd8973"/>
                </g>
              </g>
              <g id="Group_1192991" data-name="Group 1192991" transform="translate(20.165 23.418)">
                <g id="Group_1192986" data-name="Group 1192986">
                  <g id="Group_1192985" data-name="Group 1192985">
                    <g id="Group_1192984" data-name="Group 1192984">
                      <path id="Path_1016646" data-name="Path 1016646" d="M3975.349,1833.134a3.549,3.549,0,0,1,3.318-3.8,3.613,3.613,0,0,1,3.961,3.182,3.55,3.55,0,0,1-3.319,3.8,3.659,3.659,0,0,1-3.792-2.395A3.153,3.153,0,0,1,3975.349,1833.134Z" transform="translate(-3975.334 -1829.321)" fill="#dd8973"/>
                    </g>
                  </g>
                </g>
                <g id="Group_1192988" data-name="Group 1192988" transform="translate(1.688 1.511)">
                  <g id="Group_1192987" data-name="Group 1192987">
                    <path id="Path_1016647" data-name="Path 1016647" d="M3979.746,1835.848a.144.144,0,0,0,.029,0,.152.152,0,0,0,.126-.177,1.849,1.849,0,0,1,.313-1.436,1.984,1.984,0,0,1,1.276-.8,2.046,2.046,0,0,1,1.492.3,1.9,1.9,0,0,1,.834,1.229.161.161,0,0,0,.185.121.152.152,0,0,0,.126-.177,2.206,2.206,0,0,0-.966-1.424,2.359,2.359,0,0,0-1.73-.351,2.3,2.3,0,0,0-1.479.928,2.141,2.141,0,0,0-.363,1.663A.162.162,0,0,0,3979.746,1835.848Z" transform="translate(-3979.55 -1833.094)" fill="#3f1c16"/>
                  </g>
                </g>
                <g id="Group_1192990" data-name="Group 1192990" transform="translate(2.833 1.776)">
                  <g id="Group_1192989" data-name="Group 1192989">
                    <path id="Path_1016648" data-name="Path 1016648" d="M3983.261,1836.144a.161.161,0,0,0,.124-.057,1.419,1.419,0,0,0,.327-1.078,1.436,1.436,0,0,0-.562-.982,1.535,1.535,0,0,0-.542-.266.159.159,0,0,0-.195.106.15.15,0,0,0,.11.187,1.223,1.223,0,0,1,.429.211,1.13,1.13,0,0,1,.186,1.633.148.148,0,0,0,.025.213A.173.173,0,0,0,3983.261,1836.144Z" transform="translate(-3982.407 -1833.755)" fill="#3f1c16"/>
                  </g>
                </g>
              </g>
              <g id="Group_1192993" data-name="Group 1192993" transform="translate(11.301 18.564)">
                <g id="Group_1192992" data-name="Group 1192992">
                  <path id="Path_1016649" data-name="Path 1016649" d="M3955.772,1819.4c-.347.966-1.169,1.571-1.836,1.351s-.927-1.182-.58-2.149,1.169-1.571,1.836-1.351S3956.121,1818.431,3955.772,1819.4Z" transform="translate(-3953.202 -1817.203)" fill="#3f1c16"/>
                </g>
              </g>
              <g id="Group_1192995" data-name="Group 1192995" transform="translate(4.793 17.875)">
                <g id="Group_1192994" data-name="Group 1192994">
                  <path id="Path_1016650" data-name="Path 1016650" d="M3939.522,1817.676c-.347.966-1.169,1.571-1.836,1.351s-.927-1.182-.58-2.149,1.169-1.571,1.836-1.351S3939.871,1816.711,3939.522,1817.676Z" transform="translate(-3936.952 -1815.482)" fill="#3f1c16"/>
                </g>
              </g>
              <g id="Group_1192997" data-name="Group 1192997" transform="translate(12.428 22.138)">
                <g id="Group_1192996" data-name="Group 1192996">
                  <path id="Path_1016651" data-name="Path 1016651" d="M3962.285,1829.928a3.2,3.2,0,0,1-3.867,2.209,3.045,3.045,0,0,1-2.3-3.708,3.2,3.2,0,0,1,3.867-2.21A3.042,3.042,0,0,1,3962.285,1829.928Z" transform="translate(-3956.016 -1826.125)" fill="#dd8973"/>
                </g>
              </g>
              <g id="Group_1193002" data-name="Group 1193002" transform="translate(5.727 21.927)">
                <g id="Group_1192999" data-name="Group 1192999" transform="translate(0.155 0.15)">
                  <g id="Group_1192998" data-name="Group 1192998">
                    <path id="Path_1016652" data-name="Path 1016652" d="M3942.218,1827.362a1.229,1.229,0,0,1-1.532.732,1.172,1.172,0,0,1-.985-1.344,1.229,1.229,0,0,1,1.532-.732A1.171,1.171,0,0,1,3942.218,1827.362Z" transform="translate(-3939.672 -1825.974)" fill="#dd8973"/>
                  </g>
                </g>
                <g id="Group_1193001" data-name="Group 1193001">
                  <g id="Group_1193000" data-name="Group 1193000">
                    <path id="Path_1016653" data-name="Path 1016653" d="M3940.456,1828.022a.157.157,0,0,0,.153-.115.151.151,0,0,0-.114-.184,1.023,1.023,0,0,1-.87-1.159,1.074,1.074,0,0,1,1.341-.622.157.157,0,0,0,.192-.11.151.151,0,0,0-.114-.184,1.387,1.387,0,0,0-1.725.842,1.325,1.325,0,0,0,1.1,1.528A.1.1,0,0,0,3940.456,1828.022Z" transform="translate(-3939.285 -1825.599)" fill="#3f1c16"/>
                  </g>
                </g>
              </g>
              <g id="Group_1193004" data-name="Group 1193004" transform="translate(1.035 12.637)">
                <g id="Group_1193003" data-name="Group 1193003">
                  <path id="Path_1016654" data-name="Path 1016654" d="M3937.805,1822.58a15.069,15.069,0,0,0,5.568-1.1.15.15,0,0,0,.086-.2.16.16,0,0,0-.207-.082c-6.777,2.686-12.584-.164-14.376-2.935a5.649,5.649,0,0,1-.382-5.72,4.657,4.657,0,0,0,.43-1.892,23.164,23.164,0,0,1,1.393-8.049.151.151,0,0,0-.1-.192.158.158,0,0,0-.2.1,23.717,23.717,0,0,0-1.408,8.17,4.479,4.479,0,0,1-.413,1.767,5.9,5.9,0,0,0,.412,5.98C3929.935,1820.481,3933.388,1822.58,3937.805,1822.58Z" transform="translate(-3927.567 -1802.404)" fill="#3f1c16"/>
                </g>
              </g>
              <g id="Group_1193006" data-name="Group 1193006" transform="translate(31.083 11.481)">
                <g id="Group_1193005" data-name="Group 1193005">
                  <path id="Path_1016655" data-name="Path 1016655" d="M4002.754,1802.3h.013a1.673,1.673,0,0,0,1.675-1.142,1.5,1.5,0,0,0-.849-1.619.162.162,0,0,0-.216.058.149.149,0,0,0,.061.207,1.2,1.2,0,0,1,.7,1.289c-.116.509-.635.847-1.391.9a.152.152,0,1,0,.012.3Z" transform="translate(-4002.596 -1799.516)" fill="#3f1c16"/>
                </g>
              </g>
              <g id="Group_1193008" data-name="Group 1193008" transform="translate(1.069)">
                <g id="Group_1193007" data-name="Group 1193007">
                  <path id="Path_1016656" data-name="Path 1016656" d="M3927.813,1776.117a.156.156,0,0,0,.157-.14,5.038,5.038,0,0,1,5.323-4.824.152.152,0,1,0,0-.3h0a5.331,5.331,0,0,0-5.633,5.1.153.153,0,0,0,.146.163Z" transform="translate(-3927.655 -1770.85)" fill="#3f1c16"/>
                </g>
              </g>
              <g id="Group_1193010" data-name="Group 1193010" transform="translate(11.772 17.22)">
                <g id="Group_1193009" data-name="Group 1193009">
                  <path id="Path_1016657" data-name="Path 1016657" d="M3957.262,1814.833a.159.159,0,0,0,.145-.091.15.15,0,0,0-.082-.2,7.358,7.358,0,0,0-2.8-.7.155.155,0,0,0-.151.158.161.161,0,0,0,.165.146,7.093,7.093,0,0,1,2.657.67A.177.177,0,0,0,3957.262,1814.833Z" transform="translate(-3954.377 -1813.847)" fill="#3f1c16"/>
                </g>
              </g>
              <g id="Group_1193012" data-name="Group 1193012" transform="translate(4.025 16.304)">
                <g id="Group_1193011" data-name="Group 1193011">
                  <path id="Path_1016658" data-name="Path 1016658" d="M3935.193,1812.4a.161.161,0,0,0,.11-.043,2.957,2.957,0,0,1,2.034-.49.151.151,0,0,0,.166-.144.154.154,0,0,0-.151-.159,3.157,3.157,0,0,0-2.269.575.147.147,0,0,0,0,.215A.157.157,0,0,0,3935.193,1812.4Z" transform="translate(-3935.035 -1811.56)" fill="#3f1c16"/>
                </g>
              </g>
            </g>
            <g id="Group_1193015" data-name="Group 1193015" transform="translate(6.336 45.203)">
              <g id="Group_1193014" data-name="Group 1193014">
                <path id="Path_1016659" data-name="Path 1016659" d="M3940.1,1892.068a.158.158,0,0,0,.15-.1c2.35-6.961,2.631-8.017,2.642-8.058a.151.151,0,0,0-.115-.184.158.158,0,0,0-.192.11c0,.01-.3,1.107-2.636,8.038a.15.15,0,0,0,.1.191A.106.106,0,0,0,3940.1,1892.068Z" transform="translate(-3939.944 -1883.716)" fill="#3f1c16"/>
              </g>
            </g>
          </g>
          <g id="Group_1193027" data-name="Group 1193027" transform="translate(0.232 42.686)">
            <g id="Group_1193018" data-name="Group 1193018">
              <g id="Group_1193017" data-name="Group 1193017">
                <path id="Path_1016660" data-name="Path 1016660" d="M3931.885,1879.95l-4.3,10.382L3909.055,1879a10.7,10.7,0,0,0-6.319-1.547,13.7,13.7,0,0,0-1.445.18,1.219,1.219,0,0,0-.559.257,1.139,1.139,0,0,0-.421.934h0a1.111,1.111,0,0,0,.205.595,1.237,1.237,0,0,0,.961.513,8.155,8.155,0,0,1,2.61.456l-1.065,2.7a5.035,5.035,0,0,0-.3,2.62,4.87,4.87,0,0,0,.917,2.185c1.438,1.922,3.753,3.564,5.765,2.68,2.964,2.317,10.857,7.765,15.1,10.673a9.539,9.539,0,0,0,1.476.828,9.76,9.76,0,0,0,4.723.824h0a9.7,9.7,0,0,0,3.388-.884,9.283,9.283,0,0,0,3.87-3.349l6.659-13.467Z" transform="translate(-3900.31 -1877.432)" fill="#ddab9e"/>
              </g>
            </g>
            <g id="Group_1193020" data-name="Group 1193020" transform="translate(3.621 2.745)">
              <g id="Group_1193019" data-name="Group 1193019">
                <path id="Path_1016661" data-name="Path 1016661" d="M3911.036,1884.868a.161.161,0,0,0,.14-.08.149.149,0,0,0-.064-.205,2.475,2.475,0,0,0-1.656-.223.15.15,0,0,0-.1.194.159.159,0,0,0,.2.092,2.174,2.174,0,0,1,1.4.2A.187.187,0,0,0,3911.036,1884.868Z" transform="translate(-3909.35 -1884.285)" fill="#3f1c16"/>
              </g>
            </g>
            <g id="Group_1193022" data-name="Group 1193022" transform="translate(3.079 4.226)">
              <g id="Group_1193021" data-name="Group 1193021">
                <path id="Path_1016662" data-name="Path 1016662" d="M3909.685,1888.567a.159.159,0,0,0,.139-.08.148.148,0,0,0-.064-.205,2.463,2.463,0,0,0-1.656-.223.15.15,0,0,0-.1.194.16.16,0,0,0,.2.092,2.164,2.164,0,0,1,1.4.2A.174.174,0,0,0,3909.685,1888.567Z" transform="translate(-3907.998 -1887.984)" fill="#3f1c16"/>
              </g>
            </g>
            <g id="Group_1193024" data-name="Group 1193024" transform="translate(2.615 5.6)">
              <g id="Group_1193023" data-name="Group 1193023">
                <path id="Path_1016663" data-name="Path 1016663" d="M3908.525,1892a.159.159,0,0,0,.139-.08.148.148,0,0,0-.064-.205,2.461,2.461,0,0,0-1.657-.223.15.15,0,0,0-.1.194.16.16,0,0,0,.2.092,2.162,2.162,0,0,1,1.4.2A.209.209,0,0,0,3908.525,1892Z" transform="translate(-3906.839 -1891.413)" fill="#3f1c16"/>
              </g>
            </g>
            <g id="Group_1193026" data-name="Group 1193026" transform="translate(2.202 7.11)">
              <g id="Group_1193025" data-name="Group 1193025">
                <path id="Path_1016664" data-name="Path 1016664" d="M3907.5,1895.767a.159.159,0,0,0,.139-.08.148.148,0,0,0-.064-.205,2.461,2.461,0,0,0-1.656-.223.15.15,0,0,0-.1.194.159.159,0,0,0,.2.092,2.162,2.162,0,0,1,1.4.2A.14.14,0,0,0,3907.5,1895.767Z" transform="translate(-3905.809 -1895.184)" fill="#3f1c16"/>
              </g>
            </g>
          </g>
          <g id="Group_1193029" data-name="Group 1193029" transform="translate(28.539 36.766)">
            <g id="Group_1193028" data-name="Group 1193028">
              <path id="Path_1016665" data-name="Path 1016665" d="M3983.6,1862.962h0a8.839,8.839,0,0,0-6.179.57,8.256,8.256,0,0,0-4.363,5.074l-2.075,6.586,16.426,4.465,2.075-6.586a7.82,7.82,0,0,0,.113-4.044A8.337,8.337,0,0,0,3983.6,1862.962Z" transform="translate(-3970.989 -1862.65)" fill="#73672c"/>
            </g>
          </g>
          <g id="Group_1193032" data-name="Group 1193032" transform="translate(16.1 24.454)">
            <g id="Group_1193030" data-name="Group 1193030" transform="translate(0.157 0.153)">
              <path id="Path_1016666" data-name="Path 1016666" d="M3945.917,1832.29c-1.314,3.474-4.658,3.34-5.594.707C3943.013,1832.518,3945.917,1832.29,3945.917,1832.29Z" transform="translate(-3940.323 -1832.29)" fill="#fff"/>
            </g>
            <g id="Group_1193031" data-name="Group 1193031">
              <path id="Path_1016667" data-name="Path 1016667" d="M3942.561,1834.861a2.85,2.85,0,0,1-2.623-2.045.149.149,0,0,1,.013-.126.158.158,0,0,1,.108-.072c2.665-.474,5.58-.707,5.609-.708a.17.17,0,0,1,.139.059.147.147,0,0,1,.023.144c-.652,1.723-1.863,2.749-3.243,2.749Zm-2.259-1.974a2.506,2.506,0,0,0,2.262,1.674h.023a3.29,3.29,0,0,0,2.856-2.325C3944.7,1832.3,3942.445,1832.514,3940.3,1832.886Z" transform="translate(-3939.93 -1831.908)" fill="#3f1c16"/>
            </g>
          </g>
        </g>
      </g>
      <g id="Group_1193043" data-name="Group 1193043" transform="translate(3712.337 1649.922)">
        <g id="Group_1193036" data-name="Group 1193036" transform="translate(0)">
          <g id="Group_1193035" data-name="Group 1193035">
            <path id="Path_1016668" data-name="Path 1016668" d="M3968.541,1769.906l-1.448,1.361a6.215,6.215,0,0,1-8.494-2.049l-2.218-3.574c-.928-.181-2.586.822-3.6,1.523a1.029,1.029,0,0,1-1.46-.3h0a1.029,1.029,0,0,1,.241-1.354,17.423,17.423,0,0,1,2.6-1.747,11.593,11.593,0,0,0-4.147,1.621,1.283,1.283,0,0,1-1.781-.457h0a1.285,1.285,0,0,1,.281-1.621,14.888,14.888,0,0,1,2.912-1.815,31.186,31.186,0,0,0-2.974,1.244,1.419,1.419,0,0,1-1.849-.562h0a1.419,1.419,0,0,1,.388-1.859,16.633,16.633,0,0,1,4.3-2.447,19.452,19.452,0,0,0-4.623,1.743,1.123,1.123,0,0,1-1.523-.419h0a1.123,1.123,0,0,1,.436-1.548c3.1-1.675,10.826-4.6,14.892-1.327s5.225,2.353,5.225,2.353Z" transform="translate(-3944.993 -1754.832)" fill="#dd958b"/>
          </g>
        </g>
        <g id="Group_1193038" data-name="Group 1193038" transform="translate(6.338 6.063)">
          <g id="Group_1193037" data-name="Group 1193037">
            <path id="Path_1016669" data-name="Path 1016669" d="M3963.591,1770.187a.088.088,0,0,0,0-.174,4.643,4.643,0,0,0-2.723.472.088.088,0,1,0,.079.158,4.542,4.542,0,0,1,2.611-.457A.042.042,0,0,0,3963.591,1770.187Z" transform="translate(-3960.819 -1769.971)" fill="#3f1c16"/>
          </g>
        </g>
        <g id="Group_1193040" data-name="Group 1193040" transform="translate(6.615 2.735)">
          <g id="Group_1193039" data-name="Group 1193039">
            <path id="Path_1016670" data-name="Path 1016670" d="M3962.583,1761.853a.087.087,0,0,0,.071-.073.088.088,0,0,0-.073-.1,2.709,2.709,0,0,0-1,.074.089.089,0,0,0-.066.107.085.085,0,0,0,.107.066,2.666,2.666,0,0,1,.934-.071Z" transform="translate(-3961.509 -1761.66)" fill="#3f1c16"/>
          </g>
        </g>
        <g id="Group_1193042" data-name="Group 1193042" transform="translate(9.071 8.774)">
          <g id="Group_1193041" data-name="Group 1193041">
            <path id="Path_1016671" data-name="Path 1016671" d="M3968.85,1776.916a.088.088,0,0,0-.008-.175,8.863,8.863,0,0,0-1.12.068.092.092,0,0,0-.08.1.089.089,0,0,0,.1.08,9.218,9.218,0,0,1,1.089-.068Z" transform="translate(-3967.642 -1776.739)" fill="#3f1c16"/>
          </g>
        </g>
      </g>
    </g>
  </g>
</svg>
