<svg xmlns="http://www.w3.org/2000/svg" width="96" height="96" viewBox="0 0 96 96">
  <g id="img25" transform="translate(-794.039 -2920.08)">
    <path id="Elipse_5729" data-name="Elipse 5729" d="M48,0A48,48,0,1,1,0,48,48,48,0,0,1,48,0Z" transform="translate(794.039 2920.081)" fill="#9c3413"/>
    <g id="Group_1196534" data-name="Group 1196534" transform="translate(811.591 2856.543)">
      <path id="Path_1018647" data-name="Path 1018647" d="M224.489,217.193a.892.892,0,0,0-.892-.892h-.01a.892.892,0,1,0,.9.892Z" transform="translate(-196.213 -109.34)" fill="#fff"/>
      <path id="Path_1018648" data-name="Path 1018648" d="M275.01,216.3H275a.9.9,0,1,0,.01,0Z" transform="translate(-241.511 -109.34)" fill="#fff"/>
      <path id="Path_1018649" data-name="Path 1018649" d="M235.6,252.7a2.123,2.123,0,0,1-2.883,0,.892.892,0,0,0-1.194,1.326,3.906,3.906,0,0,0,5.271,0A.892.892,0,0,0,235.6,252.7Z" transform="translate(-203.724 -141.211)" fill="#fff"/>
      <path id="Path_1018650" data-name="Path 1018650" d="M112.213,218.085a.9.9,0,1,0-.01,0Z" transform="translate(-98.072 -109.34)" fill="#fff"/>
      <path id="Path_1018651" data-name="Path 1018651" d="M61.686,217.193a.895.895,0,1,0-.9.892h.01A.888.888,0,0,0,61.686,217.193Z" transform="translate(-52.773 -109.34)" fill="#fff"/>
      <path id="Path_1018652" data-name="Path 1018652" d="M68.847,254.029a3.906,3.906,0,0,0,5.271,0,.892.892,0,1,0-1.194-1.326,2.123,2.123,0,0,1-2.883,0,.892.892,0,0,0-1.194,1.326Z" transform="translate(-60.399 -141.212)" fill="#fff"/>
      <path id="Path_1018653" data-name="Path 1018653" d="M18.813,123.828a7,7,0,0,0-4.672-1.785H8.026a7.015,7.015,0,0,0-7.007,7.007v2.909a2.841,2.841,0,0,0-.98,1.7,2.932,2.932,0,0,0,2.891,3.416h.176a8.04,8.04,0,0,0,4.027,6.092v1.589a1.139,1.139,0,0,1-.817,1.1l-3.5,1.051A3.925,3.925,0,0,0,0,150.689v5.876a.892.892,0,1,0,1.784,0v-5.876a2.152,2.152,0,0,1,1.543-2.074l1.79-.537a9.044,9.044,0,0,0,11.941-.007.892.892,0,0,0,.4-1.734l-1.6-.481a1.139,1.139,0,0,1-.817-1.1v-1.6a8.044,8.044,0,0,0,3.744-4.682.892.892,0,0,0-1.71-.509,6.243,6.243,0,0,1-12.226-1.784.892.892,0,0,0-.892-.892H2.93a1.148,1.148,0,0,1-1.13-1.345A1.234,1.234,0,0,1,3.04,133h.91a2.934,2.934,0,0,0,2.93-2.93v-.95L16,130.944a.892.892,0,1,0,.35-1.749L6.163,127.156a.892.892,0,0,0-1.067.875v2.038a1.148,1.148,0,0,1-1.146,1.146h-.91c-.079,0-.158,0-.236.01V129.05a5.229,5.229,0,0,1,5.223-5.223h6.115a5.213,5.213,0,0,1,3.482,1.33.892.892,0,1,0,1.19-1.33Zm-5.564,20.079v.85a2.908,2.908,0,0,0,1.711,2.663,7.263,7.263,0,0,1-7.753,0,2.908,2.908,0,0,0,1.711-2.663v-.845a8,8,0,0,0,2.165.3A7.919,7.919,0,0,0,13.249,143.907Z" transform="translate(0 -26.293)" fill="#fff"/>
      <path id="Path_1018654" data-name="Path 1018654" d="M181.784,97.133V94.113a1.911,1.911,0,0,0-2.666-1.756l-5.352,2.3-5.352-2.3a1.911,1.911,0,0,0-2.666,1.756v3.021a1.91,1.91,0,0,0,.194.839,11.07,11.07,0,0,0-3.252,7.842v2.038h0a2.929,2.929,0,0,0,2.93,2.93h.176a8.04,8.04,0,0,0,4.011,6.083v1.6a1.139,1.139,0,0,1-.817,1.1l-3.5,1.051a3.925,3.925,0,0,0-2.815,3.783v5.876a.892.892,0,0,0,1.784,0V124.4A2.152,2.152,0,0,1,166,122.322l1.79-.537a9.044,9.044,0,0,0,11.933,0l1.79.537a2.152,2.152,0,0,1,1.543,2.074v5.876a.892.892,0,0,0,1.784,0V124.4a3.925,3.925,0,0,0-2.815-3.783l-3.5-1.051a1.139,1.139,0,0,1-.817-1.1v-1.579a8.041,8.041,0,0,0,4.044-6.1h.176a2.929,2.929,0,0,0,2.93-2.93h0v-2.038a11.1,11.1,0,0,0-3.263-7.853,1.912,1.912,0,0,0,.189-.829ZM179.822,94a.127.127,0,0,1,.177.117v3.021a.127.127,0,0,1-.177.117l-3.786-1.627Zm-12.291.117a.121.121,0,0,1,.057-.106.123.123,0,0,1,.069-.022.13.13,0,0,1,.051.011l3.786,1.627-3.786,1.627a.127.127,0,0,1-.177-.117Zm-.116,4.916a1.892,1.892,0,0,0,.242.016,1.912,1.912,0,0,0,.755-.156l5.352-2.3,5.352,2.3a1.887,1.887,0,0,0,1.009.138,9.311,9.311,0,0,1,2.922,6.15,3.122,3.122,0,0,0-1.231-.255h-.91a1.148,1.148,0,0,1-1.146-1.146.892.892,0,0,0-.717-.875l-10.192-2.038a.892.892,0,0,0-1.067.875v2.038a1.148,1.148,0,0,1-1.146,1.146h-.91a3.124,3.124,0,0,0-1.233.256A9.288,9.288,0,0,1,167.416,99.028Zm10.218,22.1a7.263,7.263,0,0,1-7.753,0,2.908,2.908,0,0,0,1.711-2.663v-.849a8.016,8.016,0,0,0,4.331.009v.841a2.908,2.908,0,0,0,1.711,2.663Zm5.167-12.533a1.145,1.145,0,0,1-.874.4h-1.019a.892.892,0,0,0-.892.892,6.242,6.242,0,0,1-12.484,0,.892.892,0,0,0-.892-.892H165.62a1.148,1.148,0,0,1-1.13-1.345,1.234,1.234,0,0,1,1.239-.947h.91a2.934,2.934,0,0,0,2.93-2.93v-.95l8.505,1.7a2.936,2.936,0,0,0,2.833,2.18h.91a1.234,1.234,0,0,1,1.239.947A1.145,1.145,0,0,1,182.8,108.595Z" transform="translate(-143.326)" fill="#fff"/>
      <path id="Path_1018655" data-name="Path 1018655" d="M365.539,133.6H367.5a2.934,2.934,0,0,0,2.93-2.93v-6.115a11.084,11.084,0,0,0-18.843-7.915.892.892,0,1,0,1.249,1.274,9.3,9.3,0,0,1,15.81,6.641v6.115a1.148,1.148,0,0,1-1.146,1.146h-.878a8.462,8.462,0,0,0,.75-3.486,6.122,6.122,0,0,0-4.192-5.816l-7.307-2.436a1.911,1.911,0,0,0-2.516,1.813v.624a.892.892,0,0,0,1.784,0V121.9a.127.127,0,0,1,.167-.12l7.307,2.436a4.341,4.341,0,0,1,2.972,4.125,6.446,6.446,0,0,1-6.049,6.538,6.252,6.252,0,0,1-6.176-4.455.892.892,0,0,0-1.71.509,8.015,8.015,0,0,0,3.744,4.691v1.589a1.139,1.139,0,0,1-.817,1.1l-1.6.481a.891.891,0,0,0,.4,1.734,9.044,9.044,0,0,0,11.941.007l1.79.537a2.152,2.152,0,0,1,1.543,2.074v5.876a.892.892,0,1,0,1.784,0v-5.876a3.925,3.925,0,0,0-2.815-3.783l-3.5-1.051a1.139,1.139,0,0,1-.817-1.1v-1.638A8.264,8.264,0,0,0,365.539,133.6Zm-2.312,6.267a7.263,7.263,0,0,1-7.753,0,2.908,2.908,0,0,0,1.711-2.663v-.847a8.013,8.013,0,0,0,2.169.3q.121,0,.243,0a7.583,7.583,0,0,0,1.919-.307v.858A2.909,2.909,0,0,0,363.227,139.87Z" transform="translate(-309.539 -18.743)" fill="#fff"/>
      <path id="Path_1018656" data-name="Path 1018656" d="M386.544,216.3h-.01a.9.9,0,1,0,.01,0Z" transform="translate(-339.78 -109.34)" fill="#fff"/>
      <path id="Path_1018657" data-name="Path 1018657" d="M438.849,217.193a.892.892,0,0,0-.892-.892h-.01a.892.892,0,1,0,.9.892Z" transform="translate(-385.078 -109.34)" fill="#fff"/>
      <path id="Path_1018658" data-name="Path 1018658" d="M398.544,252.7a2.123,2.123,0,0,1-2.883,0,.892.892,0,1,0-1.194,1.326,3.906,3.906,0,0,0,5.271,0,.892.892,0,0,0-1.194-1.326Z" transform="translate(-347.291 -141.211)" fill="#fff"/>
    </g>
  </g>
</svg>
