<svg xmlns="http://www.w3.org/2000/svg" width="84" height="84" viewBox="0 0 84 84">
  <g id="img30" transform="translate(-319 -9995)">
    <rect id="Rectangle_461391" data-name="Rectangle 461391" width="84" height="84" rx="10" transform="translate(319 9995)" fill="#b9c296"/>
    <g id="Group_1196456" data-name="Group 1196456" transform="translate(318.49 9995.198)">
      <g id="Group_1196455" data-name="Group 1196455" transform="translate(11.293 10.598)">
        <path id="Path_1018348" data-name="Path 1018348" d="M67.8,52.486a13.817,13.817,0,0,1,19.483,0l1.57,1.566,1.564-1.566a13.779,13.779,0,0,1,19.488,19.486L88.854,93.023,67.8,71.972A13.817,13.817,0,0,1,67.8,52.486Z" transform="translate(-57.636 -44.244)" fill="#f37f80" fill-rule="evenodd"/>
        <path id="Path_1018349" data-name="Path 1018349" d="M121.052,132.711h11.942a6.777,6.777,0,0,0,1.433-4.164,7.413,7.413,0,0,0-14.808,0,6.769,6.769,0,0,0,1.433,4.164Z" transform="translate(-106.211 -107.786)" fill="#666e7a" fill-rule="evenodd"/>
        <path id="Path_1018350" data-name="Path 1018350" d="M134.044,145.27c-.1,0-.206,0-.308.007A6.32,6.32,0,0,1,128,149.444a5.772,5.772,0,0,0-.308,1.865,6.361,6.361,0,1,0,6.353-6.039Z" transform="translate(-113.231 -128.455)" fill="#fde6db" fill-rule="evenodd"/>
        <path id="Path_1018351" data-name="Path 1018351" d="M111.486,238.13h-9.105a5.729,5.729,0,0,0-5.851,5.565v22.192h20.813V243.695a5.735,5.735,0,0,0-5.857-5.565Z" transform="translate(-86.124 -209.237)" fill="#71c7b3" fill-rule="evenodd"/>
        <path id="Path_1018352" data-name="Path 1018352" d="M281.062,132.711H293a6.777,6.777,0,0,0,1.433-4.164,7.413,7.413,0,0,0-14.808,0,6.769,6.769,0,0,0,1.433,4.164Z" transform="translate(-245.407 -107.786)" fill="#666e7a" fill-rule="evenodd"/>
        <path id="Path_1018353" data-name="Path 1018353" d="M294.053,145.27c-.108,0-.211,0-.308.007a6.32,6.32,0,0,1-5.736,4.168,5.77,5.77,0,0,0-.308,1.865,6.361,6.361,0,1,0,6.353-6.039Z" transform="translate(-252.428 -128.455)" fill="#fde6db" fill-rule="evenodd"/>
        <path id="Path_1018354" data-name="Path 1018354" d="M271.5,238.13h-9.105a5.729,5.729,0,0,0-5.851,5.565v22.114h20.813V243.695A5.735,5.735,0,0,0,271.5,238.13Z" transform="translate(-225.321 -209.237)" fill="#76b4e2" fill-rule="evenodd"/>
        <path id="Path_1018355" data-name="Path 1018355" d="M41.052,286.012H52.994a6.78,6.78,0,0,0,1.433-4.164,7.413,7.413,0,0,0-14.808,0,6.772,6.772,0,0,0,1.433,4.164Z" transform="translate(-36.617 -241.145)" fill="#666e7a" fill-rule="evenodd"/>
        <path id="Path_1018356" data-name="Path 1018356" d="M54.043,298.58c-.1,0-.206,0-.308.007A6.322,6.322,0,0,1,48,302.754a5.76,5.76,0,0,0-.308,1.865,6.361,6.361,0,1,0,6.353-6.039Z" transform="translate(-43.637 -261.824)" fill="#fde6db" fill-rule="evenodd"/>
        <path id="Path_1018357" data-name="Path 1018357" d="M31.486,391.44H22.381A5.729,5.729,0,0,0,16.53,397v8.037H37.343V397A5.734,5.734,0,0,0,31.486,391.44Z" transform="translate(-16.53 -342.605)" fill="#f7abac" fill-rule="evenodd"/>
        <path id="Path_1018358" data-name="Path 1018358" d="M201.062,286.012H213a6.78,6.78,0,0,0,1.433-4.164,7.413,7.413,0,0,0-14.808,0,6.772,6.772,0,0,0,1.433,4.164Z" transform="translate(-175.813 -241.145)" fill="#666e7a" fill-rule="evenodd"/>
        <path id="Path_1018359" data-name="Path 1018359" d="M214.053,298.58c-.1,0-.206,0-.308.007a6.322,6.322,0,0,1-5.736,4.168,5.759,5.759,0,0,0-.308,1.865,6.361,6.361,0,1,0,6.353-6.039Z" transform="translate(-182.834 -261.824)" fill="#fde6db" fill-rule="evenodd"/>
        <path id="Path_1018360" data-name="Path 1018360" d="M191.5,391.44h-9.105A5.729,5.729,0,0,0,176.54,397v8.037h20.813V397A5.734,5.734,0,0,0,191.5,391.44Z" transform="translate(-155.727 -342.605)" fill="#fce17d" fill-rule="evenodd"/>
        <path id="Path_1018361" data-name="Path 1018361" d="M361.062,286.012H373a6.812,6.812,0,0,0,1.433-4.164,7.413,7.413,0,0,0-14.808,0,6.772,6.772,0,0,0,1.433,4.164Z" transform="translate(-315.001 -241.145)" fill="#666e7a" fill-rule="evenodd"/>
        <path id="Path_1018362" data-name="Path 1018362" d="M374.063,298.58c-.108,0-.211,0-.314.007a6.309,6.309,0,0,1-5.731,4.168,5.76,5.76,0,0,0-.308,1.865,6.361,6.361,0,1,0,6.353-6.039Z" transform="translate(-322.03 -261.824)" fill="#fde6db" fill-rule="evenodd"/>
        <path id="Path_1018363" data-name="Path 1018363" d="M351.5,391.44h-9.105A5.729,5.729,0,0,0,336.54,397v8.037h20.813V397A5.734,5.734,0,0,0,351.5,391.44Z" transform="translate(-294.915 -342.605)" fill="#acd14f" fill-rule="evenodd"/>
        <path id="Path_1018364" data-name="Path 1018364" d="M215.575,31.58c7.136-4.752,6.068-1.6,6.068-14.016-6.051-1.544-.062-.017-6.068-1.565l-6.068,1.565C209.507,29.982,208.434,26.829,215.575,31.58Z" transform="translate(-184.356 -16)" fill="#f1d5ca" fill-rule="evenodd"/>
        <path id="Path_1018365" data-name="Path 1018365" d="M229.42,44.323h2.295V42.03h2.466v2.293h2.295v2.466h-2.295v2.293h-2.466V46.789H229.42Z" transform="translate(-201.728 -38.644)" fill="#f37f80" fill-rule="evenodd"/>
      </g>
      <path id="Path_1018366" data-name="Path 1018366" d="M39.762,17.056h1.515a.78.78,0,0,0,.778-.78V14.763h.909v1.513a.78.78,0,0,0,.778.78h1.51v.905h-1.51a.78.78,0,0,0-.778.78v1.513h-.909V18.742a.78.78,0,0,0-.778-.78H39.762Zm-.778,2.466h1.51v1.513a.785.785,0,0,0,.783.78h2.465a.78.78,0,0,0,.778-.78V19.522h1.515a.78.78,0,0,0,.778-.78V16.276a.78.78,0,0,0-.778-.78H44.521V13.982a.78.78,0,0,0-.778-.78H41.278a.784.784,0,0,0-.783.78V15.5h-1.51a.784.784,0,0,0-.783.78v2.466A.785.785,0,0,0,38.985,19.522Zm33.964,52.73H53.695V64.995a4.941,4.941,0,0,1,5.074-4.783h9.107a4.941,4.941,0,0,1,5.073,4.783ZM12.072,64.995a4.941,4.941,0,0,1,5.074-4.783h9.107a4.941,4.941,0,0,1,5.073,4.783v7.257H12.072Zm4.049-11.6a5.025,5.025,0,0,1,.131-1.134,7.146,7.146,0,0,0,5.669-4.121A5.729,5.729,0,0,1,25.662,49.7a5.063,5.063,0,0,1,1.608,3.694A5.429,5.429,0,0,1,21.7,58.651a5.433,5.433,0,0,1-5.576-5.259ZM21.7,45.041A6.482,6.482,0,0,0,15.079,51a.786.786,0,0,1,.537-.25,5.558,5.558,0,0,0,5.034-3.639.774.774,0,0,1,.7-.527,7.339,7.339,0,0,1,5.388,1.99A6.752,6.752,0,0,1,28.3,50.793a6.493,6.493,0,0,0-6.6-5.752Zm.315-25.651a13.012,13.012,0,0,0,0,18.381l1.956,1.958a6.8,6.8,0,0,1,3.581-1.02h.017a6.891,6.891,0,0,1-2.116-2.8,7.53,7.53,0,0,1-1.534-4.555A8.017,8.017,0,0,1,32.1,23.54a8.017,8.017,0,0,1,8.186,7.819,7.53,7.53,0,0,1-1.534,4.555,6.846,6.846,0,0,1-2.116,2.8h.017a6.715,6.715,0,0,1,5.852,3.373,6.729,6.729,0,0,1,5.857-3.373h.012a6.879,6.879,0,0,1-2.111-2.8,7.529,7.529,0,0,1-1.532-4.555,8.194,8.194,0,0,1,16.371,0,7.5,7.5,0,0,1-1.539,4.555,6.879,6.879,0,0,1-2.111,2.8h.017a6.8,6.8,0,0,1,3.581,1.02l1.956-1.958a12.992,12.992,0,0,0-13.614-21.4c.046,3.114.062,4.679-.384,5.817-.492,1.245-1.436,1.8-3.146,2.821-.773.459-1.733,1.03-2.923,1.821l-.434.287-.429-.287c-1.19-.791-2.15-1.362-2.923-1.821-1.71-1.017-2.654-1.576-3.147-2.821-.446-1.138-.429-2.7-.384-5.817a12.987,12.987,0,0,0-13.614,3.023Zm15.174-3.015c-.04,2.827-.062,4.384.274,5.235.28.713.858,1.084,2.494,2.054.692.411,1.532.911,2.551,1.578,1.024-.667,1.865-1.167,2.557-1.578,1.63-.97,2.214-1.341,2.494-2.054.337-.852.315-2.409.274-5.235-.012-1-.029-2.2-.034-3.608-2.522-.644-2.529-.645-2.6-.676a.693.693,0,0,0,.091.034c-.062-.018-.606-.16-2.786-.722l-5.285,1.363C37.216,14.172,37.2,15.381,37.187,16.376ZM69.921,50.793a6.83,6.83,0,0,0-1.556-2.223,7.341,7.341,0,0,0-5.388-1.99.774.774,0,0,0-.7.527,5.557,5.557,0,0,1-5.034,3.639A.781.781,0,0,0,56.7,51a6.659,6.659,0,0,1,13.219-.2ZM46.3,31.056a6.658,6.658,0,0,1,13.219-.189,7.157,7.157,0,0,0-6.6-4.237c-.12,0-.234,0-.349.008a.787.787,0,0,0-.7.528,5.553,5.553,0,0,1-5.027,3.639.775.775,0,0,0-.537.25Zm1.041,2.395a5.022,5.022,0,0,1,.131-1.133A7.158,7.158,0,0,0,53.139,28.2a5.416,5.416,0,0,1,5.349,5.255,5.583,5.583,0,0,1-11.147,0Zm-.28,25.2a6.692,6.692,0,0,1,5.857,3.362,6.674,6.674,0,0,1,5.852-3.362h.017a6.846,6.846,0,0,1-2.116-2.8A7.537,7.537,0,0,1,55.136,51.3a7.962,7.962,0,0,1,7.144-7.752,5.089,5.089,0,0,0-4.81-3.277H48.363a5.092,5.092,0,0,0-4.817,3.277A7.957,7.957,0,0,1,50.69,51.3a7.5,7.5,0,0,1-1.534,4.557,6.879,6.879,0,0,1-2.111,2.8h.012ZM32.885,64.995a4.941,4.941,0,0,1,5.074-4.783h9.1a4.942,4.942,0,0,1,5.074,4.783v7.257H32.887V64.995ZM47.556,48.57a7.354,7.354,0,0,0-5.394-1.99.781.781,0,0,0-.7.527,5.55,5.55,0,0,1-5.027,3.639.781.781,0,0,0-.537.25,6.656,6.656,0,0,1,13.213-.2A6.823,6.823,0,0,0,47.556,48.57ZM42.506,58.651a5.429,5.429,0,0,1-5.571-5.259,5.025,5.025,0,0,1,.131-1.134,7.154,7.154,0,0,0,5.669-4.121A5.754,5.754,0,0,1,46.476,49.7a5.083,5.083,0,0,1,1.608,3.694,5.43,5.43,0,0,1-5.576,5.259Zm-17.015-27.6A6.476,6.476,0,0,1,32.1,25.1a6.445,6.445,0,0,1,6.6,5.766,7.146,7.146,0,0,0-6.6-4.237q-.172,0-.343.008a.78.78,0,0,0-.7.528,5.561,5.561,0,0,1-5.034,3.639.766.766,0,0,0-.532.25Zm1.041,2.395a5.017,5.017,0,0,1,.126-1.133A7.14,7.14,0,0,0,32.326,28.2a5.416,5.416,0,0,1,5.354,5.255,5.583,5.583,0,0,1-11.147,0ZM28.35,55.856a6.891,6.891,0,0,1-2.116,2.8h.017A6.684,6.684,0,0,1,32.1,62.014a6.692,6.692,0,0,1,5.857-3.362h.012a6.879,6.879,0,0,1-2.111-2.8A7.5,7.5,0,0,1,34.328,51.3a7.958,7.958,0,0,1,7.144-7.752,5.091,5.091,0,0,0-4.817-3.277H27.548a5.082,5.082,0,0,0-4.81,3.277A7.963,7.963,0,0,1,29.882,51.3a7.544,7.544,0,0,1-1.532,4.557Zm34.972,2.8a5.429,5.429,0,0,0,5.571-5.259,5.077,5.077,0,0,0-1.6-3.694,5.756,5.756,0,0,0-3.746-1.561,7.142,7.142,0,0,1-5.669,4.121,5.024,5.024,0,0,0-.131,1.134A5.433,5.433,0,0,0,63.321,58.651Zm4.553,0h-.017a6.891,6.891,0,0,0,2.116-2.8A7.531,7.531,0,0,0,71.507,51.3,7.986,7.986,0,0,0,63.9,43.5a6.283,6.283,0,0,0-1.618-2.8l1.83-1.83a14.553,14.553,0,0,0-14.74-24.15c-.005-.773-.012-1.627-.012-2.565v-.606l-.589-.15-3.026-.774a.285.285,0,0,1,.1.039q-.091-.043-3.14-.83l-.2-.051L35.66,11.556v.6q0,1.407-.017,2.565a14.552,14.552,0,0,0-14.735,24.15l1.83,1.83a6.271,6.271,0,0,0-1.618,2.8,7.986,7.986,0,0,0-7.608,7.8,7.531,7.531,0,0,0,1.534,4.557,6.846,6.846,0,0,0,2.116,2.8h-.017a6.5,6.5,0,0,0-6.635,6.344v8.037a.781.781,0,0,0,.783.78H73.727a.784.784,0,0,0,.783-.78V64.995a6.5,6.5,0,0,0-6.635-6.344Z" fill="#282828" fill-rule="evenodd"/>
    </g>
  </g>
</svg>
