<svg xmlns="http://www.w3.org/2000/svg" width="150" height="150" viewBox="0 0 150 150">
  <g id="img6" transform="translate(-383.746 -8400)">
    <circle id="Ellipse_13609" data-name="Ellipse 13609" cx="75" cy="75" r="75" transform="translate(383.746 8400)" fill="#b9c296"/>
    <g id="Group_1196526" data-name="Group 1196526" transform="translate(413.06 8429.313)">
      <g id="Group_1196519" data-name="Group 1196519" transform="translate(5.711 0)">
        <g id="Group_1196517" data-name="Group 1196517" transform="translate(0 0)">
          <g id="Group_1196512" data-name="Group 1196512" transform="translate(12.514)">
            <path id="Path_1018558" data-name="Path 1018558" d="M94.322,3.6a.976.976,0,0,1-.976-.976V.976a.976.976,0,1,1,1.952,0V2.624A.976.976,0,0,1,94.322,3.6Z" transform="translate(-93.346 0)" fill="#4a4e3c"/>
          </g>
          <g id="Group_1196513" data-name="Group 1196513" transform="translate(3.665 3.662)">
            <path id="Path_1018559" data-name="Path 1018559" d="M50.166,21.876a.973.973,0,0,1-.69-.286L48.31,20.425a.976.976,0,0,1,1.38-1.381l1.166,1.165A1,1,0,0,1,50.166,21.876Z" transform="translate(-48.024 -18.758)" fill="#4a4e3c"/>
          </g>
          <g id="Group_1196514" data-name="Group 1196514" transform="translate(0 12.503)">
            <path id="Path_1018560" data-name="Path 1018560" d="M31.876,65.993H30.226a.976.976,0,1,1,0-1.952h1.649a.976.976,0,1,1,0,1.952Z" transform="translate(-29.25 -64.041)" fill="#4a4e3c"/>
          </g>
          <g id="Group_1196515" data-name="Group 1196515" transform="translate(3.69 20.179)">
            <path id="Path_1018561" data-name="Path 1018561" d="M49.1,106.474a1,1,0,0,1-.69-1.667l1.166-1.165a.976.976,0,0,1,1.38,1.381l-1.166,1.165A.973.973,0,0,1,49.1,106.474Z" transform="translate(-48.148 -103.356)" fill="#4a4e3c"/>
          </g>
          <g id="Group_1196516" data-name="Group 1196516" transform="translate(20.221 3.662)">
            <path id="Path_1018562" data-name="Path 1018562" d="M133.771,21.876a1,1,0,0,1-.69-1.667l1.166-1.165a.976.976,0,0,1,1.38,1.381l-1.166,1.165A.973.973,0,0,1,133.771,21.876Z" transform="translate(-132.819 -18.758)" fill="#4a4e3c"/>
          </g>
        </g>
        <g id="Group_1196518" data-name="Group 1196518" transform="translate(64.941 0.079)">
          <path id="Path_1018563" data-name="Path 1018563" d="M375.508,15.007h-6.325A7.3,7.3,0,1,1,375.3,3.7c.07,0,.141,0,.212,0a5.656,5.656,0,1,1,0,11.312Zm-11.687-7.3a5.362,5.362,0,0,0,5.363,5.349h6.325a3.713,3.713,0,0,0,3.713-3.7,3.761,3.761,0,0,0-4.293-3.657.978.978,0,0,1-1.018-.506,5.363,5.363,0,0,0-10.09,2.518Z" transform="translate(-361.868 -0.404)" fill="#4a4e3c"/>
        </g>
      </g>
      <g id="Group_1196520" data-name="Group 1196520" transform="translate(53.348 26.085)">
        <path id="Path_1018564" data-name="Path 1018564" d="M279.35,145.816a6.1,6.1,0,1,1,6.108-6.1A6.113,6.113,0,0,1,279.35,145.816Zm0-10.257a4.152,4.152,0,1,0,4.155,4.153A4.159,4.159,0,0,0,279.35,135.558Z" transform="translate(-273.242 -133.606)" fill="#4a4e3c"/>
      </g>
      <g id="Group_1196525" data-name="Group 1196525" transform="translate(0 6.031)">
        <g id="Group_1196521" data-name="Group 1196521" transform="translate(64.232 58.439)">
          <path id="Path_1018565" data-name="Path 1018565" d="M399.327,330.439a.976.976,0,0,0-1.138-.09c-.134.081-3.284,2.03-3.567,5.3-.179,2.072.82,4.127,2.967,6.112v3.645a.976.976,0,1,0,1.952,0v-3.621a8.054,8.054,0,0,0,2.921-5.428c.077-2.1-.978-4.09-3.135-5.92Zm1.185,5.839a5.856,5.856,0,0,1-1.929,3.737c-1.451-1.44-2.129-2.845-2.017-4.186a5.285,5.285,0,0,1,2.063-3.388A5.2,5.2,0,0,1,400.512,336.277Z" transform="translate(-381.79 -330.207)" fill="#4a4e3c"/>
          <path id="Path_1018566" data-name="Path 1018566" d="M333.711,359.406a.976.976,0,0,0-1.138-.09c-.134.081-3.284,2.03-3.567,5.3-.179,2.072.82,4.127,2.967,6.112v3.645a.976.976,0,0,0,1.952,0v-3.621a8.055,8.055,0,0,0,2.921-5.427C336.923,363.227,335.868,361.236,333.711,359.406Zm1.185,5.839a5.856,5.856,0,0,1-1.929,3.737c-1.451-1.44-2.129-2.845-2.017-4.186a5.285,5.285,0,0,1,2.063-3.388A5.2,5.2,0,0,1,334.9,365.244Z" transform="translate(-328.985 -353.518)" fill="#4a4e3c"/>
        </g>
        <g id="Group_1196524" data-name="Group 1196524" transform="translate(0)">
          <g id="Group_1196522" data-name="Group 1196522" transform="translate(81.704 47.992)">
            <circle id="Ellipse_15157" data-name="Ellipse 15157" cx="1.269" cy="1.269" r="1.269" fill="#4a4e3c"/>
          </g>
          <g id="Group_1196523" data-name="Group 1196523">
            <path id="Path_1018567" data-name="Path 1018567" d="M49.256,272.252c-2.964-.663-6.369-.511-8.492,1.945v-2.469a.976.976,0,0,0-1.952,0v2.462c-2.123-2.453-5.523-2.6-8.487-1.942a.976.976,0,0,0-.763.969c0,.173.1,4.254,3.023,6.552a8.116,8.116,0,0,0,6.226,1.367V285a.976.976,0,0,0,1.952,0v-3.863A8.1,8.1,0,0,0,47,279.773c2.918-2.3,3.02-6.379,3.023-6.552A.975.975,0,0,0,49.256,272.252ZM33.8,278.243a6.754,6.754,0,0,1-2.2-4.252c2.248-.363,4-.041,5.209.958a6.359,6.359,0,0,1,1.966,4.224A6.229,6.229,0,0,1,33.8,278.243Zm11.976,0a6.232,6.232,0,0,1-4.975.93,6.325,6.325,0,0,1,1.961-4.216c1.212-1.005,2.965-1.329,5.219-.966A6.755,6.755,0,0,1,45.779,278.246Z" transform="translate(-23.791 -223.922)" fill="#4a4e3c"/>
            <path id="Path_1018568" data-name="Path 1018568" d="M132.234,346.163c-2.964-.663-6.369-.511-8.492,1.945V345.64a.976.976,0,1,0-1.952,0V348.1c-2.123-2.453-5.523-2.6-8.487-1.942a.976.976,0,0,0-.763.969c0,.173.1,4.254,3.023,6.552a8.116,8.116,0,0,0,6.226,1.367v3.863a.976.976,0,0,0,1.952,0v-3.863a8.1,8.1,0,0,0,6.231-1.364c2.918-2.3,3.02-6.379,3.023-6.552A.976.976,0,0,0,132.234,346.163Zm-15.453,5.991a6.754,6.754,0,0,1-2.2-4.252c2.248-.363,4-.041,5.209.958a6.358,6.358,0,0,1,1.966,4.224A6.23,6.23,0,0,1,116.781,352.154Zm11.976,0a6.232,6.232,0,0,1-4.975.93,6.325,6.325,0,0,1,1.961-4.216c1.212-1.005,2.965-1.329,5.219-.966A6.757,6.757,0,0,1,128.757,352.158Z" transform="translate(-90.568 -283.403)" fill="#4a4e3c"/>
            <path id="Path_1018569" data-name="Path 1018569" d="M91.373,83.818a.976.976,0,0,0-1-.976,75.741,75.741,0,0,0-21.647,3.711v-13.3h1.182a.976.976,0,1,0,0-1.952H48.042a.976.976,0,0,0,0,1.952H49.2V90.091A62.39,62.39,0,0,0,37.146,79.625a62.554,62.554,0,0,0-12.109-6.284h4.05a.976.976,0,0,0,0-1.952h-9.2V61.627h8.346l-.614.817A.985.985,0,0,0,28.285,64l5.682.636v10.83a.976.976,0,0,0,1.952,0V64.083L44.8,51.953l14.285-7.7L73.1,51.939,82,64.157V75.969a.976.976,0,0,0,1.952,0V64.676l5.654-.87a.985.985,0,0,0,.63-1.554L78.24,46.394a.978.978,0,0,0-.309-.267L59.584,36.06a.976.976,0,0,0-.933,0L43.171,44.4A12.8,12.8,0,0,0,30.621,33.548a12.619,12.619,0,0,0-4.992,1.024A7.451,7.451,0,1,0,17.944,45.68c-.008.185-.014.371-.014.558V71.074A62.391,62.391,0,0,0,.951,69.188.977.977,0,0,0,0,70.164v45.093a.976.976,0,0,0,.976.976H90.4a.976.976,0,0,0,.976-.976ZM65.8,73.254l-6.841,9.152L52.12,73.254Zm.972,1.96v12q-1.654.589-3.279,1.253L60.18,84.036Zm-15.627,0,6.595,8.822-6.416,8.583-.179-.224ZM19.882,59.675v-9.76H37.031L29.7,59.675ZM59.111,38.027l17.7,9.711L87.689,62.126l-4.277.658L74.55,50.613a.976.976,0,0,0-.32-.281L59.561,42.283a.976.976,0,0,0-.933,0L43.682,50.339a.976.976,0,0,0-.324.283L34.49,62.731l-4.289-.48L41.116,47.73ZM30.62,35.5a10.8,10.8,0,0,1,10.7,9.9L40,46.113a.977.977,0,0,0-.317.273L38.5,47.963H19.882V46.239A10.751,10.751,0,0,1,30.62,35.5ZM13.7,38.34a5.5,5.5,0,0,1,10.2-2.859,12.723,12.723,0,0,0-5.722,8.259,5.467,5.467,0,0,1-4.478-5.4Zm-1.979,71.524c-1.451-1.44-2.129-2.845-2.017-4.186a5.285,5.285,0,0,1,2.063-3.388,5.2,5.2,0,0,1,1.882,3.837A5.855,5.855,0,0,1,11.721,109.864Zm35.53,0c-1.451-1.44-2.129-2.845-2.017-4.186a5.282,5.282,0,0,1,2.063-3.388,5.2,5.2,0,0,1,1.883,3.837A5.855,5.855,0,0,1,47.251,109.864Zm.958,4.417v-2.644a8.055,8.055,0,0,0,2.921-5.427c.077-2.1-.978-4.09-3.136-5.92a.976.976,0,0,0-1.138-.09c-.134.081-3.284,2.03-3.567,5.3-.179,2.072.82,4.127,2.967,6.112v2.669H12.679v-2.644A8.056,8.056,0,0,0,15.6,106.21c.077-2.1-.978-4.09-3.135-5.92a.976.976,0,0,0-1.138-.09c-.134.081-3.284,2.03-3.567,5.3-.179,2.072.82,4.127,2.967,6.112v2.669H1.952V71.123A60.525,60.525,0,0,1,58.892,109.7l1.774,4.585Zm41.211,0H62.759c-2.739-7.079-5.617-13.914-10.195-20.057l6.4-8.557,2.685,3.591q-2.755,1.214-5.408,2.645a.976.976,0,0,0,.928,1.718,73.892,73.892,0,0,1,32.254-8.8Z" transform="translate(0 -30.892)" fill="#4a4e3c"/>
          </g>
        </g>
      </g>
    </g>
  </g>
</svg>
