<svg xmlns="http://www.w3.org/2000/svg" width="150" height="150" viewBox="0 0 150 150">
  <g id="img7" transform="translate(-383.746 -8400)">
    <circle id="Ellipse_13609" data-name="Ellipse 13609" cx="75" cy="75" r="75" transform="translate(383.746 8400)" fill="#b9c296"/>
    <g id="Group_1196527" data-name="Group 1196527" transform="translate(412.37 8429.06)">
      <path id="Path_1018570" data-name="Path 1018570" d="M88.824,88.824V44.912H85.9V39.057H82.97V30.275H80.042V24.42H77.115v5.855H74.187v8.782H71.26V6.533L62.477,8.289V3.927H59.55V8.875l-2.927.585V1H53.695v9.046l-2.927.585v-6.7H47.84v7.291l-8.782,1.756v8.518H12.71V24.42h2.927v17.7a8.981,8.981,0,0,0-1.464-.133c-5.649,0-10.246,5.253-10.246,11.71,0,5.887,3.826,10.76,8.782,11.577v1.907A6.527,6.527,0,0,0,8.319,65.4C4.283,65.4,1,69.344,1,74.187c0,4.242,2.519,7.789,5.855,8.605v6.032H1v2.927H91.752V88.824Zm-64.4-1.464A4.393,4.393,0,0,1,32.639,85.2l.454.8,1.574-.111a4.326,4.326,0,0,1,1.388.253l1.423.477.444-1.433a7.32,7.32,0,0,1,13.4-1.366l.915,1.657,1.373-1.3a4.454,4.454,0,0,1,6.023,0l1.373,1.3.915-1.657A7.317,7.317,0,0,1,75.289,85.1l.411,1.263,1.3-.287a7.3,7.3,0,0,1,7.4,2.75H24.7a4.385,4.385,0,0,1-.284-1.464ZM85.9,47.84V86.1a10.335,10.335,0,0,0-2.927-2.109V50.767H62.477V78.973a10.268,10.268,0,0,0-2.2,2.055,6.727,6.727,0,0,0-.729-.359V47.84ZM68.332,77.115a10.2,10.2,0,0,0-2.927.445V53.695H71.26V77.539A10.282,10.282,0,0,0,68.332,77.115Zm5.855-23.42h5.855V83.107a10.042,10.042,0,0,0-2.431-.091,10.206,10.206,0,0,0-3.424-4.046Zm-11.71-8.782V41.985H82.97v2.927ZM77.115,33.2h2.927v5.855H77.115ZM68.332,10.1V39.057H59.55v5.855H56.622V80.064a7.293,7.293,0,0,0-3.656.965,10.255,10.255,0,0,0-8.054-3.914,10.369,10.369,0,0,0-2.927.42V15.372ZM18.565,24.42H39.057V78.96a10.163,10.163,0,0,0-3.441,4.082,7.412,7.412,0,0,0-.947-.069,7.294,7.294,0,0,0-13.013,5.851H15.637V83.51L24.42,73.265v-3.6c4.956-.817,8.782-5.69,8.782-11.577a12.061,12.061,0,0,0-5.3-10.246h2.37V44.912H27.347v2.61a9.127,9.127,0,0,0-4.391-1.146c-.252,0-.509.016-.77.041a10.65,10.65,0,0,0-3.621-3.286ZM24.42,53.695a13.1,13.1,0,0,0-.741-4.347c3.7.438,6.6,4.189,6.6,8.739,0,4.844-3.283,8.782-7.319,8.782a6.7,6.7,0,0,1-4.942-2.326A11.821,11.821,0,0,0,24.42,53.695Zm-8.782,12.56a9.813,9.813,0,0,0,5.855,3.412v2.516l-5.855,6.831ZM6.855,53.695c0-4.844,3.283-8.782,7.319-8.782s7.319,3.939,7.319,8.782c0,4.242-2.519,7.789-5.855,8.605V52.231H12.71V62.3C9.374,61.483,6.855,57.937,6.855,53.695ZM3.927,74.187c0-3.229,1.97-5.855,4.391-5.855s4.391,2.626,4.391,5.855-1.97,5.855-4.391,5.855S3.927,77.416,3.927,74.187Zm5.855,8.605a6.79,6.79,0,0,0,2.927-1.6v7.628H9.782Z" fill="#4a4e3c"/>
      <path id="Path_1018571" data-name="Path 1018571" d="M39.782,13H31V24.71h8.782Zm-2.927,8.782H33.927V15.927h2.927Z" transform="translate(13.912 5.565)" fill="#4a4e3c"/>
      <path id="Path_1018572" data-name="Path 1018572" d="M39.782,23H31V34.71h8.782Zm-2.927,8.782H33.927V25.927h2.927Z" transform="translate(13.912 10.202)" fill="#4a4e3c"/>
      <path id="Path_1018573" data-name="Path 1018573" d="M39.782,33H31V44.71h8.782Zm-2.927,8.782H33.927V35.927h2.927Z" transform="translate(13.912 14.84)" fill="#4a4e3c"/>
      <path id="Path_1018574" data-name="Path 1018574" d="M39.782,43H31V54.71h8.782Zm-2.927,8.782H33.927V45.927h2.927Z" transform="translate(13.912 19.477)" fill="#4a4e3c"/>
      <path id="Path_1018575" data-name="Path 1018575" d="M47.782,13H39V24.71h8.782Zm-2.927,8.782H41.927V15.927h2.927Z" transform="translate(17.622 5.565)" fill="#4a4e3c"/>
      <path id="Path_1018576" data-name="Path 1018576" d="M15,19h2.927v2.927H15Z" transform="translate(6.492 8.347)" fill="#4a4e3c"/>
      <path id="Path_1018577" data-name="Path 1018577" d="M19,19h2.927v2.927H19Z" transform="translate(8.347 8.347)" fill="#4a4e3c"/>
      <path id="Path_1018578" data-name="Path 1018578" d="M23,19h2.927v2.927H23Z" transform="translate(10.202 8.347)" fill="#4a4e3c"/>
      <path id="Path_1018579" data-name="Path 1018579" d="M15,23h2.927v2.927H15Z" transform="translate(6.492 10.202)" fill="#4a4e3c"/>
      <path id="Path_1018580" data-name="Path 1018580" d="M19,23h2.927v2.927H19Z" transform="translate(8.347 10.202)" fill="#4a4e3c"/>
      <path id="Path_1018581" data-name="Path 1018581" d="M23,23h2.927v2.927H23Z" transform="translate(10.202 10.202)" fill="#4a4e3c"/>
      <path id="Path_1018582" data-name="Path 1018582" d="M19,27h2.927v2.927H19Z" transform="translate(8.347 12.057)" fill="#4a4e3c"/>
      <path id="Path_1018583" data-name="Path 1018583" d="M15,27h2.927v2.927H15Z" transform="translate(6.492 12.057)" fill="#4a4e3c"/>
      <path id="Path_1018584" data-name="Path 1018584" d="M23,27h2.927v2.927H23Z" transform="translate(10.202 12.057)" fill="#4a4e3c"/>
      <path id="Path_1018585" data-name="Path 1018585" d="M23,31h2.927v2.927H23Z" transform="translate(10.202 13.912)" fill="#4a4e3c"/>
    </g>
  </g>
</svg>
