<svg xmlns="http://www.w3.org/2000/svg" xmlns:xlink="http://www.w3.org/1999/xlink" width="34" height="34" viewBox="0 0 34 34">
  <defs>
    <clipPath id="clip-path">
      <rect id="Rectangle_409211" data-name="Rectangle 409211" width="20.752" height="16.455" transform="translate(0 0)" fill="#12263f"/>
    </clipPath>
  </defs>
  <g id="audio" transform="translate(-603.746 -3677)">
    <circle id="Ellipse_11831" data-name="Ellipse 11831" cx="17" cy="17" r="17" transform="translate(603.746 3677)" fill="#ff945d"/>
    <g id="Group_1119551" data-name="Group 1119551" transform="translate(611.074 3686)" clip-path="url(#clip-path)">
      <path id="Path_925069" data-name="Path 925069" d="M61.919,7.49a14.521,14.521,0,0,1,0,1.738,12.737,12.737,0,0,1-2.173,6.011c-.491.7-1.222,1.781-2.133.862-.772-.779.011-1.408.435-2.034a10.025,10.025,0,0,0-.033-11.545c-.421-.6-1.26-1.215-.736-2A1.054,1.054,0,0,1,58.473.043c.37.109.882.822,1.118,1.145a12.546,12.546,0,0,1,2.328,6.3" transform="translate(-41.194 0)" fill="#12263f"/>
      <path id="Path_925070" data-name="Path 925070" d="M10.084,4.007a1.078,1.078,0,0,1,.3.651V17.434a.943.943,0,0,1-1.31.823c-1.82-1.4-3.549-2.919-5.329-4.371-.914-.132-1.976.072-2.879-.031a.96.96,0,0,1-.828-.829c.081-1.255-.108-2.643,0-3.882A.944.944,0,0,1,.8,8.255c.883-.152,2.04.093,2.952-.039l5.1-4.241a1.014,1.014,0,0,1,1.236.031" transform="translate(0 -2.728)" fill="#12263f"/>
      <path id="Path_925071" data-name="Path 925071" d="M46.582,11.566c.514,0,.791.407,1.057.78a7.612,7.612,0,0,1,.54,7.761c-.4.779-1.141,2.05-2.128,1.144-.833-.765-.044-1.413.309-2.114a5.539,5.539,0,0,0-.162-5.229c-.225-.386-.7-.826-.695-1.284a1.171,1.171,0,0,1,1.079-1.058" transform="translate(-32.82 -8.346)" fill="#12263f"/>
    </g>
  </g>
</svg>
