<svg xmlns="http://www.w3.org/2000/svg" width="128" height="128" viewBox="0 0 128 128">
  <g id="img14" transform="translate(-72.746 -7992)">
    <g id="Ellipse_13628" data-name="Ellipse 13628" transform="translate(72.746 7992)" fill="#fef6ff" stroke="#9c3413" stroke-width="6">
      <circle cx="64" cy="64" r="64" stroke="none"/>
      <circle cx="64" cy="64" r="61" fill="none"/>
    </g>
    <g id="Group_1197701" data-name="Group 1197701" transform="translate(105.21 8024.462)">
      <path id="Path_1020333" data-name="Path 1020333" d="M53.353,52.994V20.841L42.513,10H12.464A2.464,2.464,0,0,0,10,12.464V63.219a2.464,2.464,0,0,0,2.464,2.464H50.89a2.464,2.464,0,0,0,2.464-2.464Zm0,0" transform="translate(-8.769 -8.768)" fill="#fff"/>
      <path id="Path_1020334" data-name="Path 1020334" d="M284.759,20.841,273.918,10v8.546a2.294,2.294,0,0,0,2.294,2.294Zm0,0" transform="translate(-240.174 -8.768)" fill="#ffd89e"/>
      <path id="Path_1020335" data-name="Path 1020335" d="M291.8,238l13.8,4.308V253.83a17,17,0,0,1-13.8,16.693A17,17,0,0,1,278,253.83V242.308L291.8,238" transform="translate(-243.753 -208.68)" fill="#79b2ff"/>
      <path id="Path_1020336" data-name="Path 1020336" d="M318,282.675v7.9a12.086,12.086,0,0,0,8.87,11.637,12.086,12.086,0,0,0,8.87-11.637v-7.9l-8.87-2.769Zm0,0" transform="translate(-278.826 -245.424)" fill="#fff"/>
      <path id="Path_1020337" data-name="Path 1020337" d="M142.781,112.916h-4.928v-4.928H131.94v4.928h-4.928v5.913h4.928v4.928h5.913v-4.928h4.928Zm0,0" transform="translate(-111.366 -94.685)" fill="#f5737f"/>
      <path id="Path_1020338" data-name="Path 1020338" d="M77.027,388.484a1.232,1.232,0,1,0,0-2.464H62.244a1.232,1.232,0,1,0,0,2.464Zm0,0" transform="translate(-53.496 -338.465)"/>
      <path id="Path_1020339" data-name="Path 1020339" d="M62.209,32.451l-13.768-4.3a1.229,1.229,0,0,0-.4-.066h0a1.239,1.239,0,0,0-.4.065l-1.832.572V12.073a1.228,1.228,0,0,0-.361-.871L34.615.361A1.226,1.226,0,0,0,33.744,0H3.695A3.7,3.7,0,0,0,0,3.7V23.53a1.232,1.232,0,1,0,2.464,0V3.7A1.233,1.233,0,0,1,3.695,2.464H32.512V9.778A3.53,3.53,0,0,0,36.038,13.3h7.315V29.494l-9.473,2.958a1.232,1.232,0,0,0-.865,1.176v.125H8.747a1.232,1.232,0,1,0,0,2.464H33.015v4.437H8.747a1.232,1.232,0,0,0,0,2.464H33.015V45.15a18.178,18.178,0,0,0,3.36,10.533H3.7a1.233,1.233,0,0,1-1.232-1.232V34.617a1.232,1.232,0,1,0-2.464,0V54.451a3.7,3.7,0,0,0,3.7,3.7H38.471a18.173,18.173,0,0,0,9.341,4.906,1.226,1.226,0,0,0,.464,0,18.25,18.25,0,0,0,14.8-17.9V33.628a1.232,1.232,0,0,0-.865-1.176ZM36.038,10.841a1.063,1.063,0,0,1-1.062-1.063V4.206l6.635,6.635ZM60.61,45.15A15.784,15.784,0,0,1,48.044,60.586,15.784,15.784,0,0,1,35.479,45.15V34.534L48.044,30.61,60.61,34.534Zm0,0"/>
      <path id="Path_1020340" data-name="Path 1020340" d="M317.735,269.961l-8.87,2.769a1.232,1.232,0,0,0-.865,1.176v7.9a13.332,13.332,0,0,0,9.775,12.825,1.237,1.237,0,0,0,.653,0A13.332,13.332,0,0,0,328.2,281.8v-7.9a1.232,1.232,0,0,0-.865-1.176l-8.87-2.769A1.233,1.233,0,0,0,317.735,269.961Zm8.005,4.851V281.8a10.864,10.864,0,0,1-7.638,10.354,10.864,10.864,0,0,1-7.638-10.354v-6.992l7.638-2.384Zm0,0" transform="translate(-270.058 -236.655)"/>
      <path id="Path_1020341" data-name="Path 1020341" d="M350.1,340.068a1.232,1.232,0,1,0-1.742,1.742l2.838,2.839a1.231,1.231,0,0,0,1.742,0l5.046-5.046a1.232,1.232,0,0,0-1.742-1.742l-4.175,4.175Zm0,0" transform="translate(-305.13 -295.922)"/>
      <path id="Path_1020342" data-name="Path 1020342" d="M129.085,97.988h-5.913a1.232,1.232,0,0,0-1.232,1.232v3.7h-3.7a1.232,1.232,0,0,0-1.232,1.232v5.913a1.232,1.232,0,0,0,1.232,1.232h3.7v3.7a1.232,1.232,0,0,0,1.232,1.232h5.913a1.232,1.232,0,0,0,1.232-1.232v-3.7h3.7a1.232,1.232,0,0,0,1.232-1.232v-5.913a1.232,1.232,0,0,0-1.232-1.232h-3.7v-3.7A1.232,1.232,0,0,0,129.085,97.988Zm3.7,7.392v3.449h-3.7a1.232,1.232,0,0,0-1.232,1.232v3.7H124.4v-3.7a1.232,1.232,0,0,0-1.232-1.232h-3.7V105.38h3.7a1.232,1.232,0,0,0,1.232-1.232v-3.7h3.449v3.7a1.232,1.232,0,0,0,1.232,1.232Zm0,0" transform="translate(-102.598 -85.917)"/>
      <path id="Path_1020343" data-name="Path 1020343" d="M1.232,228.464a1.232,1.232,0,1,0-.871-2.1,1.232,1.232,0,0,0,.871,2.1Zm0,0" transform="translate(-0.001 -198.159)"/>
    </g>
  </g>
</svg>
