<svg xmlns="http://www.w3.org/2000/svg" width="128" height="128" viewBox="0 0 128 128">
  <g id="img19_1" transform="translate(-383.746 -8400)">
    <path id="Path_997401" data-name="Path 997401" d="M64,0A64,64,0,1,1,0,64,64,64,0,0,1,64,0Z" transform="translate(383.746 8400)" fill="#b9c296"/>
    <g id="Page-1" transform="translate(413.024 8429.144)">
      <g id="_001---House-Clean" data-name="001---House-Clean" transform="translate(0 0.322)">
        <path id="Shape" d="M3.472,69.391H9.259a3.455,3.455,0,0,0,2.569-1.157H40.855a9.25,9.25,0,0,0,4.815-1.349l21.689-13.2a4.318,4.318,0,0,0,1.3-6.184,1.108,1.108,0,0,0-.081-.116,4.344,4.344,0,0,0-4.831-1.513l-8.191,2.723V24.254h1.516a2.315,2.315,0,0,0,1.521-4.07l-3.037-2.621V4.579a2.315,2.315,0,0,0-2.315-2.315H47.452a2.315,2.315,0,0,0-2.315,2.315V8.569L36.225.875a2.324,2.324,0,0,0-3.009,0L10.848,20.187a2.315,2.315,0,0,0,1.524,4.067h1.516v16.2h-1.37a3.472,3.472,0,0,0-3.259-2.315H3.472A3.472,3.472,0,0,0,0,41.614v24.3a3.472,3.472,0,0,0,3.472,3.472ZM64.465,48.06a2.03,2.03,0,0,1,2.2.637.961.961,0,0,0,.057.083,2,2,0,0,1-.568,2.922L44.466,64.907a6.944,6.944,0,0,1-3.611,1.012H12.731V42.772h2.083a9.436,9.436,0,0,1,5.876,2.061A11.766,11.766,0,0,0,28.008,47.4h6.053a4.651,4.651,0,0,1,3.954,2.221c.013.029.027.056.038.076a2.984,2.984,0,0,1-.081,3.489H30.925A11.6,11.6,0,0,0,24.5,55.132l-.845.567a1.158,1.158,0,1,0,1.292,1.921l.838-.562A9.27,9.27,0,0,1,30.925,55.5H41.214a5.684,5.684,0,0,0,1.836-.3ZM42.822,52.841l-.514.171a3.393,3.393,0,0,1-1.095.176h-.631a5.57,5.57,0,0,0-.5-4.61,1.057,1.057,0,0,0-.062-.116,6.977,6.977,0,0,0-5.955-3.376H28.008a9.305,9.305,0,0,1-1.389-.116v-2.2a8.1,8.1,0,1,1,16.2,0ZM47.452,4.579h5.787V15.564l-5.787-5ZM18.518,24.254a1.157,1.157,0,1,0,0-2.315H12.364L34.721,2.631l10.763,9.294L57.069,21.939h-15.4a1.157,1.157,0,1,0,0,2.315H53.239V49.369l-8.1,2.7v-9.3a10.416,10.416,0,1,0-20.832,0v1.546a9.335,9.335,0,0,1-2.17-1.293A11.767,11.767,0,0,0,16.2,40.551v-16.3Zm-16.2,17.36a1.157,1.157,0,0,1,1.157-1.157H9.259a1.157,1.157,0,0,1,1.157,1.157v24.3a1.157,1.157,0,0,1-1.157,1.157H3.472a1.157,1.157,0,0,1-1.157-1.157Z" transform="translate(0 -0.322)" fill="#4a4e3c"/>
        <path id="Shape-2" data-name="Shape" d="M12.157,5.629a1.157,1.157,0,0,0,1.157-1.157V2.157a1.157,1.157,0,0,0-2.315,0V4.472A1.157,1.157,0,0,0,12.157,5.629Z" transform="translate(1.731 -0.216)" fill="#4a4e3c"/>
        <path id="Shape-3" data-name="Shape" d="M12.157,7A1.157,1.157,0,0,0,11,8.157v2.315a1.157,1.157,0,0,0,2.315,0V8.157A1.157,1.157,0,0,0,12.157,7Z" transform="translate(1.731 0.728)" fill="#4a4e3c"/>
        <path id="Shape-4" data-name="Shape" d="M14.157,7.315h2.315a1.157,1.157,0,1,0,0-2.315H14.157a1.157,1.157,0,0,0,0,2.315Z" transform="translate(2.046 0.414)" fill="#4a4e3c"/>
        <path id="Shape-5" data-name="Shape" d="M8.157,7.315h2.315a1.157,1.157,0,0,0,0-2.315H8.157a1.157,1.157,0,1,0,0,2.315Z" transform="translate(1.102 0.414)" fill="#4a4e3c"/>
        <path id="Shape-6" data-name="Shape" d="M55.657,30.049a1.157,1.157,0,0,0,.818-.339l1.736-1.736a1.157,1.157,0,0,0-1.637-1.637l-1.736,1.736a1.157,1.157,0,0,0,.818,1.976Z" transform="translate(8.576 3.72)" fill="#4a4e3c"/>
        <path id="Shape-7" data-name="Shape" d="M52.077,30.837l-1.736,1.736a1.157,1.157,0,1,0,1.637,1.637l1.736-1.736a1.157,1.157,0,0,0-1.637-1.637Z" transform="translate(7.866 4.428)" fill="#4a4e3c"/>
        <path id="Shape-8" data-name="Shape" d="M56.573,34.21a1.157,1.157,0,0,0,1.637-1.637l-1.736-1.736a1.157,1.157,0,0,0-1.637,1.637Z" transform="translate(8.578 4.428)" fill="#4a4e3c"/>
        <path id="Shape-9" data-name="Shape" d="M50.339,26.339a1.157,1.157,0,0,0,0,1.637l1.736,1.736a1.157,1.157,0,0,0,1.637-1.637l-1.736-1.736a1.157,1.157,0,0,0-1.637,0Z" transform="translate(7.868 3.718)" fill="#4a4e3c"/>
        <path id="Shape-10" data-name="Shape" d="M20.157,22.259a5.794,5.794,0,0,1,5.787,5.787,1.157,1.157,0,1,0,2.315,0,5.794,5.794,0,0,1,5.787-5.787,1.157,1.157,0,1,0,0-2.315,5.794,5.794,0,0,1-5.787-5.787,1.157,1.157,0,0,0-2.315,0,5.794,5.794,0,0,1-5.787,5.787,1.157,1.157,0,1,0,0,2.315ZM27.1,18.324A8.178,8.178,0,0,0,29.879,21.1,8.178,8.178,0,0,0,27.1,23.879,8.178,8.178,0,0,0,24.324,21.1,8.178,8.178,0,0,0,27.1,18.324Z" transform="translate(2.99 1.673)" fill="#4a4e3c"/>
      </g>
    </g>
  </g>
</svg>
