<svg xmlns="http://www.w3.org/2000/svg" width="128" height="128" viewBox="0 0 128 128">
  <g id="img13" transform="translate(-72.746 -7992)">
    <g id="Ellipse_13628" data-name="Ellipse 13628" transform="translate(72.746 7992)" fill="#fef6ff" stroke="#9c3413" stroke-width="6">
      <circle cx="64" cy="64" r="64" stroke="none"/>
      <circle cx="64" cy="64" r="61" fill="none"/>
    </g>
    <g id="Layer_24" data-name="Layer 24" transform="translate(104.969 8024.01)">
      <path id="Path_1020319" data-name="Path 1020319" d="M21.951,16h3A19.91,19.91,0,0,1,37.02,20.051l5.926,7.212A19.92,19.92,0,0,1,44.951,36h0l.021,4a10.074,10.074,0,0,0,2.721,6.832l-18.809.1a7.912,7.912,0,0,0,3.089-6.313L31.951,36h0a6,6,0,0,0-6-6h-4Z" fill="#8adef9"/>
      <path id="Path_1020320" data-name="Path 1020320" d="M63,62H62a8.478,8.478,0,0,1-3.789-.894l-.422-.212A8.478,8.478,0,0,0,54,60h0a8.478,8.478,0,0,0-3.789.894l-.422.212A8.478,8.478,0,0,1,46,62h0a8.478,8.478,0,0,1-3.789-.894l-.422-.212A8.478,8.478,0,0,0,38,60h0a8.478,8.478,0,0,0-3.789.894l-.422.212A8.478,8.478,0,0,1,30,62h0a8.478,8.478,0,0,1-3.789-.894l-.422-.212A8.478,8.478,0,0,0,22,60h0a8.478,8.478,0,0,0-3.789.894l-.422.212A8.478,8.478,0,0,1,14,62h0a8.478,8.478,0,0,1-3.789-.894l-.422-.212A8.478,8.478,0,0,0,6,60H6a8.478,8.478,0,0,0-3.789.894L1,61.5v-15l1.211-.606A8.478,8.478,0,0,1,6,45H6a8.478,8.478,0,0,1,3.789.894l.422.212A8.478,8.478,0,0,0,14,47h0a8.478,8.478,0,0,0,3.789-.894l.422-.212A8.478,8.478,0,0,1,22,45h0a8.478,8.478,0,0,1,3.789.894l.422.212A8.478,8.478,0,0,0,30,47h0a8.478,8.478,0,0,0,3.789-.894l.422-.212A8.478,8.478,0,0,1,38,45h0a8.478,8.478,0,0,1,3.789.894l.422.212A8.478,8.478,0,0,0,46,47h0a8.478,8.478,0,0,0,3.789-.894l.422-.212A8.478,8.478,0,0,1,54,45h0a8.478,8.478,0,0,1,3.789.894l.422.212A8.478,8.478,0,0,0,62,47h1" fill="#8adef9"/>
      <path id="Path_1020321" data-name="Path 1020321" d="M63,55H62a9.527,9.527,0,0,1-4.236-1l-.422-.211a7.6,7.6,0,0,0-6.684,0L50.236,54a9.63,9.63,0,0,1-8.472,0l-.422-.211a7.6,7.6,0,0,0-6.684,0L34.236,54a9.63,9.63,0,0,1-8.472,0l-.422-.211a7.6,7.6,0,0,0-6.684,0L18.236,54a9.63,9.63,0,0,1-8.472,0l-.422-.211a7.6,7.6,0,0,0-6.684,0L1.447,54.4.553,52.61,1.764,52a9.63,9.63,0,0,1,8.472,0l.422.211a7.6,7.6,0,0,0,6.684,0L17.764,52a9.63,9.63,0,0,1,8.472,0l.422.211a7.6,7.6,0,0,0,6.684,0L33.764,52a9.63,9.63,0,0,1,8.472,0l.422.211a7.6,7.6,0,0,0,6.684,0L49.764,52a9.63,9.63,0,0,1,8.472,0l.422.211A7.5,7.5,0,0,0,62,53h1Z" fill="#43b6e5"/>
      <path id="Path_1020322" data-name="Path 1020322" d="M63,63H62a9.527,9.527,0,0,1-4.236-1l-.422-.211a7.6,7.6,0,0,0-6.684,0L50.236,62a9.63,9.63,0,0,1-8.472,0l-.422-.211a7.6,7.6,0,0,0-6.684,0L34.236,62a9.63,9.63,0,0,1-8.472,0l-.422-.211a7.6,7.6,0,0,0-6.684,0L18.236,62a9.63,9.63,0,0,1-8.472,0l-.422-.211a7.6,7.6,0,0,0-6.684,0L1.447,62.4.553,60.61,1.764,60a9.63,9.63,0,0,1,8.472,0l.422.211a7.6,7.6,0,0,0,6.684,0L17.764,60a9.63,9.63,0,0,1,8.472,0l.422.211a7.6,7.6,0,0,0,6.684,0L33.764,60a9.63,9.63,0,0,1,8.472,0l.422.211a7.6,7.6,0,0,0,6.684,0L49.764,60a9.63,9.63,0,0,1,8.472,0l.422.211A7.5,7.5,0,0,0,62,61h1Z" fill="#43b6e5"/>
      <path id="Path_1020323" data-name="Path 1020323" d="M63,48H62a9.527,9.527,0,0,1-4.236-1l-.422-.211a7.6,7.6,0,0,0-6.684,0L50.236,47a9.63,9.63,0,0,1-8.472,0l-.422-.211a7.6,7.6,0,0,0-6.684,0L34.236,47a9.63,9.63,0,0,1-8.472,0l-.422-.211a7.6,7.6,0,0,0-6.684,0L18.236,47a9.63,9.63,0,0,1-8.472,0l-.422-.211a7.6,7.6,0,0,0-6.684,0L1.447,47.4.553,45.61,1.764,45a9.63,9.63,0,0,1,8.472,0l.422.211a7.6,7.6,0,0,0,6.684,0L17.764,45a9.63,9.63,0,0,1,8.472,0l.422.211a7.6,7.6,0,0,0,6.684,0L33.764,45a9.63,9.63,0,0,1,8.472,0l.422.211a7.6,7.6,0,0,0,6.684,0L49.764,45a9.63,9.63,0,0,1,8.472,0l.422.211A7.505,7.505,0,0,0,62,46h1Z" fill="#43b6e5"/>
      <rect id="Rectangle_461849" data-name="Rectangle 461849" width="10" height="24" transform="translate(11.951 11)" fill="#785349"/>
      <rect id="Rectangle_461850" data-name="Rectangle 461850" width="10.951" height="18" transform="translate(1 14)" fill="#785349"/>
      <path id="Path_1020324" data-name="Path 1020324" d="M15,24.881a7.114,7.114,0,0,0,6.951,7.11V11H15Z" fill="#916658"/>
      <rect id="Rectangle_461851" data-name="Rectangle 461851" width="10.951" height="15" transform="translate(1 17)" fill="#916658"/>
      <path id="Path_1020325" data-name="Path 1020325" d="M49,2A13,13,0,0,0,38.237,22.29L36,29l8-2A13,13,0,1,0,49,2Z" fill="#0059be"/>
      <path id="Path_1020326" data-name="Path 1020326" d="M59.133,23.133A12.992,12.992,0,0,0,40.867,4.867,12.992,12.992,0,0,0,59.133,23.133Z" fill="#006bdb"/>
      <rect id="Rectangle_461852" data-name="Rectangle 461852" width="2" height="2" transform="translate(54 19)" fill="#719301"/>
      <rect id="Rectangle_461853" data-name="Rectangle 461853" width="2" height="2" transform="translate(40 10)" fill="#719301"/>
      <rect id="Rectangle_461854" data-name="Rectangle 461854" width="2" height="2" transform="translate(58 13)" fill="#719301"/>
      <rect id="Rectangle_461855" data-name="Rectangle 461855" width="2" height="3.88" transform="translate(45 14)" fill="#719301"/>
      <rect id="Rectangle_461856" data-name="Rectangle 461856" width="4" height="2" transform="translate(40 19)" fill="#719301"/>
      <rect id="Rectangle_461857" data-name="Rectangle 461857" width="2" height="4" transform="translate(45 22)" fill="#719301"/>
      <rect id="Rectangle_461858" data-name="Rectangle 461858" width="4.104" height="2" transform="translate(47.896 19)" fill="#719301"/>
      <rect id="Rectangle_461859" data-name="Rectangle 461859" width="3.536" height="2" transform="translate(46.793 17.793) rotate(-45)" fill="#8dbf00"/>
      <rect id="Rectangle_461860" data-name="Rectangle 461860" width="2" height="3.536" transform="translate(41.293 16.707) rotate(-45)" fill="#8dbf00"/>
      <rect id="Rectangle_461861" data-name="Rectangle 461861" width="3.536" height="2" transform="translate(41.293 23.293) rotate(-45)" fill="#8dbf00"/>
      <rect id="Rectangle_461862" data-name="Rectangle 461862" width="2" height="3.536" transform="translate(46.793 22.207) rotate(-45)" fill="#8dbf00"/>
      <circle id="Ellipse_15181" data-name="Ellipse 15181" cx="3" cy="3" r="3" transform="translate(43 17)" fill="#719301"/>
      <path id="Path_1020327" data-name="Path 1020327" d="M46,17a2.965,2.965,0,0,0-1.554.446A2.965,2.965,0,0,0,44,19a3,3,0,0,0,3,3,2.965,2.965,0,0,0,1.554-.446A2.965,2.965,0,0,0,49,20,3,3,0,0,0,46,17Z" fill="#82ab00"/>
      <rect id="Rectangle_461863" data-name="Rectangle 461863" width="2" height="3.88" transform="translate(51 3)" fill="#719301"/>
      <rect id="Rectangle_461864" data-name="Rectangle 461864" width="4" height="2" transform="translate(46 8)" fill="#719301"/>
      <rect id="Rectangle_461865" data-name="Rectangle 461865" width="2" height="4" transform="translate(51 11)" fill="#719301"/>
      <rect id="Rectangle_461866" data-name="Rectangle 461866" width="4.104" height="2" transform="translate(53.896 8)" fill="#719301"/>
      <rect id="Rectangle_461867" data-name="Rectangle 461867" width="3.536" height="2" transform="translate(52.792 6.793) rotate(-45)" fill="#8dbf00"/>
      <rect id="Rectangle_461868" data-name="Rectangle 461868" width="2" height="3.536" transform="translate(47.293 5.707) rotate(-45)" fill="#8dbf00"/>
      <rect id="Rectangle_461869" data-name="Rectangle 461869" width="3.536" height="2" transform="translate(47.292 12.293) rotate(-45)" fill="#8dbf00"/>
      <rect id="Rectangle_461870" data-name="Rectangle 461870" width="2" height="3.536" transform="translate(52.793 11.207) rotate(-45)" fill="#8dbf00"/>
      <circle id="Ellipse_15182" data-name="Ellipse 15182" cx="3" cy="3" r="3" transform="translate(49 6)" fill="#719301"/>
      <path id="Path_1020328" data-name="Path 1020328" d="M52,6a2.965,2.965,0,0,0-1.554.446A2.965,2.965,0,0,0,50,8a3,3,0,0,0,3,3,2.965,2.965,0,0,0,1.554-.446A2.965,2.965,0,0,0,55,9,3,3,0,0,0,52,6Z" fill="#82ab00"/>
      <path id="Path_1020329" data-name="Path 1020329" d="M58.658,60.211,58.236,60a9.63,9.63,0,0,0-8.472,0l-.422.211a7.6,7.6,0,0,1-6.684,0L42.236,60a9.63,9.63,0,0,0-8.472,0l-.422.211a7.6,7.6,0,0,1-6.684,0L26.236,60a9.63,9.63,0,0,0-8.472,0l-.422.211a7.6,7.6,0,0,1-6.684,0L10.236,60a9.63,9.63,0,0,0-8.472,0l-1.211.6.894,1.79,1.211-.606a7.6,7.6,0,0,1,6.684,0L9.764,62a9.63,9.63,0,0,0,8.472,0l.422-.211a7.6,7.6,0,0,1,6.684,0l.422.211a9.63,9.63,0,0,0,8.472,0l.422-.211a7.6,7.6,0,0,1,6.684,0l.422.211a9.63,9.63,0,0,0,8.472,0l.422-.211a7.6,7.6,0,0,1,6.684,0l.422.211A9.527,9.527,0,0,0,62,63h1V61H62a7.5,7.5,0,0,1-3.342-.789Z"/>
      <path id="Path_1020330" data-name="Path 1020330" d="M58.658,52.211,58.236,52a9.63,9.63,0,0,0-8.472,0l-.422.211a7.6,7.6,0,0,1-6.684,0L42.236,52a9.63,9.63,0,0,0-8.472,0l-.422.211a7.6,7.6,0,0,1-6.684,0L26.236,52a9.63,9.63,0,0,0-8.472,0l-.422.211a7.6,7.6,0,0,1-6.684,0L10.236,52a9.63,9.63,0,0,0-8.472,0l-1.211.6.894,1.79,1.211-.606a7.6,7.6,0,0,1,6.684,0L9.764,54a9.63,9.63,0,0,0,8.472,0l.422-.211a7.6,7.6,0,0,1,6.684,0l.422.211a9.63,9.63,0,0,0,8.472,0l.422-.211a7.6,7.6,0,0,1,6.684,0l.422.211a9.63,9.63,0,0,0,8.472,0l.422-.211a7.6,7.6,0,0,1,6.684,0l.422.211A9.527,9.527,0,0,0,62,55h1V53H62a7.5,7.5,0,0,1-3.342-.789Z"/>
      <rect id="Rectangle_461871" data-name="Rectangle 461871" width="2" height="7" transform="translate(40 36)"/>
      <rect id="Rectangle_461872" data-name="Rectangle 461872" width="2" height="2" transform="translate(40 32)"/>
      <path id="Path_1020331" data-name="Path 1020331" d="M42.567,22.019l-1.274,1.274,1.414,1.414,1.274-1.274A3.915,3.915,0,0,0,45,23.858V26h2V23.858a3.915,3.915,0,0,0,1.019-.425l1.274,1.274,1.414-1.414-1.274-1.274A3.915,3.915,0,0,0,49.858,21H52V19H49.858a3.915,3.915,0,0,0-.425-1.019l1.274-1.274-1.414-1.414-1.274,1.274A3.915,3.915,0,0,0,47,16.142V14H45v2.142a3.915,3.915,0,0,0-1.019.425l-1.274-1.274-1.414,1.414,1.274,1.274A3.915,3.915,0,0,0,42.142,19H40v2h2.142a3.915,3.915,0,0,0,.425,1.019ZM46,18a2,2,0,1,1-2,2A2,2,0,0,1,46,18Z"/>
      <rect id="Rectangle_461873" data-name="Rectangle 461873" width="2" height="2" transform="translate(54 19)"/>
      <rect id="Rectangle_461874" data-name="Rectangle 461874" width="2" height="2" transform="translate(40 10)"/>
      <rect id="Rectangle_461875" data-name="Rectangle 461875" width="2" height="2" transform="translate(58 13)"/>
      <path id="Path_1020332" data-name="Path 1020332" d="M63,15a14,14,0,1,0-27.729,2.722A20.811,20.811,0,0,0,24.95,15h-2V11a1,1,0,0,0-1-1h-10a1,1,0,0,0-1,1v2H1v2h9.95V31H1v2h9.95v2a1,1,0,0,0,1,1h10a1,1,0,0,0,1-1V31h3a5.007,5.007,0,0,1,5,5.005l.024,4.613A6.954,6.954,0,0,1,28.6,45.847a7.333,7.333,0,0,1-1.947-.636L26.236,45a9.63,9.63,0,0,0-8.472,0l-.422.211a7.6,7.6,0,0,1-6.684,0L10.236,45a9.63,9.63,0,0,0-8.472,0l-1.211.6.894,1.79,1.211-.606a7.6,7.6,0,0,1,6.684,0L9.764,47a9.63,9.63,0,0,0,8.472,0l.422-.211a7.6,7.6,0,0,1,6.684,0l.422.211a9.63,9.63,0,0,0,8.472,0l.422-.211a7.6,7.6,0,0,1,6.684,0l.422.211a9.63,9.63,0,0,0,8.472,0l.422-.211a7.6,7.6,0,0,1,6.684,0l.422.211A9.527,9.527,0,0,0,62,48h1V46H62a7.505,7.505,0,0,1-3.342-.789L58.236,45a9.63,9.63,0,0,0-8.472,0l-.422.211a7.2,7.2,0,0,1-1.3.486,9.029,9.029,0,0,1-2.069-5.706L45.95,36a20.809,20.809,0,0,0-1.491-7.772A13.874,13.874,0,0,0,49,29,14.015,14.015,0,0,0,63,15ZM20.95,34h-8V12h8ZM52,11a2,2,0,1,1,2-2A2,2,0,0,1,52,11Zm2.019-5.433A3.915,3.915,0,0,0,53,5.142V3.7a11.97,11.97,0,0,1,1.977.909ZM49,3a11.986,11.986,0,0,1,2,.181V5.142a3.915,3.915,0,0,0-1.019.425L48.707,4.293,47.293,5.707l1.274,1.274A3.915,3.915,0,0,0,48.142,8H46v2h2.142a3.915,3.915,0,0,0,.425,1.019l-1.274,1.274,1.414,1.414,1.274-1.274A3.915,3.915,0,0,0,51,12.858V15h2V12.858a3.915,3.915,0,0,0,1.019-.425l1.274,1.274,1.414-1.414-1.274-1.274A3.915,3.915,0,0,0,55.858,10H58V8H55.858a3.915,3.915,0,0,0-.425-1.019l1.218-1.218A12,12,0,0,1,44.384,26.077a1,1,0,0,0-.627-.047l-6.233,1.558,1.661-4.982a1,1,0,0,0-.122-.877A12,12,0,0,1,49,3ZM42.236,45a9.63,9.63,0,0,0-8.472,0l-.422.211a7.334,7.334,0,0,1-2.077.658,8.963,8.963,0,0,0,1.709-5.261L32.95,36a7.008,7.008,0,0,0-7-7h-3V17h2a18.825,18.825,0,0,1,11.263,3.706,13.963,13.963,0,0,0,.922,1.726l-2.083,6.252a1,1,0,0,0,1.19,1.286l6.137-1.534a18.822,18.822,0,0,1,1.571,7.57l.022,4a11.031,11.031,0,0,0,1.789,5.97,7.455,7.455,0,0,1-3.1-.761Z"/>
    </g>
  </g>
</svg>
