<svg xmlns="http://www.w3.org/2000/svg" width="128" height="128" viewBox="0 0 128 128">
  <g id="img15" transform="translate(-72.746 -7992)">
    <g id="Ellipse_13628" data-name="Ellipse 13628" transform="translate(72.746 7992)" fill="#fef6ff" stroke="#9c3413" stroke-width="6">
      <circle cx="64" cy="64" r="64" stroke="none"/>
      <circle cx="64" cy="64" r="61" fill="none"/>
    </g>
    <g id="Group_1197709" data-name="Group 1197709" transform="translate(91.196 8022.589)">
      <g id="Group_1197707" data-name="Group 1197707" transform="translate(14.941 1.043)">
        <path id="Path_1020344" data-name="Path 1020344" d="M304.268,454.311c-.037,0-3.57-3.216-3.812-2.974s-12.274,0-12.274,0l-3.735,2.945v2.7a1.243,1.243,0,0,0,1.243,1.243h17.372a1.243,1.243,0,0,0,1.243-1.243v-2.679Z" transform="translate(-250.105 -393.429)" fill="#62dbfb"/>
        <circle id="Ellipse_15183" data-name="Ellipse 15183" cx="21.134" cy="21.134" r="21.134" transform="translate(9.409)" fill="#f9f7f8"/>
        <path id="Path_1020345" data-name="Path 1020345" d="M159.54,115.37l11-12.068a7.73,7.73,0,0,0-.248-10.673l-.025-.026a7.731,7.731,0,0,0-10.931,0l-1.38,1.38-1.409-1.4a7.729,7.729,0,0,0-11.13,10.724l11.161,12.075a2.012,2.012,0,0,0,2.963-.01Z" transform="translate(-127.443 -79.576)" fill="#fd8087"/>
        <g id="Group_1197702" data-name="Group 1197702" transform="translate(15.919 10.754)">
          <path id="Path_1020346" data-name="Path 1020346" d="M151.1,103.311a7.731,7.731,0,0,1,2.835-12.436,7.73,7.73,0,0,0-8.516,12.436l11.161,12.075a2.012,2.012,0,0,0,2.963-.01l1.345-1.475Z" transform="translate(-143.362 -90.335)" fill="#fe646f"/>
        </g>
        <g id="XMLID_171_" transform="translate(0 17.272)">
          <g id="Group_1197703" data-name="Group 1197703" transform="translate(0)">
            <path id="Path_1020347" data-name="Path 1020347" d="M46.519,180l-.005.033a2.113,2.113,0,0,0-.377-.033H30.752a2.128,2.128,0,0,0-.379.033L30.368,180v-7.07L22.639,163.5a5.186,5.186,0,0,1-1.177-3.291V143.412a3.162,3.162,0,0,1,6.32-.168l.623,11.681.021.027a2.6,2.6,0,0,1,3.223.061l13.545,11.095a3.616,3.616,0,0,1,1.325,2.8Z" transform="translate(-21.462 -140.249)" fill="#ffcebf"/>
          </g>
          <path id="Path_1020348" data-name="Path 1020348" d="M33.34,172.677a6.2,6.2,0,0,0-1.4-3.929l-6.326-7.72a5.186,5.186,0,0,1-1.177-3.291V140.944a3.174,3.174,0,0,1,.072-.673,3.16,3.16,0,0,0-3.044,3.16v16.794a5.186,5.186,0,0,0,1.177,3.291l7.729,9.434v7.07l.005.033a2.128,2.128,0,0,1,.379-.033H33.34v-7.342Z" transform="translate(-21.462 -140.268)" fill="#ffb09e"/>
          <path id="Path_1020349" data-name="Path 1020349" d="M79.1,458.865l-3.629,2v2.745a1.173,1.173,0,0,0,1.173,1.173H94.157a1.173,1.173,0,0,0,1.173-1.173v-2.745l-2.057-2Z" transform="translate(-68.419 -417.258)" fill="#62dbfb"/>
          <g id="Group_1197704" data-name="Group 1197704" transform="translate(36.197)">
            <path id="Path_1020350" data-name="Path 1020350" d="M298.648,180l.005.033a2.113,2.113,0,0,1,.377-.033h15.384a2.127,2.127,0,0,1,.379.033L314.8,180v-7.07l7.729-9.434a5.186,5.186,0,0,0,1.177-3.291V143.412a3.162,3.162,0,0,0-6.32-.168l-.623,11.681-.021.027a2.6,2.6,0,0,0-3.223.061l-13.545,11.095a3.616,3.616,0,0,0-1.325,2.8Z" transform="translate(-298.648 -140.249)" fill="#ffcebf"/>
          </g>
          <path id="Path_1020351" data-name="Path 1020351" d="M319.364,154.073a1.3,1.3,0,0,0,.513-.966l.459-8.61a3.163,3.163,0,0,1,2.748-2.967,3.194,3.194,0,0,0-.305-.355,3.163,3.163,0,0,0-5.395,2.068l-.623,11.681-.021.027a2.6,2.6,0,0,0-3.223.061l-13.544,11.095a3.616,3.616,0,0,0-1.325,2.8V180l.005.033a2.115,2.115,0,0,1,.377-.033H301.6v-9.838a3.616,3.616,0,0,1,1.325-2.8l13.545-11.095Z" transform="translate(-262.451 -140.249)" fill="#ffb09e"/>
          <g id="Group_1197706" data-name="Group 1197706" transform="translate(7.053 37.661)">
            <g id="XMLID_460_">
              <g id="Group_1197705" data-name="Group 1197705">
                <path id="Path_1020352" data-name="Path 1020352" d="M304.02,430.886V434.6H284.162v-3.711a2.237,2.237,0,0,1,1.86-2.2,2.111,2.111,0,0,1,.377-.033h15.384a2.126,2.126,0,0,1,.379.033A2.236,2.236,0,0,1,304.02,430.886Z" transform="translate(-256.91 -428.649)" fill="#99e6fc"/>
                <path id="Path_1020353" data-name="Path 1020353" d="M95.33,430.886V434.6H75.472v-3.711a2.236,2.236,0,0,1,1.858-2.2,2.126,2.126,0,0,1,.379-.033H93.093a2.112,2.112,0,0,1,.377.033,2.237,2.237,0,0,1,1.86,2.2Z" transform="translate(-75.472 -428.649)" fill="#99e6fc"/>
              </g>
            </g>
          </g>
        </g>
      </g>
      <g id="Group_1197708" data-name="Group 1197708" transform="translate(13.962)">
        <path id="Path_1020354" data-name="Path 1020354" d="M73,132.75a4.141,4.141,0,0,0-4.136,3.921l-.551,10.316a3.574,3.574,0,0,0-2.959.748l-.405.332c.147-.271.289-.545.425-.822a.979.979,0,1,0-1.761-.858,20.188,20.188,0,0,1-36.3,0,.979.979,0,1,0-1.761.858c.091.186.186.37.282.553l-.077-.063a3.572,3.572,0,0,0-2.959-.748l-.551-10.316a4.142,4.142,0,0,0-8.277.221v16.794a6.189,6.189,0,0,0,1.4,3.912l2.223,2.713a.979.979,0,1,0,1.515-1.242l-2.223-2.713a4.225,4.225,0,0,1-.954-2.67V136.892a2.183,2.183,0,0,1,4.363-.116l.6,11.26a3.588,3.588,0,0,0,.059,5.006l6.136,6.136a.979.979,0,1,0,1.385-1.385l-6.136-6.136a1.625,1.625,0,0,1,2.179-2.407l13.545,11.1a2.63,2.63,0,0,1,.967,2.042v8.024H24.827v-4a.98.98,0,0,0-.222-.621L21.744,162.3a.979.979,0,0,0-1.515,1.242l2.639,3.22v3.956a3.22,3.22,0,0,0-1.853,2.912v7.629a.979.979,0,0,0,1.959,0v-2.938h17.9v2.938a.979.979,0,0,0,1.959,0v-7.629a3.22,3.22,0,0,0-1.853-2.912v-8.328a4.582,4.582,0,0,0-1.684-3.557l-.01-.008a22.2,22.2,0,0,0,12.642-.091l-.121.1a4.582,4.582,0,0,0-1.684,3.557v8.328a3.22,3.22,0,0,0-1.853,2.912v7.629a.979.979,0,0,0,1.959,0v-2.938h17.9v2.938a.979.979,0,0,0,1.959,0v-7.629a3.22,3.22,0,0,0-1.853-2.912V166.76l7.508-9.162a6.188,6.188,0,0,0,1.4-3.912V136.892A4.147,4.147,0,0,0,73,132.75ZM22.973,176.36v-2.732a1.259,1.259,0,0,1,1.257-1.257H39.616a1.259,1.259,0,0,1,1.257,1.257v2.732Zm52.205-22.674a4.224,4.224,0,0,1-.954,2.67l-7.73,9.433a.979.979,0,0,0-.222.621v4H64.3a.979.979,0,1,0,0,1.959h2.569a1.259,1.259,0,0,1,1.257,1.257v2.732h-17.9v-2.732a1.259,1.259,0,0,1,1.257-1.257h8.642a.979.979,0,1,0,0-1.959H52.08v-8.024a2.63,2.63,0,0,1,.967-2.042l13.545-11.1a1.625,1.625,0,0,1,2.179,2.407l-6.136,6.136a.979.979,0,0,0,1.385,1.385l6.136-6.136a3.588,3.588,0,0,0,.059-5.006l.6-11.261a2.183,2.183,0,0,1,4.363.116Z" transform="translate(-13.962 -115.415)"/>
        <path id="Path_1020355" data-name="Path 1020355" d="M158.2,101.68A.979.979,0,0,0,159.646,103l5.033-5.522a8.7,8.7,0,0,0-.279-12.025l-.026-.026a8.719,8.719,0,0,0-12.317,0l-.689.689-.716-.713a8.709,8.709,0,0,0-12.541,12.082l11.162,12.075a3,3,0,0,0,2.2.961h.01a3,3,0,0,0,2.2-.976l3.115-3.418a.979.979,0,1,0-1.448-1.32l-3.115,3.418a1.032,1.032,0,0,1-1.521.005L139.551,96.157a6.75,6.75,0,0,1,9.72-9.365l1.408,1.4a.979.979,0,0,0,1.384,0l1.38-1.38a6.758,6.758,0,0,1,9.546,0l.026.026a6.741,6.741,0,0,1,.216,9.32Z" transform="translate(-119.88 -72.049)"/>
        <path id="Path_1020356" data-name="Path 1020356" d="M119.708,9.992a.98.98,0,0,0,1.374-.176,20.181,20.181,0,0,1,31.962,0,.979.979,0,0,0,1.55-1.2,22.14,22.14,0,0,0-35.063,0,.979.979,0,0,0,.176,1.374Z" transform="translate(-105.568)"/>
        <path id="Path_1020357" data-name="Path 1020357" d="M86.971,116.4a.98.98,0,0,0,.962-1.168,20.336,20.336,0,0,1-.381-3.914,20.086,20.086,0,0,1,1.4-7.407.979.979,0,1,0-1.822-.719,22.035,22.035,0,0,0-1.539,8.126,22.307,22.307,0,0,0,.417,4.292A.98.98,0,0,0,86.971,116.4Z" transform="translate(-76.24 -89.177)"/>
        <path id="Path_1020358" data-name="Path 1020358" d="M399.9,111.319a20.337,20.337,0,0,1-.381,3.914.979.979,0,1,0,1.922.378,22.31,22.31,0,0,0,.417-4.292,22.036,22.036,0,0,0-1.539-8.126.979.979,0,1,0-1.822.719A20.084,20.084,0,0,1,399.9,111.319Z" transform="translate(-348.22 -89.178)"/>
      </g>
    </g>
  </g>
</svg>
