<svg xmlns="http://www.w3.org/2000/svg" width="128" height="128" viewBox="0 0 128 128">
  <g id="img22_1" transform="translate(-383.746 -8400)">
    <circle id="Ellipse_13609" data-name="Ellipse 13609" cx="64" cy="64" r="64" transform="translate(383.746 8400)" fill="#b9c296"/>
    <g id="Group_1197724" data-name="Group 1197724" transform="translate(418.284 8368.514)">
      <g id="Group_1197719" data-name="Group 1197719" transform="translate(50.341 98.021)">
        <g id="Group_1197718" data-name="Group 1197718">
          <path id="Path_1020405" data-name="Path 1020405" d="M439.49,278.467a1.155,1.155,0,0,0-1.83,1.411,8.667,8.667,0,0,1,1.816,5.337,1.155,1.155,0,0,0,2.311,0A10.958,10.958,0,0,0,439.49,278.467Z" transform="translate(-437.419 -278.017)" fill="#4a4e3c"/>
        </g>
      </g>
      <g id="Group_1197721" data-name="Group 1197721" transform="translate(0 74.611)">
        <g id="Group_1197720" data-name="Group 1197720">
          <path id="Path_1020406" data-name="Path 1020406" d="M48.53,90.719a8.805,8.805,0,1,0-9.831,0,15.222,15.222,0,0,0-4.726,2.613,6.5,6.5,0,0,0-9.02,0,15.232,15.232,0,0,0-4.727-2.613,8.8,8.8,0,1,0-9.83,0A15.336,15.336,0,0,0,0,105.189c0,.01,0,.02,0,.03,0,1.774,1.008,4.392,5.81,6.79a44.256,44.256,0,0,0,13.6,3.715,79.5,79.5,0,0,0,20.109,0,44.252,44.252,0,0,0,13.6-3.715c4.8-2.4,5.81-5.016,5.81-6.79A15.336,15.336,0,0,0,48.53,90.719Zm-11.408-7.3a6.494,6.494,0,1,1,6.494,6.493A6.5,6.5,0,0,1,37.121,83.416ZM26.015,95.625a4.2,4.2,0,0,1,6.9,0h0a4.2,4.2,0,1,1-6.9,0ZM8.816,83.416a6.494,6.494,0,1,1,6.493,6.493A6.5,6.5,0,0,1,8.816,83.416ZM18.4,113.247a40.088,40.088,0,0,1-11.562-3.306c-2.914-1.455-4.522-3.127-4.531-4.709,0,0,0-.009,0-.014A13,13,0,0,1,23.594,95.2a6.505,6.505,0,0,0,1.716,7.821A11.075,11.075,0,0,0,18.4,113.247Zm19.806.309a77.53,77.53,0,0,1-17.5,0v-.284a8.748,8.748,0,0,1,17.5,0Zm13.871-3.615a40.078,40.078,0,0,1-11.561,3.306,11.075,11.075,0,0,0-6.907-10.223A6.5,6.5,0,0,0,35.331,95.2a13,13,0,0,1,21.283,10.016C56.614,106.8,55,108.482,52.082,109.941Z" transform="translate(0 -74.611)" fill="#4a4e3c"/>
        </g>
      </g>
      <g id="Group_1197723" data-name="Group 1197723" transform="translate(47.834 95.756)">
        <g id="Group_1197722" data-name="Group 1197722">
          <path id="Path_1020407" data-name="Path 1020407" d="M416.746,258.344a1.156,1.156,0,0,0,0,2.311A1.156,1.156,0,0,0,416.746,258.344Z" transform="translate(-415.63 -258.344)" fill="#4a4e3c"/>
        </g>
      </g>
    </g>
  </g>
</svg>
