<svg xmlns="http://www.w3.org/2000/svg" xmlns:xlink="http://www.w3.org/1999/xlink" width="396" height="188" viewBox="0 0 396 188">
  <defs>
    <clipPath id="clip-path">
      <rect id="Rectangle_461848" data-name="Rectangle 461848" width="224.67" height="179.58" fill="none"/>
    </clipPath>
    <clipPath id="clip-path-3">
      <rect id="Rectangle_461829" data-name="Rectangle 461829" width="38.765" height="18.637" fill="none"/>
    </clipPath>
    <clipPath id="clip-path-4">
      <rect id="Rectangle_461830" data-name="Rectangle 461830" width="42.513" height="20.439" fill="none"/>
    </clipPath>
    <clipPath id="clip-path-5">
      <rect id="Rectangle_461831" data-name="Rectangle 461831" width="38.766" height="18.636" fill="none"/>
    </clipPath>
    <clipPath id="clip-path-7">
      <rect id="Rectangle_461833" data-name="Rectangle 461833" width="49.702" height="23.894" fill="none"/>
    </clipPath>
    <clipPath id="clip-path-8">
      <rect id="Rectangle_461835" data-name="Rectangle 461835" width="6.7" height="5.071" fill="none"/>
    </clipPath>
    <clipPath id="clip-path-10">
      <rect id="Rectangle_461836" data-name="Rectangle 461836" width="3.636" height="0.986" fill="none"/>
    </clipPath>
    <clipPath id="clip-path-11">
      <rect id="Rectangle_461837" data-name="Rectangle 461837" width="3.507" height="1.286" fill="none"/>
    </clipPath>
    <clipPath id="clip-path-12">
      <rect id="Rectangle_461838" data-name="Rectangle 461838" width="3.506" height="1.285" fill="none"/>
    </clipPath>
    <clipPath id="clip-path-13">
      <rect id="Rectangle_461840" data-name="Rectangle 461840" width="6.062" height="5.217" fill="none"/>
    </clipPath>
    <clipPath id="clip-path-15">
      <rect id="Rectangle_461841" data-name="Rectangle 461841" width="6.954" height="3.945" fill="none"/>
    </clipPath>
    <clipPath id="clip-path-16">
      <rect id="Rectangle_461842" data-name="Rectangle 461842" width="2.563" height="0.937" fill="none"/>
    </clipPath>
    <clipPath id="clip-path-17">
      <rect id="Rectangle_461843" data-name="Rectangle 461843" width="2.529" height="0.912" fill="none"/>
    </clipPath>
    <clipPath id="clip-path-18">
      <rect id="Rectangle_461844" data-name="Rectangle 461844" width="2.53" height="0.912" fill="none"/>
    </clipPath>
    <clipPath id="clip-path-19">
      <rect id="Rectangle_461846" data-name="Rectangle 461846" width="4.766" height="3.242" fill="none"/>
    </clipPath>
  </defs>
  <g id="img23" transform="translate(-185 -6074)">
    <rect id="Rectangle_461515" data-name="Rectangle 461515" width="396" height="188" rx="10" transform="translate(185 6074)" fill="#eaeddf"/>
    <g id="Group_1197697" data-name="Group 1197697" transform="translate(271 6082.42)">
      <g id="Group_1197696" data-name="Group 1197696" clip-path="url(#clip-path)">
        <g id="Group_1197695" data-name="Group 1197695" transform="translate(0 0)">
          <g id="Group_1197694" data-name="Group 1197694" clip-path="url(#clip-path)">
            <path id="Path_1020175" data-name="Path 1020175" d="M224.324,135.313a54.3,54.3,0,0,1-33.589,44.263H32.373C5.974,173.366-2.5,148.268.612,120.648a54.246,54.246,0,0,1,32.957-44q1.223-.517,2.478-.973A53.946,53.946,0,0,1,31.845,50c.043-.589.1-1.178.169-1.771A54.3,54.3,0,0,1,128.18,20.133a54.3,54.3,0,0,1,72.468,64.021,54.28,54.28,0,0,1,23.676,51.159" transform="translate(0 0.004)" fill="#eae2da"/>
            <g id="Group_1197642" data-name="Group 1197642" transform="translate(21.008 40.225)" opacity="0.5">
              <g id="Group_1197641" data-name="Group 1197641">
                <g id="Group_1197640" data-name="Group 1197640" clip-path="url(#clip-path-3)">
                  <path id="Path_1020176" data-name="Path 1020176" d="M236.828,396.71a4,4,0,0,0-1.887.126c0-.062.005-.124.005-.186a6.885,6.885,0,0,0-7.1-6.643,7.412,7.412,0,0,0-4.189,1.273,8.394,8.394,0,0,0-8.886-6.087,8.227,8.227,0,0,0-7.736,6.993,7.426,7.426,0,0,0,.346,3.264,5.3,5.3,0,0,0-1.229-.145,4.824,4.824,0,0,0-4.987,4.605v.364a3.638,3.638,0,0,0,3.753,3.51l31.255.022a3.638,3.638,0,0,0,3.758-3.5,3.688,3.688,0,0,0-3.1-3.592" transform="translate(-201.163 -385.171)" fill="#fff"/>
                </g>
              </g>
            </g>
            <g id="Group_1197645" data-name="Group 1197645" transform="translate(73.938 9.148)" opacity="0.5">
              <g id="Group_1197644" data-name="Group 1197644">
                <g id="Group_1197643" data-name="Group 1197643" clip-path="url(#clip-path-4)">
                  <path id="Path_1020177" data-name="Path 1020177" d="M747.107,100.248a4.383,4.383,0,0,0-2.069.139c0-.068.006-.136.006-.2a7.55,7.55,0,0,0-7.789-7.286,8.129,8.129,0,0,0-4.594,1.4,9.205,9.205,0,0,0-9.745-6.675,9.023,9.023,0,0,0-8.484,7.669,8.144,8.144,0,0,0,.38,3.58,5.815,5.815,0,0,0-1.348-.159,5.29,5.29,0,0,0-5.469,5.051v.4a3.989,3.989,0,0,0,4.116,3.85l34.277.024a3.989,3.989,0,0,0,4.121-3.844,4.044,4.044,0,0,0-3.4-3.939" transform="translate(-707.994 -87.593)" fill="#fff"/>
                </g>
              </g>
            </g>
            <g id="Group_1197648" data-name="Group 1197648" transform="translate(147.88 32.688)" opacity="0.5">
              <g id="Group_1197647" data-name="Group 1197647">
                <g id="Group_1197646" data-name="Group 1197646" clip-path="url(#clip-path-5)">
                  <path id="Path_1020178" data-name="Path 1020178" d="M1451.692,324.536a4,4,0,0,0-1.887.126c0-.062.005-.124.005-.186a6.885,6.885,0,0,0-7.1-6.643,7.412,7.412,0,0,0-4.189,1.273,8.394,8.394,0,0,0-8.886-6.087,8.227,8.227,0,0,0-7.736,6.993,7.426,7.426,0,0,0,.346,3.264,5.3,5.3,0,0,0-1.229-.145,4.824,4.824,0,0,0-4.987,4.605v.364a3.638,3.638,0,0,0,3.753,3.51l31.255.022a3.638,3.638,0,0,0,3.758-3.5h0a3.688,3.688,0,0,0-3.1-3.592" transform="translate(-1416.027 -312.997)" fill="#fff"/>
                </g>
              </g>
            </g>
            <g id="Group_1197651" data-name="Group 1197651" transform="translate(181.093 122.57)" opacity="0.5">
              <g id="Group_1197650" data-name="Group 1197650">
                <g id="Group_1197649" data-name="Group 1197649" clip-path="url(#clip-path-5)">
                  <path id="Path_1020179" data-name="Path 1020179" d="M1769.726,1185.21a4,4,0,0,0-1.886.126c0-.062.005-.124.005-.186a6.885,6.885,0,0,0-7.1-6.643,7.413,7.413,0,0,0-4.189,1.273,8.394,8.394,0,0,0-8.886-6.087,8.227,8.227,0,0,0-7.736,6.993,7.426,7.426,0,0,0,.346,3.264,5.3,5.3,0,0,0-1.229-.145,4.824,4.824,0,0,0-4.987,4.605v.364a3.638,3.638,0,0,0,3.753,3.51l31.255.022a3.638,3.638,0,0,0,3.758-3.505h0a3.688,3.688,0,0,0-3.1-3.592" transform="translate(-1734.061 -1173.671)" fill="#fff"/>
                </g>
              </g>
            </g>
            <g id="Group_1197654" data-name="Group 1197654" transform="translate(160.271 92.126)" opacity="0.5">
              <g id="Group_1197653" data-name="Group 1197653">
                <g id="Group_1197652" data-name="Group 1197652" clip-path="url(#clip-path-7)">
                  <path id="Path_1020180" data-name="Path 1020180" d="M1580.4,896.945a5.124,5.124,0,0,0-2.419.162c0-.079.007-.159.007-.239,0-4.7-4.074-8.514-9.106-8.518a9.5,9.5,0,0,0-5.371,1.633,10.762,10.762,0,0,0-11.393-7.8,10.548,10.548,0,0,0-9.918,8.966,9.516,9.516,0,0,0,.444,4.185,6.794,6.794,0,0,0-1.576-.186,6.185,6.185,0,0,0-6.394,5.9v.467a4.664,4.664,0,0,0,4.812,4.5l40.073.028a4.664,4.664,0,0,0,4.818-4.494h0a4.728,4.728,0,0,0-3.975-4.6" transform="translate(-1534.677 -882.15)" fill="#fff"/>
                </g>
              </g>
            </g>
            <path id="Path_1020181" data-name="Path 1020181" d="M914.514,225.067a11.861,11.861,0,0,0-11.86,11.754l-.053-.016-.053.016a11.861,11.861,0,1,0-21.735,6.681h0c.471.707,21.788,26.107,21.788,26.107s21.317-25.4,21.788-26.107h0a11.862,11.862,0,0,0-9.875-18.435" transform="translate(-787.047 -201.562)" fill="#b6babf"/>
            <path id="Path_1020182" data-name="Path 1020182" d="M203.394,1044.294s-7.975-1.966-11.039-7.274c-4.218-7.308.546-10.563.546-10.563s-8.1-1.015-10.036-6.6a5.1,5.1,0,0,1,3.329-7.039s-8.767-8.2-4.607-14.112,13.983,1.938,13.983,1.938a6.113,6.113,0,0,1,7.879-.428c4.438,3.045,8.129,11.932,8.129,11.932s4.137-5.469,7.588-.536-.263,33.753-.263,33.753Z" transform="translate(-161.62 -892.435)" fill="#7da1bb"/>
            <path id="Path_1020183" data-name="Path 1020183" d="M269.872,1111.381a.347.347,0,0,1-.081-.016c-8.284-2.747-12.816-8.919-14.263-19.423-1.126-8.172-4.254-14.635-15.865-19.618a.348.348,0,0,1-.183-.446.326.326,0,0,1,.434-.181c11.905,5.109,15.116,11.754,16.274,20.159,1.407,10.212,5.792,16.205,13.8,18.861a.347.347,0,0,1,.22.429.327.327,0,0,1-.335.234" transform="translate(-214.448 -959.753)" fill="#5c788d"/>
            <path id="Path_1020184" data-name="Path 1020184" d="M95.011,1299.152s-8.351-1.644-11.708-7.031c-4.621-7.416.224-11.059.224-11.059s-8.451-.645-10.644-6.378a5.431,5.431,0,0,1,3.23-7.521s-9.377-8.117-5.247-14.5,14.594,1.308,14.594,1.308a6.38,6.38,0,0,1,8.174-.851c4.711,2.953,8.836,12.045,8.836,12.045s3.36-5.205,7.868-.948c7.121,6.724,8.19,34.939,8.19,34.939Z" transform="translate(-62.524 -1119.572)" fill="#5c788d"/>
            <path id="Path_1020185" data-name="Path 1020185" d="M164.785,1368.149a.342.342,0,0,1-.085-.012c-8.7-2.444-13.609-8.657-15.454-19.553-1.436-8.476-4.9-15.066-17.125-19.674a.358.358,0,0,1-.205-.456.344.344,0,0,1,.445-.211c12.538,4.726,16.091,11.5,17.568,20.219,1.794,10.593,6.547,16.627,14.956,18.99a.357.357,0,0,1,.242.437.348.348,0,0,1-.341.262" transform="translate(-118.121 -1189.509)" fill="#7da1bb"/>
            <path id="Path_1020186" data-name="Path 1020186" d="M1668.088,1259.671s5.431-1.339,7.518-4.954c2.873-4.977-.372-7.194-.372-7.194s5.517-.691,6.835-4.495a3.476,3.476,0,0,0-2.267-4.794s5.971-5.587,3.138-9.611-9.523,1.32-9.523,1.32a4.163,4.163,0,0,0-5.366-.292c-3.023,2.074-5.537,8.126-5.537,8.126s-2.818-3.725-5.168-.365.179,22.987.179,22.987Z" transform="translate(-1483.368 -1098.97)" fill="#7da1bb"/>
            <path id="Path_1020187" data-name="Path 1020187" d="M1677.717,1305.361a.223.223,0,0,0,.055-.011c5.642-1.871,8.729-6.074,9.714-13.228.767-5.565,2.9-9.967,10.8-13.361a.236.236,0,0,0,.125-.3.222.222,0,0,0-.3-.123c-8.108,3.48-10.295,8.005-11.083,13.729-.958,6.955-3.945,11.037-9.4,12.845a.237.237,0,0,0-.149.292.223.223,0,0,0,.228.159" transform="translate(-1502.294 -1144.817)" fill="#5c788d"/>
            <path id="Path_1020188" data-name="Path 1020188" d="M1692,1433.242s5.688-1.12,7.974-4.789c3.147-5.051-.152-7.532-.152-7.532s5.756-.439,7.249-4.344a3.7,3.7,0,0,0-2.2-5.122s6.387-5.528,3.573-9.876-9.939.891-9.939.891a4.345,4.345,0,0,0-5.567-.58c-3.208,2.011-6.018,8.2-6.018,8.2s-2.288-3.545-5.359-.646c-4.85,4.58-5.578,23.8-5.578,23.8Z" transform="translate(-1500.952 -1253.662)" fill="#5c788d"/>
            <path id="Path_1020189" data-name="Path 1020189" d="M1734.824,1480.234a.239.239,0,0,0,.058-.009c5.924-1.665,9.268-5.9,10.525-13.317.978-5.773,3.335-10.261,11.663-13.4a.244.244,0,0,0,.14-.311.234.234,0,0,0-.3-.144c-8.539,3.219-10.958,7.833-11.964,13.77-1.222,7.214-4.459,11.324-10.186,12.933a.243.243,0,0,0-.165.3.237.237,0,0,0,.232.178" transform="translate(-1553.436 -1301.294)" fill="#7da1bb"/>
            <path id="Path_1020190" data-name="Path 1020190" d="M642.576,343.7a4.315,4.315,0,1,1-4.315-4.315,4.315,4.315,0,0,1,4.315,4.315" transform="translate(-567.741 -303.946)" fill="#2f282e"/>
            <path id="Path_1020191" data-name="Path 1020191" d="M632.611,267.9a4.9,4.9,0,1,1-4.9-4.9,4.9,4.9,0,0,1,4.9,4.9" transform="translate(-557.777 -235.535)" fill="#2f282e"/>
            <path id="Path_1020192" data-name="Path 1020192" d="M443.7,1273.723A65.084,65.084,0,0,1,453.78,1251.4l55.822.505a60.239,60.239,0,0,1,10.013,21.814c3.04,13.052.939,26.573.939,26.573H442.835s-2.17-13.521.87-26.573" transform="translate(-395.916 -1120.716)" fill="#2f282e"/>
            <path id="Path_1020193" data-name="Path 1020193" d="M451.6,594.359s-9.3-29.681-50.064-28.429-46.667,28.429-46.667,28.429l20.562,16.195-2.682,23.857s9.655,13.052,30.486,13.052A56.631,56.631,0,0,0,437.3,636.377l-3.934-25.823Z" transform="translate(-317.812 -506.793)" fill="#e86849"/>
            <path id="Path_1020194" data-name="Path 1020194" d="M345.265,856.793l-18.648,9.181-16.805-13.236s-18.161,29.891,2.554,39.1c23.521,10.456,42.012-26.475,42.012-26.475Z" transform="translate(-270.861 -763.684)" fill="#eb8b76"/>
            <path id="Path_1020195" data-name="Path 1020195" d="M719.473,419.883v6.174s-.386,7.358-8.046,7.5c-7.152.137-9.333-6.634-9.333-6.634V409.6Z" transform="translate(-628.772 -366.826)" fill="#eb8b76"/>
            <path id="Path_1020196" data-name="Path 1020196" d="M650.763,167.076a3.827,3.827,0,0,1,4.909-3.676,3.075,3.075,0,0,1,5.759-2.072,7.909,7.909,0,0,1,15.134,3.221c0,.047-.006.093-.007.14a6.4,6.4,0,0,1-.312,12.508v0l-.11.014c-.182.031-.366.056-.553.071l-22.286,2.88s-2.535-7.867-2.535-13.089" transform="translate(-582.802 -140.279)" fill="#2f282e"/>
            <path id="Path_1020197" data-name="Path 1020197" d="M684.249,265.812c-.869,7.814,10.614,15.5,10.614,15.5,6.731.749,12.83-.6,12.438-11.956-.4-11.517-1.457-16-9.291-16.342-6.766-.293-12.892,4.98-13.761,12.794" transform="translate(-612.749 -226.584)" fill="#eb8b76"/>
            <path id="Path_1020198" data-name="Path 1020198" d="M858.909,341.122c.048,0,2.493-1.422,2.493-1.422l-.29-.213a4.333,4.333,0,0,1-1.445-2.926,4.532,4.532,0,0,1,2.966-4.708.238.238,0,1,0-.161-.447,5.061,5.061,0,0,0-1.9,8.235l-1.76,1.04a.238.238,0,0,0,.1.442" transform="translate(-769.016 -296.782)" fill="#2f282e"/>
            <path id="Path_1020199" data-name="Path 1020199" d="M807.334,327.878a.278.278,0,0,0,.1-.492,3.8,3.8,0,0,0-3.214-.421,3.064,3.064,0,0,0-2.1,1.684.278.278,0,0,0,.515.209,2.519,2.519,0,0,1,1.733-1.357l.082-.022a3.3,3.3,0,0,1,2.65.355.278.278,0,0,0,.235.046" transform="translate(-718.332 -292.665)" fill="#2f282e"/>
            <g id="Group_1197660" data-name="Group 1197660" transform="translate(78.14 41.612)" opacity="0.31">
              <g id="Group_1197659" data-name="Group 1197659">
                <g id="Group_1197658" data-name="Group 1197658" clip-path="url(#clip-path-8)">
                  <g id="Group_1197657" data-name="Group 1197657" opacity="0.6">
                    <g id="Group_1197656" data-name="Group 1197656">
                      <g id="Group_1197655" data-name="Group 1197655" clip-path="url(#clip-path-8)">
                        <path id="Path_1020200" data-name="Path 1020200" d="M748.348,399.692c-.482,1.2.576,2.76,2.362,3.474s3.624.317,4.106-.887-.576-2.759-2.362-3.474-3.624-.317-4.106.887" transform="translate(-748.232 -398.45)" fill="#803b34"/>
                      </g>
                    </g>
                  </g>
                </g>
              </g>
            </g>
            <path id="Path_1020201" data-name="Path 1020201" d="M675.6,304.577a9.577,9.577,0,0,0-6.366-2.548c-4.351-.284-5.463,3.032-7.31,1.855-6.5-4.143.464-15.688.464-15.688-3.258-1.365-14.029,5.21-11.994,6.158l.018.008a4.71,4.71,0,0,0,.331,7.119,3.978,3.978,0,1,0,5.076,6.094v.238s1.406,11.794,11.5,12.768,8.282-16,8.282-16" transform="translate(-581.17 -257.932)" fill="#2f282e"/>
            <path id="Path_1020202" data-name="Path 1020202" d="M804.8,437.864l6.449,2.674A3.658,3.658,0,0,1,807.838,442c-2.3-.258-3.033-4.135-3.033-4.135" transform="translate(-720.757 -392.136)" fill="#fff"/>
            <path id="Path_1020203" data-name="Path 1020203" d="M683.6,347.481c.41,2.45,1.92,4.239,3.372,4s2.3-2.426,1.886-4.876-1.92-4.239-3.372-4-2.3,2.426-1.886,4.876" transform="translate(-612.116 -306.805)" fill="#eb8b76"/>
            <path id="Path_1020204" data-name="Path 1020204" d="M703.172,355.108a1.358,1.358,0,0,1,1.542-.61,3.212,3.212,0,0,0-1.366-1.8.285.285,0,1,1,.318-.474c1.525,1.023,2.059,2.571,1.631,4.733a.285.285,0,1,1-.56-.111,5.661,5.661,0,0,0,.1-1.723.917.917,0,0,0-1.146.232.286.286,0,0,1-.516-.245" transform="translate(-629.713 -315.395)" fill="#803b34"/>
            <path id="Path_1020205" data-name="Path 1020205" d="M704.191,239.167s-.628,2.235-3.654,2.056-5.205-3.01-5.205-3.01-1.325,3.279-3.425,3.874a6.808,6.808,0,0,1-4.5-.775l-5.811-.387,9.98-7.957,9.956.268Z" transform="translate(-610.418 -208.639)" fill="#2f282e"/>
            <path id="Path_1020206" data-name="Path 1020206" d="M683.152,587.926c-9.485,0-11.307-9.319-11.324-9.413a.359.359,0,0,1,.706-.13c.067.36,1.738,8.825,10.617,8.825,8.921,0,12.164-9.492,12.2-9.588a.359.359,0,0,1,.682.225c-.033.1-3.431,10.081-12.877,10.081" transform="translate(-601.662 -517.076)" fill="#2f282e"/>
            <path id="Path_1020207" data-name="Path 1020207" d="M1091.423,829.333a.359.359,0,0,1-.239-.628l17.165-15.258a.359.359,0,1,1,.477.537l-17.165,15.258a.358.358,0,0,1-.239.091" transform="translate(-977.121 -728.415)" fill="#2f282e"/>
            <path id="Path_1020208" data-name="Path 1020208" d="M397.929,828.142a.357.357,0,0,1-.224-.079L380.1,814a.359.359,0,1,1,.448-.561l17.6,14.066a.359.359,0,0,1-.224.64" transform="translate(-340.286 -728.416)" fill="#2f282e"/>
            <path id="Path_1020209" data-name="Path 1020209" d="M454.146,983.021a.4.4,0,0,0,.141-.026l7.033-2.622a.4.4,0,1,0-.281-.753l-7.033,2.622a.4.4,0,0,0,.141.779" transform="translate(-406.358 -877.291)" fill="#803b34"/>
            <path id="Path_1020210" data-name="Path 1020210" d="M810.022,1513.711a.359.359,0,0,1-.359-.359V1499.7a.359.359,0,0,1,.718,0v13.649a.359.359,0,0,1-.359.359" transform="translate(-725.107 -1342.763)" fill="#fff"/>
            <path id="Path_1020211" data-name="Path 1020211" d="M819.467,360.376a.359.359,0,0,1-.117-.7l1.131-.392-1.217-.835a.359.359,0,1,1,.406-.592l2.39,1.64-2.475.858a.363.363,0,0,1-.117.02" transform="translate(-733.566 -320.429)" fill="#2f282e"/>
            <path id="Path_1020212" data-name="Path 1020212" d="M878.648,359.844a.359.359,0,0,1-.094-.012l-2.815-.759,2.117-1.9a.359.359,0,0,1,.479.535l-1.131,1.013,1.536.414a.359.359,0,0,1-.093.706" transform="translate(-784.283 -319.792)" fill="#2f282e"/>
            <path id="Path_1020213" data-name="Path 1020213" d="M813.93,349.75a.014.014,0,0,0,.009,0,2.558,2.558,0,0,0,2.4-2.495h0l1.818.081a2.537,2.537,0,0,0,1.986,2.7.015.015,0,0,0,.013,0,1.982,1.982,0,0,0,1.65-.751,3.191,3.191,0,0,0,.593-1.064,3.68,3.68,0,0,0,.181-.912,3.8,3.8,0,0,0,0-.55v-.009a3.332,3.332,0,0,0-.14-.764l0-.011a2.375,2.375,0,0,0-.2-.495l0-.005a2.076,2.076,0,0,0-1.633-1.227.015.015,0,0,0-.009,0c-1.191-.09-2.256,1.072-2.417,2.61l-1.8-.08h0a2.568,2.568,0,0,0-1.988-2.815l-.007,0c-1.216-.092-2.306,1.134-2.43,2.729s.766,2.963,1.979,3.062m4.717-2.742c.1-1.332.96-2.361,1.912-2.289l.007,0c.95.075,1.641,1.217,1.542,2.549a2.92,2.92,0,0,1-.663,1.695,1.514,1.514,0,0,1-1.253.593s0,0-.009,0c-.949-.079-1.64-1.221-1.536-2.551m-6.218-.284c.1-1.336.96-2.361,1.916-2.288,0,0,0,0,.009,0,.949.079,1.64,1.221,1.536,2.551s-.958,2.357-1.914,2.284a0,0,0,0,1-.005,0c-.953-.081-1.64-1.221-1.542-2.549" transform="translate(-727.146 -308.034)" fill="#fff"/>
            <path id="Path_1020214" data-name="Path 1020214" d="M1123.049,852.739l-16.561,14.706,3.282,21.545s3.1,3.979,13.28,6.483,0-42.734,0-42.734" transform="translate(-990.934 -763.684)" fill="#eb8b76"/>
            <path id="Path_1020215" data-name="Path 1020215" d="M963.266,479.571a5.479,5.479,0,0,0-9.014-.58,11.991,11.991,0,1,0,6.841,22.258c3.622-2.169,3.039-9.77,1.6-15.249a5.49,5.49,0,0,0,.575-6.43" transform="translate(-844.464 -427.096)" fill="#2f282e"/>
            <path id="Path_1020216" data-name="Path 1020216" d="M1254.252,528.356a8.87,8.87,0,1,1-8.87-8.87,8.87,8.87,0,0,1,8.87,8.87" transform="translate(-1107.38 -465.234)" fill="#513c2f"/>
            <path id="Path_1020217" data-name="Path 1020217" d="M1498.968,558.616c.03-.131.07-.257.108-.383a11.828,11.828,0,0,1-13.8-12.635s14.24-10.582,14.413-10.543a11.827,11.827,0,0,1,9.183,11.087,9.816,9.816,0,0,1-2.576,8.332,5.694,5.694,0,1,1-7.327,4.141" transform="translate(-1330.124 -479.177)" fill="#513c2f"/>
            <path id="Path_1020218" data-name="Path 1020218" d="M1151.284,614.949s14.686,4.257,20.113,13.409,4.9,21.709,4.9,21.709h-7.769l-3.405,29.159h-46.292l-4.257-50.762s12.238-13.657,22.561-13.515c8.412.116,14.154,0,14.154,0" transform="translate(-998.172 -550.726)" fill="#7da1bb"/>
            <path id="Path_1020219" data-name="Path 1020219" d="M1325.506,501.655v6.757a9.077,9.077,0,0,0,8.84,6.173,12.884,12.884,0,0,0,10.3-4.545l-4.056-1.92-.08-12.132Z" transform="translate(-1187.079 -444.19)" fill="#eb8b76"/>
            <path id="Path_1020220" data-name="Path 1020220" d="M1088.461,1230.443v4.47s10.351,9.584,11.188,22.83a186.112,186.112,0,0,1,0,23.781h-70.676s.376-16.773,4.15-29.691c4.15-14.207,9.046-21.39,9.046-21.39Z" transform="translate(-921.514 -1101.944)" fill="#e86849"/>
            <path id="Path_1020221" data-name="Path 1020221" d="M1263.121,283.418a11.124,11.124,0,1,1-12.26-9.857,11.124,11.124,0,0,1,12.26,9.857" transform="translate(-1111.343 -244.932)" fill="#513c2f"/>
            <path id="Path_1020222" data-name="Path 1020222" d="M1351.959,282.063a13.27,13.27,0,1,1-14.625-11.759,13.27,13.27,0,0,1,14.625,11.759" transform="translate(-1187.07 -242.005)" fill="#513c2f"/>
            <path id="Path_1020223" data-name="Path 1020223" d="M1503.623,428.684a12.248,12.248,0,0,1-10.854,13.5c-6.725.731-9.371-23.623-2.646-24.354a12.249,12.249,0,0,1,13.5,10.854" transform="translate(-1331.003 -374.13)" fill="#513c2f"/>
            <path id="Path_1020224" data-name="Path 1020224" d="M1329.631,523.872s6.151,7.037,12.473-1.976c4.49-6.4-12.473,1.976-12.473,1.976" transform="translate(-1190.774 -465.234)" fill="#2f282e"/>
            <path id="Path_1020225" data-name="Path 1020225" d="M1290.062,318.929s-2.385,11.545-2.6,15.216.622,8.862,5.244,10.482c10.732,3.762,17.459-12.206,17.459-12.206l-13.2-13.093Z" transform="translate(-1152.984 -285.622)" fill="#eb8b76"/>
            <path id="Path_1020226" data-name="Path 1020226" d="M1308.2,396.679a.226.226,0,0,1-.128-.053l-1.984-1.68.307-.154a4.127,4.127,0,0,0,1.824-2.515,4.314,4.314,0,0,0-2.031-4.893.226.226,0,1,1,.222-.394,4.818,4.818,0,0,1,.47,8.033l1.486,1.258a.226.226,0,0,1-.164.4" transform="translate(-1169.675 -346.549)" fill="#2f282e"/>
            <g id="Group_1197663" data-name="Group 1197663" transform="translate(139.299 55.611)" opacity="0.2">
              <g id="Group_1197662" data-name="Group 1197662">
                <g id="Group_1197661" data-name="Group 1197661" clip-path="url(#clip-path-10)">
                  <path id="Path_1020227" data-name="Path 1020227" d="M1335.373,533.487a3.552,3.552,0,0,1-1.4-.311.19.19,0,1,1,.155-.346,3.072,3.072,0,0,0,3.066-.29.19.19,0,1,1,.227.3,3.328,3.328,0,0,1-2.046.644" transform="translate(-1333.858 -532.502)" fill="#803b34"/>
                </g>
              </g>
            </g>
            <g id="Group_1197666" data-name="Group 1197666" transform="translate(141.276 43.648)" opacity="0.2">
              <g id="Group_1197665" data-name="Group 1197665">
                <g id="Group_1197664" data-name="Group 1197664" clip-path="url(#clip-path-11)">
                  <path id="Path_1020228" data-name="Path 1020228" d="M1354.055,418.168a3.5,3.5,0,0,0-1.2.749.187.187,0,1,0,.258.271,3.029,3.029,0,0,1,2.947-.735.187.187,0,1,0,.112-.357,3.282,3.282,0,0,0-2.114.072" transform="translate(-1352.793 -417.954)" fill="#803b34"/>
                </g>
              </g>
            </g>
            <g id="Group_1197669" data-name="Group 1197669" transform="translate(134.641 43.247)" opacity="0.2">
              <g id="Group_1197668" data-name="Group 1197668">
                <g id="Group_1197667" data-name="Group 1197667" clip-path="url(#clip-path-12)">
                  <path id="Path_1020229" data-name="Path 1020229" d="M1290.522,414.324a3.5,3.5,0,0,0-1.2.749.187.187,0,1,0,.258.271,3.029,3.029,0,0,1,2.947-.735.187.187,0,1,0,.112-.357,3.282,3.282,0,0,0-2.114.072" transform="translate(-1289.261 -414.111)" fill="#803b34"/>
                </g>
              </g>
            </g>
            <path id="Path_1020230" data-name="Path 1020230" d="M1363.445,427.437s-.289.861-2.278.917a1.375,1.375,0,0,1-.363-1.052.979.979,0,0,1,1.055-.908,2.359,2.359,0,0,1,1.586,1.043" transform="translate(-1218.68 -381.851)" fill="#fff"/>
            <path id="Path_1020231" data-name="Path 1020231" d="M1278.339,278.663a6.17,6.17,0,0,1,1.841-1.595c4.8-2.807,6.791.9,9.154-.711s9.115-1.628,12.772,4.278,3.345,8.665,1.289,13.919a23.915,23.915,0,0,1-1.629,3.36l1.326,2.709,4.329,14.53s-8.2-11.786-11.1-17.458c-2.445-4.793-2.385-5.494-2.265-5.584-.511.053-4.116.26-6.454-4.224a16.1,16.1,0,0,1-2.123-6.149h-.055v0c-.157,0-.319.012-.486.024-3.263.258-4.787,3.774-5.382,5.71a11.531,11.531,0,0,0-.32,1.258,18.281,18.281,0,0,1-1.258-2.681c-.888-2.409-1.26-5.249.357-7.387" transform="translate(-1143.837 -246.672)" fill="#513c2f"/>
            <path id="Path_1020232" data-name="Path 1020232" d="M1350.492,424.274a.2.2,0,0,1-.109-.35,2.775,2.775,0,0,1,2.3-.558,2.237,2.237,0,0,1,1.656,1.058.2.2,0,0,1-.358.192,1.84,1.84,0,0,0-1.366-.849l-.062-.01a2.408,2.408,0,0,0-1.9.466.2.2,0,0,1-.167.052" transform="translate(-1209.3 -379.11)" fill="#2f282e"/>
            <path id="Path_1020233" data-name="Path 1020233" d="M1360.1,425.323c-.1.608-.487,1.051-.871.989s-.616-.6-.519-1.212.487-1.05.871-.989.616.6.519,1.212" transform="translate(-1216.797 -379.815)" fill="#2f282e"/>
            <path id="Path_1020234" data-name="Path 1020234" d="M1300.6,421.686a1.835,1.835,0,0,1-2.077.994c-.438-.079-.378-.594-.294-1.115a.879.879,0,0,1,.947-.816,2.119,2.119,0,0,1,1.424.937" transform="translate(-1162.599 -376.797)" fill="#fff"/>
            <path id="Path_1020235" data-name="Path 1020235" d="M1289.541,420.522a.182.182,0,0,1-.1-.314,2.492,2.492,0,0,1,2.067-.5,2.011,2.011,0,0,1,1.488.95.182.182,0,0,1-.322.173,1.653,1.653,0,0,0-1.226-.763l-.055-.009a2.163,2.163,0,0,0-1.7.418.182.182,0,0,1-.15.047" transform="translate(-1154.73 -375.837)" fill="#2f282e"/>
            <path id="Path_1020236" data-name="Path 1020236" d="M1298.172,421.464c-.087.546-.437.944-.782.888s-.553-.542-.466-1.088.438-.943.782-.888.553.542.466,1.088" transform="translate(-1161.464 -376.47)" fill="#2f282e"/>
            <path id="Path_1020237" data-name="Path 1020237" d="M1351.231,392.886a.265.265,0,0,1,0-.478,3.616,3.616,0,0,1,3.078.214,2.917,2.917,0,0,1,1.64,1.967.265.265,0,0,1-.52.1,2.4,2.4,0,0,0-1.361-1.594l-.073-.036a3.138,3.138,0,0,0-2.539-.17.264.264,0,0,1-.228,0" transform="translate(-1209.984 -351.202)" fill="#2f282e"/>
            <path id="Path_1020238" data-name="Path 1020238" d="M1279.2,403.164a2.023,2.023,0,0,0,.755.191,2.876,2.876,0,0,0,2.67-2.625l1.772.153a3.707,3.707,0,0,0,.564,1.947,2.473,2.473,0,0,0,1,.908,2.023,2.023,0,0,0,.755.191c1.393.076,2.62-1.329,2.736-3.132a3.8,3.8,0,0,0-.557-2.31,2.25,2.25,0,0,0-1.758-1.1c-1.292-.071-2.44,1.134-2.692,2.749l-1.75-.151a3.739,3.739,0,0,0-.564-2.074,2.249,2.249,0,0,0-1.758-1.1,2.3,2.3,0,0,0-1.886.9,3.861,3.861,0,0,0-.85,2.233,3.8,3.8,0,0,0,.557,2.31,2.474,2.474,0,0,0,1,.908m6.39-.744a3.057,3.057,0,0,1-.439-1.858h0c.09-1.392.96-2.481,1.941-2.427a1.271,1.271,0,0,1,.475.122,1.743,1.743,0,0,1,.7.643,3.056,3.056,0,0,1,.439,1.858c-.09,1.392-.96,2.481-1.941,2.427a1.53,1.53,0,0,1-1.177-.765m-6.764-.575a3.059,3.059,0,0,1-.439-1.858h0a3.1,3.1,0,0,1,.674-1.8,1.564,1.564,0,0,1,1.266-.631,1.273,1.273,0,0,1,.475.122,1.744,1.744,0,0,1,.7.643,3.057,3.057,0,0,1,.439,1.858c-.09,1.392-.96,2.481-1.941,2.427a1.53,1.53,0,0,1-1.177-.765" transform="translate(-1144.202 -355.37)" fill="#fff"/>
            <path id="Path_1020239" data-name="Path 1020239" d="M1451.735,449.149a11.342,11.342,0,1,1-22.542,2.45,11.338,11.338,0,0,1,22.542-2.45" transform="translate(-1279.878 -393.185)" fill="#513c2f"/>
            <path id="Path_1020240" data-name="Path 1020240" d="M1422.419,424.494a3.838,3.838,0,1,0,4.237-3.392,3.838,3.838,0,0,0-4.237,3.392" transform="translate(-1273.85 -377.104)" fill="#eb8b76"/>
            <path id="Path_1020241" data-name="Path 1020241" d="M1441.835,433.629a1.367,1.367,0,0,0-1.427-.866,3.234,3.234,0,0,1,1.66-1.558.287.287,0,1,0-.235-.524c-1.687.757-2.478,2.2-2.418,4.422a.287.287,0,1,0,.574-.015,5.706,5.706,0,0,1,.194-1.727c.557-.106,1.014.124,1.1.424a.287.287,0,0,0,.553-.156" transform="translate(-1289.09 -385.682)" fill="#803b34"/>
            <g id="Group_1197675" data-name="Group 1197675" transform="translate(143.593 47.569)" opacity="0.33">
              <g id="Group_1197674" data-name="Group 1197674">
                <g id="Group_1197673" data-name="Group 1197673" clip-path="url(#clip-path-13)">
                  <g id="Group_1197672" data-name="Group 1197672" opacity="0.6">
                    <g id="Group_1197671" data-name="Group 1197671">
                      <g id="Group_1197670" data-name="Group 1197670" clip-path="url(#clip-path-13)">
                        <path id="Path_1020242" data-name="Path 1020242" d="M1380.782,456.276c.678,1.032-.012,2.683-1.543,3.689s-3.321.985-4-.047.013-2.684,1.543-3.689,3.32-.985,4,.047" transform="translate(-1374.98 -455.488)" fill="#803b34"/>
                      </g>
                    </g>
                  </g>
                </g>
              </g>
            </g>
            <g id="Group_1197678" data-name="Group 1197678" transform="translate(137.844 51.642)" opacity="0.5">
              <g id="Group_1197677" data-name="Group 1197677">
                <g id="Group_1197676" data-name="Group 1197676" clip-path="url(#clip-path-15)">
                  <path id="Path_1020243" data-name="Path 1020243" d="M1321.143,494.517c1.188-.18,5.739.724,5.739.724s-2.091,3.12-4.426,3.2c-2.313.076-2.482-2.552-2.482-2.552s-.4-1.131,1.17-1.368" transform="translate(-1319.928 -494.493)" fill="#803b34"/>
                </g>
              </g>
            </g>
            <path id="Path_1020244" data-name="Path 1020244" d="M1320.363,502.3l6.909-.644s-3.089,1.807-4.679,1.819a2.636,2.636,0,0,1-2.229-1.175" transform="translate(-1182.474 -449.265)" fill="#fff"/>
            <path id="Path_1020245" data-name="Path 1020245" d="M1450.438,866.7a.359.359,0,0,1-.328-.5,18.556,18.556,0,0,0,1.169-8.315.359.359,0,0,1,.714-.08,18.935,18.935,0,0,1-1.226,8.686.359.359,0,0,1-.328.214" transform="translate(-1298.643 -767.93)" fill="#2f282e"/>
            <path id="Path_1020246" data-name="Path 1020246" d="M1311.056,1532.415a.359.359,0,0,1-.35-.281l-4.33-19.368a.359.359,0,0,1,.7-.156l4.33,19.368a.36.36,0,0,1-.351.437" transform="translate(-1169.939 -1354.391)" fill="#2f282e"/>
            <path id="Path_1020247" data-name="Path 1020247" d="M1335.823,1270.521h-29.1a.359.359,0,1,1,0-.718h29.1a.359.359,0,1,1,0,.718" transform="translate(-1169.94 -1137.193)" fill="#2f282e"/>
            <path id="Path_1020248" data-name="Path 1020248" d="M911.725,978.338c-6.279,3.512-18.133.358-18.3-12.238-.179-13.2,9.046-18.942,9.046-18.942l18.517,4.682s14.9-7.981,21.284-1.171,4.721,16.814,4.721,16.814l-15.469,17.559-13.989-2.364.048-4.553Z" transform="translate(-800.116 -848.242)" fill="#faa91a"/>
            <path id="Path_1020249" data-name="Path 1020249" d="M1131.927,951.233h-23.306s-6.545,11.44-13.888,16.548a67.684,67.684,0,0,1-15.8,7.822l-10.216,6.385s3.671,2.873,7.024,2.873,7.981-2.075,7.981-2.075,19,2.873,33.043-7.5,15.165-24.051,15.165-24.051" transform="translate(-957.105 -851.892)" fill="#eb8b76"/>
            <path id="Path_1020250" data-name="Path 1020250" d="M1195.545,1290.513c-.637,1.1-3.47.66-6.329-.991s-4.659-3.882-4.022-4.985,3.471-.66,6.329.99,4.659,3.882,4.022,4.986" transform="translate(-1061.306 -1149.846)" fill="#2f282e"/>
            <path id="Path_1020251" data-name="Path 1020251" d="M1129.818,1284.781c-.637,1.1-3.47.66-6.329-.991s-4.659-3.882-4.022-4.985,3.47-.66,6.329.99,4.659,3.882,4.022,4.986" transform="translate(-1002.444 -1144.712)" fill="#2f282e"/>
            <path id="Path_1020252" data-name="Path 1020252" d="M1061.078,671.043l-.759,8.28-8.868-1.473.751-7.49Z" transform="translate(-941.645 -600.352)" fill="#eb8b76"/>
            <path id="Path_1020253" data-name="Path 1020253" d="M1006.854,751.625l-6.4,12.556-1.864-2.608a46.769,46.769,0,0,1-8.351-.506c-.733-.122-1.465-.269-2.173-.449a16.383,16.383,0,0,1-2.033-.639c-4.9-1.918-5.959-3.089-5.959-3.089s3.937-6.49,4.68-10.534.32-11.016.32-11.016l2.873-.636a24.165,24.165,0,0,1,7.094,1.63,17.339,17.339,0,0,1,2.18,1.056,13.985,13.985,0,0,1,2.166,1.516c4.525,3.883,7.467,12.718,7.467,12.718" transform="translate(-877.723 -657.977)" fill="#fff"/>
            <path id="Path_1020254" data-name="Path 1020254" d="M1066.87,674.915l-.2,2.133a8.614,8.614,0,0,1-7.678-1.467c-4.571-3.3,7.874-.667,7.874-.667" transform="translate(-947.498 -603.541)" fill="#2f282e"/>
            <path id="Path_1020255" data-name="Path 1020255" d="M1031.639,530.037c-3.149,3.37-7.573,2.328-10.844.771a23.534,23.534,0,0,1-4.384-2.731l4.052-12.771,4.281-2.562s2.061,2.518,3.95,4.979c.022.023.032.042.04.048l0,0c1.154,1.5,2.236,2.964,2.752,3.82,1.36,2.273,2.561,5.867.151,8.443" transform="translate(-910.264 -459.196)" fill="#eb8b76"/>
            <path id="Path_1020256" data-name="Path 1020256" d="M1118.521,561.421a.163.163,0,0,0,.064-.077l.706-1.736-.247,0a2.974,2.974,0,0,1-2-1,3.109,3.109,0,0,1-.338-3.8.163.163,0,1,0-.274-.178,3.472,3.472,0,0,0,2.384,5.286l-.529,1.3a.163.163,0,0,0,.238.2" transform="translate(-999.346 -496.646)" fill="#2f282e"/>
            <g id="Group_1197681" data-name="Group 1197681" transform="translate(119.434 69.54)" opacity="0.2">
              <g id="Group_1197680" data-name="Group 1197680">
                <g id="Group_1197679" data-name="Group 1197679" clip-path="url(#clip-path-16)">
                  <path id="Path_1020257" data-name="Path 1020257" d="M1145.28,666.665a2.554,2.554,0,0,0,.88-.546.137.137,0,1,0-.188-.2,2.214,2.214,0,0,1-2.155.534.137.137,0,1,0-.082.26,2.4,2.4,0,0,0,1.545-.051" transform="translate(-1143.64 -665.883)" fill="#803b34"/>
                </g>
              </g>
            </g>
            <g id="Group_1197684" data-name="Group 1197684" transform="translate(113.106 62.091)" opacity="0.2">
              <g id="Group_1197683" data-name="Group 1197683">
                <g id="Group_1197682" data-name="Group 1197682" clip-path="url(#clip-path-17)">
                  <path id="Path_1020258" data-name="Path 1020258" d="M1084.46,594.576a2.523,2.523,0,0,1,1.019.076.135.135,0,1,1-.074.259,2.183,2.183,0,0,0-2.128.515.135.135,0,1,1-.191-.19,2.365,2.365,0,0,1,1.374-.66" transform="translate(-1083.047 -594.554)" fill="#803b34"/>
                </g>
              </g>
            </g>
            <g id="Group_1197687" data-name="Group 1197687" transform="translate(117.208 59.618)" opacity="0.2">
              <g id="Group_1197686" data-name="Group 1197686">
                <g id="Group_1197685" data-name="Group 1197685" clip-path="url(#clip-path-18)">
                  <path id="Path_1020259" data-name="Path 1020259" d="M1123.747,570.895a2.523,2.523,0,0,1,1.019.076.135.135,0,1,1-.074.259,2.183,2.183,0,0,0-2.128.515.135.135,0,1,1-.191-.19,2.365,2.365,0,0,1,1.374-.66" transform="translate(-1122.333 -570.873)" fill="#803b34"/>
                </g>
              </g>
            </g>
            <path id="Path_1020260" data-name="Path 1020260" d="M1088.475,601.162s.472.453,1.761-.175a.991.991,0,0,0-.12-.793.706.706,0,0,0-.977-.228,1.7,1.7,0,0,0-.664,1.2" transform="translate(-974.802 -537.204)" fill="#fff"/>
            <path id="Path_1020261" data-name="Path 1020261" d="M1020.314,504.972c.06-.118-.284-.346-.582-.645-1.027-1.038-3.175-2.776-5.347-1.85-.108.047-.213.1-.315.145l-.038.02a11.505,11.505,0,0,1,.7,4.635c.009,3.645-2.364,4.72-2.709,4.857.107.017.378.443.421,4.32,0,.477,0,1.02-.027,1.6-2.541-1.21-5.361-2.479-5.361-2.479l3.192-13.449,7.737-3.623s3.333,4.5,2.332,6.465" transform="translate(-901.883 -446.446)" fill="#2f282e"/>
            <path id="Path_1020262" data-name="Path 1020262" d="M1088.326,595.772a.146.146,0,0,0-.047-.26,2,2,0,0,0-1.656.412,1.613,1.613,0,0,0-.7,1.229.146.146,0,1,0,.293,0,1.327,1.327,0,0,1,.588-1l.036-.027a1.735,1.735,0,0,1,1.367-.336.146.146,0,0,0,.124-.023" transform="translate(-972.512 -533.278)" fill="#2f282e"/>
            <path id="Path_1020263" data-name="Path 1020263" d="M1095.251,598.568c.265.356.662.508.887.341s.192-.591-.073-.947-.662-.508-.887-.341-.192.592.073.947" transform="translate(-980.672 -535.148)" fill="#2f282e"/>
            <path id="Path_1020264" data-name="Path 1020264" d="M1127.595,576.413a1.323,1.323,0,0,0,1.658-.059c.253-.2.043-.506-.184-.81a.634.634,0,0,0-.877-.2,1.527,1.527,0,0,0-.6,1.074" transform="translate(-1009.837 -515.16)" fill="#fff"/>
            <path id="Path_1020265" data-name="Path 1020265" d="M1127.917,572.7a.132.132,0,0,0-.043-.234,1.8,1.8,0,0,0-1.487.37,1.449,1.449,0,0,0-.633,1.1.131.131,0,1,0,.263,0,1.192,1.192,0,0,1,.528-.9l.032-.024a1.558,1.558,0,0,1,1.228-.3.132.132,0,0,0,.111-.02" transform="translate(-1008.189 -512.641)" fill="#2f282e"/>
            <path id="Path_1020266" data-name="Path 1020266" d="M1134.137,575.209c.238.319.594.456.8.306s.172-.531-.066-.851-.594-.456-.8-.306-.172.531.066.85" transform="translate(-1015.516 -514.321)" fill="#2f282e"/>
            <path id="Path_1020267" data-name="Path 1020267" d="M1075.929,574.7a.191.191,0,0,0-.161-.3,2.606,2.606,0,0,0-1.894,1.165,2.1,2.1,0,0,0-.39,1.8.191.191,0,0,0,.365-.112,1.728,1.728,0,0,1,.337-1.472l.034-.047a2.261,2.261,0,0,1,1.565-.957.191.191,0,0,0,.145-.077" transform="translate(-961.314 -514.405)" fill="#2f282e"/>
            <path id="Path_1020268" data-name="Path 1020268" d="M935.113,658.263c.13-.08.263-.154.4-.224l.1-.051c.075-.037.148-.078.225-.113a16.641,16.641,0,0,1,6.434-1.354l1.839,4.5c.018.041.033.083.051.124l.137.334,0,0a6.261,6.261,0,0,1-4.316,8.2,5.453,5.453,0,0,1-1.345,5.449,4.672,4.672,0,0,1,.6,4.278,2.72,2.72,0,1,1-3.821,3.1,4.758,4.758,0,0,1-.5.038,4.691,4.691,0,0,1-3.995-7.319,5.484,5.484,0,0,1,1.75-9.031,6.273,6.273,0,0,1,2.287-7.828l0,0c.053-.033.108-.065.162-.1" transform="translate(-832.196 -587.958)" fill="#2f282e"/>
            <path id="Path_1020269" data-name="Path 1020269" d="M1027.588,625.146a2.766,2.766,0,1,1-3.839-.751,2.766,2.766,0,0,1,3.839.751" transform="translate(-915.741 -558.765)" fill="#eb8b76"/>
            <path id="Path_1020270" data-name="Path 1020270" d="M1037.13,636.191a.985.985,0,0,1,.622-1.029,2.331,2.331,0,0,0-1.581-.44.207.207,0,1,1-.025-.413,3.025,3.025,0,0,1,3.021,2.016.207.207,0,1,1-.372.182,4.1,4.1,0,0,0-.7-1.038c-.391.119-.606.418-.56.638a.207.207,0,0,1-.406.085" transform="translate(-927.764 -568.06)" fill="#803b34"/>
            <g id="Group_1197693" data-name="Group 1197693" transform="translate(111.636 65.89)" opacity="0.33">
              <g id="Group_1197692" data-name="Group 1197692">
                <g id="Group_1197691" data-name="Group 1197691" clip-path="url(#clip-path-19)">
                  <g id="Group_1197690" data-name="Group 1197690" opacity="0.6">
                    <g id="Group_1197689" data-name="Group 1197689">
                      <g id="Group_1197688" data-name="Group 1197688" clip-path="url(#clip-path-19)">
                        <path id="Path_1020271" data-name="Path 1020271" d="M1068.975,632.31c-.089.885.9,1.709,2.218,1.841s2.449-.48,2.538-1.366-.9-1.709-2.218-1.841-2.45.48-2.538,1.366" transform="translate(-1068.969 -630.927)" fill="#803b34"/>
                      </g>
                    </g>
                  </g>
                </g>
              </g>
            </g>
            <path id="Path_1020272" data-name="Path 1020272" d="M1114.665,635.969l-4.627,1.9s2.142,1,3.517.323a2.38,2.38,0,0,0,1.11-2.22" transform="translate(-994.113 -569.552)" fill="#fff"/>
            <path id="Path_1020273" data-name="Path 1020273" d="M1065.75,751.374a.364.364,0,0,1-.057.047c-7.1,5-6.907,23.209-6.9,23.392a1.33,1.33,0,0,1-.021.237c-.733-.122-1.465-.269-2.173-.449-.007-2.291.172-18.267,6.975-24.283a17.335,17.335,0,0,1,2.18,1.056" transform="translate(-946.252 -671.96)" fill="#faa91a"/>
            <path id="Path_1020274" data-name="Path 1020274" d="M1167.042,1138.828a.359.359,0,0,1-.2-.661c5.271-3.409,8.161-3.867,8.282-3.885a.359.359,0,0,1,.105.711c-.028,0-2.879.468-8,3.777a.357.357,0,0,1-.195.057" transform="translate(-1044.843 -1015.823)" fill="#2f282e"/>
            <path id="Path_1020275" data-name="Path 1020275" d="M1189.117,841.733l6.1-6.413,4.23,1.836s-1.462,11.573-6.7,15.564c-4.633,3.526-9.154-.147-9.154-.147Z" transform="translate(-1059.986 -748.085)" fill="#eb8b76"/>
            <path id="Path_1020276" data-name="Path 1020276" d="M1109.988,940.234a.359.359,0,0,1-.305-.169c-1.584-2.546-3.7-5.095-4.337-4.832a.359.359,0,0,1-.276-.663c1.5-.626,4.378,3.757,5.223,5.116a.359.359,0,0,1-.3.549" transform="translate(-989.466 -836.915)" fill="#2f282e"/>
            <path id="Path_1020277" data-name="Path 1020277" d="M1573.946,652.235c-.821-.513-2.541-.364-4.024.435l2.209,3.109a6.692,6.692,0,0,0-.535,2.294c-.1,1.154.107,2.169.539,2.386a.28.28,0,0,0,.151.023c-1.153,2.271-.213,3.55.607,3.929a.851.851,0,0,0,.5.043,2.424,2.424,0,0,0,.876,1.876c.916.693,2.274,0,3.157-.654.086,1.911,1.94,2.261,2.666,1.278a25.756,25.756,0,0,0,2.407-4.213c.163-.639-.4-1.407-1.464-1.493a2.943,2.943,0,0,0,.153-.406c.341-1.2-.946-2.736-2.259-2.929a1.834,1.834,0,0,0,.054-.492,6.293,6.293,0,0,0-1.491-2.529,3.424,3.424,0,0,0-1.993-.416,6.6,6.6,0,0,0-1.549-2.239" transform="translate(-1405.97 -583.852)" fill="#eb8b76"/>
            <path id="Path_1020278" data-name="Path 1020278" d="M1586.454,724.975c-1.255-.281-1.632-2.228-1.648-2.313a.272.272,0,0,1,.535-.1c.092.491.505,1.785,1.305,1.9.914.122,3.676-2.367,4.89-5.132a.272.272,0,1,1,.5.218c-1.2,2.729-4.109,5.634-5.462,5.453-.04-.005-.08-.012-.118-.021" transform="translate(-1419.296 -644.057)" fill="#803b34"/>
            <path id="Path_1020279" data-name="Path 1020279" d="M1603.294,748.058a2.2,2.2,0,0,1-1.662-1.6.272.272,0,0,1,.532-.116,1.666,1.666,0,0,0,1.4,1.216c1.02.153,4.1-2.243,5.21-4.777a.272.272,0,1,1,.5.218c-1.164,2.649-4.445,5.3-5.791,5.1q-.1-.015-.187-.035" transform="translate(-1434.363 -665.06)" fill="#803b34"/>
            <path id="Path_1020280" data-name="Path 1020280" d="M1588.719,680.208a.272.272,0,0,1,.005-.532c1.981-.415,3.519-2.835,3.8-3.727a2.147,2.147,0,0,0-.578-1.8.272.272,0,0,1,.4-.375,2.648,2.648,0,0,1,.7,2.333c-.316,1.013-1.975,3.632-4.207,4.1a.271.271,0,0,1-.115,0" transform="translate(-1422.614 -603.336)" fill="#803b34"/>
            <path id="Path_1020281" data-name="Path 1020281" d="M721.535,797.636c-.211-.87-.825-.68-1.278-.743,1.245-.576,2.039-1.426,1.821-2.012-.137-.369-.652-.547-1.338-.54,1.366-.574,2.263-1.487,2.032-2.106-.141-.377-.676-.556-1.387-.539,0,0,6.182-1.461,6.03-2.946-.371-3.614-13.627,1.515-15.083.907-2.331-.972.767-6.72-.959-7.445s-7.5,7.727-8.485,9.952a13.441,13.441,0,0,0-1.052,4.534l6.871,6.768s13.377-3.574,12.828-5.832" transform="translate(-628.541 -700.485)" fill="#eb8b76"/>
            <path id="Path_1020282" data-name="Path 1020282" d="M763.793,794.986c-.027-.023-.042-.038-.045-.041a.227.227,0,0,1,0-.32.23.23,0,0,1,.321,0,.794.794,0,0,0,.624.194c.445-.051.925-.46,1.387-1.185a.227.227,0,1,1,.382.244,2.586,2.586,0,0,1-1.731,1.393,1.271,1.271,0,0,1-.942-.287" transform="translate(-683.929 -710.661)" fill="#803b34"/>
            <path id="Path_1020283" data-name="Path 1020283" d="M836.131,923.227a.227.227,0,0,1,.09-.393l3.668-.934a.227.227,0,0,1,.112.44l-3.668.934a.226.226,0,0,1-.2-.047" transform="translate(-748.74 -825.617)" fill="#803b34"/>
            <path id="Path_1020284" data-name="Path 1020284" d="M841.506,898.6a.227.227,0,0,1,.09-.393l3.668-.934a.227.227,0,0,1,.112.44l-3.668.934a.226.226,0,0,1-.2-.047" transform="translate(-753.553 -803.564)" fill="#803b34"/>
            <path id="Path_1020285" data-name="Path 1020285" d="M849.42,873.136a.227.227,0,0,1,.09-.393l3.668-.934a.227.227,0,0,1,.112.44l-3.668.934a.226.226,0,0,1-.2-.047" transform="translate(-760.641 -780.757)" fill="#803b34"/>
            <path id="Path_1020286" data-name="Path 1020286" d="M1283.017,738.515c-.376-.329-.595-.045-.822.071.384-.663.473-1.306.185-1.5-.181-.124-.473-.04-.784.183.44-.7.556-1.406.252-1.615-.186-.127-.487-.037-.807.2,0,0,2.354-2.653,1.807-3.282-1.33-1.531-5.736,5.069-6.6,5.26-1.377.3-1.808-3.315-2.83-3.092s-.941,5.937-.678,7.271a7.508,7.508,0,0,0,.976,2.409l5.312.884s4.961-5.93,3.985-6.785" transform="translate(-1139.675 -655.857)" fill="#eb8b76"/>
            <path id="Path_1020287" data-name="Path 1020287" d="M1274.521,763.06l-.034,0a.127.127,0,0,1-.1-.147.129.129,0,0,1,.147-.1.444.444,0,0,0,.348-.112,1.251,1.251,0,0,0,.253-.987.127.127,0,1,1,.253-.011,1.444,1.444,0,0,1-.343,1.192.71.71,0,0,1-.522.171" transform="translate(-1141.295 -682.042)" fill="#803b34"/>
            <path id="Path_1020288" data-name="Path 1020288" d="M1348.5,794.8a.127.127,0,0,1-.085-.208l1.375-1.6a.127.127,0,0,1,.192.165l-1.375,1.6a.126.126,0,0,1-.107.044" transform="translate(-1207.567 -710.129)" fill="#803b34"/>
            <path id="Path_1020289" data-name="Path 1020289" d="M1343.041,781.824a.125.125,0,0,1-.071-.03.126.126,0,0,1-.014-.178l1.375-1.6a.127.127,0,0,1,.192.165l-1.375,1.6a.127.127,0,0,1-.107.044" transform="translate(-1202.68 -698.512)" fill="#803b34"/>
            <path id="Path_1020290" data-name="Path 1020290" d="M1338.475,767.65a.127.127,0,0,1-.085-.208l1.375-1.6a.127.127,0,0,1,.192.165l-1.375,1.6a.126.126,0,0,1-.107.044" transform="translate(-1198.591 -685.818)" fill="#803b34"/>
            <path id="Path_1020291" data-name="Path 1020291" d="M1202.646,685.086a3.955,3.955,0,0,0-3.954,3.919l-.018-.005-.018.005a3.955,3.955,0,1,0-7.246,2.227h0c.157.236,7.264,8.7,7.264,8.7s7.107-8.468,7.264-8.7h0a3.955,3.955,0,0,0-3.292-6.146" transform="translate(-1066.394 -613.54)" fill="#e86849"/>
          </g>
        </g>
      </g>
    </g>
  </g>
</svg>
