<svg xmlns="http://www.w3.org/2000/svg" width="150" height="150" viewBox="0 0 150 150">
  <g id="img32" transform="translate(-383.746 -8400)">
    <circle id="Ellipse_13609" data-name="Ellipse 13609" cx="75" cy="75" r="75" transform="translate(383.746 8400)" fill="#fff"/>
    <path id="Path_1020422" data-name="Path 1020422" d="M82.181,107.3a27.925,27.925,0,0,0-10.9-6.1,14.983,14.983,0,1,0-15.73,0,28,28,0,0,0-19.964,23.854,1.681,1.681,0,0,0,1.672,1.86H89.571a1.681,1.681,0,0,0,1.672-1.86A27.926,27.926,0,0,0,82.181,107.3ZM51.794,88.458a11.62,11.62,0,1,1,11.623,11.62h-.005A11.633,11.633,0,0,1,51.794,88.458ZM39.2,123.555a24.564,24.564,0,0,1,24.212-20.114h.006a24.564,24.564,0,0,1,24.211,20.114Zm3.6-42.291V69.319a4.415,4.415,0,0,0,4.176-7.7L31.051,50.055a4.393,4.393,0,0,0-5.247-.043L9.825,61.622a4.418,4.418,0,0,0,1.9,7.94,4.478,4.478,0,0,0,.706.056,4.367,4.367,0,0,0,1.573-.3V81.264a5.6,5.6,0,0,0,5.594,5.594H37.2A5.6,5.6,0,0,0,42.8,81.264ZM12.251,66.241a1.055,1.055,0,0,1-.451-1.9L27.778,52.734a1.062,1.062,0,0,1,1.256.013l.028.021L45,64.345a1.055,1.055,0,0,1-1.236,1.71L29.386,55.611a1.681,1.681,0,0,0-1.977,0L13.036,66.053a1.05,1.05,0,0,1-.785.187Zm5.112,15.024v-14.2L28.4,59.049l11.035,8.018v14.2A2.234,2.234,0,0,1,37.2,83.5H33.454V71.708a1.682,1.682,0,0,0-1.681-1.681h-6.75a1.682,1.682,0,0,0-1.681,1.681V83.5H19.594a2.234,2.234,0,0,1-2.231-2.231ZM30.091,83.5H26.7V73.39h3.387Zm36.18-28.734a1.2,1.2,0,0,0,.273-1.009c-.058-.477-.194-1.594-3.388-2.119-4.581-.752-5.652-3.167-5.744-5.061a5.334,5.334,0,0,1,4.322-5.4v-.663a1.681,1.681,0,1,1,3.363,0v.645a6.094,6.094,0,0,1,4.3,3.653,1.681,1.681,0,0,1-3.1,1.3,3.072,3.072,0,0,0-3.646-1.7c-.326.074-1.948.518-1.876,2,.019.393.07,1.436,2.93,1.906,3.772.619,5.852,2.312,6.182,5.032a4.54,4.54,0,0,1-1.068,3.614A6.537,6.537,0,0,1,65.1,58.944v.6a1.681,1.681,0,1,1-3.363,0v-.63a6.111,6.111,0,0,1-4.775-4.435,1.681,1.681,0,0,1,3.263-.814c.393,1.578,2.046,2.1,3.35,2.07A3.906,3.906,0,0,0,66.271,54.762Zm-2.857,11.99A16.722,16.722,0,1,0,46.692,50.029,16.741,16.741,0,0,0,63.414,66.752Zm0-30.082A13.359,13.359,0,1,1,50.055,50.029,13.375,13.375,0,0,1,63.414,36.67Zm47.815,23.414L97.272,54.1a1.682,1.682,0,0,0-1.325,0L81.991,60.083a1.682,1.682,0,0,0-1.019,1.545V72.914c0,8.866,6.312,16.158,15.35,17.733a1.68,1.68,0,0,0,.578,0c9.038-1.576,15.35-8.868,15.35-17.733V61.629A1.682,1.682,0,0,0,111.229,60.083Zm-2.344,12.831A14.638,14.638,0,0,1,96.61,87.282,14.638,14.638,0,0,1,84.335,72.914V62.738L96.61,57.477l12.276,5.261ZM95.948,60.047l-8.492,3.639a1.682,1.682,0,0,0-1.019,1.545v7.682A12.334,12.334,0,0,0,96.2,85.04a1.679,1.679,0,0,0,.817,0,12.334,12.334,0,0,0,9.765-12.126V65.232a1.681,1.681,0,0,0-1.019-1.545l-8.492-3.639a1.681,1.681,0,0,0-1.324,0Zm7.473,6.294v6.573a9.014,9.014,0,0,1-6.811,8.753A9.014,9.014,0,0,1,89.8,72.915V66.341l6.811-2.919Z" transform="translate(398.622 8394.888)" fill="#4a4e3c"/>
  </g>
</svg>
