<svg xmlns="http://www.w3.org/2000/svg" width="150" height="150" viewBox="0 0 150 150">
  <g id="img7" transform="translate(-383.746 -8400)">
    <circle id="Ellipse_13609" data-name="Ellipse 13609" cx="75" cy="75" r="75" transform="translate(383.746 8400)" fill="#b9c296"/>
    <path id="Path_1020155" data-name="Path 1020155" d="M103.91,39.082,57.5,9.216a1.354,1.354,0,0,0-1.465,0L9.621,39.082A1.354,1.354,0,0,0,9,40.22v7.244a1.354,1.354,0,0,0,1.354,1.354H13.36v54.36a1.354,1.354,0,0,0,1.354,1.354h84.1a1.354,1.354,0,0,0,1.354-1.354V48.818h3.007a1.354,1.354,0,0,0,1.354-1.354V40.22A1.354,1.354,0,0,0,103.91,39.082ZM16.067,48.818h31.6a12.906,12.906,0,0,0-3.179,5.2H22.368a1.354,1.354,0,0,0-1.354,1.354v46.455H16.067Zm50.878,9.121a10.18,10.18,0,1,1-10.18-10.18A10.192,10.192,0,0,1,66.945,57.939Zm2.648-1.216H89.809v45.1H23.722v-45.1H43.937c-.038.4-.059.806-.059,1.216a12.887,12.887,0,1,0,25.775,0c0-.41-.021-.815-.059-1.216Zm27.87,45.1H92.517V55.369a1.354,1.354,0,0,0-1.354-1.354H69.04a12.9,12.9,0,0,0-3.179-5.2h31.6v53.006Zm4.36-55.714H61.876a12.858,12.858,0,0,0-10.221,0H11.707V40.959L56.765,11.964l45.058,28.995Zm-69.9-12.128v5.3a1.354,1.354,0,0,0,1.354,1.354H80.251A1.354,1.354,0,0,0,81.6,39.279v-5.3a1.354,1.354,0,0,0-1.354-1.354H33.28a1.354,1.354,0,0,0-1.354,1.354Zm2.707,1.354H78.9v2.589H34.634ZM50.5,89.161a1.2,1.2,0,0,1,.848-2.047A2.114,2.114,0,0,0,53.46,85V82.7a2.114,2.114,0,0,0-2.111-2.111,1.2,1.2,0,0,1-.848-2.047,2.112,2.112,0,0,0,0-2.986L48.87,73.921a2.112,2.112,0,0,0-2.986,0,1.2,1.2,0,0,1-2.047-.848,2.114,2.114,0,0,0-2.111-2.111H39.419a2.113,2.113,0,0,0-2.111,2.111,1.2,1.2,0,0,1-2.047.848,2.112,2.112,0,0,0-2.986,0l-1.631,1.631a2.111,2.111,0,0,0,0,2.986,1.2,1.2,0,0,1-.848,2.047A2.113,2.113,0,0,0,27.685,82.7V85A2.114,2.114,0,0,0,29.8,87.114a1.2,1.2,0,0,1,.848,2.047,2.112,2.112,0,0,0,0,2.986l1.631,1.631a2.112,2.112,0,0,0,2.986,0,1.2,1.2,0,0,1,2.047.848,2.113,2.113,0,0,0,2.111,2.111h2.307a2.114,2.114,0,0,0,2.111-2.111,1.2,1.2,0,0,1,2.047-.848,2.112,2.112,0,0,0,2.986,0L50.5,92.147a2.111,2.111,0,0,0,0-2.986Zm-2.759-2.342a3.836,3.836,0,0,0,.454,3.8l-.849.85a3.914,3.914,0,0,0-6.173,2.557h-1.2A3.912,3.912,0,0,0,33.8,91.473l-.85-.85a3.913,3.913,0,0,0-2.557-6.173v-1.2a3.914,3.914,0,0,0,2.557-6.173l.85-.85a3.914,3.914,0,0,0,6.173-2.557h1.2a3.914,3.914,0,0,0,6.173,2.557l.85.85a3.914,3.914,0,0,0,2.557,6.173v1.2a3.837,3.837,0,0,0-3.011,2.369Zm-7.169-9.96a6.99,6.99,0,1,0,6.99,6.99A7,7,0,0,0,40.573,76.86Zm0,11.273a4.283,4.283,0,1,1,4.283-4.283A4.288,4.288,0,0,1,40.573,88.132ZM56.7,49.392a1.352,1.352,0,0,1,1.386,1.321l.015.612a4.743,4.743,0,0,1,2.551,1.664,1.354,1.354,0,0,1-2.263,1.487,3.085,3.085,0,0,0-1.62-.669,1.447,1.447,0,1,0,0,2.83,4.3,4.3,0,0,1,4.455,4.123,4.176,4.176,0,0,1-3.075,3.92l.01.421a1.354,1.354,0,0,1-1.321,1.386H56.8a1.354,1.354,0,0,1-1.353-1.321l-.011-.461a5.274,5.274,0,0,1-2.2-1.382A1.354,1.354,0,0,1,55.1,61.353c.708.668,1.019.821,1.666.821a1.447,1.447,0,1,0,0-2.831,4.3,4.3,0,0,1-4.455-4.123A4.176,4.176,0,0,1,55.388,51.3l-.012-.523a1.353,1.353,0,0,1,1.32-1.386ZM60.07,83.85A12.887,12.887,0,1,0,72.958,70.962,12.9,12.9,0,0,0,60.07,83.85ZM72.958,73.67a10.18,10.18,0,1,1-10.18,10.18A10.192,10.192,0,0,1,72.958,73.67ZM71.116,83.85A1.833,1.833,0,0,1,71.6,82.6V76.564a1.354,1.354,0,0,1,2.707,0V82.6a1.834,1.834,0,0,1,.476,1.043l2.428,2.111A1.354,1.354,0,1,1,75.439,87.8l-2.43-2.113-.052,0a1.841,1.841,0,0,1-1.842-1.841Zm-8.5,11.116a1.354,1.354,0,0,1-1.354,1.354H55.058l.014.015a1.354,1.354,0,0,1-1.96,1.868l-2.194-2.3a1.354,1.354,0,0,1,0-1.868l2.194-2.3a1.354,1.354,0,1,1,1.96,1.868l-.014.015h6.208a1.354,1.354,0,0,1,1.354,1.354ZM35.063,67.16l3.1-5.376-.02,0a1.354,1.354,0,1,1-.638-2.631l3.091-.749a1.354,1.354,0,0,1,1.618.934l.9,3.052a1.354,1.354,0,0,1-2.6.763l-.006-.02-3.1,5.376a1.354,1.354,0,1,1-2.344-1.353ZM71.072,60.4a1.354,1.354,0,1,1,2.345-1.354l3.1,5.376.006-.02a1.354,1.354,0,0,1,2.6.763l-.9,3.052a1.353,1.353,0,0,1-1.617.934L73.519,68.4a1.354,1.354,0,1,1,.638-2.631l.02,0Z" transform="translate(401.981 8415.233)" fill="#4a4e3c"/>
  </g>
</svg>
