<svg xmlns="http://www.w3.org/2000/svg" width="150" height="150" viewBox="0 0 150 150">
  <g id="img8" transform="translate(-383.746 -8400)">
    <circle id="Ellipse_13609" data-name="Ellipse 13609" cx="75" cy="75" r="75" transform="translate(383.746 8400)" fill="#b9c296"/>
    <g id="Group_1197638" data-name="Group 1197638" transform="translate(392.154 8431.066)">
      <g id="Group_1197637" data-name="Group 1197637" transform="translate(27.352)">
        <g id="Group_1197621" data-name="Group 1197621" transform="translate(58.745 14.065)">
          <g id="Group_1197620" data-name="Group 1197620">
            <path id="Path_1020156" data-name="Path 1020156" d="M371.371,97.123a1.716,1.716,0,0,1-1.716-1.716V83.672a1.716,1.716,0,1,1,3.432,0V95.407A1.716,1.716,0,0,1,371.371,97.123Z" transform="translate(-369.655 -81.956)" fill="#4a4e3c"/>
          </g>
        </g>
        <g id="Group_1197623" data-name="Group 1197623" transform="translate(58.738 8.543)">
          <g id="Group_1197622" data-name="Group 1197622">
            <circle id="Ellipse_15179" data-name="Ellipse 15179" cx="1.716" cy="1.716" r="1.716" fill="#4a4e3c"/>
          </g>
        </g>
        <g id="Group_1197626" data-name="Group 1197626">
          <path id="Path_1020157" data-name="Path 1020157" d="M105.832,18.03A18.017,18.017,0,0,0,76.858,3.715H33.6a6.253,6.253,0,0,0-6.246,6.246V72.39A6.253,6.253,0,0,0,33.6,78.636h5.446v2.986a6.253,6.253,0,0,0,6.246,6.246H90.16a6.253,6.253,0,0,0,6.246-6.246v-23.8a1.716,1.716,0,1,0-3.432,0v23.8a2.817,2.817,0,0,1-2.813,2.813H45.289a2.817,2.817,0,0,1-2.813-2.813V78.636H78.469a6.253,6.253,0,0,0,6.246-6.246v-36.6a18.092,18.092,0,0,0,8.259-.49v7a1.716,1.716,0,0,0,3.432,0V33.872a18.046,18.046,0,0,0,9.426-15.842ZM81.283,72.391A2.817,2.817,0,0,1,78.469,75.2H33.6a2.817,2.817,0,0,1-2.813-2.814V9.961A2.817,2.817,0,0,1,33.6,7.147H73.442A17.935,17.935,0,0,0,69.8,17.268H40.571a1.716,1.716,0,0,0-1.716,1.716v7.248a1.716,1.716,0,0,0,1.716,1.716H71.5a1.709,1.709,0,0,0,1.038-.35,18.132,18.132,0,0,0,8.749,7.239ZM69.78,20.7v3.816H42.287V20.7ZM87.806,32.627a14.6,14.6,0,1,1,14.594-14.6A14.612,14.612,0,0,1,87.806,32.627Z" transform="translate(-27.352)" fill="#4a4e3c"/>
          <g id="Group_1197625" data-name="Group 1197625" transform="translate(65.625 48.317)">
            <g id="Group_1197624" data-name="Group 1197624">
              <path id="Path_1020158" data-name="Path 1020158" d="M411.454,284.97a1.716,1.716,0,1,1,1.672-1.327A1.733,1.733,0,0,1,411.454,284.97Z" transform="translate(-409.742 -281.541)" fill="#4a4e3c"/>
            </g>
          </g>
        </g>
        <g id="Group_1197636" data-name="Group 1197636" transform="translate(11.503 33.917)">
          <g id="Group_1197635" data-name="Group 1197635">
            <g id="Group_1197628" data-name="Group 1197628">
              <g id="Group_1197627" data-name="Group 1197627">
                <path id="Path_1020159" data-name="Path 1020159" d="M127.018,201.065H96.093a1.716,1.716,0,0,1,0-3.432h30.925a1.716,1.716,0,1,1,0,3.432Z" transform="translate(-94.377 -197.633)" fill="#4a4e3c"/>
              </g>
            </g>
            <g id="Group_1197630" data-name="Group 1197630" transform="translate(0 8.14)">
              <g id="Group_1197629" data-name="Group 1197629">
                <path id="Path_1020160" data-name="Path 1020160" d="M127.018,248.5H96.093a1.716,1.716,0,0,1,0-3.432h30.925a1.716,1.716,0,1,1,0,3.432Z" transform="translate(-94.377 -245.063)" fill="#4a4e3c"/>
              </g>
            </g>
            <g id="Group_1197632" data-name="Group 1197632" transform="translate(0 16.28)">
              <g id="Group_1197631" data-name="Group 1197631">
                <path id="Path_1020161" data-name="Path 1020161" d="M127.018,295.925H96.093a1.716,1.716,0,1,1,0-3.432h30.925a1.716,1.716,0,1,1,0,3.432Z" transform="translate(-94.377 -292.493)" fill="#4a4e3c"/>
              </g>
            </g>
            <g id="Group_1197634" data-name="Group 1197634" transform="translate(0 24.419)">
              <g id="Group_1197633" data-name="Group 1197633">
                <path id="Path_1020162" data-name="Path 1020162" d="M127.018,343.355H96.093a1.716,1.716,0,1,1,0-3.432h30.925a1.716,1.716,0,1,1,0,3.432Z" transform="translate(-94.377 -339.923)" fill="#4a4e3c"/>
              </g>
            </g>
          </g>
        </g>
      </g>
    </g>
  </g>
</svg>
