<svg xmlns="http://www.w3.org/2000/svg" width="150" height="150" viewBox="0 0 150 150">
  <g id="img9" transform="translate(-383.746 -8400)">
    <circle id="Ellipse_13609" data-name="Ellipse 13609" cx="75" cy="75" r="75" transform="translate(383.746 8400)" fill="#b9c296"/>
    <g id="Group_1197639" data-name="Group 1197639" transform="translate(417.599 8433.853)">
      <path id="Path_1020163" data-name="Path 1020163" d="M34.066,23.131A9.066,9.066,0,1,0,25,14.066,9.076,9.076,0,0,0,34.066,23.131Zm0-15.541a6.475,6.475,0,1,1-6.475,6.475A6.483,6.483,0,0,1,34.066,7.59Z" transform="translate(7.082 1.18)" fill="#4a4e3c" stroke="#4a4e3c" stroke-width="0.5"/>
      <path id="Path_1020164" data-name="Path 1020164" d="M32.885,16.77A3.885,3.885,0,1,0,29,12.885,3.89,3.89,0,0,0,32.885,16.77Zm0-5.18a1.3,1.3,0,1,1-1.3,1.3A1.3,1.3,0,0,1,32.885,11.59Z" transform="translate(8.262 2.361)" fill="#4a4e3c" stroke="#4a4e3c" stroke-width="0.5"/>
      <path id="Path_1020165" data-name="Path 1020165" d="M72.229,33H61.869a9.034,9.034,0,0,0-6.62,2.892A3.88,3.88,0,0,0,51.508,33H35.967a9.074,9.074,0,0,0-8.717,6.606A14.233,14.233,0,0,0,1,47.246v5.18a20.65,20.65,0,0,0,2.869,10.5A11.6,11.6,0,0,0,1,70.557v1.3H81.295v-1.3A11.67,11.67,0,0,0,70.934,58.978v-.964a9.076,9.076,0,0,0,5.077-6.883h1.4a3.89,3.89,0,0,0,3.885-3.885v-5.18A9.076,9.076,0,0,0,72.229,33ZM35.967,35.59H51.508a1.3,1.3,0,0,1,1.3,1.3V43.6a3.842,3.842,0,0,0-1.3-.238H49.975a3.88,3.88,0,0,0-3.647-2.59H35.967a3.88,3.88,0,0,0-3.647,2.59H30.787a3.842,3.842,0,0,0-1.3.238V42.066A6.483,6.483,0,0,1,35.967,35.59Zm27.2,23.388A11.67,11.67,0,0,0,54.1,65.242a11.673,11.673,0,0,0-9.066-6.264v-.964a9.076,9.076,0,0,0,5.077-6.883h1.4a3.86,3.86,0,0,0,2.59-1.01,3.854,3.854,0,0,0,2.59,1.01h1.4a9.076,9.076,0,0,0,5.077,6.883ZM32.082,48.541h-1.3a1.3,1.3,0,0,1,0-2.59h1.3Zm-2.59,3.885V50.893a3.842,3.842,0,0,0,1.3.238h1.4a9.076,9.076,0,0,0,5.077,6.883v.964A11.67,11.67,0,0,0,28.2,65.242a11.684,11.684,0,0,0-1.574-2.319,20.65,20.65,0,0,0,2.869-10.5ZM39.852,58.8a8.146,8.146,0,0,0,2.59,0v1.4a1.3,1.3,0,0,1-2.59,0Zm1.3-2.487a6.483,6.483,0,0,1-6.475-6.475v-5.18a1.3,1.3,0,0,1,1.3-1.3H46.328a1.3,1.3,0,0,1,1.3,1.3v5.18A6.483,6.483,0,0,1,41.147,56.311Zm-3.626,5.244a3.865,3.865,0,0,0,7.252,0A9.076,9.076,0,0,1,52.7,69.262H29.6a9.073,9.073,0,0,1,7.926-7.707Zm12.692-15.6h1.3a1.3,1.3,0,0,1,0,2.59h-1.3Zm7.77,2.59h-1.3a1.3,1.3,0,0,1,0-2.59h1.3ZM3.59,47.246a11.656,11.656,0,1,1,23.311,0v5.18a18.073,18.073,0,0,1-2.233,8.709,11.589,11.589,0,0,0-5.538-2.158v-.964a9.068,9.068,0,0,0,5.18-8.178v-2.59a6.483,6.483,0,0,0-6.475-6.475h-5.18A6.483,6.483,0,0,0,6.18,47.246v2.59a9.068,9.068,0,0,0,5.18,8.178v.964a11.558,11.558,0,0,0-5.538,2.158A18.073,18.073,0,0,1,3.59,52.426Zm11.656,9.066A6.483,6.483,0,0,1,8.77,49.836v-2.59a3.89,3.89,0,0,1,3.885-3.885h5.18a3.89,3.89,0,0,1,3.885,3.885v2.59A6.483,6.483,0,0,1,15.246,56.311Zm-1.3,2.487a8.146,8.146,0,0,0,2.59,0v1.4a1.3,1.3,0,0,1-2.59,0Zm-2.331,2.76a3.866,3.866,0,0,0,7.252,0A9.076,9.076,0,0,1,26.8,69.262H3.682a9.081,9.081,0,0,1,7.938-7.7Zm66.993,7.7H55.5a9.073,9.073,0,0,1,7.926-7.707,3.866,3.866,0,0,0,7.252,0A9.081,9.081,0,0,1,78.613,69.262ZM68.344,60.2a1.3,1.3,0,0,1-2.59,0V58.8a8.146,8.146,0,0,0,2.59,0Zm5.18-10.361a6.475,6.475,0,1,1-12.951,0v-5.18a1.3,1.3,0,0,1,1.3-1.3H72.229a1.3,1.3,0,0,1,1.3,1.3Zm3.885-1.3h-1.3v-2.59h1.3a1.3,1.3,0,1,1,0,2.59ZM78.7,43.6a3.842,3.842,0,0,0-1.3-.238H75.876a3.88,3.88,0,0,0-3.647-2.59H61.869a3.88,3.88,0,0,0-3.647,2.59H56.688a3.842,3.842,0,0,0-1.3.238V42.066a6.483,6.483,0,0,1,6.475-6.475H72.229A6.483,6.483,0,0,1,78.7,42.066Z" transform="translate(0 9.443)" fill="#4a4e3c" stroke="#4a4e3c" stroke-width="0.5"/>
      <path id="Path_1020166" data-name="Path 1020166" d="M77.41,8.77H53.131c.016-.023.025-.051.041-.074l.675-.9L48.594,2.546l-.9.675a1.684,1.684,0,0,1-2.677-1.109L44.86,1H37.434l-.159,1.112A1.684,1.684,0,0,1,34.6,3.221l-.9-.675L28.448,7.8l.675.9c.017.023.026.049.041.074H4.885A3.89,3.89,0,0,0,1,12.657V33.378a3.89,3.89,0,0,0,3.885,3.885h15l4.265,4.265a3.127,3.127,0,0,0,5.337-2.212V37.262h9.066a3.86,3.86,0,0,0,2.59-1.01,3.854,3.854,0,0,0,2.59,1.01H52.8v2.054a3.126,3.126,0,0,0,5.337,2.211L62.4,37.262h15a3.89,3.89,0,0,0,3.885-3.885V12.656A3.89,3.89,0,0,0,77.41,8.77ZM31.723,11.343a4.238,4.238,0,0,0,.036-3.192l2.294-2.294A4.286,4.286,0,0,0,39.526,3.59h3.243a4.288,4.288,0,0,0,5.474,2.268l2.294,2.294A4.288,4.288,0,0,0,52.8,13.626v3.243a4.288,4.288,0,0,0-2.268,5.474l-2.294,2.294A4.288,4.288,0,0,0,42.769,26.9H39.526a4.288,4.288,0,0,0-5.474-2.268l-2.294-2.294a4.288,4.288,0,0,0-2.268-5.474V13.626A4.233,4.233,0,0,0,31.723,11.343ZM52.8,29.492h-2.59V26.9H52.8Zm-14.246,5.18H26.9v4.644a.557.557,0,0,1-.916.379l-5.024-5.024H4.885a1.3,1.3,0,0,1-1.3-1.3V12.656a1.3,1.3,0,0,1,1.3-1.3H28.062c-.017,0-.031.01-.048.013l-1.112.159v7.426l1.112.159A1.684,1.684,0,0,1,29.123,21.8l-.675.9L33.7,27.945l.9-.675a1.684,1.684,0,0,1,2.677,1.109l.159,1.112h2.418v3.885a1.3,1.3,0,0,1-1.3,1.3Zm40.147-1.3a1.3,1.3,0,0,1-1.3,1.3H61.333L56.309,39.7a.557.557,0,0,1-.916-.379V34.672H43.738a1.3,1.3,0,0,1-1.3-1.3V29.492H44.86l.159-1.112a1.676,1.676,0,0,1,2.6-1.151v4.854H76.116V13.951h-7.77V29.492h-2.59V19.131h-7.77V29.492h-2.59v-5.18H52.229l1.619-1.619-.675-.9a1.684,1.684,0,0,1,1.109-2.677l1.111-.158V11.533l-1.112-.159c-.017,0-.031-.01-.048-.013H77.41a1.3,1.3,0,0,1,1.3,1.3ZM63.164,29.492h-2.59v-7.77h2.59Zm7.77,0V16.541h2.59V29.492Z" fill="#4a4e3c" stroke="#4a4e3c" stroke-width="0.5"/>
      <path id="Path_1020167" data-name="Path 1020167" d="M5,11h7.77v2.59H5Z" transform="translate(1.18 2.951)" fill="#4a4e3c" stroke="#4a4e3c" stroke-width="0.5"/>
      <path id="Path_1020168" data-name="Path 1020168" d="M13,11h7.77v2.59H13Z" transform="translate(3.541 2.951)" fill="#4a4e3c" stroke="#4a4e3c" stroke-width="0.5"/>
      <path id="Path_1020169" data-name="Path 1020169" d="M5,15H23.131v2.59H5Z" transform="translate(1.18 4.131)" fill="#4a4e3c" stroke="#4a4e3c" stroke-width="0.5"/>
      <path id="Path_1020170" data-name="Path 1020170" d="M5,19H23.131v2.59H5Z" transform="translate(1.18 5.311)" fill="#4a4e3c" stroke="#4a4e3c" stroke-width="0.5"/>
      <path id="Path_1020171" data-name="Path 1020171" d="M5,23H7.59v2.59H5Z" transform="translate(1.18 6.492)" fill="#4a4e3c" stroke="#4a4e3c" stroke-width="0.5"/>
      <path id="Path_1020172" data-name="Path 1020172" d="M9,23h2.59v2.59H9Z" transform="translate(2.361 6.492)" fill="#4a4e3c" stroke="#4a4e3c" stroke-width="0.5"/>
      <path id="Path_1020173" data-name="Path 1020173" d="M13,23h2.59v2.59H13Z" transform="translate(3.541 6.492)" fill="#4a4e3c" stroke="#4a4e3c" stroke-width="0.5"/>
      <path id="Path_1020174" data-name="Path 1020174" d="M17,23h2.59v2.59H17Z" transform="translate(4.721 6.492)" fill="#4a4e3c" stroke="#4a4e3c" stroke-width="0.5"/>
    </g>
  </g>
</svg>
