<svg xmlns="http://www.w3.org/2000/svg" width="84" height="84" viewBox="0 0 84 84">
  <g id="img18" transform="translate(-601 -4624)">
    <rect id="Rectangle_461439" data-name="Rectangle 461439" width="84" height="84" rx="9" transform="translate(601 4624)" fill="#9c3413"/>
    <path id="Path_1019994" data-name="Path 1019994" d="M60.471,23.317H48.933V14.233a.654.654,0,0,0-.654-.654h-3.13V7.016A2.019,2.019,0,0,0,43.133,5H24.841a2.019,2.019,0,0,0-2.016,2.016V13.58h-3.13a.654.654,0,0,0-.654.654v9.084H7.5a.654.654,0,0,0-.654.654V59.024a.654.654,0,0,0,.654.654H60.471a.654.654,0,0,0,.654-.654V23.97a.653.653,0,0,0-.654-.654ZM8.157,24.624H19.041V58.37H8.157ZM24.132,7.016a.71.71,0,0,1,.709-.709H43.133a.71.71,0,0,1,.709.709V21.55a.71.71,0,0,1-.709.709H24.841a.71.71,0,0,1-.709-.709ZM41.293,48.111V58.37H34.641V48.111ZM42.471,46.8H25.5V45.081H42.471Zm-9.137,1.307V58.37H26.681V48.111ZM47.626,58.37H42.6V48.111h.524a.654.654,0,0,0,.654-.654v-3.03a.654.654,0,0,0-.654-.654H24.85a.654.654,0,0,0-.654.654v3.03a.654.654,0,0,0,.654.654h.524V58.37H20.348V14.887h2.477V21.55a2.019,2.019,0,0,0,2.016,2.016H43.133a2.019,2.019,0,0,0,2.016-2.016V14.887h2.477Zm12.191,0H48.933V24.624H59.817Zm-31.5-32.121h-5.1a.654.654,0,0,0-.654.654V32a.654.654,0,0,0,.654.654h5.1A.654.654,0,0,0,28.971,32V26.9a.653.653,0,0,0-.654-.654Zm-.654,5.1h-3.79v-3.79h3.79Zm8.871-5.1h-5.1a.654.654,0,0,0-.654.654V32a.654.654,0,0,0,.654.654h5.1A.654.654,0,0,0,37.189,32V26.9a.653.653,0,0,0-.654-.654Zm-.654,5.1h-3.79v-3.79h3.79Zm8.871-5.1h-5.1A.654.654,0,0,0,39,26.9V32a.654.654,0,0,0,.654.654h5.1A.654.654,0,0,0,45.407,32V26.9a.653.653,0,0,0-.654-.654Zm-.654,5.1H40.31v-3.79H44.1ZM28.318,34.873h-5.1a.654.654,0,0,0-.654.654v5.1a.654.654,0,0,0,.654.654h5.1a.654.654,0,0,0,.654-.654v-5.1A.654.654,0,0,0,28.318,34.873Zm-.654,5.1h-3.79v-3.79h3.79Zm8.871-5.1h-5.1a.654.654,0,0,0-.654.654v5.1a.654.654,0,0,0,.654.654h5.1a.654.654,0,0,0,.654-.654v-5.1A.653.653,0,0,0,36.536,34.873Zm-.654,5.1h-3.79v-3.79h3.79Zm8.871-5.1h-5.1a.654.654,0,0,0-.654.654v5.1a.654.654,0,0,0,.654.654h5.1a.654.654,0,0,0,.654-.654v-5.1A.653.653,0,0,0,44.754,34.873Zm-.654,5.1H40.31v-3.79H44.1Zm7.726-3.491h5.1a.654.654,0,0,0,.654-.654v-5.1a.654.654,0,0,0-.654-.654h-5.1a.654.654,0,0,0-.654.654v5.1A.653.653,0,0,0,51.826,36.481Zm.654-5.1h3.79v3.79h-3.79ZM51.826,44.7h5.1a.654.654,0,0,0,.654-.654v-5.1a.654.654,0,0,0-.654-.654h-5.1a.654.654,0,0,0-.654.654v5.1A.654.654,0,0,0,51.826,44.7Zm.654-5.1h3.79v3.79h-3.79Zm-.654,13.316h5.1a.654.654,0,0,0,.654-.654v-5.1a.654.654,0,0,0-.654-.654h-5.1a.654.654,0,0,0-.654.654v5.1A.654.654,0,0,0,51.826,52.918Zm.654-5.1h3.79v3.79h-3.79ZM16.148,30.076h-5.1a.654.654,0,0,0-.654.654v5.1a.654.654,0,0,0,.654.654h5.1a.654.654,0,0,0,.654-.654v-5.1A.654.654,0,0,0,16.148,30.076Zm-.654,5.1H11.7v-3.79h3.79Zm.654,3.121h-5.1a.654.654,0,0,0-.654.654v5.1a.654.654,0,0,0,.654.654h5.1a.654.654,0,0,0,.654-.654v-5.1A.654.654,0,0,0,16.148,38.294Zm-.654,5.1H11.7V39.6h3.79Zm.654,3.119h-5.1a.654.654,0,0,0-.654.654v5.1a.654.654,0,0,0,.654.654h5.1a.654.654,0,0,0,.654-.654v-5.1A.654.654,0,0,0,16.148,46.512Zm-.654,5.1H11.7V47.82h3.79ZM28.626,17.424h2.221v2.221a.953.953,0,0,0,.952.952h4.379a.953.953,0,0,0,.952-.952V17.424H39.35a.953.953,0,0,0,.952-.952V12.094a.953.953,0,0,0-.952-.952H37.129V8.922a.953.953,0,0,0-.952-.952H31.8a.953.953,0,0,0-.952.952v2.221H28.626a.953.953,0,0,0-.952.952v4.379a.953.953,0,0,0,.952.951Zm.355-4.974H31.2a.953.953,0,0,0,.952-.952V9.277h3.667V11.5a.953.953,0,0,0,.952.952h2.221v3.667H36.773a.953.953,0,0,0-.952.952V19.29H32.154V17.068a.953.953,0,0,0-.952-.952H28.981Z" transform="translate(609.013 4633.661)" fill="#fff"/>
  </g>
</svg>
