<svg xmlns="http://www.w3.org/2000/svg" width="84" height="84" viewBox="0 0 84 84">
  <g id="img17" transform="translate(-527 -4337)">
    <rect id="Rectangle_461431" data-name="Rectangle 461431" width="84" height="84" rx="10" transform="translate(527 4337)" fill="#b9c296"/>
    <g id="Group_1197578" data-name="Group 1197578" transform="translate(543.354 4353.406)">
      <path id="Path_1019976" data-name="Path 1019976" d="M0,333.664H5.513v13.03H0Zm0,0" transform="translate(0 -300.237)" fill="#96d1f3"/>
      <path id="Path_1019977" data-name="Path 1019977" d="M0,433.715H5.513v3.007H0Zm0,0" transform="translate(0 -390.265)" fill="#73c1ef"/>
      <path id="Path_1019978" data-name="Path 1019978" d="M99.7,334.842a4.811,4.811,0,0,0-6.219-1.427l-9.435,5.146a2.406,2.406,0,0,0-2.359-2.877H74.4s-1.141-2.488-2.062-3.132c-4.844-4.432-14,.368-14,.368H55.027v9.132h5.264l18.528,5.86,20.912-13.03Zm0,0" transform="translate(-49.515 -297.546)" fill="#f7e0ba"/>
      <path id="Path_1019979" data-name="Path 1019979" d="M99.7,357.452a4.794,4.794,0,0,0-2.083-1.651L86.772,362.56a5.407,5.407,0,0,0,.21-2.989l-2.934,1.6a2.406,2.406,0,0,1-2.359,1.934H73.55a2.084,2.084,0,0,0-2.084,2.084l-11.174-3.535H55.028v3.007h5.264l18.528,5.86,20.912-13.03Zm0,0" transform="translate(-49.515 -320.156)" fill="#f5cc89"/>
      <path id="Path_1019980" data-name="Path 1019980" d="M125.1,39.346,109.887,24.078a9.717,9.717,0,0,1,13.769-13.715l1.44,1.446,1.44-1.446A9.717,9.717,0,1,1,140.3,24.078Zm0,0" transform="translate(-96.329 -6.751)" fill="#e46a4a"/>
      <path id="Path_1019981" data-name="Path 1019981" d="M231.142,93.553h-4.009V89.544h-6.014v4.009H217.11v6.014h4.009v4.009h6.014V99.567h4.009Zm0,0" transform="translate(-195.359 -80.573)" fill="#fff"/>
      <path id="Path_1019982" data-name="Path 1019982" d="M125.119,120.2l-18.036-18.106a9.688,9.688,0,0,0,2.827,7.1l15.209,15.268,15.209-15.268a9.687,9.687,0,0,0,2.827-7.1Zm0,0" transform="translate(-96.353 -91.866)" fill="#db380e"/>
      <path id="Path_1019983" data-name="Path 1019983" d="M212.193,334.281a5.561,5.561,0,0,0-7.19-1.65l-8.372,4.566a3.163,3.163,0,0,0-3.063-2.389h-6.813a9.5,9.5,0,0,0-2.062-2.965,7.447,7.447,0,0,0-2.041-1.308l-.6,1.379a5.945,5.945,0,0,1,1.657,1.068l.036.033.041.029a9.683,9.683,0,0,1,1.809,2.829l.2.438h7.769a1.654,1.654,0,0,1,0,3.308H183.345v1.5h10.224a3.162,3.162,0,0,0,3-2.18l9.153-4.992a4.057,4.057,0,0,1,4.75.63l-19.878,12.386-10.778-3.409-.453,1.433,11.439,3.618,21.885-13.637Zm0,0" transform="translate(-161.394 -297.422)"/>
      <path id="Path_1019984" data-name="Path 1019984" d="M19.69,323.408a10.91,10.91,0,0,0-2.32-.237h0a21.729,21.729,0,0,0-8.725,2.246H6.264v-1.947H0v1.5H4.761V336.5H0V338H6.264v-1.951h4.4l5.875,1.858.454-1.433-6.1-1.928H6.264v-7.629H9.008l.164-.086a20.734,20.734,0,0,1,8.2-2.161h0a9.435,9.435,0,0,1,2,.2Zm0,0" transform="translate(0 -290.796)"/>
      <path id="Path_1019985" data-name="Path 1019985" d="M197.992,58.954a8.907,8.907,0,0,1-2.614,6.327l-14.5,14.558-.174.175L169.916,69.187l-1.065,1.061,11.851,11.9,15.741-15.8a10.476,10.476,0,0,0,1.745-12.459l-1.315.729a8.976,8.976,0,0,1,1.119,4.342Zm0,0" transform="translate(-151.936 -48.485)"/>
      <path id="Path_1019986" data-name="Path 1019986" d="M147.668,186.455l1.065-1.061,1.061,1.065-1.065,1.061Zm0,0" transform="translate(-132.875 -166.821)"/>
      <path id="Path_1019987" data-name="Path 1019987" d="M432.551,30.58l1.187-.924a10.6,10.6,0,0,0-.881-1q-.1-.1-.207-.2l-1.032,1.093q.09.085.178.173a9.117,9.117,0,0,1,.756.853Zm0,0" transform="translate(-388.378 -25.61)"/>
      <path id="Path_1019988" data-name="Path 1019988" d="M103.311,18.568l1.065-1.061-.708-.711a8.966,8.966,0,0,1,12.7-12.654l1.087,1.091.886.89,1.973-1.981A8.97,8.97,0,0,1,131.74,3.074l.852-1.239a10.473,10.473,0,0,0-13.34,1.246l-.908.911-.908-.911A10.469,10.469,0,0,0,102.6,17.857Zm0,0" transform="translate(-89.578 0)"/>
      <path id="Path_1019989" data-name="Path 1019989" d="M213.615,82.039v4.009h-4.009v7.517h4.009v4.009h7.517V93.566h4.009V86.048h-4.009V82.039Zm10.023,5.513v4.51h-4.009v4.009h-4.51V92.062h-4.009v-4.51h4.009V83.543h4.51v4.009Zm0,0" transform="translate(-188.607 -73.82)"/>
      <g id="Group_1197577" data-name="Group 1197577" transform="translate(1.654 3.007)">
        <path id="Path_1019990" data-name="Path 1019990" d="M18.011,361.186h-1.5v-1.5h1.5Zm0-3.007h-1.5v-1.5h1.5Zm0,0" transform="translate(-16.508 -323.951)" fill="#fff"/>
        <path id="Path_1019991" data-name="Path 1019991" d="M112.815,355.966l-.562-1.394c.477-.192.969-.37,1.464-.53l.461,1.431C113.718,355.621,113.259,355.787,112.815,355.966Zm2.755-.885-.35-1.462a11.326,11.326,0,0,1,4.673-.277l-.286,1.476a9.926,9.926,0,0,0-4.038.263Zm0,0" transform="translate(-102.662 -320.829)" fill="#fff"/>
        <path id="Path_1019992" data-name="Path 1019992" d="M376.2,37.466A5.975,5.975,0,0,0,372.82,32.1l.652-1.355a7.48,7.48,0,0,1,4.228,6.714Zm-4.633-5.8a6.024,6.024,0,0,0-1.325-.147v-1.5a7.527,7.527,0,0,1,1.657.184Zm0,0" transform="translate(-334.801 -30.016)" fill="#fff"/>
      </g>
    </g>
  </g>
</svg>
