<svg xmlns="http://www.w3.org/2000/svg" width="84" height="84" viewBox="0 0 84 84">
  <g id="img19" transform="translate(-185 -4624)">
    <rect id="Rectangle_461434" data-name="Rectangle 461434" width="84" height="84" rx="9" transform="translate(185 4624)" fill="#9c3413"/>
    <path id="Path_1019993" data-name="Path 1019993" d="M58.291,54.385H56.976v-2.49a.708.708,0,0,0-.709-.708H54.7V21.663h2.073a.709.709,0,0,0,.709-.709v-3.2a.709.709,0,0,0-.709-.709H54.7V9.708A.708.708,0,0,0,53.992,9H14.008a.709.709,0,0,0-.709.709v7.339H11.227a.709.709,0,0,0-.709.709v3.2a.709.709,0,0,0,.709.709H13.3V51.186H11.733a.708.708,0,0,0-.709.708v2.49H9.708A.709.709,0,0,0,9,55.093v3.2A.709.709,0,0,0,9.708,59H58.291A.708.708,0,0,0,59,58.292v-3.2a.708.708,0,0,0-.708-.709ZM56.065,20.246H41.46a7.285,7.285,0,0,0,0-1.781H56.065ZM14.717,10.417H53.283v6.63H41.15a7.513,7.513,0,0,0-14.3,0H14.717ZM40.1,19.355a6.1,6.1,0,1,1-6.1-6.1A6.1,6.1,0,0,1,40.1,19.355Zm-28.162-.891H26.54a7.285,7.285,0,0,0,0,1.781H11.935Zm2.781,3.2H26.85a7.513,7.513,0,0,0,14.3,0H53.283V51.186H41.267V30.054a.709.709,0,0,0-.709-.708H27.442a.709.709,0,0,0-.708.709V51.186H14.717ZM39.85,51.186H28.15V30.762h11.7ZM12.441,52.6H55.559v1.781H12.441Zm45.142,4.98H10.417V55.8H57.583ZM36.217,17.138v-1.68a.709.709,0,0,0-.708-.709H32.492a.709.709,0,0,0-.709.709v1.68H30.1a.709.709,0,0,0-.709.709v3.016a.709.709,0,0,0,.709.709h1.68v1.68a.709.709,0,0,0,.709.709h3.016a.709.709,0,0,0,.708-.709v-1.68H37.9a.709.709,0,0,0,.709-.709V17.847a.709.709,0,0,0-.709-.709Zm.972,3.016h-1.68a.709.709,0,0,0-.709.709v1.68H33.2v-1.68a.709.709,0,0,0-.709-.708h-1.68v-1.6h1.68a.709.709,0,0,0,.709-.709v-1.68h1.6v1.68a.709.709,0,0,0,.709.709h1.68Zm6.484,22.607h7.206a.708.708,0,0,0,.709-.708v-12a.709.709,0,0,0-.709-.709H43.672a.709.709,0,0,0-.708.709v12a.709.709,0,0,0,.709.708Zm.708-12H50.17V41.345H44.38ZM24.328,29.345H17.122a.709.709,0,0,0-.709.709v12a.709.709,0,0,0,.709.708h7.206a.709.709,0,0,0,.709-.708v-12a.708.708,0,0,0-.708-.709Zm-.709,12H17.83V30.762H23.62Zm14.026-.371a.817.817,0,1,1,.817.817.817.817,0,0,1-.817-.817Z" transform="translate(193 4632)" fill="#fff" fill-rule="evenodd"/>
  </g>
</svg>
