<svg xmlns="http://www.w3.org/2000/svg" width="84" height="84" viewBox="0 0 84 84">
  <g id="img12" transform="translate(-185 -3232)">
    <rect id="Rectangle_461427" data-name="Rectangle 461427" width="84" height="84" rx="9" transform="translate(185 3232)" fill="#9c3413"/>
    <g id="Group_1197572" data-name="Group 1197572" transform="translate(136.169 3240.516)">
      <path id="Path_1019973" data-name="Path 1019973" d="M113.608,203.56a1.308,1.308,0,0,0,1.308-1.308h0a1.308,1.308,0,1,0-1.308,1.309Z" transform="translate(-40.261 -174.659)" fill="#fff"/>
      <path id="Path_1019974" data-name="Path 1019974" d="M115.646,42.657A10.38,10.38,0,0,0,114.8,40.1a7.763,7.763,0,0,1-.608-1.756c1.056-1.287.366-2.833-.1-3.864-.376-.842-.626-1.462-.416-1.775,1.466-2.186,1.849-4.066,1.136-5.586a4.539,4.539,0,0,0-3.893-2.36c-.587-.061-1.178-.094-1.75-.126a12.02,12.02,0,0,1-2.259-.249c-1.9-2.9-3.646-3.639-5.676-3.849-3.523-.365-4.921-1.026-5.473-1.516-.46-.409-.492-.832-.517-1.676a3.648,3.648,0,0,0-1.963-3.63c-.481-.248-.763-.585-.578-1.426.492-2.235,3.972-5.529,6.569-5.639a2.283,2.283,0,0,0,2.2-1.75A4.105,4.105,0,0,0,99.376.686C98.227,0,95.07-1.147,90.588,2.975c-.911.838-4.531,1.894-6.271,2.4l-.45.132A3.445,3.445,0,0,0,81.1,8.265a8.365,8.365,0,0,1-1.156,2.49,6.509,6.509,0,0,1-.652.856c-1.248-.186-1.825.951-2.052,1.4-.927,1.827-1.582,1.878-2.016,1.912a4.718,4.718,0,0,0-3.263,1.972,6.692,6.692,0,0,0-1.418,5.033,1.308,1.308,0,1,0,2.579-.44,4.131,4.131,0,0,1,.9-2.984,2.273,2.273,0,0,1,1.4-.972c1.177-.091,2.7-.545,4.1-3.25,1-.031,1.78-.857,2.592-2.074A10.939,10.939,0,0,0,83.6,9.026c.238-.784.238-.784,1-1.008l.445-.13C88.183,6.974,91.1,6.057,92.358,4.9c2.224-2.044,4.282-2.768,5.647-1.986a1.932,1.932,0,0,1,.921,1.135,9.978,9.978,0,0,0-5.4,2.61,10.144,10.144,0,0,0-3.369,5.065,3.658,3.658,0,0,0,1.935,4.314c.46.237.516.379.545,1.381a4.467,4.467,0,0,0,1.4,3.555c1.255,1.115,3.461,1.8,6.941,2.162,1.195.124,2.308.419,3.834,2.8.714,1.113,2.263,1.2,4.224,1.309.541.03,1.1.062,1.625.116a2.18,2.18,0,0,1,1.8.868c.283.605-.059,1.706-.94,3.02a3.027,3.027,0,0,0-.42.923H73.416a1.308,1.308,0,0,0-1.287,1.542,5.805,5.805,0,0,1-1,4.189,1.568,1.568,0,0,1-.963.659c-1.663.1-2.607.444-3.156,1.155a2.435,2.435,0,0,0-.333,2.086l.007.037a2.019,2.019,0,0,0-.6,2.212c.368,1.221,2.238,3.279,3.507,3.224h.036c.771,0,1.886.952,2.784,1.719,1.217,1.039,2.37,2.021,3.7,1.883h.044a1.3,1.3,0,0,0,.679-.192,2.615,2.615,0,0,0,.892-.675,18.1,18.1,0,0,1,3.237,1.111,14.1,14.1,0,0,1,3.183,1.736,2.622,2.622,0,0,0,1.876,2.415A2.753,2.753,0,0,0,88.182,57.9a3.558,3.558,0,0,0,1.412,2.043c1.709,1.169,4.115.6,5.554.253.25-.059.533-.127.64-.139,1.607-.188,2.019.527,2.594,3.086a8.813,8.813,0,0,0,.793,2.446,2.539,2.539,0,0,0,2.267,1.379,3.135,3.135,0,0,0,.525-.046,3.4,3.4,0,0,0,2.9-2.527,10.6,10.6,0,0,0,.145-3.43,14.442,14.442,0,0,1,.012-2.871,6.82,6.82,0,0,1,.443-1.577,5.439,5.439,0,0,0,.179-3.975,8.726,8.726,0,0,0-.652-1.639c-.286-.579-.281-.591-.2-.789.094-.228.145-.272.718-.44a2.964,2.964,0,0,0,2.028-1.452,4.358,4.358,0,0,0,.008-3.653c-.042-.124-.094-.274-.131-.4.531-.228.984-.012,2.073.723,1.125.76,2.826,1.909,4.844.712a2.76,2.76,0,0,0,1.311-2.945ZM103.023,55.585a9.363,9.363,0,0,0-.586,2.125,16.613,16.613,0,0,0-.035,3.411c.165,2.742-.031,3.077-.874,3.22l-.049.007a6.992,6.992,0,0,1-.546-1.78,9.456,9.456,0,0,0-1.258-3.42A4.041,4.041,0,0,0,96.2,57.414a6.137,6.137,0,0,0-.714.043,8.751,8.751,0,0,0-.942.193c-.882.21-2.718.647-3.471.133a1.136,1.136,0,0,1-.429-.883A1.863,1.863,0,0,0,89,55.405a2.278,2.278,0,0,1-.309-.082,1.658,1.658,0,0,1-.076-.686,1.725,1.725,0,0,0-1.729-1.859l-.072-.008a2.241,2.241,0,0,1-.11-.51,2.114,2.114,0,0,0-.855-1.384h16.34a5.025,5.025,0,0,0,.457,1.182,6.189,6.189,0,0,1,.475,1.172A2.935,2.935,0,0,1,103.023,55.585Zm10.036-12.276a.241.241,0,0,1-.058.042c-.5.3-.823.2-2.046-.63-1.168-.789-2.934-1.982-5.082-.695-1.625.973-1.067,2.6-.8,3.386.238.7.374,1.148.149,1.593a2.853,2.853,0,0,1-.446.155,3.593,3.593,0,0,0-1.892,1.1h-22a17.507,17.507,0,0,0-2.559-.8c-.5-.1-1.841-.379-2.45.668a1.275,1.275,0,0,1-.079.121A8.954,8.954,0,0,1,74.112,47c-1.246-1.065-2.649-2.263-4.306-2.342a5.189,5.189,0,0,1-1.076-1.1,2.346,2.346,0,0,0,.518-2.253,5.949,5.949,0,0,1,1.073-.14,3.955,3.955,0,0,0,2.865-1.654,8.413,8.413,0,0,0,1.621-4.731h36.581c.106.274.221.529.323.76a5.1,5.1,0,0,1,.428,1.176c-1.086,1.254-.373,2.926.257,4.4a6.03,6.03,0,0,1,.661,2.181Z" transform="translate(0 0)" fill="#fff"/>
    </g>
  </g>
</svg>
