<svg xmlns="http://www.w3.org/2000/svg" width="84" height="84" viewBox="0 0 84 84">
  <g id="img10" transform="translate(-1017 -3128)">
    <rect id="Rectangle_461421" data-name="Rectangle 461421" width="84" height="84" rx="9" transform="translate(1017 3128)" fill="#9c3413"/>
    <path id="Path_1019969" data-name="Path 1019969" d="M68.669,38.334a3.789,3.789,0,0,0-3.054-3.712,27.371,27.371,0,0,0-5.367-12.954A3.781,3.781,0,0,0,55,16.421a27.373,27.373,0,0,0-12.954-5.367,3.783,3.783,0,0,0-7.423,0,27.372,27.372,0,0,0-12.954,5.367,3.781,3.781,0,0,0-5.248,5.248,27.372,27.372,0,0,0-5.367,12.954,3.783,3.783,0,0,0,0,7.423A27.373,27.373,0,0,0,16.421,55a3.781,3.781,0,0,0,5.248,5.248,27.372,27.372,0,0,0,12.954,5.367,3.783,3.783,0,0,0,7.423,0A27.371,27.371,0,0,0,55,60.248,3.781,3.781,0,0,0,60.248,55a27.372,27.372,0,0,0,5.367-12.954A3.789,3.789,0,0,0,68.669,38.334Zm-1.957,0a1.826,1.826,0,1,1-1.826-1.826A1.828,1.828,0,0,1,66.712,38.334Zm-9.6-20.6a1.826,1.826,0,1,1-1.826,1.826A1.828,1.828,0,0,1,57.109,17.734ZM38.334,9.957a1.826,1.826,0,1,1-1.826,1.826A1.828,1.828,0,0,1,38.334,9.957ZM19.56,17.734a1.826,1.826,0,1,1-1.826,1.826A1.828,1.828,0,0,1,19.56,17.734Zm-9.6,20.6a1.826,1.826,0,1,1,1.826,1.826,1.828,1.828,0,0,1-1.826-1.826Zm9.6,20.6a1.826,1.826,0,1,1,1.826-1.826A1.828,1.828,0,0,1,19.56,58.935Zm18.775,7.777a1.826,1.826,0,1,1,1.826-1.826A1.828,1.828,0,0,1,38.334,66.712Zm0-5.609a3.789,3.789,0,0,0-3.578,2.556,25.42,25.42,0,0,1-11.8-4.889A3.781,3.781,0,0,0,17.9,53.711a25.422,25.422,0,0,1-4.889-11.8,3.782,3.782,0,0,0,0-7.155,25.419,25.419,0,0,1,4.889-11.8A3.781,3.781,0,0,0,22.958,17.9a25.422,25.422,0,0,1,11.8-4.889,3.782,3.782,0,0,0,7.155,0,25.42,25.42,0,0,1,11.8,4.889,3.781,3.781,0,0,0,5.059,5.059,25.421,25.421,0,0,1,4.889,11.8,3.782,3.782,0,0,0,0,7.155,25.42,25.42,0,0,1-4.889,11.8,3.781,3.781,0,0,0-5.059,5.059,25.42,25.42,0,0,1-11.8,4.889A3.788,3.788,0,0,0,38.334,61.1Zm18.775-2.168a1.826,1.826,0,1,1,1.826-1.826A1.828,1.828,0,0,1,57.109,58.935ZM30.724,37.788H45.945a.978.978,0,0,0,.973-1.083,8.6,8.6,0,0,0-5.28-7.052,4.849,4.849,0,1,0-6.606,0,8.6,8.6,0,0,0-5.28,7.052.978.978,0,0,0,.973,1.083Zm7.61-14.571a2.892,2.892,0,1,1-2.892,2.892A2.895,2.895,0,0,1,38.335,23.217Zm0,7.74a6.66,6.66,0,0,1,6.431,4.874H31.9A6.66,6.66,0,0,1,38.334,30.957Zm8.338,24.128a.978.978,0,0,0,.245-.758,8.6,8.6,0,0,0-5.28-7.052,4.849,4.849,0,1,0-6.606,0,8.6,8.6,0,0,0-5.28,7.052.978.978,0,0,0,.973,1.083H45.945a.979.979,0,0,0,.728-.325ZM35.443,43.73a2.892,2.892,0,1,1,2.894,2.892h-.005A2.9,2.9,0,0,1,35.443,43.73ZM31.9,53.452a6.66,6.66,0,0,1,6.429-4.874h.005a6.66,6.66,0,0,1,6.428,4.874Zm.085-7.178a.978.978,0,0,0,.245-.758,8.6,8.6,0,0,0-5.28-7.052,4.849,4.849,0,1,0-6.606,0,8.6,8.6,0,0,0-5.28,7.052A.978.978,0,0,0,16.04,46.6H31.26a.978.978,0,0,0,.728-.324ZM20.759,34.919a2.892,2.892,0,1,1,2.892,2.892,2.895,2.895,0,0,1-2.892-2.892Zm-3.54,9.722a6.68,6.68,0,0,1,12.862,0Zm27.217.874a.978.978,0,0,0,.973,1.083H60.629a.978.978,0,0,0,.973-1.083,8.605,8.605,0,0,0-5.28-7.052,4.849,4.849,0,1,0-6.606,0A8.605,8.605,0,0,0,44.436,45.516Zm5.692-10.6a2.892,2.892,0,1,1,2.892,2.892A2.895,2.895,0,0,1,50.127,34.919Zm2.892,4.849a6.66,6.66,0,0,1,6.431,4.874H46.588A6.66,6.66,0,0,1,53.019,39.768Z" transform="translate(1021 3132)" fill="#fff"/>
  </g>
</svg>
