<svg xmlns="http://www.w3.org/2000/svg" width="84" height="84" viewBox="0 0 84 84">
  <g id="img20" transform="translate(-1017 -4624)">
    <rect id="Rectangle_461443" data-name="Rectangle 461443" width="84" height="84" rx="9" transform="translate(1017 4624)" fill="#9c3413"/>
    <g id="Group_1197582" data-name="Group 1197582" transform="translate(1034.307 4633)">
      <path id="Path_1019995" data-name="Path 1019995" d="M250.822,223.136h-.89v-1.953a.723.723,0,0,0-1.447,0v2.676a.723.723,0,0,0,.723.723h1.613a.723.723,0,0,0,0-1.447Z" transform="translate(-224.517 -191.063)" fill="#fff"/>
      <path id="Path_1019996" data-name="Path 1019996" d="M199.316,185.377a6.076,6.076,0,1,0,6.05,6.076,6.07,6.07,0,0,0-6.05-6.076Zm0,10.7a4.629,4.629,0,1,1,4.6-4.629,4.621,4.621,0,0,1-4.6,4.629Z" transform="translate(-174.624 -159.364)" fill="#fff"/>
      <path id="Path_1019997" data-name="Path 1019997" d="M48.211,275.062H54.9a1.069,1.069,0,0,0,1.068-1.068v-3.329A1.069,1.069,0,0,0,54.9,269.6H48.211a1.071,1.071,0,0,0-1.071,1.068v3.329A1.071,1.071,0,0,0,48.211,275.062Zm4.065-4.018h2.242v2.571H52.275Zm-3.688,0h2.242v2.571H48.587Z" transform="translate(-42.593 -235.46)" fill="#fff"/>
      <path id="Path_1019998" data-name="Path 1019998" d="M47.14,348.978a1.072,1.072,0,0,0,1.071,1.071H54.9a1.07,1.07,0,0,0,1.068-1.071v-3.327a1.071,1.071,0,0,0-1.068-1.071H48.211a1.072,1.072,0,0,0-1.071,1.071v3.327Zm5.135-2.95h2.242V348.6H52.275Zm-3.688,0h2.242V348.6H48.587Z" transform="translate(-42.593 -303.211)" fill="#fff"/>
      <path id="Path_1019999" data-name="Path 1019999" d="M374.423,275.062h6.685a1.069,1.069,0,0,0,1.068-1.068v-3.329a1.069,1.069,0,0,0-1.068-1.068h-6.685a1.071,1.071,0,0,0-1.071,1.068v3.329A1.071,1.071,0,0,0,374.423,275.062Zm4.065-4.018h2.242v2.571h-2.242Zm-3.688,0h2.242v2.571H374.8Z" transform="translate(-337.339 -235.46)" fill="#fff"/>
      <path id="Path_1020000" data-name="Path 1020000" d="M374.423,350.049h6.685a1.07,1.07,0,0,0,1.068-1.071v-3.327a1.071,1.071,0,0,0-1.068-1.071h-6.685a1.072,1.072,0,0,0-1.071,1.071v3.327A1.072,1.072,0,0,0,374.423,350.049Zm4.065-4.021h2.242V348.6h-2.242Zm-3.688,0h2.242V348.6H374.8Z" transform="translate(-337.339 -303.211)" fill="#fff"/>
      <path id="Path_1020001" data-name="Path 1020001" d="M48.414,26.36H34.463V24.2h.887A1.057,1.057,0,0,0,36.4,23.139V20.127A1.057,1.057,0,0,0,35.35,19.07H25.415V16.942H31.15a1.309,1.309,0,0,0,1.306-1.308V11.465a1.309,1.309,0,0,0-1.306-1.308H25.415V9.723a.723.723,0,1,0-1.447,0V19.07H14.037a1.058,1.058,0,0,0-1.057,1.057v3.012A1.058,1.058,0,0,0,14.037,24.2h.887V26.36H.969a.972.972,0,0,0-.97.972v2.539a.972.972,0,0,0,.97.972h.469v9.642a.723.723,0,0,0,1.447,0V30.844H14.924V55.2H2.885V43.826a.723.723,0,0,0-1.447,0V55.49A1.164,1.164,0,0,0,2.6,56.65H46.785a1.162,1.162,0,0,0,1.161-1.161V30.844h.469a.973.973,0,0,0,.972-.972V27.332A.973.973,0,0,0,48.414,26.36Zm-23-14.757h5.594v3.892H25.415ZM14.924,29.4H1.447v-1.59H14.924Zm33.016-1.59V29.4H34.463v-1.59ZM29.694,55.2h-10V53.444h10V55.2ZM21.054,52V43.582h2.914V52Zm4.361,0V43.582H28.33V52Zm4.361,0v-8.63a1.236,1.236,0,0,0-1.235-1.235h-7.7a1.237,1.237,0,0,0-1.237,1.235V52a1.378,1.378,0,0,0-1.364,1.35V55.2H16.37V24.2h6.561a.723.723,0,1,0,0-1.447h-8.5V20.517H34.957v2.232H26.152a.723.723,0,1,0,0,1.447h6.864V55.2H31.141V53.349A1.377,1.377,0,0,0,29.776,52ZM46.5,55.2H34.463V30.844H46.5V55.2Z" fill="#fff"/>
    </g>
  </g>
</svg>
