<svg xmlns="http://www.w3.org/2000/svg" width="150" height="150" viewBox="0 0 150 150">
  <g id="img3" transform="translate(-383.746 -8399.999)">
    <circle id="Ellipse_13609" data-name="Ellipse 13609" cx="75" cy="75" r="75" transform="translate(383.746 8399.999)" fill="#fff"/>
    <g id="Group_1197549" data-name="Group 1197549" transform="translate(395.762 8413.999)">
      <path id="Path_1019949" data-name="Path 1019949" d="M104.5,93.838q0-.1,0-.2a6.218,6.218,0,0,0-6.211-6.211V58.7l5.59-4.193a1.553,1.553,0,0,0-.016-2.5L90.524,42.267V25.317a1.553,1.553,0,0,0,1.553-1.553V17.553A1.553,1.553,0,0,0,90.524,16H75a1.553,1.553,0,0,0-1.553,1.553v6.211A1.553,1.553,0,0,0,75,25.317v5.6L63.489,22.511a1.553,1.553,0,0,0-1.832,0l-40.374,29.5a1.553,1.553,0,0,0-.016,2.5l5.59,4.193V87.431a6.218,6.218,0,0,0-6.211,6.211q0,.1,0,.2A6.211,6.211,0,0,0,22.2,106.065h80.748A6.211,6.211,0,0,0,104.5,93.838ZM76.548,19.106H88.971v3.106H76.548ZM78.1,33.081V25.317h9.317V40l-9.464-6.916ZM62.573,25.687l37.764,27.6L96.721,56,63.486,31.825a1.553,1.553,0,0,0-1.827,0L28.424,56l-3.616-2.712ZM19.093,99.854a3.109,3.109,0,0,1,3.059-3.106h0c.079.011.159.021.24.026a1.553,1.553,0,0,0,1.557-2.08,3.053,3.053,0,0,1-.2-1.051,3.109,3.109,0,0,1,3.106-3.106V102.96H22.2A3.109,3.109,0,0,1,19.093,99.854Zm66.772,3.106H67.231V68.8H85.865Zm3.106,0V67.244a1.553,1.553,0,0,0-1.553-1.553H65.678a1.553,1.553,0,0,0-1.553,1.553V102.96H29.963V58.718L62.573,35l32.61,23.716V102.96Zm13.976,0H98.288V90.537a3.109,3.109,0,0,1,3.106,3.106,3.053,3.053,0,0,1-.2,1.052,1.553,1.553,0,0,0,1.557,2.08c.081-.005.16-.015.24-.026h0a3.106,3.106,0,0,1-.047,6.211Z" fill="#4a4e3c"/>
      <path id="Path_1019950" data-name="Path 1019950" d="M140.187,272H121.553A1.553,1.553,0,0,0,120,273.553v21.74a1.553,1.553,0,0,0,1.553,1.553h18.634a1.553,1.553,0,0,0,1.553-1.553v-21.74A1.553,1.553,0,0,0,140.187,272Zm-1.553,10.87h-6.211v-7.764h6.211Zm-9.317-7.764v7.764h-6.211v-7.764Zm-6.211,10.87h6.211v7.764h-6.211Zm9.317,7.764v-7.764h6.211v7.764Z" transform="translate(-83.826 -206.309)" fill="#4a4e3c"/>
      <circle id="Ellipse_15171" data-name="Ellipse 15171" cx="1.553" cy="1.553" r="1.553" transform="translate(69.861 85.165) rotate(-67.5)" fill="#4a4e3c"/>
    </g>
  </g>
</svg>
