<svg xmlns="http://www.w3.org/2000/svg" width="150" height="150" viewBox="0 0 150 150">
  <g id="img5" transform="translate(-383.746 -8400)">
    <circle id="Ellipse_13609" data-name="Ellipse 13609" cx="75" cy="75" r="75" transform="translate(383.746 8400)" fill="#fff"/>
    <g id="Group_1197560" data-name="Group 1197560" transform="translate(404.826 8420.6)">
      <g id="Group_1197552" data-name="Group 1197552" transform="translate(50.334 47.621)">
        <path id="Path_1019956" data-name="Path 1019956" d="M237.4,239.119h-4.428a1.413,1.413,0,0,1-1.412-1.412v-3.395a50.66,50.66,0,0,0-4.005-20.938l-.673-1.51a1.413,1.413,0,0,1,2.582-1.147l.671,1.51a53.385,53.385,0,0,1,4.25,22.086v1.982h1.6v-2.7a53.378,53.378,0,0,1,4.25-22.086l.239-.537a1.412,1.412,0,0,1,2.58,1.149l-.239.537a50.625,50.625,0,0,0-4.005,20.938v4.116A1.412,1.412,0,0,1,237.4,239.119Z" transform="translate(-226.757 -209.877)" fill="#4a4e3c"/>
      </g>
      <g id="Group_1197553" data-name="Group 1197553" transform="translate(41.895 31.943)">
        <path id="Path_1019957" data-name="Path 1019957" d="M197.665,155.02c-.048,0-.1,0-.145,0a7.154,7.154,0,0,1-4.555-1.517,7.076,7.076,0,0,1-6.929.934,8.574,8.574,0,0,1-5.166-8.159,9.354,9.354,0,0,1,1.414-4.993,6.743,6.743,0,0,1-.936-3.463,6.512,6.512,0,0,1,2.6-5.28,7.09,7.09,0,0,1-.081-1.067c0-3.466,2.551-6.286,5.684-6.286a5.3,5.3,0,0,1,3.3,1.166,7.153,7.153,0,0,1,9.338,0,5.3,5.3,0,0,1,3.3-1.166c3.134,0,5.684,2.819,5.684,6.286a7.069,7.069,0,0,1-.081,1.067,6.512,6.512,0,0,1,2.6,5.28,6.743,6.743,0,0,1-.936,3.463,9.354,9.354,0,0,1,1.414,4.993,8.574,8.574,0,0,1-5.166,8.159,7.073,7.073,0,0,1-6.927-.934A7.228,7.228,0,0,1,197.665,155.02Zm-.145-2.826h.035a4.521,4.521,0,0,0,3.463-1.545,1.411,1.411,0,0,1,2.069-.017,4.333,4.333,0,0,0,4.873,1.177,5.773,5.773,0,0,0,3.384-5.535,6.4,6.4,0,0,0-1.418-4.092,1.411,1.411,0,0,1,.029-1.837,3.788,3.788,0,0,0,.912-2.527,3.484,3.484,0,0,0-1.936-3.275,1.413,1.413,0,0,1-.794-1.76,4.058,4.058,0,0,0,.215-1.311c0-1.909-1.282-3.461-2.86-3.461a2.681,2.681,0,0,0-2.15,1.186,1.41,1.41,0,0,1-2.24.059,4.441,4.441,0,0,0-7.163,0,1.41,1.41,0,0,1-2.24-.059,2.681,2.681,0,0,0-2.15-1.186c-1.576,0-2.86,1.552-2.86,3.461a4.057,4.057,0,0,0,.213,1.311,1.411,1.411,0,0,1-.793,1.76,3.486,3.486,0,0,0-1.936,3.275,3.8,3.8,0,0,0,.91,2.527,1.411,1.411,0,0,1,.029,1.837,6.4,6.4,0,0,0-1.418,4.092,5.773,5.773,0,0,0,3.384,5.535,4.336,4.336,0,0,0,4.873-1.177,1.411,1.411,0,0,1,2.069.017,4.521,4.521,0,0,0,3.463,1.545Z" transform="translate(-180.87 -124.62)" fill="#4a4e3c"/>
      </g>
      <g id="Group_1197554" data-name="Group 1197554" transform="translate(32.647 31.938)">
        <path id="Path_1019958" data-name="Path 1019958" d="M151.063,161.088H131.991a1.413,1.413,0,0,1-1.232-2.1l3.586-6.379h-.826a1.413,1.413,0,0,1-1.232-2.1l2.823-5.028h-.774a1.413,1.413,0,0,1-1.239-2.089l2.512-4.61a1.409,1.409,0,0,1-.752-1.911L140.25,125.4a1.413,1.413,0,0,1,2.556,0l2.714,5.771a1.412,1.412,0,0,1-2.556,1.2l-1.436-3.053-3.194,6.789a1.412,1.412,0,0,1,.839,2.03l-2.457,4.509h.809a1.413,1.413,0,0,1,1.232,2.1l-2.823,5.028h.828a1.413,1.413,0,0,1,1.232,2.1l-3.586,6.379h14.245l-2.282-4.06a1.413,1.413,0,0,1,2.462-1.385l3.465,6.164a1.413,1.413,0,0,1-1.234,2.1Z" transform="translate(-130.578 -124.59)" fill="#4a4e3c"/>
      </g>
      <g id="Group_1197555" data-name="Group 1197555" transform="translate(10.58 11.06)">
        <path id="Path_1019959" data-name="Path 1019959" d="M53.92,97.741A43.34,43.34,0,1,1,97.261,54.4a43.391,43.391,0,0,1-43.34,43.34Zm0-83.856A40.516,40.516,0,1,0,94.436,54.4,40.562,40.562,0,0,0,53.92,13.885Z" transform="translate(-10.58 -11.06)" fill="#4a4e3c"/>
      </g>
      <g id="Group_1197556" data-name="Group 1197556" transform="translate(39.341 11.06)">
        <path id="Path_1019960" data-name="Path 1019960" d="M181.558,97.741c-5.886,0-11.179-6.444-14.52-17.682a1.412,1.412,0,1,1,2.707-.805c2.917,9.807,7.332,15.662,11.813,15.662s8.9-5.855,11.813-15.662a1.412,1.412,0,0,1,2.707.805C192.737,91.3,187.444,97.741,181.558,97.741ZM168.391,30.557a1.387,1.387,0,0,1-.4-.059,1.411,1.411,0,0,1-.951-1.756c3.341-11.236,8.634-17.682,14.52-17.682s11.179,6.446,14.52,17.682a1.412,1.412,0,0,1-2.707.805c-2.917-9.807-7.332-15.662-11.813-15.662s-8.9,5.855-11.813,15.662A1.414,1.414,0,0,1,168.391,30.557Z" transform="translate(-166.978 -11.06)" fill="#4a4e3c"/>
      </g>
      <g id="Group_1197557" data-name="Group 1197557" transform="translate(10.58 39.821)">
        <path id="Path_1019961" data-name="Path 1019961" d="M79.177,196.618a1.412,1.412,0,0,1-.4-2.766c9.807-2.917,15.662-7.334,15.662-11.813s-5.855-8.9-15.662-11.813a1.412,1.412,0,1,1,.805-2.707c11.236,3.341,17.681,8.634,17.681,14.52s-6.444,11.179-17.681,14.52A1.4,1.4,0,0,1,79.177,196.618Zm-50.512,0a1.386,1.386,0,0,1-.4-.059c-11.236-3.341-17.682-8.634-17.682-14.52s6.446-11.179,17.682-14.52a1.412,1.412,0,1,1,.805,2.707C19.26,173.142,13.4,177.557,13.4,182.039s5.855,8.9,15.662,11.813a1.412,1.412,0,0,1-.4,2.766Z" transform="translate(-10.58 -167.459)" fill="#4a4e3c"/>
      </g>
      <g id="Group_1197558" data-name="Group 1197558" transform="translate(24.03 24.51)">
        <path id="Path_1019962" data-name="Path 1019962" d="M113.61,143.981a29.89,29.89,0,1,1,29.89-29.89A29.924,29.924,0,0,1,113.61,143.981Zm0-56.956a27.066,27.066,0,1,0,27.066,27.066A27.1,27.1,0,0,0,113.61,87.025Z" transform="translate(-83.72 -84.2)" fill="#4a4e3c"/>
      </g>
      <g id="Group_1197559" data-name="Group 1197559" transform="translate(42.184 65.611)">
        <path id="Path_1019963" data-name="Path 1019963" d="M183.852,318.953a1.413,1.413,0,0,1-1.412-1.412v-8.428a1.412,1.412,0,0,1,2.825,0v8.428A1.413,1.413,0,0,1,183.852,318.953Z" transform="translate(-182.44 -307.7)" fill="#4a4e3c"/>
      </g>
    </g>
  </g>
</svg>
