<svg xmlns="http://www.w3.org/2000/svg" width="84" height="84" viewBox="0 0 84 84">
  <g id="img9" transform="translate(-601 -3128)">
    <rect id="Rectangle_461420" data-name="Rectangle 461420" width="84" height="84" rx="9" transform="translate(601 3128)" fill="#9c3413"/>
    <g id="Group_1197563" data-name="Group 1197563" transform="translate(611 3139)">
      <path id="Path_1019965" data-name="Path 1019965" d="M27,6H10.25A4.26,4.26,0,0,0,6,10.25V27a1,1,0,0,0,1,1h7a1,1,0,0,0,1-1V26a2,2,0,0,1,4,0v1a1,1,0,0,0,1,1h7a1,1,0,0,0,1-1V21a4,4,0,0,0,0-8V7A1,1,0,0,0,27,6Zm3,11a2,2,0,0,1-2,2H27a1,1,0,0,0-1,1v6H21a4,4,0,0,0-8,0H8V10.25A2.25,2.25,0,0,1,10.25,8H26v6a1,1,0,0,0,1,1h1A2,2,0,0,1,30,17Z" fill="#fff"/>
      <path id="Path_1019966" data-name="Path 1019966" d="M38,19H37a1,1,0,0,0-1,1v7a1,1,0,0,0,1,1h6a4,4,0,0,0,8,0h6a1,1,0,0,0,1-1V10.25A4.26,4.26,0,0,0,53.75,6H37a1,1,0,0,0-1,1v7a1,1,0,0,0,1,1h1a2,2,0,0,1,0,4Zm0-6V8H53.75A2.25,2.25,0,0,1,56,10.25V26H50a1,1,0,0,0-1,1v1a2,2,0,0,1-4,0V27a1,1,0,0,0-1-1H38V21a4,4,0,0,0,0-8Z" fill="#fff"/>
      <path id="Path_1019967" data-name="Path 1019967" d="M36,43a4,4,0,0,0,0,8v6a1,1,0,0,0,1,1H53.75A4.26,4.26,0,0,0,58,53.75V37a1,1,0,0,0-1-1H50a1,1,0,0,0-1,1v1a2,2,0,0,1-4,0V37a1,1,0,0,0-1-1H37a1,1,0,0,0-1,1Zm1,2a1,1,0,0,0,1-1V38h5a4,4,0,0,0,8,0h5V53.75A2.25,2.25,0,0,1,53.75,56H38V50a1,1,0,0,0-1-1H36a2,2,0,0,1,0-4Z" fill="#fff"/>
      <path id="Path_1019968" data-name="Path 1019968" d="M6,53.75A4.26,4.26,0,0,0,10.25,58H27a1,1,0,0,0,1-1V50a1,1,0,0,0-1-1H26a2,2,0,0,1,0-4h1a1,1,0,0,0,1-1V37a1,1,0,0,0-1-1H21a4,4,0,0,0-8,0H7a1,1,0,0,0-1,1ZM8,38h6a1,1,0,0,0,1-1V36a2,2,0,0,1,4,0v1a1,1,0,0,0,1,1h6v5a4,4,0,0,0,0,8v5H10.25A2.25,2.25,0,0,1,8,53.75Z" fill="#fff"/>
    </g>
  </g>
</svg>
