<svg xmlns="http://www.w3.org/2000/svg" width="150" height="150" viewBox="0 0 150 150">
  <g id="img20" transform="translate(-383.746 -8400)">
    <circle id="Ellipse_13609" data-name="Ellipse 13609" cx="75" cy="75" r="75" transform="translate(383.746 8400)" fill="#b9c296"/>
    <g id="Group_1197618" data-name="Group 1197618" transform="translate(416.981 8433.236)">
      <path id="Path_1020133" data-name="Path 1020133" d="M203.219,88.909a23.746,23.746,0,1,0-23.746-23.746A23.773,23.773,0,0,0,203.219,88.909Zm0-45.045a21.3,21.3,0,1,1-21.3,21.3A21.323,21.323,0,0,1,203.219,43.864Z" transform="translate(-150.193 -34.66)" fill="#4a4e3c"/>
      <path id="Path_1020134" data-name="Path 1020134" d="M243.137,120.453h24.672a1.224,1.224,0,0,0,1.06-1.835l-2.212-3.832a1.224,1.224,0,1,0-2.119,1.224l1.153,2H245.256l10.217-17.7,6.153,10.657a1.224,1.224,0,1,0,2.119-1.224l-7.213-12.493a1.224,1.224,0,0,0-2.119,0l-12.336,21.367a1.224,1.224,0,0,0,1.06,1.835Z" transform="translate(-202.446 -80.873)" fill="#4a4e3c"/>
      <path id="Path_1020135" data-name="Path 1020135" d="M319.976,153.086a1.224,1.224,0,1,0-2.447,0v3.362a1.224,1.224,0,1,0,2.447,0Z" transform="translate(-265.726 -127.087)" fill="#4a4e3c"/>
      <circle id="Ellipse_15178" data-name="Ellipse 15178" cx="1.224" cy="1.224" r="1.224" transform="translate(51.8 32.542)" fill="#4a4e3c"/>
      <path id="Path_1020136" data-name="Path 1020136" d="M39.032,103.279l6.541,1.694a3.476,3.476,0,1,0,1.743-6.73L40.775,96.55a3.476,3.476,0,1,0-1.743,6.73Zm-.124-3.623a1.028,1.028,0,0,1,1.254-.738l6.541,1.694a1.029,1.029,0,1,1-.516,1.992l-6.541-1.694A1.03,1.03,0,0,1,38.908,99.656Z" transform="translate(-30.484 -80.705)" fill="#4a4e3c"/>
      <path id="Path_1020137" data-name="Path 1020137" d="M31.816,187.367l6.744-.413h0a3.476,3.476,0,0,0-.425-6.939l-6.744.413a3.476,3.476,0,1,0,.425,6.939Zm-.983-4.151a1.022,1.022,0,0,1,.708-.345l6.744-.413a1.029,1.029,0,0,1,.126,2.054l-6.744.413A1.03,1.03,0,0,1,30.833,183.217Z" transform="translate(-23.538 -150.643)" fill="#4a4e3c"/>
      <path id="Path_1020138" data-name="Path 1020138" d="M72.563,23.551l5.7,3.635A3.476,3.476,0,1,0,82,21.326l-5.7-3.635a3.476,3.476,0,0,0-3.739,5.86Zm1-3.484a1.03,1.03,0,0,1,1.421-.314l5.7,3.635a1.029,1.029,0,1,1-1.107,1.734l-5.7-3.634a1.028,1.028,0,0,1-.314-1.421Z" transform="translate(-59.38 -14.349)" fill="#4a4e3c"/>
      <path id="Path_1020139" data-name="Path 1020139" d="M74.595,8.934A30.564,30.564,0,0,0,33.969,6.649,1.224,1.224,0,1,0,35.5,8.561,28.078,28.078,0,0,1,81.08,30.836,28.06,28.06,0,0,1,37.691,54a3.141,3.141,0,0,0-3.924.4l-6.222,6.222-4.64-4.64,6.222-6.222a3.141,3.141,0,0,0,.4-3.924,28.133,28.133,0,0,1,2.013-33.423,1.223,1.223,0,1,0-1.872-1.576A30.584,30.584,0,0,0,27.48,47.177a.675.675,0,0,1-.084.854l-6.222,6.222-.607-.607a1.4,1.4,0,0,0-1.972,0l-2.221,2.221a1.424,1.424,0,0,0-1.848.143l-3.561,3.561a1.424,1.424,0,0,0-.142,1.848L.408,71.835A1.386,1.386,0,0,0,0,72.82V82.3a1.223,1.223,0,0,0,1.224,1.224h9.485a1.385,1.385,0,0,0,.986-.408L22.11,72.705a1.424,1.424,0,0,0,1.848-.143L27.519,69a1.424,1.424,0,0,0,.143-1.848l2.221-2.221a1.394,1.394,0,0,0,0-1.972l-.607-.607L35.5,56.132a.675.675,0,0,1,.854-.084A30.5,30.5,0,0,0,74.595,8.934ZM19.582,56.122l7.825,7.825-1.465,1.465-7.825-7.825Zm3.369,13.987L21.5,68.656a1.224,1.224,0,1,0-1.73,1.73l.6.6L10.273,81.081H2.448V73.256L12.542,63.161l3.183,3.183a1.224,1.224,0,1,0,1.73-1.73L13.42,60.578l2.114-2.114,9.531,9.531Z" transform="translate(0)" fill="#4a4e3c"/>
    </g>
  </g>
</svg>
