<svg xmlns="http://www.w3.org/2000/svg" width="150" height="150" viewBox="0 0 150 150">
  <g id="img22" transform="translate(-383.746 -8400)">
    <circle id="Ellipse_13609" data-name="Ellipse 13609" cx="75" cy="75" r="75" transform="translate(383.746 8400)" fill="#b9c296"/>
    <g id="Group_1197619" data-name="Group 1197619" transform="translate(417.526 8433.78)">
      <path id="Path_1020140" data-name="Path 1020140" d="M58.59,42.55a3.974,3.974,0,0,1,2.213.67l9.286,6.191a6.641,6.641,0,0,0,3.688,1.117h8.663V47.869H73.779a3.979,3.979,0,0,1-2.214-.67l-3.751-2.5V0H17.286V7.978H0V82.441H50.528V74.462H67.814V63.276c.084-.02.17-.027.254-.047l6.186-1.546a17.308,17.308,0,0,1,4.2-.517h3.989V58.506H78.452a20,20,0,0,0-4.843.6l-6.186,1.546a17.389,17.389,0,0,1-9.669-.371l-2.241-.747A19.937,19.937,0,0,0,49.2,58.506H37.6a3.994,3.994,0,0,1,3.989-3.989H56.211a3.979,3.979,0,0,0,.467-7.931l1.091-4.036ZM56.91,62.8a19.9,19.9,0,0,0,6.315,1.025c.645,0,1.289-.056,1.93-.118v8.1H50.528V67.454a4.8,4.8,0,0,0,1.023-1.9l1.089-4.033a17.162,17.162,0,0,1,2.031.529Zm-6.935-1.6-.991,3.667a2.2,2.2,0,0,1-2.117,1.621h-.431a2.191,2.191,0,0,1-2.115-2.763l.69-2.556H49.2c.259,0,.517.02.777.031Zm-7.719-.031-.5,1.86a4.82,4.82,0,0,0,2.283,5.457l-.417,1.667,2.58.645.414-1.652h.255a4.829,4.829,0,0,0,1-.117V79.781H2.659V10.637H19.945V2.659H65.155V42.925l-2.876-1.918a6.638,6.638,0,0,0-3.688-1.117h-.1l5.534-20.476A4.854,4.854,0,0,0,59.339,13.3h-.431a4.86,4.86,0,0,0-4.683,3.586l-3.7,13.677V7.978H22.6v2.659H47.869V39.891H45.118a6.575,6.575,0,0,0-3.949,1.33H27.924V43.88H38.375l-2.659,2.659H27.924V49.2h5.134L30.835,51.42a4.126,4.126,0,0,0,4.122,6.893c0,.065-.02.127-.02.193A2.662,2.662,0,0,0,37.6,61.166ZM52.5,51.858H47.527l5.615-20.775L57.7,32.6Zm-10.2-8.14a4.02,4.02,0,0,1,2.82-1.167h2.17L46.2,46.563a6.588,6.588,0,0,0-4.456,1.922l-6.924,6.924a1.491,1.491,0,0,1-2.546-1.053,1.481,1.481,0,0,1,.438-1.054Zm1.33,6.648a4.007,4.007,0,0,1,1.824-1.024l-.68,2.516H42.137ZM61.454,18.721l-1.628,6.025-4.561-1.52,1.526-5.648a2.2,2.2,0,0,1,2.117-1.621h.431a2.192,2.192,0,0,1,2.115,2.765ZM54.571,25.8l4.561,1.52L58.4,30.031l-4.561-1.52Zm1.641,23.4a1.33,1.33,0,1,1,0,2.659h-.958l.719-2.659Zm0,0" fill="#4a4e3c"/>
      <path id="Path_1020141" data-name="Path 1020141" d="M66.572,80H32V93.3H66.572ZM63.913,90.638H34.659V82.659H63.913Zm0,0" transform="translate(-26.681 -66.703)" fill="#4a4e3c"/>
      <path id="Path_1020142" data-name="Path 1020142" d="M64,112h2.659v2.659H64Zm0,0" transform="translate(-53.362 -93.384)" fill="#4a4e3c"/>
      <path id="Path_1020143" data-name="Path 1020143" d="M96,112h2.659v2.659H96Zm0,0" transform="translate(-80.044 -93.384)" fill="#4a4e3c"/>
      <path id="Path_1020144" data-name="Path 1020144" d="M128,112h2.659v2.659H128Zm0,0" transform="translate(-106.725 -93.384)" fill="#4a4e3c"/>
      <path id="Path_1020145" data-name="Path 1020145" d="M160,112h2.659v2.659H160Zm0,0" transform="translate(-133.406 -93.384)" fill="#4a4e3c"/>
      <path id="Path_1020146" data-name="Path 1020146" d="M192,112h2.659v2.659H192Zm0,0" transform="translate(-160.087 -93.384)" fill="#4a4e3c"/>
      <path id="Path_1020147" data-name="Path 1020147" d="M47.956,215.978H45.3V221.3H34.659V210.659h7.978V208H32v15.956H47.956Zm0,0" transform="translate(-26.681 -173.428)" fill="#4a4e3c"/>
      <path id="Path_1020148" data-name="Path 1020148" d="M74.3,178.344,61.943,190.7l-1.719-1.719-1.88,1.88,3.6,3.6L76.18,180.224Zm0,0" transform="translate(-48.646 -148.701)" fill="#4a4e3c"/>
      <path id="Path_1020149" data-name="Path 1020149" d="M45.3,357.3H34.659V346.659h7.978V344H32v15.956H47.956v-7.978H45.3Zm0,0" transform="translate(-26.681 -286.824)" fill="#4a4e3c"/>
      <path id="Path_1020150" data-name="Path 1020150" d="M60.224,324.982l-1.88,1.88,3.6,3.6L76.18,316.224l-1.88-1.88L61.943,326.7Zm0,0" transform="translate(-48.646 -262.097)" fill="#4a4e3c"/>
      <path id="Path_1020151" data-name="Path 1020151" d="M256,440h2.659v2.659H256Zm0,0" transform="translate(-213.45 -366.867)" fill="#4a4e3c"/>
      <path id="Path_1020152" data-name="Path 1020152" d="M152,440h14.627v2.659H152Zm0,0" transform="translate(-126.736 -366.867)" fill="#4a4e3c"/>
      <path id="Path_1020153" data-name="Path 1020153" d="M168,216h17.286v2.659H168Zm0,0" transform="translate(-140.076 -180.099)" fill="#4a4e3c"/>
    </g>
  </g>
</svg>
