<svg xmlns="http://www.w3.org/2000/svg" width="84" height="84" viewBox="0 0 84 84">
  <g id="img4" transform="translate(-186 -1319)">
    <rect id="Rectangle_461479" data-name="Rectangle 461479" width="84" height="84" rx="9" transform="translate(186 1319)" fill="#9c3413"/>
    <g id="Group_1196478" data-name="Group 1196478" transform="translate(189.671 1329.762)">
      <g id="Group_1196476" data-name="Group 1196476" transform="translate(8.991 0.912)">
        <path id="Path_1018469" data-name="Path 1018469" d="M61.951,80.611A70.9,70.9,0,0,0,77.869,69.955C84.458,63.9,87.8,57.6,87.8,51.217c0-7.258-.017-15.73-.032-21.559a1.734,1.734,0,0,0-1.736-1.717,1.869,1.869,0,0,0-.346.033,40.164,40.164,0,0,1-7.453.692,38.611,38.611,0,0,1-15.345-3.11,5.607,5.607,0,0,0-4.484,0,38.566,38.566,0,0,1-15.281,3.109h-.059a40.16,40.16,0,0,1-7.452-.692,1.871,1.871,0,0,0-.346-.033,1.75,1.75,0,0,0-.845.219,1.7,1.7,0,0,0-.892,1.5C33.514,35.5,33.5,43.978,33.5,51.217c0,16.319,21.882,27.552,27.152,30.02.369-.173.806-.381,1.3-.626Z" transform="translate(-31.31 -22.939)" fill="#bbf39b"/>
        <path id="Path_1018470" data-name="Path 1018470" d="M63.086,100.562c-.408.21-.787.4-1.135.572-.5.245-.932.454-1.3.626C55.378,99.292,33.5,88.059,33.5,71.741c0-7.239.017-15.719.032-21.557a1.7,1.7,0,0,1,.892-1.5,1.752,1.752,0,0,1,.844-.218,1.861,1.861,0,0,1,.347.033q.851.161,1.713.284a1.724,1.724,0,0,0-.182.77c-.015,5.838-.032,14.318-.032,21.557,0,5.879,2.844,11.121,6.724,15.508C50.049,93.644,58.929,98.512,63.086,100.562Z" transform="translate(-31.309 -43.463)" fill="#9ae59c"/>
        <g id="Group_1196475" data-name="Group 1196475" transform="translate(9.919 9.502)">
          <path id="Path_1018471" data-name="Path 1018471" d="M289.861,425.811l2.89-1.73.453,3.869-3.536,1.293Z" transform="translate(-266.138 -382.743)" fill="#6fd6a2"/>
          <path id="Path_1018472" data-name="Path 1018472" d="M131.487,293.127v21.652l-7.265-2.909-6.005-4.931.524-3.253-.525-2.264v-8.3Z" transform="translate(-115.609 -267.769)" fill="#857e87"/>
          <path id="Path_1018473" data-name="Path 1018473" d="M324.669,394.076V389.9h-7.206v4.082l.471.951-.471,3.308Z" transform="translate(-290.541 -352.737)" fill="#ffd18d"/>
          <path id="Path_1018474" data-name="Path 1018474" d="M324.672,389.906v4.171l-7.206,4.17v-4.259c.509-.317.489-1.178,1.016-1.526,1.394-.921,3.379-1.423,4.806-2.556Z" transform="translate(-290.544 -352.738)" fill="#fbbd80"/>
          <path id="Path_1018475" data-name="Path 1018475" d="M131.487,370.938v3.524l-7.266-2.909-6.005-4.93v-5.517a60.173,60.173,0,0,0,13.271,9.832Z" transform="translate(-115.609 -327.453)" fill="#766e7a"/>
          <path id="Path_1018476" data-name="Path 1018476" d="M114.081,184.234v1.438l-2.39.432a1.2,1.2,0,0,0-1.2,1.2l-.581,7.442.006-.071v.13h-8.89l-.644-7.5a1.2,1.2,0,0,0-1.2-1.2l-2.323-.432v-1.438a4.8,4.8,0,0,1,4.8-4.8h7.616a4.8,4.8,0,0,1,4.8,4.8Z" transform="translate(-96.856 -167.947)" fill="#7ad7ee"/>
          <path id="Path_1018477" data-name="Path 1018477" d="M303.12,153.873l-1.769-8.169h-9.059l-2.389,8.735Z" transform="translate(-266.346 -138.337)" fill="#766e7a"/>
          <path id="Path_1018478" data-name="Path 1018478" d="M289.23,223.15l1.286,5.144a.6.6,0,0,1-.583.746H273.85l.625-6.643V209.761a4.8,4.8,0,0,1,4.8-4.8h6.9a4.8,4.8,0,0,1,4.8,4.8v1.918Z" transform="translate(-252.251 -190.359)" fill="#ff5f7a"/>
          <path id="Path_1018479" data-name="Path 1018479" d="M328.251,184.616h4.477v2.542a2.239,2.239,0,1,1-4.477,0v-2.542Z" transform="translate(-300.013 -172.5)" fill="#fbbd80"/>
          <path id="Path_1018480" data-name="Path 1018480" d="M318.06,120.033c-1.265.412-2.524.739-3.537-.025a1.811,1.811,0,0,0-2.139,0c-1.014.764-2.274.437-3.537.025a4.639,4.639,0,0,1,9.213,0Z" transform="translate(-282.977 -112.208)" fill="#857e87"/>
          <path id="Path_1018481" data-name="Path 1018481" d="M317.858,144.31a4.639,4.639,0,0,1-9.278,0,4.581,4.581,0,0,1,.032-.549,3.759,3.759,0,0,0,3.537-.442,1.811,1.811,0,0,1,2.139,0,3.759,3.759,0,0,0,3.537.442A4.575,4.575,0,0,1,317.858,144.31Z" transform="translate(-282.743 -135.936)" fill="#ffd18d"/>
          <path id="Path_1018482" data-name="Path 1018482" d="M387.688,260.043v11.451a1.844,1.844,0,0,1-3.687,0V263.72a3.677,3.677,0,0,1,3.678-3.677Z" transform="translate(-348.96 -238.723)" fill="#ffd18d"/>
          <path id="Path_1018483" data-name="Path 1018483" d="M207.985,230.58V240.7a2.083,2.083,0,1,1-4.167,0v-1.115l-.006.071v-7.873a1.2,1.2,0,0,1,1.2-1.2Z" transform="translate(-190.76 -212.855)" fill="#c6805d"/>
          <path id="Path_1018484" data-name="Path 1018484" d="M101.025,231.781V240.7a2.084,2.084,0,1,1-4.168,0V230.58h2.967A1.2,1.2,0,0,1,101.025,231.781Z" transform="translate(-96.857 -212.855)" fill="#c6805d"/>
          <path id="Path_1018485" data-name="Path 1018485" d="M153.563,154.011h-4.477v3.161a2.239,2.239,0,1,0,4.477,0v-3.161Z" transform="translate(-142.712 -145.63)" fill="#ba7052"/>
          <circle id="Ellipse_15150" data-name="Ellipse 15150" cx="4.639" cy="4.639" r="4.639" transform="translate(3.974)" fill="#c6805d"/>
          <path id="Path_1018486" data-name="Path 1018486" d="M218.418,354.245v9.375l.438,1.554-.438,2.991,4.831,1.9,4.058-2.056-.249-2.968.249-1.243v-9.553l-4.445-.8Z" transform="translate(-203.583 -320.729)" fill="#7ad7ee"/>
          <path id="Path_1018487" data-name="Path 1018487" d="M291.875,309.09v6.275a1.6,1.6,0,1,1-3.207,0l-.36-6.093a.72.72,0,0,1,.721-.721Z" transform="translate(-264.944 -281.311)" fill="#ffd18d"/>
          <path id="Path_1018488" data-name="Path 1018488" d="M195.706,310.639l-.36,5.926a1.6,1.6,0,1,1-3.207,0V310.29l2.847-.372A.72.72,0,0,1,195.706,310.639Z" transform="translate(-180.511 -282.511)" fill="#ffd18d"/>
          <path id="Path_1018489" data-name="Path 1018489" d="M207.443,270.57v.956h-2.486a.72.72,0,0,0-.721.721v5.016h-8.889v-5.016a.72.72,0,0,0-.721-.721H192.14v-.956a4.8,4.8,0,0,1,4.8-4.8h5.694A4.8,4.8,0,0,1,207.443,270.57Z" transform="translate(-180.512 -243.747)" fill="#ffe077"/>
          <path id="Path_1018490" data-name="Path 1018490" d="M241.984,240.34h-4.15v3.575a2.075,2.075,0,1,0,4.15,0Z" transform="translate(-220.63 -221.424)" fill="#fbbd80"/>
          <circle id="Ellipse_15151" data-name="Ellipse 15151" cx="4.058" cy="4.058" r="4.058" transform="translate(15.222 11.698)" fill="#ffd18d"/>
          <path id="Path_1018491" data-name="Path 1018491" d="M227.3,436.974v4.211l-4.058,2.056-4.831-1.9V436.8c1.723,1,3.226,1.787,4.319,2.328a.607.607,0,0,0,.54,0C224.36,438.588,225.753,437.865,227.3,436.974Z" transform="translate(-203.582 -393.906)" fill="#4bc3ef"/>
        </g>
        <path id="Path_1018492" data-name="Path 1018492" d="M74.252,35.832c0,16.454-19.365,27.561-26.629,31.149-.984.486-1.745.834-2.208,1.039a1.238,1.238,0,0,1-1,0C40.54,66.3,15.576,54.514,15.576,35.832c0-6.857.016-14.787.031-20.686a4.921,4.921,0,0,1,2.556-4.313,4.975,4.975,0,0,1,3.35-.532,35.153,35.153,0,0,0,6.535.606A33.68,33.68,0,0,0,41.446,8.2a8.673,8.673,0,0,1,6.936,0,33.558,33.558,0,0,0,13.4,2.707,35.153,35.153,0,0,0,6.536-.607,4.959,4.959,0,0,1,5.9,4.845C74.237,21.045,74.252,28.975,74.252,35.832ZM46.164,64.027A68,68,0,0,0,61.433,53.805c6.32-5.806,9.525-11.854,9.525-17.973,0-6.962-.017-15.088-.031-20.679a1.663,1.663,0,0,0-1.665-1.647,1.79,1.79,0,0,0-.332.032,38.528,38.528,0,0,1-7.149.664,37.036,37.036,0,0,1-14.719-2.983,5.378,5.378,0,0,0-4.3,0A36.993,36.993,0,0,1,28.1,14.2h-.056a38.525,38.525,0,0,1-7.148-.664,1.792,1.792,0,0,0-.332-.032,1.679,1.679,0,0,0-.81.21,1.629,1.629,0,0,0-.856,1.438c-.014,5.6-.031,13.734-.031,20.678,0,15.653,20.989,26.428,26.044,28.8.354-.165.773-.365,1.249-.6Z" transform="translate(-15.576 -7.475)" fill="#6fd6a2"/>
      </g>
      <g id="Group_1196477" data-name="Group 1196477" transform="translate(8.076 0)">
        <path id="Path_1018493" data-name="Path 1018493" d="M68.552,8.58A5.832,5.832,0,0,0,66.43,4.085a5.9,5.9,0,0,0-4.868-1.247,34.3,34.3,0,0,1-6.366.591A32.794,32.794,0,0,1,42.163.8,9.621,9.621,0,0,0,34.5.8,32.748,32.748,0,0,1,21.517,3.428a34.328,34.328,0,0,1-6.42-.59,5.926,5.926,0,0,0-3.963.631A5.862,5.862,0,0,0,8.107,8.581c-.014,5.6-.031,13.738-.031,20.688a24.286,24.286,0,0,0,4.105,13.162,43.3,43.3,0,0,0,9.2,10,75.241,75.241,0,0,0,16.079,9.86,2.157,2.157,0,0,0,1.744,0,75.326,75.326,0,0,0,12.774-7.338.915.915,0,1,0-1.063-1.49A73.422,73.422,0,0,1,38.46,60.62a.324.324,0,0,1-.262,0,73.289,73.289,0,0,1-15.662-9.6c-8.381-6.85-12.63-14.167-12.63-21.747,0-6.948.017-15.083.031-20.684a4.047,4.047,0,0,1,4.82-3.948,36.139,36.139,0,0,0,6.7.622h.058A34.594,34.594,0,0,0,35.226,2.474a7.781,7.781,0,0,1,6.2,0A34.64,34.64,0,0,0,55.2,5.259,36.135,36.135,0,0,0,61.9,4.637a4.072,4.072,0,0,1,3.361.859,4.007,4.007,0,0,1,1.458,3.088c.014,5.591.031,13.717.031,20.685,0,7.538-4.2,14.818-12.5,21.638a.915.915,0,0,0,1.163,1.414,43.042,43.042,0,0,0,9.109-9.968,24.253,24.253,0,0,0,4.055-13.084c0-6.97-.017-15.1-.031-20.69Z" transform="translate(-8.076 0)"/>
        <path id="Path_1018494" data-name="Path 1018494" d="M37.319,31.637a.777.777,0,0,1,.529-.08,39.442,39.442,0,0,0,7.318.68h.057c.842,0,1.7-.028,2.539-.083a.915.915,0,0,0-.119-1.827c-.8.052-1.618.079-2.42.079h-.057a37.6,37.6,0,0,1-6.978-.648,2.619,2.619,0,0,0-1.755.277,2.534,2.534,0,0,0-1.328,2.237c-.014,5.591-.031,13.717-.031,20.68,0,6.931,3.853,13.687,11.452,20.08a72.579,72.579,0,0,0,15.119,9.544.915.915,0,0,0,.775,0c.41-.191.836-.4,1.267-.609A68.941,68.941,0,0,0,79.171,71.6c6.517-5.987,9.821-12.261,9.821-18.647,0-6.958-.017-15.087-.031-20.681a2.581,2.581,0,0,0-2.58-2.56,2.709,2.709,0,0,0-.5.048,37.616,37.616,0,0,1-6.979.648A36.111,36.111,0,0,1,64.548,27.5a6.293,6.293,0,0,0-5.033,0,34.8,34.8,0,0,1-7.6,2.3.915.915,0,1,0,.33,1.8,36.632,36.632,0,0,0,8-2.421,4.462,4.462,0,0,1,3.57,0A37.959,37.959,0,0,0,78.9,32.237a39.451,39.451,0,0,0,7.319-.68.869.869,0,0,1,.162-.016.748.748,0,0,1,.75.734c.014,5.593.031,13.721.031,20.677,0,4.247-1.637,8.477-4.874,12.629V63.444a.915.915,0,1,0-1.831,0v3.807a.921.921,0,0,1-1.841,0V59.538a2.749,2.749,0,0,1,1.841-2.591v2.191a.915.915,0,1,0,1.831,0V53.966a5.689,5.689,0,0,0-2.029-4.356c-.052-.238-1.653-8.23-1.714-8.479a5.534,5.534,0,0,0-10.782,0s-1.637,6.114-1.646,6.143a4.95,4.95,0,0,0-7.361-1.237,5.7,5.7,0,0,0-3.691-1.358h-.648v-1.33a5.536,5.536,0,1,0-6.29,0v1.33H47.48a5.707,5.707,0,0,0-5.7,5.7v4.749a.915.915,0,0,0,1.831,0v-2.4h2.039A.281.281,0,0,1,45.93,53v8.882a1.16,1.16,0,1,1-2.32,0V59.4a.915.915,0,0,0-1.831,0v2.489a2.994,2.994,0,0,0,2.6,2.964v3.7c-4.959-5.077-7.47-10.31-7.47-15.6,0-6.961.017-15.086.031-20.676a.716.716,0,0,1,.383-.639ZM56.554,77.813c-1.365-.8-2.847-1.731-4.366-2.778V64.855a.915.915,0,1,0-1.831,0v8.871c-.888-.66-1.777-1.358-2.651-2.094q-.779-.655-1.5-1.315V64.508a2.993,2.993,0,0,0,1.554-2.622v-.065h5.6v6.252a2.5,2.5,0,0,0,3.193,2.415Zm0-9.741a.681.681,0,1,1-1.363,0V62.738h1.363v5.335Zm8.855,10.94c-.959.522-1.883.994-2.6,1.347V71.5a.915.915,0,0,0-1.831,0V80.22c-.743-.371-1.621-.828-2.6-1.365v-10.4h7.024V79.012Zm0-17.19v4.8H58.384v-4.8a.915.915,0,0,0-.915-.915H55.191V60.87A3.874,3.874,0,0,1,59,57a2.981,2.981,0,0,0,5.8,0A3.874,3.874,0,0,1,68.6,60.87v.037H66.324A.915.915,0,0,0,65.409,61.822Zm-4.664-5.516v-1.62a4.928,4.928,0,0,0,2.3,0v1.62a1.152,1.152,0,1,1-2.3,0ZM68.6,62.738v5.335a.681.681,0,1,1-1.363,0V62.738Zm.1,14.375q-.749.458-1.458.87v-3.9H68.7Zm1.831-1.16V74.083h2.706C72.321,74.749,71.414,75.372,70.528,75.953Zm7.405-5.7c-.759.7-1.536,1.364-2.321,2H67.239V70.488a2.5,2.5,0,0,0,3.193-2.415v-7.2c0-.184-.01-.365-.027-.544h6.38v6.925a2.755,2.755,0,0,0,1.658,2.524q-.252.239-.51.477ZM77.6,45.679l.567,2.811a5.682,5.682,0,0,0-1.578-.224H76.3v-1.33A5.575,5.575,0,0,0,77.6,45.679Zm-4.445-7a3.712,3.712,0,0,1,3.478,2.428,2.2,2.2,0,0,1-1.913-.42,2.5,2.5,0,0,0-3.131,0,2.2,2.2,0,0,1-1.913.42A3.711,3.711,0,0,1,73.154,38.678ZM70.23,42.993a3.919,3.919,0,0,0,2.512-.887.663.663,0,0,1,.823,0,4,4,0,0,0,3.253.824,3.705,3.705,0,0,1-7.329,0,4.554,4.554,0,0,0,.741.063Zm4.238,4.766v1.48a1.314,1.314,0,1,1-2.629,0V47.76a5.512,5.512,0,0,0,2.629,0ZM68.514,45.4a5.578,5.578,0,0,0,1.495,1.538v1.33H69.72a5.718,5.718,0,0,0-2.078.389Zm-2.243,6.81A3.857,3.857,0,0,1,69.72,50.1h.408a3.144,3.144,0,0,0,6.051,0h.408a3.874,3.874,0,0,1,3.87,3.87V55.05A4.591,4.591,0,0,0,76.907,58.5H69.912a5.707,5.707,0,0,0-5.034-3.322V53.822A5.647,5.647,0,0,0,66.271,52.207ZM61.9,46.74a3.126,3.126,0,1,1-3.126,3.126A3.13,3.13,0,0,1,61.9,46.74Zm-2.982,7.083v1.351a5.663,5.663,0,0,0-2.305.551V53a.281.281,0,0,1,.281-.281h.959a5,5,0,0,0,1.065,1.1ZM47.567,38.794A3.705,3.705,0,1,1,51.273,42.5,3.71,3.71,0,0,1,47.567,38.794Zm5.02,5.377v1.48a1.314,1.314,0,1,1-2.629,0v-1.48a5.512,5.512,0,0,0,2.629,0Zm-6.938,6.722H43.61v-.516a3.874,3.874,0,0,1,3.87-3.87h.767a3.144,3.144,0,0,0,6.051,0h.767a3.867,3.867,0,0,1,2.514.929,4.944,4.944,0,0,0-.532,3.457h-.157A2.114,2.114,0,0,0,54.779,53v4.109a5.681,5.681,0,0,0-1.35,2.877H47.761V53A2.114,2.114,0,0,0,45.649,50.893Z" transform="translate(-31.78 -23.683)"/>
      </g>
    </g>
  </g>
</svg>
