<svg xmlns="http://www.w3.org/2000/svg" width="150" height="150" viewBox="0 0 150 150">
  <g id="img6" transform="translate(-383.746 -8400)">
    <circle id="Ellipse_13609" data-name="Ellipse 13609" cx="75" cy="75" r="75" transform="translate(383.746 8400)" fill="#b9c296"/>
    <g id="Group_1197592" data-name="Group 1197592" transform="translate(415.746 8432)">
      <path id="Path_1020046" data-name="Path 1020046" d="M71.386,281.7a1.258,1.258,0,1,0-1.825-1.733,37.093,37.093,0,0,1-4.409,3.959c-4.493-.116-5.93-2.169-7.449-4.339-1.435-2.051-3.062-4.375-7.1-4.375a20.328,20.328,0,0,0-8.419,2.146c-2.689,1.158-4.632,1.994-6.881.832-1.585-.819-2.54-3.675-3.55-6.7-1.661-4.971-3.729-11.156-10.189-11.156-3.962,0-4.23,2.868-4.407,4.767-.247,2.643-.48,5.145-7.5,5.312a36.416,36.416,0,0,1-2.693-7.879,12.286,12.286,0,0,0,8.239-6.681H34.7c-.289,3.221.453,7.478,2.14,9.167,1.44,1.442,4.751,2.2,7.7,2.2A14.037,14.037,0,0,0,47.112,267c2.445-.462,3.387-1.542,3.747-2.366,1.117-2.559-1.027-6.1-3.511-8.781H79.663c-.041,1.213-.141,2.426-.3,3.618a1.259,1.259,0,1,0,2.5.33c.172-1.3.279-2.624.321-3.948h2.475a1.259,1.259,0,0,0,0-2.517H1.259a1.259,1.259,0,0,0,0,2.517H3.615A39.282,39.282,0,0,0,71.386,281.7ZM37.228,255.851h6.5c3.452,2.934,5.389,6.475,4.822,7.774-.118.271-.689.67-1.907.9-2.918.551-6.993-.257-8.021-1.286C37.662,262.275,36.9,258.656,37.228,255.851Zm-31.094,0h6.192a9.791,9.791,0,0,1-5.815,4.194,37.226,37.226,0,0,1-.377-4.194ZM42.9,291.417a36.525,36.525,0,0,1-26.011-10.785,37.015,37.015,0,0,1-5.944-7.765c3.208-.231,5.459-1.04,6.847-2.454a7.677,7.677,0,0,0,1.873-5.081c.195-2.09.283-2.483,1.9-2.483,4.324,0,5.9,3.737,7.8,9.437,1.177,3.521,2.289,6.847,4.781,8.135,3.306,1.709,6.088.511,9.032-.756a18.015,18.015,0,0,1,7.423-1.941c2.728,0,3.7,1.385,5.038,3.3,1.316,1.881,2.883,4.12,6.408,5.017A36.657,36.657,0,0,1,42.9,291.417Z" transform="translate(0 -210.825)" fill="#4a4e3c"/>
      <path id="Path_1020047" data-name="Path 1020047" d="M378.931,309.8A7.6,7.6,0,0,0,364.4,307.87a5.429,5.429,0,1,0-1.78,10.559h6.37a1.259,1.259,0,0,0,0-2.517h-6.37a2.911,2.911,0,0,1,0-5.822,2.875,2.875,0,0,1,1.775.606,1.258,1.258,0,0,0,2.009-.774,5.08,5.08,0,0,1,10.081.9c0,.116,0,.237-.012.359a1.258,1.258,0,0,0,1.722,1.254,1.8,1.8,0,1,1,.664,3.474H374.79a1.259,1.259,0,0,0,0,2.517h4.066a4.317,4.317,0,0,0,.074-8.634Z" transform="translate(-297.256 -252.341)" fill="#4a4e3c"/>
      <path id="Path_1020048" data-name="Path 1020048" d="M6.773,497H1.259a1.259,1.259,0,0,0,0,2.517H6.773a1.259,1.259,0,0,0,0-2.517Z" transform="translate(0 -413.603)" fill="#4a4e3c"/>
      <path id="Path_1020049" data-name="Path 1020049" d="M80.674,497H69.285a1.259,1.259,0,0,0,0,2.517h11.39a1.259,1.259,0,1,0,0-2.517Z" transform="translate(-56.611 -413.603)" fill="#4a4e3c"/>
      <path id="Path_1020050" data-name="Path 1020050" d="M31.817,467.472a1.259,1.259,0,0,0,0-2.517H21.267a1.259,1.259,0,0,0,0,2.517Z" transform="translate(-16.651 -386.935)" fill="#4a4e3c"/>
      <path id="Path_1020051" data-name="Path 1020051" d="M356.466,497h-10.55a1.259,1.259,0,1,0,0,2.517h10.55a1.259,1.259,0,1,0,0-2.517Z" transform="translate(-286.823 -413.603)" fill="#4a4e3c"/>
      <path id="Path_1020052" data-name="Path 1020052" d="M420.959,464.955H405.372a1.259,1.259,0,0,0,0,2.517h15.586a1.259,1.259,0,1,0,0-2.517Z" transform="translate(-336.303 -386.935)" fill="#4a4e3c"/>
      <path id="Path_1020053" data-name="Path 1020053" d="M423.936,183.639a1.258,1.258,0,0,0-1.259,1.259v6.661a1.259,1.259,0,0,0,2.517,0V184.9A1.259,1.259,0,0,0,423.936,183.639Z" transform="translate(-351.751 -152.825)" fill="#4a4e3c"/>
      <path id="Path_1020054" data-name="Path 1020054" d="M249.759,133.238A1.258,1.258,0,0,0,248.5,134.5v15.118a1.259,1.259,0,0,0,2.517,0V134.5A1.258,1.258,0,0,0,249.759,133.238Z" transform="translate(-206.801 -110.881)" fill="#4a4e3c"/>
      <path id="Path_1020055" data-name="Path 1020055" d="M75.582,178.191a1.258,1.258,0,0,0-1.259,1.259v7.5a1.259,1.259,0,1,0,2.517,0v-7.5A1.258,1.258,0,0,0,75.582,178.191Z" transform="translate(-61.852 -148.291)" fill="#4a4e3c"/>
      <path id="Path_1020056" data-name="Path 1020056" d="M136.557,95.041a1.259,1.259,0,1,0-2.517,0v2.113a1.259,1.259,0,1,0,2.517,0Z" transform="translate(-111.548 -78.046)" fill="#4a4e3c"/>
      <path id="Path_1020057" data-name="Path 1020057" d="M106.557,95.041a1.259,1.259,0,1,0-2.517,0v2.113a1.259,1.259,0,1,0,2.517,0Z" transform="translate(-86.582 -78.046)" fill="#4a4e3c"/>
      <path id="Path_1020058" data-name="Path 1020058" d="M136.557,143.04a1.259,1.259,0,0,0-2.517,0v2.113a1.259,1.259,0,1,0,2.517,0Z" transform="translate(-111.548 -117.991)" fill="#4a4e3c"/>
      <path id="Path_1020059" data-name="Path 1020059" d="M106.557,143.04a1.259,1.259,0,0,0-2.517,0v2.113a1.259,1.259,0,1,0,2.517,0Z" transform="translate(-86.582 -117.991)" fill="#4a4e3c"/>
      <path id="Path_1020060" data-name="Path 1020060" d="M135.126,189.348a1.258,1.258,0,0,0-1.259,1.259v5.63a1.259,1.259,0,1,0,2.517,0v-5.63A1.258,1.258,0,0,0,135.126,189.348Z" transform="translate(-111.404 -157.576)" fill="#4a4e3c"/>
      <path id="Path_1020061" data-name="Path 1020061" d="M105.126,189.348a1.258,1.258,0,0,0-1.259,1.259v5.63a1.259,1.259,0,1,0,2.517,0v-5.63A1.258,1.258,0,0,0,105.126,189.348Z" transform="translate(-86.438 -157.576)" fill="#4a4e3c"/>
      <path id="Path_1020062" data-name="Path 1020062" d="M310.734,95.041a1.259,1.259,0,0,0-2.517,0v2.113a1.259,1.259,0,0,0,2.517,0Z" transform="translate(-256.498 -78.046)" fill="#4a4e3c"/>
      <path id="Path_1020063" data-name="Path 1020063" d="M280.734,95.041a1.258,1.258,0,1,0-2.517,0v2.113a1.258,1.258,0,1,0,2.517,0Z" transform="translate(-231.532 -78.046)" fill="#4a4e3c"/>
      <path id="Path_1020064" data-name="Path 1020064" d="M310.734,143.04a1.259,1.259,0,0,0-2.517,0v2.113a1.259,1.259,0,1,0,2.517,0Z" transform="translate(-256.498 -117.991)" fill="#4a4e3c"/>
      <path id="Path_1020065" data-name="Path 1020065" d="M280.734,143.04a1.258,1.258,0,1,0-2.517,0v2.113a1.258,1.258,0,1,0,2.517,0Z" transform="translate(-231.532 -117.991)" fill="#4a4e3c"/>
      <path id="Path_1020066" data-name="Path 1020066" d="M309.476,189.348a1.258,1.258,0,0,0-1.259,1.259v5.63a1.259,1.259,0,1,0,2.517,0v-5.63A1.259,1.259,0,0,0,309.476,189.348Z" transform="translate(-256.498 -157.576)" fill="#4a4e3c"/>
      <path id="Path_1020067" data-name="Path 1020067" d="M279.476,189.348a1.258,1.258,0,0,0-1.259,1.259v5.63a1.258,1.258,0,1,0,2.517,0v-5.63A1.259,1.259,0,0,0,279.476,189.348Z" transform="translate(-231.532 -157.576)" fill="#4a4e3c"/>
      <path id="Path_1020068" data-name="Path 1020068" d="M35.837,39.993A1.258,1.258,0,0,0,37.1,38.734V20.63h4.152v4.684a1.259,1.259,0,1,0,2.517,0v-12.3H56.2V38.734a1.259,1.259,0,0,0,2.517,0V33.45H66.7a1.259,1.259,0,0,0,0-2.517H58.713V27.712H66.7a1.259,1.259,0,0,0,0-2.517H58.713V21.973H66.7a1.259,1.259,0,0,0,0-2.517H58.713V16.234H66.7a1.259,1.259,0,0,0,0-2.517H58.713V10.5H66.7a1.259,1.259,0,0,0,0-2.517H58.713V4.834L70.474,2.758V17.813a1.259,1.259,0,1,0,2.517,0v-4.8H85.424V38.734a1.259,1.259,0,1,0,2.517,0V34.457h7.988a1.259,1.259,0,1,0,0-2.517H87.941V28.718h7.988a1.259,1.259,0,1,0,0-2.517H87.941V22.98h7.988a1.259,1.259,0,1,0,0-2.517H87.941V16.14L99.7,13.376v12.9a1.259,1.259,0,1,0,2.517,0V20.63h4.152v18.1a1.259,1.259,0,0,0,2.517,0V19.371a1.258,1.258,0,0,0-1.259-1.259h-5.411V11.787a1.258,1.258,0,0,0-1.546-1.225L87.941,13.555v-1.8A1.258,1.258,0,0,0,86.682,10.5h-3.67V7.346a1.259,1.259,0,0,0-2.517,0V10.5h-7.5V1.258A1.259,1.259,0,0,0,71.514.019L57.236,2.539A1.258,1.258,0,0,0,56.2,3.778V10.5H53.785V7.346a1.259,1.259,0,1,0-2.517,0V10.5H42.506a1.258,1.258,0,0,0-1.259,1.259v6.359H35.837a1.258,1.258,0,0,0-1.259,1.259V38.734a1.259,1.259,0,0,0,1.259,1.259Z" transform="translate(-28.776 0)" fill="#4a4e3c"/>
    </g>
  </g>
</svg>
