<svg xmlns="http://www.w3.org/2000/svg" width="150" height="150" viewBox="0 0 150 150">
  <g id="img7" transform="translate(-383.746 -8400)">
    <circle id="Ellipse_13609" data-name="Ellipse 13609" cx="75" cy="75" r="75" transform="translate(383.746 8400)" fill="#b9c296"/>
    <path id="Path_1020069" data-name="Path 1020069" d="M96.122,91.566H93.185v-2.8a.878.878,0,0,0-.878-.878H89.37V34.907a.878.878,0,0,0-.878-.878H70.47V29.283a.878.878,0,0,0-.878-.878H63.9V23.92a.878.878,0,0,0-.878-.878H54.878V18.784h7.672a.878.878,0,0,0,.706-1.4l-1.843-2.493L63.255,12.4a.877.877,0,0,0-.706-1.4H54a.878.878,0,0,0-.878.878V23.043H44.979a.878.878,0,0,0-.878.878V28.4H38.408a.878.878,0,0,0-.878.878v4.747H19.508a.878.878,0,0,0-.878.878V87.888H15.693a.878.878,0,0,0-.878.878v2.8H11.878a.878.878,0,0,0-.878.878v3.678a.878.878,0,0,0,.878.878H96.122A.878.878,0,0,0,97,96.122V92.444A.878.878,0,0,0,96.122,91.566ZM54.878,12.755h5.932L59.615,14.37a.878.878,0,0,0,0,1.043l1.194,1.615H54.878ZM87.615,35.784v52.1H70.47v-52.1ZM45.856,24.8H62.144V28.4H45.856ZM68.715,30.16V87.888H65.783v-16.8a.878.878,0,0,0-.878-.878H43.094a.878.878,0,0,0-.878.878v16.8H39.285V30.16ZM43.971,87.888V71.967h9.151V87.888ZM54.878,71.967h9.151V87.888H54.878ZM20.385,35.784H37.53v52.1H20.385ZM16.57,89.643H91.43v1.923H16.57Zm78.674,5.6H12.755V93.322h82.49Zm-62.1-54.722H24.793a.878.878,0,0,0-.878.878v8.351a.878.878,0,0,0,.878.878h8.351a.878.878,0,0,0,.878-.878V41.4A.878.878,0,0,0,33.144,40.523Zm-.878,8.351h-6.6v-6.6h6.6Zm.878,6.494H24.793a.878.878,0,0,0-.878.878V64.6a.878.878,0,0,0,.878.878h8.351a.878.878,0,0,0,.878-.878V56.245A.878.878,0,0,0,33.144,55.367Zm-.878,8.351h-6.6v-6.6h6.6Zm.878,6.494H24.793a.878.878,0,0,0-.878.878V79.44a.878.878,0,0,0,.878.878h8.351a.878.878,0,0,0,.878-.878V71.09a.878.878,0,0,0-.878-.878Zm-.878,8.351h-6.6v-6.6h6.6Zm42.6-27.934h8.351a.878.878,0,0,0,.878-.878V41.4a.878.878,0,0,0-.878-.878H74.867a.878.878,0,0,0-.878.878v8.351A.877.877,0,0,0,74.867,50.629Zm.878-8.351h6.6v6.6h-6.6Zm-.878,23.2h8.351A.878.878,0,0,0,84.1,64.6V56.245a.878.878,0,0,0-.878-.878H74.867a.878.878,0,0,0-.878.878V64.6A.878.878,0,0,0,74.867,65.473Zm.878-8.351h6.6v6.6h-6.6Zm-.878,23.2h8.351a.878.878,0,0,0,.878-.878V71.09a.878.878,0,0,0-.878-.878H74.867a.878.878,0,0,0-.878.878V79.44A.878.878,0,0,0,74.867,80.318Zm.878-8.351h6.6v6.6h-6.6Zm-32.65-6.494h8.351a.878.878,0,0,0,.878-.878V56.245a.878.878,0,0,0-.878-.878H43.094a.878.878,0,0,0-.878.878V64.6A.878.878,0,0,0,43.094,65.473Zm.878-8.351h6.6v6.6h-6.6Zm12.584,8.351h8.351a.878.878,0,0,0,.878-.878V56.245a.878.878,0,0,0-.878-.878H56.555a.878.878,0,0,0-.878.878V64.6A.878.878,0,0,0,56.555,65.473Zm.878-8.351h6.6v6.6h-6.6ZM43.094,50.629h8.351a.878.878,0,0,0,.878-.878V41.4a.878.878,0,0,0-.878-.878H43.094a.878.878,0,0,0-.878.878v8.351A.878.878,0,0,0,43.094,50.629Zm.878-8.351h6.6v6.6h-6.6Zm12.584,8.351h8.351a.878.878,0,0,0,.878-.878V41.4a.878.878,0,0,0-.878-.878H56.555a.878.878,0,0,0-.878.878v8.351A.877.877,0,0,0,56.555,50.629Zm.878-8.351h6.6v6.6h-6.6Z" transform="translate(405.246 8421.5)" fill="#4a4e3c" stroke="#4a4e3c" stroke-width="0.5"/>
  </g>
</svg>
