<svg xmlns="http://www.w3.org/2000/svg" width="160" height="160" viewBox="0 0 160 160">
  <g id="img16" transform="translate(-383.746 -8400)">
    <circle id="Ellipse_13609" data-name="Ellipse 13609" cx="80" cy="80" r="80" transform="translate(383.746 8400)" fill="#fff"/>
    <g id="relationship" transform="translate(419.671 8435.005)">
      <path id="Path_1020035" data-name="Path 1020035" d="M72.958,9.933,50.72,2.085A1.3,1.3,0,0,0,50.251,2H28.964a1.682,1.682,0,0,0-.454.071L13.353,7.123V4.838a1.419,1.419,0,0,0-1.419-1.419H3.419A1.419,1.419,0,0,0,2,4.838V36.06a1.419,1.419,0,0,0,1.419,1.419h8.515a1.419,1.419,0,0,0,1.419-1.419V33.221h8.515a1.225,1.225,0,0,0,.4-.057l22.1-6.5a4.279,4.279,0,0,0,3.051-4.087v-.71a4.27,4.27,0,0,0-4.257-4.257H31.6l7.663-4.257H50.053l20.28,5.975a4.293,4.293,0,0,0,3.761-.681,4.235,4.235,0,0,0,1.7-3.406V13.949a4.257,4.257,0,0,0-2.838-4.016ZM10.515,34.641H4.838V6.257h5.677Zm62.443-19.4A1.419,1.419,0,0,1,71.141,16.6L50.649,10.572a1.225,1.225,0,0,0-.4-.057H38.9a1.344,1.344,0,0,0-.7.184L25.43,17.8a1.419,1.419,0,0,0,.7,2.654h17.03a1.419,1.419,0,0,1,1.419,1.419v.71a1.431,1.431,0,0,1-1.022,1.362L21.67,30.383H13.353V10.118L29.191,4.838H50.01l22,7.763a1.419,1.419,0,0,1,.951,1.348Z" transform="translate(0 0)" fill="#4a4e3c"/>
      <path id="Path_1020036" data-name="Path 1020036" d="M82.377,37H73.862a1.419,1.419,0,0,0-1.419,1.419v2.838H63.928a1.225,1.225,0,0,0-.4.057l-22.1,6.5A4.279,4.279,0,0,0,38.383,51.9v.71a4.27,4.27,0,0,0,4.257,4.257H54.193l-7.663,4.257H35.743l-20.28-5.975a4.293,4.293,0,0,0-3.761.681A4.235,4.235,0,0,0,10,59.238V60.53a4.257,4.257,0,0,0,2.838,4.016l22.238,7.848a1.3,1.3,0,0,0,.468.085H56.832a1.681,1.681,0,0,0,.454-.071l15.157-5.052v2.285a1.419,1.419,0,0,0,1.419,1.419h8.515A1.419,1.419,0,0,0,83.8,69.641V38.419A1.419,1.419,0,0,0,82.377,37ZM72.443,64.361,56.605,69.641H35.786l-22-7.763a1.419,1.419,0,0,1-.951-1.348V59.238a1.419,1.419,0,0,1,1.817-1.362l20.493,6.031a1.225,1.225,0,0,0,.4.057H46.9a1.344,1.344,0,0,0,.7-.184l12.772-7.1a1.419,1.419,0,0,0-.7-2.654H42.641a1.419,1.419,0,0,1-1.419-1.419V51.9a1.431,1.431,0,0,1,1.022-1.362L64.127,44.1h8.316Zm8.515,3.86H75.281V39.838h5.677Z" transform="translate(3.353 14.67)" fill="#4a4e3c"/>
      <path id="Path_1020037" data-name="Path 1020037" d="M43.707,23a7.959,7.959,0,0,0-7.1,4.144A7.959,7.959,0,0,0,29.515,23,8.515,8.515,0,0,0,21,31.515v1.419c0,10.686,14.362,17.995,14.972,18.293a1.384,1.384,0,0,0,1.277,0c.61-.3,14.972-7.607,14.972-18.293V31.515A8.515,8.515,0,0,0,43.707,23Zm5.677,9.934c0,7.791-10.1,13.936-12.772,15.426-2.668-1.49-12.772-7.635-12.772-15.426V31.515a5.677,5.677,0,0,1,5.677-5.677c3.392,0,5.677,2.853,5.677,7.1a1.419,1.419,0,1,0,2.838,0c0-4.243,2.285-7.1,5.677-7.1a5.677,5.677,0,0,1,5.677,5.677Z" transform="translate(7.964 8.802)" fill="#4a4e3c"/>
      <path id="Path_1020038" data-name="Path 1020038" d="M45,31h2.838v2.838H45Z" transform="translate(18.024 12.156)" fill="#4a4e3c"/>
      <path id="Path_1020039" data-name="Path 1020039" d="M49,31h8.515v2.838H49Z" transform="translate(19.7 12.156)" fill="#4a4e3c"/>
      <path id="Path_1020040" data-name="Path 1020040" d="M0,0H2.838V2.838H0Z" transform="translate(56.609 30.528) rotate(-45)" fill="#4a4e3c"/>
      <path id="Path_1020041" data-name="Path 1020041" d="M0,0H8.515V2.838H0Z" transform="translate(60.621 26.516) rotate(-45)" fill="#4a4e3c"/>
      <path id="Path_1020042" data-name="Path 1020042" d="M17,31h2.838v2.838H17Z" transform="translate(6.287 12.156)" fill="#4a4e3c"/>
      <path id="Path_1020043" data-name="Path 1020043" d="M9,31h8.515v2.838H9Z" transform="translate(2.934 12.156)" fill="#4a4e3c"/>
      <path id="Path_1020044" data-name="Path 1020044" d="M0,0H2.838V2.838H0Z" transform="translate(28.511 58.621) rotate(-45)" fill="#4a4e3c"/>
      <path id="Path_1020045" data-name="Path 1020045" d="M0,0H8.515V2.838H0Z" transform="translate(20.482 66.647) rotate(-45)" fill="#4a4e3c"/>
    </g>
  </g>
</svg>
