<svg xmlns="http://www.w3.org/2000/svg" width="84" height="84" viewBox="0 0 84 84">
  <g id="img7" transform="translate(-186 -4453.936)">
    <rect id="Rectangle_461458" data-name="Rectangle 461458" width="84" height="84" rx="9" transform="translate(186 4453.936)" fill="#b9c296"/>
    <g id="Group_1196471" data-name="Group 1196471" transform="translate(198.953 4458.376)">
      <g id="Group_1196460" data-name="Group 1196460" transform="translate(7.749 26.085)">
        <path id="Path_1018404" data-name="Path 1018404" d="M110.889,171.758l-16.866-16.87-4.432,4.278-4.429-4.278-16.869,16.87v19.3a2.135,2.135,0,0,0,2.116,2.126h5.3v-12.56c0-3.236,2.029-4.464,3.715-5.188a4.421,4.421,0,1,1,6.448,0,5.463,5.463,0,0,1,3.519,3.57c.064-.007.132-.007.2-.007s.135,0,.2.007a5.452,5.452,0,0,1,3.515-3.57,4.422,4.422,0,1,1,6.452,0c1.685.724,3.715,1.952,3.715,5.188v12.56h5.3a2.132,2.132,0,0,0,2.113-2.126v-19.3Z" transform="translate(-68.293 -154.888)" fill="#fff" fill-rule="evenodd"/>
      </g>
      <g id="Group_1196461" data-name="Group 1196461" transform="translate(17.714 10.736)">
        <path id="Path_1018405" data-name="Path 1018405" d="M176.935,30.084a6.1,6.1,0,0,0-8.468-8.777l-1.01.971-1.007-.971a6.1,6.1,0,0,0-8.472,8.777l.624.6,4.426,4.268,4.429,4.278,4.432-4.278,4.422-4.268Z" transform="translate(-156.124 -19.603)" fill="#ff7b79" fill-rule="evenodd"/>
      </g>
      <g id="Group_1196462" data-name="Group 1196462" transform="translate(33.479 21.817)">
        <path id="Path_1018406" data-name="Path 1018406" d="M317.65,135.431l-18.162-18.159-4.422,4.268,16.866,16.87,1.37,1.37a3.075,3.075,0,1,0,4.348-4.349Z" transform="translate(-295.066 -117.272)" fill="#ffe6b4" fill-rule="evenodd"/>
      </g>
      <g id="Group_1196463" data-name="Group 1196463" transform="translate(1.136 21.817)">
        <path id="Path_1018407" data-name="Path 1018407" d="M16.625,138.409l16.869-16.87-4.426-4.268L10.909,135.43a3.057,3.057,0,0,0-.9,2.165v.019a3.072,3.072,0,0,0,5.246,2.165Z" transform="translate(-10.012 -117.271)" fill="#ffe6b4" fill-rule="evenodd"/>
      </g>
      <g id="Group_1196464" data-name="Group 1196464" transform="translate(17.687 39.189)">
        <path id="Path_1018408" data-name="Path 1018408" d="M164.725,274.8a4.425,4.425,0,1,0-1.2,3.023A4.422,4.422,0,0,0,164.725,274.8Z" transform="translate(-155.884 -270.375)" fill="#ffdcd5" fill-rule="evenodd"/>
      </g>
      <g id="Group_1196465" data-name="Group 1196465" transform="translate(15.169 46.635)">
        <path id="Path_1018409" data-name="Path 1018409" d="M147.37,339.57a5.462,5.462,0,0,0-3.519-3.57,4.415,4.415,0,0,1-6.449,0c-1.685.724-3.715,1.952-3.715,5.188v12.56h8.7V349a3.933,3.933,0,0,1,2.772-3.876,3.3,3.3,0,0,1,2.213-5.551Z" transform="translate(-133.688 -336)" fill="#ff7b79" fill-rule="evenodd"/>
      </g>
      <g id="Group_1196466" data-name="Group 1196466" transform="translate(31.565 39.189)">
        <path id="Path_1018410" data-name="Path 1018410" d="M287.044,274.8a4.425,4.425,0,1,0-1.2,3.023A4.424,4.424,0,0,0,287.044,274.8Z" transform="translate(-278.199 -270.375)" fill="#ffdcd5" fill-rule="evenodd"/>
      </g>
      <g id="Group_1196467" data-name="Group 1196467" transform="translate(29.246 46.634)">
        <path id="Path_1018411" data-name="Path 1018411" d="M271.442,341.187c0-3.236-2.03-4.464-3.715-5.188a4.419,4.419,0,0,1-6.452,0,5.452,5.452,0,0,0-3.515,3.57,3.3,3.3,0,0,1,2.21,5.551A3.931,3.931,0,0,1,262.745,349v4.75h8.7v-12.56Z" transform="translate(-257.76 -335.999)" fill="#a0c8ff" fill-rule="evenodd"/>
      </g>
      <g id="Group_1196468" data-name="Group 1196468" transform="translate(25.747 50.198)">
        <path id="Path_1018412" data-name="Path 1018412" d="M233.523,370.708a3.3,3.3,0,0,0-3.1-3.3c-.064,0-.132,0-.2,0s-.132,0-.2,0a3.3,3.3,0,1,0,3.5,3.3Z" transform="translate(-226.92 -367.408)" fill="#ffdcd5" fill-rule="evenodd"/>
      </g>
      <g id="Group_1196469" data-name="Group 1196469" transform="translate(23.865 55.756)">
        <path id="Path_1018413" data-name="Path 1018413" d="M220.7,420.269a3.931,3.931,0,0,0-2.776-3.876,3.3,3.3,0,0,1-4.818,0,3.933,3.933,0,0,0-2.772,3.876v4.75H220.7v-4.75Z" transform="translate(-210.336 -416.393)" fill="#ffcd69" fill-rule="evenodd"/>
      </g>
      <path id="Path_1018414" data-name="Path 1018414" d="M56.865,39.174l-6.391-6.388a1.135,1.135,0,0,0-1.6,1.6l6.389,6.386a1.94,1.94,0,1,1-2.743,2.745L35.1,26.1l2.79-2.692,3.778,3.776a1.135,1.135,0,1,0,1.6-1.605l-3.755-3.752A7.232,7.232,0,0,0,29.27,11.621l-.222.214-.22-.213A7.233,7.233,0,0,0,18.578,21.827L1.231,39.174A4.206,4.206,0,0,0,4.2,46.357h0A4.185,4.185,0,0,0,6.614,45.6V62.256a3.264,3.264,0,0,0,3.261,3.261H48.219a3.264,3.264,0,0,0,3.261-3.261V45.6a4.209,4.209,0,0,0,5.386-6.427ZM20.234,13.38a4.923,4.923,0,0,1,3.482-1.509h.091a4.93,4.93,0,0,1,3.444,1.385l1.007.971a1.135,1.135,0,0,0,1.574,0l1.011-.973A4.964,4.964,0,0,1,37.737,20.4l-8.69,8.387L20.356,20.4a4.97,4.97,0,0,1-.122-7.019ZM4.206,44.088h0a1.92,1.92,0,0,1-1.369-.565,1.943,1.943,0,0,1,0-2.744l17.37-17.371L23,26.1,6.979,42.123c-.022.02-.043.041-.063.063L5.579,43.523a1.926,1.926,0,0,1-1.373.565Zm17.9,2.811a3.288,3.288,0,1,1,3.288-3.288A3.29,3.29,0,0,1,22.106,46.9Zm-3.424,1.082a5.536,5.536,0,0,0,6.852,0,4.43,4.43,0,0,1,1.744,1.453,4.431,4.431,0,0,0-2.269,5.9,4.759,4.759,0,0,0-2.279,4.3v3.616H16.3V51.822a3.88,3.88,0,0,1,2.378-3.841ZM35.987,46.9a3.288,3.288,0,1,1,3.288-3.288A3.292,3.292,0,0,1,35.987,46.9ZM32.56,47.98a5.539,5.539,0,0,0,6.855,0,3.88,3.88,0,0,1,2.379,3.842V63.247H35.366V59.632a4.757,4.757,0,0,0-2.279-4.3,4.429,4.429,0,0,0-2.27-5.9A4.421,4.421,0,0,1,32.56,47.98Zm-3.513,3.353A2.167,2.167,0,1,1,26.881,53.5a2.169,2.169,0,0,1,2.165-2.165ZM26.464,57.1a4.42,4.42,0,0,0,5.167,0A2.583,2.583,0,0,1,33.1,59.632v3.616H25V59.632A2.585,2.585,0,0,1,26.464,57.1Zm21.755,6.145H44.062V51.822A6.054,6.054,0,0,0,40.9,46.21a5.557,5.557,0,1,0-9.82,0,6.588,6.588,0,0,0-2.03,1.8,6.6,6.6,0,0,0-2.031-1.8,5.555,5.555,0,1,0-9.817,0,6.054,6.054,0,0,0-3.165,5.613V63.247H9.875a1,1,0,0,1-.991-.991V43.428L24.63,27.678l3.628,3.5a1.135,1.135,0,0,0,1.576,0l3.63-3.5L49.21,43.425V62.256a.992.992,0,0,1-.991.991Z" transform="translate(0 0)"/>
      <g id="Group_1196470" data-name="Group 1196470" transform="translate(44.935 28.849)">
        <path id="Path_1018415" data-name="Path 1018415" d="M397.175,181.515a1.129,1.129,0,0,1-1.012-.625l0-.006a1.132,1.132,0,1,1,1.015.631Z" transform="translate(-396.04 -179.242)"/>
      </g>
    </g>
  </g>
</svg>
