<svg xmlns="http://www.w3.org/2000/svg" width="150" height="150" viewBox="0 0 150 150">
  <g id="img9" transform="translate(-383.746 -8400)">
    <circle id="Ellipse_13609" data-name="Ellipse 13609" cx="75" cy="75" r="75" transform="translate(383.746 8400)" fill="#b9c296"/>
    <path id="Path_1020012" data-name="Path 1020012" d="M81.539,78.973a5.485,5.485,0,0,1-6.924-4.648,1.19,1.19,0,0,1,.443-1.07,5.484,5.484,0,0,1,7.672.845,5.485,5.485,0,0,1,7.672-.845,1.19,1.19,0,0,1,.443,1.07,5.485,5.485,0,0,1-6.925,4.648v1.569h2.7A1.19,1.19,0,0,1,87.793,81.9l-.941,6.7h2.423a1.19,1.19,0,0,1,0,2.381h-5.44v7.5l5.5,6.838a1.19,1.19,0,0,1-1.854,1.493l-3.65-4.534v4.592a1.19,1.19,0,0,1-2.381,0v-4.592l-3.65,4.534a1.19,1.19,0,0,1-1.854-1.493l5.5-6.838v-7.5h-5.44a1.19,1.19,0,1,1,0-2.381h2.423L77.5,81.9a1.19,1.19,0,0,1,1.179-1.356h2.865Zm2.909,9.621.8-5.671h-5.2l.8,5.671ZM81.384,76.5a3.1,3.1,0,0,0-4.241-1.755,3.087,3.087,0,0,0,1.731,1.814l0,0A3.08,3.08,0,0,0,81.384,76.5Zm2.691,0a3.08,3.08,0,0,0,2.507.061l0,0a3.088,3.088,0,0,0,1.731-1.814A3.1,3.1,0,0,0,84.075,76.5Zm4.153-16.076H90.81a1.19,1.19,0,1,1,0,2.381H60.784a1.19,1.19,0,0,1,0-2.381h1.945V50.612a1.894,1.894,0,0,1,1.894-1.894H78.012a1.19,1.19,0,0,1,1.1.746l1.759-1.016a1.894,1.894,0,0,1,2.587.693l5.149,8.918a1.894,1.894,0,0,1-.382,2.363Zm-13.724,0h2.317V51.1H74.5Zm-9.395,0h2.317V51.1H65.11Zm14.092,0h2.6l-2.6-4.5Zm.436-8.51L84.3,59.987l2.006-1.158-4.662-8.075Zm-9.83,8.51h2.317V51.1H69.807ZM32.938,103.638h-2.8a4.355,4.355,0,0,1-4.355-4.355V88.131A5.059,5.059,0,0,1,30.269,83.1V74.6A5.235,5.235,0,0,1,35.5,69.367h25.78A5.235,5.235,0,0,1,66.519,74.6v8.5A5.059,5.059,0,0,1,71,88.131V99.282a4.355,4.355,0,0,1-4.355,4.355h-2.8v2.35a2.07,2.07,0,0,1-2.07,2.069h-5.1a2.069,2.069,0,0,1-2.07-2.069v-2.35H42.181v2.35a2.069,2.069,0,0,1-2.069,2.069h-5.1a2.069,2.069,0,0,1-2.069-2.069ZM32.65,83.1a5.059,5.059,0,0,1,4.482,5.026v.507H59.656v-.507A5.059,5.059,0,0,1,64.138,83.1V74.6a2.854,2.854,0,0,0-2.854-2.854H35.5A2.854,2.854,0,0,0,32.65,74.6Zm4.482,7.913v2.734H59.656V91.018Zm24.338,12.62H56.988v2.039H61.47Zm-21.67,0H35.319v2.039H39.8Zm-9.657-2.381h36.5a1.975,1.975,0,0,0,1.975-1.975V88.131a2.678,2.678,0,0,0-2.678-2.678H64.715a2.678,2.678,0,0,0-2.678,2.678v6.812a1.19,1.19,0,0,1-1.19,1.19h-24.9a1.19,1.19,0,0,1-1.19-1.19V88.131a2.678,2.678,0,0,0-2.678-2.678H30.846a2.678,2.678,0,0,0-2.678,2.678V99.282a1.975,1.975,0,0,0,1.975,1.975ZM10.558,66.445h-.415a2.143,2.143,0,0,1-2.085-2.639l2.723-11.451a2.143,2.143,0,0,1,2.085-1.647h7.381a2.143,2.143,0,0,1,2.085,1.647l2.723,11.451a2.143,2.143,0,0,1-2.085,2.639H17.747v33.686H20.03a2.256,2.256,0,0,1,2.316,1.858l.818,2.869a1.189,1.189,0,0,1,.046.326,2.222,2.222,0,0,1-2.329,2.07H12.233a2.222,2.222,0,0,1-2.329-2.07,1.189,1.189,0,0,1,.046-.326l.818-2.868a2.256,2.256,0,0,1,2.316-1.858h2.283V66.445H12.939V69.4a1.19,1.19,0,0,1-2.381,0Zm-.115-2.381H22.669l-2.61-10.976H13.054Zm1.977,40.808h8.272l-.669-2.346,0-.015H13.093l0,.015ZM55,32.333a2.069,2.069,0,0,1,2.07,2.069V53.218A2.07,2.07,0,0,1,55,55.287H30.245a2.07,2.07,0,0,1-2.07-2.07V34.4a2.069,2.069,0,0,1,2.07-2.069ZM30.556,50v2.907H54.694V50.13l-5.067-5.608L45.006,49.03a1.19,1.19,0,0,1-1.707-.046L37.368,42.54Zm24.138-3.42V34.714H30.556V46.469l5.929-6.493a1.19,1.19,0,0,1,1.755,0l5.981,6.5,4.63-4.515a1.19,1.19,0,0,1,1.714.054Zm-8.468-7.131A1.846,1.846,0,1,1,44.379,37.6,1.847,1.847,0,0,1,46.226,39.448Z" transform="translate(408.746 8404.667)" fill="#4a4e3c" fill-rule="evenodd"/>
  </g>
</svg>
