<svg xmlns="http://www.w3.org/2000/svg" width="150" height="150" viewBox="0 0 150 150">
  <g id="img11" transform="translate(-383.746 -8400)">
    <circle id="Ellipse_13609" data-name="Ellipse 13609" cx="75" cy="75" r="75" transform="translate(383.746 8400)" fill="#b9c296"/>
    <g id="Group_1196552" data-name="Group 1196552" transform="translate(81.312 8094.905)">
      <g id="Icon" transform="translate(339 337)">
        <path id="Path_1018697" data-name="Path 1018697" d="M340.83,360.66h3.66a1.83,1.83,0,0,0,0-3.66h-3.66a1.83,1.83,0,1,0,0,3.66Z" transform="translate(-339 -320.396)" fill="#4a4e3c" fill-rule="evenodd"/>
        <g id="Group_1196545" data-name="Group 1196545" transform="matrix(0.866, -0.5, 0.5, 0.866, 4.219, 56.05)">
          <path id="Path_1018698" data-name="Path 1018698" d="M1.83,3.66h3.66a1.83,1.83,0,1,0,0-3.66H1.83a1.83,1.83,0,1,0,0,3.66Z" fill="#4a4e3c" fill-rule="evenodd"/>
        </g>
        <g id="Group_1196546" data-name="Group 1196546" transform="matrix(-0.866, -0.5, 0.5, -0.866, 70.82, 59.253)">
          <path id="Path_1018699" data-name="Path 1018699" d="M1.83,3.66h3.66a1.83,1.83,0,1,0,0-3.66H1.83a1.83,1.83,0,0,0,0,3.66Z" fill="#4a4e3c" fill-rule="evenodd"/>
        </g>
        <path id="Path_1018700" data-name="Path 1018700" d="M378.83,360.66h3.66a1.83,1.83,0,0,0,0-3.66h-3.66a1.83,1.83,0,1,0,0,3.66Z" transform="translate(-307.452 -320.396)" fill="#4a4e3c" fill-rule="evenodd"/>
        <g id="Group_1196547" data-name="Group 1196547" transform="matrix(0.866, -0.5, 0.5, 0.866, 64.447, 21.276)">
          <path id="Path_1018701" data-name="Path 1018701" d="M1.83,3.66h3.66a1.83,1.83,0,1,0,0-3.66H1.83a1.83,1.83,0,1,0,0,3.66Z" fill="#4a4e3c" fill-rule="evenodd"/>
        </g>
        <g id="Group_1196548" data-name="Group 1196548" transform="matrix(0.5, -0.866, 0.866, 0.5, 52.39, 10.591)">
          <path id="Path_1018702" data-name="Path 1018702" d="M1.83,3.66h3.66a1.83,1.83,0,1,0,0-3.66H1.83a1.83,1.83,0,1,0,0,3.66Z" fill="#4a4e3c" fill-rule="evenodd"/>
        </g>
        <g id="Group_1196549" data-name="Group 1196549" transform="translate(36.604 7.321) rotate(-90)">
          <path id="Path_1018703" data-name="Path 1018703" d="M1.83,3.66h3.66a1.83,1.83,0,1,0,0-3.66H1.83a1.83,1.83,0,0,0,0,3.66Z" fill="#4a4e3c" fill-rule="evenodd"/>
        </g>
        <g id="Group_1196550" data-name="Group 1196550" transform="matrix(-0.5, -0.866, 0.866, -0.5, 21.276, 12.422)">
          <path id="Path_1018704" data-name="Path 1018704" d="M1.83,3.66h3.66a1.83,1.83,0,1,0,0-3.66H1.83a1.83,1.83,0,0,0,0,3.66Z" fill="#4a4e3c" fill-rule="evenodd"/>
        </g>
        <g id="Group_1196551" data-name="Group 1196551" transform="matrix(-0.866, -0.5, 0.5, -0.866, 10.591, 24.479)">
          <path id="Path_1018705" data-name="Path 1018705" d="M1.83,3.66h3.66a1.83,1.83,0,1,0,0-3.66H1.83a1.83,1.83,0,0,0,0,3.66Z" fill="#4a4e3c" fill-rule="evenodd"/>
        </g>
        <path id="Path_1018706" data-name="Path 1018706" d="M359.642,401.254V403.4a5.492,5.492,0,0,0,3.66,5.178v2.143a5.49,5.49,0,0,0,5.491,5.491h7.321a5.49,5.49,0,0,0,5.491-5.491v-2.143a5.492,5.492,0,0,0,3.66-5.178v-2.143a5.492,5.492,0,0,0,3.66-5.178c0-.952,0-1.938.026-2.745v-.057a1.8,1.8,0,0,1,.7-1.424l.024-.018a27.481,27.481,0,1,0-34.415-.029l.02.016a1.83,1.83,0,0,1,.706,1.444v2.813a5.492,5.492,0,0,0,3.66,5.178Zm18.3,7.634v1.83a1.831,1.831,0,0,1-1.83,1.83h-7.321a1.831,1.831,0,0,1-1.83-1.83v-1.83Zm3.66-7.321v1.83a1.831,1.831,0,0,1-1.83,1.83H365.132a1.831,1.831,0,0,1-1.83-1.83v-1.83Zm1.45-26.082-4.513,8.877a5.494,5.494,0,0,0-.6,2.489v11.056h5.491a1.831,1.831,0,0,0,1.83-1.83c0-.981,0-2,.026-2.829a5.479,5.479,0,0,1,2.1-4.279,23.819,23.819,0,1,0-29.854-.027,5.488,5.488,0,0,1,2.107,4.321v2.815a1.831,1.831,0,0,0,1.83,1.83h5.491V386.848a5.492,5.492,0,0,0-.6-2.487l-4.513-8.877a5.232,5.232,0,0,1-.6-.522l-2.145-2.143a1.825,1.825,0,0,0-1.294-.536,1.83,1.83,0,0,1,0-3.66,5.484,5.484,0,0,1,3.882,1.609l2.145,2.143a1.829,1.829,0,0,0,2.588,0l2.145-2.143a5.488,5.488,0,0,1,7.764,0l2.145,2.143a1.829,1.829,0,0,0,2.588,0l2.145-2.143a5.484,5.484,0,0,1,3.882-1.609,1.83,1.83,0,0,1,0,3.66,1.825,1.825,0,0,0-1.294.536l-2.145,2.143A5.232,5.232,0,0,1,383.054,375.484Zm-4.581.932a5.492,5.492,0,0,1-2.581-1.453l-2.145-2.143a1.829,1.829,0,0,0-2.588,0l-2.145,2.143a5.492,5.492,0,0,1-2.581,1.453l3.2,6.285a9.154,9.154,0,0,1,.994,4.149v11.056h3.66V386.85a9.154,9.154,0,0,1,.994-4.149Z" transform="translate(-334.019 -332.019)" fill="#4a4e3c" fill-rule="evenodd"/>
      </g>
    </g>
  </g>
</svg>
