<svg xmlns="http://www.w3.org/2000/svg" width="96" height="96" viewBox="0 0 96 96">
  <g id="img19" transform="translate(-794.039 -2920.081)">
    <path id="Elipse_5729" data-name="Elipse 5729" d="M48,0A48,48,0,1,1,0,48,48,48,0,0,1,48,0Z" transform="translate(794.039 2920.081)" fill="#9c3413"/>
    <g id="Group_1197534" data-name="Group 1197534" transform="translate(810.039 2936.32)">
      <path id="Path_1019881" data-name="Path 1019881" d="M11.787,153.41,6.649,149.3a.93.93,0,0,0-1.162,0L.349,153.41a.931.931,0,0,0-.349.727v7.193a.93.93,0,0,0,.93.93H11.206a.93.93,0,0,0,.93-.93v-7.193A.931.931,0,0,0,11.787,153.41ZM10.275,160.4H1.861v-5.815l4.207-3.366,4.207,3.366V160.4Z" transform="translate(0 -130.597)" fill="#fff"/>
      <path id="Path_1019882" data-name="Path 1019882" d="M41.417,199.725v1.028a.93.93,0,0,0,1.861,0v-1.028a.93.93,0,1,0-1.861,0Z" transform="translate(-36.279 -174.131)" fill="#fff"/>
      <path id="Path_1019883" data-name="Path 1019883" d="M293.491,29.279l-.311.618a.954.954,0,0,0,.345,1.252.93.93,0,0,0,1.3-.385l.365-.726a3.91,3.91,0,0,0,.915.11,4.125,4.125,0,0,0,3.273-1.663,3.541,3.541,0,0,0-.357-4.715c-.147-.153-.3-.31-.444-.47l1.558-3.1a2.545,2.545,0,0,1,.335.429.925.925,0,1,0,1.546-1.017A4.631,4.631,0,0,0,301,18.492l.274-.546a.956.956,0,0,0-.37-1.27.931.931,0,0,0-1.275.4l-.322.64c-.086-.02-.174-.038-.265-.054a3.364,3.364,0,0,0-3.246,1.321,2.978,2.978,0,0,0-.442,3.062,7.611,7.611,0,0,0,1,1.534l-2.026,4.03a3.1,3.1,0,0,1-1.063-1.2.956.956,0,0,0-1.26-.384.931.931,0,0,0-.367,1.288,4.879,4.879,0,0,0,1.851,1.965Zm3.781-9.167a1.585,1.585,0,0,1,1.146-.635l-1.124,2.236a4.083,4.083,0,0,1-.259-.461A1.159,1.159,0,0,1,297.272,20.112Zm.418,4.956a1.717,1.717,0,0,1,.189,2.317,2.208,2.208,0,0,1-1.807.9Z" transform="translate(-255.353 -14.505)" fill="#fff"/>
      <path id="Path_1019884" data-name="Path 1019884" d="M110.721,12.794a24.8,24.8,0,0,0,4.137.87.949.949,0,0,0,.1.005.93.93,0,0,0,.747-.375,24.784,24.784,0,0,0,2.167-3.63c1.375-2.851,1.7-5.154.957-6.845a4.681,4.681,0,0,0-8.39-.405,4.687,4.687,0,0,0-5.394,6.44c.74,1.692,2.651,3.017,5.678,3.94ZM106.7,5.936a2.819,2.819,0,0,1,1.5-1.566,2.76,2.76,0,0,1,1.111-.234,2.882,2.882,0,0,1,1.23.281.93.93,0,0,0,1.283-.562,2.827,2.827,0,0,1,5.29-.29c.974,2.224-1.316,6.31-2.6,8.181-2.246-.325-6.8-1.414-7.775-3.638a2.817,2.817,0,0,1-.044-2.171Z" transform="translate(-91.665)" fill="#fff"/>
      <path id="Path_1019885" data-name="Path 1019885" d="M390.948,137.715l-3.509-1.335.033-3.754a1.958,1.958,0,0,0-3.483-1.245l-.219.272a.93.93,0,0,0,1.449,1.167l.219-.272a.1.1,0,0,1,.173.062l-.038,4.4a.93.93,0,0,0,.6.878l4.114,1.566a.1.1,0,0,1-.005.183l-4.2,1.324a.93.93,0,0,0-.649.841l-.218,4.4a.1.1,0,0,1-.176.052l-2.556-3.584a.93.93,0,0,0-1-.358l-4.249,1.152a.1.1,0,0,1-.1-.152l2.618-3.539a.931.931,0,0,0,.031-1.062l-2.408-3.685a.1.1,0,0,1,.112-.145l4.174,1.4a.93.93,0,0,0,.59-1.764l-4.175-1.4a1.958,1.958,0,0,0-2.26,2.928l2.054,3.143-2.233,3.018a1.958,1.958,0,0,0,2.086,3.054l3.624-.982,2.18,3.057a1.932,1.932,0,0,0,1.581.824,2,2,0,0,0,.564-.082,1.935,1.935,0,0,0,1.4-1.782l.186-3.75,3.581-1.129a1.958,1.958,0,0,0,.107-3.7Z" transform="translate(-328.697 -114.436)" fill="#fff"/>
      <path id="Path_1019886" data-name="Path 1019886" d="M104.81,130.971a.93.93,0,0,0,1.316-1.316l-5.138-5.138a.93.93,0,1,0-1.316,1.316Z" transform="translate(-87.07 -108.829)" fill="#fff"/>
      <path id="Path_1019887" data-name="Path 1019887" d="M241.147,129.189a.93.93,0,0,0,.93-.93v-3.083a.93.93,0,0,0-1.861,0v3.083A.93.93,0,0,0,241.147,129.189Z" transform="translate(-210.419 -108.829)" fill="#fff"/>
      <path id="Path_1019888" data-name="Path 1019888" d="M324.349,157.651l-1.028,1.027a.93.93,0,1,0,1.316,1.316l1.028-1.027a.93.93,0,1,0-1.316-1.316Z" transform="translate(-282.976 -137.852)" fill="#fff"/>
      <path id="Path_1019889" data-name="Path 1019889" d="M100.331,277.262a.927.927,0,0,0,.658-.273l2.055-2.055a.93.93,0,1,0-1.316-1.316l-2.055,2.055a.93.93,0,0,0,.658,1.588Z" transform="translate(-87.07 -239.434)" fill="#fff"/>
      <path id="Path_1019890" data-name="Path 1019890" d="M369,292.123l-3.083-2.055a.93.93,0,1,0-1.032,1.548l3.083,2.055A.93.93,0,1,0,369,292.123Z" transform="translate(-319.255 -253.944)" fill="#fff"/>
      <path id="Path_1019891" data-name="Path 1019891" d="M132.75,228.732l-7.412-2.471a2.149,2.149,0,0,1-1.472-2.042v-2.97a10.169,10.169,0,0,0,4.11-8.166v-1.516a1.944,1.944,0,0,0,.334-.227,1.964,1.964,0,0,0,.694-1.5v-3.951a7.1,7.1,0,0,0-7.1-7.1h-9.248a6.075,6.075,0,0,0-6.068,6.068v3.971a1.938,1.938,0,0,0,1.027,1.722v2.527a10.169,10.169,0,0,0,4.11,8.166v2.97a2.149,2.149,0,0,1-1.472,2.042l-7.412,2.471a5.034,5.034,0,0,0-3.447,4.782v3.2a.93.93,0,1,0,1.861,0v-3.2a3.176,3.176,0,0,1,2.174-3.017l6.212-2.071a10.177,10.177,0,0,0,16.3,0l6.213,2.071a3.176,3.176,0,0,1,2.174,3.017v3.2a.93.93,0,1,0,1.861,0v-3.2A5.034,5.034,0,0,0,132.75,228.732Zm-23.269-15.648v-2.526a2,2,0,0,0,.323-.219l3.963-3.3a38.138,38.138,0,0,0,6.806,3.149.93.93,0,1,0,.617-1.756,34.745,34.745,0,0,1-6.985-3.313.93.93,0,0,0-1.112.059l-4.48,3.733a.1.1,0,0,1-.159-.075v-3.971a4.212,4.212,0,0,1,4.207-4.207h9.248a5.241,5.241,0,0,1,5.235,5.235v3.951a.1.1,0,0,1-.038.081.065.065,0,0,1-.057.018c-.612-.1-1.235-.221-1.854-.359a.93.93,0,1,0-.406,1.816c.442.1.886.189,1.328.269v1.417a8.318,8.318,0,0,1-16.635,0Zm8.317,17.565a8.326,8.326,0,0,1-6.311-2.9,4.006,4.006,0,0,0,2.1-3.528v-1.872a10.141,10.141,0,0,0,8.415,0v1.872a4.006,4.006,0,0,0,2.1,3.528A8.311,8.311,0,0,1,117.8,230.648Z" transform="translate(-87.07 -174.131)" fill="#fff"/>
    </g>
  </g>
</svg>
