<svg xmlns="http://www.w3.org/2000/svg" width="96" height="96" viewBox="0 0 96 96">
  <g id="img23" transform="translate(-794.039 -2920.295)">
    <path id="Elipse_5729" data-name="Elipse 5729" d="M48,0A48,48,0,1,1,0,48,48,48,0,0,1,48,0Z" transform="translate(794.039 2920.295)" fill="#9c3413"/>
    <path id="Path_1019916" data-name="Path 1019916" d="M20.787,33.861l-.974.974a4.482,4.482,0,1,0,.806,1.15l1.146-1.146a.691.691,0,1,0-.978-.978Zm-1.1,4.092a3.122,3.122,0,1,1-.854-2.14l-2.262,2.262-1.13-1.13a.691.691,0,0,0-.978.978l1.619,1.619a.691.691,0,0,0,.978,0l2.493-2.493a3.107,3.107,0,0,1,.134.905Zm1.1,6.952-.974.974a4.482,4.482,0,1,0,.806,1.15l1.146-1.146a.691.691,0,1,0-.978-.978ZM19.69,49a3.122,3.122,0,1,1-.854-2.14l-2.262,2.262-1.13-1.13a.691.691,0,0,0-.978.978l1.619,1.619a.691.691,0,0,0,.978,0l2.493-2.493a3.105,3.105,0,0,1,.134.9Zm4.05-3.081a.691.691,0,0,1,.691-.691H31.08a.691.691,0,1,1,0,1.382H24.431a.691.691,0,0,1-.691-.691Zm0-7.963a.691.691,0,0,1,.691-.691h13.3a.691.691,0,0,1,0,1.382h-13.3a.691.691,0,0,1-.691-.691Zm0-3.081a.691.691,0,0,1,.691-.691h13.3a.691.691,0,1,1,0,1.382h-13.3a.691.691,0,0,1-.691-.692Zm13.989,6.854h-13.3a.691.691,0,1,1,0-1.382h13.3a.691.691,0,1,1,0,1.382ZM52.466,66.008,52.2,64.8a2.054,2.054,0,0,0-1.236-1.459,6.793,6.793,0,0,0,.494-3.519c0-.014-.005-.029-.008-.043l-1.816-8.166a2.278,2.278,0,0,0-1.575-1.689v-20.3A4.031,4.031,0,0,0,44.031,25.6H6.463a4.031,4.031,0,0,0-4.026,4.026v27.7a4.031,4.031,0,0,0,4.026,4.026H33.012c.091.206.188.422.293.65a13.171,13.171,0,0,0,3.5,4.656c-.019.026-.039.052-.056.079a2.043,2.043,0,0,0-.273,1.55l.268,1.207A2.053,2.053,0,0,0,39.2,71.055l11.7-2.594a2.056,2.056,0,0,0,1.562-2.452Zm-46-6.04a2.646,2.646,0,0,1-2.644-2.644v-27.7a2.646,2.646,0,0,1,2.644-2.643H44.031a2.646,2.646,0,0,1,2.644,2.644V49.953a2.258,2.258,0,0,0-.808.482,2.1,2.1,0,0,0-.186-.2V29.562A1.587,1.587,0,0,0,44.1,27.976H6.4a1.587,1.587,0,0,0-1.585,1.585V57.389A1.587,1.587,0,0,0,6.4,58.974H32.043c.053.133.108.274.167.425q.1.267.224.57ZM34.188,46.7l2,9.11C35.022,54.447,34.11,54,32.832,54.186a2.147,2.147,0,0,0-1.676,1.279,2.177,2.177,0,0,0,.209,2.126H6.4a.2.2,0,0,1-.2-.2V29.562a.2.2,0,0,1,.2-.2H44.1a.2.2,0,0,1,.2.2V49.669a2.561,2.561,0,0,0-.662.059,2.263,2.263,0,0,0-1.179.679,2.274,2.274,0,0,0-2.04-.554,2.247,2.247,0,0,0-.831.372L38.579,45.7A2.206,2.206,0,0,0,37.09,44a2.361,2.361,0,0,0-2.269.5A2.239,2.239,0,0,0,34.188,46.7ZM34.56,61.42c-.49-1.058-.808-1.872-1.063-2.525a9.679,9.679,0,0,0-1-2.092.8.8,0,0,1-.077-.786.768.768,0,0,1,.6-.463c.9-.127,1.478-.019,3.966,3.724a.691.691,0,0,0,1.251-.531L35.538,46.4a.862.862,0,0,1,.217-.88.969.969,0,0,1,.918-.2.828.828,0,0,1,.556.674l2.2,9.9a.691.691,0,0,0,1.35-.3l-.735-3.313a.893.893,0,1,1,1.74-.4l0,.01.969,4.075a.691.691,0,1,0,1.345-.32l-.858-3.611a.9.9,0,0,1,.7-.959.942.942,0,0,1,.681.075.88.88,0,0,1,.385.6l.961,4.333a.691.691,0,1,0,1.35-.3L46.537,52.3a.894.894,0,0,1,1.745-.386l1.811,8.144a5.8,5.8,0,0,1-.629,3.244L38.043,65.833l-.028.008A11.542,11.542,0,0,1,34.56,61.42Zm16.466,5.395a.669.669,0,0,1-.422.3L38.9,69.705a.674.674,0,0,1-.8-.512l-.268-1.207a.674.674,0,0,1,.512-.8l11.7-2.594a.674.674,0,0,1,.8.512l.268,1.207A.669.669,0,0,1,51.027,66.815ZM32.555,52.079a.691.691,0,0,1-.691.691H24.431a.691.691,0,0,1,0-1.382h7.432A.691.691,0,0,1,32.555,52.079ZM23.74,49a.691.691,0,0,1,.691-.691H31.57a.691.691,0,0,1,0,1.382H24.431A.691.691,0,0,1,23.74,49Z" transform="translate(814.602 2919.695)" fill="#fff"/>
  </g>
</svg>
