<svg xmlns="http://www.w3.org/2000/svg" width="128" height="128" viewBox="0 0 128 128">
  <g id="img28_1" transform="translate(-381.746 -8402)">
    <path id="Path_997402" data-name="Path 997402" d="M64,0A64,64,0,1,1,0,64,64,64,0,0,1,64,0Z" transform="translate(381.746 8402)" fill="#b9c296"/>
    <g id="Group_1197540" data-name="Group 1197540" transform="translate(397.058 8417.312)">
      <path id="Path_1019928" data-name="Path 1019928" d="M80.287,16H32.344a1.09,1.09,0,0,0-1.09,1.09V21l-3.522-3.522a5.036,5.036,0,0,0-7.121,0l-3.136,3.136a5.036,5.036,0,0,0,0,7.121L29.714,39.971H27.986a1.09,1.09,0,0,0-1.09,1.09v3q-.323.126-.639.271L24.4,42.47a1.09,1.09,0,0,0-1.541,0L18.5,46.828a1.09,1.09,0,0,0,0,1.541l1.86,1.859q-.145.315-.271.639h-3A1.09,1.09,0,0,0,16,51.957v6.538a1.09,1.09,0,0,0,1.09,1.09h3q.126.323.271.639L18.5,62.083a1.09,1.09,0,0,0,0,1.541l4.358,4.358a1.09,1.09,0,0,0,1.541,0l1.86-1.859q.315.145.639.271v9.535a5.454,5.454,0,0,0,5.448,5.448H75.929a5.454,5.454,0,0,0,5.448-5.448V17.09A1.09,1.09,0,0,0,80.287,16ZM41.155,33.979l-1.183,1.183-10.99-10.99,1.183-1.183Zm4.892,12.067-3.2-.872,2.326-2.326Zm-5.62-1.533-2.294-.625a7.641,7.641,0,0,1-2.557-1.249l7.063-7.063a7.641,7.641,0,0,1,1.249,2.557l.625,2.293ZM20.81,27.986l7.176-7.176.638.638-7.176,7.176Zm6.631-2.273L38.431,36.7,36.7,38.43l-10.99-10.99Zm-8.425-3.561,3.137-3.137a2.856,2.856,0,0,1,4.039,0l.253.253-7.176,7.176-.253-.253A2.856,2.856,0,0,1,19.016,22.152Zm5.156,6.83,10.99,10.99-1.183,1.183-10.99-10.99Zm7.082,28.423a2.179,2.179,0,1,1,0-4.358Zm0-6.538a4.358,4.358,0,1,0,0,8.717v2.179a6.538,6.538,0,1,1,0-13.075ZM26.564,63.84a1.09,1.09,0,0,0-1.292.186l-1.644,1.644L20.81,62.853l1.645-1.644a1.09,1.09,0,0,0,.186-1.292,9.723,9.723,0,0,1-.742-1.747,1.09,1.09,0,0,0-1.04-.764H18.179V53.047h2.679a1.09,1.09,0,0,0,1.04-.764,9.723,9.723,0,0,1,.742-1.747,1.09,1.09,0,0,0-.186-1.292L20.81,47.6l2.818-2.817,1.644,1.644a1.09,1.09,0,0,0,1.292.186,9.732,9.732,0,0,1,1.748-.742,1.09,1.09,0,0,0,.764-1.04V42.151h2.179v4.358a8.717,8.717,0,1,0,0,17.434V68.3H29.075V65.622a1.09,1.09,0,0,0-.764-1.04,9.733,9.733,0,0,1-1.748-.742ZM32.344,79.2a3.273,3.273,0,0,1-3.269-3.269V70.481H70.481v5.448A5.42,5.42,0,0,0,71.573,79.2ZM55.226,56.316a1.09,1.09,0,1,1,1.09,1.09,1.09,1.09,0,0,1-1.09-1.09Zm5.448,9.807V68.3H51.957V66.122ZM79.2,75.929a3.269,3.269,0,1,1-6.538,0V69.391a1.09,1.09,0,0,0-1.09-1.09H62.853V65.033a1.09,1.09,0,0,0-1.09-1.09H57.405V59.4A3.285,3.285,0,0,0,59.4,57.405h2.367v3.269a1.09,1.09,0,0,0,1.09,1.09h10.9a1.09,1.09,0,0,0,1.09-1.09V51.957a1.09,1.09,0,0,0-1.09-1.09h-10.9a1.09,1.09,0,0,0-1.09,1.09v3.269H59.4a3.269,3.269,0,0,0-6.163,0H50.868V51.957a1.09,1.09,0,0,0-1.09-1.09h-10.9a1.09,1.09,0,0,0-1.09,1.09v8.717a1.09,1.09,0,0,0,1.09,1.09h10.9a1.09,1.09,0,0,0,1.09-1.09V57.405h2.367A3.285,3.285,0,0,0,55.226,59.4v4.546H50.868a1.09,1.09,0,0,0-1.09,1.09V68.3H33.434V43.684A9.825,9.825,0,0,0,37.56,45.99l9.752,2.66a1.086,1.086,0,0,0,.287.038H65.033a1.09,1.09,0,0,0,1.09-1.09V44.33H73.75a1.09,1.09,0,0,0,1.09-1.09V23.627a1.09,1.09,0,0,0-1.09-1.09H65.033a1.09,1.09,0,0,0-1.09,1.09V46.509H48.431l-1.189-4.358H58.495a1.09,1.09,0,1,0,0-2.179H46.648l-.594-2.179H58.495a1.09,1.09,0,0,0,0-2.179H45.226a9.822,9.822,0,0,0-1.542-2.179H47.6a1.09,1.09,0,0,0,0-2.179H43.24a1.09,1.09,0,0,0-1.02.708l-8.787-8.787v-5H79.2ZM63.943,59.584V53.047H72.66v6.538ZM48.688,53.047v6.538H39.972V53.047Zm17.434-10.9V24.717H72.66V42.151Z" fill="#4a4e3c"/>
      <path id="Path_1019929" data-name="Path 1019929" d="M225.09,66.179h4.358a1.09,1.09,0,1,0,0-2.179H225.09a1.09,1.09,0,0,0,0,2.179Z" transform="translate(-179.67 -41.462)" fill="#4a4e3c"/>
      <path id="Path_1019930" data-name="Path 1019930" d="M209.09,98.179h15.255a1.09,1.09,0,1,0,0-2.179H209.09a1.09,1.09,0,0,0,0,2.179Z" transform="translate(-165.849 -69.104)" fill="#4a4e3c"/>
      <path id="Path_1019931" data-name="Path 1019931" d="M289.09,66.179h4.358a1.09,1.09,0,1,0,0-2.179H289.09a1.09,1.09,0,1,0,0,2.179Z" transform="translate(-234.953 -41.462)" fill="#4a4e3c"/>
      <path id="Path_1019932" data-name="Path 1019932" d="M279.627,128H273.09a1.09,1.09,0,1,0,0,2.179h6.538a1.09,1.09,0,0,0,0-2.179Z" transform="translate(-221.132 -96.745)" fill="#4a4e3c"/>
    </g>
  </g>
</svg>
