<svg xmlns="http://www.w3.org/2000/svg" width="128" height="128" viewBox="0 0 128 128">
  <g id="img29_1" transform="translate(-383.746 -8400)">
    <circle id="Ellipse_13609" data-name="Ellipse 13609" cx="64" cy="64" r="64" transform="translate(383.746 8400)" fill="#b9c296"/>
    <g id="Group_1197541" data-name="Group 1197541" transform="translate(396.668 8412.922)">
      <path id="Path_1019933" data-name="Path 1019933" d="M84.988,16H33.539a1.169,1.169,0,0,0-1.169,1.169v22.9L28.59,36.291a5.4,5.4,0,0,0-7.642,0l-3.366,3.366a5.4,5.4,0,0,0,0,7.642L32.37,62.086V72.126H28.862a1.169,1.169,0,0,0-1.169,1.169v7.016a5.853,5.853,0,0,0,5.846,5.846H80.311a5.853,5.853,0,0,0,5.846-5.846V17.169A1.169,1.169,0,0,0,84.988,16ZM42.994,54l-1.27,1.27L29.931,43.478l1.27-1.27Zm15.1,5.262V55.756h2.339v3.508A1.169,1.169,0,0,0,61.6,60.433h8.185v2.339H61.6a1.169,1.169,0,0,0-1.169,1.169v3.508H50.8l-1.913-7.016h8.036A1.169,1.169,0,0,0,58.094,59.264Zm4.677-1.169V23.016h16.37V58.094Zm16.37,7.016v2.339H62.771V65.11Zm-30.9,1.842-3.432-.935,2.5-2.5ZM21.161,47.571l7.7-7.7.685.685-7.7,7.7Zm7.116-2.439L40.071,56.925l-1.854,1.854L26.423,46.986ZM44.587,55.716a8.2,8.2,0,0,1,1.34,2.744l.671,2.461-4.386,4.385-2.461-.67a8.2,8.2,0,0,1-2.744-1.34Zm11.169,2.378h-7.5l-.068-.249a10.543,10.543,0,0,0-2.711-4.673L41.039,48.74H55.756ZM19.236,41.311,22.6,37.945a3.065,3.065,0,0,1,4.335,0l.271.271-7.7,7.7-.271-.271a3.065,3.065,0,0,1,0-4.335ZM24.77,48.64,36.563,60.433l-1.27,1.27L23.5,49.909Zm8.77,35.179a3.512,3.512,0,0,1-3.508-3.508V74.464H74.464v5.846a5.816,5.816,0,0,0,1.172,3.508Zm50.279-3.508a3.508,3.508,0,0,1-7.016,0V73.295a1.169,1.169,0,0,0-1.169-1.169H34.708V64.417a10.541,10.541,0,0,0,4.427,2.475L49.6,69.746a1.166,1.166,0,0,0,.308.041h30.4a1.169,1.169,0,0,0,1.169-1.169V63.941a1.169,1.169,0,0,0-1.169-1.169H72.126V60.433h8.185a1.169,1.169,0,0,0,1.169-1.169V21.846a1.169,1.169,0,0,0-1.169-1.169H61.6a1.169,1.169,0,0,0-1.169,1.169v4.677H58.094V21.846a1.169,1.169,0,0,0-1.169-1.169H38.216a1.169,1.169,0,0,0-1.169,1.169V33.539a1.169,1.169,0,0,0,1.169,1.169H56.925a1.169,1.169,0,0,0,1.169-1.169V28.862h2.339V53.417H58.094V47.571A1.169,1.169,0,0,0,56.925,46.4H38.7l-3.992-3.992V18.339h49.11Zm-28.063-57.3V32.37H39.386V23.016Z" fill="#4a4e3c"/>
      <path id="Path_1019934" data-name="Path 1019934" d="M225.169,194.339h9.354a1.169,1.169,0,1,0,0-2.339h-9.354a1.169,1.169,0,1,0,0,2.339Z" transform="translate(-177.599 -150.276)" fill="#4a4e3c"/>
      <path id="Path_1019935" data-name="Path 1019935" d="M225.169,162.339h9.354a1.169,1.169,0,1,0,0-2.339h-9.354a1.169,1.169,0,1,0,0,2.339Z" transform="translate(-177.599 -122.953)" fill="#4a4e3c"/>
      <path id="Path_1019936" data-name="Path 1019936" d="M163.508,167.016A3.508,3.508,0,1,0,160,163.508,3.508,3.508,0,0,0,163.508,167.016Zm0-4.677a1.169,1.169,0,1,1-1.169,1.169A1.169,1.169,0,0,1,163.508,162.339Z" transform="translate(-122.953 -122.953)" fill="#4a4e3c"/>
      <path id="Path_1019937" data-name="Path 1019937" d="M362.524,80h-9.354A1.169,1.169,0,0,0,352,81.169v7.016a1.169,1.169,0,0,0,1.169,1.169h9.354a1.169,1.169,0,0,0,1.169-1.169V81.169A1.169,1.169,0,0,0,362.524,80Zm-1.169,7.016h-7.016V82.339h7.016Z" transform="translate(-286.89 -54.646)" fill="#4a4e3c"/>
      <path id="Path_1019938" data-name="Path 1019938" d="M362.524,160h-9.354A1.169,1.169,0,0,0,352,161.169v7.016a1.169,1.169,0,0,0,1.169,1.169h9.354a1.169,1.169,0,0,0,1.169-1.169v-7.016A1.169,1.169,0,0,0,362.524,160Zm-1.169,7.016h-7.016v-4.677h7.016Z" transform="translate(-286.89 -122.953)" fill="#4a4e3c"/>
      <path id="Path_1019939" data-name="Path 1019939" d="M362.524,272h-9.354a1.169,1.169,0,1,0,0,2.339h9.354a1.169,1.169,0,0,0,0-2.339Z" transform="translate(-286.89 -218.583)" fill="#4a4e3c"/>
      <path id="Path_1019940" data-name="Path 1019940" d="M362.524,240h-9.354a1.169,1.169,0,0,0,0,2.339h9.354a1.169,1.169,0,0,0,0-2.339Z" transform="translate(-286.89 -191.26)" fill="#4a4e3c"/>
    </g>
  </g>
</svg>
