<svg xmlns="http://www.w3.org/2000/svg" width="128" height="128" viewBox="0 0 128 128">
  <g id="img27" transform="translate(-383.746 -8400)">
    <circle id="Ellipse_13609" data-name="Ellipse 13609" cx="64" cy="64" r="64" transform="translate(383.746 8400)" fill="#ff945d"/>
    <g id="Group_1197539" data-name="Group 1197539" transform="translate(414.258 8430.513)">
      <path id="Path_1019922" data-name="Path 1019922" d="M62.83,47.111a3.144,3.144,0,0,0,3.144-3.144V4.144A3.144,3.144,0,0,0,62.83,1H4.144A3.144,3.144,0,0,0,1,4.144V43.967a3.144,3.144,0,0,0,3.144,3.144H22.588a17.9,17.9,0,0,0,8.568,7.131L27.813,57.59H24.055V54.446A3.144,3.144,0,0,0,20.911,51.3H8.336a3.144,3.144,0,0,0-3.144,3.144V62.83a3.144,3.144,0,0,0,3.144,3.144H20.911a3.144,3.144,0,0,0,3.144-3.144V59.686h4.192a1.048,1.048,0,0,0,.741-.307l4.424-4.424A17.515,17.515,0,0,0,47.1,52.77l2.725,2.725-.307.307a1.048,1.048,0,0,0,0,1.482L56.6,64.364a5.494,5.494,0,0,0,7.77-7.77l-7.081-7.081a1.048,1.048,0,0,0-1.482,0l-.31.307-2.71-2.71ZM21.959,62.83a1.048,1.048,0,0,1-1.048,1.048H8.336A1.048,1.048,0,0,1,7.288,62.83V54.446A1.048,1.048,0,0,1,8.336,53.4H20.911a1.048,1.048,0,0,1,1.048,1.048ZM4.144,45.015A1.048,1.048,0,0,1,3.1,43.967V4.144A1.048,1.048,0,0,1,4.144,3.1H62.83a1.048,1.048,0,0,1,1.048,1.048V43.967a1.048,1.048,0,0,1-1.048,1.048H53.9a17.749,17.749,0,0,0-8.959-23.591l5.318-5.318v2.71h2.1v-5.24A1.048,1.048,0,0,0,51.3,12.528h-5.24v2.1h2.71l-5.993,5.993a17.723,17.723,0,0,0-4.5-.723l-4.951-7.922a1.048,1.048,0,0,0-.889-.493H28.247V8.336A3.144,3.144,0,0,0,25.1,5.192H12.528A3.144,3.144,0,0,0,9.384,8.336V16.72a3.144,3.144,0,0,0,3.144,3.144H25.1a3.144,3.144,0,0,0,3.144-3.144V13.576h3.611l3.989,6.382a17.785,17.785,0,0,0-11.64,6.1L22.74,24.406a1.048,1.048,0,0,0-.775-.351h-.005a1.048,1.048,0,0,0-.772.34L9.659,36.971,11.2,38.387l10.744-11.72L22.9,27.74a17.582,17.582,0,0,0-2.743,13.083H7.288v-28.3h-2.1V41.871A1.048,1.048,0,0,0,6.24,42.919H20.653a17.5,17.5,0,0,0,.81,2.1ZM26.151,8.336V16.72A1.048,1.048,0,0,1,25.1,17.768H12.528A1.048,1.048,0,0,1,11.48,16.72V8.336a1.048,1.048,0,0,1,1.048-1.048H25.1A1.048,1.048,0,0,1,26.151,8.336ZM21.959,37.679A15.72,15.72,0,1,1,37.679,53.4,15.72,15.72,0,0,1,21.959,37.679Zm40.923,20.4a3.4,3.4,0,1,1-4.806,4.806l-6.34-6.34,4.806-4.806ZM51.3,54.013l-2.466-2.466a17.909,17.909,0,0,0,2.71-2.71L54.013,51.3Z" fill="#4a4e3c"/>
      <path id="Path_1019923" data-name="Path 1019923" d="M36.624,23A13.624,13.624,0,1,0,50.247,36.624,13.624,13.624,0,0,0,36.624,23Zm-.457,2.119-6.834,6.834L27.384,29.76a11.5,11.5,0,0,1,8.783-4.641Zm.457,23.032a11.528,11.528,0,0,1-10.255-6.288H38.72v-2.1H25.542a11.349,11.349,0,0,1,.7-8.131l2.257,2.54a1.048,1.048,0,0,0,.753.351h.03a1.048,1.048,0,0,0,.741-.307l8.893-8.893a11.528,11.528,0,0,1-2.3,22.824Z" transform="translate(1.055 1.055)" fill="#4a4e3c"/>
      <path id="Path_1019924" data-name="Path 1019924" d="M13,9H23.48v2.1H13Z" transform="translate(0.576 0.384)" fill="#4a4e3c"/>
      <path id="Path_1019925" data-name="Path 1019925" d="M13,13H23.48v2.1H13Z" transform="translate(0.576 0.576)" fill="#4a4e3c"/>
      <path id="Path_1019926" data-name="Path 1019926" d="M9,53H19.48v2.1H9Z" transform="translate(0.384 2.494)" fill="#4a4e3c"/>
      <path id="Path_1019927" data-name="Path 1019927" d="M9,57H19.48v2.1H9Z" transform="translate(0.384 2.686)" fill="#4a4e3c"/>
    </g>
  </g>
</svg>
