<svg xmlns="http://www.w3.org/2000/svg" width="128" height="128" viewBox="0 0 128 128">
  <g id="img6" transform="translate(-383.746 -8400)">
    <path id="Path_997401" data-name="Path 997401" d="M64,0A64,64,0,1,1,0,64,64,64,0,0,1,64,0Z" transform="translate(383.746 8400)" fill="#ff945d"/>
    <g id="Group_1196537" data-name="Group 1196537" transform="translate(410.438 8428.783)">
      <path id="Path_1018687" data-name="Path 1018687" d="M310.9,11.6l-5.439-3.954V2.44A1.824,1.824,0,0,0,303.635.619h-2.9a1.824,1.824,0,0,0-1.822,1.822v.451L295.463.384a2.173,2.173,0,0,0-2.464,0L277.566,11.6a1.093,1.093,0,1,0,1.285,1.768l1.721-1.251v13.3h-1.6a1.093,1.093,0,0,0,0,2.186h20.71a1.093,1.093,0,1,0,0-2.186h-.856V14.985a1.64,1.64,0,0,0-1.638-1.638h-5.927a1.639,1.639,0,0,0-1.637,1.638V25.416h-6.871v-14.7a.641.641,0,0,1,.139-.282l11.333-8.24,11.327,8.235a.645.645,0,0,1,.145.277V25.416h-.769a1.093,1.093,0,1,0,0,2.186h4.551a1.093,1.093,0,1,0,0-2.186h-1.6V12.12l1.721,1.251A1.093,1.093,0,1,0,310.9,11.6Zm-19.08,3.93h4.83v9.882h-4.83ZM303.271,6.06,301.1,4.481V2.8h2.172Zm0,0" transform="translate(-236.73 0)" fill="#4a4e3c"/>
      <path id="Path_1018688" data-name="Path 1018688" d="M69.868,116.5l-5.776-4.2h0l-2.61-1.9v-8.46a1.823,1.823,0,0,0-1.822-1.822H54.576a1.824,1.824,0,0,0-1.822,1.822v2.117l-6.34-4.61a2.173,2.173,0,0,0-2.464,0l-8.225,5.98V94.571l2.32,1.687a1.093,1.093,0,0,0,1.285-1.769l-4.643-3.375,0,0-1.814-1.319V83.46a1.824,1.824,0,0,0-1.822-1.822H27.395a1.824,1.824,0,0,0-1.822,1.822v1.028l-4.45-3.235c-.043-.032-.088-.061-.135-.089l-.019-.011a2.175,2.175,0,0,0-2.151,0l-.024.013c-.046.028-.091.057-.135.089L5.1,91.112l0,0L.451,94.49a1.093,1.093,0,1,0,1.285,1.768l2.32-1.687V110.73H2a1.093,1.093,0,1,0,0,2.186H25.421L20.5,116.5a1.093,1.093,0,1,0,1.285,1.768l3.452-2.51v21.573H22.291a1.093,1.093,0,1,0,0,2.186H68.072a1.093,1.093,0,1,0,0-2.186H65.13v-6.071a1.093,1.093,0,1,0-2.186,0v6.071H51.539v-16.2a1.913,1.913,0,0,0-1.91-1.911H40.735a1.913,1.913,0,0,0-1.91,1.911v16.2H27.42V114.346a.638.638,0,0,1,.139-.281l17.624-12.814L62.8,114.06a.645.645,0,0,1,.145.277V126.01a1.093,1.093,0,0,0,2.186,0V115.755l3.453,2.51a1.093,1.093,0,0,0,1.285-1.768ZM41.01,121.4h8.343v15.924H41.01ZM27.759,83.825h2.927V88.2l-2.927-2.128ZM6.243,93.163a.634.634,0,0,1,.139-.282L19.891,83.06l13.5,9.817a.646.646,0,0,1,.145.277v13.86l-5.112,3.716H25.1v-4.247a1.093,1.093,0,1,0-2.186,0v4.247H16.868V98.757h6.046V100.8a1.093,1.093,0,0,0,2.186,0V98.3a1.734,1.734,0,0,0-1.732-1.732H16.415A1.734,1.734,0,0,0,14.682,98.3V110.73H6.243Zm48.7,9.139h4.354v6.507l-4.354-3.166Zm0,0" transform="translate(0 -69.081)" fill="#4a4e3c"/>
      <path id="Path_1018689" data-name="Path 1018689" d="M368.783,344.027a1.823,1.823,0,0,0-1.822,1.822v9.5a1.823,1.823,0,0,0,1.822,1.822h3.634a1.823,1.823,0,0,0,1.822-1.822v-9.5a1.823,1.823,0,0,0-1.822-1.822Zm3.27,10.954h-2.905v-8.768h2.905Zm0,0" transform="translate(-313.482 -293.891)" fill="#4a4e3c"/>
      <path id="Path_1018690" data-name="Path 1018690" d="M204.322,344.027a1.824,1.824,0,0,0-1.822,1.822v9.5a1.824,1.824,0,0,0,1.822,1.822h3.635a1.824,1.824,0,0,0,1.822-1.822v-9.5a1.824,1.824,0,0,0-1.822-1.822Zm3.27,10.954h-2.906v-8.768h2.906Zm0,0" transform="translate(-172.988 -293.891)" fill="#4a4e3c"/>
    </g>
  </g>
</svg>
