<svg xmlns="http://www.w3.org/2000/svg" width="128" height="128" viewBox="0 0 128 128">
  <g id="img7_1" transform="translate(-383.746 -8399.752)">
    <circle id="Ellipse_13609" data-name="Ellipse 13609" cx="64" cy="64" r="64" transform="translate(383.746 8399.752)" fill="#b9c296"/>
    <g id="Group_1196539" data-name="Group 1196539" transform="translate(410.809 8427.815)">
      <path id="Path_1018691" data-name="Path 1018691" d="M25.892,39.932h-2.4a10.6,10.6,0,0,0-7.882,3.527.938.938,0,1,0,1.4,1.252,8.723,8.723,0,0,1,6.485-2.9h2.4a.938.938,0,1,0,0-1.876Z" transform="translate(-4.93 -16.326)" fill="#4a4e3c"/>
      <path id="Path_1018692" data-name="Path 1018692" d="M67.337,17.863H57.855a.937.937,0,0,0-.938.938v1.588H49.505a4.155,4.155,0,0,0-4.143-3.952H40.737V14.243l5.5.547a3.633,3.633,0,1,0,0-7.231l-5.5.548V7.3a2.546,2.546,0,0,0-5.092,0v.811l-5.5-.548a3.633,3.633,0,1,0-.359,7.249,3.493,3.493,0,0,0,.359-.018l5.5-.547v2.195h-4.62a4.155,4.155,0,0,0-4.143,3.952h-8.3a13.816,13.816,0,0,0-13.8,13.8v9.776a.937.937,0,0,0,.938.938H18.581a.938.938,0,0,0,.938-.938V35.128h8.2a7.374,7.374,0,0,0,6.524,3.954h7.9a7.373,7.373,0,0,0,6.524-3.954h8.246V36.72a.937.937,0,0,0,.938.938h9.482a.937.937,0,0,0,.938-.938V18.8a.937.937,0,0,0-.938-.938ZM38.191,6.626a.672.672,0,0,1,.67.67v.927q-.669.018-1.34,0V7.3A.671.671,0,0,1,38.191,6.626Zm-8.232,6.3a1.758,1.758,0,1,1-.181-3.507c.06,0,.12,0,.181.009l5.631.561c.317.031.636.051.955.071.013,0,.025,0,.038,0h.006a26.306,26.306,0,0,0,3.2,0H39.8c.013,0,.025,0,.038,0,.319-.02.638-.04.956-.071l5.631-.561a1.757,1.757,0,1,1,0,3.5l-5.631-.56a26.193,26.193,0,0,0-5.2,0Zm7.562,1.2q.67-.019,1.34,0v2.312h-1.34ZM18.581,33.252a.937.937,0,0,0-.938.938v8.838H6.656V34.19A11.938,11.938,0,0,1,18.581,22.265h8.291v9.447a7.369,7.369,0,0,0,.165,1.54Zm23.566,3.954H34.241a5.5,5.5,0,0,1-5.493-5.494V20.591a2.28,2.28,0,0,1,2.278-2.278H45.363a2.28,2.28,0,0,1,2.278,2.278V31.712A5.5,5.5,0,0,1,42.147,37.206Zm7.2-3.954a7.37,7.37,0,0,0,.165-1.54V22.265h7.4V33.252ZM66.4,35.78H58.793V19.739H66.4Z" transform="translate(-0.014)" fill="#4a4e3c"/>
      <path id="Path_1018693" data-name="Path 1018693" d="M11.379,85.607C10.7,86.5,4.75,94.48,4.75,98.242a7.377,7.377,0,1,0,14.754,0c0-3.762-5.949-11.737-6.629-12.635a.971.971,0,0,0-1.5,0Zm.75,18.136a5.507,5.507,0,0,1-5.5-5.5c0-2.332,3.476-7.664,5.5-10.485,2.025,2.822,5.5,8.152,5.5,10.485a5.507,5.507,0,0,1-5.5,5.5Z" transform="translate(0 -37.358)" fill="#4a4e3c"/>
    </g>
  </g>
</svg>
