<svg xmlns="http://www.w3.org/2000/svg" width="128" height="128" viewBox="0 0 128 128">
  <g id="img8_1" transform="translate(-381.746 -8401.752)">
    <path id="Path_997402" data-name="Path 997402" d="M64,0A64,64,0,1,1,0,64,64,64,0,0,1,64,0Z" transform="translate(381.746 8401.752)" fill="#b9c296"/>
    <path id="Path_1018694" data-name="Path 1018694" d="M81.409,56.94a4.92,4.92,0,0,0-3.5-3.137,13.394,13.394,0,0,0-7.213.5L57.406,58.2q-.084-.17-.18-.337a5.507,5.507,0,0,0-3.363-2.587l-9.445-2.531C37.526,47.917,33.832,49.3,28.4,51.96c-2.6,1.27-5.18,2.5-7.621,3.653l-.512-1.229a3.212,3.212,0,0,0-4.191-1.729l-5.1,2.119a3.2,3.2,0,0,0-1.731,4.2l8.639,20.745a3.208,3.208,0,0,0,4.191,1.729l5.1-2.119a3.2,3.2,0,0,0,1.731-4.2l-.579-1.39,3.325-1.617a5,5,0,0,1,3.733-.318L46,74.885a8.6,8.6,0,0,0,2.408.324c2.821,0,5.778-1.151,8.264-2.119L77.23,65.166c3.225-1.243,5.216-5.164,4.179-8.227ZM27.01,76.8a1.142,1.142,0,0,1-.625.62l-5.1,2.119a1.149,1.149,0,0,1-1.5-.619L11.145,58.176a1.137,1.137,0,0,1,.619-1.5l5.1-2.119a1.148,1.148,0,0,1,1.5.619L27,75.921A1.142,1.142,0,0,1,27.01,76.8ZM76.49,63.244,55.923,71.171c-2.918,1.136-6.55,2.549-9.351,1.736L35.96,69.826a7.068,7.068,0,0,0-5.208.444l-3.218,1.565L21.572,57.516c2.474-1.169,5.093-2.415,7.733-3.706,5.077-2.482,8.009-3.578,14.074.723a1.032,1.032,0,0,0,.329.155l9.622,2.578A3.486,3.486,0,0,1,51.526,64L38.738,60.574a1.03,1.03,0,1,0-.533,1.99L50.993,65.99a5.548,5.548,0,0,0,6.964-5.8L71.28,56.277c4.4-1.291,7.459-.8,8.178,1.324.68,2.009-.79,4.8-2.968,5.643ZM69.544,21.326a6.163,6.163,0,1,0-6.164-6.163A6.171,6.171,0,0,0,69.544,21.326Zm0-10.266a4.1,4.1,0,1,1-4.1,4.1A4.108,4.108,0,0,1,69.544,11.06ZM30.957,37.2c2.195,1.987,6.674,2.786,10.786,2.786.75,0,1.488-.027,2.2-.078a6.516,6.516,0,0,0,3.7,2.712,24.008,24.008,0,0,0,7.992,1.214c5.074,0,10.185-1.228,11.693-3.926.711.051,1.449.078,2.2.078,4.112,0,8.592-.8,10.786-2.786a3.805,3.805,0,0,0,1.363-2.841,12.136,12.136,0,0,0-21.692-7.483,12.1,12.1,0,0,0-8.7,0,12.137,12.137,0,0,0-21.692,7.483A3.8,3.8,0,0,0,30.957,37.2ZM69.544,24.285A10.088,10.088,0,0,1,79.621,34.361a1.767,1.767,0,0,1-.686,1.314c-1.765,1.6-6.445,2.5-11.169,2.2A12.141,12.141,0,0,0,61.89,27.808,10.071,10.071,0,0,1,69.544,24.285ZM65.715,38.206c0,2-4.426,3.571-10.077,3.571S45.56,40.208,45.56,38.206a10.077,10.077,0,0,1,20.154,0ZM41.731,24.285a10.071,10.071,0,0,1,7.654,3.523,12.141,12.141,0,0,0-5.876,10.069c-4.723.3-9.4-.6-11.169-2.2a1.767,1.767,0,0,1-.686-1.314A10.089,10.089,0,0,1,41.731,24.285Zm0-2.958a6.163,6.163,0,1,0-6.164-6.163,6.171,6.171,0,0,0,6.164,6.163Zm0-10.266a4.1,4.1,0,1,1-4.1,4.1,4.108,4.108,0,0,1,4.1-4.1ZM55.638,25.17a6.163,6.163,0,1,0-6.164-6.164A6.17,6.17,0,0,0,55.638,25.17Zm0-10.266a4.1,4.1,0,1,1-4.1,4.1A4.108,4.108,0,0,1,55.638,14.9Z" transform="translate(400.753 8420.752)" fill="#4a4e3c"/>
  </g>
</svg>
