<svg xmlns="http://www.w3.org/2000/svg" width="128" height="128" viewBox="0 0 128 128">
  <g id="img9_1" transform="translate(-383.746 -8399.752)">
    <circle id="Ellipse_13609" data-name="Ellipse 13609" cx="64" cy="64" r="64" transform="translate(383.746 8399.752)" fill="#b9c296"/>
    <path id="Path_1018695" data-name="Path 1018695" d="M32.713,54.457A11.185,11.185,0,1,0,43.9,43.272,11.185,11.185,0,0,0,32.713,54.457ZM43.9,45.674a8.784,8.784,0,1,1-8.784,8.784A8.784,8.784,0,0,1,43.9,45.674Zm4.336,21.612H39.563c-8.28,0-15.016,6.208-15.016,13.839v9.44A3.239,3.239,0,0,0,27.784,93.8H60.013a3.239,3.239,0,0,0,3.237-3.233v-9.44c0-7.631-6.736-13.839-15.016-13.839ZM60.849,90.564a.845.845,0,0,1-.836.831H54.768V81.124a1.2,1.2,0,1,0-2.4,0V91.4H35.431V81.124a1.2,1.2,0,1,0-2.4,0V91.4H27.784a.835.835,0,0,1-.836-.831v-9.44c0-6.307,5.659-11.438,12.614-11.438h8.672c6.955,0,12.614,5.131,12.614,11.438ZM29.618,21.121a1.2,1.2,0,0,0,.675-.209l2.318-1.581V31.159a2.131,2.131,0,0,0,2.046,2.2h5.829c.032,0,.064,0,.1,0s.064,0,.1,0h6.438c.032,0,.064,0,.1,0s.064,0,.1,0h5.824a2.133,2.133,0,0,0,2.051-2.2V19.331L57.5,20.912a1.2,1.2,0,0,0,1.354-1.983l-9.1-6.212-.018-.011L45,9.474l-.007,0a1.928,1.928,0,0,0-2.193,0l-9.238,6.3-4.62,3.151a1.2,1.2,0,0,0,.678,2.193Zm16.395,9.839H41.784V25.85a2.114,2.114,0,1,1,4.229,0ZM43.9,11.63l8.886,6.063V30.959h-4.37V25.85a4.516,4.516,0,1,0-9.032,0v5.109h-4.37V17.693l4.516-3.081.011-.009ZM75.252,50.1A12.549,12.549,0,1,0,87.8,62.644,12.549,12.549,0,0,0,75.252,50.1Zm0,22.7A10.147,10.147,0,1,1,85.4,62.646,10.148,10.148,0,0,1,75.252,72.793Zm6.386-15.456a4.419,4.419,0,0,0-6.238,0l-.149.149-.151-.149a4.411,4.411,0,1,0-6.238,6.238l5.157,5.157a1.729,1.729,0,0,0,1.228.506,1.768,1.768,0,0,0,1.239-.506l5.15-5.155a4.411,4.411,0,0,0,0-6.24Zm-1.7,4.54-4.687,4.692L70.56,61.877a2.01,2.01,0,1,1,2.846-2.839l.613.608a1.723,1.723,0,0,0,1.222.513h.01a1.734,1.734,0,0,0,1.235-.512l.612-.613a2.01,2.01,0,1,1,2.842,2.843ZM12.546,50.1A12.549,12.549,0,1,0,25.1,62.645,12.548,12.548,0,0,0,12.546,50.1Zm0,22.7A10.147,10.147,0,1,1,22.695,62.644,10.147,10.147,0,0,1,12.546,72.792Zm4.827-12.959H15.355V57.816a2.81,2.81,0,1,0-5.619,0v2.017H7.718a2.81,2.81,0,1,0,0,5.619H9.736V67.47a2.81,2.81,0,1,0,5.619,0V65.453h2.017a2.81,2.81,0,0,0,0-5.619Zm0,3.218H14.154a1.2,1.2,0,0,0-1.2,1.2v3.218a.408.408,0,1,1-.817,0V64.252a1.2,1.2,0,0,0-1.2-1.2H7.718a.408.408,0,0,1,0-.816h3.218a1.2,1.2,0,0,0,1.2-1.2V57.816a.408.408,0,1,1,.817,0v3.218a1.2,1.2,0,0,0,1.2,1.2h3.218a.408.408,0,1,1,0,.816Zm-2.825-16.5A12.549,12.549,0,1,0,2,34a12.548,12.548,0,0,0,12.551,12.55Zm0-22.7A10.147,10.147,0,1,1,4.4,34a10.147,10.147,0,0,1,10.15-10.147ZM10.625,31.28a3.925,3.925,0,0,1,2.722-3.73V26.511a1.2,1.2,0,1,1,2.4,0v1.041a3.943,3.943,0,0,1,2.491,2.407,1.2,1.2,0,1,1-2.258.816A1.52,1.52,0,1,0,14.548,32.8a3.921,3.921,0,0,1,1.2,7.652v1.04a1.2,1.2,0,0,1-2.4,0v-1.04a3.927,3.927,0,0,1-2.492-2.413,1.2,1.2,0,1,1,2.262-.806A1.518,1.518,0,1,0,14.549,35.2a3.925,3.925,0,0,1-3.923-3.919ZM73.249,46.548A12.549,12.549,0,1,0,60.7,34,12.549,12.549,0,0,0,73.249,46.548Zm0-22.7A10.147,10.147,0,1,1,63.1,34,10.147,10.147,0,0,1,73.249,23.852ZM67.114,34.386v4.093a2.039,2.039,0,0,0,2.037,2.037h8.2a2.039,2.039,0,0,0,2.037-2.037V34.386a2.337,2.337,0,0,0,1.483-2.173V30.478a3,3,0,0,0-2.994-2.994H68.626a3,3,0,0,0-2.994,2.994v1.735a2.337,2.337,0,0,0,1.482,2.173Zm.919-3.908a.6.6,0,0,1,.593-.593h9.246a.6.6,0,0,1,.593.593v1.667h-.282a1.2,1.2,0,0,0-1.2,1.2v4.769H69.516V33.346a1.2,1.2,0,0,0-1.2-1.2h-.282ZM43.9,41.488a1.2,1.2,0,0,1-1.2-1.2v-4.1a1.2,1.2,0,0,1,2.4,0v4.1a1.2,1.2,0,0,1-1.2,1.2ZM28.351,40.7l5.094,2.941a1.2,1.2,0,1,1-1.2,2.08L27.15,42.781a1.2,1.2,0,0,1,1.2-2.08Zm26,2.941,5.1-2.941a1.2,1.2,0,0,1,1.2,2.08l-5.1,2.941a1.2,1.2,0,0,1-1.2-2.08Zm-22,14.758A1.2,1.2,0,0,1,31.5,59.87l-3.967,1.065a1.2,1.2,0,0,1-.622-2.319l3.967-1.065a1.2,1.2,0,0,1,1.471.848Zm28.54.216a1.2,1.2,0,1,1-.622,2.319L56.294,59.87a1.2,1.2,0,0,1,.622-2.319Z" transform="translate(403.747 8412.622)" fill="#4a4e3c"/>
  </g>
</svg>
