<svg xmlns="http://www.w3.org/2000/svg" width="160" height="160" viewBox="0 0 160 160">
  <g id="img15" transform="translate(-383.746 -8400)">
    <circle id="Ellipse_13609" data-name="Ellipse 13609" cx="80" cy="80" r="80" transform="translate(383.746 8400)" fill="#fff"/>
    <g id="Group_1197591" data-name="Group 1197591" transform="translate(424.705 8439.548)">
      <path id="Path_1020023" data-name="Path 1020023" d="M59.19,38.418a6.824,6.824,0,0,0-4.539-3.145V13.014a6.514,6.514,0,0,0-6.506-6.506H37.373a2.593,2.593,0,0,0-2.241-1.3H33.388a7.807,7.807,0,0,0-14.727,0H16.916a2.593,2.593,0,0,0-2.241,1.3H6.506A6.514,6.514,0,0,0,0,13.014V67.665a6.514,6.514,0,0,0,6.506,6.506H29.354c.06.122.108.249.176.368a6.788,6.788,0,0,0,5.993,3.535H71.189a6.79,6.79,0,0,0,5.986-3.537,6.955,6.955,0,0,0-.15-7.122Zm-7.141-25.4V35.273a6.743,6.743,0,0,0-2.6,1.1V14.315a2.6,2.6,0,0,0-2.6-2.6H37.735V9.11h10.41A3.9,3.9,0,0,1,52.049,13.014Zm-35.133-5.2h2.733a1.3,1.3,0,0,0,1.276-1.041,5.2,5.2,0,0,1,10.2,0A1.3,1.3,0,0,0,32.4,7.809h2.733v5.2H16.916Zm18.217,7.807a2.593,2.593,0,0,0,2.241-1.3h9.47V39.5L30.318,66.364H7.807V14.315h6.868a2.593,2.593,0,0,0,2.241,1.3ZM6.506,71.569a3.9,3.9,0,0,1-3.9-3.9V13.014a3.9,3.9,0,0,1,3.9-3.9h7.807v2.6H7.807a2.6,2.6,0,0,0-2.6,2.6V66.364a2.6,2.6,0,0,0,2.6,2.6H28.969a6.9,6.9,0,0,0-.319,2.6Zm68.393,1.7a4.22,4.22,0,0,1-3.716,2.2H35.523a4.217,4.217,0,0,1-3.715-2.2,4.386,4.386,0,0,1,.092-4.493L49.727,39.783a4.234,4.234,0,0,1,7.248,0l17.827,29a4.384,4.384,0,0,1,.1,4.489Z" transform="translate(0 0)" fill="#4a4e3c"/>
      <path id="Path_1020024" data-name="Path 1020024" d="M41.9,33A3.9,3.9,0,0,0,38,36.9V48.615a3.9,3.9,0,1,0,7.807,0V36.9A3.9,3.9,0,0,0,41.9,33Zm1.3,15.615a1.3,1.3,0,1,1-2.6,0V36.9a1.3,1.3,0,0,1,2.6,0Z" transform="translate(11.446 9.942)" fill="#4a4e3c"/>
      <path id="Path_1020025" data-name="Path 1020025" d="M41.9,50a3.9,3.9,0,1,0,3.9,3.9A3.9,3.9,0,0,0,41.9,50Zm0,5.2a1.3,1.3,0,1,1,1.3-1.3A1.3,1.3,0,0,1,41.9,55.2Z" transform="translate(11.446 15.062)" fill="#4a4e3c"/>
      <path id="Path_1020026" data-name="Path 1020026" d="M20.3,19.6H37.217a1.3,1.3,0,0,0,0-2.6H20.3a1.3,1.3,0,0,0,0,2.6Z" transform="translate(5.723 5.122)" fill="#4a4e3c"/>
      <path id="Path_1020027" data-name="Path 1020027" d="M20.3,23.6h7.807a1.3,1.3,0,1,0,0-2.6H20.3a1.3,1.3,0,0,0,0,2.6Z" transform="translate(5.723 6.327)" fill="#4a4e3c"/>
      <path id="Path_1020028" data-name="Path 1020028" d="M20.3,30.6H37.217a1.3,1.3,0,0,0,0-2.6H20.3a1.3,1.3,0,0,0,0,2.6Z" transform="translate(5.723 8.436)" fill="#4a4e3c"/>
      <path id="Path_1020029" data-name="Path 1020029" d="M20.3,34.6h7.807a1.3,1.3,0,1,0,0-2.6H20.3a1.3,1.3,0,0,0,0,2.6Z" transform="translate(5.723 9.641)" fill="#4a4e3c"/>
      <path id="Path_1020030" data-name="Path 1020030" d="M20.3,41.6H29.41a1.3,1.3,0,1,0,0-2.6H20.3a1.3,1.3,0,1,0,0,2.6Z" transform="translate(5.723 11.749)" fill="#4a4e3c"/>
      <path id="Path_1020031" data-name="Path 1020031" d="M20.3,45.6h5.2a1.3,1.3,0,1,0,0-2.6H20.3a1.3,1.3,0,1,0,0,2.6Z" transform="translate(5.723 12.954)" fill="#4a4e3c"/>
      <path id="Path_1020032" data-name="Path 1020032" d="M9.381,23.189a1.3,1.3,0,0,0,0,1.84l2.6,2.6a1.3,1.3,0,0,0,.92.381A1.248,1.248,0,0,0,13.112,28a1.3,1.3,0,0,0,.956-.7l5.2-10.41a1.3,1.3,0,1,0-2.329-1.163l-4.4,8.795-1.326-1.326a1.3,1.3,0,0,0-1.84,0Z" transform="translate(2.711 4.52)" fill="#4a4e3c"/>
      <path id="Path_1020033" data-name="Path 1020033" d="M18.69,26.137a1.3,1.3,0,0,0-1.746.583l-4.4,8.795-1.326-1.326a1.3,1.3,0,1,0-1.84,1.84l2.6,2.6a1.3,1.3,0,0,0,.92.381A1.248,1.248,0,0,0,13.112,39a1.3,1.3,0,0,0,.956-.7l5.2-10.41A1.3,1.3,0,0,0,18.69,26.137Z" transform="translate(2.711 7.833)" fill="#4a4e3c"/>
      <path id="Path_1020034" data-name="Path 1020034" d="M18.69,37.132a1.3,1.3,0,0,0-1.746.583l-4.4,8.795-1.326-1.326a1.3,1.3,0,1,0-1.84,1.84l2.6,2.6a1.3,1.3,0,0,0,.92.388A1.247,1.247,0,0,0,13.112,50a1.3,1.3,0,0,0,.956-.7l5.2-10.41a1.3,1.3,0,0,0-.583-1.753Z" transform="translate(2.711 11.145)" fill="#4a4e3c"/>
    </g>
  </g>
</svg>
