<svg xmlns="http://www.w3.org/2000/svg" width="84" height="84" viewBox="0 0 84 84">
  <g id="img15" transform="translate(-185 -5850)">
    <rect id="Rectangle_461377" data-name="Rectangle 461377" width="84" height="84" rx="9" transform="translate(185 5850)" fill="#9c3413"/>
    <g id="Group_1196530" data-name="Group 1196530" transform="translate(135.583 5857.726)">
      <g id="Group_1196529" data-name="Group 1196529" transform="translate(67.318 1.332)">
        <path id="Path_1018603" data-name="Path 1018603" d="M111.991,42.88h39.851a1.958,1.958,0,0,1,.255-1.538c2.651-3.953.8-5.78-1.849-6.056-2.1-.22-4.5-.078-5-.851-1.768-2.757-3.248-3.3-4.914-3.474-11.2-1.16-5.166-5.347-8.615-7.124-4.194-2.16,2.13-9.567,6.688-9.76,2.987-.126-.577-8.2-7.935-1.436-1.246,1.146-5.23,2.252-7.408,2.892-2.511.737-1.2,1.709-3.279,4.83-2.008,3.009-1.744.31-2.687,2.171-1.185,2.338-2.278,2.618-3.154,2.686-2.458.19-4.731,4.524-3.053,6.908,1.841,2.615.594,9.254.845,9.866a4.414,4.414,0,0,1,.253.886Z" transform="translate(-105.717 -9.943)" fill="#ffc144" fill-rule="evenodd"/>
        <path id="Path_1018604" data-name="Path 1018604" d="M122.1,255.943H82.247c.485,2.67-1.017,6.406-3.247,6.538-4.248.252-1.278,2.123-2.678,2.972-1.319.8,1.478,3.292,1.957,3.273,3-.119,5.932,5.817,7.638,2.886.213-.366,1.9.081,3.718.8h23.511c.663-1.524,2.248-.854,2.841-2,1.031-1.988-1.288-3.7.169-4.573,2.888-1.73,4.574,2.97,7.291,1.359,2.337-1.386-1.843-5.619-.538-7.075C123.848,259.077,122.4,257.469,122.1,255.943Z" transform="translate(-75.972 -223.006)" fill="#60a4ff" fill-rule="evenodd"/>
        <path id="Path_1018605" data-name="Path 1018605" d="M201.535,378.943h-23.51c2.292.9,4.8,2.235,4.886,2.918.32,2.616,1.982,1.073,1.947,2.231-.082,2.749,1.973,1.75,2.082,2.539.514,3.724,5.271,1.854,6.437,1.718,5.5-.643,2.955,7.6,6.256,7.036s1.537-4.566,2.031-7.912c.342-2.315,1.382-2.535.67-5.134-.455-1.663-1.321-2.128-.82-3.348Z" transform="translate(-164.361 -329.538)" fill="#ff5a58" fill-rule="evenodd"/>
      </g>
      <path id="Path_1018606" data-name="Path 1018606" d="M113.639,203.622a1.339,1.339,0,0,0,1.339-1.339h0a1.339,1.339,0,1,0-1.339,1.34Z" transform="translate(-40.119 -174.039)"/>
      <path id="Path_1018607" data-name="Path 1018607" d="M116.817,43.663a10.624,10.624,0,0,0-.862-2.616,7.946,7.946,0,0,1-.622-1.8c1.081-1.317.374-2.9-.1-3.956-.385-.862-.641-1.5-.426-1.816,1.5-2.238,1.892-4.162,1.163-5.718a4.646,4.646,0,0,0-3.985-2.416c-.6-.063-1.206-.1-1.792-.129a12.3,12.3,0,0,1-2.312-.255c-1.944-2.967-3.732-3.725-5.81-3.94-3.606-.373-5.037-1.05-5.6-1.552-.471-.418-.5-.852-.53-1.716a3.734,3.734,0,0,0-2.009-3.715c-.492-.254-.781-.6-.592-1.46.5-2.288,4.066-5.66,6.724-5.772a2.336,2.336,0,0,0,2.255-1.791A4.2,4.2,0,0,0,100.164.7c-1.176-.7-4.408-1.876-9,2.343C90.235,3.9,86.53,4.984,84.749,5.5l-.46.135A3.526,3.526,0,0,0,81.457,8.46a8.562,8.562,0,0,1-1.183,2.549,6.664,6.664,0,0,1-.668.877c-1.278-.191-1.868.974-2.1,1.432-.948,1.871-1.619,1.922-2.064,1.957a4.829,4.829,0,0,0-3.34,2.018,6.85,6.85,0,0,0-1.451,5.152,1.339,1.339,0,0,0,2.64-.451,4.229,4.229,0,0,1,.924-3.055,2.326,2.326,0,0,1,1.434-1c1.205-.093,2.768-.557,4.2-3.326,1.027-.031,1.822-.878,2.653-2.123a11.2,11.2,0,0,0,1.518-3.256c.244-.8.244-.8,1.024-1.032l.456-.133c3.208-.936,6.194-1.874,7.482-3.058,2.276-2.093,4.383-2.833,5.78-2.032A1.977,1.977,0,0,1,99.7,4.145a10.214,10.214,0,0,0-5.528,2.672A10.383,10.383,0,0,0,90.727,12a3.744,3.744,0,0,0,1.981,4.416c.47.242.528.388.558,1.414a4.572,4.572,0,0,0,1.428,3.638c1.285,1.141,3.542,1.844,7.1,2.213,1.223.127,2.362.429,3.925,2.865.731,1.139,2.316,1.228,4.324,1.34.554.031,1.126.063,1.663.119a2.232,2.232,0,0,1,1.838.888c.29.62-.061,1.746-.962,3.091a3.1,3.1,0,0,0-.43.945H73.592a1.339,1.339,0,0,0-1.317,1.578A5.942,5.942,0,0,1,71.252,38.8a1.605,1.605,0,0,1-.986.674c-1.7.1-2.668.455-3.23,1.183a2.493,2.493,0,0,0-.34,2.135l.008.038a2.066,2.066,0,0,0-.615,2.264c.376,1.249,2.29,3.356,3.59,3.3h.037c.789,0,1.93.974,2.85,1.76,1.246,1.064,2.426,2.069,3.791,1.927H76.4a1.33,1.33,0,0,0,.7-.2,2.677,2.677,0,0,0,.913-.691,18.527,18.527,0,0,1,3.313,1.137A14.434,14.434,0,0,1,84.58,54.1a2.684,2.684,0,0,0,1.92,2.472,2.818,2.818,0,0,0,2.205,2.688,3.641,3.641,0,0,0,1.445,2.092c1.749,1.2,4.213.61,5.685.259.255-.061.545-.13.655-.142,1.645-.193,2.066.54,2.655,3.158a9.021,9.021,0,0,0,.812,2.5,2.6,2.6,0,0,0,2.321,1.411,3.211,3.211,0,0,0,.537-.047,3.478,3.478,0,0,0,2.97-2.586,10.845,10.845,0,0,0,.149-3.511,14.784,14.784,0,0,1,.012-2.939,6.981,6.981,0,0,1,.453-1.614,5.568,5.568,0,0,0,.184-4.069,8.933,8.933,0,0,0-.668-1.678c-.293-.593-.288-.605-.2-.808.1-.233.148-.278.735-.451a3.034,3.034,0,0,0,2.076-1.486,4.46,4.46,0,0,0,.008-3.739c-.043-.127-.1-.28-.134-.408.544-.233,1.007-.013,2.122.74,1.152.778,2.893,1.954,4.958.729A2.825,2.825,0,0,0,116.817,43.663ZM103.9,56.9a9.584,9.584,0,0,0-.6,2.175,17.006,17.006,0,0,0-.036,3.491c.169,2.807-.031,3.15-.894,3.3l-.05.007a7.157,7.157,0,0,1-.559-1.822,9.679,9.679,0,0,0-1.287-3.5,4.136,4.136,0,0,0-3.56-1.774,6.28,6.28,0,0,0-.731.044,8.955,8.955,0,0,0-.964.2c-.9.215-2.782.663-3.553.136a1.163,1.163,0,0,1-.439-.9,1.907,1.907,0,0,0-1.675-1.529,2.33,2.33,0,0,1-.317-.084,1.7,1.7,0,0,1-.078-.7,1.766,1.766,0,0,0-1.77-1.9l-.074-.009a2.3,2.3,0,0,1-.113-.522,2.163,2.163,0,0,0-.875-1.416h16.725a5.144,5.144,0,0,0,.468,1.21,6.335,6.335,0,0,1,.486,1.2A3,3,0,0,1,103.9,56.9ZM114.169,44.33a.246.246,0,0,1-.059.043c-.51.3-.843.2-2.094-.645-1.2-.808-3-2.029-5.2-.711-1.663,1-1.092,2.664-.818,3.466.244.713.383,1.175.153,1.631a2.92,2.92,0,0,1-.457.158,3.678,3.678,0,0,0-1.937,1.126H81.233a17.92,17.92,0,0,0-2.619-.817c-.516-.106-1.885-.387-2.508.683a1.307,1.307,0,0,1-.081.124A9.165,9.165,0,0,1,74.3,48.114c-1.276-1.09-2.711-2.316-4.407-2.4a5.312,5.312,0,0,1-1.1-1.123,2.4,2.4,0,0,0,.531-2.306,6.089,6.089,0,0,1,1.1-.144,4.048,4.048,0,0,0,2.933-1.693,8.612,8.612,0,0,0,1.659-4.843H112.46c.109.28.226.542.331.778a5.223,5.223,0,0,1,.438,1.2c-1.112,1.283-.382,3,.264,4.507a6.173,6.173,0,0,1,.677,2.233Z" transform="translate(0 0)"/>
    </g>
  </g>
</svg>
