<svg xmlns="http://www.w3.org/2000/svg" width="188" height="139" viewBox="0 0 188 139">
  <g id="img10" transform="translate(-185 -3556)">
    <rect id="Rectangle_461511" data-name="Rectangle 461511" width="188" height="139" rx="10" transform="translate(185 3556)" fill="#eaeddf"/>
    <g id="Group_1196267" data-name="Group 1196267" transform="translate(219.218 3571)">
      <g id="Group_1196266" data-name="Group 1196266" transform="translate(16.272 9.491)">
        <g id="Group_1196260" data-name="Group 1196260" transform="translate(4.113 0)">
          <path id="Path_1018211" data-name="Path 1018211" d="M83.418,81.309C69.952,73.4,45.178,55.244,44.848,37.129,44.48,16.962,67.148,7.816,84.2,25.156c17.05-17.337,39.717-8.2,39.353,11.97-.327,18.116-25.1,36.273-38.57,44.184A1.511,1.511,0,0,1,83.418,81.309Z" transform="translate(-44.843 -16.002)" fill="#fe646f" fill-rule="evenodd"/>
          <path id="Path_1018212" data-name="Path 1018212" d="M161.563,81.32c-.352-.207-.714-.423-1.082-.644,13.667-8.219,37.17-25.9,37.489-43.54.218-12.047-7.784-20.158-17.9-21.041,11.8-1.01,21.869,7.545,21.625,21.041-.327,18.116-25.1,36.273-38.57,44.184a1.511,1.511,0,0,1-1.564,0ZM140.89,16.1c5.832.5,13.951,5.1,19.591,10.838.614-.625,1.237-1.211,1.864-1.767C155.48,18.185,147.706,15.5,140.89,16.1Z" transform="translate(-122.988 -16.012)" fill="#fd4755" fill-rule="evenodd"/>
        </g>
        <g id="Group_1196261" data-name="Group 1196261" transform="translate(14.929 17.333)">
          <path id="Path_1018213" data-name="Path 1018213" d="M104.486,187.307h18.777a1.608,1.608,0,0,0,1.539-2.072,11.416,11.416,0,0,0-21.856,0,1.608,1.608,0,0,0,1.539,2.072Z" transform="translate(-102.874 -164.424)" fill="#6cf5c2" fill-rule="evenodd"/>
          <path id="Path_1018214" data-name="Path 1018214" d="M164.264,187.307a1.608,1.608,0,0,0,1.539-2.072,11.425,11.425,0,0,0-12.536-8,11.425,11.425,0,0,1,9.32,8,1.608,1.608,0,0,1-1.539,2.072Z" transform="translate(-143.875 -164.424)" fill="#00e499" fill-rule="evenodd"/>
          <circle id="Ellipse_15145" data-name="Ellipse 15145" cx="5.77" cy="5.77" r="5.77" transform="translate(4.059 11.229) rotate(-76.7)" fill="#f6dccd"/>
          <path id="Path_1018215" data-name="Path 1018215" d="M158.385,115.2a5.77,5.77,0,1,1,0,11.541,5.833,5.833,0,0,1-.8-.056,5.771,5.771,0,0,0,0-11.429,5.775,5.775,0,0,1,.8-.056Z" transform="translate(-147.384 -114.047)" fill="#f1cbbc" fill-rule="evenodd"/>
        </g>
        <g id="Group_1196262" data-name="Group 1196262" transform="translate(50.413 17.428)">
          <path id="Path_1018216" data-name="Path 1018216" d="M294.861,187.232h18.777a1.608,1.608,0,0,0,1.539-2.072,11.416,11.416,0,0,0-21.856,0,1.608,1.608,0,0,0,1.539,2.072Z" transform="translate(-293.249 -164.458)" fill="#ffe177" fill-rule="evenodd"/>
          <path id="Path_1018217" data-name="Path 1018217" d="M354.64,187.232a1.608,1.608,0,0,0,1.539-2.072,11.425,11.425,0,0,0-12.536-8,11.425,11.425,0,0,1,9.32,8,1.608,1.608,0,0,1-1.539,2.072Z" transform="translate(-334.251 -164.458)" fill="#ffd064" fill-rule="evenodd"/>
          <circle id="Ellipse_15146" data-name="Ellipse 15146" cx="5.77" cy="5.77" r="5.77" transform="translate(4.178 11.287) rotate(-77.993)" fill="#f6dccd"/>
          <path id="Path_1018218" data-name="Path 1018218" d="M348.76,115.129a5.77,5.77,0,1,1-.8,11.485,5.771,5.771,0,0,0,0-11.429A5.8,5.8,0,0,1,348.76,115.129Z" transform="translate(-337.759 -114.081)" fill="#f1cbbc" fill-rule="evenodd"/>
        </g>
        <g id="Group_1196263" data-name="Group 1196263" transform="translate(32.469 18.993)">
          <path id="Path_1018219" data-name="Path 1018219" d="M198.592,196.188h18.777a1.608,1.608,0,0,0,1.539-2.072,11.416,11.416,0,0,0-21.856,0,1.608,1.608,0,0,0,1.539,2.072Z" transform="translate(-196.98 -173.31)" fill="#8ac9fe" fill-rule="evenodd"/>
          <path id="Path_1018220" data-name="Path 1018220" d="M258.37,196.188a1.608,1.608,0,0,0,1.539-2.072,11.425,11.425,0,0,0-12.536-8,11.425,11.425,0,0,1,9.32,8,1.608,1.608,0,0,1-1.539,2.072Z" transform="translate(-237.981 -173.31)" fill="#60b7ff" fill-rule="evenodd"/>
          <circle id="Ellipse_15147" data-name="Ellipse 15147" cx="5.77" cy="5.77" r="5.77" transform="translate(4.063 11.229) rotate(-76.7)" fill="#f6dccd"/>
          <path id="Path_1018221" data-name="Path 1018221" d="M252.492,124.085a5.77,5.77,0,1,1,0,11.541,5.833,5.833,0,0,1-.8-.056,5.771,5.771,0,0,0,0-11.429,5.772,5.772,0,0,1,.8-.056Z" transform="translate(-241.491 -122.933)" fill="#f1cbbc" fill-rule="evenodd"/>
        </g>
        <g id="Group_1196264" data-name="Group 1196264" transform="translate(46.854 18.793)">
          <path id="Path_1018222" data-name="Path 1018222" d="M304.232,181.966l-.027-17.634c-.005-3.31.432-6.419,2.89-8.635,2.74-2.47,7.721-6.211,11.556-10.745a4.238,4.238,0,0,1,5.863,0c1.612,1.612,1.665,3.792,0,5.863l1.3-1.606a9.51,9.51,0,0,0,2.283-6.233L328.039,126c-.05-13.2,9.636-9.538,9.762-5.087l.886,31.252a9.763,9.763,0,0,1-2.987,7.4L321.563,173.7v8.258a2.888,2.888,0,0,1-2.883,2.883H307.115a2.888,2.888,0,0,1-2.882-2.879Z" transform="translate(-298.605 -116.828)" fill="#f6dccd" fill-rule="evenodd"/>
          <path id="Path_1018223" data-name="Path 1018223" d="M371.662,271.788c.972,1.5.8,3.343-.617,5.105-2.306,2.321-4.628,4.628-6.942,6.942a1.587,1.587,0,1,1-2.244-2.244Z" transform="translate(-345.134 -242.905)" fill="#f1cbbc" fill-rule="evenodd"/>
          <path id="Path_1018224" data-name="Path 1018224" d="M304.233,329.884l-.026-17.634c-.005-3.31.432-6.419,2.89-8.635,1.466-1.321,3.573-3.007,5.8-4.983v34.13h-5.785A2.888,2.888,0,0,1,304.233,329.884Z" transform="translate(-298.605 -264.747)" fill="#f1cbbc" fill-rule="evenodd"/>
          <path id="Path_1018225" data-name="Path 1018225" d="M276.374,446.317l24.567.211a2.166,2.166,0,0,1,2.141,2.178l-.041,4.729a2.166,2.166,0,0,1-2.178,2.141l-24.567-.211a2.166,2.166,0,0,1-2.141-2.178l.041-4.729A2.166,2.166,0,0,1,276.374,446.317Z" transform="translate(-274.155 -384.904)" fill="#d1d1d6" fill-rule="evenodd"/>
          <path id="Path_1018226" data-name="Path 1018226" d="M292.693,448.149l4.348.037,4.3.037a2.166,2.166,0,0,1,2.141,2.171l.015-1.689a2.166,2.166,0,0,0-2.141-2.178l-4.315-.037-8.663-.074-8.673-.074-2.917-.025a2.168,2.168,0,0,0-2.124,1.679l5.05.043,8.663.074,4.315.037Z" transform="translate(-274.57 -384.903)" fill="#b1b1b5" fill-rule="evenodd"/>
        </g>
        <g id="Group_1196265" data-name="Group 1196265" transform="translate(0 18.793)">
          <path id="Path_1018227" data-name="Path 1018227" d="M57.236,181.966l.027-17.634c.005-3.31-.432-6.419-2.89-8.635-2.74-2.47-7.722-6.211-11.556-10.745a4.239,4.239,0,0,0-5.863,0c-1.612,1.612-1.665,3.792,0,5.863l-1.3-1.606a9.51,9.51,0,0,1-2.283-6.233L33.43,126c.05-13.2-9.636-9.538-9.762-5.087l-.886,31.252a9.763,9.763,0,0,0,2.987,7.4L39.906,173.7v8.258a2.888,2.888,0,0,0,2.882,2.883H54.354a2.888,2.888,0,0,0,2.882-2.879Z" transform="translate(-22.778 -116.828)" fill="#f6dccd" fill-rule="evenodd"/>
          <path id="Path_1018228" data-name="Path 1018228" d="M92.848,271.788c-.972,1.5-.8,3.343.617,5.105,2.306,2.321,4.628,4.628,6.942,6.942a1.587,1.587,0,1,0,2.244-2.244Z" transform="translate(-79.29 -242.905)" fill="#f1cbbc" fill-rule="evenodd"/>
          <path id="Path_1018229" data-name="Path 1018229" d="M169.816,329.884l.026-17.634c.005-3.31-.432-6.419-2.89-8.635-1.466-1.321-3.573-3.007-5.8-4.983v34.13h5.785A2.888,2.888,0,0,0,169.816,329.884Z" transform="translate(-135.358 -264.747)" fill="#f1cbbc" fill-rule="evenodd"/>
          <path id="Path_1018230" data-name="Path 1018230" d="M109.353,446.317l-24.567.211a2.166,2.166,0,0,0-2.141,2.178l.041,4.729a2.166,2.166,0,0,0,2.178,2.141l24.567-.211a2.166,2.166,0,0,0,2.141-2.178l-.041-4.729a2.166,2.166,0,0,0-2.178-2.141Z" transform="translate(-71.486 -384.904)" fill="#d1d1d6" fill-rule="evenodd"/>
          <path id="Path_1018231" data-name="Path 1018231" d="M93.449,448.149l-4.348.037-4.3.037a2.166,2.166,0,0,0-2.141,2.171l-.015-1.689a2.166,2.166,0,0,1,2.141-2.178l4.315-.037,8.663-.074,8.673-.074,2.917-.025a2.168,2.168,0,0,1,2.124,1.679l-5.05.043-8.663.074-4.315.037Z" transform="translate(-71.486 -384.903)" fill="#b1b1b5" fill-rule="evenodd"/>
        </g>
      </g>
      <path id="Path_1018232" data-name="Path 1018232" d="M67.546,95.612a1.47,1.47,0,1,0-.823-1.91A1.469,1.469,0,0,0,67.546,95.612Zm17.045-7.241v-3.2a1.485,1.485,0,0,1,.436-1.053l14.139-14.14a8.276,8.276,0,0,0,2.546-6.307l-.878-31.259a3.231,3.231,0,0,0-3.161-2.636H97.63c-2.256.035-3.6,2.906-3.58,7.678l.063,16.979a10.952,10.952,0,0,1-2.616,7.18l-1.169,1.432c-.007.009-3.17,3.325-4.847,4.946-.761.738-1.55,1.5-2.335,2.285a1.491,1.491,0,0,1-2.11-2.108c.8-.8,1.6-1.575,2.371-2.32,1.62-1.568,3.15-3.05,4.609-4.69.716-.969,1.271-2.382-.038-3.688a2.725,2.725,0,0,0-3.742-.008,76.587,76.587,0,0,1-9.132,8.664c-.967.815-1.8,1.517-2.5,2.144-2.114,1.9-2.4,4.741-2.4,7.526l.015,12.453Zm5.3,3.027a.672.672,0,0,1,.47.2.662.662,0,0,1,.191.472l-.039,4.73a.678.678,0,0,1-.669.663h-.008l-24.571-.211a.673.673,0,0,1-.662-.674l.039-4.73a.679.679,0,0,1,.669-.664h.006ZM69.582,67.145c-3.209,2.28-6.6,4.479-9.813,6.368-.017.01-.028.012-.026.015s-.013,0-.028-.013c-3.217-1.89-6.606-4.09-9.814-6.369a9.418,9.418,0,0,0-1.03-1.092c-.731-.658-1.626-1.411-2.571-2.209a73.22,73.22,0,0,1-8.848-8.392,1.6,1.6,0,0,0-.142-.144,5.992,5.992,0,0,0-3.147-1.491Q32.9,52.505,31.757,51.2H46.914s0,0,0,.005A1.5,1.5,0,0,0,48.4,52.854l22.693,0a1.49,1.49,0,0,0,1.482-1.65V51.2H87.728c-.76.87-1.565,1.744-2.406,2.619a6.009,6.009,0,0,0-3.15,1.491,1.454,1.454,0,0,0-.14.144,73.249,73.249,0,0,1-8.848,8.392c-.946.8-1.84,1.551-2.571,2.209a9.413,9.413,0,0,0-1.031,1.092Zm-20.325,21.1.015-12.453c0-2.785-.285-5.623-2.4-7.526-.7-.627-1.53-1.329-2.5-2.144a76.278,76.278,0,0,1-9.132-8.664,2.728,2.728,0,0,0-3.745.008c-1.306,1.306-.751,2.719-.035,3.688,1.459,1.64,2.989,3.122,4.608,4.69.772.745,1.567,1.517,2.37,2.32a1.49,1.49,0,0,1-2.108,2.108c-.787-.787-1.575-1.549-2.337-2.287-1.676-1.622-4.837-4.936-4.844-4.945-.292-.357-1.167-1.428-1.167-1.428a10.963,10.963,0,0,1-2.621-7.183l.066-16.979c.018-4.772-1.321-7.642-3.583-7.678h-.043c-1.534,0-3.12,1.318-3.157,2.636l-.885,31.259a8.3,8.3,0,0,0,2.551,6.307l14.139,14.14a1.485,1.485,0,0,1,.436,1.053v3.2ZM29.591,91.4a.663.663,0,0,0-.47.2.67.67,0,0,0-.194.472l.041,4.73a.677.677,0,0,0,.669.663h.005l24.572-.211a.659.659,0,0,0,.47-.2.673.673,0,0,0,.194-.473l-.041-4.73a.661.661,0,0,0-.2-.47.67.67,0,0,0-.468-.194h-.006Zm1.053-36.97a5.441,5.441,0,0,0-1.249.932,6.322,6.322,0,0,0-.825,1.017,8.083,8.083,0,0,1-.219-1.932l.011-2.637Q29.446,53.113,30.645,54.428Zm46.636-16.4a4.28,4.28,0,1,1,4.282-4.279,4.284,4.284,0,0,1-4.282,4.279h0ZM59.742,39.686a4.278,4.278,0,1,0-4.278-4.277A4.282,4.282,0,0,0,59.742,39.686ZM50.2,49.872H69.288a9.927,9.927,0,0,0-19.092,0Zm-8-11.841a4.28,4.28,0,1,1,4.28-4.279,4.284,4.284,0,0,1-4.28,4.279h0Zm7.514,6.426A12.829,12.829,0,0,0,47.6,48.215H32.655a9.9,9.9,0,0,1,9.545-7.2h0a9.916,9.916,0,0,1,7.512,3.444Zm22.174,3.758a12.831,12.831,0,0,0-2.118-3.758,9.913,9.913,0,0,1,7.511-3.444h0a9.894,9.894,0,0,1,9.542,7.2H71.888Zm19.234,3.592.009,2.637a7.954,7.954,0,0,1-.218,1.932,6.2,6.2,0,0,0-.823-1.017,5.419,5.419,0,0,0-1.251-.932c.8-.876,1.56-1.75,2.283-2.621Zm-69-25c1.006-6.923,5.177-12.328,11.418-14.652,8.124-3.027,17.525-.209,25.144,7.54a1.492,1.492,0,0,0,2.126,0c7.62-7.749,17.019-10.567,25.143-7.54C92.188,14.473,96.357,19.88,97.367,26.8c-1.747.106-6.334,1.283-6.3,10.662l.036,9.514q-.552.761-1.148,1.529a12.867,12.867,0,0,0-7.691-9.482,7.261,7.261,0,1,0-9.96,0,12.9,12.9,0,0,0-4.673,3.34,12.892,12.892,0,0,0-2.907-1.686,7.26,7.26,0,1,0-9.965,0,12.92,12.92,0,0,0-2.908,1.686,12.907,12.907,0,0,0-4.671-3.34,7.261,7.261,0,1,0-9.963,0,12.863,12.863,0,0,0-7.688,9.482c-.4-.513-.781-1.021-1.15-1.529l.037-9.514c.036-9.379-4.555-10.556-6.3-10.662ZM87.573,85.789V88.4l2.344.02a3.655,3.655,0,0,1,3.62,3.683L93.5,96.83a3.658,3.658,0,0,1-3.651,3.619h-.032l-24.571-.211a3.659,3.659,0,0,1-3.62-3.683l.04-4.73a3.658,3.658,0,0,1,3.65-3.62h.032l1.9.017L67.23,75.8a22.456,22.456,0,0,1,.241-3.59c-2.075,1.373-4.166,2.686-6.192,3.874a2.99,2.99,0,0,1-3.073,0c-2.026-1.189-4.12-2.5-6.192-3.874a22.652,22.652,0,0,1,.241,3.59L52.24,88.221l1.9-.017a3.654,3.654,0,0,1,3.683,3.62l.041,4.73a3.66,3.66,0,0,1-3.62,3.683l-24.572.211h-.032a3.655,3.655,0,0,1-3.651-3.619L25.945,92.1a3.66,3.66,0,0,1,3.62-3.683l2.347-.02V85.789l-13.7-13.7a11.314,11.314,0,0,1-3.424-8.5l.885-31.258a5.883,5.883,0,0,1,3.359-4.849,22.459,22.459,0,0,1,4.1-11.05A20.354,20.354,0,0,1,32.5,9.355,22.863,22.863,0,0,1,46.428,8.84a31.515,31.515,0,0,1,13.314,7.719A31.532,31.532,0,0,1,73.057,8.84a22.866,22.866,0,0,1,13.932.514,20.349,20.349,0,0,1,9.359,7.072,22.492,22.492,0,0,1,4.109,11.057,5.871,5.871,0,0,1,3.354,4.844l.887,31.258a11.347,11.347,0,0,1-3.424,8.5Zm-37.543,9a1.469,1.469,0,1,1,1.909.824A1.469,1.469,0,0,1,50.031,94.788Z" transform="translate(0)" fill-rule="evenodd"/>
    </g>
  </g>
</svg>
