<svg xmlns="http://www.w3.org/2000/svg" width="128" height="128" viewBox="0 0 128 128">
  <g id="img12" transform="translate(-72.746 -7992)">
    <g id="Ellipse_13628" data-name="Ellipse 13628" transform="translate(72.746 7992)" fill="#fef6ff" stroke="#9c3413" stroke-width="6">
      <circle cx="64" cy="64" r="64" stroke="none"/>
      <circle cx="64" cy="64" r="61" fill="none"/>
    </g>
    <g id="Group_1197700" data-name="Group 1197700" transform="translate(104.872 8014.496)">
      <path id="Path_1020292" data-name="Path 1020292" d="M425.405,161.466l-2.949-1.613a.579.579,0,0,1-.23-.23l-1.613-2.949a.579.579,0,0,0-1.017,0l-1.613,2.949a.58.58,0,0,1-.23.23l-2.949,1.613a.579.579,0,0,0,0,1.017l2.949,1.613a.579.579,0,0,1,.23.23l1.613,2.949a.58.58,0,0,0,1.017,0l1.613-2.949a.58.58,0,0,1,.23-.23l2.949-1.613A.58.58,0,0,0,425.405,161.466Z" transform="translate(-362.893 -127.271)" fill="#fff0ad"/>
      <path id="Path_1020293" data-name="Path 1020293" d="M457.794,161.466l-2.949-1.613a.579.579,0,0,1-.23-.23L453,156.673a.579.579,0,0,0-1.017,0l-.488.893a6.649,6.649,0,0,1,.147,9.087l.341.623a.58.58,0,0,0,1.017,0l1.613-2.949a.58.58,0,0,1,.23-.23l2.949-1.613A.579.579,0,0,0,457.794,161.466Z" transform="translate(-395.281 -127.271)" fill="#ffe177"/>
      <path id="Path_1020294" data-name="Path 1020294" d="M18.4,73.559l-2.949-1.613a.579.579,0,0,1-.23-.23l-1.613-2.949a.58.58,0,0,0-1.017,0l-1.613,2.949a.58.58,0,0,1-.23.23L7.8,73.559a.58.58,0,0,0,0,1.017l2.949,1.613a.579.579,0,0,1,.23.23l1.613,2.949a.58.58,0,0,0,1.017,0l1.613-2.949a.58.58,0,0,1,.23-.23L18.4,74.576A.58.58,0,0,0,18.4,73.559Z" transform="translate(-6.566 -50.309)" fill="#fff0ad"/>
      <path id="Path_1020295" data-name="Path 1020295" d="M50.793,73.559l-2.949-1.613a.579.579,0,0,1-.23-.23L46,68.766a.58.58,0,0,0-1.017,0l-.488.893a6.649,6.649,0,0,1,.147,9.087l.341.623a.58.58,0,0,0,1.017,0l1.613-2.949a.58.58,0,0,1,.23-.23l2.949-1.613A.579.579,0,0,0,50.793,73.559Z" transform="translate(-38.955 -50.309)" fill="#ffe177"/>
      <path id="Path_1020296" data-name="Path 1020296" d="M251.9,23.594l-2.949-1.613a.579.579,0,0,1-.23-.23L247.112,18.8a.58.58,0,0,0-1.017,0l-1.613,2.949a.58.58,0,0,1-.23.23L241.3,23.594a.58.58,0,0,0,0,1.017l2.949,1.613a.579.579,0,0,1,.23.23l1.613,2.949a.58.58,0,0,0,1.017,0l1.613-2.949a.58.58,0,0,1,.23-.23l2.949-1.613A.579.579,0,0,0,251.9,23.594Z" transform="translate(-210.994 -6.566)" fill="#fff0ad"/>
      <path id="Path_1020297" data-name="Path 1020297" d="M284.293,23.594l-2.949-1.613a.579.579,0,0,1-.23-.23L279.5,18.8a.58.58,0,0,0-1.017,0l-.488.893a6.649,6.649,0,0,1,.147,9.087l.341.623a.58.58,0,0,0,1.017,0l1.613-2.949a.58.58,0,0,1,.23-.23l2.949-1.613A.579.579,0,0,0,284.293,23.594Z" transform="translate(-243.382 -6.566)" fill="#ffe177"/>
      <path id="Path_1020298" data-name="Path 1020298" d="M125,185h7.47v12.949H125Z" transform="translate(-109.437 -152.336)" fill="#7a6d79"/>
      <path id="Path_1020299" data-name="Path 1020299" d="M155,185h3.735v12.949H155Z" transform="translate(-135.701 -152.336)" fill="#685e68"/>
      <path id="Path_1020300" data-name="Path 1020300" d="M124.463,158.735H115.5a.5.5,0,0,1-.5-.5V155.5a.5.5,0,0,1,.5-.5h8.965a.5.5,0,0,1,.5.5v2.739A.5.5,0,0,1,124.463,158.735Z" transform="translate(-100.682 -126.071)" fill="#f3f0f3"/>
      <path id="Path_1020301" data-name="Path 1020301" d="M164.735,155H161a.5.5,0,0,1,.5.5v2.739a.5.5,0,0,1-.5.5h3.735a.5.5,0,0,0,.5-.5V155.5A.5.5,0,0,0,164.735,155Z" transform="translate(-140.954 -126.071)" fill="#e2dee2"/>
      <path id="Path_1020302" data-name="Path 1020302" d="M143.352,221.426H106V201.334L124.676,187l18.676,14.333Z" transform="translate(-92.802 -154.087)" fill="#f3f0f3"/>
      <path id="Path_1020303" data-name="Path 1020303" d="M376,279.093v22.96h3.735V281.96Z" transform="translate(-329.185 -234.713)" fill="#e2dee2"/>
      <path id="Path_1020304" data-name="Path 1020304" d="M114.836,187.82,93.42,171.385a1.868,1.868,0,0,0-2.274,0L69.731,187.82a1.868,1.868,0,0,0,2.274,2.963l20.278-15.562,20.278,15.562a1.868,1.868,0,1,0,2.274-2.963Z" transform="translate(-60.409 -140.078)" fill="#d6694b"/>
      <path id="Path_1020305" data-name="Path 1020305" d="M211,346.577h11.206v14.558H211Z" transform="translate(-184.729 -293.795)" fill="#dd7f66"/>
      <path id="Path_1020306" data-name="Path 1020306" d="M271,346.577h3.735v14.558H271Z" transform="translate(-237.258 -293.795)" fill="#d6694b"/>
      <path id="Path_1020307" data-name="Path 1020307" d="M335.973,346.577h4.98v8.218h-4.98Z" transform="translate(-294.142 -293.795)" fill="#a6e7f0"/>
      <path id="Path_1020308" data-name="Path 1020308" d="M136,346.577h4.98v8.218H136Z" transform="translate(-119.067 -293.795)" fill="#a6e7f0"/>
      <circle id="Ellipse_15180" data-name="Ellipse 15180" cx="3.735" cy="3.735" r="3.735" transform="translate(28.139 41.114)" fill="#685e68"/>
      <path id="Path_1020309" data-name="Path 1020309" d="M67.513,467.235H9.368a1.868,1.868,0,1,1,0-3.735H67.513a1.868,1.868,0,1,1,0,3.735Z" transform="translate(-6.566 -396.16)" fill="#57be92"/>
      <path id="Path_1020310" data-name="Path 1020310" d="M463.235,463.5H459.5a1.868,1.868,0,1,1,0,3.735h3.735a1.868,1.868,0,1,0,0-3.735Z" transform="translate(-402.289 -396.16)" fill="#22b37f"/>
      <g id="Group_1197699" data-name="Group 1197699" transform="translate(0 11)">
        <path id="Path_1020311" data-name="Path 1020311" d="M407.787,156.736l2.858,1.563,1.563,2.858a1.513,1.513,0,0,0,2.656,0l1.563-2.858,2.858-1.563a1.513,1.513,0,0,0,0-2.656h0l-2.858-1.563-1.563-2.858a1.513,1.513,0,0,0-2.656,0l-1.563,2.858-2.858,1.563a1.513,1.513,0,0,0,0,2.656Zm3.845-2.63a1.509,1.509,0,0,0,.6-.6l1.3-2.381,1.3,2.381a1.51,1.51,0,0,0,.6.6l2.381,1.3-2.381,1.3a1.509,1.509,0,0,0-.6.6l-1.3,2.381-1.3-2.381a1.509,1.509,0,0,0-.6-.6l-2.381-1.3Z" transform="translate(-356.325 -131.706)"/>
        <path id="Path_1020312" data-name="Path 1020312" d="M.787,68.83l2.858,1.563,1.563,2.858a1.513,1.513,0,0,0,2.656,0l1.563-2.858,2.858-1.563a1.513,1.513,0,0,0,0-2.656L9.428,64.611,7.864,61.753a1.513,1.513,0,0,0-2.656,0L3.646,64.611.787,66.175a1.513,1.513,0,0,0,0,2.656ZM4.633,66.2a1.51,1.51,0,0,0,.6-.6l1.3-2.381,1.3,2.381a1.511,1.511,0,0,0,.6.6l2.381,1.3L8.441,68.8a1.509,1.509,0,0,0-.6.6l-1.3,2.381-1.3-2.381a1.51,1.51,0,0,0-.6-.6L2.252,67.5Z" transform="translate(0 -54.745)"/>
        <path id="Path_1020313" data-name="Path 1020313" d="M234.286,18.864l2.858,1.563,1.563,2.858a1.513,1.513,0,0,0,2.656,0l1.563-2.858,2.858-1.563a1.514,1.514,0,0,0,0-2.656h0l-2.858-1.563-1.563-2.858a1.513,1.513,0,0,0-2.656,0l-1.563,2.858-2.858,1.563a1.513,1.513,0,0,0,0,2.656Zm3.845-2.63a1.51,1.51,0,0,0,.6-.6l1.3-2.381,1.3,2.381a1.51,1.51,0,0,0,.6.6l2.381,1.3-2.381,1.3a1.51,1.51,0,0,0-.6.6l-1.3,2.381-1.3-2.381a1.51,1.51,0,0,0-.6-.6l-2.381-1.3Z" transform="translate(-204.427 -11)"/>
        <path id="Path_1020314" data-name="Path 1020314" d="M269.434,402.5a.934.934,0,0,0-.934.934v1a.934.934,0,0,0,1.868,0v-1A.934.934,0,0,0,269.434,402.5Z" transform="translate(-235.07 -353.755)"/>
        <path id="Path_1020315" data-name="Path 1020315" d="M334.388,339.077h-4.98a.934.934,0,0,0-.934.934v8.217a.934.934,0,0,0,.934.934h4.98a.934.934,0,0,0,.934-.934v-8.217A.934.934,0,0,0,334.388,339.077Zm-.934,8.218h-3.113v-6.35h3.113Z" transform="translate(-287.576 -298.229)"/>
        <path id="Path_1020316" data-name="Path 1020316" d="M134.414,339.077h-4.98a.934.934,0,0,0-.934.934v8.217a.934.934,0,0,0,.934.934h4.98a.934.934,0,0,0,.934-.934v-8.217A.934.934,0,0,0,134.414,339.077Zm-.934,8.218h-3.113v-6.35h3.113Z" transform="translate(-112.501 -298.229)"/>
        <path id="Path_1020317" data-name="Path 1020317" d="M223.169,245.368a4.669,4.669,0,1,0,4.669,4.669A4.674,4.674,0,0,0,223.169,245.368Zm0,7.47a2.8,2.8,0,1,1,2.8-2.8A2.8,2.8,0,0,1,223.169,252.838Z" transform="translate(-191.295 -216.187)"/>
        <path id="Path_1020318" data-name="Path 1020318" d="M60.947,185.911H51.484V170.874l.1.077a2.8,2.8,0,0,0,3.928-.517A2.805,2.805,0,0,0,55,166.506l-3.655-2.8a.934.934,0,1,0-1.137,1.482l3.655,2.8a.934.934,0,0,1-.57,1.675.924.924,0,0,1-.567-.193L32.443,153.907a.934.934,0,0,0-1.137,0L11.027,169.469a.934.934,0,0,1-1.137-1.482l21.415-16.435a.935.935,0,0,1,1.137,0l14.279,10.959a.934.934,0,0,0,1.137-1.482L33.579,150.071a2.806,2.806,0,0,0-3.411,0l-6.2,4.759v-1.74a1.433,1.433,0,0,0,1.245-1.418v-2.739a1.433,1.433,0,0,0-1.432-1.432H20.64a.934.934,0,1,0,0,1.868h2.706v1.868H15.252v-1.868h1.02a.934.934,0,1,0,0-1.868H14.816a1.433,1.433,0,0,0-1.432,1.432v2.739a1.433,1.433,0,0,0,1.245,1.418V162l-5.877,4.51a2.8,2.8,0,0,0,3.411,4.445l.1-.077v15.036H2.8a2.8,2.8,0,1,0,0,5.6h9.1a.934.934,0,1,0,0-1.868H2.8a.934.934,0,1,1,0-1.868H60.947a.934.934,0,1,1,0,1.868H16.291a.934.934,0,1,0,0,1.868H60.947a2.8,2.8,0,1,0,0-5.6ZM16.5,153.1h5.6v3.16l-5.6,4.3Zm10.708,32.808V173.22h9.338v12.69Zm11.206,0V172.287a.934.934,0,0,0-.934-.934H26.271a.934.934,0,0,0-.934.934v13.624H14.132v-16.47l17.742-13.616,17.742,13.616v16.47Z" transform="translate(0 -130.505)"/>
      </g>
    </g>
  </g>
</svg>
