<svg xmlns="http://www.w3.org/2000/svg" width="84" height="84" viewBox="0 0 84 84">
  <g id="img12" transform="translate(-185 -4586)">
    <rect id="Rectangle_461356" data-name="Rectangle 461356" width="84" height="84" rx="9" transform="translate(185 4586)" fill="#ffe3c2"/>
    <g id="Layer_66" transform="translate(193.722 4594.722)">
      <g id="Group_1196453" data-name="Group 1196453" transform="translate(0 0)">
        <g id="Group_1196307" data-name="Group 1196307" transform="translate(5.058 32.844)">
          <g id="Group_1196306" data-name="Group 1196306">
            <path id="Path_1018281" data-name="Path 1018281" d="M23.6,126.9a3.021,3.021,0,0,1-2.33-.568,8.636,8.636,0,0,0,.621,4.976c.99,2.476-2.742,4.534-2.412,7.987l3.726-.941a6.474,6.474,0,0,0,1.279-.47l1.827-.9a2.055,2.055,0,0,0,1.146-1.843V132.9a7.417,7.417,0,0,1-3.856-6Z" transform="translate(-19.456 -126.331)" fill="#fcdd86"/>
          </g>
        </g>
        <g id="Group_1196309" data-name="Group 1196309" transform="translate(0.65 44.93)">
          <g id="Group_1196308" data-name="Group 1196308">
            <path id="Path_1018282" data-name="Path 1018282" d="M28.668,176.6a2.659,2.659,0,0,1-3.042-2.126c-2.715,4.763-5.47,2.537-6.643,1.18a.581.581,0,0,1-.141-.373H18a.581.581,0,0,1-.141.373c-1.292,1.493-4.5,4.043-7.461-2.837l-5.03,1.27a3.03,3.03,0,0,0-2.286,2.77L2.5,192.9a.842.842,0,0,0,.841.889H8.021a.57.57,0,0,0,.57-.57V183.193l.826,2.647a17.938,17.938,0,0,1,.815,5.346v2.038a.57.57,0,0,0,.57.57H22.1l.248-4.531a2.519,2.519,0,0,1,1.9-2.3l3.078-.775c.172-.592.311-1.009.927-2.992v2.759l.952-.24,1.477-.728a2.3,2.3,0,0,0,1.505-2.114v-.991a6.406,6.406,0,0,1-3.519-5.278Z" transform="translate(-2.5 -172.817)" fill="#fc657e"/>
          </g>
        </g>
        <g id="Group_1196311" data-name="Group 1196311" transform="translate(16.987 43.707)">
          <g id="Group_1196310" data-name="Group 1196310">
            <path id="Path_1018283" data-name="Path 1018283" d="M72.415,169.2a16.158,16.158,0,0,1-2.4-1.082,9.827,9.827,0,0,1-4.237,3.087.605.605,0,0,0-.295.973c1.174,1.357,3.929,3.583,6.643-1.18A2.646,2.646,0,0,1,72.415,169.2Z" transform="translate(-65.337 -168.114)" fill="#edf4fc"/>
          </g>
        </g>
        <g id="Group_1196313" data-name="Group 1196313" transform="translate(8.551 43.707)">
          <g id="Group_1196312" data-name="Group 1196312">
            <path id="Path_1018284" data-name="Path 1018284" d="M40.057,171.2a9.825,9.825,0,0,1-4.237-3.087l-1.4.688a6.469,6.469,0,0,1-1.279.47l-.254.064c2.961,6.88,6.168,4.331,7.461,2.837A.605.605,0,0,0,40.057,171.2Z" transform="translate(-32.891 -168.114)" fill="#edf4fc"/>
          </g>
        </g>
        <g id="Group_1196315" data-name="Group 1196315" transform="translate(11.48 39.411)">
          <g id="Group_1196314" data-name="Group 1196314">
            <path id="Path_1018285" data-name="Path 1018285" d="M53.909,155.673a2.055,2.055,0,0,1-1.146-1.843v-2.241a7.348,7.348,0,0,1-7.03,0v2.241a2.055,2.055,0,0,1-1.146,1.843l-.431.212a9.827,9.827,0,0,0,4.237,3.087.614.614,0,0,1,.436.6h.838a.614.614,0,0,1,.436-.6,9.825,9.825,0,0,0,4.237-3.087Z" transform="translate(-44.156 -151.589)" fill="#f9d0b4"/>
          </g>
        </g>
        <g id="Group_1196320" data-name="Group 1196320" transform="translate(0 44.28)">
          <g id="Group_1196317" data-name="Group 1196317" transform="translate(24.868 10.375)">
            <g id="Group_1196316" data-name="Group 1196316">
              <path id="Path_1018286" data-name="Path 1018286" d="M97.284,210.233a.648.648,0,0,0-.718.45c-.237.764-.4,1.295-.528,1.694-.174.555-.268.855-.359,1.163a1.173,1.173,0,0,0,2.158-.042v-2.622a.65.65,0,0,0-.552-.643Z" transform="translate(-95.652 -210.225)"/>
            </g>
          </g>
          <g id="Group_1196319" data-name="Group 1196319">
            <g id="Group_1196318" data-name="Group 1196318">
              <path id="Path_1018287" data-name="Path 1018287" d="M20.249,191.294H9.032v-1.958a18.569,18.569,0,0,0-.845-5.54l-.826-2.647a.65.65,0,0,0-1.27.194v9.951h-4.6a.192.192,0,0,1-.14-.06.2.2,0,0,1-.052-.155l.583-16.035a2.37,2.37,0,0,1,1.8-2.176l5.03-1.27a.65.65,0,1,0-.318-1.26l-5.029,1.27a3.667,3.667,0,0,0-2.777,3.377L0,191.019a1.492,1.492,0,0,0,1.49,1.575H6.172a1.221,1.221,0,0,0,1.22-1.219v-5.457a17.261,17.261,0,0,1,.341,3.419v2.039a1.221,1.221,0,0,0,1.219,1.219h11.3a.65.65,0,1,0,0-1.3Z" transform="translate(0 -170.318)"/>
            </g>
          </g>
        </g>
        <g id="Group_1196322" data-name="Group 1196322" transform="translate(20.087 32.844)">
          <g id="Group_1196321" data-name="Group 1196321">
            <path id="Path_1018288" data-name="Path 1018288" d="M83.448,126.33a3.021,3.021,0,0,1-2.33.568,7.416,7.416,0,0,1-3.856,6v2.241a2.055,2.055,0,0,0,1.146,1.843l1.827.9a6.454,6.454,0,0,0,1,.393,2.681,2.681,0,0,1,.666-.786h0v-2.321a8.51,8.51,0,0,1,.922-3.86v0a8.635,8.635,0,0,0,.621-4.975Z" transform="translate(-77.261 -126.33)" fill="#fcdd86"/>
          </g>
        </g>
        <g id="Group_1196324" data-name="Group 1196324" transform="translate(23.943 27.284)">
          <g id="Group_1196323" data-name="Group 1196323">
            <path id="Path_1018289" data-name="Path 1018289" d="M92.588,104.944a3.066,3.066,0,0,0-.474.038v5.595c0,.167-.008.331-.019.5a3.084,3.084,0,1,0,.493-6.128Z" transform="translate(-92.095 -104.944)" fill="#f9d0b4"/>
          </g>
        </g>
        <g id="Group_1196326" data-name="Group 1196326" transform="translate(9.182 24.701)">
          <g id="Group_1196325" data-name="Group 1196325">
            <path id="Path_1018290" data-name="Path 1018290" d="M49.642,96.689a6.126,6.126,0,0,1-2.7-1.552.491.491,0,0,0-.7.04c-1.125,1.314-5.117,5.3-10.925,3.645v4.4a7.39,7.39,0,0,0,14.78,0V97.252A.579.579,0,0,0,49.642,96.689Z" transform="translate(-35.316 -95.007)" fill="#f9d0b4"/>
          </g>
        </g>
        <g id="Group_1196328" data-name="Group 1196328" transform="translate(5.622 27.868)">
          <g id="Group_1196327" data-name="Group 1196327">
            <path id="Path_1018291" data-name="Path 1018291" d="M25.184,112.239v-4.4a12.011,12.011,0,0,1-1.563-.568.94.94,0,0,0-1.022.175,3.076,3.076,0,0,0,2.6,5.289C25.192,112.571,25.184,112.406,25.184,112.239Z" transform="translate(-21.624 -107.191)" fill="#f9d0b4"/>
          </g>
        </g>
        <g id="Group_1196330" data-name="Group 1196330" transform="translate(6.523 16.335)">
          <g id="Group_1196329" data-name="Group 1196329">
            <path id="Path_1018292" data-name="Path 1018292" d="M35.138,62.829A10.079,10.079,0,0,0,25.089,72.878v1.816c.025-.025.048-.052.074-.077a.94.94,0,0,1,1.022-.175,12.009,12.009,0,0,0,1.563.568c5.808,1.655,9.8-2.331,10.925-3.645a.49.49,0,0,1,.7-.04,6.126,6.126,0,0,0,2.7,1.552.58.58,0,0,1,.454.563v.376a3.071,3.071,0,0,1,2.659.869V72.878A10.079,10.079,0,0,0,35.138,62.829Z" transform="translate(-25.089 -62.829)" fill="#fcdd86"/>
          </g>
        </g>
        <g id="Group_1196332" data-name="Group 1196332" transform="translate(23.487 26.634)">
          <g id="Group_1196331" data-name="Group 1196331">
            <path id="Path_1018293" data-name="Path 1018293" d="M91.289,102.444c-.115,0-.229.006-.342.016a.65.65,0,1,0,.12,1.294c.073-.007.147-.011.222-.011a2.435,2.435,0,1,1,0,4.871,2.147,2.147,0,0,1-.229-.013.65.65,0,1,0-.14,1.292,3.407,3.407,0,0,0,.369.021,3.735,3.735,0,1,0,0-7.471Z" transform="translate(-90.34 -102.444)"/>
          </g>
        </g>
        <g id="Group_1196334" data-name="Group 1196334" transform="translate(13.884 34.709)">
          <g id="Group_1196333" data-name="Group 1196333">
            <path id="Path_1018294" data-name="Path 1018294" d="M58.761,133.655a.65.65,0,0,0-.916.081,2.318,2.318,0,0,1-3.295,0,.65.65,0,0,0-1,.835,3.61,3.61,0,0,0,5.287,0A.65.65,0,0,0,58.761,133.655Z" transform="translate(-53.403 -133.504)"/>
          </g>
        </g>
        <g id="Group_1196337" data-name="Group 1196337" transform="translate(8.532 24.05)">
          <g id="Group_1196336" data-name="Group 1196336">
            <g id="Group_1196335" data-name="Group 1196335">
              <path id="Path_1018295" data-name="Path 1018295" d="M47.938,94.206a5.581,5.581,0,0,1-2.406-1.4,1.158,1.158,0,0,0-.844-.3,1.126,1.126,0,0,0-.791.395c-1.028,1.2-4.805,4.995-10.253,3.443a.65.65,0,0,0-.828.625v4.4a8.04,8.04,0,1,0,16.08,0V95.4A1.226,1.226,0,0,0,47.938,94.206Zm-.342,7.167a6.74,6.74,0,1,1-13.48,0V97.8c5.568,1.146,9.426-2.528,10.66-3.926a6.768,6.768,0,0,0,2.82,1.587Z" transform="translate(-32.816 -92.507)"/>
            </g>
          </g>
        </g>
        <g id="Group_1196339" data-name="Group 1196339" transform="translate(4.972 27.217)">
          <g id="Group_1196338" data-name="Group 1196338">
            <path id="Path_1018296" data-name="Path 1018296" d="M21.509,106.012a12.734,12.734,0,0,0,1.648.6.65.65,0,0,0,.356-1.25,11.393,11.393,0,0,1-1.479-.537,1.584,1.584,0,0,0-1.729.3,3.732,3.732,0,0,0,2.555,6.456c.1,0,.207-.005.309-.015a.65.65,0,0,0-.12-1.294c-.062.006-.125.009-.189.009a2.438,2.438,0,0,1-2.436-2.436,2.407,2.407,0,0,1,.769-1.772A.289.289,0,0,1,21.509,106.012Z" transform="translate(-19.125 -104.687)"/>
          </g>
        </g>
        <g id="Group_1196341" data-name="Group 1196341" transform="translate(5.873 15.685)">
          <g id="Group_1196340" data-name="Group 1196340">
            <path id="Path_1018297" data-name="Path 1018297" d="M33.288,60.329a10.711,10.711,0,0,0-10.7,10.7V72.69a.65.65,0,0,0,1.3,0V71.028a9.4,9.4,0,0,1,18.8,0v1.619a.65.65,0,0,0,1.3,0V71.028A10.711,10.711,0,0,0,33.288,60.329Z" transform="translate(-22.589 -60.329)"/>
          </g>
        </g>
        <g id="Group_1196343" data-name="Group 1196343" transform="translate(25.001 32.351)">
          <g id="Group_1196342" data-name="Group 1196342">
            <path id="Path_1018298" data-name="Path 1018298" d="M98.1,124.971a.65.65,0,0,0-1.28.228,8.285,8.285,0,0,1-.615,4.463l-.01.028a.65.65,0,0,0,1.216.459l0-.012A9.436,9.436,0,0,0,98.1,124.971Z" transform="translate(-96.162 -124.434)"/>
          </g>
        </g>
        <g id="Group_1196345" data-name="Group 1196345" transform="translate(4.408 32.349)">
          <g id="Group_1196344" data-name="Group 1196344">
            <path id="Path_1018299" data-name="Path 1018299" d="M20.643,129.656a8.281,8.281,0,0,1-.615-4.464.65.65,0,1,0-1.279-.229,9.436,9.436,0,0,0,.687,5.176c.359.9-.117,1.752-.924,3.071a7.69,7.69,0,0,0-1.546,4.562.65.65,0,0,0,.648.61h.041a.65.65,0,0,0,.609-.689,6.58,6.58,0,0,1,1.357-3.8C20.428,132.569,21.263,131.2,20.643,129.656Z" transform="translate(-16.956 -124.427)"/>
          </g>
        </g>
        <g id="Group_1196348" data-name="Group 1196348" transform="translate(16.337 43.057)">
          <g id="Group_1196347" data-name="Group 1196347">
            <g id="Group_1196346" data-name="Group 1196346">
              <path id="Path_1018300" data-name="Path 1018300" d="M71.166,167.1a.65.65,0,0,0-.416-.378,5.872,5.872,0,0,1-.9-.354l-1.4-.688a.649.649,0,0,0-.782.161,9.219,9.219,0,0,1-3.935,2.888,1.27,1.27,0,0,0-.85.864,1.238,1.238,0,0,0,.256,1.154,4.927,4.927,0,0,0,3.519,1.946q.158,0,.32-.016c1.426-.14,2.725-1.221,3.861-3.214a.649.649,0,0,0,.074-.444,1.99,1.99,0,0,1,.218-1.36A.649.649,0,0,0,71.166,167.1ZM69.6,169.016c-.881,1.481-1.8,2.279-2.746,2.371a3.554,3.554,0,0,1-2.68-1.431,10.111,10.111,0,0,0,4.149-2.888l.951.469q.211.1.431.194a3.268,3.268,0,0,0-.1,1.285Z" transform="translate(-62.836 -165.615)"/>
            </g>
          </g>
        </g>
        <g id="Group_1196351" data-name="Group 1196351" transform="translate(7.901 43.058)">
          <g id="Group_1196350" data-name="Group 1196350">
            <g id="Group_1196349" data-name="Group 1196349">
              <path id="Path_1018301" data-name="Path 1018301" d="M39.249,169.6a1.27,1.27,0,0,0-.85-.864,9.219,9.219,0,0,1-3.935-2.888.65.65,0,0,0-.782-.161l-1.4.688a5.822,5.822,0,0,1-1.15.423l-.254.064a.65.65,0,0,0-.438.887c1.289,3,2.814,4.649,4.531,4.915a3.136,3.136,0,0,0,.481.037,4.857,4.857,0,0,0,3.537-1.946A1.24,1.24,0,0,0,39.249,169.6Zm-4.075,1.779c-1.113-.172-2.222-1.365-3.227-3.464a7.1,7.1,0,0,0,.914-.374l.951-.469a10.109,10.109,0,0,0,4.149,2.888A3.456,3.456,0,0,1,35.174,171.375Z" transform="translate(-30.391 -165.615)"/>
            </g>
          </g>
        </g>
        <g id="Group_1196353" data-name="Group 1196353" transform="translate(19.437 38.982)">
          <g id="Group_1196352" data-name="Group 1196352">
            <path id="Path_1018302" data-name="Path 1018302" d="M77.276,154.081l-.431-.212a1.4,1.4,0,0,1-.783-1.26v-2.02a.65.65,0,0,0-1.3,0v2.02a2.688,2.688,0,0,0,1.508,2.426l.431.212a.65.65,0,0,0,.575-1.166Z" transform="translate(-74.762 -149.938)"/>
          </g>
        </g>
        <g id="Group_1196355" data-name="Group 1196355" transform="translate(15.549 46.745)">
          <g id="Group_1196354" data-name="Group 1196354">
            <path id="Path_1018303" data-name="Path 1018303" d="M61.2,179.8h-.746a.65.65,0,0,0,0,1.3H61.2a.65.65,0,1,0,0-1.3Z" transform="translate(-59.807 -179.797)"/>
          </g>
        </g>
        <g id="Group_1196357" data-name="Group 1196357" transform="translate(10.83 38.998)">
          <g id="Group_1196356" data-name="Group 1196356">
            <path id="Path_1018304" data-name="Path 1018304" d="M43.882,150a.65.65,0,0,0-.65.65v2a1.4,1.4,0,0,1-.784,1.26l-.431.212a.65.65,0,1,0,.575,1.166l.431-.212a2.687,2.687,0,0,0,1.509-2.426v-2A.65.65,0,0,0,43.882,150Z" transform="translate(-41.655 -150)"/>
          </g>
        </g>
        <g id="Group_1196359" data-name="Group 1196359" transform="translate(41.374 23.414)">
          <g id="Group_1196358" data-name="Group 1196358">
            <path id="Path_1018305" data-name="Path 1018305" d="M174.826,92.628a.42.42,0,0,0-.405-.412,8.165,8.165,0,0,1-5.635-2.034.422.422,0,0,0-.628.04c-2.865,3.6-7.092,3.095-8.513,2.8a.419.419,0,0,0-.506.4v6.315a7.844,7.844,0,0,0,15.689,0V92.751C174.827,92.71,174.827,92.669,174.826,92.628Z" transform="translate(-159.139 -90.06)" fill="#f9c1a8"/>
          </g>
        </g>
        <g id="Group_1196361" data-name="Group 1196361" transform="translate(38.827 16.107)">
          <g id="Group_1196360" data-name="Group 1196360">
            <path id="Path_1018306" data-name="Path 1018306" d="M165.872,63.508a4.434,4.434,0,0,0-2.289.639,4.485,4.485,0,0,0-3.843-2.193h-2.3a8.121,8.121,0,0,0-8.1,8.1v3.628A3.251,3.251,0,0,1,151.89,73v-.377a.419.419,0,0,1,.506-.4c1.421.3,5.648.806,8.513-2.8a.422.422,0,0,1,.628-.04,8.167,8.167,0,0,0,5.635,2.034.42.42,0,0,1,.405.412c0,.041,0,.082,0,.123V73a3.253,3.253,0,0,1,2.775.879V67.989A4.494,4.494,0,0,0,165.872,63.508Z" transform="translate(-149.343 -61.954)" fill="#414344"/>
          </g>
        </g>
        <g id="Group_1196363" data-name="Group 1196363" transform="translate(57.043 27.114)">
          <g id="Group_1196362" data-name="Group 1196362">
            <path id="Path_1018307" data-name="Path 1018307" d="M219.93,104.29a3.245,3.245,0,0,0-.5.04v5.939c0,.177-.008.352-.02.526a3.273,3.273,0,1,0,.523-6.5Z" transform="translate(-219.407 -104.29)" fill="#f9c1a8"/>
          </g>
        </g>
        <g id="Group_1196365" data-name="Group 1196365" transform="translate(37.595 27.114)">
          <g id="Group_1196364" data-name="Group 1196364">
            <path id="Path_1018308" data-name="Path 1018308" d="M148.383,110.268v-5.939a3.276,3.276,0,1,0,.02,6.464C148.391,110.62,148.383,110.445,148.383,110.268Z" transform="translate(-144.605 -104.289)" fill="#f9c1a8"/>
          </g>
        </g>
        <g id="Group_1196367" data-name="Group 1196367" transform="translate(36.219 39.988)">
          <g id="Group_1196366" data-name="Group 1196366">
            <path id="Path_1018309" data-name="Path 1018309" d="M168.131,163a3.1,3.1,0,0,0-2.335-2.83l-6.092-1.533-2.153-1.062a2.71,2.71,0,0,1-1.512-2.431v-1.335a7.79,7.79,0,0,1-7.228.117v1.218a2.71,2.71,0,0,1-1.512,2.431l-1.946.96a2.663,2.663,0,0,1-2.708,4h0a6.407,6.407,0,0,1-3.334,5.184V168.8a2.305,2.305,0,0,0,1.505,2.114l1.477.728,4.958,1.248a2.519,2.519,0,0,1,1.9,2.3l.248,4.531h18.738a.861.861,0,0,0,.859-.908Z" transform="translate(-139.312 -153.808)" fill="#70d6f9"/>
          </g>
        </g>
        <g id="Group_1196369" data-name="Group 1196369" transform="translate(43.868 39.988)">
          <g id="Group_1196368" data-name="Group 1196368">
            <path id="Path_1018310" data-name="Path 1018310" d="M179.323,157.574a2.71,2.71,0,0,1-1.512-2.431v-1.335a7.79,7.79,0,0,1-7.228.117v1.218a2.71,2.71,0,0,1-1.512,2.431l-.338.167a6.133,6.133,0,0,0,10.927,0Z" transform="translate(-168.734 -153.808)" fill="#f9c1a8"/>
          </g>
        </g>
        <g id="Group_1196372" data-name="Group 1196372" transform="translate(40.723 22.765)">
          <g id="Group_1196371" data-name="Group 1196371">
            <g id="Group_1196370" data-name="Group 1196370">
              <path id="Path_1018311" data-name="Path 1018311" d="M173.624,90.767a1.068,1.068,0,0,0-1.036-1.049,7.568,7.568,0,0,1-5.2-1.849,1.072,1.072,0,0,0-1.592.1,7.8,7.8,0,0,1-7.871,2.565,1.072,1.072,0,0,0-.9.217,1.06,1.06,0,0,0-.393.829v6.31a8.494,8.494,0,1,0,16.989,0V90.767Zm-1.3,7.123a7.194,7.194,0,0,1-14.389,0V91.86a9.164,9.164,0,0,0,8.723-2.893,8.857,8.857,0,0,0,5.666,2.042Z" transform="translate(-156.637 -87.563)"/>
            </g>
          </g>
        </g>
        <g id="Group_1196376" data-name="Group 1196376" transform="translate(38.177 15.457)">
          <g id="Group_1196375" data-name="Group 1196375">
            <g id="Group_1196374" data-name="Group 1196374">
              <g id="Group_1196373" data-name="Group 1196373">
                <path id="Path_1018312" data-name="Path 1018312" d="M164.022,61.009a5.079,5.079,0,0,0-2.079.447,5.157,5.157,0,0,0-4.053-2h-2.3a8.757,8.757,0,0,0-8.747,8.747V71.83a.65.65,0,0,0,1.056.507,2.6,2.6,0,0,1,1.637-.576,2.662,2.662,0,0,1,.4.032.65.65,0,0,0,.749-.642V71.06a9.167,9.167,0,0,0,8.723-2.893,8.857,8.857,0,0,0,5.666,2.042v.943a.65.65,0,0,0,.749.642,2.662,2.662,0,0,1,.4-.032,2.611,2.611,0,0,1,1.82.737.65.65,0,0,0,1.1-.468V66.14A5.136,5.136,0,0,0,164.022,61.009Zm3.831,9.8a3.9,3.9,0,0,0-1.475-.348v-.5a1.068,1.068,0,0,0-1.036-1.049,7.568,7.568,0,0,1-5.2-1.848,1.072,1.072,0,0,0-1.592.1,7.8,7.8,0,0,1-7.871,2.565,1.072,1.072,0,0,0-.9.217,1.057,1.057,0,0,0-.346.512,3.924,3.924,0,0,0-1.294.256V68.2a7.456,7.456,0,0,1,7.447-7.447h2.3a3.857,3.857,0,0,1,3.285,1.877.65.65,0,0,0,.892.224,3.817,3.817,0,0,1,5.786,3.284Z" transform="translate(-146.842 -59.455)"/>
              </g>
            </g>
          </g>
        </g>
        <g id="Group_1196378" data-name="Group 1196378" transform="translate(59.547 52.25)">
          <g id="Group_1196377" data-name="Group 1196377">
            <path id="Path_1018313" data-name="Path 1018313" d="M229.689,200.974a.65.65,0,0,0-.65.65v12.8a.65.65,0,1,0,1.3,0v-12.8A.65.65,0,0,0,229.689,200.974Z" transform="translate(-229.039 -200.974)"/>
          </g>
        </g>
        <g id="Group_1196380" data-name="Group 1196380" transform="translate(37.817 52.25)">
          <g id="Group_1196379" data-name="Group 1196379">
            <path id="Path_1018314" data-name="Path 1018314" d="M146.109,200.974a.65.65,0,0,0-.65.65v4.448a.65.65,0,0,0,1.3,0v-4.448A.65.65,0,0,0,146.109,200.974Z" transform="translate(-145.459 -200.974)"/>
          </g>
        </g>
        <g id="Group_1196383" data-name="Group 1196383" transform="translate(56.393 26.464)">
          <g id="Group_1196382" data-name="Group 1196382">
            <g id="Group_1196381" data-name="Group 1196381">
              <path id="Path_1018315" data-name="Path 1018315" d="M218.079,101.79a3.965,3.965,0,0,0-.6.048.65.65,0,0,0-.551.642v5.939c0,.143-.006.3-.018.482a.65.65,0,0,0,.545.686,3.924,3.924,0,1,0,.626-7.8Zm.147,6.546v-5.242a2.625,2.625,0,0,1,0,5.242Z" transform="translate(-216.906 -101.79)"/>
            </g>
          </g>
        </g>
        <g id="Group_1196386" data-name="Group 1196386" transform="translate(36.945 26.464)">
          <g id="Group_1196385" data-name="Group 1196385">
            <g id="Group_1196384" data-name="Group 1196384">
              <path id="Path_1018316" data-name="Path 1018316" d="M147.183,108.418v-5.939a.65.65,0,0,0-.551-.642,3.925,3.925,0,1,0-.6,7.8,3.915,3.915,0,0,0,.626-.054.65.65,0,0,0,.545-.685C147.189,108.713,147.183,108.56,147.183,108.418Zm-1.3-.082a2.625,2.625,0,0,1,0-5.242Z" transform="translate(-142.105 -101.789)"/>
            </g>
          </g>
        </g>
        <g id="Group_1196391" data-name="Group 1196391" transform="translate(41.703 39.604)">
          <g id="Group_1196388" data-name="Group 1196388" transform="translate(0 0.035)">
            <g id="Group_1196387" data-name="Group 1196387">
              <path id="Path_1018317" data-name="Path 1018317" d="M164.419,152.469a.65.65,0,0,0-.65.65v1.034A2.047,2.047,0,0,1,162.62,156l-1.854.914a.65.65,0,1,0,.575,1.166l1.854-.914a3.34,3.34,0,0,0,1.874-3.013v-1.034A.65.65,0,0,0,164.419,152.469Z" transform="translate(-160.404 -152.469)"/>
            </g>
          </g>
          <g id="Group_1196390" data-name="Group 1196390" transform="translate(3.955)">
            <g id="Group_1196389" data-name="Group 1196389">
              <path id="Path_1018318" data-name="Path 1018318" d="M196.513,177.691l-.867-15.82a3.73,3.73,0,0,0-2.826-3.424L186.8,156.93,184.7,155.9a2.047,2.047,0,0,1-1.149-1.847v-1.069a.65.65,0,1,0-1.3,0v1.069a3.34,3.34,0,0,0,1.874,3.013l2.153,1.062a.647.647,0,0,0,.129.048l6.092,1.533a2.435,2.435,0,0,1,1.845,2.235l.867,15.82a.211.211,0,0,1-.21.223H176.267a.65.65,0,1,0,0,1.3H195a1.51,1.51,0,0,0,1.508-1.594Z" transform="translate(-175.617 -152.333)"/>
            </g>
          </g>
        </g>
        <g id="Group_1196393" data-name="Group 1196393" transform="translate(43.306 43.434)">
          <g id="Group_1196392" data-name="Group 1196392">
            <path id="Path_1018319" data-name="Path 1018319" d="M178.271,167.186a.65.65,0,0,0-.885.247,5.481,5.481,0,0,1-9.6-.034.65.65,0,0,0-1.137.63,6.781,6.781,0,0,0,11.865.042.649.649,0,0,0-.247-.885Z" transform="translate(-166.571 -167.063)"/>
          </g>
        </g>
        <g id="Group_1196395" data-name="Group 1196395" transform="translate(46.571 34.734)">
          <g id="Group_1196394" data-name="Group 1196394">
            <path id="Path_1018320" data-name="Path 1018320" d="M184.525,133.752a.65.65,0,0,0-.916.081,2.345,2.345,0,0,1-3.333,0,.65.65,0,0,0-1,.835,3.636,3.636,0,0,0,5.326,0,.65.65,0,0,0-.081-.915Z" transform="translate(-179.128 -133.6)"/>
          </g>
        </g>
        <g id="Group_1196397" data-name="Group 1196397" transform="translate(51.584 29.654)">
          <g id="Group_1196396" data-name="Group 1196396">
            <path id="Path_1018321" data-name="Path 1018321" d="M199.443,114.06a1.032,1.032,0,1,0,1.032,1.032A1.032,1.032,0,0,0,199.443,114.06Z" transform="translate(-198.411 -114.06)"/>
          </g>
        </g>
        <g id="Group_1196399" data-name="Group 1196399" transform="translate(45.146 29.654)">
          <g id="Group_1196398" data-name="Group 1196398">
            <path id="Path_1018322" data-name="Path 1018322" d="M174.681,114.06a1.032,1.032,0,1,0,1.032,1.032A1.032,1.032,0,0,0,174.681,114.06Z" transform="translate(-173.649 -114.06)"/>
          </g>
        </g>
        <g id="Group_1196401" data-name="Group 1196401" transform="translate(18.826 30.174)">
          <g id="Group_1196400" data-name="Group 1196400">
            <path id="Path_1018323" data-name="Path 1018323" d="M73.443,116.06a1.032,1.032,0,1,0,1.032,1.032A1.032,1.032,0,0,0,73.443,116.06Z" transform="translate(-72.411 -116.06)"/>
          </g>
        </g>
        <g id="Group_1196403" data-name="Group 1196403" transform="translate(12.388 30.174)">
          <g id="Group_1196402" data-name="Group 1196402">
            <path id="Path_1018324" data-name="Path 1018324" d="M48.681,116.06a1.032,1.032,0,1,0,1.032,1.032A1.032,1.032,0,0,0,48.681,116.06Z" transform="translate(-47.649 -116.06)"/>
          </g>
        </g>
        <g id="Group_1196405" data-name="Group 1196405" transform="translate(26.802 39.91)">
          <g id="Group_1196404" data-name="Group 1196404">
            <path id="Path_1018325" data-name="Path 1018325" d="M115.156,156.333h-.007a6.063,6.063,0,0,1-4.888-2.469.859.859,0,0,0-1.389,0,6.064,6.064,0,0,1-4.888,2.469q-.1,0-.19,0a.683.683,0,0,0-.7.685v4.87a6.384,6.384,0,1,0,12.767,0v-4.865A.692.692,0,0,0,115.156,156.333Z" transform="translate(-103.09 -153.51)" fill="#f9c1a8"/>
          </g>
        </g>
        <g id="Group_1196407" data-name="Group 1196407" transform="translate(24.729 33.134)">
          <g id="Group_1196406" data-name="Group 1196406">
            <path id="Path_1018326" data-name="Path 1018326" d="M103.666,127.447A8.549,8.549,0,0,0,95.117,136v2.321a2.647,2.647,0,0,1,2.073-.552v-.037a.683.683,0,0,1,.7-.685q.094,0,.19,0a6.063,6.063,0,0,0,4.888-2.469.859.859,0,0,1,1.389,0,6.064,6.064,0,0,0,4.888,2.469h.007a.691.691,0,0,1,.7.686v.033a2.649,2.649,0,0,1,2.258.715V136a8.548,8.548,0,0,0-8.549-8.549Z" transform="translate(-95.117 -127.447)" fill="#414344"/>
          </g>
        </g>
        <g id="Group_1196409" data-name="Group 1196409" transform="translate(39.553 43.42)">
          <g id="Group_1196408" data-name="Group 1196408">
            <path id="Path_1018327" data-name="Path 1018327" d="M152.56,167.009a2.66,2.66,0,0,0-.41.033v4.833c0,.144-.007.286-.016.428a2.664,2.664,0,1,0,.426-5.293Z" transform="translate(-152.134 -167.009)" fill="#f9c1a8"/>
          </g>
        </g>
        <g id="Group_1196411" data-name="Group 1196411" transform="translate(23.727 43.42)">
          <g id="Group_1196410" data-name="Group 1196410">
            <path id="Path_1018328" data-name="Path 1018328" d="M94.337,171.874v-4.833a2.666,2.666,0,1,0,.016,5.261C94.344,172.161,94.337,172.018,94.337,171.874Z" transform="translate(-91.262 -167.009)" fill="#f9c1a8"/>
          </g>
        </g>
        <g id="Group_1196413" data-name="Group 1196413" transform="translate(20.249 53.897)">
          <g id="Group_1196412" data-name="Group 1196412">
            <path id="Path_1018329" data-name="Path 1018329" d="M103.695,214.785a2.519,2.519,0,0,0-1.9-2.3l-4.958-1.248-1.752-.864a2.205,2.205,0,0,1-1.23-1.978v-1.087a6.339,6.339,0,0,1-5.882.1v.991a2.205,2.205,0,0,1-1.23,1.978l-1.752.864-4.958,1.248a2.519,2.519,0,0,0-1.9,2.3l-.248,4.53h26.059Z" transform="translate(-77.884 -207.306)" fill="#f5c84c"/>
          </g>
        </g>
        <g id="Group_1196415" data-name="Group 1196415" transform="translate(28.832 53.897)">
          <g id="Group_1196414" data-name="Group 1196414">
            <path id="Path_1018330" data-name="Path 1018330" d="M119.515,210.371a2.205,2.205,0,0,1-1.23-1.978v-1.087a6.339,6.339,0,0,1-5.882.1v.991a2.205,2.205,0,0,1-1.23,1.978l-.275.136a4.991,4.991,0,0,0,8.893,0Z" transform="translate(-110.898 -207.306)" fill="#f9c1a8"/>
          </g>
        </g>
        <g id="Group_1196417" data-name="Group 1196417" transform="translate(41.47 62.003)">
          <g id="Group_1196416" data-name="Group 1196416">
            <path id="Path_1018331" data-name="Path 1018331" d="M160.158,238.487a.65.65,0,0,0-.65.65v3.185a.65.65,0,0,0,1.3,0v-3.185A.65.65,0,0,0,160.158,238.487Z" transform="translate(-159.508 -238.487)"/>
          </g>
        </g>
        <g id="Group_1196419" data-name="Group 1196419" transform="translate(23.787 62.003)">
          <g id="Group_1196418" data-name="Group 1196418">
            <path id="Path_1018332" data-name="Path 1018332" d="M92.142,238.487a.65.65,0,0,0-.65.65v3.185a.65.65,0,0,0,1.3,0v-3.185A.65.65,0,0,0,92.142,238.487Z" transform="translate(-91.492 -238.487)"/>
          </g>
        </g>
        <g id="Group_1196421" data-name="Group 1196421" transform="translate(39.025 42.77)">
          <g id="Group_1196420" data-name="Group 1196420">
            <path id="Path_1018333" data-name="Path 1018333" d="M151.057,164.509a3.228,3.228,0,0,0-.375.022.65.65,0,1,0,.15,1.291,1.946,1.946,0,0,1,.225-.014,2.015,2.015,0,0,1,0,4.031,1.809,1.809,0,0,1-.223-.015.65.65,0,1,0-.161,1.29,3.087,3.087,0,0,0,.385.025,3.315,3.315,0,1,0,0-6.63Z" transform="translate(-150.102 -164.509)"/>
          </g>
        </g>
        <g id="Group_1196423" data-name="Group 1196423" transform="translate(23.077 42.77)">
          <g id="Group_1196422" data-name="Group 1196422">
            <path id="Path_1018334" data-name="Path 1018334" d="M92.969,170.411a.649.649,0,0,0-.712-.581c-.059.006-.119.01-.179.01a2.015,2.015,0,0,1,0-4.031c.054,0,.107,0,.16.007a.65.65,0,0,0,.111-1.3c-.089-.008-.18-.012-.271-.012a3.315,3.315,0,0,0,0,6.63,2.977,2.977,0,0,0,.31-.016A.65.65,0,0,0,92.969,170.411Z" transform="translate(-88.763 -164.509)"/>
          </g>
        </g>
        <g id="Group_1196425" data-name="Group 1196425" transform="translate(19.598 53.46)">
          <g id="Group_1196424" data-name="Group 1196424">
            <path id="Path_1018335" data-name="Path 1018335" d="M102.492,213.506a3.156,3.156,0,0,0-2.391-2.9l-4.891-1.231-1.69-.834a1.545,1.545,0,0,1-.867-1.395v-.874a.65.65,0,0,0-1.3,0v.874a2.837,2.837,0,0,0,1.592,2.561l1.752.864a.664.664,0,0,0,.129.048l4.958,1.248a1.86,1.86,0,0,1,1.41,1.708l.211,3.845H76.719l.211-3.844a1.86,1.86,0,0,1,1.41-1.708l4.958-1.248a.649.649,0,0,0,.129-.048l1.752-.864a2.837,2.837,0,0,0,1.593-2.561v-.765a.65.65,0,1,0-1.3,0v.765a1.545,1.545,0,0,1-.867,1.395l-1.69.834-4.891,1.231a3.156,3.156,0,0,0-2.391,2.9l-.249,4.531a.65.65,0,0,0,.649.686h26.059a.65.65,0,0,0,.649-.685Z" transform="translate(-75.382 -205.626)"/>
          </g>
        </g>
        <g id="Group_1196427" data-name="Group 1196427" transform="translate(28.29 56.593)">
          <g id="Group_1196426" data-name="Group 1196426">
            <path id="Path_1018336" data-name="Path 1018336" d="M118.487,217.759a.65.65,0,0,0-.884.251,4.339,4.339,0,0,1-7.575.045.65.65,0,0,0-1.128.647,5.639,5.639,0,0,0,9.837-.059.651.651,0,0,0-.251-.884Z" transform="translate(-108.814 -217.677)"/>
          </g>
        </g>
        <g id="Group_1196429" data-name="Group 1196429" transform="translate(30.91 49.5)">
          <g id="Group_1196428" data-name="Group 1196428">
            <path id="Path_1018337" data-name="Path 1018337" d="M123.483,190.546a.65.65,0,0,0-.916.081,1.788,1.788,0,0,1-2.527,0,.65.65,0,0,0-1,.835,3.08,3.08,0,0,0,4.52,0A.65.65,0,0,0,123.483,190.546Z" transform="translate(-118.892 -190.395)"/>
          </g>
        </g>
        <g id="Group_1196431" data-name="Group 1196431" transform="translate(35.111 45.487)">
          <g id="Group_1196430" data-name="Group 1196430">
            <path id="Path_1018338" data-name="Path 1018338" d="M135.889,174.96a.84.84,0,1,0,.84.84A.84.84,0,0,0,135.889,174.96Z" transform="translate(-135.049 -174.96)"/>
          </g>
        </g>
        <g id="Group_1196433" data-name="Group 1196433" transform="translate(29.872 45.487)">
          <g id="Group_1196432" data-name="Group 1196432">
            <path id="Path_1018339" data-name="Path 1018339" d="M115.738,174.96a.84.84,0,1,0,.84.84A.84.84,0,0,0,115.738,174.96Z" transform="translate(-114.898 -174.96)"/>
          </g>
        </g>
        <g id="Group_1196435" data-name="Group 1196435" transform="translate(26.152 39.261)">
          <g id="Group_1196434" data-name="Group 1196434">
            <path id="Path_1018340" data-name="Path 1018340" d="M114.266,154.23a1.323,1.323,0,0,0-.961-.4,5.52,5.52,0,0,1-4.372-2.205,1.509,1.509,0,0,0-2.435,0,5.449,5.449,0,0,1-4.365,2.205l-.168,0a1.333,1.333,0,0,0-1.375,1.334v4.87a7.034,7.034,0,1,0,14.067,0V155.17a1.321,1.321,0,0,0-.39-.941Zm-.91,5.807a5.734,5.734,0,0,1-11.467,0v-4.87s0-.016.033-.035q.1,0,.211,0a6.755,6.755,0,0,0,5.411-2.733.21.21,0,0,1,.344,0,6.755,6.755,0,0,0,5.411,2.733h.008c.021,0,.034.008.05.037Z" transform="translate(-100.589 -151.012)"/>
          </g>
        </g>
        <g id="Group_1196437" data-name="Group 1196437" transform="translate(24.079 32.484)">
          <g id="Group_1196436" data-name="Group 1196436">
            <path id="Path_1018341" data-name="Path 1018341" d="M101.816,124.947a9.209,9.209,0,0,0-9.2,9.2v2.189a.65.65,0,0,0,1.3,0v-2.189a7.9,7.9,0,0,1,15.8,0v2.222a.65.65,0,0,0,1.3,0v-2.222A9.209,9.209,0,0,0,101.816,124.947Z" transform="translate(-92.617 -124.947)"/>
          </g>
        </g>
        <g id="Group_1196439" data-name="Group 1196439" transform="translate(25.806 6.538)">
          <g id="Group_1196438" data-name="Group 1196438">
            <path id="Path_1018342" data-name="Path 1018342" d="M112.873,26.239a4.237,4.237,0,0,0-5.861.176.4.4,0,0,1-.56,0,4.237,4.237,0,0,0-5.861-.176,4.172,4.172,0,0,0-.109,6l5.388,5.388a1.219,1.219,0,0,0,1.724,0l5.388-5.388A4.171,4.171,0,0,0,112.873,26.239Z" transform="translate(-99.261 -25.146)" fill="#fc657e"/>
          </g>
        </g>
        <g id="Group_1196442" data-name="Group 1196442" transform="translate(25.156 5.898)">
          <g id="Group_1196441" data-name="Group 1196441">
            <g id="Group_1196440" data-name="Group 1196440">
              <path id="Path_1018343" data-name="Path 1018343" d="M111.465,23.943a4.91,4.91,0,0,0-6.584.022,4.91,4.91,0,0,0-6.584-.022,4.821,4.821,0,0,0-.126,6.94l5.388,5.388a1.869,1.869,0,0,0,2.643,0l5.388-5.388a4.822,4.822,0,0,0-.126-6.94Zm-.793,6.021-5.388,5.388a.583.583,0,0,1-.8,0l-5.388-5.388a3.522,3.522,0,0,1,.093-5.07,3.449,3.449,0,0,1,2.362-.912,3.672,3.672,0,0,1,2.6,1.072,1.048,1.048,0,0,0,1.479,0,3.6,3.6,0,0,1,4.958-.16,3.523,3.523,0,0,1,.093,5.07Z" transform="translate(-96.759 -22.687)"/>
            </g>
          </g>
        </g>
        <g id="Group_1196444" data-name="Group 1196444" transform="translate(20.821 1.82)">
          <g id="Group_1196443" data-name="Group 1196443">
            <path id="Path_1018344" data-name="Path 1018344" d="M84.857,9.309a2.885,2.885,0,0,1-2.313-2.266.052.052,0,0,0-.1,0,2.885,2.885,0,0,1-2.313,2.266.051.051,0,0,0,0,.1,2.886,2.886,0,0,1,2.313,2.266.052.052,0,0,0,.1,0A2.886,2.886,0,0,1,84.857,9.41.051.051,0,0,0,84.857,9.309Z" transform="translate(-80.083 -7)" fill="#f5c84c"/>
          </g>
        </g>
        <g id="Group_1196446" data-name="Group 1196446" transform="translate(44.219 9.942)">
          <g id="Group_1196445" data-name="Group 1196445">
            <path id="Path_1018345" data-name="Path 1018345" d="M173.154,39.724a1.856,1.856,0,0,1-1.488-1.457.034.034,0,0,0-.066,0,1.855,1.855,0,0,1-1.488,1.457.033.033,0,0,0,0,.065,1.856,1.856,0,0,1,1.488,1.457.034.034,0,0,0,.066,0,1.855,1.855,0,0,1,1.488-1.457A.033.033,0,0,0,173.154,39.724Z" transform="translate(-170.084 -38.24)" fill="#70d6f9"/>
          </g>
        </g>
        <g id="Group_1196448" data-name="Group 1196448" transform="translate(0.786 17.371)">
          <g id="Group_1196447" data-name="Group 1196447">
            <path id="Path_1018346" data-name="Path 1018346" d="M6.7,68.242H6.093v-.606a.821.821,0,0,0-1.642,0v.606H3.846a.821.821,0,1,0,0,1.642h.606v.606a.821.821,0,0,0,1.642,0v-.606H6.7a.821.821,0,1,0,0-1.642Z" transform="translate(-3.025 -66.815)" fill="#fc657e"/>
          </g>
        </g>
        <g id="Group_1196450" data-name="Group 1196450" transform="translate(27.84 0)">
          <g id="Group_1196449" data-name="Group 1196449">
            <circle id="Ellipse_15149" data-name="Ellipse 15149" cx="0.878" cy="0.878" r="0.878" fill="#87d147"/>
          </g>
        </g>
        <g id="Group_1196452" data-name="Group 1196452" transform="translate(0 25.739)">
          <g id="Group_1196451" data-name="Group 1196451">
            <path id="Path_1018347" data-name="Path 1018347" d="M.878,99a.878.878,0,1,0,.878.878A.878.878,0,0,0,.878,99Z" transform="translate(0 -99)" fill="#f5c84c"/>
          </g>
        </g>
      </g>
    </g>
  </g>
</svg>
