<svg xmlns="http://www.w3.org/2000/svg" width="150" height="150" viewBox="0 0 150 150">
  <g id="img10" transform="translate(-383.746 -8400)">
    <circle id="Ellipse_13609" data-name="Ellipse 13609" cx="75" cy="75" r="75" transform="translate(383.746 8400)" fill="#b9c296"/>
    <g id="Group_1196544" data-name="Group 1196544" transform="translate(413.617 8438.56)">
      <g id="Group_1196543" data-name="Group 1196543" transform="translate(10.256 0.001)">
        <path id="Path_1018696" data-name="Path 1018696" d="M79.256,32,46.827.691a2.433,2.433,0,0,0-3.4,0L11,32a2.445,2.445,0,0,0,1.7,4.2h4.309V70.436a2.445,2.445,0,0,0,2.445,2.445H36.571a2.445,2.445,0,0,0,2.445-2.445V50.875H51.242V70.436a2.445,2.445,0,0,0,2.445,2.445H70.8a2.445,2.445,0,0,0,2.445-2.445V36.2h4.309a2.445,2.445,0,0,0,1.7-4.2ZM73.247,33.76A2.445,2.445,0,0,0,70.8,36.2V70.436H53.687V50.875a2.445,2.445,0,0,0-2.445-2.445H39.016a2.445,2.445,0,0,0-2.445,2.445V70.436H19.456V36.2a2.445,2.445,0,0,0-2.445-2.445H12.7L45.129,2.45,77.569,33.76H73.247Z" transform="translate(-10.256 -0.001)" fill="#4a4e3c"/>
      </g>
    </g>
  </g>
</svg>
