<svg xmlns="http://www.w3.org/2000/svg" width="150" height="150" viewBox="0 0 150 150">
  <g id="img10" transform="translate(-383.746 -8400)">
    <circle id="Ellipse_13609" data-name="Ellipse 13609" cx="75" cy="75" r="75" transform="translate(383.746 8400)" fill="#b9c296"/>
    <g id="Group_1197589" data-name="Group 1197589" transform="translate(415.741 8432.008)">
      <path id="Path_1020013" data-name="Path 1020013" d="M79.293,18.634,76.855,19.8A39.293,39.293,0,0,1,14.587,65.456l2.845-2.845a1.349,1.349,0,0,0,.339-1.355,1.363,1.363,0,0,0-1.03-.935l-9.579-1.91a1.379,1.379,0,0,0-1.219.366A1.353,1.353,0,0,0,5.577,60l1.91,9.579a1.363,1.363,0,0,0,.935,1.03,1.31,1.31,0,0,0,.393.054,1.364,1.364,0,0,0,.962-.393l2.9-2.9A41.88,41.88,0,0,0,41.4,78.72,42.55,42.55,0,0,0,71.1,66.432a42.09,42.09,0,0,0,8.21-47.812ZM9.642,66.567,8.626,61.459l5.108,1.016L9.655,66.554Z" transform="translate(1.612 6.245)" fill="#4a4e3c"/>
      <path id="Path_1020014" data-name="Path 1020014" d="M76.9,10.151a1.357,1.357,0,0,0-2.29-.691l-2.9,2.9A42,42,0,0,0,5.09,61.106l2.439-1.165A39.3,39.3,0,0,1,69.8,14.27l-2.845,2.845a1.349,1.349,0,0,0-.339,1.355,1.363,1.363,0,0,0,1.03.935l9.579,1.91a1.836,1.836,0,0,0,.271.027,1.364,1.364,0,0,0,.962-.393,1.327,1.327,0,0,0,.366-1.219l-1.91-9.579Zm-6.246,7.1,4.078-4.078,1.016,5.108-5.108-1.016Z" transform="translate(0)" fill="#4a4e3c"/>
      <path id="Path_1020015" data-name="Path 1020015" d="M11,51.29V54H67.9V51.29H61.223V43.716L66.25,38.69l-1.91-1.91-3.1,3.1V37.728h-2.71v2.154l-3.1-3.1-1.91,1.91,5.026,5.026V51.29h-2.8V47.225h-2.71V51.29H48.285V48.526a5.306,5.306,0,0,0,3.563-1.734,4.559,4.559,0,0,0,1.138-3.6,29.786,29.786,0,0,0-4.85-12.857l-.081-.122a1.411,1.411,0,0,0-2.249,0l-.081.122a29.658,29.658,0,0,0-4.85,12.857,4.559,4.559,0,0,0,1.138,3.6,5.335,5.335,0,0,0,3.563,1.734V51.29H36.769V30.967h3.793A6.485,6.485,0,0,0,42.7,18.354a7.358,7.358,0,0,0-14.578,0,6.485,6.485,0,0,0,2.141,12.613h3.793V51.29H27.285V48.323c2.357-.881,4.064-4.024,4.064-7.872,0-4.552-2.384-8.129-5.419-8.129a4.425,4.425,0,0,0-3.387,1.748,4.446,4.446,0,0,0-3.387-1.748c-3.035,0-5.419,3.577-5.419,8.129,0,3.848,1.707,6.991,4.064,7.872V51.29H11.027ZM44.017,45a1.859,1.859,0,0,1-.488-1.477A26.428,26.428,0,0,1,46.9,33.515a26.428,26.428,0,0,1,3.374,10.012A1.844,1.844,0,0,1,49.789,45a2.7,2.7,0,0,1-2.046.867h-1.68A2.7,2.7,0,0,1,44.017,45ZM30.238,28.258a3.779,3.779,0,0,1-.637-7.506,1.427,1.427,0,0,0,1.125-1.409,4.647,4.647,0,1,1,9.294.081,1.354,1.354,0,0,0,1.138,1.341,3.779,3.779,0,0,1-.637,7.506H36.728V25.792l3.333-1.734-1.246-2.412L36.728,22.73V20.142h-2.71V22.73l-2.086-1.084-1.246,2.412,3.333,1.734v2.479H30.225ZM25.9,35.032c1.274,0,2.71,2.317,2.71,5.419s-1.436,5.419-2.71,5.419-2.71-2.317-2.71-5.419S24.629,35.032,25.9,35.032Zm-3.387,11.8a4.978,4.978,0,0,0,2.032,1.49V51.29H20.484V48.336a5.033,5.033,0,0,0,2.032-1.49Zm-6.1-6.381c0-3.1,1.436-5.419,2.71-5.419.677,0,1.409.664,1.937,1.734a11.676,11.676,0,0,0-.583,3.685,11.3,11.3,0,0,0,.583,3.685c-.528,1.07-1.26,1.734-1.937,1.734C17.855,45.871,16.419,43.554,16.419,40.451Z" transform="translate(3.547 3.896)" fill="#4a4e3c"/>
    </g>
  </g>
</svg>
