<svg xmlns="http://www.w3.org/2000/svg" width="150" height="150" viewBox="0 0 150 150">
  <g id="img12" transform="translate(-383.746 -8400)">
    <circle id="Ellipse_13609" data-name="Ellipse 13609" cx="75" cy="75" r="75" transform="translate(383.746 8400)" fill="#b9c296"/>
    <g id="Group_1196553" data-name="Group 1196553" transform="translate(418.583 8433.475)">
      <path id="Path_1018707" data-name="Path 1018707" d="M79.07,8.765H72.637a5.022,5.022,0,0,0-9.724,0H44.372a4.393,4.393,0,0,0-8.419,0H17.413a5.022,5.022,0,0,0-9.724,0H1.255A1.256,1.256,0,0,0,0,10.02V77.795A1.256,1.256,0,0,0,1.255,79.05H79.07a1.256,1.256,0,0,0,1.255-1.255V10.02A1.256,1.256,0,0,0,79.07,8.765ZM2.51,35.122H17.571a1.256,1.256,0,0,0,1.255-1.255,2.51,2.51,0,1,1,5.02,0A1.256,1.256,0,0,0,25.1,35.122H56.034a4.393,4.393,0,0,0,8.419,0H77.815V53.948H40.163A1.256,1.256,0,0,0,38.908,55.2a2.51,2.51,0,0,1-5.02,0,1.256,1.256,0,0,0-1.255-1.255H2.51ZM8.786,11.275a1.256,1.256,0,0,0,1.255-1.255,2.51,2.51,0,1,1,5.02,0,1.256,1.256,0,0,0,1.255,1.255H37.025A1.256,1.256,0,0,0,38.28,10.02a1.883,1.883,0,1,1,3.765,0A1.256,1.256,0,0,0,43.3,11.275H64.009a1.256,1.256,0,0,0,1.255-1.255,2.51,2.51,0,1,1,5.02,0,1.256,1.256,0,0,0,1.255,1.255h6.275V32.612H63.382a1.256,1.256,0,0,0-1.255,1.255,1.883,1.883,0,0,1-3.765,0,1.256,1.256,0,0,0-1.255-1.255H26.2a5.022,5.022,0,0,0-9.724,0H2.51V11.275ZM2.51,76.54V56.458H31.535a5.022,5.022,0,0,0,9.724,0H77.815V76.54Z" transform="translate(0 0)" fill="#4a4e3c"/>
      <path id="Path_1018708" data-name="Path 1018708" d="M44.393,25.786a4.4,4.4,0,0,0,4.393-4.393,1.255,1.255,0,1,0-2.51,0,1.883,1.883,0,1,1-1.883-1.883,1.255,1.255,0,1,0,0-2.51,4.393,4.393,0,1,0,0,8.786Z" transform="translate(10.203 3.061)" fill="#4a4e3c"/>
      <path id="Path_1018709" data-name="Path 1018709" d="M17.393,33a1.255,1.255,0,0,0,0,2.51,1.883,1.883,0,1,1-1.883,1.883,1.255,1.255,0,0,0-2.51,0A4.393,4.393,0,1,0,17.393,33Z" transform="translate(3.316 7.142)" fill="#4a4e3c"/>
      <path id="Path_1018710" data-name="Path 1018710" d="M42.393,51a4.393,4.393,0,1,0,0,8.786,1.255,1.255,0,1,0,0-2.51,1.883,1.883,0,1,1,1.883-1.883,1.255,1.255,0,0,0,2.51,0A4.4,4.4,0,0,0,42.393,51Z" transform="translate(9.693 11.734)" fill="#4a4e3c"/>
      <path id="Path_1018711" data-name="Path 1018711" d="M17.951,53.1a1.255,1.255,0,0,0,1.775,1.775A1.255,1.255,0,0,1,21.5,56.654a1.255,1.255,0,1,0,1.775,1.775A3.765,3.765,0,1,0,17.951,53.1Z" transform="translate(4.485 11.99)" fill="#4a4e3c"/>
      <path id="Path_1018712" data-name="Path 1018712" d="M26.765,21.02a3.77,3.77,0,0,0,3.765-3.765,1.255,1.255,0,0,0-2.51,0,1.255,1.255,0,0,1-2.51,0,1.255,1.255,0,0,0-2.51,0A3.77,3.77,0,0,0,26.765,21.02Z" transform="translate(5.867 2.806)" fill="#4a4e3c"/>
      <path id="Path_1018713" data-name="Path 1018713" d="M44.99,41.795a1.255,1.255,0,0,0,.887-2.142,1.255,1.255,0,0,1,1.775-1.775A1.255,1.255,0,0,0,49.427,36.1,3.765,3.765,0,0,0,44.1,41.427a1.252,1.252,0,0,0,.887.368Z" transform="translate(10.969 7.653)" fill="#4a4e3c"/>
      <ellipse id="Ellipse_15158" data-name="Ellipse 15158" cx="1.5" cy="2" rx="1.5" ry="2" transform="translate(68.163 17.525)" fill="#4a4e3c"/>
      <ellipse id="Ellipse_15159" data-name="Ellipse 15159" cx="2" cy="1.5" rx="2" ry="1.5" transform="translate(37.163 40.525)" fill="#4a4e3c"/>
      <circle id="Ellipse_15160" data-name="Ellipse 15160" cx="2" cy="2" r="2" transform="translate(7.163 63.525)" fill="#4a4e3c"/>
      <ellipse id="Ellipse_15161" data-name="Ellipse 15161" cx="1.5" cy="2" rx="1.5" ry="2" transform="translate(68.163 61.525)" fill="#4a4e3c"/>
      <ellipse id="Ellipse_15162" data-name="Ellipse 15162" cx="1.5" cy="2" rx="1.5" ry="2" transform="translate(9.163 21.525)" fill="#4a4e3c"/>
    </g>
  </g>
</svg>
