<svg xmlns="http://www.w3.org/2000/svg" width="128" height="128" viewBox="0 0 128 128">
  <g id="img16" transform="translate(-72.746 -7992)">
    <g id="Ellipse_13628" data-name="Ellipse 13628" transform="translate(72.746 7992)" fill="#fef6ff" stroke="#9c3413" stroke-width="6">
      <circle cx="64" cy="64" r="64" stroke="none"/>
      <circle cx="64" cy="64" r="61" fill="none"/>
    </g>
    <g id="Group_1197711" data-name="Group 1197711" transform="translate(85.809 7984.555)">
      <path id="Path_1020359" data-name="Path 1020359" d="M36.659,272H55.293a4.659,4.659,0,0,1,4.659,4.659v16.3H32v-16.3A4.659,4.659,0,0,1,36.659,272Z" transform="translate(-13.673 -198.226)" fill="#2d85cc"/>
      <path id="Path_1020360" data-name="Path 1020360" d="M112,272h4.659v4.659H112Z" transform="translate(-82.026 -198.226)" fill="#f0c6a4"/>
      <path id="Path_1020361" data-name="Path 1020361" d="M305.846,51.964A16.039,16.039,0,0,0,295.14,48C286.778,48,280,54.06,280,61.535V74.883a5.776,5.776,0,0,0,5.823,5.727h18.634a5.776,5.776,0,0,0,5.823-5.727V61.535A12.818,12.818,0,0,0,305.846,51.964Z" transform="translate(-225.569 -6.835)" fill="#694435"/>
      <path id="Path_1020362" data-name="Path 1020362" d="M292.659,272h18.634a4.659,4.659,0,0,1,4.659,4.659v16.3H288v-16.3A4.659,4.659,0,0,1,292.659,272Z" transform="translate(-232.404 -198.226)" fill="#ed6f6d"/>
      <g id="Group_1197710" data-name="Group 1197710" transform="translate(54.431 57.47)">
        <path id="Path_1020363" data-name="Path 1020363" d="M368,272h4.659v4.659H368Z" transform="translate(-355.189 -255.695)" fill="#f0c6a4"/>
        <circle id="Ellipse_15184" data-name="Ellipse 15184" cx="3.494" cy="3.494" r="3.494" fill="#f0c6a4"/>
        <circle id="Ellipse_15185" data-name="Ellipse 15185" cx="3.494" cy="3.494" r="3.494" transform="translate(23.293)" fill="#f0c6a4"/>
      </g>
      <path id="Path_1020364" data-name="Path 1020364" d="M332.963,118.988s-6.988,0-8.152-6.988c0,0-2.329,6.988-12.811,6.988v5.823a10.482,10.482,0,0,0,20.963,0Z" transform="translate(-252.91 -61.518)" fill="#f7cca9"/>
      <path id="Path_1020365" data-name="Path 1020365" d="M49.846,52.125A15.681,15.681,0,0,0,39.14,48C30.778,48,24,54.305,24,62.084v3.25a5.892,5.892,0,0,0,5.823,5.959H48.457a5.892,5.892,0,0,0,5.823-5.959v-3.25a13.567,13.567,0,0,0-4.434-9.959Z" transform="translate(-6.837 -6.835)" fill="#694435"/>
      <circle id="Ellipse_15186" data-name="Ellipse 15186" cx="3.494" cy="3.494" r="3.494" transform="translate(17.163 58.634)" fill="#f0c6a4"/>
      <circle id="Ellipse_15187" data-name="Ellipse 15187" cx="3.494" cy="3.494" r="3.494" transform="translate(40.455 58.634)" fill="#f0c6a4"/>
      <path id="Path_1020366" data-name="Path 1020366" d="M76.963,120.152,72.3,112s-5.823,8.152-16.3,8.152v4.659a10.482,10.482,0,0,0,20.963,0Z" transform="translate(-34.179 -61.518)" fill="#f7cca9"/>
      <circle id="Ellipse_15188" data-name="Ellipse 15188" cx="2.329" cy="2.329" r="2.329" transform="translate(38.126 90.079)" fill="#f0c6a4"/>
      <circle id="Ellipse_15189" data-name="Ellipse 15189" cx="2.329" cy="2.329" r="2.329" transform="translate(59.09 90.079)" fill="#f0c6a4"/>
      <path id="Path_1020367" data-name="Path 1020367" d="M192.152,336h4.659a8.152,8.152,0,0,1,8.152,8.152,10.482,10.482,0,1,1-20.963,0A8.152,8.152,0,0,1,192.152,336Z" transform="translate(-143.545 -252.909)" fill="#f7cca9"/>
      <path id="Path_1020368" data-name="Path 1020368" d="M85.876,68.048V54.7a13.917,13.917,0,0,0-4.823-10.439A17.153,17.153,0,0,0,69.571,40c-8.991,0-16.3,6.595-16.3,14.7V68.048a6.872,6.872,0,0,0,3.323,5.864,5.813,5.813,0,0,0-2.158,4.521V82a9.346,9.346,0,0,0-1.165-.075H52.1V79.6a1.165,1.165,0,1,0-2.329,0v2.329H48.608A9.346,9.346,0,0,0,47.443,82V78.433A5.83,5.83,0,0,0,41.62,72.61H39.283a11.666,11.666,0,0,0,4.434-6.994q.116.006.233.006a4.656,4.656,0,0,0,4.528-5.754,7.317,7.317,0,0,0,.131-1.369V55.248A14.67,14.67,0,0,0,43.8,44.436,16.8,16.8,0,0,0,32.3,40C23.312,40,16,46.84,16,55.248V58.5a7.317,7.317,0,0,0,.131,1.369,4.656,4.656,0,0,0,4.528,5.754q.116,0,.233-.006a11.666,11.666,0,0,0,4.434,6.994H22.986a5.83,5.83,0,0,0-5.823,5.823v16.3A1.165,1.165,0,0,0,18.327,95.9H40.266a11.642,11.642,0,0,0,21.342,0H83.547a1.165,1.165,0,0,0,1.165-1.165v-16.3a5.813,5.813,0,0,0-2.158-4.521A6.872,6.872,0,0,0,85.876,68.048Zm-30.281,0V65a4.629,4.629,0,0,0,2.329.626c.078,0,.156,0,.233-.006a11.666,11.666,0,0,0,4.434,6.994H60.254A4.616,4.616,0,0,1,55.6,68.048Zm0-7.084a2.332,2.332,0,0,1,2.329-2.329v4.659A2.332,2.332,0,0,1,55.6,60.963ZM69.571,72.61a9.328,9.328,0,0,1-9.317-9.317V58.605a15.353,15.353,0,0,0,9.961-3.773,11.955,11.955,0,0,0,1.35-1.472,8.758,8.758,0,0,0,4.36,4.294,11.072,11.072,0,0,0,2.963.876v4.763a9.328,9.328,0,0,1-9.317,9.317Zm1.165,2.329v2.329H68.407V74.939ZM43.949,63.293V58.634a2.329,2.329,0,1,1,0,4.659Zm-23.293,0a2.329,2.329,0,1,1,0-4.659Zm.782-6.922a4.65,4.65,0,0,0-3.111.561V55.248c0-7.123,6.269-12.919,13.976-12.919a14.474,14.474,0,0,1,9.913,3.812,12.365,12.365,0,0,1,4.063,9.106v1.684a4.625,4.625,0,0,0-2.851-.6l-4.333-6.5a1.165,1.165,0,0,0-1.863-.1A21.172,21.172,0,0,1,21.821,56.3,1.159,1.159,0,0,0,21.438,56.371Zm1.548,6.922V58.6a23.58,23.58,0,0,0,14.972-6.274l3.662,5.493v5.471a9.317,9.317,0,0,1-18.634,0ZM33.468,74.939v2.329H31.138V74.939Zm5.823,18.634a1.165,1.165,0,1,1,0-2.329,11.656,11.656,0,0,0,.23,2.307,1.165,1.165,0,0,1-.23.022Zm.291-4.645c-.1-.008-.194-.014-.291-.014A3.493,3.493,0,0,0,36,93.573H19.492V78.433a3.5,3.5,0,0,1,3.494-3.494h5.823v3.494A1.165,1.165,0,0,0,29.974,79.6h4.659A1.165,1.165,0,0,0,35.8,78.433V74.939H41.62a3.5,3.5,0,0,1,3.494,3.494v3.594L43.538,80.45A1.165,1.165,0,0,0,41.89,82.1l1.46,1.46a9.348,9.348,0,0,0-3.768,5.371Zm11.355,11.633a9.328,9.328,0,0,1-9.317-9.317,7,7,0,0,1,6.988-6.988h4.659a7,7,0,0,1,6.988,6.988,9.328,9.328,0,0,1-9.317,9.317Zm11.646-6.988a1.165,1.165,0,0,1-.23-.023,11.652,11.652,0,0,0,.23-2.306,1.165,1.165,0,1,1,0,2.329Zm19.8,0H65.877a3.493,3.493,0,0,0-3.294-4.659c-.1,0-.195.005-.291.014a9.346,9.346,0,0,0-3.727-5.342L60.055,82.1a1.165,1.165,0,1,0-1.647-1.647L56.76,82.1V78.433a3.5,3.5,0,0,1,3.494-3.494h5.823v3.494A1.165,1.165,0,0,0,67.242,79.6H71.9a1.165,1.165,0,0,0,1.165-1.165V74.939h5.823a3.5,3.5,0,0,1,3.494,3.494Zm1.165-25.525a4.616,4.616,0,0,1-4.659,4.562H76.551a11.666,11.666,0,0,0,4.434-6.994c.077,0,.155.006.233.006A4.629,4.629,0,0,0,83.547,65Zm-2.329-4.755V58.634a2.329,2.329,0,1,1,0,4.659Zm2.329-6.361a4.65,4.65,0,0,0-3.111-.561,1.159,1.159,0,0,0-.383-.066,8.6,8.6,0,0,1-3.151-.766,6.617,6.617,0,0,1-3.852-5.248,1.163,1.163,0,0,0-2.251-.184c-.088.253-2.263,6.2-11.709,6.2a1.159,1.159,0,0,0-.383.066,4.65,4.65,0,0,0-3.111.561V54.7c0-6.821,6.269-12.371,13.976-12.371A14.829,14.829,0,0,1,79.5,46a11.619,11.619,0,0,1,4.046,8.7Z"/>
      <circle id="Ellipse_15190" data-name="Ellipse 15190" cx="1.165" cy="1.165" r="1.165" transform="translate(74.23 60.963)"/>
      <circle id="Ellipse_15191" data-name="Ellipse 15191" cx="1.165" cy="1.165" r="1.165" transform="translate(62.583 60.963)"/>
      <path id="Path_1020369" data-name="Path 1020369" d="M369.165,188.659h2.329a1.165,1.165,0,1,0,0-2.329h-1.165v-1.165a1.165,1.165,0,1,0-2.329,0v2.329A1.165,1.165,0,0,0,369.165,188.659Z" transform="translate(-300.758 -123.037)"/>
      <circle id="Ellipse_15192" data-name="Ellipse 15192" cx="1.165" cy="1.165" r="1.165" transform="translate(36.962 60.963)"/>
      <circle id="Ellipse_15193" data-name="Ellipse 15193" cx="1.165" cy="1.165" r="1.165" transform="translate(25.315 60.963)"/>
      <path id="Path_1020370" data-name="Path 1020370" d="M113.165,188.659h2.329a1.165,1.165,0,1,0,0-2.329h-1.165v-1.165a1.165,1.165,0,0,0-2.329,0v2.329A1.165,1.165,0,0,0,113.165,188.659Z" transform="translate(-82.026 -123.037)"/>
      <circle id="Ellipse_15194" data-name="Ellipse 15194" cx="1.165" cy="1.165" r="1.165" transform="translate(45.114 88.915)"/>
      <circle id="Ellipse_15195" data-name="Ellipse 15195" cx="1.165" cy="1.165" r="1.165" transform="translate(54.431 88.915)"/>
      <path id="Path_1020371" data-name="Path 1020371" d="M89.164,216a1.163,1.163,0,0,0-1.041,1.685h0l.015.028.006.012a6.964,6.964,0,0,0,11.359,0l.006-.012.015-.028h0a1.164,1.164,0,0,0-2.082-1.041h0l.008-.015a4.714,4.714,0,0,1-7.249,0l.008.015h0A1.163,1.163,0,0,0,89.164,216Z" transform="translate(-61.52 -150.378)"/>
      <path id="Path_1020372" data-name="Path 1020372" d="M354.483,216a1.163,1.163,0,0,0-1.041.644h0l.008-.015a4.714,4.714,0,0,1-7.25,0l.008.015h0a1.164,1.164,0,1,0-2.082,1.041h0l.015.028.006.012a6.964,6.964,0,0,0,11.359,0l.006-.012.015-.028h0A1.163,1.163,0,0,0,354.483,216Z" transform="translate(-280.253 -150.375)"/>
      <path id="Path_1020373" data-name="Path 1020373" d="M226.483,408a1.163,1.163,0,0,0-1.041.644h0l.008-.015a4.713,4.713,0,0,1-7.25,0l.008.015h0a1.164,1.164,0,1,0-2.082,1.041h0l.015.028.006.012a6.964,6.964,0,0,0,11.359,0l.006-.012.015-.028h0A1.163,1.163,0,0,0,226.483,408Z" transform="translate(-170.887 -314.427)"/>
    </g>
  </g>
</svg>
