<svg xmlns="http://www.w3.org/2000/svg" width="90" height="90" viewBox="0 0 90 90">
  <g id="img16" transform="translate(-1171 -5205)">
    <circle id="Ellipse_15175" data-name="Ellipse 15175" cx="45" cy="45" r="45" transform="translate(1171 5205)" fill="#fff"/>
    <g id="Group_1197613" data-name="Group 1197613" transform="translate(1181.513 5215.408)">
      <g id="Group_1197611" data-name="Group 1197611" transform="translate(1.01 1.015)">
        <path id="Path_1020098" data-name="Path 1020098" d="M81.366,35.607a11.25,11.25,0,0,0-7.225-10.5.537.537,0,0,1-.339-.591,11.115,11.115,0,0,0-15.924-11.8.538.538,0,0,1-.691-.186,11.112,11.112,0,0,0-18.594,0,.537.537,0,0,1-.691.186,11.048,11.048,0,0,0-4.25-1.148,8.45,8.45,0,0,1-1.254.242c-5.691.267-9.361,4.818-9.629,10.508A11.157,11.157,0,0,0,22.91,24.7a.537.537,0,0,1-.339.591A10.616,10.616,0,0,0,15.489,35.41,11.271,11.271,0,0,0,22.862,45.96a.537.537,0,0,1,.349.536l-.043.725A10.263,10.263,0,0,0,36.114,57.65a10.1,10.1,0,0,0,5.438-3.75,8.927,8.927,0,0,0,12.747.088c6.1,7.907,19.617,3.605,19.253-6.568l-.043-.725a.537.537,0,0,1,.35-.536A11.381,11.381,0,0,0,81.366,35.607Z" transform="translate(-14.413 -7.505)" fill="#d9f5f9"/>
        <path id="Path_1020099" data-name="Path 1020099" d="M29.2,83.6c-6.45,1.85-14.3-2.476-14.022-10.23l.043-.726a.538.538,0,0,0-.349-.536,11.241,11.241,0,0,1-.147-21.055.538.538,0,0,0,.338-.59A11.115,11.115,0,0,1,25.49,37.51a10.71,10.71,0,0,1,1.249.011,11.116,11.116,0,0,0-7.9,12.539.538.538,0,0,1-.338.59A11.241,11.241,0,0,0,18.645,71.7a.538.538,0,0,1,.349.536l-.043.726C18.724,79.245,23.827,83.275,29.2,83.6Z" transform="translate(-7.5 -33.457)" fill="#c6ebf4"/>
        <path id="Path_1020100" data-name="Path 1020100" d="M61.33,156l1.925,3.9a.488.488,0,0,0,.368.267l4.3.625a.488.488,0,0,1,.271.833l-3.114,3.035a.489.489,0,0,0-.141.432l.245,1.425.095,2.31a.488.488,0,0,1-.709.515l-3.428-1.674a.489.489,0,0,0-.455,0l-3.618,1.845a.488.488,0,0,1-.709-.515l.745-4.047a.488.488,0,0,0-.141-.432l-3.047-2.835a.488.488,0,0,1,.271-.833l2.085-.41,1.885-.274a.488.488,0,0,0,.368-.267l1.925-3.9A.488.488,0,0,1,61.33,156Z" transform="translate(-47.539 -135.761)" fill="#ffe077"/>
        <path id="Path_1020101" data-name="Path 1020101" d="M62.829,200.165l-3.85-2.023a.484.484,0,0,0-.454,0l-3.849,2.023a.489.489,0,0,1-.709-.516l.736-4.285a.487.487,0,0,0-.141-.432L51.449,191.9a.488.488,0,0,1,.271-.833l2.418-.352a6.641,6.641,0,0,0,8.909,6.078l.491,2.86A.489.489,0,0,1,62.829,200.165Z" transform="translate(-45.4 -166.031)" fill="#ffd05b"/>
        <path id="Path_1020102" data-name="Path 1020102" d="M373.893,176a4.176,4.176,0,0,0-4.1-4.26,4.1,4.1,0,0,0-3.04,1.343.269.269,0,0,1-.4,0,4.055,4.055,0,0,0-3.028-1.326q-.156,0-.31.014s-.536.127-.8.2a3.777,3.777,0,0,0-2.592,3.872c-.086,4.437,5.827,7.6,6.8,8.089a.265.265,0,0,0,.246,0c.286-.151,1.973-.885,1.973-.885C370.8,181.6,373.851,179.016,373.893,176Z" transform="translate(-312.194 -149.618)" fill="#ff7892"/>
        <path id="Path_1020103" data-name="Path 1020103" d="M365.94,183.255a21.776,21.776,0,0,1-1.966,1.187.266.266,0,0,1-.247,0c-.969-.493-7.311-3.892-7.223-8.329a4.232,4.232,0,0,1,3.81-4.138,4.27,4.27,0,0,0-1.385,3.06C358.847,179.225,364.492,182.488,365.94,183.255Z" transform="translate(-309.487 -149.819)" fill="#ff5f7a"/>
        <path id="Path_1020104" data-name="Path 1020104" d="M216.082,60.251a7.747,7.747,0,0,0-12.061-6.434s-.28.265-.445.4a7.451,7.451,0,0,0-2.661,6.029c0,4.278,3.071,7.126,7.349,7.126,1.987,0,3.84-.249,5.211-1.479.324-.291.927-.821.927-.821A7.714,7.714,0,0,0,216.082,60.251Z" transform="translate(-174.859 -46.443)" fill="#ccf49f"/>
        <path id="Path_1020105" data-name="Path 1020105" d="M212.312,73.5a7.747,7.747,0,1,1-10.381-11.251A7.747,7.747,0,0,0,212.312,73.5Z" transform="translate(-172.769 -54.871)" fill="#b3e59f"/>
        <g id="Group_1197610" data-name="Group 1197610" transform="translate(18.061 26.135)">
          <path id="Path_1020106" data-name="Path 1020106" d="M173.467,432.18a.539.539,0,0,0,.539-.539v-2.82a4.041,4.041,0,0,0-2.145-3.569l-8.813-4.332-8.53.166-8.805,4.527a4.041,4.041,0,0,0-2.16,3.577l-.128,2.164a.539.539,0,0,0,.539.539l1.5.288h6.71l6.415-.775,6.538.775Z" transform="translate(-143.175 -391.362)" fill="#ccf49f"/>
          <path id="Path_1020107" data-name="Path 1020107" d="M232.77,386.249l-.481,2.236.849,1.046.105.942a3.029,3.029,0,0,1-.633,2.25,4.758,4.758,0,0,1-3.944,1.638,4.869,4.869,0,0,1-3.754-1.418s.156-.39.1-.463a2.545,2.545,0,0,1-.649-2.034l.275-4.42Z" transform="translate(-213.189 -361.167)" fill="#d6995c"/>
          <path id="Path_1020108" data-name="Path 1020108" d="M153.293,423.642l-8.521,4.168a1.747,1.747,0,0,0-.912,1.537v3.34h-1.751a.539.539,0,0,1-.539-.539v-2.8a4.044,4.044,0,0,1,2.159-3.577l8.719-4.265.845.741A9.449,9.449,0,0,0,153.293,423.642Z" transform="translate(-141.57 -391.868)" fill="#b3e59f"/>
          <path id="Path_1020109" data-name="Path 1020109" d="M221.333,483.922V485.3H208.38v-1.374A1.616,1.616,0,0,1,210,482.3h9.72A1.616,1.616,0,0,1,221.333,483.922Z" transform="translate(-199.38 -444.477)" fill="#f0fbff"/>
          <path id="Path_1020110" data-name="Path 1020110" d="M168.374,306.594c-2.318,0-3.329.494-3.258,2.1a3.868,3.868,0,0,0,3.924,3.785H185.8a3.868,3.868,0,0,0,3.924-3.785c.07-1.607-.94-2.1-3.258-2.1Z" transform="translate(-161.941 -292.437)" fill="#d6995c"/>
          <path id="Path_1020111" data-name="Path 1020111" d="M231.389,389.529l-.368-3.282-8.134-.224-.546,4.447a3.064,3.064,0,0,0-.022.333,3.011,3.011,0,0,0,.655,1.918q.087.109.19.218l.743-.363a1.348,1.348,0,0,0,.752-1.1l.022-.279a.672.672,0,0,1,.775-.611,8.946,8.946,0,0,0,1.426.115A9.44,9.44,0,0,0,231.389,389.529Z" transform="translate(-211.441 -361.167)" fill="#ce8d57"/>
          <path id="Path_1020112" data-name="Path 1020112" d="M189.706,245.973l-.2-2.161,4.781-7.275,13.093,2.358v7.078c0,9.534-4.95,13.086-8.891,13.086C194.656,259.059,189.706,255.506,189.706,245.973Z" transform="translate(-183.052 -231.818)" fill="#e3a76f"/>
          <path id="Path_1020113" data-name="Path 1020113" d="M179.875,206.591A4.829,4.829,0,0,1,181.236,205c.355-.217,1.024-.585,1.024-.585a4.484,4.484,0,0,1,2.223-.1.537.537,0,0,0,.526-.177c2.709-3.253,6.731-3.07,9.915-1.706a8.3,8.3,0,0,1,4.807,10.9,11.57,11.57,0,0,1-1.25,2.328c-.015-.115,0-3.505-2.185-3.868-4.742-.787-8.72-1.984-9.989-3.144a.738.738,0,0,0-1.184.273,5.262,5.262,0,0,1-2.162,2.783,3.572,3.572,0,0,0-1.172,1.378l-.986,1.833S177.985,209.285,179.875,206.591Z" transform="translate(-174.15 -201.505)" fill="#6fbbc6"/>
          <path id="Path_1020114" data-name="Path 1020114" d="M177.553,231.8a12.135,12.135,0,0,0-.984,2.579c-2.189-2.243-3.111-6.542-1.221-9.235a4.944,4.944,0,0,1,2.675-2.007,5.158,5.158,0,0,0-.655.795C175.814,226.145,176.161,229.446,177.553,231.8Z" transform="translate(-169.914 -220.22)" fill="#61aab8"/>
        </g>
      </g>
      <g id="Group_1197612" data-name="Group 1197612" transform="translate(0 0.005)">
        <path id="Path_1020115" data-name="Path 1020115" d="M61.454,17.811A12.125,12.125,0,0,0,44.4,5.145a12.121,12.121,0,0,0-19.818,0A12.126,12.126,0,0,0,7.521,17.812,12.252,12.252,0,0,0,7.7,40.489a11.521,11.521,0,0,0,.676,4.773,1.01,1.01,0,0,0,1.888-.719A9.075,9.075,0,0,1,9.7,40.978l.067-1.119a1.011,1.011,0,0,0-.692-1.02,10.232,10.232,0,0,1-.092-19.421,1.01,1.01,0,0,0,.665-1.164A10.1,10.1,0,0,1,24.439,7.338a1.01,1.01,0,0,0,1.36-.366,10.1,10.1,0,0,1,17.376,0,1.011,1.011,0,0,0,1.36.366A10.106,10.106,0,0,1,59.328,18.254a1.011,1.011,0,0,0,.665,1.164,10.231,10.231,0,0,1,6.96,9.7,10.434,10.434,0,0,1-7.187,9.722,1.011,1.011,0,0,0-.692,1.019A9.13,9.13,0,0,1,53.7,49.616a9.9,9.9,0,0,1-10.409-1.244,5.036,5.036,0,0,0,4.573-4.855,2.8,2.8,0,0,0-.7-2.146,3.466,3.466,0,0,0-2.067-.92,8.8,8.8,0,0,0,.512-1.141,9.326,9.326,0,0,0-5.363-12.162c-4.272-1.83-8.3-1.161-10.9,1.773A5.847,5.847,0,0,0,23.673,31.5c-1.833,2.622-1.4,6.345.165,8.978a3.342,3.342,0,0,0-1.9.894,2.8,2.8,0,0,0-.7,2.146,4.96,4.96,0,0,0,4.583,4.8c-4.053,3.4-9.886,2.567-13.156-.337a1.01,1.01,0,1,0-1.342,1.511,12.844,12.844,0,0,0,8.323,3.1A11.642,11.642,0,0,0,26.7,50.279a10.805,10.805,0,0,0,2.6,3.182l-.313,2.686c-.02.01-8.189,3.99-8.229,4.012a5.039,5.039,0,0,0-2.7,4.471v3.339a1.01,1.01,0,0,0,2.021,0V64.629a3.023,3.023,0,0,1,1.607-2.676l7.524-3.668a3.927,3.927,0,0,0,.6,1.052,5.742,5.742,0,0,0,4.731,2.015,5.742,5.742,0,0,0,4.732-2.015,3.93,3.93,0,0,0,.6-1.047l4.331,2.131a1.01,1.01,0,1,0,.892-1.813l-5-2.459-.312-2.683a10.749,10.749,0,0,0,2.585-3.109,12.059,12.059,0,0,0,12.156,1.1,10.958,10.958,0,0,0,6.6-10.965,12.475,12.475,0,0,0,7.838-11.371,12.25,12.25,0,0,0-7.52-11.306ZM45.7,42.768a.926.926,0,0,1,.139.66,2.789,2.789,0,0,1-1.893,2.633,22.082,22.082,0,0,0,.441-3.652C45.227,42.471,45.569,42.63,45.7,42.768Zm-22.446.66a.926.926,0,0,1,.139-.66c.134-.141.483-.3,1.346-.362a22.122,22.122,0,0,0,.443,3.667,2.791,2.791,0,0,1-1.929-2.645ZM37.7,58.072a3.826,3.826,0,0,1-3.157,1.26,3.826,3.826,0,0,1-3.157-1.26,2.027,2.027,0,0,1-.416-1.5l.224-1.922a7.87,7.87,0,0,0,3.313.753,8.1,8.1,0,0,0,3.384-.76l.225,1.93a2.03,2.03,0,0,1-.417,1.5Zm-3.192-4.691c-3.727,0-7.736-3.744-7.774-11.957.288-1.1.982-2.806,1.657-3.2a6.109,6.109,0,0,0,2.445-2.938c2.317,1.734,8.35,2.844,10.211,3.153,1.143.19,1.313,2.228,1.338,2.848,0,.017,0,.032,0,.046C42.385,50.842,37.437,53.381,34.513,53.381Zm6.87-16.941c-5.324-.883-8.594-2.089-9.473-2.893a1.748,1.748,0,0,0-2.8.645,4.27,4.27,0,0,1-1.736,2.286,5.614,5.614,0,0,0-1.975,2.641c-1.046-2-1.3-4.7-.062-6.468l.012-.018a3.88,3.88,0,0,1,3.164-1.757,3.239,3.239,0,0,1,.926.133,1.01,1.01,0,0,0,1.089-.352c2.858-3.716,7.193-2.393,8.923-1.651a7.288,7.288,0,0,1,4.342,9.366,3.219,3.219,0,0,0-2.406-1.932Z" transform="translate(0 -0.005)"/>
        <path id="Path_1020116" data-name="Path 1020116" d="M47.074,164.184a1.49,1.49,0,0,0,1.578.114l3.606-1.9,3.606,1.9a1.5,1.5,0,0,0,2.175-1.58L57.35,158.7l2.917-2.844a1.5,1.5,0,0,0-.831-2.556l-4.032-.586-1.8-3.653a1.5,1.5,0,0,0-2.688,0l-1.8,3.653-4.032.586a1.5,1.5,0,0,0-.831,2.556l2.917,2.844-.689,4.016A1.489,1.489,0,0,0,47.074,164.184Zm-.657-9.034,3.256-.473a1.5,1.5,0,0,0,1.129-.82l1.457-2.951,1.456,2.951a1.5,1.5,0,0,0,1.129.82l3.257.473-2.357,2.3a1.5,1.5,0,0,0-.431,1.327l.556,3.244-2.913-1.532a1.5,1.5,0,0,0-1.395,0l-2.913,1.531.556-3.244a1.5,1.5,0,0,0-.431-1.327Z" transform="translate(-37.895 -128.26)"/>
        <path id="Path_1020117" data-name="Path 1020117" d="M364.193,171.811a1.01,1.01,0,0,0,1.258-.678,5.884,5.884,0,0,0,.253-1.606,5.214,5.214,0,0,0-1.507-3.755,5.056,5.056,0,0,0-6.839-.375,5.017,5.017,0,0,0-3.234-1.137A5.239,5.239,0,0,0,349,169.4c-.1,5.39,7.592,9.163,7.919,9.321a1.01,1.01,0,0,0,.891-.007,22.6,22.6,0,0,0,4.679-3.261,1.01,1.01,0,1,0-1.373-1.482,20.741,20.741,0,0,1-3.771,2.7c-2.135-1.138-6.386-4.065-6.324-7.231a3.11,3.11,0,0,1,5.545-1.986,1.011,1.011,0,0,0,.792.384h0a1.01,1.01,0,0,0,.792-.383,3.292,3.292,0,0,1,2.445-1.194,3.031,3.031,0,0,1,2.161.925,3.208,3.208,0,0,1,.927,2.31,3.866,3.866,0,0,1-.168,1.054,1.011,1.011,0,0,0,.677,1.258Z" transform="translate(-301.985 -142.118)"/>
        <path id="Path_1020118" data-name="Path 1020118" d="M193.381,54.527a1.01,1.01,0,1,0-2.008.227,8.755,8.755,0,1,0,1-5.168,1.01,1.01,0,0,0,1.776.965,6.737,6.737,0,1,1-.769,3.977Z" transform="translate(-165.587 -38.942)"/>
        <path id="Path_1020119" data-name="Path 1020119" d="M237.216,77.314a1.01,1.01,0,0,0-.651,1.913,6.286,6.286,0,0,0,1.015.257v.27a1.01,1.01,0,0,0,2.021,0v-.421a2.59,2.59,0,0,0,1.559-1.575,2.5,2.5,0,0,0-1.534-3.205,8.58,8.58,0,0,0-.9-.256,1.621,1.621,0,0,1-.617-.215.387.387,0,0,1-.148-.376.505.505,0,0,1,.3-.393.973.973,0,0,1,.973.159,1.01,1.01,0,0,0,1.338-1.515,3.177,3.177,0,0,0-.969-.561v-.38a1.01,1.01,0,1,0-2.021,0v.392a2.653,2.653,0,0,0-1.62,2.014,2.412,2.412,0,0,0,.875,2.228,3.256,3.256,0,0,0,1.419.611,6.667,6.667,0,0,1,.7.2.492.492,0,0,1,.3.637c-.141.406-.824.63-2.035.219Z" transform="translate(-204.104 -60.576)"/>
        <path id="Path_1020120" data-name="Path 1020120" d="M354.9,451.595a1.01,1.01,0,0,0-.031,1.429,3.018,3.018,0,0,1,.842,2.1v3.359a1.01,1.01,0,0,0,2.021,0V455.12a5.03,5.03,0,0,0-1.4-3.495A1.01,1.01,0,0,0,354.9,451.595Z" transform="translate(-306.82 -390.516)"/>
        <path id="Path_1020121" data-name="Path 1020121" d="M213.223,474.8H203.5a2.63,2.63,0,0,0-2.627,2.627V478.8a1.01,1.01,0,1,0,2.021,0V477.43a.607.607,0,0,1,.606-.606h9.721a.607.607,0,0,1,.606.606V478.8a1.01,1.01,0,1,0,2.021,0V477.43A2.63,2.63,0,0,0,213.223,474.8Z" transform="translate(-173.814 -410.841)"/>
      </g>
    </g>
  </g>
</svg>
