<svg xmlns="http://www.w3.org/2000/svg" width="396" height="170" viewBox="0 0 396 170">
  <g id="img11" transform="translate(-1017 -4015)">
    <rect id="Rectangle_461513" data-name="Rectangle 461513" width="396" height="170" transform="translate(1017 4015)" fill="#b9c296"/>
    <g id="Group_1188292" data-name="Group 1188292" transform="translate(-188.079 2853.229)">
      <path id="Path_1012429" data-name="Path 1012429" d="M1524.765,1305.222l.019-.011.62-.5-.638.515Zm-13.053-3.558-.737.217.737-.215.555-.371Zm-6.573-1.226-1.5-.748,1.5.752,1.439.614-1.439-.618Zm-190.472,6.394-.413-.194.413.2.47.146-.47-.147Zm-5.562-21.009c.015.022.03.047.043.069l.093-.1.037-.009Zm-16.163,3.519-2.468.713,2.468-.711,5.089-1.286Zm-15.669,16.26.792.54.021.011-.812-.551Zm-2.028-1.612.493.467.013.009Zm-1.111-1.419.112.2.005.006Zm-.414-.906-.112-.482.108.478.1.245-.1-.241Zm238.625-2.522-.164-.609-.51-.917-.721-.928-4.085-4.618-3.487-4.682-3.386-4.759-.383-.5-.381-.4-.386-.3-.383-.2-.4-.1-.437-.005-.474.073-.545.164-1.2.575-1.279.877-.05.093.032.1,0,.006,1.085,1.111.082.065.926.575.9.653.872.73.842.81,3.618,3.773,1.122,1.689.441.814.355.782.25.724.149.65.054.59-.047.551-.246.713-.237.385-.308.347-.373.314-.444.278-.071.1.036.119.03.024,1.488.8,1.525.7,1.395.526.007,0,1.271.357.945.144.1.017.9-.011.259-.069.48-.131.094-.05.2-.108.248-.211.015-.015.218-.392.1-.575-.039-.67Zm-8.239-4.311-.274-.752-.543-1.113-.6-1.036-.665-.954-.724-.872-1.357-1.424-1.393-1.327-1.424-1.23-1.465-1.133-.086.037,0,.022.36,1.04.88,2.626.476,1.829.237,1.331.172,1.389.106,1.447.043,1.508.078.246.2.164,4.252,1.8.213.034.2-.071.457-.355.375-.386.288-.412.2-.444.134-.607v-.657l-.138-.7Zm-6.7.555-.164-2.009-.3-1.983-.383-1.755-.489-1.738-.582-1.643-.6-1.322-.59-.946-.287-.332-.3-.252-.159-.069h-.173l-2.147.364-1.421.159-5.448.422-3.377.284-2.289.129-.314.078-1.1.435-1.343.317-4.529.773-4.449.7-4.37.623-4.292.547-1.2.069-1.523-.041-.252.03-.226.119-3.222,2.548-.114.024-.092-.073-.009-.03-.009-.069.03-.185.118-.147,3.069-2.305.048-.056.1-.22.108-.112.151-.028.59.063,1.69.011,2.324-.245,1.374-.168,3.728-.5,10.417-1.723,1.548-.381.594-.218.476-.243,1.536-1.038,1.874-1.469.719-.642v0l.719-.749.715-.849.719-.959.543-.8.9-1.52.788-1.592.674-1.669.56-1.74.009-.287-.12-.129-.173,0-.013.006-1.856.834-1.884.7-1.908.556-1.932.416-1.493.224-1.51.142-1.523.06-1.54-.021-3.51-.235-1.422-.17-1.2-.209-9.321-1.9-.2-.017-7.034.1-.33.086-4.15,2.423-4.058,2.626-3.962,2.821-3.866,3.026-1.1.967-.874.913-1.731,2.117-.726,1.343-.526,1.348-.328,1.352-.136,1.355.024.932.114.931.207.937.3.939.33.78.386.734.592.881.678.8.79.745.862.663.984.609,1.042.517,1.137.446,1.178.351,2.257.506,2.373.386,2.477.267,2.589.146,4.128.067,4.169-.078,4.213-.217,4.258-.359,5.124-.416,5.354-.437,4.891-.444,4.531-.4,3.3-.347,4.628-.47,4.678-.334.254-.112.118-.252.106-2.059-.03-2.035Zm-47.428-24.415-.06-.045-.114-.063-.465-.133-.472.1-3.162,1.458-2.9,1.111-.4.048-.26-.08-.3-.192-.293-.188-.252-.075-.179.006-.808.172-.48.275-.515.377-1.221,1.133-.857.782-.9.666-.941.558-.986.442-1.323.407-2.236.4-.569.131-.517.189-.861.495-.8.709-.776.937-1.014,1.486-.261.4-.683.665-.17.118-.194.056h-.364l-.3-.1-.33-.31-.22-.508-.024-.047-.127-.063-.121.069-.362.456-.409.371-.388.222-.336.06-.456-.127-.295-.26-.261-.435-.075-.14-.1-.093-.135-.011-.407.067-.34,0-.295-.069-.226-.138-.179-.248-.093-.327-.011-.433.065-.506-.024-.127-.1-.075-.005,0-.11.015-.076.084-.469,1.391-.37,1.284-.267,1.185-.166,1.081-.063.891.011.872.088.849.164.836.3.991.414.965.051.077,1.632,1.908.1.06.474.256.7.631.424.308,1.744.762,1.794.547,1,.211,1.016.144,1.029.08,1.045.019.073-.034.017-.075,0-.015-.36-1.141-.248-1.139-.14-1.135-.03-1.135.011-.347.069-.653.327-1.275.435-1.187.542-1.092.646-1,.594-.743.769-.849,2.07-2.027,2.072-1.757,2.464-1.785,1.253-.847,5.6-3.732,4.167-2.572.03-.017.14-.213-.08-.243Zm-8.558.67-.021-.039-1.471-2.173-1.24-1.648-1.161-1.32-1.129-1.046-.194-.065-.188.08-2.027,1.914-.534.437-.536.351-.624.312-.715.258-2.108.487-.129.024-4.6,1.163-.687.248-.728.407-.719.536-.734.678-.75.833-.728.933-.689,1.034-.581,1.017-.47,1.214-.556,1.982-.024.237.047.233.114.209.172.168.011.009.049.03.17.05.181-.024.151-.1.1-.149.937-2.244.9-1.661.486-.713.5-.624.54-.562.6-.515.138-.054.147.034.1.06.03.021.084.17-.075.176-.989,1-.863,1.094-.581.913-.5.967-.426,1.021-.347,1.075-.084.42-.019.416.045.4.1.4.144.185.226.064.287-.058.224-.131.179-.231,1.029-2.4.407-.818.586-.9.764-.982.945-1.07.017-.019.246-.084.228.127.011.017.078.261-.118.243-1.156,1.243-.958,1.365-.612,1.144-.487,1.215-.153.539-.078.482v.431l.078.379.078.135.129.089.155.026.149-.039.048-.03.541-.469.485-.579.461-.717.523-1,.734-1.339.586-.8.631-.694.528-.427.426-.183.125.015.1.073.054.116-.005.125-.06.1-1.055,1.143-.752.969-.581.965-.418,1-.252.952,0,.17.089.217.181.153.23.05.228-.06.351-.243.388-.459,1.219-1.77.584-.713.579-.614.568-.5.543-.386.526-.276.536-.174.926-.194,2.141-.48,1.432-.448,1.415-.642.62-.478,1.268-1.133.911-.793.773-.575.715-.416.689-.282.2-.181-.006-.271Zm-62.247,23.984-.187-.077-9.583-.017-.187.077-.078.187-.015,8.7.076.187.187.077,9.582.017.187-.077.078-.187.015-8.7-.077-.187Zm-16.093,1.22-.056-.133-.133-.054-7.331-.146-.129.052-.011,0-.017.043-.037.1.218,8.264.056.133.024.009.108.045,7.331.146.129-.047.021-.039.03-.05.015-.028v-.032l-.218-8.266Zm-19.239,3.965-.239-1.224-.364-1.307-.484-1.408-.672-1.69,0-.293.045-.168-.028-.134-.209-.144-3.323-.874-2.75-.53-1.243-.151-1.17-.08-1.126,0-1.043.067-3.4.414-3.554.545-.121.071-.036.136.127.541.254.61.4.713.6.9.138.2.164.123.207-.006,1.294-.6.7-.226.9-.075,1.12.067,1.674.224.153.024.149.092.036.172,0,.011,0,.019-.119.159-.194.026-1.232-.248-1.23-.1-1.185.049-1.189.189-.2.088-.153.151-.069.188.024.187.05.08.306.2.446.31.5.485,1.236,1.536.778.683.054.125-.077.112-.064.015-.375-.1-.185-.168-1.357-1.6-1.374-1.35-.1-.172-.1-.17-.144-.058-.205.015-.091.077,0,.119.019.026.069.461.06,1.225.308,1.393.887,2.888v0l-.009.078-.063.05-.086.024-.17-.015-.114-.125-.48-1.421-.366-1.419-.254-1.422-.142-1.422-.045-.173-.1-.147-.149-.1-.177-.039-1.764-.138-1.645-.252-1.523-.373-1.4-.489-.176-.032-.032.006-.142.026-.786.362-.732.426-.664.485-.6.54-.541.6-.465.65-.386.691-.3.732-.286,1.085-.11,1.141.069,1.15.254,1.184.149.275.56.56.465.246,6.246,1.374,2.755.566,2.727.476,2.7.381,2.681.291,1.536.108,1.383.021,1.245-.067,1.156-.151,1.07-.243.98-.332.933-.435.842-.519.446-.334.343-.345,1.456-1.839.153-.282.248-.967.125-1.042,0-1.085-.119-1.146Zm-26.022-5.13-1.256-1.111-.508-.36-.431-.228-.3-.1-.444-.084-.442-.013-.47.06-.463.129-.489.211-.461.265-.456.336-.411.377-.711.778-.881.952-.734.648-1.081.67-1.863.881-2.19,1.042-.745.435-.616.431-.515.456-.377.448-.261.47-.153.506-.026.454.047.323.114.275.174.235.226.19.622.286.881.149,1.057,0,3.657-.3,4.422-.465.1-.056v0l.039-.11.045-1.357.211-1.255.377-1.15.542-1.047.689-.926.853-.827,1.01-.724,1.169-.625.022-.015.069-.118-.047-.125Zm7.117,1.159-.327-.545-.655-1.2-.187-.508-.1-.485-.015-.069-.1-.2-.177-.134-.219-.054-.218.045-4.049,1.745-.064.045-.047.174.12.138,1.392.459,1.449.359,1.512.258,1.574.159.106-.045.028-.11-.015-.036Zm-3.791-50.08-2.373-1.57-.024,0-.006.009-.017.219.161.3.317.342.426.327.073.049.467.263.437.159.345.03.194-.1.006-.007-.006-.024Zm24.231,9.253-.116-.084-.112.086-.047.207.05.207.114.086.114-.088.045-.207-.049-.207Zm69.444,1.137-.172-1.734-.286-1.686-.4-1.632-.157-.222-.258-.078-1.309-.045-.551-.108-.482-.16-3.448-1.417-1.311-.422-.491-.093-.379-.011-1.092.151-1.161.267-1.234.381-1.3.495-.986.463-.685.446-.094.134,0,.162.2.47.28.317.261.147.308.084.823-.013,1.605-.312,1.59-.491.219-.041.222.03.2.1.159.155.138.192,1.137,1.491.461.485.461.4.506.349.584.327.1.164-.1.162-.114.019-.416-.114-.411-.2-.407-.276-.4-.357-1.975-2.255-.176-.11h-.209l-1.8.5-1.471.3-.54.045-.472-.036-.405-.123-.338-.2-.358-.435-.226-.6-.077-.127-.138-.05-.853.021-.816.1-.781.189-.743.276-.639.317-.61.386-.063.056-.1.159-.015.187.065.174.133.129.344.179.511.172.554.075,1.7.075,3.2.2,1.133.17,1.032.246.166.129.032.205v.009l-.116.168-.2.034h0l-2.391-.45-1.105-.119-1.014-.048-.877.03-.749.1-.648.183-.487.243-.054.043-.09.136-.024.162.047.155.108.121.431.224.515.11,7.064.657.189.086.088.192v.011l-.058.153-.151.06-.024,0-1.684-.205-1.464.005-.668.08-.586.133-.543.183-.5.245-.129.12-.06.166.019.176.093.147.084.063.03.015.6.215.691.054,1.262-.086,2.012-.129,1.443.017.739.149,1.318.371,1.335.217,1.327.06,1.344-.093,1.372-.233,2.091-.327.842-.039.81.037.1-.037.049-.1v-.006l-.06-1.785Zm-12.622-7.557-.037-.017-.95-.112-.95-.05-1.043.019-1.046.1-1.049.168-1.047.243-.9.321-.683.422-.09.19.09.192.541.323.689.188.866.058,1.215-.058.639-.041.3-.114.709-.487.806-.444.907-.4,1.006-.36.05-.06-.024-.073Zm45.01-42.269-.192-.211-.424-.552-.381-.624-.347-.724-.4-.984-.411-1.012-.1-.108-.144-.022-.75.089-.668-.028-.555-.14-.476-.261-.323-.295v0l-.267-.379-.215-.465-.157-.554-.069-.1-.119-.026-1.161.183-.179-.052-.077-.17,0-.039.005-.024.114-.194.207-.088.556-.08.51-.149.482-.231.422-.3.441-.442.345-.515.25-.6.142-.644.024-.651-.093-.663-.2-.625-.308-.6-.392-.478-.485-.342-.54-.181h-.56l-.472.161-.446.317-.62.7-.678,1.01-.4.61-.092.1-.181.086-.2-.009-.181-.1-.116-.168-3.851-9.838-.129-.134-.187,0-2.533.92-2.362.691-2.259.48-2.244.284-2.505.093-.183.073-.08.176.006,1.594.149,1.79.287,2,.441,2.255.183,1.075.022.8-.056.495-.138.661-.219.7-.8,1.88-.177.381-.048.213.039.217.127.181v0l.185.116.039.011,1.9.549.336.192.209.323,1.107,2.9,1.253,2.75.407.7.461.575.515.456.571.33.678.218.743.077.8-.065.87-.207,1.964-.67,1.368-.616.833-.5.784-.541.737-.6.685-.642.838-.933.752-1.021.123-.094.125,0,.112.063.06.114-.009.129-.674,1.5-.9,1.514-1.131,1.553-1.451,1.708-.166.349.045.384,2.02,4.69.032.056.134.142.176.069.2-.01.17-.089,1.835-1.639,1.729-1.736,1.661-1.893,1.55-2,1.43-2.108,1.318-2.214.03-.153-.065-.136Zm1.9-19.312-.228-1.333-.386-1.221-.556-1.141-.7-1.01-.5-.554-.564-.515-.609-.452-.625-.357-.64-.258-.659-.159-.521-.056-.209-.067-.153-.159-.777-1.131-.928-.95-.838-.62-.937-.51-1.03-.394-1.126-.286-.325-.056-1.443-.119-1.932.069-1.1.06-.357.05-1.5.321-1.839.418-4.557,1.238-1.5.254-1.23.05-2.979-.161-.209.08-.082.209,0,.028.1.416.159.4.5.821.752.808.892.68.114.119.045.159-.035.162-.106.125v0l-.112.052-1.529.465-1.3.5-.887.469-.082.062-.217.164-.209.224-.09.308.052.525.114.476.181.461.239.414.457.536.569.433.7.345.782.237.946.086,1.676-.009,1.667-.086,1.648-.177,1.622-.263,1.6-.353,1.99-.568,1.951-.706,1.917-.846,1.884-.984.157-.024.13.086.01.023.011.188-.122.14-2.4,1.21-.1.119.007.159,1.016,2.253.946,2.309.875,2.36.808,2.414.075.131.119.091.147.032.146-.026.028-.013.135-.173.784-1.144.674-.745.358-.276.364-.194.388-.129.39-.045.582.08.558.25.53.416.463.562.411.754.232.786.05.577-.039.594-.131.609-.222.625-.222.411-.344.456-1.055,1.06-.069.106-.009.127.127.463.174.392.228.327.278.261.4.222.474.121.547.024.62-.075.286-.08.205-.127.219-.269.207-.476,2.854-7.829.431-1.482.267-1.477.1-1.479-.063-1.411Zm17.464,45.147-.077-.123-.067.131-.013.306.045.3.078.123.065-.131.015-.306-.047-.3Zm-70.109,61.207-.724.306.724-.3.446-.289-.446.287Zm-15.424.557-.045.138.058-.146-.013.007Zm16.635-9.986-.011-.009-.144-.11-.009-.007-.015.007h0l-.175.062-.629.715-.054.142v7.589l.088.159v0l.011.019.022,0,.174.017h.011l.071-.056v0l.629-.715.054-.14v-7.587l-.019-.086Zm-2.221,10.189-.078-.077h-.3l-.078.078.03,8.649.079.078.3,0,.077-.077Zm-.884-.479-9.582-.166-.086.082-.005.318.084.084,9.58.168.086-.082.006-.317-.082-.086Zm-.059,1.07-.088-.205-.207-.086-9.349.048-.207.088-.086.207.049,9.159.088.207.207.086,9.349-.05.207-.086.084-.209-.047-9.159Zm-13.773-.654-.015-.007-.073-.037-.007,0-.039-.019h-.011l-.51-.015-.129.05-.019.007-.011.026-.05.118-.138,5.666.006,1.025.063.868.114.584.071.153.075.052.127,0,.077-.048.078-.151.144-.575.108-.866.054-1.021.138-5.67-.052-.14Zm-3.185-1.243-.047-.08-.088-.03-5.328-.049-.071.019-1.749,1.012-.069.114.011.026.01.024.019.049.1.043,7.275.065.106-.05.028-.114-.2-1.029Zm-20.9,1.046,0,0-2.944-2.864-.287-.123-.293.1-.153.133-1.544,1.258-1.217.754-1.264.524-.644.174-.687.116-1.57.082-1.794-.133-1.844-.323-.127.034-.045.121.015.048.657,1.333.545,1.357.437,1.374.329,1.4.058.308.119.975.019,1.012-.084,1.049-.183,1.083,0,.2.082.187.146.14.189.069.034,0,1.348.108,0,0,.043.084.106,0,2.821.056,1.927-.1.866-.123.784-.172.749-.224.737-.291.976-.506.09-.089.03-.123-.2-7.322.091-.306.248-.194.743-.368.694-.543.062-.14-.056-.147Zm8.5-.258-.071-.067-.039-.037h-.022l-6.3-.056-.071.021-2.393,1.378-.071.123.009.022.013.032v0l.019.045.1.045,6.989.06.089-.032,1.708-1.383.043-.138v0l0-.006,0,0Zm.654.409-.011-.043-.028-.021h0l-.022-.017-.011-.007-.071.019-2.141,1.736,0,0-.03.069.218,8.16.03.063h.017l.11-.005,2.119-2.412.024-.062-.2-7.484Zm30.323-9.411-.037-.09-.089-.035-7.693-.073-.024,0-.039.022-.009.006-.022.013-.005,0-.03.084.045,8.431.022.063,0,.013.1.048,7.693.069.093-.039.039-.093-.045-8.427Zm1.289-1.341v-.01l-.069-.06-7.366.078-.067.062,0,0v.006l0,.4.183.1.513.084,1.68.063,2.755-.03,1.68-.1.511-.093.181-.106,0-.4Zm-12.43.984-.071-.065-6.73.175-.064.067,0,.005.215,8.3.067.465.061.14.073.049,6.5-.172.069-.05.058-.144.039-.467-.217-8.306Zm-4.639-1.164-.08-.063-.237.028-.75.12-.629.161-.411.175-.133.161.007.054.166.125.441.073.65,0,.756-.063.239-.028.064-.08-.082-.664Zm7.286,1.146-.056-.133-.135-.054-1.622.017-.133.056-.054.135.089,8.583.056.133.134.054,1.622-.019.135-.056.052-.135-.09-8.582Zm-26.053.045-.089.022.089-.021.683.1Zm-.319-3.265-.287-.134-.974-.237-1-.09-.316.034-.121.08,0,0,.092.116.288.133.974.239,1,.088.316-.034.121-.08-.089-.116Zm9.784-13.038-.056-.483-.129-.437-.188-.344-.265-.276-.308-.185-.379-.112-5.32-.9-2.231-.474-.745-.218-.5-.213-2.4-1.324-.459-.332-1.475-1.318-1.581-1.31-1.688-1.3-1.787-1.294-.758-.478-1.012-.56-.881-.485-1.441-.778-1.126-.495-.116.009-.067.1,0,.024.011,2.363-.11.407-.306.289-.556.235-.683.159-.743.071-.844-.009-.92-.089-.967-.17-1.008-.252-.946-.308-1.055-.435-.767-.457-.523-.5-.31-.573-.082-.377,0-.416-.05-.134-.138-.039-.043.013-1.574.863-1.361.952-1.137,1.038-.92,1.133-.706,1.087-.618,1.066-.68,1.363-.616,1.465-.59,1.646-.674,2.126-2.711,8.544-1.329,3.911-1.312,3.672-.51,1.648-.136.691-.058.6.011.659.073.624.243.963.4.976.571,1.036.95,1.466.123.185.164.138.213.024.8-.147,3.112-.538,2.231-.3,1.956-.138,1.772.028,1.473.146,1.624.263,1.8.377,2.382.575,2.057.5,1.129.209,1.081.118,1.06.022.991-.067.952-.168.868-.252.82-.345.782-.452.808-.62,1.581-1.365.088-.078.02-.114-.207-1.51-.08-.19-1.146-1.415-.1-.047-.1.051-.015.026-.22.386v0l-.272.233-.293.106-.327.024-.946-.188-2.95-.9-2.787-1-2.632-1.1-2.474-1.21-1.367-.806-1.24-.907-1.1-1.01-.976-1.111-.491-.665-1.2-1.919-1.12-2.126-1.03-2.333-.943-2.539.009-.166.119-.114.088-.032.011,0,.183.013.116.144.652,1.958.8,1.94.941,1.923,1.09,1.9,1.085,1.557,1.219,1.357,1.18,1.027,1.331.926,1.555.874,1.85.866,3.7,1.482,3.993,1.366.2.062.894.232h.3l.269-.078.261-.2.224-.338,1.585-3.047,1.658-2.862.075-.2-.006-.213-.084-.192-.149-.149-5.07-3.508-2.315-1.706-2.167-1.674-.164-.205-2.134-4.424-2.063-4-.551-.956-.581-.855-.623-.767-.639-.648-.674-.551-.676-.427-.709-.327-.754-.224-1-.123-1.012.056-.3.1-.5.258-.1.02-.157-.1.009-.188.194-.217.405-.173.844-.11.8-.015.773.084.728.174.67.258.631.334.622.429.582.5.569.594.573.7,1.1,1.671,1.227,2.175,1.148,2.169,1.066,2.158.986,2.149.129.161,6.836,5.16.009.007.144.026.116-.088.078-.3.138-2.966.024-2.929-.088-2.894-.2-2.851-.213-1.749-.319-1.729-.385-1.533-.472-1.514-.009-.05.064-.134.149-.03.019.006.244.138.159.233.521,1.587.37,1.669.334,2.311.222,2.352.1,2.393-.009,2.431.084.231.218.116,1.3.271.6.213.551.258.149.084.316.155.713.2,1.533.179,1.551.09h1.57l1.583-.09,3.93-.377,2.959-.381.209-.065.177-.123.134-.173.075-.207.179-1.087.108-1.146.039-1.21-.034-1.273Zm18.13,6.43-.043-.1-.015-.006-.084-.036-8.246.041-.114.067-.013.007-.015.067.049,9.056v.02l.034.062.007.017.006.01.093.032h8.262l.058-.03,0,0,.024-.013,0,0,.035-.094-.047-9.1Zm-9.334-.054-.054,0,.069,0Zm9.373-.761-.007-.088-4.689-6.769-.075-.045-.015.006-.039.011-.03.01-.011.015-5.309,7.032-.015.1.015.011.045.036.024.019h.017l10-.263.08-.05.011-.007,0-.019Zm-36.014,5.02v0l.594.4Z" transform="translate(-2.399 -2.496)" fill="#040403"/>
      <g id="Group_1188291" data-name="Group 1188291" transform="translate(1270.661 1173.603)">
        <path id="Path_1012430" data-name="Path 1012430" d="M1730.63,1767.015l1.391.7-1.393-.7-.418-.306Z" transform="translate(-1644.861 -1656.556)" fill="#040403"/>
        <path id="Path_1012431" data-name="Path 1012431" d="M1739.96,1772.13l.357.16v0Z" transform="translate(-1652.8 -1660.97)" fill="#040403"/>
        <path id="Path_1012432" data-name="Path 1012432" d="M1741.174,1760.606l-.981-.919-.973-.8.973.795Z" transform="translate(-1652.198 -1650.189)" fill="#040403"/>
        <path id="Path_1012433" data-name="Path 1012433" d="M1360.733,1282.59l-.181.088-.121.075-.263.1-.3.039-.683-.106-.089.022-.024.089.026.041.6.568.05.062.344.431.2.444,0,.379-.114.228-.218.211-.261.106-.28-.022-1.232-.416v0l-.357-.16-1.391-.7-.42-.3-.237-.278-.032-.129.037-.129.1-.089.133-.024.138.054.665.5.7.439.9.454.954.362.161.017.153-.045.118-.1.06-.138.006-.05-.065-.349-.159-.232-.98-.92-.973-.8-.974-.668-.969-.545-.1-.084-.052-.12.034-.332.192-.372.026-.026.108-.015.075.077.069.243.078.153.121.114.316.2,1.2.735.917.431.762.19.332.01.317-.05.217-.039.706-.125.123-.005a1.5,1.5,0,0,1-.446.515Zm164.666,14.563-.359-.8-.519-.777-.651-.765-.758-.723-.881-.7-1.016-.689-1.135-.661-1.286-.663-1.445-.655-3.207-1.286-3.441-1.176-3.749-1.1-4.445-1.129-.069.067.01.021,1.249,1.671,1.637,2.072.741.853,1.137,1.2,1.462,1.553.907,1.133.573.971.328.963.064.435v.427l-.069.386-.135.371-.2.336-.274.312-.555.37-.737.217-.872.041-1.014-.119-1.2-.293-1.312-.452-1.439-.618-1.5-.749-.222-.116-1.376-.678-1.88-.82-2.078-.9-.024-.009-.114.024-.054.1-.162,2.647-.1.224-.228.1-4.124.344-7.753.788-15.364,1.48-7.557.577-3.508.183-3.366.114-3.2.045-3.071-.026-2.912-.1-2.785-.166-2.33-.25-2.156-.394-1.992-.538-1.818-.683-1.225-.625-1.176-.8-1.128-.961-1.081-1.126-.14-.2-.62-1.111-.129-.134-.177-.058-1.686-.1-1.759-.213-1.688-.388-1.566-.551-1.445-.721-1.247-.838-1.09-.991-.9-1.115-.676-1.2-.271-.663-.211-.694-.252-1.428-.024-1.544.209-1.6.351-1.318.73-2.3.015-.153-.047-.146-.258-.291-.019-.019-.213-.338-.108-.39-.015-.457.082-.461,0-.02-.036-.129-.123-.058-27.479-.243-.235.1-.1.235.026,4.96.05.119h0l.119.05,8.106-.041.1.041.039.1-.078,8.806-.064.213-.343.472-.377.412-.411.347-.446.287-.724.306-.093.078-.015.119.159,1.012.054,1.3.024,4.1.062,2.145-.024.239-.106.217-1.273,1.682-.149.127-.192.041-9.493-.084-.218-.045-.187-.125-.123-.187-.045-.219-.05-10.1-.045-.1-.1-.043h-2.684l-.17.069-.011.026-.013.007-.045.138.036,7.169-.045.306-.131.278-1.542,2.283-.177.16-.233.058-9.424-.084-.345-.054-.243-.153-.138-.228-.05-.312-.1-8.8.093-.366.258-.278,2.453-1.624.571-.25.724-.084,2.384.054,2.4.144.075-.028.034-.071v-.007l-.213-7.525.063-.762.22-.491.381-.319.59-.228,1.318-.243.179-.093.073-.193-.024-4.557-.036-.084-.084-.037-4.575.024-22.51.431,0,.054.056.261.174.2.594.4.838.6.422.47.144.17.187.127.213.071.224.007,1.208-.166,1.279-.17.943-.039.818.08.745.213.672.336.42.312a1.807,1.807,0,0,1-.028.555,1,1,0,0,1-.118.28l-.1,0-.924-.032-.235-.039h0l-.515-.084-1.333-.357-.125-.075-.032-.052-.043-.073-.054-.192-.078-.11-.133-.034-2.8.219-.416.138-.3.315-2.528,4.381-.086.371.134.358.536.639.521.48.525.334.526.2.437.075.474.007,1.452-.133,1.174-.183.129-.06.086-.119.015-.147-.056-.136-.118-.091-.7-.295-.11-.088-.054-.133.02-.14.089-.11.133-.052.14-.007.357.024.4.1.918.454.877.433.377.1.336.037.155-.075v0l.039-.166-.017-.045-.177-.261-.252-.239-.048-.1.047-.1.02-.015.077-.043.267.084.187.129.155.187.224.541.007.024,0,.164-.069.153-.123.114-.159.056-.629.024-.6-.1-.478-.179-.456-.271-.129-.015-.088.093,0,.047-.013.252-.075.192-.149.155-.2.108-.685.159-.291.05-.859.123-.836.035-.816-.052-.8-.142-.493-.134-.093.064,0,.02.461,1.736.065.112,3.2,3.168.248.114.267-.071.03-.022.524-.344.407-.187.4-.089.5-.03,6.571.09.164.069.071.162.136,3.65.062,4.077-.077.6-.235.474-.02.026-1.111,1.309-1.075,1.109-.293.185-.338.06-7.628-.153-.172-.047-.121-.127-.1-.287-.039-.4-.011-.067-.14-.134-.192.034-.519.351-.542.287-.6.248-.625.19-1.432.261-1.8.11-2.694-.047-2.528-.258-.28.032-.22.172-1.019,1.312-.6.616-.7.569-.752.48-.814.4-.913.329-.967.252-1.06.174-1.105.093-1.18.019-2.63-.129-2.753-.295-2.953-.463-3.3-.659-7.745-1.684-.47-.147-.413-.194-.353-.245-.295-.295-.215-.3-.168-.345-.188-.808-.064-.114-.121-.032-3.79.431-3.883.347-1.387.017-1.094-.168-.431-.149-.385-.205-.3-.243-.237-.3-.219-.581-.019-.674.108-.541.209-.508.3-.461.383-.431.51-.433.584-.4.7-.4,2.027-.95,1.492-.68.978-.523.767-.525.571-.549,1.406-1.562.577-.543.558-.437.566-.351.536-.239.54-.149.556-.054.521.043.543.136.526.226.547.327.921.75.521.45.123.015,4.456-1.919.1-.108-.007-.149-.008-.013-.775-1.264-.456-.823-.351-.833-.248-.844-.14-.855-.036-.984.1-1,.237-1.016.371-1.027-.009-.159-.134-.091h-.048l-11.949,1.689-.174.036-10.727,2.164h-.069l-.28.071-5.089,1.284-2.468.713-2.36.749-2.225.776-2.123.812-1.992.84-1.885.875-1.49.8-1.335.868-1.18.941-1.03,1.012-.564.711-.394.694-.25.715-.089.7.034.564.017.073.108.478.1.245.127.325.192.342.112.2.006.005.411.57.006.009.36.4.129.144.088.084.493.467.013.009.676.556.015.013.833.566.792.54.021.011.133.073,1.882,1.04,2.319,1.066,2.588,1.006,2.985,1.012,3.14.962,3.321.917,3.467.863,3.653.82,3.8.767,3.986.722,4.128.67,8.854,1.277,8.518,1.066,8.178.855,7.839.644,8.412.564,7.622.456,6.829.342,6.037.23,11.927.293,7.956.129,8.311,0,8.981-.123,10.43-.258,5.6-.22,7.663-.429,6.84-.388,4.9-.286,5.5-.388,5.662-.474,6.007-.571,6.8-.719,5.951-.762,8.849-1.3,6.532-1.073,6.077-1.165,5.617-1.258,5.164-1.35,2.434-.728,2.371-.788,2.313-.85,2.248-.909,1.807-.838,1.637-.9.013-.009,1.4-.926.019-.011.62-.5.545-.442.019-.019.211-.224.674-.709.007-.011,0,0,.073-.11.56-.834.213-.465.011-.034.138-.442v-.006l.078-.456.015-.461-.151-.842Zm.6.542-.135-.683-.276-.691-.693-1.094-.943-1.051-1.189-1.008-1.365-.9-1.822-1-1.914-.931-2.044-.883-2.171-.827-2.306-.778-2.5-.754-2.824-.769-3.47-.875-.431-.193-.332-.332-3.836-5.4-.506-.547-.575-.435-.56-.282-.427-.11-.469-.005-.517.084-.6.188-.648.28-.7.375-1.649,1.07-.209.146-.252.138-.272.08-1.876.321-1.021.1-1.363.024-2.244.125-3.213.291-1.186.114-.5-.034-.836-.041-.338.071-.271.123-.045.03-.26.075-.407,0-.052-.019-.026-.084.064-.062.515-.172.353-.254.511-.489,1.452-1.23,1.318-1.314,1.184-1.406,1.042-1.488.9-1.566.765-1.65.636-1.734.5-1.82.2-.386.362-.241.483-.248.3-.347.114-.357.129-1.209.06-1.208-.015-1.195-.084-1.191-.228-1.605-.358-1.594-.211-.248-.082.168-.043.269.431,3.427.069,1.294-.015,1.234-.179,1.829-.06.164-.114.133-.444.317-.416.224-1.8.743-1.79.644-1.779.549-1.768.448-1.76.355-1.753.258-1.74.16-1.73.063-1.3-.035-1.467-.122-1.643-.209-1.811-.3-8.649-1.719-1.159-.164-6.007,0-1-.078-1.075-.23-.039-.022-.045-.1.06-.091,5.3-3.1,1.353-.947,2.626-1.956,1.794-1.4,1.225-1.09.958-1.051.751-1.094.379-.734.33-.8.263-.846.218-.931.575-3.267.312-2.712.23-3.775.133-3.87.036-3.967-.065-4.064.1-.437.233-.172.1-.09.052-.149.006-.762-.1-.68-.129-.144-.188.034-.054.069-.306.644-.06.258-.01,2.9-.024,5.119-.077,3.48-.153,3.134-.246,2.922-.3,2.548-.4,2.459-.476,1.824-.306.808-.34.724-.394.678-.463.646-.847.926-1.277,1.111-2.05,1.665-1.689,1.256-1.867,1.211-2.208,1.313-2.2,1.234-2.19,1.154-2.177,1.077-1.826.806-1.908.706-.256-.017-.161-.2,0-.011-.362-1.006-.6-1.148-.81-1.279-.946-1.3-1.034-1.234-1.126-1.174-1.214-1.115-.446-.5-.069-.331.153-.295,7.48-7.09,1.906-1.908,1.8-2.108.2-.3.125-.284.056-.357-.022-.493v0l-.495-4.9-.386-4.9-.276-4.9-.166-4.891-.043-.1-.1-.037h-.08l-.1.037-.039.1.064,4.15.215,4.463.366,4.82.536,5.41.144.706.119.549-.015.192-.091.166-3.866,4.355-.019.015h-.065l-.039-.051-.952-2.681-2.75-7.385-1.456-4.118-1.325-4.243-1.2-4.366-1.072-4.49-.108-.172-.188-.062-.086,0-.121.058-.039.129,0,.017.952,3.864.95,3.537.937,3.213.933,2.89,2.016,5.655,2.22,5.755.864,2.438,0,.256-.138.209-2.824,2.369-.25.147-1.818.661-2.894.633-2.951.463-3.011.291-3.063.123-5.35-.037-2.432-.095-2.266-.149-.159-.045-.127-.1-.078-.144-.015-.166v-.007l.181-1.531-.067-1.966-.215-1.915-.36-1.872-.508-1.82-.256-.743.015-.247.187-.159.015,0,3.687-.946,3.776-1.034,7.822-2.324.194-.1.149-.163.084-.2.006-.222-.041-.47.017-.418.876-6.026,1.863-11.979.635-3.661.6-2.662.54-1.755.609-1.447.168-.2.015-.009.011-.006.133-.009.1.093,1.1,2.582.009.065-.045.476.045.134v0l.131.052.024,0,.808-.237.476-.229.506-.33,1.337-1.129.039-.035,1.008-.952,1.006-1.04,1.928-2.259,1.858-2.545,1.835-2.9.218-.431.168-.467.118-.159.194-.05,1.169.153,1.245.267,1.279.371,1.329.476,1.372.582,1.378.672,1.389.763,1.333.819,1.383,1,1.512,1.264,1.639,1.531,1.766,1.8,1.9,2.061,1.829,2.1,1.848,2.25,1.775,2.3,1.725,2.369,1.656,2.416,1.607,2.5,1.54,2.543,1.488,2.621,1.426,2.671,1.012,2.029.952,2.046.887,2.061.827,2.078.763,2.093.7,2.11.639,2.122.577,2.141.7,3,.03.082.233.433.034-.894-.119-.926-.769-3.295-.971-3.33-1.178-3.383-1.37-3.4-1.566-3.431-1.753-3.429-1.943-3.443-2.111-3.416-1.77-2.672-1.79-2.557-1.8-2.427-1.82-2.317-1.843-2.208-1.867-2.093-1.882-1.973-1.9-1.858-1.729-1.5-1.152-.87-1.2-.81-1.245-.75-1.294-.693-1.342-.635-1.387-.571-1.434-.515-1.482-.456-1.273-.252-1.613-.129-.265-.078-.2-.19-.483-.861-.416-.864-.347-.872-.276-.881.021-.317,1.779-4.376,1.441-4.051.388-1.352.272-1.309.159-1.294.036-1.23-.08-1.2-.19-1.116-.312-1.075-.441-1.042-.405-.739-.511-.756-.566-.665-.623-.577-.676-.493-.6-.338-.635-.278-.674-.218-.709-.163-.222-.089-.162-.177-.554-.8-.739-.8-.872-.689-1-.588-1.133-.482-.237-.08-1.062-.293-1.126-.187-1.186-.075-1.243.034-1.292.14-1.385.246-1.521.349-2.08.555-3.392.857-1.268.224-1.156.119-1.76.022-1.82-.147-.2.054-.1.179-.009.467.069.474.155.5.226.491.317.528.371.485.428.452.442.381.039.08-.039.078-.026.015-1.456.566-1.477.685-.129.063-.685.405-.179.19-.1.231-.007.036-.037.877.176.836.258.545.357.487.465.45.54.377.646.332.7.248.762.174.773.084.12.054.048.123.035,1.591.164,1.757.293,1.962.446,2.363.144,1.036-.006.986-.114.734-.209.773-.327.862-.51,1.137-.213.579v.347l.276.362.47.317.653.272.93.271.207.056.2.112.125.185,1.185,2.989,1.268,2.813.377.672.435.569.487.465.549.358.59.256.646.153.7.05.754-.05.95-.211,1.195-.439.78-.3.159,0,.121.1,1.6,2.765.056.194-.036.2-.551,1.329-.491,1.342-.429,1.359-.371,1.372-.329,1.492-.258,1.508-3.039,20.025-.043.517.034.6-.034.138-.116.086-7.691,2.283-7.637,2.037-.16.075-.127.129-.071.164-.01.179.1.719v0l-.039.134-.123.065-.6.015-.562-.05-.53-.116-.5-.183-2.653-1.128-1.869-.627-.745-.153-.525-.019-.9.069-1.021.015-2.429-.144-1.1-.054-1.217.03-1.141.108-1.055.183-.885.245-.747.3-.614.379-.437.416-.1.258.071.263.231.28.446.312.569.187.06.05-.015.075-.034.024-.054.019-.847.334-.6.342-.392.385-.17.409,0,.232.065.252.189.319.36.278.5.157.708.116.019.022.007.086-.062.06-.362.157-.282.228-.144.2-.043.147.024.146.3.538.357.28.786.265.831.161.868.065.907-.035.013.013.011.075-.073.091-.433.112-.386.2-.263.261-.144.321,0,.323.144.366.037.052.2.218.265.162.349.123.407.071,1.049.03,1.656-.134,2-.14.638.041.472.118.833.284.836.218.84.159.846.093,1.23.028,1.24-.108,1.165-.228,2.007-.357.754-.041.683.045.149.086.039.168v.006l-.045.653.058.252.116.218.332.26.536.142,2.076.191,2.27.112,2.591.041,3.45-.021,2.02-.065,2.011-.147,1.994-.23,1.981-.312,2.713-.566.868-.267,1.223-.489.224-.092.088.015.026.082-.026.047-3.354,2.845-.291.334-.2.33-.11.323-.021.313.131.45.327.437.045.1-.039.106-1.266,1.325-1.109.976-.976.659-.437.207-.42.133-6.762,1.607-.978.308-.674.351-1.1.859-.975.935-.853,1.006-.734,1.081-.446.812-.386.851-.323.885-.263.922-.067.1-.114.039-27.931-.248-.108-.1-.011-.276-.005-1.521.093-.526.151-.381.039-.134-.035-.134-.594-.92-4.208-5.9-.467-.6-.293-.247h-.2l-.163.123-1.605,2.309-.1.064-.114-.028h0l-.53-.383-.056.265.077.207.187.192.075.12-.03.138-.188.213-.2.086-.321-.09-.089-.021-.078.049-.036.125.06.11.015.009.119.069.028.021.056.162-.084.149-.592.422-.153.054-1.03.149-.4.127-.314.161-.554.394-1.036.709-.732.319-.711.112-.747.009-.829-.1-1.06-.218-.982-.2-.7-.069H1369l-.1-.06-.024-.118.237-1.719.043-1.984.035-.159.1-.121.928-.446,1.581-.894.911-.543.648-.314.82-.287.822-.2.82-.119.818-.037,1.243.108,1.24.3.138.082.091.135.028.159-.045.155-.035.054-.4.162-.99.131-1.186-.062-1.057-.1-.881,0-.767.1-.67.2-.616.3-.054.1.062.093.067.009.541-.112,1.3-.228.991.007.14.1.005.175-.035.047-2.965,3.052-.054.129.052.131.287.222.37.147.043.005.149-.065.045-.162-.054-.276v-.005l.006-.144.069-.138.99-1.137,1.105-1.025.327-.418.179-.355.1-.131.157-.045.233.005,1.344.089.48.1.392.147.3.168.049.045.026.164-.121.116-2.332.674-.2.166-.015.03.015.136v0l.11.065.039,0,2.356-.592,0,0,.568-.454.162-.218.08-.207-.03-.261-.233-.168-.444-.047-.11-.058-.011-.125.032-.045.476-.088.136-.062.067-.136v-.478l-.151-.357-.188-.177-.258-.12-1.088-.293-1.068-.168-1.049-.041-1.03.086-.853.172-.838.263-.827.349-.812.444-2.455,1.443-.224.015-.162-.155-.006-.015-.237-.489-.3-.344-.3-.2-.347-.142-1.086-.215-.366-.058-1.854-.287-2.649-.431-1.817-.4-1.224-.351-1.157-.571-.681-.345-.7-.48-.76-.637-.909-.876-.6-.575-1.979-1.671-2.087-1.512-1.309-.836-1.348-.778-1.383-.719-1.426-.661-.1-.119.047-.147.052-.034.709-.319.668-.366.644-.429.6-.469.952-.945.8-1.06.668-1.2.51-1.286.358-1.4.192-1.449.026-1.516-.144-1.525-.114-.272-.224-.185-.506-.231-1.079-.551-.31-.269-.174-.267-.181-.327-.235-.2-.211.006-.1.179.021.1.317.584.4.59.2.211.213.076.129-.011.131.024,1.029.691.218.233.1.31.049,1.266-.054,1.234-.153,1.163-.252,1.116-.343,1.016-.446.963-.534.875-.635.808-.6.609-.674.56-.724.487-.793.439-.129.06-1.006.362-1.086.194-1.163.024-1.241-.147-.017.006-.056.017-.024.071.009.024.2.308.289.159.327.069,1.436.084.084.048.015.1-.013.024-.155.377-.043.456v.015l.073.116.131.028.325-.021.235.091.159.246.114.685-.037.267-.1.222-.232.243-.323.17-.42.108-.56.054-1.152-.006-1.732-.207-1.716-.437-1.045-.371-.715-.366-.5-.416-.308-.485-.093-.321-.03-.358-.094-2.055-.328-2.272.009-.153.08-.129.222-.162.092-.075.043-.114-.024-.119-.084-.086-.129-.034-.734,0-.664-.1-.594-.2-.523-.3-.37-.312-.319-.371-.278-.437-.235-.5-.136-.456-.054-.452.024-.47.106-.441.173-.386.241-.332.3-.267.355-.185.409-.1.452.011.461.12.487.239,1.4.954.093.047.177.019.166-.064.123-.129.054-.17.011-.9-.1-1-.648-4.142-.511-3.687,0-.045.075-.084.11.017.872.523.941.392.819.222.827.12.863.028.928-.063.976-.159,1.04-.252,1.152-.353,1.316-.476.485-.246.553-.4.028-.024.09-.243-.119-.228-.157-.121-1.18-.959-.735-.7-.416-.48-.009-.067.056-.043.039.009,1.535.872,1.884.939.409.25.332.31.207.3.159.336.525,1.665.349,1.691.176,1.755.284.312.123-.015.065-.1v-.028l-.237-2.242-.427-2.007.017-.174.133-.114.48-.246.338-.329.213-.4.1-.45,0-.511-.112-.584-.243-.769-.3-.728-.362-.683-.426-.639-.47-.577-.526-.534-.584-.493-.64-.454-1.292-.775,0,0a3.26,3.26,0,0,1-.708-.366l-.747-.194-1.027-.176-2.672-.258-1.348-.024-1.363.089-1.374.2s-2.612.706-2.709.719l-.868.34-1.1.532-1.045.609-.987.685-.935.767-.874.844-.006.2.006.009.125.065.134-.047,1.1-.926,1.146-.827,1.195-.724,1.238-.625,1.885-.732,1.986-.521,1.191-.159,1.46-.056,1.641.05,1.568.153,1.288.263,1.258.433,1.17.579,1.075.728.926.838.749.911.592,1.021.4,1.062.146.642.03.552-.123.489-.147.241-.093.147v0l-.371.334-.037.021-.218.007-.149-.162-.452-1.406-.118-.2-.19-.138-.34-.127-.358-.136-.159-.088-1.139-.614-1.191-.532-1.24-.446-1.292-.364-.1.03-.024.1.026.045,3.231,3.142.05.144-.08.129-.039.019-1.141.364-2.158.659-1.531.321-1.387.08-.64-.05-.648-.118-.694-.209-.7-.306-.679-.386-.689-.487-.054-.05-.6-.724-.11-.067-.187.079-.011.2.338.609.119.357,1.322,9.209v.006l.065.48-.006.078-.129.14-.188-.03-.952-.639-.853-.4-.762-.159-.694.069-.62.289-.545.5-.144.233-.228.778-.05.76.084.648.2.616.313.594.413.536.51.47.588.385.62.272.667.17.241.125.119.243.254,1.8,0,.037-.1.233-.239.084-2.1-.513-.911-.289-.859-.362-.8-.435-.752-.506-.784-.664-.719-.756-.694-.864-.607-.861-.532-.87-.465-.9-.362-.859-.289-.881-.2-.849-.114-.861-.086-2.076.108-1.749.131-.8.177-.709.228-.653.288-.614.146-.153.217-.03.288.1.159,0,.1-.127,0-.047.011-.319.088-.355.379-.833-.006-.119-.106-.047-.067.039-.357.545-.293.694-.08.166-.114.1-.028.009-.026.006-.17.006-.159-.062-.123-.123-.063-.162-.019-.547.168-.381.024-.024.635-.743,1.486-.775.179-.064.144.015.054.036.011.009.089.157.022.224.155-.228.058-.232-.1-.353-.312-.362-.06-.093.013-.114.094-.131a2.162,2.162,0,0,0-.769-1.273l-.349-.272-.754-.437-.767-.3-.78-.153-.717-.019-.728.1-.739.213-.752.325-.672.405-.573.47-.526.586-.452.7-.355.771-.275.879-.192.976-.114,1.081-.041,1.2.03,1.486-.03,1.452-.2,1.268-.118.308-.485.748-.6.6-.812.5-.071.043-.133.147-.054.188.028.194.11.162.65.508.663.534.2.222.452.493.506.426.868.506.006,0,.138.159-.015.168a3.621,3.621,0,0,1,.442.282l.28-.523.03-.039.146-.047.127.086.3.687.175.754.017.211a6.917,6.917,0,0,1,.513.87l.019-.489-.063-.657-.146-.618-.241-.569-.319-.517-.409-.474-.493-.427-.579-.386-1.424-.9-.1-.019-.069.073,0,.041.011.088-.007.026-.075.067-.1-.022-.913-.685-.03-.026-.037-.151.1-.12.739-.461.586-.586.265-.39.205-.42.278-.988.114-1.189-.021-1.766-.021-1.869.11-1.346.267-1.156.444-1.036.6-.877.754-.724.534-.357.586-.291.616-.209.667-.144.631-.06.618.017.6.1.579.181.719.357.664.5.224.344.215.623.007.159-.06.144-.583.674-.5.36-.663.383-.508.485-.312.536-.063.526.069.282.153.284.06.173-.043.177-.362.773-.295.887-.213.941-.142,1.032-.062,1.1.017,1.15.1,1.2.174,1.182.008.248-.056.241-.288.743-.623,1.553-.5,1.034-.558.862-.631.715-.043.028c.058.134.114.271.164.405l.073-.037.461-.358.441-.474.422-.6.39-.713.343-.8.293-.883.213-.872.075-.088.114.019.034.048.581,1.3.717,1.26.838,1.178.913,1.042,1,.917,1.044.758,1.118.62,1.135.446,2.86.827.188.1.114.183.013.215-.089.194-.144.114-.961.523-.911.577-.859.633-.806.689-1.281,1.333-1.124,1.5-.971,1.673-.81,1.841-1.036,2.953-1.3,4.2-1.079,3.511-1.419,4.247-1.734,4.786-.155.125-12.635,1.786c-1.409.1-11.219,2.3-11.219,2.3l-2.966.739-2.92.8-2.776.833-2.63.862-3.028,1.126-2.671,1.174-2.3,1.212-1.884,1.226-.793.625-.676.614-.579.62-.485.64-.362.618-.267.635-.155.622-.05.639.041.53.119.541.192.523.272.53.65.945.812.891.963.829,1.126.777,1.893,1.085,2.05,1.012,2.2.937,2.363.863,4.852,1.536,5.024,1.381,5.2,1.221,5.373,1.066,1.1.2,5.156.917,3.4.545,9.089,1.238,9.313,1.066,9.536.894,9.756.726,17.2.917,6.347.254,8.4.174,5.724.1,9.905.093,10.3-.127,10.266-.188,2.4-.05,3.465-.149,2.733-.123,18.65-1.124,5.949-.4,6.112-.51,6.157-.6,5.955-.672,5.524-.7,5.446-.769,5.369-.838,5.291-.907,5.645-1.1,5.376-1.227,4.983-1.325,4.591-1.428,3.011-1.088,2.589-1.105,2.234-1.15,1.947-1.225.78-.6.694-.644.614-.694.485-.7.371-.713.237-.689.12-.685-.006-.708Zm-157.051-26.772.075-.106.127-.024.106.024.049.011c.685.146,3.441.708,4.357.433.325-.1.833-.3,1.378-.525l.278-.177,1.223-.777.577-.263.551-.179.1-.035.258-.183.217-.159.082-.015.127.091-.019.157-2.416,3.2-.058.133.009.144.062.1,1.355.082.069,0,.308.019v2.684l-.34.007-.09.039-4.021.091-22.719.39.157-4,.006-.039.106-.121.161,0,.678.342.129.039,1.006.125.931.181,1.284.241,1.419.172,1.376.078,1.2-.03,2.748-.164.015,0,1.955-.183.427-.041,1.867-.177,1.871-.25.246-.073.258-.177.215-.269.174-.362.129-.459Z" transform="translate(-1270.661 -1173.603)" fill="#040403"/>
      </g>
      <path id="Path_1012434" data-name="Path 1012434" d="M2073.746,1188.014l-.228-1.333-.386-1.221-.556-1.141-.7-1.01-.5-.554-.564-.515-.609-.452-.625-.357-.64-.258-.659-.159-.521-.056-.209-.067h0l-.151-.159-.776-1.131-.928-.95-.838-.62-.937-.51-1.03-.394-1.126-.286-.325-.056-1.443-.119-1.932.069-1.1.06-.356.05-1.5.321-1.839.418-4.557,1.238-1.5.254-1.23.05-2.979-.161-.209.08-.082.209,0,.028.1.416.159.4.5.821.752.808.892.68.114.119.045.159-.035.162-.106.125-.112.054-1.529.465-1.3.5-.887.469-.082.062-.217.16-.209.228-.092.308.054.525.114.476.181.461.239.414.458.536.569.433.7.345.782.237.946.086,1.676-.009,1.667-.086,1.648-.177,1.622-.263,1.6-.353,1.99-.568,1.951-.706,1.917-.846,1.884-.984.157-.024.131.086.009.022.011.189-.121.14-2.4,1.21-.1.119.007.159,1.016,2.253.947,2.309.875,2.36.808,2.414.075.131.12.091.147.032.146-.026.028-.013.135-.173.784-1.144.674-.745.358-.276.364-.194.388-.129.39-.045.583.08.558.25.53.416.463.562.411.754.232.786.05.577-.039.594-.13.609-.222.625-.222.411-.344.456-1.055,1.06-.069.106-.009.127.127.463.173.392.228.327.278.261.4.222.474.121.547.024.62-.075.286-.08.206-.127.218-.269.207-.476,2.854-7.829.431-1.482.267-1.477.1-1.479-.064-1.411Zm-15.365-4.316-1.674.659-1.7.469-1.744.28-1.8.1-.224-.093-.071-.222.006-.036.041-.08.252-.089,1.378-.078,1.363-.183.68-.135.677-.162,1.314-.394,1.284-.5.263-.021.073.054.024.032.023.231-.165.176Z" transform="translate(-627.035 -2.496)" fill="#78534b"/>
      <path id="Path_1012435" data-name="Path 1012435" d="M2100.72,1212.941l.678-.162,1.313-.394,1.285-.505.264-.02.073.054.024.033.024.23-.165.177-1.675.659-1.7.468-1.744.28-1.8.1-.225-.093-.073-.221.008-.037.041-.08.253-.091,1.376-.078,1.363-.182h0l.68-.135Z" transform="translate(-672.869 -31.152)" fill="#040403"/>
      <path id="Path_1012436" data-name="Path 1012436" d="M2091.921,1251.591l-.192-.211-.424-.552-.381-.623-.347-.724-.4-.984-.411-1.012-.1-.108-.144-.022-.75.089-.668-.028-.554-.14-.476-.261-.323-.3-.267-.379-.215-.465-.157-.554-.069-.1-.119-.026-1.161.183-.179-.052h0l-.075-.17,0-.039.006-.024.114-.194.207-.088.556-.08.51-.149.481-.231.422-.3.441-.442.345-.515.25-.6.142-.644.024-.651-.094-.663-.2-.625-.308-.6-.392-.478-.485-.342-.54-.181h-.56l-.472.159-.446.319-.62.7-.678,1.01-.4.61-.092.1-.181.086-.2-.009-.181-.1-.116-.168-3.851-9.838-.129-.134-.187,0-2.533.92-2.362.691-2.259.48-2.244.284-2.505.093-.183.073-.08.175.006,1.594.149,1.79.288,2,.441,2.255.183,1.075.022.8-.056.495-.138.661-.218.7-.8,1.88-.177.381-.048.213.039.217.127.181.185.118.039.011,1.9.549.336.193.209.323,1.107,2.9,1.253,2.75.407.7.461.575.515.456.571.33.678.218.743.077.8-.065.87-.207,1.964-.67,1.368-.616.833-.5.784-.541.737-.6.685-.642.838-.933.752-1.021.123-.094.125,0,.112.063.06.114-.009.129-.674,1.5-.9,1.514-1.131,1.553-1.451,1.708-.166.349.045.384,2.02,4.69.032.056.134.142.176.069.2-.01.17-.089,1.835-1.639L2086,1260.1l1.661-1.893,1.55-2,1.432-2.108,1.316-2.214.03-.153-.065-.136Zm-22.816-13.97-.183.011-.119-.134-.01-.05,0-.133.058-.228.174-.164.534-.232.586-.173.581-.1.584-.02.5.058.469.134.388.2.342.282.323.461-.011.181-.162.078-.093-.034-.424-.272-.431-.209-.439-.14-.446-.075-.538,0-.549.093-.56.188-.566.282Zm1,4.678-.163-.511-.06-.532.054-.472.157-.343.239-.159.282.048.282.248.243.411.163.51.058.534-.052.472-.159.342-.237.161-.282-.049-.284-.248-.241-.411Zm6.084,6.911-.121.506-.192.506-.263.5-.336.472-.373.379-.431.295-.459.2-.48.1-.483.007-.486-.08-.476-.161-.455-.243-.429-.317-.388-.39-.342-.452-.084-.219.011-.235.108-.205.183-.147.054-.024,1.3-.538,1.21-.6,1.115-.672,1.019-.734.161-.078h.177l.163.073.116.134.028.065.161.678.043.674-.052.511Z" transform="translate(-647.107 -46.762)" fill="#f1b699"/>
      <path id="Path_1012437" data-name="Path 1012437" d="M2088.345,1261.063l-.013.182-.162.078h0l-.093-.033-.425-.271-.431-.21-.437-.141-.448-.074h0l-.539,0-.548.093-.561.189-.564.28-.184.013-.119-.136-.009-.05,0-.132.058-.228.175-.163.533-.232.587-.173.581-.1.583-.022.5.058.466.134.39.2.342.282.323.461Z" transform="translate(-662.128 -70.294)" fill="#040403"/>
      <path id="Path_1012438" data-name="Path 1012438" d="M2090.139,1280.85l.282.048.282.249.241.411.163.511.058.531-.052.474-.158.342-.238.16-.282-.048-.284-.249-.241-.41-.162-.511-.06-.531.054-.474.158-.342.238-.16Z" transform="translate(-666.916 -87.329)" fill="#040403"/>
      <path id="Path_1012439" data-name="Path 1012439" d="M2098.229,1318.364l-.16-.678-.028-.065-.116-.134-.162-.073h-.177l-.161.078-1.019.734-1.115.672-1.209.6-1.3.538-.054.024-.183.147-.108.205-.011.235.084.218.342.452.388.39.429.317.456.243.476.161.486.08.483-.007.48-.1.459-.2.431-.295.373-.379.336-.472.263-.5.192-.506.121-.506.052-.511-.043-.674Zm-.668,1.09-.133.545-.213.506-.263.422-.332.386-.3.271-.31.2-.312.127-.314.05-.313-.019-.315-.091-.644-.39-.54-.293-.364-.392-.013-.02-.006-.177.129-.12,1.066-.42,1.066-.511,1.066-.6,1.066-.693.032.633-.049.59Z" transform="translate(-669.138 -117.102)" fill="#040403"/>
      <path id="Path_1012440" data-name="Path 1012440" d="M2100.932,1321.82l-.08.626-.13.215-.314.262-.2.245-.6.776-.72.579h0l-.672.325-.749.2-.539-.293-.366-.392-.011-.022-.006-.176.128-.119,1.066-.42,1.066-.513,1.066-.6,1.066-.693Z" transform="translate(-672.494 -120.69)" fill="#fff"/>
      <path id="Path_1012441" data-name="Path 1012441" d="M2101.5,1325.046l.749-.2.672-.325h0l.721-.579.6-.776.2-.245.314-.262.13-.215.08-.626.03.631-.048.591-.13.546-.214.505h0l-.264.422-.333.388-.3.269-.308.2-.312.126-.314.05h0l-.316-.017-.314-.093-.645-.39Z" transform="translate(-676.533 -120.69)" fill="#be9583"/>
      <path id="Path_1012442" data-name="Path 1012442" d="M2104.918,1398.814l-.431-3.427.043-.269.082-.168-.015-.153-.233-.433-.03-.082-.7-3-.579-2.141-.638-2.122-.7-2.11-.764-2.093-.827-2.078-.887-2.061-.952-2.046-1.012-2.029-1.426-2.672-1.488-2.621-1.54-2.542-1.607-2.5-1.656-2.416-1.725-2.369-1.775-2.3-1.848-2.25-1.83-2.1-1.9-2.061-1.766-1.8-1.639-1.531-1.512-1.264-1.383-1-1.333-.819-1.389-.764-1.378-.672-1.372-.584-1.329-.476-1.279-.371-1.245-.265-1.168-.153-.194.05-.118.159-.168.467-.218.431-1.835,2.9-1.858,2.545-1.928,2.259-1.006,1.04-1.008.952-.039.036-1.337,1.129-.506.328-.476.231-.808.237-.024,0-.131-.054-.045-.134.045-.476-.009-.065-1.1-2.582-.1-.093-.133.009-.011.006-.015.009-.168.2-.608,1.447-.538,1.755-.6,2.662-.635,3.661-1.863,11.979-.876,6.026-.017.418.041.47-.006.222-.084.2-.149.162-.194.1-7.822,2.324-3.776,1.034-3.687.945-.015,0-.187.159-.015.246.256.743.508,1.82.36,1.873.215,1.915.067,1.966-.181,1.531v.007l.017.166.076.144.127.1.159.045,2.266.149,2.432.1,5.35.037,3.063-.123,3.011-.291,2.951-.463,2.894-.633,1.818-.661.25-.147,2.824-2.369.138-.209,0-.256-.864-2.438-2.22-5.755-2.016-5.655-.933-2.89-.937-3.213-.95-3.537-.952-3.864,0-.017.039-.129.121-.058.086,0,.188.062.108.172,1.072,4.49,1.2,4.366,1.325,4.243,1.456,4.118,2.75,7.385.952,2.681.039.051h.065l.019-.015,3.866-4.355.092-.166.015-.192-.12-.549-.144-.706-.536-5.41-.366-4.82-.215-4.464-.064-4.15.039-.1.1-.039h.08l.1.039.043.1.166,4.891.276,4.9.386,4.9.495,4.9v0l.024.493-.058.357-.125.284-.2.3-1.8,2.108-1.906,1.908-7.48,7.088v0l-.153.295.069.331.446.5,1.213,1.115,1.126,1.174,1.034,1.234.947,1.3.81,1.279.6,1.148.362,1.006,0,.011.161.2.256.017,1.908-.706,1.826-.806,2.177-1.077,2.19-1.154,2.2-1.234,2.208-1.312,1.867-1.214,1.689-1.254,2.05-1.665,1.277-1.111.847-.926.463-.646.394-.678.34-.724.306-.808.476-1.824.4-2.458.3-2.548.246-2.922.153-3.135.077-3.48.024-5.119.01-2.9.06-.258.306-.644.054-.069.188-.034.129.144.1.68-.006.762-.052.149-.1.089-.233.172-.1.437.065,4.064-.035,3.967-.133,3.87-.229,3.775-.312,2.713-.575,3.267-.219.931-.263.846-.33.8-.379.734-.75,1.094-.958,1.051-1.225,1.09-1.794,1.4-2.627,1.956-1.353.946-5.3,3.1-.06.091.045.1.039.021,1.075.232,1,.078,6.008,0,1.159.164,8.649,1.719,1.811.3,1.643.209,1.467.121,1.3.036,1.731-.064,1.74-.162,1.753-.258,1.76-.353,1.768-.448,1.779-.549,1.79-.644,1.8-.743.416-.224.444-.317.114-.133.06-.164.179-1.829.015-1.234-.069-1.294Zm-56.046-37.847.1-.233.119-.078.075.123-.015.25-.093.233-.12.078-.075-.123.013-.25Zm2.266,23.271,1.014,1.365.011.019.006.147-.1.106-.006,0-.179.006-.147-.108-.745-1.017-.8-.946-.857-.881-.915-.812-1.415-1.044-.325-.108h-.023l-.06.045,0,.075.491,1.2.412,1.256.332,1.3.256,1.359v.01l-.037.118-.114.054-.168,0-.136-.047-.069-.133-.237-1.518-.358-1.426-.486-1.337-.612-1.24,0-.123.1-.071h.048l.978.209.573.243,1.284.961,1.195,1.1,1.1,1.232Zm-.706-4.168.146.052.172.138.054.211v.008l-.075.138-.153.034-.028-.006-1.452-.5-1.26-.342-1.1-.192-.926-.041-.075-.015-.1-.129.06-.153.271-.144.347-.065.431,0,.547.064,1.361.332,0,0,1.773.612Zm14.022-26.7-.659.991-.582,1.137-.508,1.3-.415,1.417-.317,1.529-.2,1.57-.006.026-.093.114-.146,0-.03-.011-.123-.1-.054-.149.021-.657.133-.864.592-2.378.4-1.195.495-1.126.586-1.058.678-.984.823-.974.39-.342.383-.185.134,0,.1.069.047.112-.015.119-.074.093-.808.685-.745.857Zm8.829,39.541-.153.138-.218.08-.219-.086-.724-.635-.754-.575-.788-.523-.814-.467-.863-.416-.894-.357-.164-.144-.024-.22.007-.022.006-.021.144-.147.207.009,1.143.584,1.253.717,2.839,1.815.017.015.058.125-.058.129Zm.888-3.947-.179.106-.1-.017-1.811-.672-2.063-.556-2.1-.4-1.925-.185-.094-.024-.118-.177.088-.191.239-.088h.028l1.581.192,1.563.273.833.179.827.2,1.523.433,1.506.515.024.013.179.181-.006.211Zm7.473-24.731-.3.047-.09-.065-1.163-7.7.065-.089.3-.045.09.065,1.165,7.7Zm-8.181,39.173-.06.015-.289-.069-.338-.192,0-.009,0,0,.065-.039.065-.008.058,0,.487.116.06.091-.049.1Zm.416.119-.037-.028v-.069l.062-.026.112.05.05.089-.187-.017Zm15.266-5.124-.155.088-14.651,1.773-.174-.048-.088-.155v-.013l.047-.172.157-.088,14.651-1.773.172.048.088.155,0,.013-.049.172Z" transform="translate(-617.888 -136.37)" fill="#78bdb8"/>
      <path id="Path_1012443" data-name="Path 1012443" d="M2201.361,1406.7l-.006.026-.093.113-.147,0-.03-.011-.123-.1-.054-.151.021-.656.132-.865.594-2.377.4-1.2.494-1.125.587-1.057.676-.986h0l.825-.973.388-.342.384-.186.134,0,.1.069.048.111-.017.119-.074.093-.808.685-.747.858-.657.99-.581,1.138-.509,1.3-.414,1.417-.318,1.53-.2,1.569Z" transform="translate(-757.48 -181.761)" fill="#040403"/>
      <path id="Path_1012444" data-name="Path 1012444" d="M2303.61,1431.233l-.065.089-.3.047-.089-.067-1.163-7.7.065-.089.3-.045.089.065,1.165,7.7Z" transform="translate(-839.787 -203.461)" fill="#040403"/>
      <path id="Path_1012445" data-name="Path 1012445" d="M2134.049,1446.5l.074.123-.013.251-.095.232-.119.08-.076-.123.015-.251.095-.232.119-.08Z" transform="translate(-702.85 -222.214)" fill="#040403"/>
      <path id="Path_1012446" data-name="Path 1012446" d="M1578.573,1459.179l-.146-.642-.4-1.062-.592-1.021-.749-.911-.926-.838-1.075-.728-1.17-.579-1.258-.433-1.288-.263-1.568-.153-1.641-.052-1.46.058-1.191.159-1.986.521-1.885.732-1.238.625-1.195.724-1.146.827-1.1.926-.135.047-.125-.065-.006-.009.006-.2-.034-.039,0-.022-.093.131-.013.114.06.093.312.362.1.353-.058.232-.155.228-.069.248-.133.183-.077.06-.022.005-.03-.063.331-.433-.021-.226-.091-.155-.011-.009-.054-.036-.144-.015-.179.063-1.486.775-.635.743-.024.024-.168.381.019.547.063.162.123.123.159.062.17-.006.026-.006.028-.009.114-.1.08-.166.293-.694.357-.545.067-.039.106.045v0l.005.119-.379.833-.088.355-.011.319,0,.047-.095.127-.159,0-.287-.1-.217.03-.146.153-.287.614-.228.653-.177.709-.131.8-.108,1.749.086,2.076.114.861.2.849.289.881.362.859.465.9.534.87.6.861.694.864.719.756.784.664.752.506.8.435.859.362.911.289,2.1.513.239-.084.1-.233,0-.037-.254-1.8-.12-.243-.241-.125-.666-.172-.62-.272-.588-.383-.51-.47-.412-.536-.313-.594-.2-.616-.084-.648.05-.76.228-.778.144-.233.545-.5.62-.289.694-.069.762.159.853.4.952.639.188.03.129-.14.006-.078-.065-.48v-.006l-1.32-9.209-.121-.357-.338-.609.011-.2.187-.079.11.065v0l.6.724.054.05.689.487.679.386.7.306.694.209.648.118.64.05,1.387-.08,1.531-.321,2.158-.659,1.141-.366.039-.017.08-.129-.05-.144-3.231-3.142-.026-.045.024-.1.1-.03,1.292.362,1.24.446,1.191.534,1.139.614.159.086.358.138.34.127.19.136v0l.118.2.452,1.406.149.162.218-.007.037-.021.371-.336.093-.147.149-.241.121-.489-.03-.552Zm-18.119,5-.039.017-.011.005-.019-.007-3.788-2.434-.278-.248-.048-.209.209-.043.342.149,3.791,2.432.015.065Z" transform="translate(-229.814 -227.096)" fill="#78534b"/>
      <path id="Path_1012447" data-name="Path 1012447" d="M1520.782,1467.037l-.216-.623-.225-.344-.665-.5-.719-.356-.578-.18-.6-.1-.617-.018-.632.06-.665.144-.617.21-.587.29-.533.356-.755.725-.6.878-.443,1.036-.266,1.156-.111,1.345.021,1.869.021,1.767-.114,1.189-.278.988-.207.419-.264.389-.587.587-.74.461-.1.12.036.15.03.027.913.686.1.021.075-.066.009-.027-.012-.087,0-.042.069-.072.1.018,1.425.9.578.386.494.428.407.473.321.518.24.569.147.617.063.659-.019.488q.087.174.164.351l.043-.027.632-.716.557-.863.5-1.033.623-1.554.287-.743.057-.24-.009-.248-.174-1.183-.1-1.2-.018-1.15.063-1.1.141-1.033.213-.94.3-.886.362-.773.042-.177-.06-.174-.153-.285-.069-.282.063-.527.311-.536.509-.485.662-.383.5-.359.581-.674.06-.144Z" transform="translate(-194.655 -237.213)" fill="#78534b"/>
      <path id="Path_1012448" data-name="Path 1012448" d="M1611.127,1490.254l-.1-.31-.218-.233-1.029-.691-.131-.024-.129.011-.213-.077-.2-.211-.4-.59-.317-.584-.021-.1.1-.179.211-.006.235.2.181.327.12-.058.024-.188-.173-1.755-.351-1.691-.525-1.665-.159-.336-.207-.3-.332-.31-.409-.25-1.884-.939-1.535-.872-.039-.01-.056.041v0l.009.067.416.48.735.7,1.18.958.157.123.119.228-.09.243-.028.024-.552.4-.485.246-1.316.476-1.152.353-1.04.252-.976.159-.928.064-.862-.028-.827-.119-.819-.222-.941-.392-.872-.525-.11-.015-.075.084,0,.045.511,3.687.648,4.142.1,1-.011.9-.054.17-.123.129-.166.063-.177-.019-.094-.047-1.4-.954-.487-.239-.461-.119-.452-.013-.409.1-.355.185-.3.267-.241.332-.173.386-.106.44-.024.47.054.452.136.456.235.5.278.437.319.371.37.312.523.3.594.2.665.1.734,0,.129.032v0l.084.086.024.119-.041.114h0l-.092.075-.222.163-.08.129-.009.153.328,2.272.093,2.055.03.358.093.321.308.485.5.416.715.366,1.046.371,1.715.437,1.732.205,1.152.007.56-.054.42-.108.323-.17.232-.243.1-.222.037-.267-.114-.685-.159-.247-.235-.093-.325.022-.131-.028-.073-.116v-.015l.043-.456.155-.377.013-.024-.015-.1-.084-.049-1.436-.084-.327-.069-.289-.159-.2-.308-.009-.024.024-.071v0l.056-.015.017-.006,1.241.147,1.163-.024,1.086-.194,1.006-.362.129-.062.793-.437.724-.487.674-.56.6-.609.635-.808.534-.875.446-.963.344-1.016.252-1.116.153-1.163.054-1.234-.048-1.266Zm-5.975-2.522.256.368.2.469.106.495v.448l-.106.332-.2.166-.256-.024-.278-.213-.256-.368-.2-.467-.1-.495V1488l.106-.332.2-.168.258.026.276.211Zm-2.576-1.529h-.006l-.009-.022-.045-.269.114-.312.254-.3.357-.248.108-.058.4-.155.4-.039.317.08.2.192.013.017,0,.007-2.1,1.105Zm6.142,8.932-.259.879-.345.614-.233.233-.258.173-.541.163-.65-.039-.689-.239-.659-.411-.6-.551-.472-.639-.286-.668-.071-.607.045-.181.11-.151.162-.1.183-.03,3.308.089.629-.125.489-.1.149.054.073.14.02.609-.1.887Zm1.64-4.634-1.2.9-.194.052-.174-.106-.005-.007-.054-.217.1-.194.719-.648.127-.2-.007-.239-.1-.3.015-.069.063-.02.032.019.7.672.011.013.056.179-.092.162Z" transform="translate(-261.125 -249.021)" fill="#f1b699"/>
      <path id="Path_1012449" data-name="Path 1012449" d="M2311.85,1480.19l.078.123.044.3-.015.3-.065.13-.078-.123-.045-.3.013-.306.067-.13Z" transform="translate(-847.751 -249.647)" fill="#697a93"/>
      <path id="Path_1012450" data-name="Path 1012450" d="M1570.389,1483.71l-.069.249-.132.182-.078.059-.02.005-.03-.061.329-.435Z" transform="translate(-243.794 -252.513)" fill="#040403"/>
      <path id="Path_1012451" data-name="Path 1012451" d="M1575.272,1502.621l-.026.017-.043,0-3.787-2.435-.279-.249-.048-.21h0l.21-.043.342.15,3.791,2.431.021.028-.006.039-.175.273Z" transform="translate(-244.632 -265.534)" fill="#040403"/>
      <path id="Path_1012452" data-name="Path 1012452" d="M1651.559,1509.8h-.005l-.009-.02h0l-.045-.269.113-.312.255-.3.357-.249.108-.058.405-.156.4-.037.318.08.2.191h0l.013.019,0,.006-2.1,1.1Z" transform="translate(-310.108 -272.618)" fill="#040403"/>
      <path id="Path_1012453" data-name="Path 1012453" d="M1661.483,1522.89l.256.026.279.212.254.368.2.468.106.494v.449l-.108.333-.2.167-.256-.026-.279-.212-.256-.368-.2-.468-.106-.494v-.449l.106-.332.2-.167Z" transform="translate(-317.991 -284.417)" fill="#040403"/>
      <path id="Path_1012454" data-name="Path 1012454" d="M1685.915,1533.469l.695.674.013.011.056.18-.091.162-1.2.9h0l-.2.052-.175-.106-.006-.009-.054-.215.1-.195.719-.646.126-.2-.008-.24-.095-.3.015-.069.063-.022h0l.031.019Z" transform="translate(-337.354 -293.015)" fill="#040403"/>
      <path id="Path_1012455" data-name="Path 1012455" d="M2116.56,1545.812l.267-.143.349-.067.433,0,.548.063,1.361.334,1.774.611.147.054.171.137.054.21v.009l-.076.137-.152.033h0l-.026-.005-1.452-.5-1.261-.34-1.1-.193-.927-.041-.074-.015-.1-.13.06-.152Z" transform="translate(-688.747 -302.909)" fill="#040403"/>
      <path id="Path_1012456" data-name="Path 1012456" d="M1518.978,1547.183l.007.024-.007.009h0l-.193.1-.345-.03-.437-.158-.468-.264-.071-.048-.425-.327-.318-.34-.162-.306.017-.219.007-.007.007-.007.015,0,2.372,1.569Z" transform="translate(-200.23 -302.917)" fill="#697a93"/>
      <path id="Path_1012457" data-name="Path 1012457" d="M2118.5,1553.81h-.02l-.06.045,0,.074.49,1.2.414,1.255.332,1.306.254,1.359v.009l-.035.117-.115.054-.167,0-.137-.048-.069-.132-.238-1.517-.358-1.426-.485-1.335-.611-1.239,0-.124.1-.071h.048l.979.208.572.243,1.285.962,1.194,1.1,1.1,1.231,1.012,1.365.013.019.006.147-.1.108-.007,0-.178.007-.147-.108-.747-1.02-.8-.945-.858-.88-.916-.812h0l-1.413-1.046-.327-.108Z" transform="translate(-689.716 -309.211)" fill="#040403"/>
      <path id="Path_1012458" data-name="Path 1012458" d="M1662.767,1555.128l-.073-.14-.149-.054-.489.1-.629.125-3.308-.089-.183.03-.162.1-.11.151-.045.181.071.607.286.668.472.639.6.551.659.411.689.239.65.039.542-.163.258-.173.233-.233.345-.614.26-.879.1-.887-.02-.609Zm-.589,1.5-.269.711-.37.495-.448.267-.5.045-.53-.153-.8-.461-.624-.6-.317-.484-.243-.545.024-.23.194-.127h.058l2.608.22.442-.013.723-.1h.015l.114.045.045.116Z" transform="translate(-315.091 -310.509)" fill="#040403"/>
      <path id="Path_1012459" data-name="Path 1012459" d="M1664.321,1558.476l-.123.815-.269.713-.368.494-.449.266-.5.045-.531-.152-.8-.461-.622-.6h0l-.318-.483-.241-.544.022-.232.195-.124h.058l2.608.217.444-.011.722-.1h.015l.113.045.045.117Z" transform="translate(-317.111 -313.177)" fill="#f1b699"/>
      <path id="Path_1012460" data-name="Path 1012460" d="M1931.8,1568.531l.039.017.024.073-.052.059-1,.36-.908.4-.806.442-.709.488-.3.113-.639.043-1.215.056-.865-.056-.689-.189-.542-.323-.089-.191.089-.191.683-.423.9-.319,1.047-.243,1.047-.167,1.046-.1,1.046-.017h0l.949.05.949.111Z" transform="translate(-532.031 -321.45)" fill="#f1b699"/>
      <path id="Path_1012461" data-name="Path 1012461" d="M1940.911,1578.577l-.812-.037-.841.039-2.089.327-1.373.234-1.345.093-1.326-.061h0l-1.335-.215-1.319-.37-.739-.15-1.443-.019-2.013.128-1.259.087-.693-.054-.605-.215h0l-.03-.015-.083-.063-.093-.147-.019-.177.061-.165.128-.119.5-.245.542-.184.587-.132.669-.08,1.464-.006,1.683.206.024,0,.154-.059.056-.152v-.013l-.087-.191-.188-.087-7.065-.656-.515-.11-.431-.225-.11-.121-.047-.156.024-.162.089-.137.054-.041.488-.243.646-.182.748-.1.879-.03,1.014.048,1.105.121,2.39.449h0l.2-.033.117-.169v-.007l-.033-.208-.165-.128-1.033-.245-1.133-.171-3.2-.2-1.7-.074-.553-.074-.513-.171h0l-.344-.18-.132-.128-.065-.175.015-.186.095-.158h0l.063-.057.611-.386.639-.318h0l.741-.275.782-.189.815-.1.852-.022.139.052.078.126.225.6.358.435h0l.338.2.4.123.474.037.539-.045,1.471-.3,1.8-.5h.21l.176.11,1.974,2.257.4.355.407.277.411.2.416.113.113-.017.1-.162-.1-.165-.583-.327-.507-.349-.461-.4-.461-.485-1.138-1.491-.137-.191-.16-.156-.2-.1-.223-.03-.217.041-1.59.492-1.606.312-.823.011-.308-.084-.262-.147-.28-.318-.2-.47,0-.162.093-.135.685-.446.986-.464,1.3-.494,1.233-.381,1.163-.267,1.092-.152.379.013.49.093,1.311.422,3.447,1.417.483.161.55.108,1.309.045.258.078.156.221.4,1.633.288,1.686.169,1.735.061,1.785v.006l-.048.1-.106.037Z" transform="translate(-528.579 -321.996)" fill="#f1b699"/>
      <path id="Path_1012462" data-name="Path 1012462" d="M2229.3,1587.714l.828.2h0l1.523.435,1.506.514.024.013.18.182-.005.21-.18.108-.1-.019-1.811-.67-2.063-.557-2.1-.4-1.926-.186-.093-.024-.117-.176.087-.191.24-.087h.026l1.583.191,1.562.273.832.18Z" transform="translate(-777.072 -336.677)" fill="#040403"/>
      <path id="Path_1012463" data-name="Path 1012463" d="M1538.365,1633.016l.067-.08.1-.03,1.617.077,1.575.168,1.533.263,1.492.36,1.465.456,1.454.556,1.441.655,1.428.762.073.078.015.1-.06.131-.133.073-.278-.069-1.382-.709-1.38-.618-1.383-.525-1.391-.427-1.41-.342-1.456-.258-1.5-.175-1.551-.094-.272-.08-.078-.133.015-.144Zm13.452-12.064.039.164-.088.142-1.814,1.314-.163.037-.144-.088-.01-.013-.039-.164.088-.142,1.814-1.314.162-.037.142.088.011.013Zm-5.73.342,1.286-.693,1.32-.542,1.374-.4,1.437-.25.189.054.082.17,0,.03-.024.069-.19.1-1.1.2-1.075.278-.538.174-.525.2-1.021.446-.986.53-.209.043-.063-.035-.021-.024-.043-.183.114-.159Zm33.428-6.493-.056-.483-.129-.437-.189-.344-.265-.276-.308-.185-.379-.112-5.32-.9-2.231-.474-.745-.218-.5-.213-2.4-1.324-.459-.332-1.475-1.318-1.581-1.31-1.688-1.3-1.787-1.294-.758-.478-1.012-.56-.881-.485-1.441-.778-1.126-.495-.116.009-.067.1,0,.024.011,2.363-.11.407-.306.289-.556.235-.683.159-.743.071-.844-.009-.92-.089-.967-.17-1.008-.252-.946-.308-1.055-.435-.767-.457-.523-.5-.31-.573-.082-.377,0-.416-.05-.134-.138-.039-.043.013-1.574.863-1.361.952-1.137,1.038-.92,1.133-.706,1.087-.618,1.066-.68,1.363-.616,1.465-.59,1.646-.674,2.126-2.711,8.544-1.329,3.911-1.312,3.672-.51,1.648-.136.691-.058.6.011.659.073.624.243.963.4.976.571,1.036.95,1.466.123.185.164.138.213.024.8-.147,3.112-.538,2.231-.3,1.956-.138,1.772.026,1.473.147,1.624.263,1.8.377,2.382.575,2.057.5,1.129.209,1.081.118,1.06.022.991-.067.952-.168.868-.252.82-.345.782-.452.808-.62,1.581-1.365.088-.078.02-.114-.207-1.51-.08-.19-1.146-1.415-.1-.047-.1.051-.015.026-.22.386-.272.235-.293.106-.327.024-.946-.188-2.95-.9-2.787-1-2.632-1.1-2.474-1.209-1.367-.807-1.24-.907-1.1-1.01-.976-1.111-.491-.665-1.2-1.919-1.12-2.126-1.03-2.333-.943-2.539.009-.166.12-.114.088-.032.011,0,.183.011v0l.116.144.651,1.958.8,1.94.941,1.923,1.09,1.9,1.085,1.557,1.219,1.357,1.18,1.027,1.331.926,1.555.874,1.85.866,3.7,1.482,3.993,1.366.2.062.894.232h.3l.269-.078.261-.2.224-.338,1.585-3.047,1.658-2.862.075-.2-.006-.213-.084-.192-.149-.149-5.07-3.508-2.315-1.706-2.167-1.674-.164-.205-2.134-4.424-2.063-4-.551-.956-.581-.855-.623-.767-.639-.648-.674-.551-.676-.428-.709-.327-.754-.224-1-.123-1.012.056-.3.1-.5.258-.1.021-.157-.1.009-.189.194-.217.405-.173.844-.11.8-.015.773.084.728.174.67.258.631.334.622.429.582.5.569.594.573.7,1.1,1.671,1.226,2.175,1.148,2.169,1.066,2.158.986,2.149.129.161,6.836,5.16.009.007.144.026.116-.088.078-.3.138-2.966.024-2.929-.088-2.894-.2-2.851-.213-1.749-.319-1.729-.385-1.533-.472-1.514-.009-.05.064-.134.149-.03.019.005.245.138.159.233.521,1.587.37,1.669.334,2.311.222,2.352.1,2.393-.009,2.431.084.231.218.116,1.3.271.6.213.551.258.149.084.316.155.713.2,1.532.179,1.551.089h1.57l1.583-.089,3.93-.377,2.959-.381.209-.065.177-.123.135-.173.075-.207.179-1.086.108-1.146.039-1.21-.034-1.273Zm-15.019.223-.106.039-.349-.16-.039-.108,1.6-3.469.106-.039.349.161.039.108-1.6,3.469Zm4.294-1.935-2.169,2.819-.157.09-.172-.047-.01-.007-.09-.155.047-.172,2.171-2.819.155-.09.172.047.011.007.088.155Z" transform="translate(-210.865 -348.322)" fill="#f3c288"/>
      <path id="Path_1012464" data-name="Path 1012464" d="M2240.725,1605.283l-.152.137-.219.082-.217-.087-.726-.635-.754-.574-.787-.522-.815-.468h0l-.862-.416-.891-.357-.165-.143-.024-.221.006-.022.007-.02.143-.147.206.009,1.144.583,1.252.717,2.84,1.814.017.015.057.126-.057.128Z" transform="translate(-785.328 -348.745)" fill="#040403"/>
      <path id="Path_1012465" data-name="Path 1012465" d="M1658.74,1603.44l.115.085.048.206-.044.208-.115.087-.115-.085-.048-.206.045-.208.115-.087Z" transform="translate(-315.873 -350.007)" fill="#78534b"/>
      <path id="Path_1012466" data-name="Path 1012466" d="M2284.736,1647.845l-.048.173-.156.087-14.65,1.774-.173-.048-.087-.156,0-.011.048-.173.156-.087,14.65-1.774.173.048.087.156,0,.011Z" transform="translate(-813.429 -385.989)" fill="#040403"/>
      <path id="Path_1012467" data-name="Path 1012467" d="M2069.822,1654.235l1.129,1.046,1.163,1.32,1.239,1.647,1.471,2.175.021.039.006.269-.2.182-.687.282-.717.416-.773.576-.91.793-1.267,1.133-.62.479-1.417.641-1.43.449-2.141.479-.927.193-.535.175-.527.275-.542.386-.568.5-.578.615-.585.713-1.218,1.77-.39.457-.349.243-.228.059-.23-.05-.18-.152-.089-.217,0-.171.253-.951.42-1,.579-.964.752-.969,1.055-1.142.059-.1.006-.126-.054-.117-.1-.071-.126-.015-.425.182-.528.429-.631.695-.587.793-.734,1.339-.522,1-.46.715-.485.578-.542.47-.048.03-.149.039-.156-.026-.13-.089-.076-.135-.078-.377v-.431l.078-.483.152-.539.489-1.216.611-1.144h0l.957-1.365,1.157-1.244.117-.241-.078-.262-.013-.017-.227-.126-.245.084-.019.019-.944,1.07-.763.983-.587.9-.406.819-1.027,2.4-.18.232-.225.132-.288.056-.225-.063-.143-.186-.106-.394-.044-.4h0l.019-.416.083-.42.347-1.075.425-1.021.5-.968.582-.912.862-1.094.988-1,.074-.175-.084-.171h0l-.03-.021-.1-.059-.146-.033-.137.054-.6.516-.541.563-.5.622-.485.713-.9,1.662-.938,2.243-.1.149-.152.1-.18.024-.171-.05h0l-.046-.03-.013-.009-.171-.167-.113-.21-.048-.234.024-.236.557-1.984.47-1.213.581-1.018.689-1.034.728-.934.75-.832.734-.676.719-.537.728-.407.685-.249,4.6-1.163.128-.024,2.11-.488.715-.256.622-.312.537-.351.533-.436,2.028-1.915.188-.08.2.065Z" transform="translate(-635.819 -391.315)" fill="#f1b699"/>
      <path id="Path_1012468" data-name="Path 1012468" d="M1715.234,1658.5l-.108.039-.347-.16-.039-.108,1.6-3.469.108-.039.347.16.039.108-1.6,3.469Z" transform="translate(-361.603 -391.795)" fill="#040403"/>
      <path id="Path_1012469" data-name="Path 1012469" d="M1810.2,1660.412l-.03.137-.189.214-.2.085-.321-.089-.089-.021-.08.048-.035.124.059.111.015.009.121.069.028.02.056.162-.083.15-.593.422-.152.054-1.031.149-.4.128-.314.16-.555.392-1.036.711-.732.319-.709.111-.748.011-.828-.1-1.06-.217-.981-.2-.706-.069h-.013l-.1-.059-.024-.119.238-1.718.043-1.985.035-.158.1-.123.929-.446,1.58-.893.912-.544.648-.314.819-.288.821-.2.819-.119.819-.037,1.242.108,1.239.3.139.08v0l.091.134.028.16-.045.154-.035.054-.4.163-.99.13-1.185-.063-1.057-.095-.882,0-.767.1-.67.2-.615.3-.054.1.061.093.067.007.541-.11,1.3-.228.992.005.139.1.007.175,0,0-.035.046-2.964,3.052-.054.13.052.13.288.223.37.147.043.005.149-.065.045-.163-.054-.275v-.006l.007-.145.067-.137.99-1.137,1.1-1.025.327-.418.18-.355.095-.132.156-.045.234.005,1.345.091.479.1.392.147.3.167.048.046.026.163-.121.117-2.333.672-.195.167-.015.03.015.136.109.067.039,0,2.357-.592h0l.035.013.052.093,0,.189-.056.266.076.206.188.193Z" transform="translate(-430.597 -393.049)" fill="#f1b699"/>
      <path id="Path_1012470" data-name="Path 1012470" d="M1726.965,1665.61l-.154.089-.173-.046-.009-.007-.089-.156.046-.173,2.171-2.817.154-.089.173.047.009.007.089.154-.046.173-2.171,2.819Z" transform="translate(-371.212 -398.024)" fill="#040403"/>
      <path id="Path_1012471" data-name="Path 1012471" d="M1851.5,1673.62l-.011.031-.009.026-.006.017-.076.033-10,.264-.041-.019-.045-.02v-.13l5.308-7.031.041-.024.028-.017.011.005.091.039,4.689,6.77Z" transform="translate(-464.666 -401.559)" fill="#83b9bc"/>
      <path id="Path_1012472" data-name="Path 1012472" d="M1527.724,1745.932l-.015.461-.078.456-.138.448-.011.034-.211.456-.562.844-.073.11,0,0-.681.721-.211.224,0,0-.56.457-.62.5-.019.011-1.4.926-1.65.907-1.807.838-2.248.907-2.313.851-2.371.788-2.434.728-5.164,1.35-5.617,1.258-6.076,1.165-6.532,1.073-8.849,1.3-5.951.762-6.8.719-6.007.571-5.662.474-5.5.388-4.9.286-6.84.388-7.663.429-5.6.22-10.43.258-8.981.123-8.311,0-7.956-.129-11.927-.293-6.037-.229-6.829-.342-7.622-.456-8.412-.564-7.839-.644-8.178-.855-8.518-1.068-8.854-1.275-4.128-.67-3.986-.722-3.8-.767-3.653-.82-3.467-.862-3.321-.917-3.14-.961-2.985-1.012-2.587-1.006-2.339-1.079-1.861-1.027-.133-.073-.021-.011-.792-.54-.847-.579-.676-.556-.013-.009-.493-.467-.088-.084-.129-.144-.366-.412-.411-.569-.006-.006-.112-.2-.192-.349-.127-.317-.1-.245-.108-.478-.017-.073-.034-.564.089-.7.25-.715.394-.694.564-.711,1.03-1.012,1.18-.941,1.335-.868,1.49-.8,1.885-.875,1.992-.84,2.123-.812,2.225-.776,2.36-.749,2.468-.713,5.089-1.284.28-.071h.069l10.727-2.164c.015.022.03.047.043.069l.094-.1.037-.009L1321,1729.54h.048l.134.091.009.159-.371,1.027-.237,1.016-.1,1,.036.984.14.855.248.844.351.833.456.823.775,1.264.007.013.007.149-.1.108-4.456,1.919-.123-.015-.521-.45-.92-.75-.547-.327-.526-.226-.543-.136-.521-.043-.556.054-.54.149-.536.239-.566.351-.558.437-.577.543-1.406,1.563-.571.549-.767.525-.978.523-1.491.68-2.027.95-.7.4-.584.4-.51.433-.383.431-.3.461-.209.508-.108.541.019.674.218.581.237.3.3.243.385.205.431.149,1.094.168,1.387-.017,3.883-.347,3.79-.431.121.032.063.114.189.808.168.345.215.3.295.295.353.245.413.194.47.147,7.745,1.684,3.3.659,2.953.463,2.754.295,2.63.129,1.18-.019,1.105-.094,1.06-.174.967-.252.913-.328.814-.4.752-.48.7-.569.6-.616,1.019-1.312.22-.172.28-.032,2.528.258,2.694.047,1.8-.11,1.432-.261.625-.19.6-.248.541-.287.519-.351.192-.034.14.134.011.067.039.4.1.287.121.127.172.047,7.628.153.338-.06.293-.185,1.075-1.109,1.111-1.309.02-.026.235-.474.077-.6-.062-4.077-.136-3.65-.071-.162-.164-.069-6.571-.09-.5.03-.4.089-.407.187-.525.344-.03.022-.267.071-.248-.114-3.2-3.168-.065-.112-.461-1.736,0-.02.093-.064.493.135.8.142.816.052.836-.036.859-.123.291-.05.685-.159.2-.108.149-.155.075-.192.013-.252,0-.047.088-.094.129.015.456.271.478.179.6.1.629-.024.159-.056.123-.114.069-.153,0-.164-.008-.024-.224-.541-.155-.187-.187-.129-.267-.084.054-.3,1.232.416.28.022.262-.106.218-.211.114-.228,0-.379-.2-.444,0-.005-.342-.426-.05-.062-.6-.568-.026-.041.024-.089.089-.023.683.106.3-.039.263-.1.121-.075.181-.088a1.5,1.5,0,0,0,.446-.515v0l-.123.006-.706.127s.36-.25.259-.394c-.067-.1-1.2-.773-1.921-1.193a.594.594,0,0,0,.653-.229.225.225,0,0,0,.024-.035,1,1,0,0,0,.118-.28,1.806,1.806,0,0,0,.028-.555l-.42-.312-.672-.336-.745-.213-.818-.08-.943.039-1.279.17-1.208.166-.224-.007-.213-.071-.187-.127-.144-.17-.422-.47-.838-.6-.594-.4-.174-.2-.056-.261,0-.054,22.51-.431,4.575-.024.084.037.036.084.024,4.557-.073.193-.179.093-1.318.243-.59.228-.381.319-.22.491-.063.762.213,7.525v.007l-.034.071-.075.028-2.4-.144-2.384-.054-.724.084-.571.25-2.453,1.624-.258.278-.093.366.1,8.8.05.312.138.228.243.153.345.054,9.424.084.233-.058.177-.16,1.542-2.283.131-.278.045-.306-.036-7.169.045-.138.013-.007.181-.1h2.684l.1.043.045.1.05,10.1.045.219.123.187.187.125.218.045,9.493.084.192-.041.149-.127,1.273-1.682.106-.217.024-.239-.062-2.145-.024-4.1-.054-1.3-.159-1.012.015-.119.093-.078.724-.306.446-.287.411-.347.377-.412.343-.472.063-.213.078-8.806-.039-.1-.1-.041-8.106.041-.119-.05-.052-.119-.026-4.96.1-.235.235-.1,27.479.243.123.058.036.129,0,.02-.082.461.015.457.108.39.213.338.019.019.258.291.047.146-.015.153-.73,2.3-.351,1.318-.209,1.6.024,1.544.252,1.428.211.694.271.663.676,1.2.9,1.115,1.09.991,1.247.838,1.445.721,1.566.551,1.688.388,1.759.213,1.686.1.177.058.129.134.62,1.111.14.2,1.081,1.126,1.128.961,1.176.8,1.225.625,1.818.683,1.992.538,2.156.394,2.33.25,2.785.166,2.912.1,3.071.026,3.2-.045,3.366-.114,3.508-.183,7.557-.577,15.364-1.48,7.753-.788,4.124-.344.228-.1.1-.224.162-2.647.054-.1.114-.024.024.009,2.078.9,1.88.82,1.376.678.222.116,1.5.749,1.439.618,1.313.452,1.2.293,1.014.119.872-.041.737-.217.555-.37.275-.312.2-.336.134-.371.069-.386v-.428l-.063-.435-.328-.963-.573-.971-.907-1.133-1.462-1.553-1.137-1.2-.741-.853-1.637-2.072-1.249-1.671-.01-.021.069-.067,4.445,1.129,3.749,1.1,3.441,1.176,3.207,1.286,1.445.655,1.286.663,1.135.661,1.016.689.881.7.758.723.651.765.519.777.358.8.151.842Z" transform="translate(-2.173 -447.937)" fill="#f3c288"/>
      <path id="Path_1012473" data-name="Path 1012473" d="M2263.23,1675.339l-.29-.069-.34-.191v-.011l.067-.039.065-.006.058,0,.488.117.06.089-.048.1h0l-.059.013Z" transform="translate(-807.713 -408.293)" fill="#040403"/>
      <path id="Path_1012474" data-name="Path 1012474" d="M2268.565,1676.791l-.186-.019-.039-.028v-.069l.063-.026.111.05.05.091Z" transform="translate(-812.387 -409.62)" fill="#5a667a"/>
      <path id="Path_1012475" data-name="Path 1012475" d="M2060.076,1703.383l-.011.347h0l.03,1.135.141,1.137.249,1.137.359,1.142,0,.015-.019.074-.073.033-1.044-.019-1.031-.082-1.016-.143-1-.21h0l-1.794-.548-1.742-.76-.425-.31-.7-.631-.474-.254-.106-.059-1.631-1.907-.052-.078-.412-.966-.3-.99h0l-.165-.836-.087-.851-.011-.871.063-.89.167-1.081.268-1.187.368-1.285.47-1.389.074-.084.111-.015.006,0,.106.076.024.126-.067.505.013.435.093.327.178.247.225.139.3.069.338,0,.408-.069.134.011.1.093.076.141.26.435.3.26.455.126.336-.059.39-.221.407-.371.362-.457.123-.069.126.063.024.048.221.507.331.31h0l.3.1h.362l.2-.058.171-.117.682-.663.262-.4,1.014-1.486.776-.938.8-.709.858-.494.518-.189.57-.132,2.236-.4,1.324-.407h0l.984-.444.942-.557.9-.669.858-.782,1.22-1.131.516-.377.479-.277.808-.169.18-.007.251.076.293.188.3.191.26.082.4-.048,2.9-1.111,3.161-1.46.473-.1.464.132.113.061.06.046.082.241-.141.214-.03.017-4.166,2.574-5.6,3.731-1.252.847-2.465,1.785-2.073,1.755-2.069,2.028-.771.851-.593.743-.646,1-.542,1.092-.435,1.187-.327,1.276-.069.652Z" transform="translate(-633.588 -414.913)" fill="#5a667a"/>
      <path id="Path_1012476" data-name="Path 1012476" d="M2180.328,1708.328l-.164-2.009-.3-1.983-.383-1.755-.489-1.738-.582-1.643-.6-1.322-.59-.946-.288-.332-.3-.252-.159-.069h-.174l-2.147.364-1.421.159-5.447.422-3.377.284-2.289.129-.313.078-1.1.435-1.342.317-4.529.771-4.448.7-4.37.624-4.292.547-1.2.069-1.523-.041-.252.03-.226.119-3.222,2.548-.114.024-.092-.073-.009-.03-.009-.069.03-.185.118-.147,3.069-2.305.049-.056.1-.22.108-.112v0l.151-.026.59.063,1.689.011,2.324-.245,1.374-.168,3.728-.5,10.417-1.721,1.548-.381.594-.218.476-.243,1.536-1.038,1.875-1.469.719-.644.719-.748.715-.85.719-.959.543-.8.9-1.52.788-1.593.674-1.669.56-1.74.009-.287-.119-.129-.173,0-.013.005-1.856.834-1.884.7-1.908.556-1.932.416-1.493.224-1.51.142-1.523.06-1.54-.021-3.51-.235-1.422-.17-1.2-.209-9.321-1.9-.2-.017-7.034.1-.33.086-4.15,2.423-4.059,2.626-3.961,2.821-3.866,3.026-1.1.967-.874.913-1.73,2.117-.726,1.342-.526,1.348-.329,1.352-.136,1.355.024.932.114.931.207.937.3.939.33.78.386.734.592.881.678.8.79.745.862.663.984.609,1.042.517,1.137.446,1.178.351,2.257.506,2.373.386,2.477.267,2.589.146,4.127.067,4.168-.078,4.213-.217,4.258-.358,5.124-.416,5.354-.437,4.891-.444,4.531-.4,3.3-.347,4.628-.47,4.678-.334.254-.112.118-.252.106-2.059-.03-2.035Zm-22.866-18.134,1.284-1.486.1-.05.1.036.013.011.049.1-.034.1-1.284,1.486-.1.05-.1-.036-.015-.011-.049-.1Zm-3.677,2.688.136-.189.556-.454.639-.328.228-.05.119.041-.011.125-.136.189-.556.456-.638.327-.23.05-.117-.041Zm-22.361,8.666.536-.317.566-.231.732-.17,3.073-.332.288-.063,5.834-2.16,2.276-.894,2.429-1.088,2.582-1.275,2.737-1.471.14-.019.112.088,0,.006.024.147-.08.123-.98.62-1.309.681-2.865,1.34-2.806,1.2-2.75,1.062-2.692.93-.586.274-.737.485-.306.114-2.21.252-2.406.411-.624.215-.65.407-.174.052-.164-.078-.019-.019-.009-.011-.041-.147.08-.131Zm46.529.618-.064.094-.1.037-2.729.2-2.565.286-2.4.368-2.24.457-3.157.833-4.452,1.372-4.252,1.3-7.628,2.222-3.366.926-3.45.837-3.536.749-3.623.659-1.4.194-1.419.119-1.437.043-1.462-.03-.155-.067-.075-.151,0-.009.043-.135.129-.062h.015l1.592.052,1.542-.037,1.482-.119,1.432-.205,4.376-.847,3.956-.917,3.887-1.046,4.794-1.383,12.315-3.786,1.632-.482,1.659-.426,1.688-.366,1.718-.308,1.745-.248,1.773-.193,3.629-.209h.021l.1.065.019.118-.028.095Z" transform="translate(-685.317 -415.436)" fill="#5a667a"/>
      <path id="Path_1012477" data-name="Path 1012477" d="M1620.536,1699.57l-.524.2-1.021.446-.984.531-.21.041-.063-.035-.02-.024-.043-.182.115-.16,1.283-.691,1.32-.542,1.374-.4,1.438-.251.189.054.082.171h0l0,.03-.024.069-.191.1-1.1.2-1.075.279h0l-.54.175Z" transform="translate(-282.561 -427.412)" fill="#040403"/>
      <path id="Path_1012478" data-name="Path 1012478" d="M1702.682,1703.034l-.161,0v0Z" transform="translate(-351.653 -431.1)" fill="#83b9bc"/>
      <path id="Path_1012479" data-name="Path 1012479" d="M1715.366,1706.192l-1.285-.241-.93-.18.93.178Z" transform="translate(-360.309 -433.332)" fill="#83b9bc"/>
      <path id="Path_1012480" data-name="Path 1012480" d="M1639.407,1706.362l.039.163-.087.141-1.814,1.315-.163.037-.143-.087-.009-.015-.039-.161.087-.143,1.814-1.313.163-.039.141.087.011.015Z" transform="translate(-298.456 -433.731)" fill="#040403"/>
      <path id="Path_1012481" data-name="Path 1012481" d="M1858.537,1716.788l-.039.1,0,0-.022.009,0,0-.074.03h-8.246l-.1-.041-.007-.017-.033-.084-.048-9.056.028-.074.007-.019.106-.048,8.246-.041.078.024.006.011.059.1Z" transform="translate(-471.71 -434.781)" fill="#e08b82"/>
      <path id="Path_1012482" data-name="Path 1012482" d="M2355.605,1711.726l-.1.05-.106-.035-.013-.011-.05-.1.035-.1,1.283-1.488.1-.05.1.035.015.011.048.1-.033.1-1.285,1.488Z" transform="translate(-883.229 -436.768)" fill="#040403"/>
      <path id="Path_1012483" data-name="Path 1012483" d="M2337.35,1727.271l-.011.125-.137.189-.555.455-.639.327-.229.05-.119-.041.011-.125.137-.189.555-.453.639-.329.229-.05.119.041Z" transform="translate(-867.204 -450.806)" fill="#040403"/>
      <path id="Path_1012484" data-name="Path 1012484" d="M2236.272,1736.287l0,.005.024.147-.08.123-.979.62-1.31.683-2.866,1.337-2.806,1.2-2.749,1.062-2.693.929-.587.277-.736.485-.306.113-2.21.253-2.407.411-.624.215-.65.407-.173.05-.165-.076-.017-.019-.009-.013-.043-.147.082-.132.535-.316.566-.232h0l.73-.171,3.074-.333.288-.061,5.833-2.16,2.275-.9,2.429-1.088,2.582-1.276,2.738-1.469.139-.019.111.087Z" transform="translate(-768.864 -458.11)" fill="#040403"/>
      <path id="Path_1012485" data-name="Path 1012485" d="M2473.453,1750.087l-4.435-1.333-3.616-3.772-.843-.81-.871-.73-.9-.654-.925-.574-.083-.067-1.084-1.111,0-.005-.033-.1.05-.093,1.28-.878,1.2-.574.546-.165.474-.072.437.006.4.1.385.2.386.3.379.4.385.5,3.386,4.76,3.486,4.68Z" transform="translate(-968.988 -460.512)" fill="#78bdb8"/>
      <path id="Path_1012486" data-name="Path 1012486" d="M1733.859,1741.978h0l-.123.08-.316.033-1-.087-.975-.24-.288-.132-.089-.117.121-.082.316-.033,1,.087.975.24.286.134Z" transform="translate(-374.9 -462.344)" fill="#f1c1a2"/>
      <path id="Path_1012487" data-name="Path 1012487" d="M1838.622,1755.438l-.063.08-.238.028-.758.063-.648,0-.442-.074-.165-.125-.007-.054.132-.161v0l.41-.173.63-.162.75-.119.238-.028.045.009.035.054Z" transform="translate(-460.587 -473.182)" fill="#697a93"/>
      <path id="Path_1012488" data-name="Path 1012488" d="M1907.377,1756.118l-.18.106-.513.093-1.679.1-2.756.03-1.679-.065-.515-.084-.182-.1,0-.4,0-.007.007-.026.059-.035,7.366-.078.069.069Z" transform="translate(-512.35 -473.948)" fill="#f3c288"/>
      <path id="Path_1012489" data-name="Path 1012489" d="M1937.091,1759.18v7.587l-.054.139-.63.715-.082.058-.013.009-.117,0-.043-.028-.035-.021v0l-.039-.024-.048-.134v-7.589l.006-.05.048-.093.63-.715.11-.065.067,0h.028l.033,0,.1.08.009.028Z" transform="translate(-541.794 -476.651)" fill="#f3c288"/>
      <path id="Path_1012490" data-name="Path 1012490" d="M2468.724,1759.979l0-.024.087-.035,1.464,1.133,1.426,1.229,1.393,1.328,1.356,1.424.724.873.665.951.605,1.036.542,1.114.275.752.137.7v.656l-.134.609h0l-.2.442-.288.414-.373.386-.459.353-.2.073-.212-.033-4.253-1.8-.2-.165-.078-.245-.043-1.51-.108-1.447-.171-1.389-.236-1.33-.477-1.829-.88-2.626-.358-1.04Z" transform="translate(-975.552 -477.425)" fill="#dfddd8"/>
      <path id="Path_1012491" data-name="Path 1012491" d="M1878.919,1768.988l-.054.134-.134.057-1.621.019-.135-.054-.056-.134-.089-8.584.054-.134.132-.056,1.623-.017.134.054.056.132Z" transform="translate(-493.589 -477.669)" fill="#697a93"/>
      <path id="Path_1012492" data-name="Path 1012492" d="M1843.453,1769.341l-.039.468-.06.143-.069.05-6.5.173-.072-.048-.061-.141-.067-.464-.215-8.3,0-.006.007-.033.056-.033,6.731-.177.071.065Z" transform="translate(-460.644 -478.28)" fill="#83b9bc"/>
      <path id="Path_1012493" data-name="Path 1012493" d="M1898.515,1770.805l-.039.093-.093.039-7.694-.069-.1-.061-.007,0-.015-.059-.045-8.432.035-.087,0-.006.021-.007.009-.006.063-.026,7.695.071.089.037.037.089Z" transform="translate(-504.737 -479.265)" fill="#f3c288"/>
      <path id="Path_1012494" data-name="Path 1012494" d="M1583.02,1772.029l1.464.455,1.456.557,1.441.656,1.428.76.071.078.015.106-.059.132-.132.071-.279-.069-1.38-.709-1.382-.617-1.382-.524-1.391-.429-1.41-.342-1.456-.256-1.5-.176-1.551-.093-.273-.082-.078-.132.015-.143.067-.082.1-.03,1.618.078,1.575.167,1.534.264,1.491.36Z" transform="translate(-249.135 -486.577)" fill="#040403"/>
      <path id="Path_1012495" data-name="Path 1012495" d="M2199.234,1791.946l0-.009.043-.136.128-.059h.015l1.594.052,1.542-.037,1.484-.119,1.43-.208,4.376-.847,3.956-.916,3.887-1.046,4.8-1.384,12.313-3.785,1.633-.483,1.658-.425,1.69-.366,1.716-.308,1.746-.249,1.772-.191,3.629-.21h.022l.1.067.019.117-.028.095-.063.093-.1.039-2.73.2-2.565.284-2.4.368-2.24.459-3.156.832-4.454,1.372-4.253,1.3-7.626,2.223-3.367.925-3.449.836-3.538.748-3.624.659-1.4.195-1.419.119-1.437.043-1.462-.03-.156-.067-.074-.152Z" transform="translate(-756.112 -494.769)" fill="#040403"/>
      <path id="Path_1012496" data-name="Path 1012496" d="M2510.095,1792.193l4.086,4.619.72.929.509.916.165.607.039.672-.1.574-.219.392-.015.017-.251.208-.288.162-.739.2-.9.011-1.057-.163-1.271-.357-1.395-.528-1.525-.7-1.49-.8-.03-.024-.035-.121.072-.1.442-.279.375-.316.309-.347.236-.383.247-.713.046-.552-.054-.589-.149-.65-.252-.724-.353-.782-.44-.815-1.124-1.69,4.435,1.333Z" transform="translate(-1005.631 -502.618)" fill="#83b9bc"/>
      <path id="Path_1012497" data-name="Path 1012497" d="M1657.549,1800l0,0-2.944-2.864-.287-.123-.293.1-.153.133-1.544,1.258-1.217.754-1.264.525-.644.174-.687.116-1.57.082-1.794-.133-1.844-.323-.127.034-.045.121.015.048.657,1.333.545,1.357.437,1.374.329,1.4.058.308.12.974.019,1.012-.084,1.049-.183,1.083,0,.2.082.187.146.14.189.069.034,0,1.348.108,0,0,.043.084.106,0,2.821.056,1.927-.1.866-.123.784-.172.749-.224.737-.291.976-.506.09-.09.03-.123-.2-7.322.091-.306.248-.194.743-.368.694-.543.062-.14-.056-.147Zm-10.508,10.534-.039.011-.082-.034.127.009,0,.006-.01.007Z" transform="translate(-303.294 -507.624)" fill="#5a667a"/>
      <path id="Path_1012498" data-name="Path 1012498" d="M1501.153,1806.8l-.05-.082-.024-.186.069-.188.152-.154.2-.085,1.189-.189,1.185-.048h0l1.231.1,1.231.249.2-.026.119-.16h0l0-.017,0-.013-.035-.171-.151-.093-.152-.024-1.673-.225-1.12-.065-.9.074-.7.225-1.295.605-.206.006-.165-.123-.137-.2-.6-.9-.4-.713-.255-.611-.126-.542.035-.134.121-.072,3.555-.546,3.4-.412,1.042-.069,1.125,0,1.172.082,1.243.15,2.749.529,3.324.875.21.143h0l.026.136-.045.167,0,.293.67,1.69.485,1.408.362,1.306.24,1.224.121,1.148,0,1.085-.126,1.042-.247.968-.154.281-1.454,1.839-.345.345-.446.334-.841.518-.934.435-.979.332-1.07.243-1.157.152-1.244.065-1.384-.02-1.538-.108-2.68-.29-2.7-.381-2.728-.477-2.754-.565-6.248-1.376-.464-.245-.559-.559-.151-.277-.254-1.183-.069-1.15.111-1.14.284-1.085.306-.73.386-.693.462-.65.542-.6.6-.54.665-.485.73-.425.787-.362.111-.03.236.03,1.4.488,1.525.373,1.646.252,1.763.137.176.039.15.1.1.147.045.173.141,1.423.255,1.423.366,1.421.477,1.419.115.126.171.015.085-.024.063-.05.009-.078v0l-.886-2.886-.308-1.393-.059-1.226-.069-.461-.019-.028,0-.119.093-.074.2-.017.143.058.1.171.1.171,1.374,1.35,1.358,1.6.186.169.373.1.063-.015.078-.111-.054-.126-.778-.682-1.237-1.538-.5-.485-.448-.312-.3-.193Z" transform="translate(-176.999 -511.698)" fill="#697a93"/>
      <path id="Path_1012499" data-name="Path 1012499" d="M1522.845,1809.94l-1.571-.158-1.514-.258-1.449-.36-1.393-.457-.119-.137.048-.175h0l.063-.045,4.047-1.746.219-.045.219.054.176.134.1.2h0l.017.069.1.485.186.509.656,1.2.327.544.015.035-.028.111-.108.045Z" transform="translate(-200.425 -515.403)" fill="#f3c288"/>
      <path id="Path_1012500" data-name="Path 1012500" d="M1801.272,1807.807l-.028.113-.106.05-7.277-.065-.117-.091-.015-.011.005-.013.058-.139,1.75-1.012.071-.019,5.328.048.087.03.048.08Z" transform="translate(-425.923 -515.451)" fill="#e08b82"/>
      <path id="Path_1012501" data-name="Path 1012501" d="M1958.42,1810.541l-.133-.06-4.48-.181-.106-.047-.047-.112.028-3.028-.063-.151-.153-.067-8.849-.077-.287.041-.26.125-2.339,1.624-.248.282-.093.366.005,8.08.036.61.1.392.1.127.155.047,5.438.108.1.1.039,1.863.032.321.129.241.291.19.437.062,3.435.039,4.307.119.2-.032.164-.114,1.8-1.867.168-.228.084-.328.03-.6.03-7.706-.054-.134Zm-5.308-2.739.054.048,0,.028-.019,2.057-.1.229-.229.1-1.253-.013-.2-.089-.078-.207v-.011l.05-.59.043-.144.1-.118,1.566-1.273.069-.015Zm-10.519.691.011-.019,1.779-1.171.054-.017,8.158.077.082.06.007.006-.039.11-1.779,1.169-.054.015-8.158-.073-.084-.086-.011-.011.034-.06Zm4.758,3.664-.084.308v5.472l-.054.129-.129.054h0l-4.986-.1-.131-.056-.054-.129v-8.559l.06-.144.144-.058,8.546.172.1.041.045.1-.06.655-.157.177-3.011,1.71-.228.224Zm8.577,8.857-.14.056-7.8-.155-.121-.049,0-.005-.026-.045-.037-.063v-.03l-.045-8.053.015-.075.021-.026.026-.032.026-.032.114-.032,7.8.159.127.052.007,0,.054.134.041,8.052-.06.14Zm.232-8.961-.077.02-7.217-.144h-.007l-.084-.039-.028-.05-.013-.024,0-.006.007-.052.006-.034,0-.007.069-.062,2.221-.959.063-.011,6.453.258.129.1v.1l-.064.075-1.458.842Zm1.755,6.976-.008.043-.035.069-1.051,1.2-.054.039-.065,0-.088-.006h-.011l-.007-.013-.073-.131.069-7.574.062-.131.982-.8.062-.03.032.005.092.017.026.006.007.015.062.121v7.176Z" transform="translate(-546.158 -515.613)" fill="#040403"/>
      <path id="Path_1012502" data-name="Path 1012502" d="M1440.238,1809.434l-1.168.626-1.009.724-.854.826-.689.925h0l-.542,1.047-.377,1.151-.21,1.254-.045,1.358-.039.111-.1.056-4.424.464-3.657.306-1.057,0-.88-.149-.622-.286-.225-.191-.175-.232-.113-.277-.048-.323.028-.451.152-.507.26-.47.377-.449.516-.455.617-.431.745-.435,2.19-1.042,1.863-.882,1.081-.67.734-.646.88-.953.713-.778.411-.377.455-.336.461-.266.488-.21.464-.13.47-.059.444.013.444.084.3.1.431.228.509.36,1.255,1.111.048.126-.069.117h0l-.024.015Z" transform="translate(-124.86 -515.989)" fill="#f3c288"/>
      <path id="Path_1012503" data-name="Path 1012503" d="M1947.759,1810.527l1.779-1.17.054-.017,8.157.076.085.054-.033.123-1.779,1.168-.054.015-8.157-.072-.091-.065.033-.108.006,0Z" transform="translate(-551.313 -517.666)" fill="#e08b82"/>
      <path id="Path_1012504" data-name="Path 1012504" d="M1727.234,1811.078l-.05.084-1.709,1.382-.089.033-6.989-.061-.119-.089v0l-.019-.015.007-.017.061-.145,2.392-1.378.021-.011.05-.009,6.3.056.061.037.067.041,0,.026v.013Z" transform="translate(-364.469 -518.896)" fill="#94c5cb"/>
      <path id="Path_1012505" data-name="Path 1012505" d="M1882.586,1811.275l-.005.316-.087.084-9.58-.169-.084-.084.005-.318.085-.084,9.583.167Z" transform="translate(-490.332 -519.034)" fill="#697a93"/>
      <path id="Path_1012506" data-name="Path 1012506" d="M1996.445,1812.135l.069-.015.056.048,0,.026-.019,2.058-.1.23-.23.1h0l-1.252-.013-.2-.089-.078-.206v-.013l.052-.589.041-.145.1-.117,1.566-1.272Z" transform="translate(-589.56 -519.93)" fill="#e08b82"/>
      <path id="Path_1012507" data-name="Path 1012507" d="M1760.088,1821.036l0,.022-.02.039-2.121,2.412-.1.024-.013-.019-.047-.063-.217-8.161.033-.073,2.141-1.737.082-.011.011,0,.011.019h0l.039.063Z" transform="translate(-396.479 -521.029)" fill="#83b9bc"/>
      <path id="Path_1012508" data-name="Path 1012508" d="M1846.1,1813.933l-.137,5.67-.054,1.02-.108.867-.145.574-.078.152-.076.048-.128,0-.074-.052-.071-.154-.113-.583-.065-.869,0-1.023.137-5.667.024-.087.026-.03.03-.035.019-.02.112-.03.509.015.05.019.007,0,.067.026.005.011Z" transform="translate(-467.712 -521.225)" fill="#e08b82"/>
      <path id="Path_1012509" data-name="Path 1012509" d="M1927.715,1822.809l-.076.076-.3,0-.078-.078-.03-8.649.078-.08h.3l.078.078Z" transform="translate(-534.629 -521.526)" fill="#697a93"/>
      <path id="Path_1012510" data-name="Path 1012510" d="M1881.084,1825.561l-.085.208-.206.085-9.349.052-.208-.087-.087-.206-.048-9.16.085-.206.208-.087,9.349-.05.206.087.087.2Z" transform="translate(-488.923 -523.179)" fill="#83b9bc"/>
      <path id="Path_1012511" data-name="Path 1012511" d="M1798.031,1825.673l-.078.186-.186.076-9.583-.015-.186-.078-.078-.188.015-8.7.078-.186.188-.076,9.582.017.188.076.076.188-.015,8.7Z" transform="translate(-421.192 -523.651)" fill="#e08b82"/>
      <path id="Path_1012512" data-name="Path 1012512" d="M1949.362,1828.015l-4.987-.1-.132-.058-.054-.128v-8.56h0l.061-.143.143-.058,8.547.171.1.043.045.1-.059.656-.156.176-3.012,1.711-.229.223-.083.31v5.471l-.054.128-.128.054Z" transform="translate(-548.439 -525.508)" fill="#e08b82"/>
      <path id="Path_1012513" data-name="Path 1012513" d="M1714.035,1821.97l7.33.147.132.054.058.132.217,8.266-.026.1-.169.095-7.33-.147-.1-.033-.085-.152-.219-8.265,0-.037.067-.117.126-.045Z" transform="translate(-360.87 -527.951)" fill="#83b9bc"/>
      <path id="Path_1012514" data-name="Path 1012514" d="M1989.807,1828.157l-1.46.841-.074.02-7.217-.143-.136-.1.009-.1.072-.071,2.221-.958.063-.013,6.454.258.136.109-.069.16Z" transform="translate(-578.347 -532.559)" fill="#f1c1a2"/>
      <path id="Path_1012515" data-name="Path 1012515" d="M2022.992,1833.836l.982-.8.136-.035.1.059.041.112v7.176l-.006.041-.035.069-1.051,1.2-.176.052-.087-.063-.037-.1.069-7.574.063-.132Z" transform="translate(-612.498 -536.932)" fill="#f3c288"/>
      <path id="Path_1012516" data-name="Path 1012516" d="M1983.7,1845.859l-7.8-.156-.135-.057-.054-.136-.044-8.053.044-.124.156-.073,7.8.158.126.052.063.141.041,8.049-.059.141-.141.057Z" transform="translate(-574.073 -540.401)" fill="#f3c288"/>
      <path id="Path_1012517" data-name="Path 1012517" d="M2087.355,1872.151l-.088-.235-.213-.136-6.106-1.49-.3-.032-.3.052-4.43,1.424-.265.2-.1.31v8.533l.069.2.177.116,6.911,1.686.392.022.375-.127L2087,1880.7l.207-.183.11-.394.045-.728.03-3.881-.032-3.368Zm-4.389,9.9-.073.146-.013.028-.019,0-.174.039-6.474-1.579-.123-.08-.047-.138v-7.82l.08-.161.006-.013.015,0,.177-.037,6.474,1.577.11.063,0,.008.058.147v7.82Zm.232-8.449-6.217-1.518-.01,0-.011-.015-.047-.065-.011-.017.073-.1,3.6-1.156.054,0,5.3,1.292.065.075.009.011-.006.011-.049.093-2.677,1.385-.069.007Zm3.677,6.619-.08.13-3.106,1.605-.131,0h-.017l-.071-.129V1874.1l.08-.133,3.106-1.605.045-.015.063.017.043.013.013,0,.054.114v7.727Z" transform="translate(-655.407 -567.27)" fill="#040403"/>
      <path id="Path_1012518" data-name="Path 1012518" d="M2091.869,1874.282l-2.678,1.384-.028.009h-.041l-6.218-1.519-.074-.071.069-.126,3.6-1.157.054,0,5.3,1.291.059.045.015.082-.052.065Z" transform="translate(-661.33 -569.34)" fill="#83b9bc"/>
      <path id="Path_1012519" data-name="Path 1012519" d="M2205.967,1876.547l-.047-.138-.119-.08-6.159-1.774-.276,0-5.141,1.656-.144.1-.054.168-.078,8.58.084.246.215.14,6.82,1.665.362-.032,4.137-1.858.116-.084.232-.4.075-.575-.021-7.626Zm-4.957,9.927-.01.015-.02.032-.015.026-.082.015-6.342-1.551-.069-.06,0-.015-.005-.024.075-8.182.071-.088.013-.015.045,0,6.267,1.805.076.1Zm.3-8.415-.054.006-.009,0-5.666-1.633-.039-.021-.013-.039-.01-.032-.007-.024.067-.073,3.995-1.284h.06l5.251,1.51.073.077,0,.009-.013.032-.026.058-.021.013-3.584,1.4Zm4.179,6.614,0,.034-.013.017-.1.118-3.633,1.564-.075.015-.041-.019-.05-.02-.034-.015-.054-.129v-7.607l.028-.09,0-.01.08-.069,3.633-1.562.142,0,.017.017.03.032.05.05.015.073Z" transform="translate(-751.811 -570.769)" fill="#040403"/>
      <path id="Path_1012520" data-name="Path 1012520" d="M2211.743,1878.4l-3.584,1.4-.063,0-5.667-1.632-.069-.08.067-.108,3.995-1.285.026,0,.033,0,5.252,1.508.072.091-.063.1Z" transform="translate(-758.661 -572.516)" fill="#e08b82"/>
      <path id="Path_1012521" data-name="Path 1012521" d="M2121.5,1889.592l-3.105,1.6-.123.009-.095-.141v-7.726l.08-.132,3.105-1.607.147,0,.072.128v7.728l-.082.132Z" transform="translate(-690.115 -576.506)" fill="#83b9bc"/>
      <path id="Path_1012522" data-name="Path 1012522" d="M2085.114,1883.788v7.819l-.022.1-.108.1-.148.015-6.474-1.579-.123-.08-.048-.137v-7.821l.05-.141.1-.071.126,0,6.474,1.579.119.074.052.145Z" transform="translate(-657.552 -576.823)" fill="#83b9bc"/>
      <path id="Path_1012523" data-name="Path 1012523" d="M2203.14,1895.661l-6.343-1.551-.076-.078,0-.02.074-8.183.039-.08.089-.019,6.268,1.807.076.1v7.927l-.019.054-.108.045Z" transform="translate(-754.068 -579.869)" fill="#e08b82"/>
      <path id="Path_1012524" data-name="Path 1012524" d="M2238.447,1895.112l-3.633,1.564-.152,0-.1-.163V1888.9l.022-.083.089-.085,3.633-1.562.173.015.082.152v7.607l-.03.1-.082.069Z" transform="translate(-784.881 -581.041)" fill="#e08b82"/>
      <path id="Path_1012525" data-name="Path 1012525" d="M1706.984,1745.239c-.067-.1-1.2-.773-1.921-1.193a.594.594,0,0,0,.653-.23.228.228,0,0,0,.024-.036l-.1,0-.924-.032-.235-.039h0l-.515-.084-1.333-.357-.157-.127-.021-.017-.022-.056-.054-.193-.078-.11-.133-.034-2.8.218-.416.138-.3.316-2.528,4.381-.086.371.134.358.536.639.521.478.525.336.526.2.437.075.474.007,1.452-.133,1.174-.183.129-.06.086-.119.015-.147-.056-.136v0l-.118-.089-.7-.3-.11-.086-.054-.133.021-.14.089-.11.133-.052.14-.007.357.022.4.1.918.454.877.433.377.1.336.037.155-.076.039-.166-.017-.045-.177-.261-.252-.239-.049-.1.047-.1.021-.015.076-.043.054-.3v0l-.357-.16-1.391-.7-.42-.3-.237-.278-.032-.129.037-.129.1-.09.133-.024.138.054.665.5.7.44.9.454.954.362.161.017.153-.045.118-.1.06-.138.005-.05-.065-.349-.159-.232-.98-.92-.973-.8-.974-.668-.969-.545-.1-.084-.052-.119.034-.332.192-.371.026-.026v0l.108-.015v0l.075.077.069.243.078.153.121.114.316.2,1.2.734.917.431.762.192.332.01.317-.05.217-.039s.36-.25.259-.394Z" transform="translate(-346.375 -463.427)" fill="#f1c1a2"/>
      <path id="Path_1012526" data-name="Path 1012526" d="M1405.459,1776.05l-.349.071.28-.071Z" transform="translate(-109.479 -490.559)" fill="#040403"/>
      <path id="Path_1012527" data-name="Path 1012527" d="M1733.327,1748.087l-1.6-.829-.075-.039-.4-.207-.5-.054-.26.19c.024.015.261.151.581.34.719.42,1.854,1.1,1.921,1.193s-.115.266-.265.395l-.212.038-.317.05-.332-.009-.762-.19-.917-.431-1.2-.735-.316-.2-.121-.114-.078-.153-.069-.243-.075-.077-.108.015-.026.026-.192.371-.034.332.052.119.1.084.969.545.974.668.973.8.98.92.159.232.065.349-.005.05-.06.138-.118.1-.153.045-.161-.017-.954-.362-.9-.454-.7-.439-.665-.5-.138-.054-.133.024-.1.089-.037.129.032.129.237.278.42.3,1.391.7.357.161v0l1.232.416.28.022.261-.106.219-.211.114-.228,0-.379-.2-.444-.344-.431-.05-.062-.6-.568-.026-.041.024-.09.089-.022.683.106.3-.039.263-.1.121-.075.181-.088a1.459,1.459,0,0,0,.378-.4h.012l.051-.1,0-.008h0v0l.028-.056.005-.011a.6.6,0,0,0-.269-.788Z" transform="translate(-372.379 -466.869)" fill="#040403"/>
    </g>
  </g>
</svg>
