<svg xmlns="http://www.w3.org/2000/svg" width="84" height="84" viewBox="0 0 84 84">
  <g id="img19" transform="translate(-214 -8382)">
    <rect id="Rectangle_461492" data-name="Rectangle 461492" width="84" height="84" rx="10" transform="translate(214 8382)" fill="#9c3413"/>
    <g id="Group_1197616" data-name="Group 1197616" transform="translate(218.396 8378.085)">
      <path id="Path_1020122" data-name="Path 1020122" d="M200.372,188.792a4.982,4.982,0,0,0-3.217-4.4,3.387,3.387,0,0,0-3.744,1.066h0l-1.113,1.266a.836.836,0,0,1-1.255,0l-1.113-1.266a3.452,3.452,0,0,0-2.615-1.255,3.564,3.564,0,0,0-1.13.189,4.983,4.983,0,0,0-3.217,4.4c-.287,3.687,2.879,7.559,8.7,10.664,5.823-3.105,8.989-6.977,8.7-10.664Z" transform="translate(-154.066 -147.084)" fill="#e94444"/>
      <path id="Path_1020123" data-name="Path 1020123" d="M67.208,27.4V45.916a.833.833,0,0,1-.044.269,109.988,109.988,0,0,1-10.187,21.57l.723,5.5a.836.836,0,1,1-1.657.218l-.761-5.793a.836.836,0,0,1,.115-.544A108.581,108.581,0,0,0,65.537,45.778V27.4a.093.093,0,0,0-.092-.092,3.28,3.28,0,0,0-3.2,3.242l-.717,12.473a.835.835,0,0,1-.16.445l-5.9,8.058L54.2,57.362a.836.836,0,0,1-1.633-.356l2.666-12.212a1.882,1.882,0,0,0-.959-2.3c-.809-.329-2-.11-2.688,1.588l-5.84,14.334a14.437,14.437,0,0,0-.894,6.82l.568,8.07a.836.836,0,1,1-1.667.117l-.568-8.07A15.994,15.994,0,0,1,44.2,57.785l5.84-14.333c1.076-2.643,3.276-3.152,4.865-2.506a3.519,3.519,0,0,1,1.964,4.2l-.512,2.344,3.521-4.812.7-12.226a4.93,4.93,0,0,1,4.864-4.818A1.765,1.765,0,0,1,67.208,27.4ZM25.168,43.452c-1.076-2.643-3.276-3.152-4.864-2.507a3.52,3.52,0,0,0-1.964,4.2l.512,2.343L15.33,42.681l-.7-12.225a4.93,4.93,0,0,0-4.864-4.818A1.765,1.765,0,0,0,8,27.4V45.916a.835.835,0,0,0,.044.268,109.809,109.809,0,0,0,10.187,21.57l-.723,5.5a.836.836,0,1,0,1.657.218l.761-5.793a.836.836,0,0,0-.115-.544A108.4,108.4,0,0,1,9.671,45.778V27.4a.093.093,0,0,1,.092-.092,3.281,3.281,0,0,1,3.2,3.242l.717,12.472a.835.835,0,0,0,.16.445l5.9,8.058,1.274,5.835a.836.836,0,1,0,1.633-.356L19.973,44.794a1.882,1.882,0,0,1,.96-2.3c.808-.328,2-.11,2.688,1.588l5.84,14.334a14.438,14.438,0,0,1,.894,6.82l-.569,8.07a.836.836,0,1,0,1.667.117l.568-8.071a15.994,15.994,0,0,0-1.014-7.567l-5.84-14.333Zm12.82,10.606a.835.835,0,0,1-.768,0,22.577,22.577,0,0,1-7.974-6.281,9.308,9.308,0,0,1-2.01-6.2,7.06,7.06,0,0,1,.461-2.014H19.322a.836.836,0,0,1-.836-.836V31.542a4.738,4.738,0,0,1,4.61-4.594,6.752,6.752,0,0,1-1.243-3.987,4.46,4.46,0,1,1,8.919,0,6.752,6.752,0,0,1-1.244,3.988,5.15,5.15,0,0,1,1.678.379,5.366,5.366,0,0,1,3.065-1.067,7.146,7.146,0,0,1-1.4-4.346,4.73,4.73,0,0,1,9.46,0,7.146,7.146,0,0,1-1.4,4.346A5.367,5.367,0,0,1,44,27.329a5.115,5.115,0,0,1,1.677-.38,6.752,6.752,0,0,1-1.244-3.988,4.46,4.46,0,1,1,8.919,0,6.752,6.752,0,0,1-1.243,3.987,4.738,4.738,0,0,1,4.61,4.594v7.187a.836.836,0,0,1-.836.836H47.511a7.06,7.06,0,0,1,.461,2.014,9.308,9.308,0,0,1-2.01,6.2,22.577,22.577,0,0,1-7.974,6.281ZM51.832,28.611H45.958a3.465,3.465,0,0,0-.71.075,4.631,4.631,0,0,1,.706,2.453V37.18a6.641,6.641,0,0,1,.624.713h4.7V33.332a.836.836,0,1,1,1.671,0v4.561h2.1V31.542a3.088,3.088,0,0,0-3.218-2.93Zm-5.725-5.651c0,1.652.865,3.979,2.788,3.979s2.788-2.327,2.788-3.979a2.788,2.788,0,1,0-5.577,0ZM34.545,21.915c0,1.8.949,4.342,3.059,4.342s3.059-2.539,3.059-4.342a3.059,3.059,0,1,0-6.118,0Zm-3.621,9.224V36a5.764,5.764,0,0,1,.666-.27,5.344,5.344,0,0,1,1.118-.245V31.857a.836.836,0,0,1,1.671,0v3.727a5.267,5.267,0,0,1,2.739,1.69l.486.552.486-.552a5.267,5.267,0,0,1,2.739-1.69V31.857a.836.836,0,0,1,1.671,0v3.624a5.345,5.345,0,0,1,1.118.245,5.762,5.762,0,0,1,.666.27V31.139a3.382,3.382,0,0,0-3.523-3.211H34.447a3.382,3.382,0,0,0-3.523,3.211Zm-7.4-8.178c0,1.652.865,3.979,2.788,3.979S29.1,24.613,29.1,22.961a2.788,2.788,0,1,0-5.577,0Zm5.1,14.933a6.653,6.653,0,0,1,.624-.713V31.139a4.632,4.632,0,0,1,.706-2.453,3.479,3.479,0,0,0-.71-.074H23.375a3.088,3.088,0,0,0-3.218,2.93v6.351h2.1V33.332a.836.836,0,1,1,1.671,0v4.561h4.7Zm17.677,3.815a4.982,4.982,0,0,0-3.217-4.4,3.387,3.387,0,0,0-3.744,1.066h0l-1.113,1.266a.836.836,0,0,1-1.255,0l-1.113-1.266a3.452,3.452,0,0,0-2.615-1.255,3.564,3.564,0,0,0-1.13.189,4.983,4.983,0,0,0-3.217,4.4c-.287,3.687,2.879,7.559,8.7,10.664,5.823-3.105,8.989-6.977,8.7-10.664Zm-4.066,1.724V46.17a.836.836,0,0,1-.836.836h-1.6V48.6a.836.836,0,0,1-.836.836H36.237A.836.836,0,0,1,35.4,48.6V47.005H33.8a.836.836,0,0,1-.836-.836V43.432A.836.836,0,0,1,33.8,42.6h1.6V41a.836.836,0,0,1,.836-.836h2.734a.836.836,0,0,1,.836.836V42.6h1.6A.836.836,0,0,1,42.239,43.432Zm-1.671.836h-1.6a.836.836,0,0,1-.836-.836V41.838H37.073v1.594a.836.836,0,0,1-.836.836h-1.6v1.066h1.6a.836.836,0,0,1,.836.836v1.594h1.063V46.17a.836.836,0,0,1,.836-.836h1.6Z"/>
      <path id="Path_1020124" data-name="Path 1020124" d="M234.664,225.306v-1.594H233.6v1.594a.836.836,0,0,1-.836.836h-1.6v1.066h1.6a.836.836,0,0,1,.836.836v1.594h1.063v-1.594a.836.836,0,0,1,.836-.836h1.6v-1.066h-1.6A.836.836,0,0,1,234.664,225.306Z" transform="translate(-196.528 -181.874)" fill="#ebebeb"/>
      <path id="Path_1020125" data-name="Path 1020125" d="M118.942,115.435a4.632,4.632,0,0,1,.706-2.453,3.479,3.479,0,0,0-.71-.074h-5.874a3.088,3.088,0,0,0-3.218,2.93v6.351h2.1v-4.561a.836.836,0,0,1,1.671,0v4.561h4.7a6.65,6.65,0,0,1,.624-.713v-6.041Z" transform="translate(-89.689 -84.296)" fill="#fec165"/>
      <path id="Path_1020126" data-name="Path 1020126" d="M140.838,48.979c1.923,0,2.788-2.327,2.788-3.979a2.788,2.788,0,1,0-5.577,0C138.05,46.652,138.915,48.979,140.838,48.979Z" transform="translate(-114.526 -22.039)" fill="#fdd7ad"/>
      <path id="Path_1020127" data-name="Path 1020127" d="M201.825,114.733v-3.624a.836.836,0,1,1,1.671,0v3.727a5.267,5.267,0,0,1,2.739,1.69l.486.552.486-.552a5.267,5.267,0,0,1,2.739-1.69v-3.727a.836.836,0,0,1,1.671,0v3.624a5.346,5.346,0,0,1,1.118.245,5.763,5.763,0,0,1,.666.27v-4.857a3.382,3.382,0,0,0-3.523-3.211h-6.314a3.382,3.382,0,0,0-3.523,3.211v4.857a5.763,5.763,0,0,1,.666-.27,5.344,5.344,0,0,1,1.118-.245Z" transform="translate(-169.117 -79.252)" fill="#0473ce"/>
      <path id="Path_1020128" data-name="Path 1020128" d="M330.021,48.979c1.923,0,2.788-2.327,2.788-3.979a2.788,2.788,0,1,0-5.577,0C327.233,46.652,328.1,48.979,330.021,48.979Z" transform="translate(-281.126 -22.039)" fill="#fdd7ad"/>
      <path id="Path_1020129" data-name="Path 1020129" d="M233.433,38.586c2.11,0,3.059-2.539,3.059-4.342a3.059,3.059,0,1,0-6.118,0C230.374,36.047,231.323,38.586,233.433,38.586Z" transform="translate(-195.829 -12.329)" fill="#fdd7ad"/>
      <path id="Path_1020130" data-name="Path 1020130" d="M326.627,112.907h-5.874a3.465,3.465,0,0,0-.71.075,4.631,4.631,0,0,1,.706,2.453v6.041a6.64,6.64,0,0,1,.624.713h4.7v-4.561a.836.836,0,0,1,1.671,0v4.561h2.1v-6.351a3.088,3.088,0,0,0-3.218-2.93Z" transform="translate(-274.794 -84.296)" fill="#22b27f"/>
      <g id="Group_1197615" data-name="Group 1197615" transform="translate(9.671 27.309)">
        <path id="Path_1020131" data-name="Path 1020131" d="M42.89,148.882a.836.836,0,0,1-.775-.892l.569-8.07a14.439,14.439,0,0,0-.894-6.82l-5.84-14.334c-.691-1.7-1.88-1.917-2.688-1.588a1.882,1.882,0,0,0-.96,2.3l2.666,12.211a.836.836,0,1,1-1.633.356l-1.274-5.835-5.9-8.058a.835.835,0,0,1-.16-.445l-.717-12.472a3.281,3.281,0,0,0-3.2-3.242.093.093,0,0,0-.092.092v18.378A108.4,108.4,0,0,0,32.141,141.82a.836.836,0,0,1,.115.544l-.761,5.793a.836.836,0,0,1-.827.727H42.89Z" transform="translate(-22 -101.992)" fill="#fdd7ad"/>
        <path id="Path_1020132" data-name="Path 1020132" d="M326.395,148.158l-.761-5.793a.836.836,0,0,1,.115-.544,108.582,108.582,0,0,0,10.141-21.359V102.085a.093.093,0,0,0-.092-.092,3.28,3.28,0,0,0-3.2,3.242l-.717,12.473a.835.835,0,0,1-.16.445l-5.9,8.058-1.274,5.835a.836.836,0,1,1-1.633-.356l2.666-12.212a1.882,1.882,0,0,0-.959-2.3c-.809-.329-2-.11-2.688,1.588L316.1,133.1a14.437,14.437,0,0,0-.894,6.82l.568,8.07a.836.836,0,0,1-.775.892v0h12.223A.836.836,0,0,1,326.395,148.158Z" transform="translate(-280.023 -101.993)" fill="#fdd7ad"/>
      </g>
    </g>
  </g>
</svg>
