<svg xmlns="http://www.w3.org/2000/svg" width="150" height="150" viewBox="0 0 150 150">
  <g id="img11" transform="translate(-383.746 -8400)">
    <circle id="Ellipse_13609" data-name="Ellipse 13609" cx="75" cy="75" r="75" transform="translate(383.746 8400)" fill="#b9c296"/>
    <g id="Group_1197590" data-name="Group 1197590" transform="translate(419.108 8435.363)">
      <path id="Path_1020016" data-name="Path 1020016" d="M74.535,55.839A3.739,3.739,0,0,0,78.274,52.1V4.739A3.739,3.739,0,0,0,74.535,1H4.739A3.739,3.739,0,0,0,1,4.739V52.1a3.739,3.739,0,0,0,3.739,3.739H26.675a21.283,21.283,0,0,0,10.19,8.481L32.889,68.3H28.42V64.564a3.739,3.739,0,0,0-3.739-3.739H9.724a3.739,3.739,0,0,0-3.739,3.739v9.971a3.739,3.739,0,0,0,3.739,3.739H24.681a3.739,3.739,0,0,0,3.739-3.739V70.8h4.985a1.246,1.246,0,0,0,.881-.365l5.261-5.261a20.83,20.83,0,0,0,16.279-2.6l3.241,3.24-.365.365a1.246,1.246,0,0,0,0,1.762l8.422,8.422a6.534,6.534,0,0,0,9.24-9.24L67.941,58.7a1.246,1.246,0,0,0-1.762,0l-.369.365-3.223-3.223Zm-48.608,18.7a1.246,1.246,0,0,1-1.246,1.246H9.724a1.246,1.246,0,0,1-1.246-1.246V64.564a1.246,1.246,0,0,1,1.246-1.246H24.681a1.246,1.246,0,0,1,1.246,1.246ZM4.739,53.347A1.246,1.246,0,0,1,3.493,52.1V4.739A1.246,1.246,0,0,1,4.739,3.493h69.8a1.246,1.246,0,0,1,1.246,1.246V52.1a1.246,1.246,0,0,1-1.246,1.246H63.908A21.109,21.109,0,0,0,53.253,25.29l6.325-6.325v3.223h2.493V15.956a1.246,1.246,0,0,0-1.246-1.246H54.593V17.2h3.223L50.688,24.33a21.078,21.078,0,0,0-5.353-.86l-5.888-9.421a1.246,1.246,0,0,0-1.057-.586H33.405V9.724a3.739,3.739,0,0,0-3.739-3.739H14.71a3.739,3.739,0,0,0-3.739,3.739V19.7a3.739,3.739,0,0,0,3.739,3.739H29.666A3.739,3.739,0,0,0,33.405,19.7V15.956H37.7l4.744,7.59A21.152,21.152,0,0,0,28.6,30.8l-1.745-1.961a1.246,1.246,0,0,0-.922-.418h-.006a1.246,1.246,0,0,0-.919.4L11.3,43.78l1.837,1.685L25.913,31.526,27.046,32.8a20.91,20.91,0,0,0-3.262,15.559H8.478V14.71H5.985v34.9a1.246,1.246,0,0,0,1.246,1.246H24.373a20.814,20.814,0,0,0,.963,2.493ZM30.912,9.724V19.7a1.246,1.246,0,0,1-1.246,1.246H14.71A1.246,1.246,0,0,1,13.464,19.7V9.724A1.246,1.246,0,0,1,14.71,8.478H29.666A1.246,1.246,0,0,1,30.912,9.724Zm-4.985,34.9a18.7,18.7,0,1,1,18.7,18.7A18.7,18.7,0,0,1,25.927,44.622ZM74.6,68.881A4.042,4.042,0,1,1,68.881,74.6l-7.54-7.541,5.716-5.716ZM60.825,64.048l-2.933-2.933a21.3,21.3,0,0,0,3.223-3.223l2.933,2.933Z" fill="#4a4e3c"/>
      <path id="Path_1020017" data-name="Path 1020017" d="M39.2,23a16.2,16.2,0,1,0,16.2,16.2A16.2,16.2,0,0,0,39.2,23Zm-.543,2.52-8.127,8.127L28.213,31.04a13.68,13.68,0,0,1,10.446-5.52ZM39.2,52.912a13.71,13.71,0,0,1-12.2-7.478H41.7V42.942H26.024a13.5,13.5,0,0,1,.838-9.67l2.685,3.021a1.246,1.246,0,0,0,.9.418h.036a1.246,1.246,0,0,0,.881-.365L41.936,25.768A13.71,13.71,0,0,1,39.2,52.912Z" transform="translate(5.42 5.42)" fill="#4a4e3c"/>
      <path id="Path_1020018" data-name="Path 1020018" d="M13,9H25.464v2.493H13Z" transform="translate(2.956 1.971)" fill="#4a4e3c"/>
      <path id="Path_1020019" data-name="Path 1020019" d="M13,13H25.464v2.493H13Z" transform="translate(2.956 2.956)" fill="#4a4e3c"/>
      <path id="Path_1020020" data-name="Path 1020020" d="M9,53H21.464v2.493H9Z" transform="translate(1.971 12.81)" fill="#4a4e3c"/>
      <path id="Path_1020021" data-name="Path 1020021" d="M9,57H21.464v2.493H9Z" transform="translate(1.971 13.796)" fill="#4a4e3c"/>
    </g>
  </g>
</svg>
