<svg xmlns="http://www.w3.org/2000/svg" width="128" height="128" viewBox="0 0 128 128">
  <g id="img17" transform="translate(-72.746 -7992)">
    <g id="Ellipse_13628" data-name="Ellipse 13628" transform="translate(72.746 7992)" fill="#fef6ff" stroke="#9c3413" stroke-width="6">
      <circle cx="64" cy="64" r="64" stroke="none"/>
      <circle cx="64" cy="64" r="61" fill="none"/>
    </g>
    <g id="Group_1197716" data-name="Group 1197716" transform="translate(102.392 8024.607)">
      <g id="Group_1197714" data-name="Group 1197714" transform="translate(4.295 0.918)">
        <path id="Path_1020374" data-name="Path 1020374" d="M97.573,43.3V71.666H60.2V43.3l3.244-1.878,15.441-8.94Z" transform="translate(-54.154 -29.42)" fill="#f9f6f9"/>
        <path id="Path_1020375" data-name="Path 1020375" d="M97.573,43.3v6.145L78.887,38.631,60.2,49.449V43.3l3.244-1.878,15.441-8.94Z" transform="translate(-54.154 -29.42)" fill="#dddaec"/>
        <path id="Path_1020376" data-name="Path 1020376" d="M63.447,105.386v30.24H60.2V107.264Z" transform="translate(-54.154 -93.38)" fill="#dddaec"/>
        <path id="Path_1020377" data-name="Path 1020377" d="M56.168,25.993l-20.553-11.9-20.553,11.9a2.22,2.22,0,0,1-3.034-.809l-.847-1.464a2.22,2.22,0,0,1,.809-3.034L34.08,7.9a3.066,3.066,0,0,1,3.072,0L59.24,20.687a2.22,2.22,0,0,1,.809,3.034L59.2,25.184A2.22,2.22,0,0,1,56.168,25.993Z" transform="translate(-10.882 -7.486)" fill="#dd636e"/>
        <path id="Path_1020378" data-name="Path 1020378" d="M38.239,8.535a3.048,3.048,0,0,0-1.448.412L14.7,21.734a2.22,2.22,0,0,0-.809,3.034l.809,1.4a2.224,2.224,0,0,1-2.676-.977l-.847-1.464a2.22,2.22,0,0,1,.809-3.034L34.077,7.9a3.063,3.063,0,0,1,3.072,0Z" transform="translate(-10.88 -7.49)" fill="#da4a54"/>
        <path id="Path_1020379" data-name="Path 1020379" d="M33.441,325.978a3.815,3.815,0,0,1,7.445-1.171,3.815,3.815,0,0,1,7.261,0,3.815,3.815,0,0,1,7.261,0,3.815,3.815,0,0,1,7.261,0,3.815,3.815,0,0,1,7.261,0,3.815,3.815,0,0,1,7.445,1.171v2.112H33.441Z" transform="translate(-30.674 -283.574)" fill="#b3e59f"/>
        <path id="Path_1020380" data-name="Path 1020380" d="M46.661,322.822a3.811,3.811,0,0,0-1.668,3.154v2.112H33.441v-2.112a3.815,3.815,0,0,1,7.445-1.171,3.813,3.813,0,0,1,5.775-1.983Z" transform="translate(-30.674 -283.572)" fill="#95d6a4"/>
        <g id="Group_1197712" data-name="Group 1197712" transform="translate(15.923 17.315)">
          <path id="Path_1020381" data-name="Path 1020381" d="M155.583,165.815H143.489a2.763,2.763,0,0,1-2.763-2.763v-11.6a2.763,2.763,0,0,1,2.763-2.763h12.094a2.763,2.763,0,0,1,2.763,2.763v11.6A2.763,2.763,0,0,1,155.583,165.815Z" transform="translate(-140.726 -148.688)" fill="#dd636e"/>
          <path id="Path_1020382" data-name="Path 1020382" d="M145.1,165.808H143.49a2.763,2.763,0,0,1-2.763-2.763v-11.6a2.764,2.764,0,0,1,2.763-2.764H145.1a2.764,2.764,0,0,0-2.763,2.764v11.6A2.763,2.763,0,0,0,145.1,165.808Z" transform="translate(-140.727 -148.682)" fill="#da4a54"/>
          <path id="Path_1020383" data-name="Path 1020383" d="M0,0H10.013V10.508H0Z" transform="translate(14.064 3.557) rotate(90)" fill="#d3effb"/>
        </g>
        <g id="Group_1197713" data-name="Group 1197713" transform="translate(24.734 25.564)">
          <path id="Path_1020384" data-name="Path 1020384" d="M392.461,395.838a5.3,5.3,0,0,1-8.109-.746l-5.309-7.729,4.943-4.943,7.729,5.309A5.3,5.3,0,0,1,392.461,395.838Z" transform="translate(-358.628 -362.005)" fill="#e49542"/>
          <path id="Path_1020385" data-name="Path 1020385" d="M392.457,418.4a5.3,5.3,0,0,1-8.109-.747l-5.31-7.729,1.79-1.79,6.185,6.853C389.2,417.406,391.811,419.044,392.457,418.4Z" transform="translate(-358.624 -384.565)" fill="#e27d47"/>
          <circle id="Ellipse_15196" data-name="Ellipse 15196" cx="13.954" cy="13.954" r="13.954" transform="translate(0 0)" fill="#3b66c1"/>
          <path id="Path_1020386" data-name="Path 1020386" d="M227.961,243.781a13.954,13.954,0,1,1,0-27.762,13.955,13.955,0,0,0,0,27.762Z" transform="translate(-212.568 -215.946)" fill="#30579d"/>
          <circle id="Ellipse_15197" data-name="Ellipse 15197" cx="10.011" cy="10.011" r="10.011" transform="translate(3.943 3.943)" fill="#d3effb"/>
          <path id="Path_1020387" data-name="Path 1020387" d="M256.37,267.985a10.011,10.011,0,1,1,0-19.755,10.012,10.012,0,0,0,0,19.755Z" transform="translate(-240.781 -244.153)" fill="#b1e4f9"/>
        </g>
      </g>
      <g id="Group_1197715" data-name="Group 1197715" transform="translate(3.375 0)">
        <path id="Path_1020388" data-name="Path 1020388" d="M65.306,56a6.2,6.2,0,0,0-2.67-4.553l-1.6-1.1a.92.92,0,1,0-1.042,1.516l1.6,1.1a4.375,4.375,0,1,1-6.084,6.084l-4.284-6.238a14.994,14.994,0,0,0,4.131-4.131l1.6,1.1A.92.92,0,1,0,58,48.265l-1.718-1.18a14.867,14.867,0,0,0-7.652-20.407v-6.74l.487.282a3.142,3.142,0,0,0,4.291-1.143l.847-1.464a3.141,3.141,0,0,0-1.145-4.291L31.025.534a4,4,0,0,0-3.993,0L4.944,13.322A3.14,3.14,0,0,0,3.8,17.613l.848,1.464A3.144,3.144,0,0,0,8.937,20.22l.487-.282V38.817a4.741,4.741,0,0,0-3.281,4.5v2.112a.92.92,0,0,0,.92.92H29.338a14.867,14.867,0,0,0,20.295,7.385l4.362,6.352a6.2,6.2,0,0,0,4.553,2.669q.288.027.575.026A6.214,6.214,0,0,0,65.306,56ZM18.974,14.41a.92.92,0,0,0-.922-1.592L8.015,18.628a1.3,1.3,0,0,1-1.777-.473L5.39,16.691a1.3,1.3,0,0,1,.474-1.777L27.953,2.126a2.154,2.154,0,0,1,2.151,0L52.192,14.914a1.3,1.3,0,0,1,.474,1.777l-.847,1.464a1.3,1.3,0,0,1-1.777.473L29.489,6.731a.92.92,0,0,0-.922,0L21.2,10.993a.92.92,0,0,0,.922,1.592l6.9-4L46.794,18.874v7.184a14.891,14.891,0,0,0-8.035.116V21a3.688,3.688,0,0,0-3.684-3.684H22.982A3.688,3.688,0,0,0,19.3,21V32.6a3.687,3.687,0,0,0,3.684,3.683H28.7a14.791,14.791,0,0,0-.559,3.182,4.745,4.745,0,0,0-6.374.819,4.742,4.742,0,0,0-7.26,0,4.717,4.717,0,0,0-3.244-1.673V18.874ZM31.592,30.883H29.948V27.717h3.415V29.1a15,15,0,0,0-1.771,1.781Zm1.771-5.006H29.948V22.71h3.415Zm-5.254,0H24.694V22.71h3.415Zm-3.415,1.839h3.415v3.167H24.694Zm9.589-6.846H23.775a.92.92,0,0,0-.92.92V31.8a.92.92,0,0,0,.92.92h6.5a14.853,14.853,0,0,0-.9,1.717H22.982A1.846,1.846,0,0,1,21.138,32.6V21a1.846,1.846,0,0,1,1.844-1.844H35.075A1.847,1.847,0,0,1,36.92,21v5.858a14.849,14.849,0,0,0-1.717.909V21.79a.92.92,0,0,0-.92-.92ZM7.982,44.514V43.322a2.9,2.9,0,0,1,5.65-.889.92.92,0,0,0,1.751,0,2.895,2.895,0,0,1,5.509,0,.92.92,0,0,0,.875.638h0a.92.92,0,0,0,.875-.637,2.9,2.9,0,0,1,5.511,0,.917.917,0,0,0,.126.249,14.774,14.774,0,0,0,.4,1.832Zm21.967-4.078A13.035,13.035,0,1,1,42.983,53.471,13.05,13.05,0,0,1,29.948,40.436Z" transform="translate(-3.375 0)"/>
        <path id="Path_1020389" data-name="Path 1020389" d="M248.156,240.6a10.931,10.931,0,1,0,10.931,10.931A10.943,10.943,0,0,0,248.156,240.6Zm0,20.022a9.091,9.091,0,1,1,9.091-9.091A9.1,9.1,0,0,1,248.156,260.624Z" transform="translate(-208.547 -211.096)"/>
      </g>
    </g>
  </g>
</svg>
