<svg xmlns="http://www.w3.org/2000/svg" width="90" height="90" viewBox="0 0 90 90">
  <g id="img15" transform="translate(-754 -5205)">
    <circle id="Ellipse_15174" data-name="Ellipse 15174" cx="45" cy="45" r="45" transform="translate(754 5205)" fill="#fff"/>
    <g id="Group_1197608" data-name="Group 1197608" transform="translate(772.507 5223.004)">
      <g id="Group_1197606" data-name="Group 1197606" transform="translate(1.055 1.057)">
        <path id="Path_1020089" data-name="Path 1020089" d="M177.27,462H162.987l-2.981,4.218H180.25Z" transform="translate(-144.19 -414.344)" fill="#c1b0b5"/>
        <path id="Path_1020090" data-name="Path 1020090" d="M94.985,77.723,76.006,92.32v21.7h37.958V92.32Z" transform="translate(-69.047 -70.582)" fill="#f3eff0"/>
        <path id="Path_1020091" data-name="Path 1020091" d="M35.942,17.14,15.082,33.184a3.15,3.15,0,0,1-2.231.629A2.893,2.893,0,0,1,10.087,31.4a3.171,3.171,0,0,1,1.165-3.256l22.775-17.5a3.162,3.162,0,0,1,3.83,0C52.627,22,35.7,8.984,60.632,28.148a3.163,3.163,0,0,1-3.83,5.036Z" transform="translate(-10.004 -9.999)" fill="#ff7b79"/>
        <path id="Path_1020092" data-name="Path 1020092" d="M334.026,382.012a5.259,5.259,0,0,1,4.8,4.758,4.2,4.2,0,0,1-2.059,7.877h-11.6a3.155,3.155,0,0,1-1.035-6.139,4.169,4.169,0,0,1,5.174-4.281A5.254,5.254,0,0,1,334.026,382.012Z" transform="translate(-289.109 -342.771)" fill="#d8ec84"/>
        <path id="Path_1020093" data-name="Path 1020093" d="M382.332,10V23.759l0,0L376.006,18.9V10Z" transform="translate(-337.415 -10.003)" fill="#c1b0b5"/>
        <path id="Path_1020094" data-name="Path 1020094" d="M188.659,216a4.355,4.355,0,0,1,4.218,4.622c0,3.467-3.432,5.762-8.435,10.139-5-4.377-8.435-6.672-8.435-10.139A4.355,4.355,0,0,1,180.224,216c3.205,0,4.218,3.69,4.218,3.69S185.453,216,188.659,216Z" transform="translate(-158.503 -194.282)" fill="#ff7b79"/>
        <path id="Path_1020095" data-name="Path 1020095" d="M28.985,391.485a3.163,3.163,0,0,1-3.163,3.163h-11.6a4.2,4.2,0,0,1-2.059-7.877,5.246,5.246,0,0,1,9.519-2.542,4.18,4.18,0,0,1,5.193,4.093c0,.064-.016.124-.019.188A3.155,3.155,0,0,1,28.985,391.485Z" transform="translate(-10.006 -342.771)" fill="#d8ec84"/>
      </g>
      <g id="Group_1197607" data-name="Group 1197607" transform="translate(0 0.003)">
        <path id="Path_1020096" data-name="Path 1020096" d="M171.278,206a5.4,5.4,0,0,0-5.272,5.677c0,3.422,2.633,5.665,6.619,9.061.695.592,1.413,1.2,2.176,1.871a1.054,1.054,0,0,0,1.388,0c.763-.667,1.481-1.279,2.176-1.871,3.986-3.4,6.619-5.64,6.619-9.061A5.4,5.4,0,0,0,179.713,206a5.009,5.009,0,0,0-4.218,2.351A5.009,5.009,0,0,0,171.278,206Zm5.234,5.024c.008-.029.827-2.915,3.2-2.915a3.309,3.309,0,0,1,3.163,3.568c0,2.448-2.213,4.333-5.878,7.456-.486.414-.984.839-1.5,1.286-.518-.447-1.016-.872-1.5-1.286-3.666-3.123-5.878-5.008-5.878-7.456a3.309,3.309,0,0,1,3.163-3.568c2.344,0,3.164,2.787,3.2,2.918a1.054,1.054,0,0,0,2.033,0Z" transform="translate(-148.502 -184.282)"/>
        <circle id="Ellipse_15177" data-name="Ellipse 15177" cx="1.237" cy="1.237" r="1.237" transform="translate(11.933 9.468)"/>
        <path id="Path_1020097" data-name="Path 1020097" d="M47.215,25.08a4.179,4.179,0,0,0,2.554.861,4.218,4.218,0,0,0,2.557-7.572l-5.3-4.072V1.057A1.054,1.054,0,0,0,45.973,0H39.646a1.054,1.054,0,0,0-1.054,1.054V7.815L29.547.864a4.218,4.218,0,0,0-5.111,0l-8.028,6.17a1.054,1.054,0,1,0,1.285,1.672l8.024-6.167a2.109,2.109,0,0,1,2.548,0L51.045,20.045A2.109,2.109,0,0,1,48.5,23.406L27.636,7.362a1.054,1.054,0,0,0-1.249-.027C26.34,7.368,5.5,23.4,5.494,23.4A2.109,2.109,0,0,1,4,23.821a1.849,1.849,0,0,1-1.837-1.593,2.124,2.124,0,0,1,.779-2.187l7.226-5.553a1.054,1.054,0,1,0-1.285-1.672l-7.222,5.55A4.21,4.21,0,0,0,.11,22.694,3.933,3.933,0,0,0,3.8,25.92a4.209,4.209,0,0,0,2.973-.84l0,0,.189-.142V39.4a6.3,6.3,0,0,0-4.724,5.027,5.257,5.257,0,0,0,3.037,9.559H48.714a5.257,5.257,0,0,0,3.037-9.559A6.3,6.3,0,0,0,47.027,39.4V24.936ZM40.7,2.112h4.218V12.677L40.7,9.436ZM16.871,51.879H5.273a3.15,3.15,0,0,1-1.541-5.9,1.055,1.055,0,0,0,.532-.819,4.191,4.191,0,0,1,7.609-2.032,1.054,1.054,0,0,0,1.1.416,3.126,3.126,0,0,1,3.894,3.03,1.064,1.064,0,0,0,.689,1.221,2.1,2.1,0,0,1-.689,4.089ZM35.03,46.118a4.188,4.188,0,0,0-1.563,1.544H20.52a4.189,4.189,0,0,0-1.563-1.544,5.348,5.348,0,0,0-.084-.566h16.24A5.372,5.372,0,0,0,35.03,46.118ZM20.523,51.879a4.192,4.192,0,0,0,.566-2.109H32.9a4.193,4.193,0,0,0,.566,2.109Zm29.2-6.723a1.055,1.055,0,0,0,.532.819,3.15,3.15,0,0,1-1.541,5.9h-11.6a2.1,2.1,0,0,1-.689-4.089,1.064,1.064,0,0,0,.689-1.221,3.126,3.126,0,0,1,3.894-3.03,1.055,1.055,0,0,0,1.1-.416,4.191,4.191,0,0,1,7.609,2.032Zm-4.805-5.9a6.341,6.341,0,0,0-4.1,2.107,4.747,4.747,0,0,0-.541-.032,5.292,5.292,0,0,0-4.215,2.109H17.924a5.292,5.292,0,0,0-4.215-2.109,4.745,4.745,0,0,0-.541.032,6.34,6.34,0,0,0-4.1-2.107V23.314L26.993,9.528,44.918,23.314Z" transform="translate(0 -0.003)"/>
      </g>
    </g>
  </g>
</svg>
