<svg xmlns="http://www.w3.org/2000/svg" width="150" height="150" viewBox="0 0 150 150">
  <g id="img12" transform="translate(-383.746 -8400)">
    <circle id="Ellipse_13609" data-name="Ellipse 13609" cx="75" cy="75" r="75" transform="translate(383.746 8400)" fill="#b9c296"/>
    <path id="Path_1020022" data-name="Path 1020022" d="M91.326,39,50.681,15.356a1.354,1.354,0,0,0-1.362,0L33.183,24.742V21.369a1.355,1.355,0,0,0-1.355-1.355H24.723a1.355,1.355,0,0,0-1.355,1.355v9.082L8.673,39a1.355,1.355,0,0,0,.681,2.526h6.129V87.3H10.622a1.355,1.355,0,0,0-1.355,1.355v6.732a1.355,1.355,0,0,0,1.355,1.355H89.377a1.355,1.355,0,0,0,1.355-1.355V88.656A1.355,1.355,0,0,0,89.377,87.3H84.515V41.526h6.13A1.355,1.355,0,0,0,91.326,39ZM26.078,22.724h4.4v3.594l-4.4,2.557ZM83.16,38.816a1.355,1.355,0,0,0-1.355,1.355V88.656A1.355,1.355,0,0,0,83.16,90.01h4.862v4.023H11.977V90.01h4.862a1.355,1.355,0,0,0,1.355-1.355V40.171a1.355,1.355,0,0,0-1.355-1.355H14.378L50,18.094,85.621,38.816ZM22.921,61.038A27.079,27.079,0,1,0,50,33.959,27.11,27.11,0,0,0,22.921,61.038Zm51.448,0A24.369,24.369,0,1,1,50,36.669,24.4,24.4,0,0,1,74.369,61.038ZM50,46.149a13.221,13.221,0,0,0-12.52,9.015,3.912,3.912,0,0,0-2.144-.365h0A3.938,3.938,0,0,0,31.87,59.15L33.394,72.6a1.355,1.355,0,0,0,1.346,1.2h1.24v.773a1.355,1.355,0,1,0,2.71,0V73.8H61.309v.773a1.355,1.355,0,0,0,2.71,0V73.8h1.24a1.355,1.355,0,0,0,1.346-1.2L68.129,59.15A3.949,3.949,0,0,0,64.664,54.8h0a3.9,3.9,0,0,0-2.145.364A13.221,13.221,0,0,0,50,46.149Zm0,2.71a10.5,10.5,0,0,1,10.383,8.988,3.974,3.974,0,0,0-.071.418l-.827,7.3H40.514l-.828-7.3a3.93,3.93,0,0,0-.071-.418A10.5,10.5,0,0,1,50,48.858ZM41.14,71.09l-.319-2.814H59.178l-.319,2.814ZM34.563,58.845a1.24,1.24,0,0,1,1.078-1.354,1.226,1.226,0,0,1,1.353,1.078L38.413,71.09H35.95Zm29.8-1.354a1.239,1.239,0,0,1,1.078,1.354L64.049,71.09H61.586L63,58.569a1.225,1.225,0,0,1,1.353-1.078Z" transform="translate(408.747 8419.043)" fill="#4a4e3c"/>
  </g>
</svg>
