<svg xmlns="http://www.w3.org/2000/svg" width="84" height="84" viewBox="0 0 84 84">
  <g id="img13" transform="translate(-185 -3232)">
    <rect id="Rectangle_461427" data-name="Rectangle 461427" width="84" height="84" rx="9" transform="translate(185 3232)" fill="#9c3413"/>
    <g id="Group_1197574" data-name="Group 1197574" transform="translate(197.345 3244.353)">
      <path id="Path_1019975" data-name="Path 1019975" d="M58.578.2A1.433,1.433,0,0,0,57.13.2L49.744,4.46l0,0-2,1.154a7.988,7.988,0,0,0-6.2.783l-1.715.99A20.7,20.7,0,0,0,21.65,6.324a1.462,1.462,0,0,0-.257-.188,1.439,1.439,0,0,0-1.1-.145L11.1,8.455a8.126,8.126,0,0,0-.857.273l-.822-.474.176-.3a1.448,1.448,0,0,0-.53-1.977L2.178,1.994a1.433,1.433,0,0,0-1.448,0A1.433,1.433,0,0,0,.007,3.248V14.372a1.451,1.451,0,0,0,.724,1.254L5.3,18.265a7.988,7.988,0,0,0,3.779,4.98l.026.015A20.976,20.976,0,0,0,9,25.37a20.623,20.623,0,0,0,5.22,13.725.869.869,0,1,0,1.3-1.155,18.888,18.888,0,0,1-4.78-12.57c0-.382.012-.766.034-1.148l6.1,3.521a2.754,2.754,0,0,0,1.38.372,2.657,2.657,0,0,0,2.63-2.211l.861.5a2.69,2.69,0,0,0,3.621-.842,2.662,2.662,0,0,0,.4-1.1,2.73,2.73,0,0,0,.738.093l2.283,1.318v2.684A2.675,2.675,0,0,0,27.7,30.089a2.672,2.672,0,0,0-3.685,2.518v8.455a3.191,3.191,0,0,0-3.927.457l-.108.108c-.525-.313-1.036-.652-1.527-1.014a.869.869,0,1,0-1.03,1.4,20.74,20.74,0,0,0,1.751,1.157,1.441,1.441,0,0,0,.417.893l6.731,6.731a8.137,8.137,0,0,0,.665.606v.949h-.351A1.449,1.449,0,0,0,25.188,53.8v4.051A1.449,1.449,0,0,0,26.636,59.3H36.27a1.449,1.449,0,0,0,1.448-1.448V50.911a7.988,7.988,0,0,0,2.424-5.763V43.167A20.687,20.687,0,0,0,50.308,25.548a1.441,1.441,0,0,0,.568-.81l2.464-9.195a8.158,8.158,0,0,0,.193-.879l.822-.474.176.3a1.449,1.449,0,0,0,1.978.53l2.072-1.2a1.452,1.452,0,0,0,.724-1.254V1.449A1.433,1.433,0,0,0,58.578.2ZM27.542,18.31a.93.93,0,0,1-1.293.381l0,0-6.227-3.6a.869.869,0,1,0-.869,1.5l6.231,3.6.005,0,1.546.893a.929.929,0,0,1,.316,1.31.967.967,0,0,1-1.29.276L18.22,18.209a.869.869,0,1,0-.869,1.5l6.231,3.6a.929.929,0,0,1,.317,1.31.967.967,0,0,1-1.291.276l-6.187-3.572a.869.869,0,0,0-.869,1.5l3.159,1.824a.929.929,0,0,1,.316,1.31.967.967,0,0,1-1.29.276l-7.788-4.5a6.27,6.27,0,0,1-2.988-4,1.45,1.45,0,0,0-.679-.916l-1.358-.784,1.3-2.258a.869.869,0,1,0-1.5-.869l-1.3,2.258-1.676-.968V3.75l6.2,3.582L6.8,9.317a.869.869,0,1,0,1.5.869l.247-.428L9.5,10.3a1.431,1.431,0,0,0,1.256.092,6.412,6.412,0,0,1,.79-.259l8.923-2.391.107.4a1.447,1.447,0,0,1-1.024,1.773l-1.237.332a.869.869,0,0,0-.209,1.591l9.035,5.216a.968.968,0,0,1,.406,1.256Zm.913,5.365a2.67,2.67,0,0,0,.6-2.408A2.68,2.68,0,0,0,28.343,20,2.671,2.671,0,0,0,28,15.55l-7.321-4.227A3.187,3.187,0,0,0,22.3,7.933a18.967,18.967,0,0,1,15.746.48l-4.3,2.482a2.672,2.672,0,0,0-.412,4.392l-.861.5a2.671,2.671,0,0,0-.332,4.455,2.673,2.673,0,0,0-.553,3.008l-1.938,1.119Zm7.525,33.884H26.926V54.087h9.055ZM38.4,45.148a6.27,6.27,0,0,1-1.97,4.587,1.451,1.451,0,0,0-.454,1.046V52.35H28.724V51.262a1.432,1.432,0,0,0-.548-1.134,6.427,6.427,0,0,1-.619-.555l-6.532-6.532.292-.292a1.449,1.449,0,0,1,2.047,0l.906.906a.869.869,0,0,0,1.483-.614V32.608a.967.967,0,0,1,.884-.98.93.93,0,0,1,.976.929v7.195a.869.869,0,1,0,1.737,0V30.766a.93.93,0,0,1,.976-.929.967.967,0,0,1,.884.98v8.935a.869.869,0,0,0,1.737,0V32.557a.929.929,0,0,1,.976-.929.967.967,0,0,1,.884.98v7.144a.869.869,0,1,0,1.737,0V36.1a.93.93,0,0,1,.976-.929.967.967,0,0,1,.884.98v8.993ZM52.542,13.229a1.431,1.431,0,0,0-.708,1.042,6.432,6.432,0,0,1-.171.814l-2.391,8.923-.4-.107a1.449,1.449,0,0,1-1.024-1.773l.331-1.237a.869.869,0,0,0-1.273-.977l-2.6,1.5a.869.869,0,1,0,.869,1.5l.89-.514a3.19,3.19,0,0,0,2.359,3.172l.145.039a18.949,18.949,0,0,1-8.428,15.5V36.155a2.672,2.672,0,0,0-3.6-2.553v-.994a2.671,2.671,0,0,0-3.692-2.515,2.673,2.673,0,0,0-2.329-1.983V25.871l2.324-1.342a2.677,2.677,0,0,0,1.872.173,2.657,2.657,0,0,0,2.644,2.3,2.756,2.756,0,0,0,1.38-.372l2.873-1.659a.869.869,0,0,0-.869-1.5L37.874,25.13a.967.967,0,0,1-1.291-.276.93.93,0,0,1,.316-1.31h0l6.231-3.6a.869.869,0,0,0-.869-1.5l-6.227,3.595,0,0,0,0-1.549.894a.93.93,0,0,1-1.293-.381.967.967,0,0,1,.407-1.256l1.5-.869h0l6.231-3.6a.869.869,0,0,0-.869-1.5l-6.228,3.6,0,0a.929.929,0,0,1-1.293-.381.967.967,0,0,1,.407-1.256l3.024-1.746,0,0,3.159-1.824a.869.869,0,1,0-.869-1.5l-3.159,1.824h0a.929.929,0,0,1-1.291-.382A.967.967,0,0,1,34.62,12.4l7.789-4.5a6.27,6.27,0,0,1,4.958-.587A1.452,1.452,0,0,0,48.5,7.185L49.857,6.4l3.628,6.284Zm5.022-.823-1.676.968-.464-.8h0L51.361,5.532l6.2-3.582V12.407Z" transform="translate(0 0)" fill="#fff"/>
    </g>
  </g>
</svg>
