<svg xmlns="http://www.w3.org/2000/svg" width="84" height="84" viewBox="0 0 84 84">
  <g id="img11" transform="translate(-185 -3232)">
    <rect id="Rectangle_461427" data-name="Rectangle 461427" width="84" height="84" rx="9" transform="translate(185 3232)" fill="#9c3413"/>
    <g id="Group_1197568" data-name="Group 1197568" transform="translate(195.785 3242.785)">
      <path id="Path_1019970" data-name="Path 1019970" d="M158.237,172.416l1.8.9a10.413,10.413,0,0,0,.435,1.049l-.635,1.906a.931.931,0,0,0,.225.953l2.438,2.438a.931.931,0,0,0,.953.225l1.906-.635a10.4,10.4,0,0,0,1.049.435l.9,1.8a.931.931,0,0,0,.833.515h3.448a.931.931,0,0,0,.833-.515l.9-1.8a10.419,10.419,0,0,0,1.049-.435l1.906.635a.932.932,0,0,0,.953-.225l2.438-2.438a.931.931,0,0,0,.225-.953l-.635-1.906a10.4,10.4,0,0,0,.435-1.049l1.8-.9a.931.931,0,0,0,.515-.833v-3.448a.931.931,0,0,0-.515-.833l-1.8-.9a10.4,10.4,0,0,0-.435-1.049l.635-1.906a.931.931,0,0,0-.225-.953l-2.438-2.438a.931.931,0,0,0-.953-.225l-1.906.635a10.4,10.4,0,0,0-1.049-.435l-.9-1.8a.931.931,0,0,0-.833-.515h-3.448a.931.931,0,0,0-.833.515l-.9,1.8a10.4,10.4,0,0,0-1.049.435l-1.906-.635a.931.931,0,0,0-.953.225l-2.438,2.438a.931.931,0,0,0-.225.953l.635,1.906a10.415,10.415,0,0,0-.435,1.049l-1.8.9a.931.931,0,0,0-.515.833v3.448a.931.931,0,0,0,.515.833Zm1.347-3.705,1.628-.814a.931.931,0,0,0,.473-.559,8.517,8.517,0,0,1,.611-1.474.931.931,0,0,0,.06-.73l-.576-1.728,1.624-1.624,1.728.576a.931.931,0,0,0,.73-.06,8.518,8.518,0,0,1,1.474-.611.932.932,0,0,0,.559-.473l.814-1.628h2.3l.814,1.628a.93.93,0,0,0,.559.473,8.524,8.524,0,0,1,1.474.611.931.931,0,0,0,.73.06l1.728-.576,1.624,1.624-.576,1.728a.931.931,0,0,0,.06.73,8.515,8.515,0,0,1,.611,1.474.931.931,0,0,0,.473.559l1.628.814v2.3l-1.628.814a.931.931,0,0,0-.473.559,8.515,8.515,0,0,1-.611,1.474.931.931,0,0,0-.06.73l.576,1.728-1.624,1.624-1.728-.576a.932.932,0,0,0-.73.06,8.526,8.526,0,0,1-1.474.611.931.931,0,0,0-.559.473l-.814,1.628h-2.3l-.814-1.628a.931.931,0,0,0-.559-.473,8.52,8.52,0,0,1-1.474-.611.931.931,0,0,0-.73-.06l-1.728.576-1.624-1.624.576-1.728a.931.931,0,0,0-.06-.73,8.5,8.5,0,0,1-.611-1.474.931.931,0,0,0-.473-.559l-1.628-.814Z" transform="translate(-138.144 -138.144)" fill="#fff"/>
      <path id="Path_1019971" data-name="Path 1019971" d="M222.571,227.239a4.666,4.666,0,1,0-1.145-9.191.931.931,0,1,0,.456,1.805,2.8,2.8,0,1,1-2.115,2.719,2.853,2.853,0,0,1,.029-.407.931.931,0,0,0-1.843-.268,4.669,4.669,0,0,0,4.618,5.342Z" transform="translate(-190.856 -190.857)" fill="#fff"/>
      <path id="Path_1019972" data-name="Path 1019972" d="M31.715,0A31.447,31.447,0,0,0,18.3,2.97a.931.931,0,1,0,.789,1.687,29.547,29.547,0,0,1,11.7-2.781V8.391A23.332,23.332,0,0,0,8.39,30.784H1.876a29.8,29.8,0,0,1,13.416-24,.931.931,0,1,0-1.026-1.554A31.721,31.721,0,1,0,31.715,0ZM61.554,30.784H55.039A23.373,23.373,0,0,0,52.306,20.71a.931.931,0,1,0-1.641.879,21.5,21.5,0,0,1-3.116,24.643l-3.971-3.971a15.875,15.875,0,0,0,0-21.092l3.97-3.97q.431.47.833.963a.931.931,0,1,0,1.444-1.176,23.23,23.23,0,0,0-17.179-8.6V1.876A29.892,29.892,0,0,1,61.554,30.784ZM31.715,53.2A21.327,21.327,0,0,1,17.2,47.549l3.971-3.971a15.875,15.875,0,0,0,21.092,0l3.971,3.971A21.326,21.326,0,0,1,31.715,53.2ZM21.808,21.808a14.01,14.01,0,1,1-4.1,9.907,13.919,13.919,0,0,1,4.1-9.907Zm9.907-11.574a21.327,21.327,0,0,1,14.517,5.647l-3.971,3.971a15.875,15.875,0,0,0-21.092,0L17.2,15.882a21.325,21.325,0,0,1,14.517-5.647ZM15.881,17.2l3.971,3.971a15.875,15.875,0,0,0,0,21.092l-3.971,3.971a21.483,21.483,0,0,1,0-29.034ZM1.876,32.646H8.39A23.332,23.332,0,0,0,30.784,55.04v6.514A29.892,29.892,0,0,1,1.876,32.646Zm30.77,28.908V55.04A23.34,23.34,0,0,0,55.04,32.646h6.515A29.892,29.892,0,0,1,32.646,61.554Z" fill="#fff"/>
    </g>
  </g>
</svg>
