<svg xmlns="http://www.w3.org/2000/svg" width="96" height="96" viewBox="0 0 96 96">
  <g id="img26" transform="translate(-794.039 -2920.08)">
    <path id="Elipse_5729" data-name="Elipse 5729" d="M48,0A48,48,0,1,1,0,48,48,48,0,0,1,48,0Z" transform="translate(794.039 2920.081)" fill="#9c3413"/>
    <path id="Path_1018659" data-name="Path 1018659" d="M131.1,53.424a11.416,11.416,0,0,0-3.238-5.353,12.521,12.521,0,0,0-2.952-2.023,3.857,3.857,0,0,0-2.58-4.392c-.033-.01-.066-.018-.1-.028a12.99,12.99,0,0,0-5.956-9.535,16.886,16.886,0,0,1-5.42-5.162l1.259.277a4.017,4.017,0,0,0,3.673-1.033,9.27,9.27,0,0,0,2.884-6.268l.772-.3a1.771,1.771,0,0,0,.823-2.644l-.766-1.129a4.167,4.167,0,0,1-.685-2.871l.306-2.378a8.5,8.5,0,0,0-1.829-6.438,1.009,1.009,0,0,0-.2-.247l-.014-.016A8.509,8.509,0,0,0,110.688,1h-5.96a8.45,8.45,0,0,0-7.922,5.415,11.624,11.624,0,0,0-.722,2.944A6.51,6.51,0,1,0,99.8,21.469l-.028.2a81.755,81.755,0,0,0-.764,9.448,5.026,5.026,0,0,0-.668,2.506V43.5a20.739,20.739,0,0,0,3.373,11.372,13.177,13.177,0,0,1-2.923,8.053l-.731.9A1.011,1.011,0,1,0,99.635,65.1l.731-.9a15.158,15.158,0,0,0,3.148-6.959q.288.33.592.649l6.942,7.275a1.011,1.011,0,0,0,1.464-1.4l-6.942-7.275a18.748,18.748,0,0,1-5.2-12.993V33.618a3.034,3.034,0,1,1,6.068,0V46.582a11.953,11.953,0,0,0,2.644,7.483L117.99,65.1a1.011,1.011,0,1,0,1.574-1.271l-8.911-11.037a9.92,9.92,0,0,1-2.195-6.213V33.618a5.228,5.228,0,0,0-.057-.762,15.866,15.866,0,0,0,5.709,1.086q.607,0,1.219-.048a10.964,10.964,0,0,1,4.86,7.693,3.856,3.856,0,0,0-2.061,1.3l-.745.917a3.856,3.856,0,0,0,1.871,6.12l.19.058a3.879,3.879,0,0,0,1.134.169,3.834,3.834,0,0,0,3.338-1.951l.171-.3a9.5,9.5,0,0,1,5.06,6.057,10.106,10.106,0,0,1-2.539,9.765,1.012,1.012,0,0,0,1.376,1.484A12.045,12.045,0,0,0,131.1,53.424ZM98.692,7.149a6.439,6.439,0,0,1,6.037-4.127h5.96a6.484,6.484,0,0,1,4.568,1.886,4.273,4.273,0,0,1-4.367,2.521,2.032,2.032,0,0,0-2.078,1.487,10.2,10.2,0,0,1-2.32,4.077,2.866,2.866,0,0,0-3.171-.258,3.517,3.517,0,0,0-1.8,3.426,3.709,3.709,0,0,0,.5,1.721,2.365,2.365,0,0,1-.869.638l-1.689-2.759A9.785,9.785,0,0,1,98.692,7.149Zm-6.669,8.706a4.5,4.5,0,0,1,4.012-4.463,11.784,11.784,0,0,0,1.7,5.426l1.561,2.551a4.483,4.483,0,0,1-7.272-3.515Zm9.084,13.258c.116-2.4.34-4.8.671-7.168l.057-.406a4.371,4.371,0,0,0,.011-1.113,4.579,4.579,0,0,0,1.55-1.053,5.226,5.226,0,0,0,2.7.965c.03,0,.061,0,.09,0a1.011,1.011,0,0,0,.087-2.019,3.079,3.079,0,0,1-2.449-1.391c-.032-.048-.064-.094-.1-.139a1.653,1.653,0,0,1-.191-.8,1.5,1.5,0,0,1,.741-1.47.886.886,0,0,1,1.061.131,2.007,2.007,0,0,0,2.673-.316,12.253,12.253,0,0,0,2.765-4.888,6.344,6.344,0,0,0,5.778-2.711,6.473,6.473,0,0,1,.568,3.588L116.81,12.7a6.182,6.182,0,0,0,1.016,4.264l.588.867-.556.216a1.9,1.9,0,0,0-1.2,1.651,7.344,7.344,0,0,1-2.278,5.019,2,2,0,0,1-1.829.51l-4.884-1.075a1.011,1.011,0,1,0-.435,1.975l1,.22a16.148,16.148,0,0,0,4.245,5.457,15.677,15.677,0,0,1-5.558-1.865c-.028-.015-.057-.029-.086-.042a5.057,5.057,0,0,0-5.727-.788Zm21.608,17.113-.555.973a1.824,1.824,0,0,1-2.127.847l-.19-.058a1.833,1.833,0,0,1-.89-2.909l.745-.917a1.843,1.843,0,0,1,1.429-.676,1.8,1.8,0,0,1,.569.091,1.834,1.834,0,0,1,1.019,2.649Z" transform="translate(731.275 2934.84)" fill="#fff"/>
  </g>
</svg>
