<svg xmlns="http://www.w3.org/2000/svg" width="84" height="84" viewBox="0 0 84 84">
  <g id="img21" transform="translate(-185 -4728)">
    <rect id="Rectangle_461436" data-name="Rectangle 461436" width="84" height="84" rx="9" transform="translate(185 4728)" fill="#9c3413"/>
    <g id="Group_1197584" data-name="Group 1197584" transform="translate(203 4746)">
      <path id="Path_1020002" data-name="Path 1020002" d="M46.906,25.075A1.1,1.1,0,0,0,48,23.981V21.813a1.1,1.1,0,0,0-1.094-1.093h-.7l-2.485-4.6a1.093,1.093,0,0,0-.962-.574H38.944V10.332h1.435v1.845a.9.9,0,0,0,.9.9H47.1a.9.9,0,0,0,.784-1.337l-.7-1.243.7-1.243A.9.9,0,0,0,47.1,7.917H44.938V6.071a.9.9,0,0,0-.9-.9h-5.6a.9.9,0,0,0-.9.9v9.475H34.716V9.529h.468a1.1,1.1,0,0,0,1.094-1.094V6.266a1.1,1.1,0,0,0-1.094-1.093h-.7L32,.574A1.093,1.093,0,0,0,31.038,0H16.962A1.093,1.093,0,0,0,16,.574l-2.485,4.6h-.7a1.1,1.1,0,0,0-1.094,1.093V8.435a1.1,1.1,0,0,0,1.094,1.094h.468v6.018H10.462V6.071a.9.9,0,0,0-.9-.9H3.96a.9.9,0,0,0-.9.9V7.917H.9A.9.9,0,0,0,.115,9.254L.81,10.5l-.7,1.243A.9.9,0,0,0,.9,13.076H6.723a.9.9,0,0,0,.9-.9V10.332H9.056v5.214H5.239a1.093,1.093,0,0,0-.962.574l-2.485,4.6h-.7A1.1,1.1,0,0,0,0,21.813v2.168a1.1,1.1,0,0,0,1.094,1.094h.414V43.644H1.094A1.1,1.1,0,0,0,0,44.738v2.167A1.1,1.1,0,0,0,1.094,48H31.68a.7.7,0,0,0,0-1.406H1.406V45.051H46.594v1.543H34.961a.7.7,0,0,0,0,1.406H46.906A1.1,1.1,0,0,0,48,46.906V44.738a1.1,1.1,0,0,0-1.094-1.094h-.414V25.075Zm-1.082-14.14.411.735h-4.45V9.323h4.45l-.411.735A.9.9,0,0,0,45.824,10.935Zm-6.88-4.356h4.588V7.917H41.278a.9.9,0,0,0-.9.9v.111H38.944V6.579ZM6.215,11.67H1.765l.411-.735a.9.9,0,0,0,0-.877l-.411-.735h4.45ZM7.621,8.926V8.815a.9.9,0,0,0-.9-.9H4.468V6.579H9.056V8.926Zm34.954,8.027L44.61,20.72H34.716V16.953ZM13.129,6.579H17.46a.7.7,0,0,0,0-1.406H15.113l2.035-3.767h13.7l2.035,3.767H20.741a.7.7,0,1,0,0,1.406h14.13V8.123H13.129Zm-7.7,10.373h7.859v3.767H3.39ZM1.406,22.126H13.284v1.543H1.406ZM2.914,36.6H5.923v3.44H2.914Zm0-8.074H5.923v3.44H2.914Zm0,12.92H6.345a.985.985,0,0,0,.984-.984V36.176a.985.985,0,0,0-.984-.984H2.914V33.371H6.345a.985.985,0,0,0,.984-.984V28.1a.985.985,0,0,0-.984-.984H2.914V25.075h10.37v3.587a.7.7,0,1,0,1.406,0V9.529H33.31V43.644H28.365V36.176a.985.985,0,0,0-.984-.984H20.62a.985.985,0,0,0-.984.984v7.468H14.691v-11.7a.7.7,0,1,0-1.406,0v11.7H2.914Zm20.033-.6h.35v2.8H21.042V36.6H23.3v2.837h-.35a.7.7,0,0,0,0,1.406Zm1.756,0h.35a.7.7,0,0,0,0-1.406H24.7V36.6h2.255v7.046H24.7Zm20.383-8.877H42.077v-3.44h3.009Zm0,8.074H42.077V36.6h3.009Zm0-12.92H41.655a.985.985,0,0,0-.984.984v4.284a.985.985,0,0,0,.984.984h3.431v1.821H41.655a.985.985,0,0,0-.984.984V40.46a.985.985,0,0,0,.984.984h3.431v2.2H34.716V25.075H39.6a.7.7,0,1,0,0-1.406H34.716V22.126H46.594v1.543H42.878a.7.7,0,0,0,0,1.406h2.208Z" fill="#fff"/>
      <path id="Path_1020003" data-name="Path 1020003" d="M210.429,295.513h6.76a.985.985,0,0,0,.984-.984v-4.284a.985.985,0,0,0-.984-.984h-6.76a.985.985,0,0,0-.984.984v4.284A.986.986,0,0,0,210.429,295.513Zm6.338-1.406h-2.255v-3.44h2.255Zm-5.917-3.44h2.255v3.44h-2.255Z" transform="translate(-189.81 -262.142)" fill="#fff"/>
      <path id="Path_1020004" data-name="Path 1020004" d="M210.429,210.815h6.76a.985.985,0,0,0,.984-.984v-4.284a.985.985,0,0,0-.984-.984h-6.76a.985.985,0,0,0-.984.984v4.284A.986.986,0,0,0,210.429,210.815Zm6.338-1.406h-2.255v-3.44h2.255Zm-5.917-3.44h2.255v3.44h-2.255Z" transform="translate(-189.81 -185.384)" fill="#fff"/>
      <path id="Path_1020005" data-name="Path 1020005" d="M210.429,126.117h6.76a.985.985,0,0,0,.984-.984v-4.284a.985.985,0,0,0-.984-.984h-6.76a.985.985,0,0,0-.984.984v4.284A.986.986,0,0,0,210.429,126.117Zm6.338-1.406h-2.255v-3.44h2.255Zm-5.917-3.44h2.255v3.44h-2.255Z" transform="translate(-189.81 -108.627)" fill="#fff"/>
    </g>
  </g>
</svg>
