<svg xmlns="http://www.w3.org/2000/svg" width="128" height="128" viewBox="0 0 128 128">
  <g id="img20" transform="translate(-383.746 -8400)">
    <circle id="Ellipse_13609" data-name="Ellipse 13609" cx="64" cy="64" r="64" transform="translate(383.746 8400)" fill="#ff945d"/>
    <path id="Path_1020390" data-name="Path 1020390" d="M72.722,38.3,70.35,32.45a4.341,4.341,0,0,0-2.2-7c0-.281,0-7.323,0-7.621a2.217,2.217,0,0,0-1.51-2.121L36.6,5.3a5.9,5.9,0,0,0-3.844,0l-7.48,2.589a1.069,1.069,0,1,0,.7,2.019l7.48-2.589a3.752,3.752,0,0,1,2.446,0l30.042,10.4a.107.107,0,0,1,0,.2L55.6,21.505v-.32a2.668,2.668,0,0,0-2.2-2.629,105.72,105.72,0,0,0-37.447,0,2.668,2.668,0,0,0-2.2,2.629v.32L3.408,17.925a.107.107,0,0,1,0-.2l17.763-6.149a1.069,1.069,0,1,0-.7-2.019L2.709,15.7a2.244,2.244,0,0,0,0,4.241L13.75,23.767V34.342A11.086,11.086,0,0,0,8.7,54.592,11.089,11.089,0,0,0,11.09,76.508H66.017a3.328,3.328,0,0,0,.068-6.656,12.242,12.242,0,0,1-.026-8.866,3.329,3.329,0,0,0-.042-6.657h-.66a3.327,3.327,0,0,0-3.108-4.521h-.029a12.234,12.234,0,0,1-.2-8.3,3,3,0,0,0,2.206.968h5.705a3.006,3.006,0,0,0,2.5-1.331,3.041,3.041,0,0,0,.3-2.847Zm-3.479-8.654a2.165,2.165,0,1,1-2.165-2.2A2.182,2.182,0,0,1,69.243,29.642Zm-3.233-9.48v5.284a4.341,4.341,0,0,0-2.2,7l-.745,1.837H55.6V23.767Zm-49.683.5a103.609,103.609,0,0,1,36.693,0,.533.533,0,0,1,.439.525v7.283H46.875a1.069,1.069,0,0,0,0,2.137h6.584v3.681H15.887V30.606h26a1.069,1.069,0,0,0,0-2.137h-26V21.186a.533.533,0,0,1,.439-.525Zm50.882,37a1.193,1.193,0,0,1-1.192,1.192H11.09a6.569,6.569,0,1,0,0,13.138h42.2a1.069,1.069,0,1,0,0-2.137H11.09a4.432,4.432,0,1,1,0-8.863h33.7v5.99a1.069,1.069,0,0,0,1.458.995l2.885-1.13,2.885,1.13a1.069,1.069,0,0,0,1.458-.995v-5.99H63.791a14.342,14.342,0,0,0,.021,8.863h-5.54a1.069,1.069,0,1,0,0,2.137h7.745a1.192,1.192,0,1,1,0,2.384H11.09a8.952,8.952,0,1,1,0-17.9H66.017a1.193,1.193,0,0,1,1.192,1.192ZM46.927,60.987h4.412v4.424L49.523,64.7a1.068,1.068,0,0,0-.779,0l-1.816.711Zm-18.29-9.042H62.25a1.192,1.192,0,0,1,0,2.384H14.857a8.953,8.953,0,0,1,0-17.905H62.194c-.264.709-.752,1.713-.916,2.384H14.857a6.569,6.569,0,1,0,0,13.138h8.794a1.069,1.069,0,1,0,0-2.137H14.857a4.432,4.432,0,1,1,0-8.863h3.907v5.939a1.069,1.069,0,0,0,1.458.995l2.885-1.13,2.885,1.13a1.069,1.069,0,0,0,1.458-.995V40.945h32.5a14.343,14.343,0,0,0,0,8.863H28.638a1.069,1.069,0,0,0,0,2.137Zm-7.737-11h4.412v4.373L23.5,44.606a1.068,1.068,0,0,0-.779,0l-1.816.711Zm49.753-1a.866.866,0,0,1-.723.388H64.226a.866.866,0,0,1-.723-.388.9.9,0,0,1-.088-.85L65.6,33.711a4.278,4.278,0,0,0,2.954,0L70.742,39.1a.9.9,0,0,1-.088.85Z" transform="translate(411.273 8423.255)" fill="#4a4e3c"/>
  </g>
</svg>
