<svg xmlns="http://www.w3.org/2000/svg" width="84" height="84" viewBox="0 0 84 84">
  <g id="img22" transform="translate(-601 -4728)">
    <rect id="Rectangle_461440" data-name="Rectangle 461440" width="84" height="84" rx="9" transform="translate(601 4728)" fill="#9c3413"/>
    <g id="Group_1197586" data-name="Group 1197586" transform="translate(616 4739.516)">
      <path id="Path_1020006" data-name="Path 1020006" d="M50.908,50.795a4.556,4.556,0,0,0-.576-4.562V25.228h0a1.535,1.535,0,0,0,1.533-1.533v-1.21A4.577,4.577,0,0,0,47.3,17.914H42.21V9.292a2.985,2.985,0,0,0-.967-5.808h-21.7a.791.791,0,0,0,0,1.582h21.7a1.4,1.4,0,0,1,0,2.806H12.757a1.4,1.4,0,0,1,0-2.806h2.99a.791.791,0,0,0,0-1.582h-2.99a2.985,2.985,0,0,0-.967,5.808v8.621H7.3a4.577,4.577,0,0,0-4.572,4.572v1.21a1.535,1.535,0,0,0,.941,1.414V46.233a4.556,4.556,0,0,0-.576,4.562A3.767,3.767,0,0,0,0,54.5a2.256,2.256,0,0,0,2.254,2.254H37.517a.791.791,0,1,0,0-1.582H2.254a.672.672,0,0,1-.672-.672,2.182,2.182,0,0,1,2.18-2.18H50.238a2.182,2.182,0,0,1,2.18,2.18.672.672,0,0,1-.672.672H41.419a.791.791,0,1,0,0,1.582H51.746A2.256,2.256,0,0,0,54,54.5a3.767,3.767,0,0,0-3.091-3.7Zm-8.7-31.3H47.3a2.993,2.993,0,0,1,2.99,2.99v1.16H42.21Zm0,5.732h6.541v19.7a4.563,4.563,0,0,0-6.066,1.92,3.353,3.353,0,0,0-.475.069ZM13.372,9.454H40.628V23.645H13.372Zm0,15.869H40.628v4.051H13.372Zm0,22.289V30.955H40.628V47.671c0,.025,0,.049,0,.074a3.335,3.335,0,0,0-1.024,2.989H35.162V35.339a1.557,1.557,0,0,0-1.555-1.555H20.392a1.557,1.557,0,0,0-1.555,1.555V50.734H14.392a3.335,3.335,0,0,0-1.031-3,.792.792,0,0,0,.011-.126Zm12.837,3.122H20.419V35.366h5.789Zm7.371,0H27.791V35.366H33.58ZM4.308,22.485A2.993,2.993,0,0,1,7.3,19.5H11.79v4.15H4.308Zm7.482,2.742V46.912a3.355,3.355,0,0,0-.475-.069,4.563,4.563,0,0,0-6.066-1.92v-19.7ZM4.86,50.734a2.984,2.984,0,1,1,5.214-2.809.791.791,0,0,0,.815.5c.061-.006.121-.009.179-.009A1.789,1.789,0,0,1,12.854,50.2a1.766,1.766,0,0,1-.082.531H4.86Zm36.368,0a1.765,1.765,0,0,1-.082-.531,1.789,1.789,0,0,1,1.787-1.787c.057,0,.118,0,.179.009a.792.792,0,0,0,.815-.5,2.984,2.984,0,1,1,5.214,2.809H41.228Z" transform="translate(0)" fill="#fff"/>
      <path id="Path_1020007" data-name="Path 1020007" d="M210.608,76.48a5.352,5.352,0,1,0,5.352,5.352A5.358,5.358,0,0,0,210.608,76.48Zm0,9.122a3.77,3.77,0,1,1,3.77-3.77A3.774,3.774,0,0,1,210.608,85.6Z" transform="translate(-183.608 -65.297)" fill="#fff"/>
      <path id="Path_1020008" data-name="Path 1020008" d="M250.533,108.44h-.451v-1.448a.791.791,0,1,0-1.582,0v2.239a.791.791,0,0,0,.791.791h1.242a.791.791,0,1,0,0-1.582Z" transform="translate(-222.291 -91.884)" fill="#fff"/>
      <path id="Path_1020009" data-name="Path 1020009" d="M219.681,350.262a.791.791,0,0,0,.791-.791v-1.433a.791.791,0,1,0-1.582,0v1.433A.791.791,0,0,0,219.681,350.262Z" transform="translate(-195.804 -307.507)" fill="#fff"/>
      <path id="Path_1020010" data-name="Path 1020010" d="M278.9,350.262a.791.791,0,0,0,.791-.791v-1.433a.791.791,0,1,0-1.582,0v1.433A.791.791,0,0,0,278.9,350.262Z" transform="translate(-248.777 -307.507)" fill="#fff"/>
    </g>
  </g>
</svg>
