<svg xmlns="http://www.w3.org/2000/svg" width="128" height="128" viewBox="0 0 128 128">
  <g id="img21" transform="translate(-381.746 -8402)">
    <path id="Path_997402" data-name="Path 997402" d="M64,0A64,64,0,1,1,0,64,64,64,0,0,1,64,0Z" transform="translate(381.746 8402)" fill="#ff945d"/>
    <g id="Group_1197717" data-name="Group 1197717" transform="translate(385.054 8425.169)">
      <path id="Path_1020391" data-name="Path 1020391" d="M95.349,170.8H90.482v-.547a2.47,2.47,0,0,0-2.467-2.467h-9.6a1.2,1.2,0,1,0,0,2.4h9.6a.071.071,0,0,1,.072.071v14.606a1.2,1.2,0,0,0,2.4,0V173.195h4.867a.294.294,0,0,1,.294.294V215.28a4.977,4.977,0,0,1-4.971,4.971H31.431a4.977,4.977,0,0,1-4.971-4.971V173.488a.294.294,0,0,1,.294-.294H31.78v40.97a3.067,3.067,0,0,0,3.064,3.064H87.418a3.067,3.067,0,0,0,3.064-3.064v-24.2a1.2,1.2,0,1,0-2.4,0v17.239H68.705a8.746,8.746,0,0,0-6.376,2.757v-15.5a1.2,1.2,0,0,0-2.4,0v15.5a8.746,8.746,0,0,0-6.376-2.757H48.114a1.2,1.2,0,1,0,0,2.4h5.443a6.385,6.385,0,0,1,6.271,5.231H34.844a.668.668,0,0,1-.668-.668V209.6H43a1.2,1.2,0,0,0,0-2.4H34.176V170.252a.071.071,0,0,1,.072-.071h9.6a1.2,1.2,0,0,0,0-2.4h-9.6a2.47,2.47,0,0,0-2.467,2.467v.547H26.754a2.693,2.693,0,0,0-2.69,2.69v41.792a7.376,7.376,0,0,0,7.367,7.367h59.24a7.376,7.376,0,0,0,7.367-7.367V173.488a2.692,2.692,0,0,0-2.689-2.69ZM68.705,209.6H88.086v4.563a.668.668,0,0,1-.668.668H62.434A6.385,6.385,0,0,1,68.705,209.6Z" transform="translate(0 -140.986)" fill="#4a4e3c"/>
      <path id="Path_1020392" data-name="Path 1020392" d="M150.433,16.808a1.2,1.2,0,0,0,1.305-1.08,14.733,14.733,0,1,1,26.716,9.88l-.029.043L170.76,37.584a1.2,1.2,0,0,0-.19.648v1.552a.572.572,0,0,1-.571.571h-.078l.763-12.949h1.365a3.545,3.545,0,0,0,3.541-3.541v-.145a3.541,3.541,0,0,0-7.076-.208l-.088,1.5h-4.2l-.088-1.5a3.541,3.541,0,0,0-7.076.208v.145A3.545,3.545,0,0,0,160.6,27.4h1.365l.763,12.941a.57.57,0,0,1-.489-.563V38.231a1.2,1.2,0,0,0-.19-.648L154.383,25.65l-.029-.043a14.6,14.6,0,0,1-2.307-5.165,1.2,1.2,0,0,0-2.335.537,16.981,16.981,0,0,0,2.668,5.987l7.462,11.617v1.2a2.97,2.97,0,0,0,1.769,2.712v2.026a3.87,3.87,0,0,0,3.866,3.866h1.853a3.87,3.87,0,0,0,3.866-3.866V42.495a2.97,2.97,0,0,0,1.769-2.712v-1.2l7.462-11.617A17.129,17.129,0,1,0,149.353,15.5a1.2,1.2,0,0,0,1.08,1.305ZM170.9,23.651a1.145,1.145,0,0,1,2.289.067v.145a1.147,1.147,0,0,1-1.146,1.145h-1.223Zm-10.3,1.358a1.147,1.147,0,0,1-1.146-1.145v-.145a1.145,1.145,0,0,1,2.289-.067l.08,1.358Zm7.683,2.4-.763,12.949h-2.392L164.365,27.4Zm.517,17.116a1.472,1.472,0,0,1-1.47,1.47h-1.853a1.472,1.472,0,0,1-1.47-1.47V42.75H168.8v1.771Z" transform="translate(-105.273)" fill="#4a4e3c"/>
      <path id="Path_1020393" data-name="Path 1020393" d="M381.209,32.274a1.193,1.193,0,0,0,.79-.3l2.614-2.295a1.2,1.2,0,0,0-1.581-1.8l-2.614,2.295a1.2,1.2,0,0,0,.791,2.1Z" transform="translate(-299.094 -23.178)" fill="#4a4e3c"/>
      <path id="Path_1020394" data-name="Path 1020394" d="M380.418,91.146l2.614,2.3a1.2,1.2,0,0,0,1.581-1.8L382,89.345a1.2,1.2,0,0,0-1.581,1.8Z" transform="translate(-299.095 -74.825)" fill="#4a4e3c"/>
      <path id="Path_1020395" data-name="Path 1020395" d="M101.31,29.681l2.614,2.295a1.2,1.2,0,0,0,1.581-1.8l-2.614-2.295a1.2,1.2,0,0,0-1.581,1.8Z" transform="translate(-64.566 -23.177)" fill="#4a4e3c"/>
      <path id="Path_1020396" data-name="Path 1020396" d="M102.1,93.739a1.194,1.194,0,0,0,.79-.3l2.614-2.3a1.2,1.2,0,0,0-1.581-1.8l-2.614,2.3a1.2,1.2,0,0,0,.791,2.1Z" transform="translate(-64.567 -74.826)" fill="#4a4e3c"/>
      <path id="Path_1020397" data-name="Path 1020397" d="M115.1,253.852a1.2,1.2,0,0,0-1.2-1.2H102.1a1.2,1.2,0,1,0,0,2.4h11.8A1.2,1.2,0,0,0,115.1,253.852Z" transform="translate(-64.566 -212.3)" fill="#4a4e3c"/>
      <path id="Path_1020398" data-name="Path 1020398" d="M128.934,290.8H115.649a1.2,1.2,0,0,0,0,2.4h13.285a1.2,1.2,0,0,0,0-2.4Z" transform="translate(-75.95 -244.357)" fill="#4a4e3c"/>
      <path id="Path_1020399" data-name="Path 1020399" d="M128.934,327.346H115.649a1.2,1.2,0,1,0,0,2.4h13.285a1.2,1.2,0,1,0,0-2.4Z" transform="translate(-75.95 -275.062)" fill="#4a4e3c"/>
      <path id="Path_1020400" data-name="Path 1020400" d="M128.934,363.887H115.649a1.2,1.2,0,0,0,0,2.4h13.285a1.2,1.2,0,1,0,0-2.4Z" transform="translate(-75.95 -305.767)" fill="#4a4e3c"/>
      <path id="Path_1020401" data-name="Path 1020401" d="M336.692,253.852a1.2,1.2,0,0,0-1.2-1.2h-11.8a1.2,1.2,0,1,0,0,2.4h11.8A1.2,1.2,0,0,0,336.692,253.852Z" transform="translate(-250.766 -212.3)" fill="#4a4e3c"/>
      <path id="Path_1020402" data-name="Path 1020402" d="M314.13,290.8H300.845a1.2,1.2,0,0,0,0,2.4H314.13a1.2,1.2,0,1,0,0-2.4Z" transform="translate(-231.567 -244.357)" fill="#4a4e3c"/>
      <path id="Path_1020403" data-name="Path 1020403" d="M314.13,327.346H300.845a1.2,1.2,0,1,0,0,2.4H314.13a1.2,1.2,0,1,0,0-2.4Z" transform="translate(-231.567 -275.062)" fill="#4a4e3c"/>
      <path id="Path_1020404" data-name="Path 1020404" d="M314.13,363.887H300.845a1.2,1.2,0,0,0,0,2.4H314.13a1.2,1.2,0,1,0,0-2.4Z" transform="translate(-231.567 -305.767)" fill="#4a4e3c"/>
    </g>
  </g>
</svg>
