<svg xmlns="http://www.w3.org/2000/svg" width="292" height="317" viewBox="0 0 292 317">
  <g id="img2" transform="translate(-1121 -406)">
    <rect id="Rectangle_461476" data-name="Rectangle 461476" width="292" height="317" rx="20" transform="translate(1121 406)" fill="#e1c1b7"/>
    <g id="Group_1188295" data-name="Group 1188295" transform="translate(12790.804 709.165)">
      <g id="Group_1188286" data-name="Group 1188286" transform="translate(-11633.399 -295.159)">
        <path id="Path_1012083" data-name="Path 1012083" d="M1333.051,227.858l.439.116.436.022h0l.333-.05.047-.107-.009-.016-1.808-2-.176-.144-3.665-2.269-.1-.066-.458-.446-.282-.22-.549-.254-.895-.408-.913-.524-.926-.637-.941-.747-.345-.229-1.033-.458-1.064-.358h0l-1.622-.345-1.685-.126-.483-.006-1.12.009-.772.132-.442.166-.116.173.1.182.119.025.935-.05,1.1.038,1.271.122,1.441.214.536.129.461.185.386.248.311.311h0l.091.119.022.031.235.465.179.612.17.574.232.377.417.311.6.2.8.148,1.161.223.816.226.593.264.386.3.719.678.8.515h0l.706.3.76.192,1.368.323,1.061.439.339.251.135.276-.009.154-.844-.389-.869-.289h0l-.32-.078-.32-.072-1.459-.37-.907-.4-.69-.493-.9-.75-.5-.336-.458-.144-2.784-.574-.442-.148-.38-.248-.217-.232-.195-.317-.289-.857-.21-.653-.157-.279L1321,220.6l-.527-.292-.9-.195-.192-.031-1.218-.176-1.164-.1-1.111-.031-1.054.044-.223-.034-.185-.132-.11-.2-.006-.226h0l.044-.129.05-.1.21-.317.279-.254.333-.185.367-.1.97-.11.96-.044.951.028.938.1h0l1.579.323,1.547.524,1.077.584,1.409,1,1.236.869,1.428.844.044.013.091-.044.009-.1-.91-1.943-.985-1.685-.678-1.13-.493-1.051-.314-1.007-.154-.985-.006-.9.012-.753-.06-.637-.135-.577-.22-.546-.323-.518-.433-.493-.072-.122,0-.141.066-.126.119-.075.138-.006.562.282.044.019.122-.038.037-.119-.025-.154-.339-2.147-.147-1.566V204.35l.16-1.177.025-.078.107-.141.157-.078.176-.006.16.069.182.151h0l.32.4.226.505.6,1.977.634,2.005.257.615.267.483.728,1.036.828,1.186.511.97.967,1.974,1.735,3.16.16.217.207.173.75.549.719.653.684.763.65.869.038.028.072-.019.019-.075-.361-1.334-.214-1.409-.066-1.478.085-1.55-.009-.4-.1-.468-.022-.474.634-2.677.361-1.13.389-.989.289-.552.333-.468.383-.373.43-.286.417-.179.17-.1,3.609-3.716.135-.094.2-.034.2.066.144.151.056.2.069,2.608.035.251,1,4.042.085.1h.135l.028-.019,3.327-2.7.116-.056.141.006.123.072.069.126,0,.141-1.431,5.853.028.107.1.034h0l.044-.016,2.234-1.4.091-.078.781-.807.364-.273.348-.185.053-.016.179.06.063.179-.286,1.588-.483,1.513h0l-.618,1.318-.788,1.252.034.069.025-.006,2.106-1.268,2.492-1.215.775-.248.665-.016h.2l.188-.069.835-.549.49-.521.587-.97,1.083-1.679.421-.471.4-.3.138-.044.144.022.119.085.069.129.009.091-.141,2.266-.257,1.921-.386,1.607-.511,1.293-.019.034-.3.411-.455.373-.621.345-.951.408-.358.144-.257.148-.216.2-.383.609-.606,1.168-.433.728-.593.713-.722.625-.838.452-1.309.43-1.161.374-.173.072-.913.518-.838.728-.8.957-.882,1.343-.009.094.069.066h0l.028,0,3.05.119.223.053.185.135.119.2.038.226-.066,1.66-.053.232-.138.2-.2.135-.235.05-.888.022-.144.056-.075.138-1.72,11.565.031.119.11.056h14.725l.214.088.088.21h0v4.679l-.11.267-.264.11h-7.469l-.116.044-.057.113-1.177,12.281-.094.185-.195.075h-1.864l-.257-.1-.125-.245-1.281-12.19-.05-.1-.11-.041h-53.552l-.085.031-.044.082-1.44,12.2-.1.226-.217.129-.907.066-1.039-.173-.188-.085-.154-.138-.107-.176-.047-.2-.923-11.763-.063-.129-.135-.053h-7.773l-.223-.091-.091-.223v-4.745l.094-.232.232-.1h7.582l.145-.06.06-.141h0v-3.481l.06-.151.147-.066,1.635-.041h0l.119-.06.044-.126-.207-2.633v-.006l.072-.207.2-.091,1.984-.053.166-.072.075-.166.094-2.329.038-.17.1-.141.148-.094.17-.031,24.469.132.226.044.195.129.135.188.053.226-.025,2.285-.031.135-.242.166-.477.044-.289.11-.125.286h0v2.206l.082.207.2.091,1.783.072.138.063.053.144-.135,3.421.038.1.1.047h13.645l.078-.085v-.006l-2.194-11.575-.072-.138-.141-.069-.907-.135-.232-.078-.191-.157-.125-.21-.044-.245v-1.569l.05-.257.141-.22.214-.154.254-.06,3.86-.17m-2.059-10.626-.712-1.488-.7-1.124-.5-.8-.471-1.036-.223-.518-.348-.625-.653-.907-.979-1.425-.574-1.2-.019-.053-1.136-3.879-.307-.5-.122-.047-.1.075-.012.056.031,1.284.1,1.437.421,3.349.151.276.722.621,1.321,1.2.433.5.355.505.374.712.289.775.474,1.312.333.389.452.4,1.274.825.041.013.082-.041.009-.091m10.493-9.164.151.647.05.684-.044.722-.144.759.038.157.151.053.063-.022.408-.236.254-.257.091-.352-.147-1.124-.442-1.416-.27-.822-.063-.772-.034-.628-.116-.326-.035-.144.223-1.042v-.072l-.107-.132-.17.019-.822.609-.791.684-.762.756-.734.832-.195.345-.06.392.078,3.75-.016.132,0,.006-.355,1.588-.028.574.057.505.188.6.091.078.116-.022.025-.025.966-1.284.192-.2.976-.91.75-.929.11-.223.044-.245.107-2.683.022-.06.1-.041.085.072M1336.81,223.2l-.009-.1h0l-.072-1.952.119-1.971.317-1.987.511-2.005.019-.2-.066-.195-.386-.763-.166-.672.025-.665.217-.832.167-.653.094-.728,0-1.924-.019-1.014-.088-.176-.195-.016h0l-.075.056-.364.49h0l-.706,1.2-.546,1.309-.383,1.422-.22,1.535-.034,3.86.122,1.817.348,1.7.364.873.825,1.657.044.044.107-.006.047-.1m8.069-11.986.066-.041.066.041h0l.006.047-.229,1.557-.107,2.2-.056,1.343.009.056.094.075.113-.041,1.321-1.5.044-.028.091.022.028.091-.292.669-.088.217-.006.232-.044.521-.26.628-.5.75-.618.687-.047.022-.075-.038,0-.085,1.393-2.414-.006-.176-.16-.069h0l-.1.053-.731.985-.5.964-.358,1.048,0,.069.1.138.17-.006,2.479-1.431.182-.2.819-1.447.659-1.124.4-.891.4-1.18.151-.753-.031-.072-.078-.016-.025.012-2.856,1.983-.33.3-.474.593-.138.056-.116-.094-.009-.075.505-3.681.063-.427.2-.813.377-1.08.091-.248,0-.044-.053-.072-.091.009-2.507,1.779-.273.151-.769.352-.763.458-.756.565-.75.672-1.44,1.447-.747.873-.132.264-.446,1.463-.33,1.466-.22,1.469-.1,1.472h0l0,1.127.063,1.127.129,1.13.195,1.133.025.047.094.025.066-.072.217-.794.317-.744h0l.5-.81.634-.737.772-.672.907-.6,1.72-.895.245-.182.16-.264.916-2.467.053-.273.107-1.673.232-2.4.169-1,.267-.759m-7.675,16.628-.1-.756.035-.942-.041-.383-.6-1.62-.725-1.484-.854-1.35-.979-1.218-.725-.706-.882-.687-1.036-.672-1.193-.656-.543-.314-.468-.361-.4-.4-.326-.446h0l-.257-.5-.185-.543-.424-1.224-.6-1.045-.477-.581-.552-.518-.665-.508-.813-.518-.1,0-.05.085.013.05.229.524.157.625.094.744.041,1,.088,1.111.2,1.017.317.923.436.832,1.371,2.344,1.13,2.275.2.361.273.339.342.308.411.286.122.072,1.745,1.1,1.155.866.907.888.672.945.741.662.176.107.2.044,1.776.11h.022l.1-.06.022-.119m20.724-17.369-.916,1.453-.772,1.284-.634.9-.6.659-.593.449-.584.377-.527.421-.468.465-.408.505h0l-.185.27-1.127,1.695-1.1,1.494-.477.518-.552.436-1.927,1.2-.923.694-1.359,1.227-.377.442-.587.8-.625.731-.665.665-.706.6-.047.056.01.16.138.075h1.55l.323-.085.239-.235,1.058-1.607.505-.621.511-.534.54-.464.533-.361.559-.286.6-.21,2.074-.6.4-.173.377-.248.386-.345.358-.408.706-1.076.678-1.422.179-.326.242-.282.292-.226.336-.163.392-.138.854-.32.562-.279.414-.314.27-.345.069-.132.364-1.036.311-1.409.3-1.924.2-1.927-.041-.088-.1-.009-.038.028m-3.98,4.231-1.707.653-1.6.722-1.5.794-1.4.86-.772.461-1.12.584-1.641.876-1.108.747-2.118,1.268-.59.373-.527.417-.458.465-.392.508h0l-.323.537-.257.581-.474,1.494-.229,1.306.019.329.126.232.195.122.273.047,1.61.009,1.108-.063.248-.148.524-.59.992-.976.351-.367.778-1.133.232-.38.223-.286.731-.7.769-.637.8-.568.835-.5,1.133-.675.653-.521.932-1.164,1.089-1.685,1.541-2.109.207-.185.26-.091.276-.072.242-.135.217-.2.028-.056-.041-.119-.122-.022m-6.219,14.259-.031-.16-.09-.136-.135-.091-.16-.032-17.857-.062-.16.031-.136.09-.091.135-.032.16,0,1.224.031.16.09.136.135.091.16.032,17.857.062.16-.031.136-.09.091-.135.032-.16,0-1.224m-14.8,13.921,0,.016.06.085.1.035,10.767-.056.151-.1.009-.031,2.1-11.653-.034-.135-.129-.06-15.073.078h0l-.125.06-.031.132,2.2,11.634m-15.771-9.03-.032-.161-.091-.137-.136-.091-.161-.032-23.82-.041-.161.032-.137.091-.092.136-.032.161,0,1.525.032.161.091.137.136.091.161.032,23.82.041.161-.032.137-.091.091-.136.032-.161,0-1.525m-1.2,2.62-.08-.193-.193-.08-25.288.044-.193.08-.08.193,0,2.3.08.193.193.08,25.288-.044.193-.08.08-.193,0-2.3m2.184,3.393-.091-.22-.22-.091h-29.318l-.22.091-.091.22v2.768l.091.22.22.091h29.318l.22-.091.091-.22v-2.768m41.2,3.917-.094-.229-.229-.094h-78.576l-.229.094-.094.229v3.8l.094.229.229.094h78.576l.229-.094.094-.229v-3.8m-11.767,4.532-.151.05-.085.132-.006.085,1.243,11.823.069.144.144.072H1350l.148-.05.085-.129.009-.041,1.133-11.823-.063-.185-.179-.078h-3.562m-58.99.063-.151.063-.053.154.929,11.832.006.031.069.11.125.044,1.39.009.122-.041.072-.107.006-.028,1.4-11.81-.013-.1-.072-.091-.113-.038-3.716-.031Z" transform="translate(-1279.601 -202.841)" fill="#040403"/>
        <path id="Path_1012084" data-name="Path 1012084" d="M1515.132,220.625l-1.275-.825-.452-.4-.333-.389-.475-1.312-.288-.775-.374-.712-.354-.505-.432-.5-1.322-1.2-.722-.621-.152-.276-.42-3.349-.1-1.438-.031-1.284.012-.056.105-.075.123.047.307.5,1.135,3.879.02.054.574,1.2.979,1.425.652.907.35.625.222.518.471,1.036.5.8.7,1.124.712,1.488-.008.091-.082.041-.041-.013Z" transform="translate(-1463.869 -206.116)" fill="#74a87e"/>
        <path id="Path_1012085" data-name="Path 1012085" d="M1581.712,211.809l-.086-.072-.1.041-.021.06-.107,2.683-.045.245-.109.223-.749.929-.977.91-.191.2-.967,1.284-.025.025-.115.022-.091-.078-.189-.6-.057-.505.029-.574.354-1.588,0-.006.016-.132-.078-3.75.06-.392.195-.345.734-.832.763-.756.79-.684.823-.609.169-.019.107.132v.072l-.224,1.042.035.144.117.326.033.628.064.772.269.822.444,1.415.146,1.124-.091.352-.253.257-.409.236-.062.022-.15-.053-.039-.157.146-.759.043-.722-.051-.684-.15-.647Z" transform="translate(-1519.826 -206.583)" fill="#74a87e"/>
        <path id="Path_1012086" data-name="Path 1012086" d="M1565.66,241.927l-.825-1.657-.364-.872-.348-1.7-.123-1.817.035-3.86.218-1.535.383-1.422.547-1.309.7-1.2h0l.364-.49.076-.056.195.016.088.176.019,1.014,0,1.924-.093.728-.166.653-.218.832-.025.665.167.671.385.763.066.195-.019.2-.512,2.005-.315,1.987-.121,1.971.072,1.952h0l.01.1-.047.1-.107.006h0l-.043-.044Z" transform="translate(-1508.648 -221.505)" fill="#74a87e"/>
        <path id="Path_1012087" data-name="Path 1012087" d="M1582.777,234.791l-.267.759-.169,1-.234,2.4-.105,1.673-.055.273-.917,2.467-.16.264-.245.182-1.719.895-.907.6-.773.671-.634.738-.5.81h0l-.317.744-.216.794-.066.072-.093-.025-.025-.047-.195-1.133-.128-1.13-.064-1.127,0-1.127h0l.1-1.472.22-1.469.329-1.466.446-1.463.132-.264.747-.873,1.44-1.447.749-.672.757-.565.763-.458.769-.352.272-.151,2.507-1.779.091-.009.055.072,0,.044-.092.248-.376,1.08-.2.813-.064.427-.5,3.681.01.075.115.094.138-.056.475-.593.329-.3,2.855-1.983.025-.013.08.016.031.072-.152.753-.4,1.18-.4.891-.66,1.124-.818,1.447-.183.2-2.48,1.431-.169.006-.1-.138h0l0-.069.358-1.048.5-.964.732-.985.1-.054.16.069.006.176-1.394,2.414,0,.085.074.038h0l.049-.022.617-.687.5-.75.259-.628.045-.521.006-.232.088-.217.292-.668-.027-.091-.092-.022-.045.028-1.319,1.5-.115.041-.094-.075-.01-.056.056-1.343.107-2.2.23-1.557-.006-.047-.066-.041-.066.041Z" transform="translate(-1517.499 -226.414)" fill="#74a87e"/>
        <path id="Path_1012088" data-name="Path 1012088" d="M1521.835,259.338l-1.777-.11-.2-.044-.175-.107-.742-.662-.672-.945-.907-.888-1.154-.866-1.746-1.1-.123-.072-.411-.286-.343-.308-.272-.339-.2-.361-1.129-2.275-1.372-2.344-.436-.832-.317-.923-.2-1.017-.088-1.111-.041-1-.093-.744-.158-.625-.23-.524-.012-.05.051-.085.1,0,.813.518.666.509.553.518.477.581.6,1.045.424,1.224.185.543.257.5h0l.327.446.4.4.467.361.543.314,1.191.656,1.037.672.882.687.724.706.979,1.218.854,1.35.724,1.484.6,1.62.041.383-.035.942.1.756-.021.119-.1.06h-.021Z" transform="translate(-1464.376 -234.155)" fill="#74a87e"/>
        <path id="Path_1012089" data-name="Path 1012089" d="M1615.2,241.959l.037-.028.1.01.041.088-.2,1.927-.3,1.924-.311,1.409-.364,1.036-.068.132-.271.345-.415.314-.561.279-.854.32-.393.138-.335.163-.292.226-.241.282-.179.326-.677,1.422-.706,1.076-.358.408-.385.345-.378.248-.4.173-2.075.6-.6.21-.559.286-.533.361-.541.465-.51.533-.506.621-1.057,1.607-.239.235-.323.085h-1.551l-.138-.075-.008-.16.047-.056.706-.6.664-.665.625-.731.588-.8.376-.442,1.358-1.227.925-.694,1.927-1.2.551-.436.479-.518,1.1-1.494,1.127-1.695.185-.27h0l.409-.505.467-.464.527-.421.582-.377.594-.449.6-.659.635-.9.773-1.284.917-1.453Z" transform="translate(-1536.868 -234.323)" fill="#74a87e"/>
        <path id="Path_1012090" data-name="Path 1012090" d="M1594.456,263.814l.123.022.041.119-.029.056-.216.2-.241.135-.276.072-.261.091-.206.185-1.541,2.109-1.09,1.685-.932,1.164-.652.521-1.133.675-.835.5-.8.568-.769.637-.732.7-.224.286-.232.38-.778,1.133-.35.367-.993.976-.524.59-.249.148-1.107.063-1.61-.009-.272-.047-.195-.122-.126-.232-.019-.33.23-1.306.475-1.494.257-.581.323-.537h0l.393-.509.457-.464.527-.417.59-.374,2.118-1.268,1.109-.747,1.641-.876,1.121-.584.771-.461,1.4-.86,1.5-.794,1.6-.722,1.707-.653Z" transform="translate(-1520.108 -251.947)" fill="#74a87e"/>
        <path id="Path_1012091" data-name="Path 1012091" d="M1479.106,293l.085-.414.009-.154-.135-.276-.339-.251-1.061-.439-1.368-.323-.759-.191-.706-.3-.8-.515-.719-.678-.386-.3-.593-.264-.816-.226-1.161-.223-.8-.148-.6-.2-.417-.311-.232-.377-.17-.574-.179-.612-.235-.465-.022-.031-.091-.119h0l-.311-.311-.386-.248-.461-.185-.537-.129-1.44-.214-1.271-.122-1.1-.038-.935.05-.119-.025-.1-.182.116-.173.442-.166.772-.132,1.12-.009.483.006,1.685.126,1.623.345h0l1.064.358,1.033.458.345.229.942.747.926.637.913.524.895.408.549.254.282.22.458.446.1.066,3.665,2.269.176.144,1.808,2,.009.016-.047.107-.333.05h0l-.436-.022-.439-.116m-6.127-5.146v-.084l-.06-.059-2.241-.887h-.084l-.059.06,0,.006v.084l.06.059,2.241.887h.084l.059-.06,0-.006Z" transform="translate(-1425.655 -267.987)" fill="#74a87e"/>
        <path id="Path_1012092" data-name="Path 1012092" d="M1512.625,300.683l-.058.06h-.084l-2.242-.887-.06-.059v-.084l0-.006.058-.06h.084l2.24.887.06.059,0,.084,0,.006Z" transform="translate(-1465.303 -280.806)" fill="#040403"/>
        <path id="Path_1012093" data-name="Path 1012093" d="M1552.282,336.311l-.033.16-.09.135-.136.09-.16.031-17.857-.062-.16-.032-.136-.091-.089-.136-.031-.16,0-1.224.033-.16.091-.135.134-.09.161-.031,17.855.062.16.032.136.091.089.136.031.16,0,1.224Z" transform="translate(-1484.156 -308.961)" fill="#be9583"/>
        <path id="Path_1012094" data-name="Path 1012094" d="M1544.493,359.344l-2.2-11.634.035-.132.123-.06,15.074-.079.093.028.068.166-2.1,11.653-.045.085-.115.05-10.767.056-.105-.038-.057-.1Z" transform="translate(-1491.163 -319.297)" fill="#be9583"/>
        <path id="Path_1012095" data-name="Path 1012095" d="M1370.519,361.819l-.031.161-.092.136-.136.091-.161.032-23.819-.041-.161-.032-.136-.091-.091-.137-.031-.161,0-1.525.033-.161.091-.136.136-.091.161-.032,23.819.041.161.032.136.091.092.137.031.161,0,1.525Z" transform="translate(-1332.964 -329.276)" fill="#f1c1a2"/>
        <path id="Path_1012096" data-name="Path 1012096" d="M1359.507,376.849l-.08.193-.193.08-25.288.044-.193-.08-.08-.193,0-2.3.078-.193.195-.08,25.288-.044.193.08.08.193,0,2.3Z" transform="translate(-1323.147 -340.907)" fill="#83b9bc"/>
        <path id="Path_1012097" data-name="Path 1012097" d="M1353.73,394.59l-.091.22-.22.091H1324.1l-.22-.091-.092-.22v-2.768l.092-.22.22-.091h29.317l.22.091.091.22v2.768Z" transform="translate(-1315.189 -354.79)" fill="#df9c78"/>
        <path id="Path_1012098" data-name="Path 1012098" d="M1361.464,415.693l-.1.229-.23.094h-78.575l-.23-.094-.093-.229v-3.8l.093-.229.23-.094h78.575l.23.094.1.229v3.8Z" transform="translate(-1281.726 -370.947)" fill="#be9583"/>
        <path id="Path_1012099" data-name="Path 1012099" d="M1627.831,436.518h3.564l.177.078.064.185L1630.5,448.6l-.066.144-.177.075h-1.189l-.115-.031-.123-.185-1.244-11.823.06-.188.181-.078Z" transform="translate(-1559.861 -391.038)" fill="#be9583"/>
        <path id="Path_1012100" data-name="Path 1012100" d="M1324.894,436.84l3.715.032.148.069.051.157-1.4,11.81-.041.1-.16.075-1.39-.009-.134-.057-.066-.129-.93-11.832v-.016l.06-.144.144-.057Z" transform="translate(-1315.914 -391.297)" fill="#be9583"/>
      </g>
      <g id="Group_1188287" data-name="Group 1188287" transform="translate(-11487.231 -272.706)">
        <path id="Path_1012101" data-name="Path 1012101" d="M2086.038,361.864l-.107.254-.254.107h-54.707l-.254-.107-.107-.254v-43.3l.107-.254.254-.107h54.707l.254.107.107.254v43.3m-.459-42.872-.1-.232-.232-.1h-53.822l-.232.1-.1.232v42.351l.1.232.232.1h53.822l.232-.1.1-.232V318.993Z" transform="translate(-2030.61 -318.205)" fill="#040403"/>
        <path id="Path_1012102" data-name="Path 1012102" d="M2087.6,363.239l-.1.232-.232.1h-53.822l-.232-.1-.1-.232V320.888l.1-.232.232-.1h53.822l.232.1.1.232v42.351m-2.47-40.163-.082-.082h-49.371l-.082.082v38.107l.082.082h49.371l.082-.082V323.076Z" transform="translate(-2032.631 -320.101)" fill="#be9583"/>
        <path id="Path_1012103" data-name="Path 1012103" d="M2095.377,371.262l-.082.082h-49.371l-.082-.082V333.155l.082-.082H2095.3l.082.082v38.107m-.541-37.657-.082-.082-48.323.084-.081.082.065,37.059.082.082,48.323-.084.081-.082-.065-37.059Z" transform="translate(-2042.878 -330.179)" fill="#040403"/>
        <path id="Path_1012104" data-name="Path 1012104" d="M2097.007,372.528l-.081.082-48.323.084-.082-.082-.065-37.059.081-.082,48.323-.084.082.082.064,37.059m-4.757-32.858-.063-.154-.154-.063h-38.683l-.154.063-.063.154v28.755l.063.154.154.063h38.683l.154-.063.063-.154V339.669Z" transform="translate(-2044.983 -332.043)" fill="#fff"/>
        <path id="Path_1012105" data-name="Path 1012105" d="M2111.61,385.248l-.063.154-.154.063h-38.683l-.154-.063-.063-.154V356.494l.063-.154.154-.063h38.683l.154.063.063.154v28.755m-38.393-14.939.151-.028,2.526-1.221,1.24-.5,1.221-.424.938-.389,1.023-.562,4.167-2.577.637-.251.273-.012.242.056,0,0,1.359.625,1.418.728,3.01,1.77.226.066.226-.066,4.723-2.881.769-.383.65-.135.646.066.725.264.791.32.87.264.891.188.97.126,1.013.06h1.083l2.514-.188,1.742-.33,1.591-.307.145-.075.059-.154v-7.4l-.034-.088-.088-.034H2073.23l-.125.05-.05.126v13.134l.047.116.116.047h0m18.877-1.9-6.49-3.43-.289-.056-.439.1-.552.239-1.7,1.051-1.227.8-1.61.935-1.406.643-5.166,2.131-.053.031-.094.191.094.195.041.028.257.072,1.588.056,2.47.1,1.676.141,1.494.235,1.39.348.4.129,1.974.621.17,0,.157-.066,1.786-1.189,1.854-1.067h0l1.933-.945,2-.816,5.206.979,1.833.417,1.7.449,1.673.515.147.016.141-.05,3.552-2.209.439-.226.439-.154.656-.107.731.022.844.151,1.174.314.135-.022.075-.116v-.022l-.016-3.6,0-.025-.082-.126-.151-.022-1.189.326-1.2.257h0l-1.409.21-1.428.119-1.444.028-1.459-.066-.32-.028h0l-.847-.132-.838-.2-.829-.282-.822-.355-.411-.166-.383-.085-.355-.006-.323.075-.22.1-4.745,2.774-.308.232-.179.282h0l-.053.248m12.544,4.4-1.833-.86-2-.7-2.272-.59-3.217-.656-2.354-.465-.521-.031-.511.116-1.72.725-1.685.829-1.651.932-1.619,1.036-.031.028-.025.122.085.094,3.518,1.381,4.252,1.588,1.127.461,1.318.64,3.21,1.8.125.034.122-.038.449-.352.5-.521.493-.574,1.453-1.654,1.089-1.08,1.07-.844,1.092-.631.235-.047.232.069.938.555,1.977,1.117.744.33.712.242.891.2.163-.041.082-.148v-.016l.057-6.189-.057-.154-.144-.082-2.734-.4-.373.006-.352.132-4.1,2.366-.031.025-.044.129.079.11,1.415.819.016.129-.1.078-.072-.016m-31.6-.816v12.786h0l.041.1.1.041h20.505l.16-.041.123-.113.157-.27.383-.571,3.895-4.017.072-.188-.1-.179h0l-.028-.019-2.4-1.265-2.263-1.076-2.156-.9-2.121-.753-3.019-1.221-2.25-.885-1.8-.6-1.673-.417-1.629-.254-1.023-.075-4.88-.17-.091.085h0m21.5,12.959h16.331l.116-.047.05-.116h0l.072-8.195v-.009l-.056-.116-.123-.041-.9-.041-.976-.273-1.086-.5-1.569-.91-.9-.534-.3-.075-.3.091-1.218.873-.873.816-3.455,3.747-4.268,4.372-.644.788-.006.1.075.069h0l.028,0h0Z" transform="translate(-2064.343 -348.867)" fill="#040403"/>
        <path id="Path_1012106" data-name="Path 1012106" d="M2075.534,372.621h0l-.117-.047-.047-.116V359.324l.051-.126.125-.05h37.708l.087.034.035.088v7.4l-.06.154-.144.075-1.592.308-1.742.329-2.513.188h-1.082l-1.014-.06-.971-.126-.889-.188-.87-.264-.79-.32-.726-.263-.646-.066-.65.135-.769.383-4.724,2.881-.169.063-.282-.063-3.009-1.77-1.419-.728-1.358-.625,0,0h0l-.241-.056-.272.012-.638.251-4.167,2.577-1.024.562-.938.389-1.22.424-1.24.5-2.526,1.221-.15.028Z" transform="translate(-2066.658 -351.179)" fill="#cde7ee"/>
        <path id="Path_1012107" data-name="Path 1012107" d="M2173.467,403.709l-.267-.483.052-.248h0l.179-.282.308-.232,4.745-2.774.22-.1.323-.075.354.006.383.085.411.166.822.355.829.282.839.2.846.132h0l.321.028,1.458.066,1.444-.028,1.429-.119,1.409-.21,1.2-.257,1.189-.326.152.022.082.126,0,.025.016,3.6v.022l-.074.116-.136.022-1.174-.314-.843-.151-.732-.022-.656.107-.44.154-.44.226-3.552,2.21-.142.05-.146-.016-1.674-.515-1.7-.449-1.832-.417-5.206-.979Z" transform="translate(-2145.448 -383.686)" fill="#fff"/>
        <path id="Path_1012108" data-name="Path 1012108" d="M2094.475,404.174l.267.483-2,.816-1.933.945h0l-1.855,1.067-1.787,1.189-.156.066-.169,0-1.975-.621-.4-.129-1.39-.348-1.495-.235-1.676-.141-2.47-.1-1.586-.057-.259-.072-.041-.028-.094-.194.094-.191.054-.031,5.166-2.131,1.405-.643,1.61-.935,1.228-.8,1.7-1.051.553-.238.44-.1.288.056,6.491,3.43Z" transform="translate(-2066.723 -384.634)" fill="#f3c288"/>
        <path id="Path_1012109" data-name="Path 1012109" d="M2157.385,425.382l-1.415-.819-.08-.11.045-.129.031-.025,4.1-2.366.35-.132.374-.006,2.735.4.144.082.056.154-.056,6.189v.016l-.082.148-.164.041-.891-.2-.712-.242-.743-.33-1.978-1.117-.938-.555-.232-.069-.235.047L2156.6,427l-1.07.844-1.09,1.08-1.452,1.654-.492.574-.5.521-.448.352-.123.038-.126-.035-3.209-1.8-1.318-.64-1.127-.461-4.253-1.588-3.519-1.381-.084-.094.025-.122h0l.031-.028,1.619-1.036,1.65-.932,1.686-.829,1.719-.725.512-.116.521.032,2.353.464,3.217.656,2.271.59,2,.7,1.833.86.072.016.1-.078-.016-.129Z" transform="translate(-2116.93 -401.633)" fill="#94c5cb"/>
        <path id="Path_1012110" data-name="Path 1012110" d="M2075.27,436.667h0l.091-.085,4.879.169,1.024.075,1.629.254,1.672.417,1.8.6,2.25.885,3.021,1.221,2.122.753,2.155.9,2.263,1.076,2.4,1.265.029.019.1.179-.072.188-3.895,4.017-.384.571-.158.27-.123.113-.16.041h-20.506l-.1-.041-.041-.1V436.667Z" transform="translate(-2066.578 -413.542)" fill="#83b9bc"/>
        <path id="Path_1012111" data-name="Path 1012111" d="M2185.2,458.492l.642-.788,4.268-4.372,3.455-3.747.874-.816,1.217-.873.3-.091.3.075.9.534,1.571.91,1.084.5.977.273.9.041.123.041.056.116v.01l-.072,8.194h0l-.051.116-.115.047H2185.3l-.029,0-.076-.069.008-.1Z" transform="translate(-2155.104 -422.582)" fill="#f3c288"/>
      </g>
      <g id="Group_1188290" data-name="Group 1188290" transform="translate(-11617.9 -260.997)">
        <path id="Path_1012362" data-name="Path 1012362" d="M1693.288,1620.551l-.133-.038-.1-.092-.1-.16-.4-.532-1.588-1.257-1.619-1.278-1.133-.99-.937-.962-.7-.877a2.694,2.694,0,0,1-.547.216,3.264,3.264,0,0,1-1.813.028l-1.347.293-3.414.521-3.48.315-1.786.058a2.794,2.794,0,0,1-.68.154l-.708-.023c-.087-.014-.171-.037-.254-.058-.06.015-.12.031-.182.041l-.041.039-.047,2.13.05.184.146.126,1.726.633,2.677.739,1.37.4,1.441.525,1.554.655,2.112.978,3.612,1.617.566.188.57.11.572.038.568-.038.53-.108.519-.178.51-.25.5-.323,1.448-1.122,1.724-1.451.032-.043-.01-.122-.106-.061-1.091-.024Z" transform="translate(-1611.348 -1373.805)" fill="#dfddd8"/>
        <g id="Group_1188289" data-name="Group 1188289" transform="translate(0 0)">
          <path id="Path_1012363" data-name="Path 1012363" d="M1589.06,1213.129l.426.989a2.777,2.777,0,0,1,.411-.242l-2.042-5.752-.123-.241-.405-.794-.068-.339.021-.3,1.491-6.612,1.252-5.857.031-.067.141-.053.117.094.6,1.573.483,1.43,1.07,3.617,1.323,4.773.1.121.156.006.021-.008.108-.061.084-.094.01-.123-.927-3.275-.958-3.124-1-2.968-1.031-2.815-.014-.117,2.809-15.561-.025-.219-.141-.172-.094-.063-.139-.024-.1.1-.008.035-1.027,6.622-.536,3.122-1.626,8.019-1.281,5.687-.781,3.4-.732,3.277-.734,2.721-1.849,5.9-.468,1.215-.246.494c.114.04.229.077.344.112l.08-.1.223-.378.09-.223.788-1.96.775-2.273.673-2.365.567-2.455.1-.108.137.033.041.063,1.211,3.621Z" transform="translate(-1539.738 -1021.445)" fill="#040403"/>
          <path id="Path_1012364" data-name="Path 1012364" d="M1679.457,1355.973l-.01.023-.141.281-.863,1.591-.383.519-.366.354-.2.184c-.1-.059-.208-.114-.311-.168l.775-.894.669-1.117.36-.89.088-.108.139-.026.109.02.121.084.016.147Z" transform="translate(-1615.299 -1165.502)" fill="#040403"/>
          <path id="Path_1012365" data-name="Path 1012365" d="M1519.794,457.6l-.094-.515-.184-.534-1.207-2.586-1.285-2.42-1.375-2.246-1.455-2.078-.71-.855-.667-.608-.659-.385-.647-.17-.432-.006-.456.078-.452.156-.478.243-2.948,1.786-.133.031-.119-.067-.737-.908-.168-.156-.206-.106-.229-.049-.229.02-3.731.861-1.829.495-1.972.327-4.2.446-.317-.037-.272-.133-.28-.223-.606-.743-.644-1.107-.5-1.18-2.005-7.082-.628-1.992-.695-1.723-.761-1.459-.83-1.193-.082-.184.023-.2.278-.44.192-.354.067-.354-.045-.333-.141-.315-.223-.3-.3-.262-2.909-2.222-2.162-1.839-1.211-1.141-3.645-3.592-3.357-3.3-2.416-2.244-2.408-2.07-1.217-.923-1.258-.784-1.307-.648-1.35-.5-1.8-.448-1.878-.217-.166-.053-.119-.123-.36-.628-.021-.151.084-.125.6-.518.536-.718.626-1.18.491-1.313.34-1.383.182-1.422.026-1.5-.135-1.491-.29-1.456-.436-1.4-.483-1.133-.567-1.062-.653-.982-.737-.906-1.035-1.023-1.166-.9-1.3-.788-1.428-.671-.158-.123-.082-.186.021-.2.119-.162.176-.082.557-.059.839.074.843.27,1.09.481,1.86.8,1.287.452,1.176.266,1.131.084,1.107-.094,1.125-.262.7-.252.655-.311.606-.366.558-.425.538-.514.479-.577.427-.644.37-.71-.006-.176-.147-.094-.062,0-.736.129-.673.041-.651-.045-.6-.121-.9-.368-.869-.581-.878-.8-1.183-1.3-.544-.618-.984-.949-1.117-.8-1.221-.632-1.291-.436-1.264-.219-1.272-.014-1.217.207-1.117.415-.992.593-.871.753-.479.546-.4.569-.319.6-.242.618-.182.769-.072.8.037.837.151.873.014.061-.02.309-.145.278-.239.2-.3.084-1.86.217-1.757.4-1.657.581-1.557.759-1.367.88-1.277,1.039-1.188,1.2-1.1,1.36-.734,1.107-.6,1.139-.468,1.168-.333,1.2-.241,1.651v1.7l.08.655.149.622.223.618.266.528.3.442.358.38.383.286.436.209.2.063.26-.047.125-.231,0-.061-.3-2.119.037-.112.113-.039.037.014.111.049.2.18.1.25.231,1.209.362.878,2.3,3.87.29.648.121.618-.01.454-.08.452-.4.986-.068.249.041.254.141.215.219.133.092.025.755.137.117.069,1.381,1.686.982.822,1.01.642,1.043.454,1.074.274,1.125.088,1.158-.1,1.189-.293,1.221-.485.912-.381.074.057-.01.024-.432.851-1.168,3.93-.129.239-.223.151-10.171,3.741-.213.223-.188.509-.076.094-.117.006-.01,0-.888-.337-.871-.2-.849-.076-.83.057-1,.244-.972.446-.941.644-.914.841-.385.489-.276.534-.19.771.024.252.119.225.252.311.086.176v.194l-.086.785.045.331.1.286.166.25.188.1.17-.033.182-.131.348-1.176.532-1.064.466-.649.552-.6.072-.161-.059-.166-.08-.057-.1-.031-.1.035-1.919,1.559-.223.041-.155-.166-.006-.1.115-.5.182-.473.27-.477.346-.44.421-.407.495-.372.753-.436.757-.319.763-.205.765-.088.7.025.7.119.706.213.706.311.131.166,1.148,4.658-.025.151-.121.084-.014,0-3.418.483-.335.11-.284.213-.579.79-.17.393-.094.389-.067.156-.131.1-.17.024-.153-.067-.1-.135-.1-.3-.1-.773.1-.826-.037-.106-.11-.016-.051.049-.489,1,.115.72.135.272.186.217.458.241.618.061.235-.094.123-.217.188-1.039.088-.254.162-.213.221-.155.256-.078,3.7-.524.26.047.528.233.577.16.644.094.737.031,1.669-.121,2.291-.4.252-.051.037,0,.108.065.016.125-.108.262-.249.391-.328.354-2.093,1.816-.863.718-.18.27.051.286.155-.006.184-.1,1.812-1.412,1.365-1.236.094-.031.08.057.01.027.327,1.117.452,1.174.577,1.23.7,1.283.256.544.1.477-.084.651-.366.955-.053.123-.088.115-.135.063-2.8.53-.26-.059-.131-.229,0-.025-.084-.871-.176-.843-.479-1.315-.716-1.252-.358-.393-.4-.2-.156-.029-2.169-.555-.89-.1-1.968.158-.835.164-.744.213-.7.282-.6.332-.54.393-.483.473-.556.767-.07.354.174,1.23.072.176.149.119.208.059.215-.02.227-.09.54-.585.006-.121-.108-.061-.068.025-.448.274-.127,0-.112-.059-.063-.11,0-.129.072-.113.591-.426.675-.342.765-.264.851-.178.2-.074.151-.145.084-.123.02-.037-.029-.113-.106-.043-.888.127-.82.207-.749.29-.685.374-.139,0-.065-.117.025-.076.469-.55.5-.432.65-.4.769-.307.935-.247,1.377-.254.628-.11.364.006,3.463.745.15.063.112.115.424.72.352.73.276.751.2.765.155.99-.051.282-.2.217-.8.4-.951.282-1.035.147-1.115.01h-1.125l-1.457.1-.119-.022-.094-.078-.037-.113.021-.119.084-.094.28-.221.2-.262.164-.475,0-.563-.057-.112-.11-.047-.571.024-.516.141-.393.209-.358.293-.323.786-.016.037-.021.217.065.207.143.162.2.092.771.186.149.072.332.188.469.072.634-.092.481-.082.352.008.538.041.659-.035,1.671-.17.925-.272,1.23-.534.145-.035.147.029.409.106h.526l.614-.1.861-.223.526-.141.076.018.025.076-.016.031-10.674,14.142-.2.121-.52.143-.518.256-.473.362-.436.469-.4.579-.182.168-.243.041-1.225-.115-.8-.024-9.111.305-9.568.338-.156-.063-.062-.156.068-1.757.072-.155.156-.059h0l1.326-.055,1.714-.276.79-.217.669-.3.544-.389.417-.473.276-.515.17-.591.063-.661-.045-.737-.555-4.149-.6-3.993.018-.156.1-.121.475-.336.966-.763.227-.3.094-.327-.043-.315-.19-.344-.323-.358-.479-.393-.493-.354-1.146-.857-.777-.712-.575-.716-.393-.759-.808-1.943-.867-1.8-.924-1.651-.978-1.506-.047-.161.059-.156.446-.628.327-.659.246-.825.1-.847-.041-.9-.176-.9-.329-.945-.452-.906-.579-.873-.671-.792-.53-.495-.614-.472-.659-.4-.644-.307-.612-.207-.612-.119-.558-.02-.544.082-.166.1-.088.174-.485,2.706-.026.047-.084.019-.065-.067-.162-.644-.217-.6-.276-.561-.333-.522-.376-.467-.434-.426-.489-.389-.54-.35-.053-.026-.155-.025-.147.043-.119.1-.067.143-.272,1.06-.327.916-.4.8-.467.7-.935,1.086-.663.636-.714.591-.763.544-.814.493-1.87.935-2.952,1.493-1.039.618-.855.6-.816.687-.722.742-.634.79-.54.845-.507,1.019-.389,1.09-.27,1.154-.155,1.225-.043,2.115.194,2,.186.962.247.933.309.906.366.88.816,1.518,1.011,1.432,1.209,1.34,1.4,1.248,1.626,1.252,1.725,1.328,1.23,1.033,1.064,1,.906.994.2.374.17,1.006-.02,1.2-.067.145-.145.072-.282-.037-.511-.049-.405.133-.43.307-1.3,1.3-1.217,1.481-1.148,1.69-1.062,1.87-.992,2.08-.912,2.273-.855,2.494-.822,2.813-.863,3.336-.8,3.414-.724,3.5-.659,3.57-3.242,19.2-2.1,11.147-.5,3.069-.321,2.98.022,1.055.239.972.337.7.1.246,0,.268-.327,1.939-.049.554.021.614.27,1.424.186.305.319.161,3,.54.131.078.051.147-.473,14.121-.616,14.2-.207,2.586-.423,3.705-.164.466-1.434,2.532-1.849,3.562-14.835,29.568-2.9,5.994-.026.27.149.227,1.465,1.1.074.133-.047.141-.012.012-.757.888-1.475,1.919-.448.691-.471.906-.215.538-.145.53-.068.524,0,.517.072.493.145.483.208.483.28.473.816,1.147,1.185,1.485,1.113,1.4,5.519,7.205.636.689.876.73a6.9,6.9,0,0,0,.908.514H1371l1.491.321,1.622.249,1.792.184,2.448.176,1.641.045,1.3-.1.6-.186.245-.158.182-.2.2-.452.018-.583-.162-.634-.333-.663-.955-1.045,0-.006-1.753-1.35-.745-.691-.63-.695-.172-.381-.37-1.708-.757-2.762-.346-1.579-.262-2.033.043-.123.119-.043.029.006,2.338.671.225.026.219-.053.192-.123.143-.178,12.284-23.008.076-.606s.853-1.583,2.1-3.92a1.1,1.1,0,0,1-.29-.131,0,0,0,0,0,0,0l-.141.266c-.047.088-.094.174-.139.26-.067.125-.133.246-.2.366l-.168.311c-.029.055-.059.108-.086.162-.141.26-.274.509-.4.742l-.444.83c-.031.061-.063.119-.092.174-.092.17-.168.315-.231.432-.037.07-.068.131-.094.178l-.045.082-.035.069-12.483,23.372-.26.235-.35.02-1.489-.483-1.524-.565-3.079-1.356-3.22-1.688-3.492-2.1-1.974-1.364-1.62-1.389-.156-.3.053-.333,2.365-4.588,1.166-2.373,1.553-3.3,1.913-3.692,1.692-3.283,2.214-4.537,2.98-5.836,2-3.854,1.395-2.884,1.761-3.547,1.847-3.2.188-.421.068-.452.053-.851.149-1.16.192-1.624.348-5.392.192-4.752.286-8.083.244-6.988.072-5.429v-.02l.084-.151.17-.039.049.008,2.533.46,1.952.287,1.784.186,1.651.072h.006l.119.059.041.125-.188,2.228.047.143.131.069.094.01.1-.088.186-2.181.1-.207.217-.076,4.038.033,1.911-.076,1.839-.139,2.213-.329,3.241-.675,2.473-.634,2.86-.876,4.384-1.467,3.382-1.213.006,0,.289.016.188.215.816,2.584.673,2.412,1.641,6.018,1.434,5.229.926,3.782,1.144,4.37,1.074,4.492.919,4.8,1.1,6.892.986,7.088,1.371,9.995,1.217,8.88,1.019,7.557.366,2.355.018.012c.192.115.374.24.552.372l-.372-2.344-2.885-21.482-2-14.387-.634-3.993-.765-4.081-.9-4.163-1.033-4.257-3.042-11.3-1.766-6.409-1.418-4.846.01-.121.088-.088,1.086-.468.317-.26.131-.389.478-7.493.045-1.864-.133-1.921-.693-6.37-.472-5.63-.264-5.116-.059-4.67.114-9.545,0-.025.061-.1.112-.041.4,0,2.784-.057,2.884-.213,3.189-.378,4.193-.624,2.31-.442,2.042-.577,1.827-.726,1.684-.9,1.4-.97,1.309-1.117,1.906-1.751.115-.166.023-.2-.166-1.174.047-.27,2.752-5.235,1.414-2.784,1.131-2.471,2.843-6.9,2.95-7.645.057-.153.951-2.389.853-1.655.473-.718.5-.618.534-.546.593-.493.012-.01.155-.021.119.1.665,1.139.743.984.063.062.211.127.25.067.661-.043.87-.28,1.1-.528.039-.016.141.008.09.112,1.677,6.139,1.77,5.744.683,1.8.81,1.626.943,1.45,1.07,1.278,1.41,1.412,1.571,1.43,1.823,1.546,2.645,2.136,2.191,1.761.291.4.477.867.256.38.368.393.479.4.544.37.54.3.532.223.468.123.415.021.182.047.114.149.393,1.553.172,1.579-.053,1.635-.285,1.641-.135.52-.4,1.714-.111,1.273.037.5.114.466.172.376.254.325.2.168.458.258.456.125.458.006.452-.1.456-.2.491-.313.5-.409.5-.514,1.091-1.381,1.26-1.886,1.2-2.021,1.142-2.152,1.086-2.289.278-.743.127-.679-.012-.618-.161-.55-.037-.084-.291-.483-.393-.489-.493-.489-.595-.493-2.076-1.714-.1-.18.031-.2.579-1.08.043-.227-.088-.209-4.641-5.724-.026-.113.072-.088.033-.01,1.385-.223,1.44-.311,1.45-.389,1.5-.475,1.537-.563,1.579-.642,3.365-1.577,2.2-.929.757-.3.556-.28.38-.3.3-.376.319-.606.135-.274.119-.125.17-.033.728.1.685.155,1.139.4,1.137.595,1.182.79,1.64,1.272.841.665.708.444.737.246.72.022.634-.192.381-.244.325-.323.25-.4.172-.452.084-.483-.006-.52ZM1378.945,630.715l.2.1,1.238.806.851.763.311.383.25.413.174.409.1.436,0,.016-.008.229-.084.213-.147.176-.2.115-.749.182L1380,635l-4.173-.254-3.339-.4-.679-.151-.642-.229-.663-.346-.618-.438-.577-.538-.536-.63-4.216-5.5-3.828-4.871-.581-.882-.376-.937-.133-.606.017-.411.245-.8.358-.8.47-.814.581-.82.119-.062.125.047.016.02.176.305.28.46.816,1.006,1.412,1.757.927,1.26.346.5,1.506,2.453,1.8,3.281.685,1.184.691.931.734.726.8.548.208.108.835.292,1.014.145,1.211.01,1.735-.129.27-.025.53-.016.5.047.468.113.436.176Zm-15.627-17.583,2.909,1.958,2.97,1.757,3.034,1.553,3.1,1.35.129.1.047.16.057,1.2.2,1.313.335,1.446.559,1.958.546,1.925.016.659-.01.188.027.131.086.108.859.65.051.109-.062.1-.051.016-2.219.166-1.808.063-.583-.027-.554-.094-.516-.156-.487-.221-.477-.3-.436-.362-.391-.417-.346-.477-1.958-3.38-1.127-2-.865-1.422-.851-1.252-.867-1.111-1.716-2.138-1.017-1.5-.045-.186.067-.174,1.268-1.68.135-.018Z" transform="translate(-1359.234 -378.367)" fill="#040403"/>
          <path id="Path_1012366" data-name="Path 1012366" d="M1834.206,388.282l.132.022.1.085.053.122-.012.135-.06.094-.944.882-.989.706-1.03.527-1.07.352-.876.154-.9.044-.93-.066-.954-.176-1.25-.427-1.97-.888-.726-.339-.635-.239-.652-.154h0l-.6-.06-.609.009-.621.082-.635.154-.348-.013-1.639-.612-.094-.025-.993-.188-.15-.072-.1-.135-.195-.628-.09-.618.012-.637.111-.621.212-.631.306-.6.4-.6.487-.552.57-.518.631-.452.675-.361.749-.279.829-.191.9-.107,1.372.019.656.1.619.157.664.242.63.311.615.377.638.474,1.3,1.2,1.738,1.918h0l.611.618.644.508.681.4.714.282h0l.973.2,1.033.016Z" transform="translate(-1726.641 -380.862)" fill="#78534b"/>
          <path id="Path_1012367" data-name="Path 1012367" d="M1815.064,420.7l.076-.127.144-.1.473-.11.652.024.732.155.7.262.562.329.339.346.068.163,0,.148-.076.127-.144.1-.471.11-.652-.024-.732-.155-.7-.261-.562-.329-.341-.346-.068-.163,0-.148Z" transform="translate(-1726.343 -412.191)" fill="#be9583"/>
          <path id="Path_1012368" data-name="Path 1012368" d="M1763.373,443.548l.006.034-.257-.11.737-1.277.257-.508.173-.5.085-.493,0-.486h0l-.182-.785-.414-.766-.276-.32-.336-.267-.386-.21-.417-.141-.424-.066-.424.012-.383.091-.361.17-.188.135-.348.355-.323.49-.3.631-.317.857-.034.078-.132.138-.176.069-.191-.012-.166-.091-1.017-1.08-.876-.964-.737-.672-.728-.5-.76-.352-.555-.311-.414-.49-.157-.085-.135.047-.037.069.009.066.4.615.508.443h0l.69.3-.185.06-.1.1h0l0,.21-.217-.041-.009,0-.012.006-.1.173-.066.3-.075.173-.129.132-.584.355-.578.248-.574.138-.568.025h0l-.584-.088-.3-.132-.888-.672-.788-.716-.684-.763-.581-.8,0,0-.125-.082-.148.031-.075.05-.031.129.411.744.493.678h0l.891.9,1.073.75.066.11-.057.119h0l-.05.022-1.368.223-1.356.119-1.227.006-1.1-.1-.9-.2-.737-.3-.587-.417-.392-.5-.217-.577-.116-.122-.163.047h0l-.041.091.016.276.1.364.1.361.019.273.016,1,.21,1.058,0,.069-.094.1-.138-.028-.681-.744-.439-.788-.282-.9-.166-1.293.035-1.271.235-1.315.449-1.4.669-1.519.813-1.425.973-1.284h0l.964-.992,1.086-.885,1.2-.785,1.321-.681,1.193-.515,1.1-.4,1.048-.314,1.039-.235,1.673-.226.173.019.154.088.838.6.9.4h0l.7.16.734.053.769-.053.8-.163.336.019,1,.446h0l.788.455.747.53,1.123.973.979,1.042.841,1.117.7,1.19h0l.587,1.34.427,1.425.267,1.5.11,1.585-.031,1.124-.132,1.136-.22,1.077-.3.995-.377.9-.442.772-.527.675-.568.524-.17.047-.154-.082-.508-.5-.634-.433h0Zm-4.2-16.857-.063.078.009.1.282.637.213.64.144.647.072.65h0l0,.741-.091.747-.176.753-.267.756-1.337,2.382-.022.173.113.132h0l.016.006.009,0,.207.009.169-.119.552-.822.471-.851.37-.835.276-.851.167-.807.069-.81-.031-.778-.138-.772-.3-.885-.461-.869-.116-.082-.138.019-.006,0h0Zm-2.332,1.453.025.722-.107.543-.229.568-.364.6-.546.716-.038.16.1.126.041.016.019,0,.226-.009.191-.122.383-.477.3-.5.226-.508.148-.527h0l.072-.555-.012-.571-.053-.1-.232-.176-.091-.016-.063.069v.038h0Z" transform="translate(-1666.435 -415.59)" fill="#78534b"/>
          <path id="Path_1012369" data-name="Path 1012369" d="M1830.881,435.374l.461.869.3.885.138.772.031.778-.068.81-.167.807-.276.851-.37.835-.471.851-.553.822-.169.119-.206-.009-.01,0-.016-.006-.113-.132.021-.173,1.337-2.382.267-.756.177-.753.09-.747,0-.741h0l-.072-.65-.146-.647-.212-.64-.282-.637-.01-.1.062-.078.006,0,.138-.019.117.082Z" transform="translate(-1737.884 -424.213)" fill="#040403"/>
          <path id="Path_1012370" data-name="Path 1012370" d="M1818.527,442.43v-.038l.062-.069.092.016.232.176.054.1.012.571-.072.556h0l-.148.527-.226.508-.3.5-.383.477-.191.122-.226.009-.02,0-.041-.016-.1-.126.037-.16.545-.716.364-.6.23-.568.107-.543-.025-.722Z" transform="translate(-1728.123 -429.875)" fill="#040403"/>
          <path id="Path_1012371" data-name="Path 1012371" d="M1814.872,491.225l-.426.16-.418.088-.057,0-.212-.119-.041-.242.084-.157.113-.072.66-.355.508-.477.239-.358.179-.4.121-.449.064-.5-.039-.656-.187-.6-.333-.5-.461-.383-.5-.207-.582-.069-.448.069-.557.3-.477.53-.389.769-.243.91-.06.151-.109.116-.148.066-.16,0h0l-.492-.122-.424-.185-.522-.377-.52-.568-.767-.844-.847-.734h0l-.878-.593-.691-.3h0l-.508-.443-.4-.615-.01-.066.037-.069.136-.047.156.085.415.49.555.311.761.352.728.5.738.672.876.963,1.016,1.08.165.091.193.013.175-.069.132-.138.035-.078.315-.857.3-.631.323-.49.348-.355.189-.135.362-.169.381-.091.424-.012.424.066.417.141.385.21.337.267.276.32.415.766.181.785h0l0,.486-.084.493-.173.5-.257.508-.738,1.277Z" transform="translate(-1718.185 -463.343)" fill="#040403"/>
          <path id="Path_1012372" data-name="Path 1012372" d="M1767.443,491.78l.879.593h0l.847.734.766.844.521.568.521.377.424.185.493.122h0l.16,0,.148-.066.11-.116.06-.151.245-.91.389-.769.477-.53.556-.3.449-.069.581.069.5.207.461.383.333.5.188.6.038.656-.063.5-.122.449-.179.4-.239.358-.508.477-.659.355-.113.072-.085.157.041.242.214.119h0l.056,0,.417-.088.427-.16.257.11-.006-.034.948,1.554.65,1.315.1.414h0l-.041.386-.167.392-2.338,3.914-2.476,3.848-.047.056-.537.493-.06-.3.141-.913.028-.91-.119-1.1-.006-.22.066-.157.009-.012.2-.11.129.041.053.025.169-.031.075-.154,0-.1.072-.21.138-.176.518-.6.427-.791,0-.012-.066-.1-.213-.025-.009,0-.4.788-.188.236-.179.132-.675.364-.825.543-.715.464-.725.392-.734.32-.741.245-.728.16-.731.088-.728.006-.722-.075-.976-.235-.957-.4-.9-.543-.879-.7-.659-.681-.825-1.007-.314-.26-.631-.188-.05-.012-.163-.157.019-.229.364-.838.132-.841h0l-.034-.512-.119-.515-.2-.515-.292-.518-.659-1-1.3-2.1-.37-.8-.257-.772-.116-.508,0-.034.063-.1.116-.012.653.2.672.135,1.5.1,1.688-.119,2.005-.352.292-.028.621-.012.6-.075.571-.135.543-.2h0l.744-.4.687-.527.145-.214h0l.009-.27-.138-.323,0-.21.1-.1.185-.06h0Zm-6.037,6.205-.129.186-.014.311.1.389.2.407.275.364.3.264.286.125.224-.033.129-.186.014-.311-.1-.389-.2-.407-.275-.364-.3-.264-.285-.125-.224.033h0Zm5.088,3.973-3.016,1.952-.116.113-.066.151v.16l.06.154.019.031.3.389.361.329.4.254.436.173.449.085.446-.009.424-.1.386-.191.034-.025.333-.273.267-.342.192-.4.11-.443.022-.471-.066-.474-.154-.465-.232-.436-.019-.031-.113-.116-.151-.066-.163,0-.151.06h0Z" transform="translate(-1679.09 -469.707)" fill="#f1b699"/>
          <path id="Path_1012373" data-name="Path 1012373" d="M1781.574,523.524l.224-.033.284.125.3.264.276.364.2.407.1.389-.014.311-.128.186-.224.033-.286-.125-.3-.265-.274-.364-.2-.407-.105-.389.016-.311.129-.186Z" transform="translate(-1699.259 -495.246)" fill="#040403"/>
          <path id="Path_1012374" data-name="Path 1012374" d="M1798.988,552.915l-.006-.138.019.063.188-.436.113-.421.031-.4-.044-.386-.191-.508v0l-.151-.176-.2-.1-.229-.019-.22.069-.766.468-.618.477-.791.832-5.15,6.095-1.224,1.34-.822.7-.414.213-.4.132-.411.06-.386-.022-.6-.2-.533-.373-.5-.568-.4-.7,0-.122.088-.088.006,0,1.233-.471,1.18-.533,1.152-.609,1.1-.672,1.061-.741,1-.8.979-.882.926-.945.894-1.026.844-1.086.816-1.171.763-1.23.471-.992.317-1.114.163-1.236.012-1.362-.063-.16-.147-.088-.176-.038-.132.028-.063.119v.028l.072,1.309-.148,1.18-.235.775-.364.8-.5.86-.838,1.268-.27.4-1.2,1.588-1.174,1.274-1.321,1.2-1.506,1.149-1.72,1.12-1.2.669-1.29.6-1.387.537-1.481.465-1.585.4-1.714.348-1.892.3-2.269.3-1.6.116-1.437-.06-.226-.06-.2-.119-.16-.173-.1-.213-.854-2.891-.179-1.114-.116-.825-.163-.6.013-.286.21-.192h0l7.45-2.671,2.743-1.1,2.077-.989.43-.157.314.044.135.122.091.195.069.063.088-.031.019-.047-.389-.615-.063-.214.066-.214,1.284-1.974.863-1.447.571-.913.681-.86.75-.766.825-.672.832-.527.876-.408.857-.26.876-.119.235-.11.1-.242v-.082l-.075-.173-.176-.066h-.013l-1.205.232-1.117.417h0l-1.023.606-.932.791-.16,0-.063-.053v-.022l1.491-2.131.179-.552.028-.737.034-.094.088-.038h.006l1.158.085,1.127.173,1.1.26,1.061.348h0l1.048.443,1.014.537.979.625.945.719,2.2,1.867,1.692,1.569,8.815,8.59,2.049,1.783,2.878,2.206.97.794.135.176.075.21,0,.223-.069.21-.989,1.748-1.114,1.657-1.274,1.607-1.406,1.51-1.538,1.416-1.67,1.318-2.733,1.9-2.768,1.72-2.8,1.541-2.828,1.362-.725.289-.612.166-.257-.025-.2-.163-1.24-1.789-.044-.188.1-.169,1.284-1.058,1.08-.973.879-.888.675-.8,1.921-2.388,1.484-1.673,1.554-1.61.606-.65.533-.665.455-.69.383-.706.138-.4.034-.4-.072-.326-.182-.254-.317-.151-.455,0-.546.195-.662.4-.778.606-.995.882-.38.342-.1.019-.063-.085.019-.063.794-1.262.8-1.434.634-1.284.468-1.155.27-.923.1-.753-.066-.574-.1-.232-.151-.188-.195-.135-.251-.091-.672-.016h-.025l-.132-.063-.041-.141.047-.926-.069-.323-.151-.279-.311-.27-.49-.182-.4.031-.511.254-.593.458-.725.691-.11.11-.188.091-.232.1h0Zm-10.43-2.269-.047-.105-3.227-1.245-.105.047-.115.3.047.106,3.227,1.245.105-.047.115-.3h0Z" transform="translate(-1690.578 -506.955)" fill="#f3c288"/>
          <path id="Path_1012375" data-name="Path 1012375" d="M1795.067,543.829l.151-.06.163,0,.151.066.113.116.019.031.232.436.154.465.066.474-.022.471-.11.443-.191.4-.267.342-.333.273-.034.025-.386.191-.424.1-.446.009-.449-.085-.436-.173-.4-.254-.361-.33-.3-.389-.019-.031-.063-.173.016-.179h0l.169-.226,3.016-1.952h0Zm-2.6,2.6.223.157.329.119,1.183.2.4.053.034,0,.282-.031.248-.141.17-.226.069-.276.066-1.663-.031-.16-.1-.125-.151-.063-.16.012h0l-.107.06-2.448,1.983-.006.1h0Z" transform="translate(-1707.664 -511.577)" fill="#040403"/>
          <path id="Path_1012376" data-name="Path 1012376" d="M1794.96,548.489h0l.008-.1,2.447-1.984.107-.06.16-.012.152.063.1.126.031.16-.066,1.663-.068.276-.169.226-.249.141-.282.031h0l-.035,0-.4-.053-1.183-.2-.329-.119-.224-.157Z" transform="translate(-1710.155 -513.642)" fill="#dfddd8"/>
          <path id="Path_1012377" data-name="Path 1012377" d="M1829.265,576.661l.06.3-.173.609-.3.512h0l-.537.49-.726.342-.115-.019-.055-.107.006-.041,1.347-3.8.08-.066.093.034.021.047.3,1.7Z" transform="translate(-1736.298 -536.629)" fill="#f1c1a2"/>
          <path id="Path_1012378" data-name="Path 1012378" d="M1514.568,625.113l-.193.082-.187-.085-.01-.012-1.23-1.359-1.341-1.189-1.242-.929-1.9-1.431-1.259-1.111-1.316-1.372-1.026-1.249-.812-1.214-.644-1.249-.4-1.033-.313-1.117-.288-1.544-.152-1.506,0-1.482.14-1.4.286-1.321.42-1.212.574-1.149.7-1.026.273-.33.845-.822,1.146-.882,1.3-.828,1.222-.637,1.592-.772,2.347-1.233,1.026-.637.977-.779.928-.926.876-1.067.584-1,.683-1.654.195-.5.088-.088.123.009h0l.014.006.272.194.66.621.553.772.479.964.446,1.237.047.273.049.421.206.122.216-.1h0l.041-.091.8-3.437.148-.21.251-.053.965.22.889.32.8.417.724.518h0l.578.546.514.628.45.7.381.785.4,1.243.1.621.039.625h0l-.066.942-.216.945-.21.509-.306.467-.4.455-.518.455-1.322.866-1.977.976-.43.2-1.234.527-1.248.436-1.261.345-1.281.251h0l-2.04.213-.152.085-.025.17h0l.023.044,1.625,2.68.578,1.13.463,1.08.362,1.055.257,1.02.156,1.039.057,1.01v.229l-.033.135-.1.1-.128.05-.134-.019-.088-.05-1.181-.91-1.026-.555-.467-.157-.473-.088-.434-.006-.434.078-.222.075-.527.279-.42.37h0l-.251.345-.189.4-.195.709-.066.7.056.716.173.681.3.672.409.612.5.543.586.455.635.345.691.245.95.144.142.063.06.144.074,2.822-.025.223-.088.2-.14.173-.185.122-.989.527-.819.562-.02.016-.821.86Z" transform="translate(-1474.423 -548.044)" fill="#78534b"/>
          <path id="Path_1012379" data-name="Path 1012379" d="M1848.079,597.564l-.105.047-3.227-1.245-.047-.106.115-.3.105-.047,3.227,1.245.047.105-.115.3Z" transform="translate(-1750.214 -553.574)" fill="#040403"/>
          <path id="Path_1012380" data-name="Path 1012380" d="M1797.572,607.2l-.019-.063.008.138-4.042,6.393-.023.157.105.116h0l.025.009.113.035.257-.013.2-.163,1.707-2.671,1.8-2.693.521-.684.566-.6.615-.515.664-.43.222-.066.23.035.191.132.117.2.021.11-.027.851-.1.374-.15.336-2.1,3.568-2.546,3.97-.021.044.029.144.13.066h.045l.354-.088.272-.245,2.145-3.292,2.045-3.4.226-.289.321-.226.4-.138.078-.009.185.038.15.11.091.166.014.188-.173.86-.247.854-.321.838-.4.832-.452.869-1.438,2.652-.564.885-.578.784-.191.235-.076.248.019.163.1.151.179.006.055-.041,1.5-1.44,1.974-1.726.86-.621.765-.352.251.031.146.207,0,.031-.021.257-.1.3-.434.778-.724.979-.876.979-2.336,2.47-1.012,1.2-.917,1.174-.815,1.014-.932,1.014-.927.888-.788.631-1.773,1.3-1.211,1.086-.5.559-.4.543-.331.556-.263.59-5.631,14.374-1.359,3.248-1.522,3.311-1.682,3.367-1.843,3.43-.017.022-.111-.038-.512-1.579-.6-1.529-.681-1.481-.767-1.434h0l-.93-1.51-1.033-1.456-1.137-1.4-1.232-1.337-1.454-1.444-.074-.138.039-.154,6.66-9.23,3.484-4.905,3.688-5.508.37-.725.181-.744-.016-.81-.385-2.071-.364-1.412-.452-1.434-1.32-3.408-.008-.025-.025-.185.051-.179.115-.144.167-.088,1.944-.562.167-.012.156.05.127.107.076.148v0l.123.276.226.32.769.772.627.427.672.2.615-.028.662-.226.707-.436.761-.653,1.32-1.412,2.659-3,1.5-1.8.055-.072.812-1.051.658-.7.631-.486.636-.292.179-.016.169.06.129.125.066.166.006.054.056,1.268Z" transform="translate(-1689.151 -561.317)" fill="#f1b699"/>
          <path id="Path_1012381" data-name="Path 1012381" d="M1730.862,628.21l-.22-.025-.05.11-.031-.367.044-.364.135-.408.568-.967.257-.392.034-.119-.116-.188-.223.009-.3.232-.245.273h0l-.217.367-.144.421-.075.471,0,.527-.056.132-.141.031-.044-.019-.022-.016h0l-.113-.148-.053-.226.075-.691-.031-.1-.1-.028h0l-.047.028-.515.5-.195-.009.348-1.177.534-1.064h0l.464-.65.552-.6.072-.16-.06-.166-.078-.056-.1-.031-.1.034-1.921,1.56-.223.041-.154-.166h0l-.006-.1.116-.5.182-.474h0l.27-.477.345-.439.421-.408.5-.37.753-.436.756-.32.763-.2.766-.088h0l.7.025.7.119.706.214.706.311.132.166,1.149,4.657-.025.151-.122.085-.012,0-3.418.483-.336.11-.282.213-.581.791-.17.392-.094.389-.066.157-.132.1-.17.022-.154-.066-.1-.135-.1-.3h0l-.1-.772.1-.825-.038-.107-.11-.016h0l-.05.05-.49,1h0Zm2.044-1.2-.2.059-.327.287-.262.347-.044.2.2-.059.327-.287.262-.347.044-.2h0Z" transform="translate(-1656.521 -573.77)" fill="#f1b699"/>
          <path id="Path_1012382" data-name="Path 1012382" d="M1729.383,641.417l-.01.006-.01,0-.016-.01h0l-.088-.157.018-.264.117-.323.2-.342.056-.078.251-.3.267-.22.237-.1.179.028.014.009,0,0v.016l-1.216,1.742Z" transform="translate(-1657.242 -588.772)" fill="#f1b699"/>
          <path id="Path_1012383" data-name="Path 1012383" d="M1734.174,646.907l-.267.2-.241-.009-.28-.151-.181-.16h0l-.261-.4-.134-.521.514-.5.047-.028.1.028.031.1-.074.691.052.226.113.148h0l.021.016.045.019.142-.031.056-.132,0-.527.076-.471.144-.421.216-.367h0l.245-.273.3-.232.224-.01.115.188h0l-.033.119-.259.392-.566.966-.136.408-.043.364.031.367Z" transform="translate(-1660.101 -592.382)" fill="#040403"/>
          <path id="Path_1012384" data-name="Path 1012384" d="M1576.055,678.43l-.511.041-.468-.078-4.346-1.252-4.325-.891-4.8-.894-.207-.126-.063-.235.053-.781-.022-.722-.094-.669-.17-.609v0l.009-.141.11-.091.5-.273.546-.53.4-.339.6-.336.775-.468.235-.217.188-.26.163-.461.031-.53-.1-1.472-.126-.813.016-.166.122-.11.439-.229.276-.286.009-.154-.119-.091-.066,0-.744.151-.7.041-.659-.066-.612-.179-.69-.364-.625-.527-.377-.452-.307-.5-.232-.54-.151-.562-.063-.565.031-.562.116-.511.207-.48.2-.3.239-.242h0l.464-.286.568-.157.392-.025.4.044.854.289.941.568.976.81.264.132.088.016.239-.006.217-.1.157-.176.075-.226,0-.034.013-.838-.069-.942-.148-.92-.232-.923-.323-.97-.411-.992-.505-1.045-1.434-2.5-.009-.107.075-.075h0l.025-.006,1.318-.2,1.29-.273,1.265-.345,1.236-.417h0l1.418-.581,1.378-.678,1.343-.778,1.306-.879,0,0,.157-.031.132.088.882,1.393.788,1.384.7,1.372.6,1.365.568,1.258.574,1,.628.8.7.647.173.129.615.43.919.675.458.508.047.173-.035.2-.113.21-.179.188-1.478,1.058-.129.157-.019.2.486,2.4.386,2.288.282,2.172.185,2.056-.041.741-.245.64-.436.5-.64.386-.866.286-1.12.191-2.846.279-1.117.031-1.023-.038-.967-.107-.891-.176-.847-.251-.832-.339-.075-.034-.053-.016-.135.053-.034.144.034.129.195.286,1.3.851,1.312.766,1.321.684,1.331.6.2.135.129.2,1.262,3.214-.006.11-.085.069-.013,0h0Zm-3.517-27.038-.565.505-.468.615-.21.53-.009.217.056.195.053.082.05.047.223.034.166-.16.216-.49.251-.417.289-.342.32-.27.367-.2.424-.141.48-.085.533-.022.214-.1.05-.22-.028-.063-.057-.082-.163-.122-.2-.072-.568.006-.744.21-.678.342h0Zm2.172,2.848-.208.186-.107.369.01.5.127.548.223.516.286.405.3.233.278.026.208-.186.107-.369-.01-.5-.126-.547-.223-.516-.286-.405-.305-.233-.278-.026h0Zm4.694,8.959-.245-.072-1.3-.028-1.331-.11-1.359-.185-1.39-.263-.069-.009-.217.028-.185.119-.119.182-.034.217.16.728.4.741.6.675.74.549.807.377.835.185.785-.041.662-.251.374-.282.329-.38.43-.747.264-.785.053-.292-.038-.21-.154-.144h0Z" transform="translate(-1520.894 -594.657)" fill="#f1b699"/>
          <path id="Path_1012385" data-name="Path 1012385" d="M1765.359,674.9l2.156-2.872,4.35-5.7,3.587-4.827.529-.781.436-.766.389-.829.346-.923.058-.449-.109-.436-1.292-2.363-.44-.907-.354-.982-.276-1.055-.195-1.127.047-.185.16-.1,2.429-.474h.01l.091.028.041.088,1.386,3.462.358,1,.321,1.133.533,2.677.066.769-.072.609-.255.634-.549.872-.3.446-3.823,5.615-5.38,7.532-1.824,2.526-.02.022-.115.034-.1-.066-.8-1.1-.934-.939h0l-.409-.33-.07-.11.019-.126Z" transform="translate(-1686.3 -597.226)" fill="#f1b699"/>
          <path id="Path_1012386" data-name="Path 1012386" d="M1748.253,651.941l-.045.2-.261.347-.329.287-.2.059.043-.2.263-.347.327-.287.2-.059Z" transform="translate(-1671.868 -598.696)" fill="#040403"/>
          <path id="Path_1012387" data-name="Path 1012387" d="M1944.8,672.546l.1,0,.129-.056.041-.135-.006-.028-.26-.766.025-.235.192-.135h0l.041,0,1.789-.082,1.685-.163,1.582-.245,1.475-.323,2.347-.568,1.224-.311,1.054-.377.242-.056.248.028.223.113.17.182.775,1.312.656,1.4.483,1.365.3,1.315.113,1.193-.063,1.1-.251,1.01-.43.879-.144.166-.188.113-1.01.4-1.776.731-4.1,1.817-4.3,1.651-1.572.474-1.842.4-1.77.254-1.466.072-1.189-.107-1.142-.286-.829-.342-.828-.461-.772-.559-.769-.687-.75-.8-.763-.938-1.833-2.633-2.209-3.484-2.2-3.741-.794-1.268-.926-1.243-.612-.552-.421-.345-.276-.32-.135-.069-.132.078-.019.069.031.392.132.518.088.122.144.05.345.038.311.11h0l.345.242.292.358,4.98,8.333.96,1.532,1.007,1.428,1.061,1.321,1.111,1.221.725.675.766.568.8.464.838.355h0l.7.21.725.141.75.072.772.006,1.073-.025.191.094,4.626,5.706.1.242-.044.26-.825,1.488-.945,1.312-1.067,1.142-1.189.97h0l-.11.078-1.167.7-.973.364-.336.031-.354-.044-.8-.3-.885-.6-.706-.725-.781-1.155-.493-.549-7.843-6.578-1.258-1.212-1.293-1.494-.442-.618-.439-.747-.873-1.9-.838-2.175-.737-2.119-.64-2.068-.543-2.015-1.346-5.166.013-.214.148-.157,2.395-1.277,2.36-1.378,2.329-1.475,2.3-1.572,1.974-1.538,1.779-1.667,1.585-1.792,1.393-1.918h0l.5-.794.141-.11.154.009.119.1.574,1.01h0l.621,1.233.556,1.271.49,1.306.424,1.34,2.062,7.021.3.781.389.725h0l.763,1.014.964.891.154.22.333,1.026.11.082h0Zm-2.273-1.428-.012-.175-.132-.115-.012,0-.175.012-.115.132-1.976,5.905.012.175.132.115.012,0,.175-.012.115-.132,1.976-5.905Zm10.851.669-.066.074-.037.187.032.588.149.57.092.167.086.05.066-.074.036-.187-.032-.588-.149-.57-.092-.167-.086-.05Zm1.584.377-.1-.058-.139.04-.058.1,1.2,4.173.1.058.139-.04.058-.1-1.2-4.173h0Zm-11.452,2.588-.05-.135-.131-.061h-.012l-.135.05-.061.131-.083,2.07.05.135.131.06h.012l.135-.05.061-.131.083-2.07h0Zm-2.9,17.708-.392.276h0l-.807.5-.847.439-.132.125,0,.063,0,.025.11.119.166,0,1.108-.568,1.02-.669.941-.775.869-.888.053-.157-.082-.138-.022-.016-.06-.013-.16.088-.672.678-.715.621-.38.292h0Z" transform="translate(-1810.758 -600.768)" fill="#697a93"/>
          <path id="Path_1012388" data-name="Path 1012388" d="M1790.82,663.388l.183-.339.154-.006.185-.1,1.81-1.412,1.364-1.236.1-.032.082.057.01.028.325,1.117.453,1.174.576,1.23.7,1.284.259.543.1.477-.086.653-.364.954-.053.122-.088.116-.136.063-2.8.53-.261-.06-.132-.229,0-.025-.086-.869-.175-.844h0l-.481-1.315-.714-1.252-.358-.392-.4-.2h0l-.158-.028Z" transform="translate(-1706.821 -605.395)" fill="#f3c288"/>
          <path id="Path_1012389" data-name="Path 1012389" d="M1619.767,668.1l-.321.27-.288.342-.251.417-.218.49-.165.16-.222-.034-.051-.047-.054-.082-.057-.195.01-.217.21-.53.469-.615.564-.505.677-.342.743-.21.568-.006.2.072.163.122.056.082.027.063-.051.22-.212.1-.533.022-.481.085-.424.141-.366.2Z" transform="translate(-1567.75 -610.824)" fill="#040403"/>
          <path id="Path_1012390" data-name="Path 1012390" d="M1747.376,680.446l-.154.019.006-.038.157-.1.009-.009.044-.122-.06-.113-.1-.056h0l-.217-.022-.26.091-.552.257-.373.11-.069-.006-.1-.113.041-.148.81-.669.888-.433h0l.515-.132.54-.066.1-.044.037-.1v-.1h0l-.063-.144-.145-.06-.876.1-.593.176-.571.263-.578.452-.565.458-.037-.229.54-.584.006-.122-.107-.06-.069.025-.449.273-.125,0-.113-.06-.063-.11,0-.129.072-.113.59-.427.675-.342.766-.264.851-.179.2-.075.151-.144.085-.122.019-.038-.028-.113-.107-.044-.888.129-.819.207-.75.289-.684.374-.138,0-.066-.119.025-.075.471-.549.5-.433.65-.4.769-.307.935-.245,1.378-.254.628-.11.364.006,3.461.744.151.063.113.116.424.719.351.731.276.75.2.766h0l.154.989-.05.282-.195.217-.8.4-.951.282-1.036.148-1.114.009h-1.127l-1.456.1-.119-.022-.094-.078-.038-.113.022-.119.085-.094.279-.22.2-.264h0l.163-.474,0-.565-.056-.11-.11-.047-.571.022-.518.141-.392.21-.358.292h0Zm1.189-3.352.1.282.185.229.248.169.813.282.229.091.195.148,1.569,1.525.217.094.223-.075.072-.056.034-.034.044-.192-.119-.16-.788-.559-.725-.813-.066-.078-.3-.2-.483-.132-.449-.116-.289-.169-.524-.43-.028,0-.125.063-.031.135h0Z" transform="translate(-1669.722 -617.719)" fill="#f1c1a2"/>
          <path id="Path_1012391" data-name="Path 1012391" d="M1764.515,682.419l.523.43.288.17.45.116.483.132.306.2.066.078.724.813.788.559.119.16-.043.192h0l-.035.034-.072.057-.224.075-.216-.094-1.569-1.525-.195-.148-.23-.091-.814-.282-.247-.169-.185-.229-.1-.282.031-.135.125-.063.029,0Z" transform="translate(-1685.487 -623.239)" fill="#040403"/>
          <path id="Path_1012392" data-name="Path 1012392" d="M1634.435,684.5l.278.026.306.233.286.406.222.516.126.547.012.5-.107.369-.208.186-.278-.026-.306-.233-.286-.406-.222-.516-.126-.547-.012-.5.107-.369.208-.186Z" transform="translate(-1580.619 -624.919)" fill="#040403"/>
          <path id="Path_1012393" data-name="Path 1012393" d="M1748.657,692.4l-.671.377-.331.082-.319.01h0l-.3-.06-.3-.129-.189-.232-.012-.3.144-.273.564-.458.578-.452.57-.264.594-.176.876-.1.144.06.062.144h0v.1l-.037.1-.1.044-.539.066-.516.132h0l-.887.433-.81.669-.041.148.1.113.07.006.372-.11.553-.257.261-.091.216.022.1.056.06.113-.045.122h0l-.008.009-.158.1Z" transform="translate(-1671.151 -629.694)" fill="#040403"/>
          <path id="Path_1012394" data-name="Path 1012394" d="M1760.663,699.791l.029.136-.076.2-.407.47-.529.327-.21.043-.13-.05-.029-.136.076-.2.407-.47.529-.327.21-.043.13.05Z" transform="translate(-1681.444 -637.193)" fill="#f1c1a2"/>
          <path id="Path_1012395" data-name="Path 1012395" d="M2117.457,726.661l3.379-1.955.652-.236.65-.031.566.16.576.358.586.568.629.807,1.415,2.121,1.337,2.263,1.257,2.4,1.177,2.539.045.107.113.64-.091.719-.136.4-.175.323-.226.263-.263.182-.494.135-.539-.05-.605-.232-.6-.38-.669-.521-1.989-1.494-1.491-.923-.738-.358-.707-.27-.708-.2-.738-.132-.483-.047h0l-.142-.072-.047-.154.016-.185-.01-1.481-.257-1.525-.5-1.629-.825-1.98.037-.125Z" transform="translate(-1969.855 -657.084)" fill="#f3c288"/>
          <path id="Path_1012396" data-name="Path 1012396" d="M1634.006,727.768l.154.144.038.21-.053.292h0l-.264.785-.43.747-.329.38-.373.282-.662.251-.785.041-.835-.185-.807-.377-.741-.549-.6-.675-.4-.741-.16-.728.034-.217.119-.182.185-.119.217-.028.069.009,1.39.264,1.359.185,1.331.11,1.3.028.245.072h0Zm-.677.449-1.246.06-1.23-.069-1.07-.16-1.061-.26-.2.041-.082.185.019.075.3.527.408.5.486.449.549.367.518.239.527.132.486.009.464-.113.32-.166.295-.242.251-.3.226-.373.273-.665v-.019l-.072-.16-.169-.056h0Z" transform="translate(-1575.496 -659.226)" fill="#040403"/>
          <path id="Path_1012397" data-name="Path 1012397" d="M1636.4,731.3l-.275.665-.226.373-.251.3-.294.242-.321.166-.463.113-.487-.009-.527-.132-.518-.239-.549-.367-.487-.449-.409-.5-.306-.527-.018-.075.082-.185.2-.041,1.061.261,1.07.16h0l1.23.069,1.248-.06.167.057.074.16v.019Z" transform="translate(-1578.324 -662.07)" fill="#fff"/>
          <path id="Path_1012398" data-name="Path 1012398" d="M2024.248,744.512l-.115.132-.175.012-.012,0-.132-.115-.014-.175,1.975-5.905.117-.132.173-.012.014,0,.132.115.012.175-1.975,5.9Z" transform="translate(-1894.457 -668.257)" fill="#040403"/>
          <path id="Path_1012399" data-name="Path 1012399" d="M2091.573,743.26l.086.05.092.167.148.57.033.588-.037.188-.066.074-.086-.05-.092-.167-.148-.57-.033-.588.037-.187.066-.074Z" transform="translate(-1948.956 -672.241)" fill="#040403"/>
          <path id="Path_1012400" data-name="Path 1012400" d="M2100.1,749.13l-.058.1-.138.04-.1-.058-1.2-4.173.058-.1.138-.04.1.058,1.2,4.173Z" transform="translate(-1954.69 -673.561)" fill="#040403"/>
          <path id="Path_1012401" data-name="Path 1012401" d="M2039.267,759.75l-.06.131-.134.05h-.014l-.13-.06-.049-.135.082-2.07.06-.131.136-.05h.012l.132.061.049.135-.084,2.07Z" transform="translate(-1906.602 -683.697)" fill="#040403"/>
          <path id="Path_1012402" data-name="Path 1012402" d="M1660.653,785.232l-.157.245-.154.129-.286.082-.3.072-.163.082-.3.144-.373.094-.96.038-.6,0-1.428,0-3.546-.2-3.515-.135-3.48-.069-3.452,0-.358-.107-.232-.289-.948-2.42-.009-.034.041-.179.166-.088,7.689-.3,12.2-.307.361.056.364.185h0l.16.069.173,0,.163-.066.125-.122.182-.273.533-.759.436-.483.443-.311.427-.113.267.019.286.088.556.374.813.825.807,1.036.075.242-.085.242-1.557,2.065-.163.1-.188-.041-.157-.107-.7-.455-.546-.257-.474-.094-.367.075-.2.144-.17.226-.637,1.208-.185.188-.229.047-.217-.078-.148-.182-.028-.229.06-.38-.019-.016-.006.006h0Zm.483-2.834-.154.207-.063.214.012.157.016.044.122.107.245.05.041-.006.063-.072L1661.4,783l-.082-.119-.06-.195.009-.226,0-.038-.053-.05-.072.022h0Z" transform="translate(-1585.673 -701.981)" fill="#83b9bc"/>
          <path id="Path_1012403" data-name="Path 1012403" d="M1746.195,791.528l-.01.226.06.195h0l.082.119.021.094-.062.072h0l-.041.006-.245-.05-.123-.107-.016-.044-.012-.157.062-.213.154-.207.072-.022.055.05,0,.038Z" transform="translate(-1670.604 -711.044)" fill="#040403"/>
          <path id="Path_1012404" data-name="Path 1012404" d="M1507.853,819.976l.173.031.144.094.1.141.034.169v.016l-.129,4.055-.053,3.848.019,3.637.1,3.43.364,5.831.756,8.082.292,2.944.05,1.215-.034,1.748-.439,7.3-.085.257-.2.185-1.519.716-1.9.769-2.881,1.036-2.975.948-3.066.86-3.157.772-3.612.716-1.588.217-1.557.138-1.274.056-2.784.006-2.831-.122-2.881-.254-2.928-.38-2.693-.54-1.648-.355-1.145-.179-.226-.091-.148-.2-.2-.609-.113-.593-.022-.571.063-.552.11-.512.2-1.249-.022-.48-.1-.4-.122-.267-.282-.7-.135-.819,0-.979.138-1.312.041-.311.317-2.3.329-1.871.989-5.044.985-5.354,1.952-11.641.778-4.7.819-4.541.857-4.381.9-4.218.712-2.909.854-2.919.989-2.922,1.127-2.931.634-1.428.709-1.372.785-1.312.866-1.258h0l1.164-1.466,1.284-1.381.348-.282.289-.1.238.013.323.1.468.144,5.633,1.136,3.421.643,2.125.468.866.3.882.452.3.094,1.4.063,1.886-.006h2.451l12.208.386.979-.016,1.312-.107.307-.066.286-.129.424-.245.148-.035.141.056.235.214.207.148.248.047.245-.063.2-.157.05-.075.461-.694.471-.449.411-.232.154-.028.182.034.449.267,1.892,1.6,1.757,1.77,1.572,1.9,1.4,2.021,1.189,2.106.957,2.137.737,2.209.49,2.2-.019.223-.119.191-1.911,1.82-1.089.888-1.133.781-1.18.675-1.221.565h0l-.747.282-2.7.832-1.346.333-1.4.207-4.689.577-3.151.3-4.412.169-2.175.063-2.241.044-2.539-.025-6.506-.279-1.792-.094-.163.053-.088.148,0,.022.044.169.147.085h.012l3.992.213,3.634.132,3.267.047,2.909-.034h0Zm-8.782-23.225,0,0,0-.019-.031-.05h0l-1.808.034-1.732.129-1.651.223-1.572.314-.791.22-.756.273-.719.329-.687.389h0l-.716.493-.675.565-.069.148.053.157h0l.016.016.006,0,.173.069.176-.069.822-.662.885-.552h0l1.086-.5,1.167-.355,3.12-.606,3.669-.5.031-.05h0Zm21.4,6.826.182,1.754-.016,1.739-.1,1.017.05.286.113.088.154.013.094-.047.044-.1.138-1.287.05-1.236-.044-1.183-.135-1.13-.229-1.114-.329-1.136-.436-1.158-.533-1.18-.075-.075-.1-.019-.141.063-.082.119.044.286.417.932h0l.565,1.645.377,1.723h0Zm5.728.91.894,2.09h0l.461,1.4.364,1.431.1.088.154-.034.122-.229-.053-.731-.3-1.092-.562-1.475-.753-1.657-.851-1.6-.819-1.34-.687-.917-.552-.49-.254-.044-.122.1.006.135.913,1.161.828,1.218,1.111,1.983h0Zm-50.105,42.394.16.085.179-.038,2.168-1.406,2-1.525,1.459-1.246,1.422-1.293,1.378-1.343,1.337-1.394,1.3-1.444,1.255-1.494,2.391-3.135,1.638-2.486,1.472-2.63,1.306-2.778,1.139-2.919,0-.013-.025-.245-.2-.154-.019-.006h0l-.248.038-.145.2-.533,1.817-.75,1.839-1.133,2.275-1.29,2.275-1.431,2.228-1.544,2.159-1.7,2.134-1.8,2.046-1.917,1.977-2,1.877-1.309,1.111-1.409,1.092-1.516,1.07-1.616,1.051-.078.119.034.135.009.012.006,0h0ZM1487,843.79l-1.255,1.6-1.356,1.61-1.456,1.623-1.554,1.632-.056.179.107.144h0l.063.019h.016l.141-.034.141-.11,3.035-3.27,1.334-1.579,1.211-1.535,1.152-1.582,1.158-1.71,2.332-3.8.066-.166-.006-.144,0-.016-.034-.056-.169-.063-.157.1-1.152,1.94-1.171,1.839-1.183,1.739-1.2,1.645h0Zm13.8,9.515-1.315,2.429-.926,1.541-.979,1.51-1.039,1.478-1.092,1.447-.034.06.022.238.21.132.116-.009.116-.091,1.484-2.009,1.39-2.087,1.3-2.166,1.2-2.244,1.1-2.3.976-2.329.854-2.357.738-2.385,0-.148-.06-.1-.232-.088-.2.119-.028.066-.518,1.739-.574,1.71-.634,1.685-.69,1.66h0l-1.177,2.5h0Z" transform="translate(-1446.427 -712.604)" fill="#78bdb8"/>
          <path id="Path_1012405" data-name="Path 1012405" d="M1583.34,810.462l-3.669.5-3.12.606-1.168.355-1.086.5h0l-.884.552-.823.662-.175.069-.173-.069-.006,0-.066-.126.066-.195.675-.565.714-.493h0l.689-.389.718-.33.755-.273.792-.22,1.573-.314,1.651-.223,1.732-.129,1.808-.034h0l.031.05,0,.019,0,0-.031.05Z" transform="translate(-1530.726 -726.266)" fill="#040403"/>
          <path id="Path_1012406" data-name="Path 1012406" d="M1734.4,825.972l.136,1.13.043,1.183-.051,1.236-.138,1.287-.043.1-.1.047-.154-.012-.113-.088-.049-.286.1-1.017.016-1.739-.183-1.755-.376-1.723-.564-1.644h0l-.418-.932-.043-.286.082-.119.14-.063.1.019.076.075.533,1.18.436,1.158.329,1.136.23,1.114Z" transform="translate(-1659.828 -735.084)" fill="#040403"/>
          <path id="Path_1012407" data-name="Path 1012407" d="M1757.7,831.224l.751,1.648.561,1.469.307,1.1.054.738-.123.229-.154.034-.1-.088-.364-1.431-.461-1.4-.9-2.09-1.111-1.984h0l-.827-1.218-.915-1.161-.006-.135.123-.1.255.044.545.486.685.907.825,1.343.853,1.607Z" transform="translate(-1677.498 -739.551)" fill="#040403"/>
          <path id="Path_1012408" data-name="Path 1012408" d="M2017.372,842.528l.38-.292.716-.621.671-.678.16-.088.06.013.021.016.082.138-.054.157-.868.888-.942.775-1.02.669-1.107.568-.167,0-.109-.119,0-.025,0-.063.132-.126.847-.439.806-.5h0l.393-.276Z" transform="translate(-1887.522 -750.837)" fill="#040403"/>
          <path id="Path_1012409" data-name="Path 1012409" d="M2027.1,859.777l1.207-.615,1.108-.744.819-.69.753-.772.693-.857.629-.938.1-.072.119.025.01.006,2.917,2.423.551.621.3.684h0l.066.443-.021.464-.111.49-.2.512-.993,2.056-1,1.917-1.006,1.77-1.014,1.632-1.236,1.733-1.191,1.324-.52.377-.582.2-.586.009-.539-.194-.389-.345-.286-.518-.07-.3-.016-.37.138-.941.833-3.744.125-1.24-.057-1.309-.235-1.375L2027,860l0-.129.089-.091Z" transform="translate(-1896.728 -762.305)" fill="#f3c288"/>
          <path id="Path_1012410" data-name="Path 1012410" d="M1511.451,962.919l-.006,0-.01-.014-.035-.134.078-.119,1.617-1.053,1.516-1.068,1.409-1.094,1.308-1.109,2-1.878,1.917-1.977,1.8-2.046,1.7-2.135,1.545-2.158,1.431-2.228,1.29-2.275,1.133-2.275.749-1.839.533-1.817.146-.2.247-.038h0l.018.006.2.154.025.245,0,.013-1.139,2.919-1.306,2.778-1.471,2.63-1.639,2.486-2.392,3.135-1.255,1.495-1.3,1.444-1.337,1.393-1.378,1.343-1.421,1.292-1.46,1.246-2,1.526-2.168,1.407-.179.037-.16-.086Z" transform="translate(-1481.784 -828.642)" fill="#040403"/>
          <path id="Path_1012411" data-name="Path 1012411" d="M1544.587,1022.63l-1.211,1.536-1.335,1.578-3.034,3.27-.142.111-.14.035h-.016l-.064-.019-.105-.144.056-.179,1.553-1.633,1.456-1.621,1.357-1.612,1.255-1.6,1.2-1.645,1.183-1.738,1.17-1.839,1.152-1.94.158-.1.169.062.035.056,0,.016.008.144-.066.167-2.332,3.8-1.158,1.711-1.152,1.58Z" transform="translate(-1503.642 -891.166)" fill="#040403"/>
          <path id="Path_1012412" data-name="Path 1012412" d="M1616.807,1062.314l-1.2,2.244-1.3,2.166-1.39,2.086-1.485,2.009-.115.091-.117.01-.21-.132-.021-.24.035-.058,1.092-1.448,1.037-1.477.981-1.51.924-1.542h0l1.316-2.429,1.176-2.5.691-1.66.635-1.686.574-1.711.518-1.738.027-.066.2-.119.234.088.058.1,0,.146-.738,2.386-.854,2.357-.975,2.33-1.1,2.3Z" transform="translate(-1561.975 -921.383)" fill="#040403"/>
          <path id="Path_1012413" data-name="Path 1012413" d="M1519.039,1225.528l-.1.074-.23-.025-.074-.093,2.521-22.127.093-.076.232.027.074.094-2.52,22.127Z" transform="translate(-1487.615 -1042.729)" fill="#040403"/>
          <path id="Path_1012414" data-name="Path 1012414" d="M1671.272,1343.546l0,0-.113.008-.123-.1-.117-.125-.016-.091h0l4-5.058.094-.006.148.084.123.1.012.117-4,5.068Z" transform="translate(-1610.241 -1151.373)" fill="#040403"/>
          <path id="Path_1012415" data-name="Path 1012415" d="M1644.737,1342.841l-.017.148-.115.094-.017.006-.148-.016-.093-.117-1.016-3.449.016-.15.115-.093.019,0,.148.016.094.115,1.016,3.451Z" transform="translate(-1588.037 -1152.243)" fill="#040403"/>
          <path id="Path_1012416" data-name="Path 1012416" d="M1495.588,1363.671l-.249-.123-.259-.267-.8-1.187h0l.039-.144.074-.041h0l.054.023.477.833.718.792.019.062-.041.047-.035,0Z" transform="translate(-1467.996 -1170.484)" fill="#040403"/>
          <path id="Path_1012417" data-name="Path 1012417" d="M1500.37,1370.66l1.041-4.256.1-.088.092-.014.031,0,.166.072.052.173-.089.771.031.171.374.586.417.516.465.442.508.364h0l.111.066.152.13.1.177.021.5-.056.082h-.1l-.027-.021-2.049-2.145-.037-.031-.162-.012-.105.119-.712,2.47-.023.019-.21.016h-.012l-.076-.1Z" transform="translate(-1472.901 -1174.02)" fill="#040403"/>
          <path id="Path_1012418" data-name="Path 1012418" d="M1487.544,1389.7l.016.134-.084.105-.012.006-.134.016-.105-.086-3.2-5.8-.016-.134.084-.105.012-.006.134-.016.105.084,3.2,5.8Z" transform="translate(-1459.725 -1188.13)" fill="#040403"/>
          <path id="Path_1012419" data-name="Path 1012419" d="M1490.727,1409.58l.023.2-.119.413-.189.387-.15.132-.023-.2.117-.413.189-.385.152-.132Z" transform="translate(-1464.767 -1208.876)" fill="#040403"/>
          <path id="Path_1012420" data-name="Path 1012420" d="M1407.283,1452.573l-.082.006-.171-.121v-.208l3.219-6.105,3-6.142,2.425-5,1.049-2.11,1.814-3.844,2.341-5.241.856-1.943.169-.175.241-.017.02.008.016.006.148.14,0,.2-1.851,3.93-1.808,3.807-3.505,7.507-2.149,4.332-1.711,3.317-1.845,3.8-.907,1.765-1.158,1.975-.111.115Z" transform="translate(-1397.728 -1218.614)" fill="#040403"/>
          <path id="Path_1012421" data-name="Path 1012421" d="M1388.943,1601.281l-2.219.166-1.808.062-.584-.027-.553-.1-.518-.156-.487-.22-.477-.3-.436-.362-.393-.417-.344-.477-1.958-3.381-1.127-2-.866-1.421-.851-1.253-.866-1.111-1.717-2.137-1.016-1.5-.045-.185.066-.177,1.267-1.678.136-.019,2.908,1.958,2.97,1.758,3.034,1.555,3.1,1.349.129.1.047.16.056,1.2.195,1.312.335,1.446.559,1.96.547,1.923.016.66-.01.187.029.132.084.107.86.65.051.109-.062.105h0l-.051.016Z" transform="translate(-1370.063 -1349.825)" fill="#dfddd8"/>
          <path id="Path_1012422" data-name="Path 1012422" d="M1363.241,1596.9l.175.3.28.461.816,1,1.413,1.758.928,1.259.345.506,1.506,2.454,1.8,3.28.685,1.183.689.932.736.724.8.549.206.107.835.292,1.014.144,1.211.01,1.736-.128.271-.025.529-.016.5.047.467.113.436.177.195.1,1.24.806.85.763.31.383.253.415.171.407.1.436,0,.016-.008.23-.084.214-.148.175-.2.117-.751.181-.878.035-4.175-.255-3.338-.4-.679-.15-.642-.23h0l-.662-.344-.619-.44-.578-.537-.537-.631-4.214-5.5-3.828-4.87-.58-.882-.378-.938-.132-.607.016-.411.245-.8.358-.8.471-.813.58-.819.119-.062.127.047.016.02Z" transform="translate(-1360.906 -1359.682)" fill="#83b9bc"/>
        </g>
        <path id="Path_1012423" data-name="Path 1012423" d="M1536.686,1383.21v.335a.015.015,0,0,1,0,.006c-.088.2-2.878,6.781-3.838,8.7-.976,1.952-7.857,14.5-7.857,14.5l-.182-.788.035-.068.045-.082c.026-.047.057-.108.094-.178.063-.117.139-.262.231-.432.235-.442.56-1.051.933-1.745.027-.055.057-.108.086-.162l.168-.311c.063-.119.129-.241.2-.366l.282-.524c.937-1.735,2-3.682,2.76-5,1.675-2.905,6.565-13.461,6.565-13.461l.338-.307.145-.119Z" transform="translate(-1492.582 -1187.639)" fill="#040403"/>
        <path id="Path_1012424" data-name="Path 1012424" d="M1445.821,1234.185l-.017-.012-.366-2.355-1.019-7.557-1.217-8.88-1.371-9.995-.986-7.088-1.1-6.892-.919-4.8-1.074-4.492-1.144-4.37-.925-3.782-1.434-5.229-1.641-6.018-.673-2.412-.816-2.584-.188-.215-.289-.016-.006,0-3.383,1.213-4.384,1.467-2.86.876-2.473.634-3.242.675-2.213.329-1.839.139-1.911.076-4.038-.033-.217.076-.1.208-.186,2.181-.1.088-.094-.01-.131-.068-.047-.143.188-2.228-.041-.125-.119-.059h-.006l-1.651-.072-1.784-.186-1.952-.287-2.533-.46-.049-.008-.17.039-.084.151v.02l-.072,5.429-.245,6.988-.286,8.083-.192,4.752-.348,5.392-.192,1.624-.149,1.16-.053.851-.068.452-.188.421-1.847,3.2-1.761,3.547-1.395,2.884-2,3.854-2.979,5.836-2.215,4.537-1.692,3.283-1.913,3.692-1.553,3.3-1.166,2.373-2.365,4.588-.053.333.156.3,1.62,1.389,1.974,1.364,3.492,2.1,3.22,1.688,3.079,1.355,1.524.565,1.489.483.35-.02.26-.235,12.483-23.372.035-.068.045-.082c.025-.047.057-.108.094-.178.063-.117.139-.262.231-.432.029-.055.061-.113.092-.174l.1-.189.343-.64c.123-.233.256-.481.4-.742.027-.055.057-.108.086-.162l.168-.311c.063-.119.129-.241.2-.366.045-.086.092-.172.139-.26l.141-.266a0,0,0,0,1,0,0c.937-1.735,2-3.682,2.76-5,1.675-2.905,6.565-13.461,6.565-13.461l.247-.495.468-1.215,1.849-5.9.734-2.721.732-3.277.781-3.4,1.281-5.687,1.626-8.019.536-3.122,1.027-6.622.008-.035.1-.1.139.024.094.063.141.172.025.219L1420.5,1177.3l.014.117,1.031,2.815,1,2.968.958,3.124.927,3.275-.01.123-.084.094-.108.061-.021.008-.156-.006-.1-.121-1.323-4.774-1.07-3.617-.483-1.43-.6-1.573-.117-.094-.141.053-.031.067-1.252,5.857-1.491,6.612-.021.3.068.338.405.794.123.241,2.042,5.752s7.166,21.9,7.549,27.651c.313,2.51,2.649,21.651,2.649,21.651l7.61-.6,9.335-1.634-1.385-11.167Zm-42.373-67.707.094-.074.231.026.074.094-2.522,22.128-.094.074-.231-.027-.074-.094,2.522-22.126Zm-7.223,30.839.072-.041h0l.053.021.477.835.718.79.02.063-.041.049-.035,0-.247-.121-.26-.268-.8-1.185.039-.145Zm-1.721,11.95-1.853,3.928-1.808,3.807-3.506,7.506-2.15,4.331-1.71,3.318-1.845,3.8-.908,1.765-1.158,1.978-.109.112-.08.008-.174-.119v-.211l3.22-6.1,3-6.143,2.426-5,1.049-2.109,1.813-3.844,2.342-5.241.857-1.945.17-.174.241-.016.02.006.016.006.147.141,0,.206Zm1.263-2.1-.188.387-.151.131-.023-.2.117-.413.19-.385.151-.133.024.2-.119.413Zm1.886.5-.012.006-.133.016-.106-.084-3.2-5.8-.014-.135.082-.1.012-.008.133-.014.106.084,3.2,5.8.016.133-.084.106Zm1.018-7.68-.16-.012-.106.119-.712,2.469-.024.02-.209.016h-.014l-.074-.1,1.041-4.257.1-.086.09-.014.031,0,.166.07.053.174-.09.771.031.17.374.587.417.515.465.442.509.364.11.067.153.131.1.176.021.5-.057.082h-.1l-.027-.022-2.05-2.144-.037-.031Zm27.914-3.385-.115.094-.018,0-.149-.016-.094-.115-1.015-3.451.016-.147.117-.094.018-.006.149.016.092.115,1.015,3.451-.016.149Zm7.466-.251-.141.282-.863,1.591-.384.518-.366.354-.2.184c-.1-.059-.207-.114-.311-.168l.775-.894.669-1.117.36-.89.088-.108.139-.025.109.02.121.084.016.147-.01.023Zm.882-3.391-4,5.069-.115.012-.123-.1-.115-.127-.016-.09,3.995-5.059.094-.006.147.084.123.1.031.078-.02.037Z" transform="translate(-1369.903 -1005.85)" fill="#5a667a"/>
        <path id="Path_1012425" data-name="Path 1012425" d="M1640.994,1410.869a6.407,6.407,0,0,1-1.907.728c-.19.049-.389.1-.6.145-4.024.912-11.247,1.475-14.426,1.776l-.452.045a6.161,6.161,0,0,0-1.119.156c-.278.249-.65-12.241-1.952-21.167s-7.692-28.907-7.692-28.907l-.368-.853-.006-.014-.108-.264.892.888s7.166,21.9,7.549,27.651c.313,2.51,2.649,21.651,2.649,21.651l7.61-.6,9.336-1.634-1.385-11.167-.08-.653.632,1.025s1.332,8.586,1.426,11.19Z" transform="translate(-1563.098 -1170.972)" fill="#040403"/>
        <path id="Path_1012426" data-name="Path 1012426" d="M1688.346,1616.115l3.413-.521,1.347-.292c-.09-.026-.181-.057-.272-.093a2.175,2.175,0,0,1-.425-.229l-.9.192-3.646.521-3.968.334c-.041.032-.081.065-.125.094l-.014.01a2.789,2.789,0,0,1-.677.357l1.788-.058,3.481-.316Z" transform="translate(-1620.048 -1374.3)" fill="#040403"/>
        <path id="Path_1012427" data-name="Path 1012427" d="M1697.7,1619.743l-.666-.348-1.4-.293-.007,0-2.24-.071-1.021-.126-.929-.2-.367-.211-1.316-1.184-2.258-1.821-1.22-1.092-1.42-1.515-.037-.127.026-.038c-.179.114-.361.225-.549.321l.7.877.938.963,1.131.99,1.62,1.278,1.589,1.258.4.532.1.16.1.092.134.037,1.09.025.107.06.01.122-.032.043-1.724,1.451-1.448,1.122-.5.323-.51.251-.517.177-.531.107-.568.038-.573-.039-.568-.111-.567-.187-3.612-1.617-2.111-.977-1.553-.656-1.441-.525-1.37-.4-2.676-.741-1.726-.632-.147-.126-.048-.183.046-2.132.042-.039c-.064.011-.129.02-.195.026l-.08,0c-.064.015-.127.033-.192.043v0l0,.016-.1,1.178-.075,2.451.041.833.149,1.024.142.569.2.521.254.471.308.423.352.362.405.311.457.274.51.223,1.349.459,1.854.517,1.742.488,8.8,2.65.93.189,1.152.08a7.016,7.016,0,0,0,1.051-.115l0,0,1.415-.62,1.48-.757,1.581-.91,2.115-1.305,1.375-.935,1.008-.849.386-.511.107-.275.034-.269-.1-.49-.331-.489-.509-.425Zm.364,1.051.057.225-.016.232-.1.214-.508.593-.7.551-3.579,2.263-2.978,1.654-.647.278-.663.192-.75.108-.768.006-.793-.1-.813-.2-6.719-2.017-6.031-1.734-1-.38-.864-.547-.468-.419-.229-.348-.272-.8-.181-.871-.1-.947-.008-1.018.061-.122.131-.036.024.007.325.146.5.212,1.266.343,2.2.607,1.508.486.583.21,2.691,1.123,3.421,1.63,1.264.567,1.119.356,1.033.162.982-.024.234-.034.859-.255.918-.481,1-.709,1.349-1.134.207-.181.426-.327.438-.257.451-.184.463-.114.222-.031,1.495-.071,1.151.123.483.131.45.191.385.233.34.3.013.01.129.193Z" transform="translate(-1609.064 -1372.478)" fill="#040403"/>
        <path id="Path_1012428" data-name="Path 1012428" d="M1672.186,1637.648l.325.146.5.212,1.267.343,2.2.607,1.508.485.584.21,2.69,1.123,3.422,1.629,1.263.568,1.119.356,1.033.161.983-.023.234-.035.858-.255.919-.483,1-.71,1.349-1.133.208-.181.426-.327.438-.257.452-.183.461-.115.222-.031,1.5-.07,1.15.123.481.13.454.191.383.234.341.3.012.012.13.193.057.226-.018.232-.1.214-.508.594-.7.549-3.579,2.263-2.978,1.654-.646.276-.664.193h0l-.749.109-.769.006-.792-.1-.813-.2-6.719-2.018-6.032-1.732-1-.381-.864-.549-.467-.418-.232-.346-.271-.8-.183-.872-.093-.948-.01-1.016.062-.123.13-.037.023.008Z" transform="translate(-1611.103 -1392.55)" fill="#83b9bc"/>
      </g>
    </g>
  </g>
</svg>
