<svg xmlns="http://www.w3.org/2000/svg" width="128" height="128" viewBox="0 0 128 128">
  <g id="img26" transform="translate(-383.746 -8399.752)">
    <path id="Path_997401" data-name="Path 997401" d="M64,0A64,64,0,1,1,0,64,64,64,0,0,1,64,0Z" transform="translate(383.746 8399.752)" fill="#ff945d"/>
    <g id="Group_1197538" data-name="Group 1197538" transform="translate(415.904 8429.146)">
      <path id="Path_1019917" data-name="Path 1019917" d="M284.785,316.012a8.351,8.351,0,1,0,8.351,8.351A8.361,8.361,0,0,0,284.785,316.012Zm0,14.008a5.657,5.657,0,1,1,5.657-5.657A5.663,5.663,0,0,1,284.785,330.02Zm0,0" transform="translate(-238.767 -273.446)" fill="#4a4e3c"/>
      <path id="Path_1019918" data-name="Path 1019918" d="M62.721,86.319h-1.59a15.58,15.58,0,0,0-1.328-3.2L60.921,82a1.346,1.346,0,0,0,0-1.905L56.626,75.8a1.347,1.347,0,0,0-1.9,0l-1.117,1.117a15.553,15.553,0,0,0-3.2-1.327V74.01a1.342,1.342,0,0,0-.134-.582l4.265-4.351a1.346,1.346,0,0,0,.385-.943V61.076a1.347,1.347,0,0,0-1.347-1.347H34.64v-4.74a4.581,4.581,0,1,0-2.694-.1v4.836H16.136a5.806,5.806,0,1,0-11.29,0h-3A1.347,1.347,0,0,0,.5,61.076v7.058a1.346,1.346,0,0,0,.385.943L6.1,74.393A1.347,1.347,0,1,0,8.02,72.507L3.194,67.584V62.423H52.223v5.161l-4.978,5.079H42.983a1.347,1.347,0,0,0-1.347,1.347v1.58a15.541,15.541,0,0,0-3.2,1.327L37.315,75.8a1.347,1.347,0,0,0-1.9,0l-4.294,4.291a1.346,1.346,0,0,0,0,1.905l1.119,1.118a15.6,15.6,0,0,0-1.328,3.2H29.32a1.347,1.347,0,0,0-1.347,1.346l0,6.071a1.348,1.348,0,0,0,1.347,1.348h1.59a15.579,15.579,0,0,0,1.328,3.2l-1.125,1.125a1.339,1.339,0,0,0-.375.731l-8.427,4.92V87.632a1.348,1.348,0,0,0-.385-.943L16.5,81.163a1.347,1.347,0,1,0-1.924,1.886l5.033,5.134v19.228a1.347,1.347,0,0,0,2.026,1.163L32.2,102.409l3.2,3.2a1.347,1.347,0,0,0,1.905,0l1.127-1.127a15.542,15.542,0,0,0,3.2,1.328v1.6a1.347,1.347,0,0,0,1.347,1.347h6.071a1.347,1.347,0,0,0,1.347-1.347v-1.6a15.555,15.555,0,0,0,3.2-1.328l1.127,1.127a1.346,1.346,0,0,0,1.905,0l4.291-4.294a1.347,1.347,0,0,0,0-1.9L59.8,98.289a15.566,15.566,0,0,0,1.328-3.2h1.59a1.347,1.347,0,0,0,1.347-1.347V87.666a1.347,1.347,0,0,0-1.347-1.347ZM33.449,48.682a1.886,1.886,0,1,1-1.886,1.886A1.888,1.888,0,0,1,33.449,48.682ZM7.379,58.368a3.112,3.112,0,0,1,6.223,0,3.082,3.082,0,0,1-.315,1.361H7.694a3.082,3.082,0,0,1-.315-1.361Zm54,34.022H60.082a1.347,1.347,0,0,0-1.317,1.064,12.925,12.925,0,0,1-1.787,4.313,1.347,1.347,0,0,0,.179,1.684l.916.915-2.388,2.389-.916-.917a1.348,1.348,0,0,0-1.684-.179,12.916,12.916,0,0,1-4.313,1.787,1.348,1.348,0,0,0-1.064,1.317v1.3H44.33v-1.3a1.347,1.347,0,0,0-1.064-1.317,12.929,12.929,0,0,1-4.313-1.787,1.347,1.347,0,0,0-1.684.179l-.916.916-2.388-2.389.916-.916a1.347,1.347,0,0,0,.179-1.684,12.916,12.916,0,0,1-1.787-4.313,1.347,1.347,0,0,0-1.317-1.064H30.664l0-3.377h1.29a1.346,1.346,0,0,0,1.317-1.064,12.918,12.918,0,0,1,1.787-4.313,1.347,1.347,0,0,0-.179-1.684l-.907-.908,2.389-2.387.907.907a1.347,1.347,0,0,0,1.684.179,12.918,12.918,0,0,1,4.313-1.787,1.347,1.347,0,0,0,1.064-1.317V75.357h3.377v1.282a1.347,1.347,0,0,0,1.064,1.317,12.916,12.916,0,0,1,4.313,1.787,1.347,1.347,0,0,0,1.684-.179l.907-.907,2.389,2.387-.908.908a1.347,1.347,0,0,0-.179,1.683,12.914,12.914,0,0,1,1.787,4.313,1.347,1.347,0,0,0,1.317,1.064h1.293Zm0,0" transform="translate(0 -39.794)" fill="#4a4e3c"/>
      <path id="Path_1019919" data-name="Path 1019919" d="M116.662,10.056v5.075a1.347,1.347,0,1,0,2.694,0V10.056a5.118,5.118,0,1,0-2.694,0Zm1.347-7.362a2.425,2.425,0,1,1-2.425,2.425A2.428,2.428,0,0,1,118.009,2.694Zm0,0" transform="translate(-97.252)" fill="#4a4e3c"/>
      <path id="Path_1019920" data-name="Path 1019920" d="M307.1,10.056v5.7a1.347,1.347,0,1,0,2.694,0v-5.7a5.118,5.118,0,1,0-2.694,0Zm1.347-7.362a2.425,2.425,0,1,1-2.425,2.425A2.427,2.427,0,0,1,308.45,2.694Zm0,0" transform="translate(-262.042)" fill="#4a4e3c"/>
      <path id="Path_1019921" data-name="Path 1019921" d="M72.023,272a1.347,1.347,0,1,0,.952.395A1.359,1.359,0,0,0,72.023,272Zm0,0" transform="translate(-60.723 -235.363)" fill="#4a4e3c"/>
    </g>
  </g>
</svg>
