<svg xmlns="http://www.w3.org/2000/svg" width="96" height="96" viewBox="0 0 96 96">
  <g id="img21" transform="translate(-794.039 -2920.081)">
    <path id="Elipse_5729" data-name="Elipse 5729" d="M48,0A48,48,0,1,1,0,48,48,48,0,0,1,48,0Z" transform="translate(794.039 2920.081)" fill="#9c3413"/>
    <g id="Group_1197536" data-name="Group 1197536" transform="translate(812.039 2938.079)">
      <path id="Path_1019900" data-name="Path 1019900" d="M9,60H51a4,4,0,0,0,4-4V7a4,4,0,0,0-4-4H39.722A1.993,1.993,0,0,0,38,2H34.466a1.147,1.147,0,0,1-.8-.4,5,5,0,0,0-7.328,0,1.147,1.147,0,0,1-.8.4H22a1.993,1.993,0,0,0-1.722,1H9A4,4,0,0,0,5,7V56A4,4,0,0,0,9,60ZM22,4h3.534A3.091,3.091,0,0,0,27.8,2.958a3.064,3.064,0,0,1,4.39,0A3.091,3.091,0,0,0,34.466,4H38V8H22Zm16,6a1.993,1.993,0,0,0,1.722-1H49V54H11V9h9.278A1.993,1.993,0,0,0,22,10ZM7,7A2,2,0,0,1,9,5H20V7H11A2,2,0,0,0,9,9V54a2,2,0,0,0,2,2H49a2,2,0,0,0,2-2V9a2,2,0,0,0-2-2H40V5H51a2,2,0,0,1,2,2V56a2,2,0,0,1-2,2H9a2,2,0,0,1-2-2Z" fill="#fff"/>
      <path id="Path_1019901" data-name="Path 1019901" d="M19.707,17.293a1,1,0,1,0-1.414,1.414l1,1a1,1,0,0,0,1.414,0l6-6a1,1,0,1,0-1.414-1.414L20,17.586Z" fill="#fff"/>
      <path id="Path_1019902" data-name="Path 1019902" d="M14,15v6a3,3,0,0,0,3,3h6a3,3,0,0,0,3-3V19a1,1,0,0,0-2,0v2a1,1,0,0,1-1,1H17a1,1,0,0,1-1-1V15a1,1,0,0,1,1-1h4a1,1,0,0,0,0-2H17a3,3,0,0,0-3,3Z" fill="#fff"/>
      <path id="Path_1019903" data-name="Path 1019903" d="M25.293,26.293,20,31.586l-.293-.293a1,1,0,1,0-1.414,1.414l1,1a1,1,0,0,0,1.414,0l6-6a1,1,0,1,0-1.414-1.414Z" fill="#fff"/>
      <path id="Path_1019904" data-name="Path 1019904" d="M17,38h6a3,3,0,0,0,3-3V33a1,1,0,0,0-2,0v2a1,1,0,0,1-1,1H17a1,1,0,0,1-1-1V29a1,1,0,0,1,1-1h4a1,1,0,0,0,0-2H17a3,3,0,0,0-3,3v6A3,3,0,0,0,17,38Z" fill="#fff"/>
      <path id="Path_1019905" data-name="Path 1019905" d="M25.293,40.293,20,45.586l-.293-.293a1,1,0,1,0-1.414,1.414l1,1a1,1,0,0,0,1.414,0l6-6a1,1,0,1,0-1.414-1.414Z" fill="#fff"/>
      <path id="Path_1019906" data-name="Path 1019906" d="M25,46a1,1,0,0,0-1,1v2a1,1,0,0,1-1,1H17a1,1,0,0,1-1-1V43a1,1,0,0,1,1-1h4a1,1,0,0,0,0-2H17a3,3,0,0,0-3,3v6a3,3,0,0,0,3,3h6a3,3,0,0,0,3-3V47A1,1,0,0,0,25,46Z" fill="#fff"/>
      <path id="Path_1019907" data-name="Path 1019907" d="M31,17h3a1,1,0,0,0,0-2H31a1,1,0,0,0,0,2Z" fill="#fff"/>
      <path id="Path_1019908" data-name="Path 1019908" d="M31,21H45a1,1,0,0,0,0-2H31a1,1,0,0,0,0,2Z" fill="#fff"/>
      <path id="Path_1019909" data-name="Path 1019909" d="M31,31h3a1,1,0,0,0,0-2H31a1,1,0,0,0,0,2Z" fill="#fff"/>
      <path id="Path_1019910" data-name="Path 1019910" d="M31,35H45a1,1,0,0,0,0-2H31a1,1,0,0,0,0,2Z" fill="#fff"/>
      <path id="Path_1019911" data-name="Path 1019911" d="M31,45h3a1,1,0,0,0,0-2H31a1,1,0,0,0,0,2Z" fill="#fff"/>
      <path id="Path_1019912" data-name="Path 1019912" d="M31,49H45a1,1,0,0,0,0-2H31a1,1,0,0,0,0,2Z" fill="#fff"/>
      <path id="Path_1019913" data-name="Path 1019913" d="M30.983,4H29a1,1,0,0,0,0,2h1.689C31.559,6,32,5.664,32,5A1.016,1.016,0,0,0,30.983,4Z" fill="#fff"/>
    </g>
  </g>
</svg>
