<svg xmlns="http://www.w3.org/2000/svg" width="96" height="96" viewBox="0 0 96 96">
  <g id="Grupo_154427" data-name="Grupo 154427" transform="translate(-794.039 -2920.295)">
    <path id="Elipse_5729" data-name="Elipse 5729" d="M48,0A48,48,0,1,1,0,48,48,48,0,0,1,48,0Z" transform="translate(794.039 2920.295)" fill="#9c3413"/>
    <g id="Grupo_1197537" data-name="Grupo 1197537" transform="translate(812.371 2923.217)">
      <path id="Trazado_1019914" data-name="Trazado 1019914" d="M251.418,85.889l-1.458.983V82.141a.869.869,0,0,0-1.737,0V88.5a.869.869,0,0,0,1.354.72l2.812-1.9a.869.869,0,0,0-.971-1.44Z" transform="translate(-219.476 -57.139)" fill="#fff"/>
      <path id="Trazado_1019915" data-name="Trazado 1019915" d="M46.813,30.5a12.406,12.406,0,0,0-5.619,1.339,11.6,11.6,0,1,0-6.818,10.093,13.124,13.124,0,0,0-.035,1.529,12.981,12.981,0,1,1-4.726-25.072,13.007,13.007,0,0,1,12.521,9.545.869.869,0,0,0,1.675-.458A14.71,14.71,0,1,0,34.537,45.24a12.438,12.438,0,0,0,2.572,5.58l-3.89,3.586a3.881,3.881,0,0,0-4.965.477l-5.678-3.507a3.89,3.89,0,1,0-7.131.541L6.215,59.765A3.895,3.895,0,1,0,7.34,61.089l9.231-7.849a3.882,3.882,0,0,0,5.092-.387L27.34,56.36a3.89,3.89,0,1,0,7.056-.677l3.9-3.592a12.47,12.47,0,0,0,5.517,3V69A3.133,3.133,0,0,0,46.9,72.087,3.09,3.09,0,0,0,49.984,69V62.807a.869.869,0,0,0-1.737,0V69A1.351,1.351,0,0,1,46.9,70.35,1.387,1.387,0,0,1,45.547,69V59.573h3.568a.869.869,0,0,0,.869-.869h0V55.052A12.482,12.482,0,0,0,46.813,30.5ZM3.89,65.034a2.152,2.152,0,1,1,2.152-2.152A2.155,2.155,0,0,1,3.89,65.034ZM18.9,52.276a2.152,2.152,0,1,1,2.152-2.152A2.155,2.155,0,0,1,18.9,52.276Zm12.126,7.49a2.152,2.152,0,1,1,2.152-2.152A2.155,2.155,0,0,1,31.021,59.766ZM29.615,41.217A9.851,9.851,0,1,1,39.329,33a12.518,12.518,0,0,0-4.579,6.773A9.786,9.786,0,0,1,29.615,41.217ZM48.247,57.836h-2.7V55.4a12.923,12.923,0,0,0,2.7-.019Zm.695-4.324a10.88,10.88,0,0,1-9.368-2.6L44.7,46.186a3.9,3.9,0,1,0-1.177-1.277L38.389,49.64a10.74,10.74,0,1,1,10.553,3.871Zm-4.2-10.533A2.152,2.152,0,1,1,46.9,45.131,2.155,2.155,0,0,1,44.744,42.979Z" transform="translate(0 0)" fill="#fff"/>
    </g>
  </g>
</svg>
