<svg xmlns="http://www.w3.org/2000/svg" width="96" height="96" viewBox="0 0 96 96">
  <g id="img20" transform="translate(-794.039 -2920.295)">
    <path id="Elipse_5729" data-name="Elipse 5729" d="M48,0A48,48,0,1,1,0,48,48,48,0,0,1,48,0Z" transform="translate(794.039 2920.295)" fill="#9c3413"/>
    <g id="Group_1197535" data-name="Group 1197535" transform="translate(812.688 2921.788)">
      <path id="Path_1019892" data-name="Path 1019892" d="M75.312,142.648H70.859a.86.86,0,0,0-.86.86v4.453a.86.86,0,0,0,.86.86h4.453a.86.86,0,0,0,.86-.86v-4.453A.86.86,0,0,0,75.312,142.648Zm-.86,4.453H71.719v-2.733h2.733Z" transform="translate(-61.972 -109.57)" fill="#fff"/>
      <path id="Path_1019893" data-name="Path 1019893" d="M75.312,218.191H70.859a.86.86,0,0,0-.86.86V223.5a.86.86,0,0,0,.86.86h4.453a.86.86,0,0,0,.86-.86v-4.453A.86.86,0,0,0,75.312,218.191Zm-.86,4.453H71.719v-2.733h2.733Z" transform="translate(-61.972 -176.45)" fill="#fff"/>
      <path id="Path_1019894" data-name="Path 1019894" d="M75.312,293.734H70.859a.86.86,0,0,0-.86.86v4.453a.86.86,0,0,0,.86.86h4.453a.86.86,0,0,0,.86-.86v-4.453A.86.86,0,0,0,75.312,293.734Zm-.86,4.453H71.719v-2.733h2.733Z" transform="translate(-61.972 -243.331)" fill="#fff"/>
      <path id="Path_1019895" data-name="Path 1019895" d="M75.312,369.277H70.859a.86.86,0,0,0-.86.86v4.453a.86.86,0,0,0,.86.86h4.453a.86.86,0,0,0,.86-.86v-4.453A.86.86,0,0,0,75.312,369.277Zm-.86,4.453H71.719V371h2.733Z" transform="translate(-61.972 -310.212)" fill="#fff"/>
      <path id="Path_1019896" data-name="Path 1019896" d="M162.6,237.606H150.179a.86.86,0,0,0,0,1.72H162.6a.86.86,0,1,0,0-1.72Z" transform="translate(-132.197 -193.639)" fill="#fff"/>
      <path id="Path_1019897" data-name="Path 1019897" d="M162.6,313.15H150.179a.86.86,0,1,0,0,1.72H162.6a.86.86,0,1,0,0-1.72Z" transform="translate(-132.197 -260.521)" fill="#fff"/>
      <path id="Path_1019898" data-name="Path 1019898" d="M162.6,388.693H150.179a.86.86,0,1,0,0,1.72H162.6a.86.86,0,1,0,0-1.72Z" transform="translate(-132.197 -327.401)" fill="#fff"/>
      <path id="Path_1019899" data-name="Path 1019899" d="M58.234,22.643,57.2,21.611l.45-.45a.86.86,0,1,0-1.216-1.216l-.45.45-1.032-1.032a1.625,1.625,0,0,0-2.3,0l-1.948,1.948a2,2,0,0,0-.462,2.1l.732,1.991L49.2,27.178A11.873,11.873,0,0,0,37.077,25.1a2.722,2.722,0,0,0-.526-.053h-7.9l-.121-.391a2.662,2.662,0,0,0-2.554-1.882H23.124a3.435,3.435,0,0,0-6.869,0H13.379a2.669,2.669,0,0,0-2.541,1.84L9.7,28.078a2.064,2.064,0,0,0-.073.987H4.873a.86.86,0,0,0-.86.86V68.391a.86.86,0,0,0,.86.86H34.42a.86.86,0,0,0,.86-.86V46.331a11.837,11.837,0,0,0,2.293,1.076V70.523a1.023,1.023,0,0,1-1.022,1.022H2.742A1.023,1.023,0,0,1,1.72,70.523V27.793a1.023,1.023,0,0,1,1.022-1.022H7.234a.86.86,0,1,0,0-1.72H2.742A2.745,2.745,0,0,0,0,27.793v42.73a2.745,2.745,0,0,0,2.742,2.742h33.81a2.745,2.745,0,0,0,2.742-2.742V47.858A11.881,11.881,0,0,0,50.419,28.394l1.775-1.775,1.991.732a2,2,0,0,0,2.1-.462l1.948-1.948a1.627,1.627,0,0,0,0-2.3Zm-6.31-.115L53.8,20.646l.965.965-2.452,2.452-.458-1.245A.278.278,0,0,1,51.924,22.527ZM34.157,26.772a11.989,11.989,0,0,0-2.252,2.293H29.666a2.06,2.06,0,0,0-.066-.955l-.415-1.339ZM11.385,28.923a.337.337,0,0,1-.048-.309l1.136-3.459a.952.952,0,0,1,.906-.656h3.735a.86.86,0,0,0,.86-.86v-.818a1.715,1.715,0,0,1,3.43,0v.818a.86.86,0,0,0,.86.86h3.712a.95.95,0,0,1,.911.672l.307.989.005.016.758,2.444a.343.343,0,0,1-.326.445H11.661A.336.336,0,0,1,11.385,28.923ZM33.56,67.531H5.733V30.785h25.1a11.8,11.8,0,0,0-1.258,4.52h-11.6a.86.86,0,1,0,0,1.72h11.6a11.865,11.865,0,0,0,3.982,8.037ZM51.6,36.165A10.178,10.178,0,1,1,47.983,28.4l-1.629,1.629a7.833,7.833,0,0,0-4.922-1.735,7.924,7.924,0,0,0-7.546,5.627.86.86,0,1,0,1.648.491,6.193,6.193,0,0,1,5.9-4.4,6.12,6.12,0,0,1,3.7,1.239L43.483,32.9A3.864,3.864,0,1,0,44.7,34.114l1.647-1.647a6.149,6.149,0,0,1-4.914,9.85,6.194,6.194,0,0,1-5.9-4.393.86.86,0,1,0-1.648.493A7.873,7.873,0,0,0,49.3,36.165a7.832,7.832,0,0,0-1.735-4.922L49.2,29.614a10.121,10.121,0,0,1,2.4,6.551Zm-8.027,0a2.146,2.146,0,1,1-1.364-1.992l-1.384,1.384a.86.86,0,1,0,1.216,1.216l1.384-1.384A2.125,2.125,0,0,1,43.571,36.165Zm11.5-10.492a.277.277,0,0,1-.291.064l-1.245-.458,2.452-2.452.965.965Z" fill="#fff"/>
    </g>
  </g>
</svg>
