<svg xmlns="http://www.w3.org/2000/svg" width="84" height="84" viewBox="0 0 84 84">
  <g id="img23" transform="translate(-1017 -4728)">
    <rect id="Rectangle_461444" data-name="Rectangle 461444" width="84" height="84" rx="9" transform="translate(1017 4728)" fill="#9c3413"/>
    <path id="Path_1020011" data-name="Path 1020011" d="M20.9,21a6,6,0,1,0-6-6A6.008,6.008,0,0,0,20.9,21Zm0-10.47A4.469,4.469,0,1,1,16.43,15,4.474,4.474,0,0,1,20.9,10.533ZM59.1,22.877H43.27a3.987,3.987,0,0,0-3.982,3.982.766.766,0,0,0,1.533,0,2.452,2.452,0,0,1,2.45-2.45H59.1a2.452,2.452,0,0,1,2.45,2.45V42.229a2.446,2.446,0,0,1-1.421,2.221L58.61,29.583a.766.766,0,1,0-1.525.156l2.1,20.562H43.183l.9-8.826a.766.766,0,1,0-1.525-.156l-.32,3.131a2.458,2.458,0,0,1-1.193-1.2v-2.44l7-9A2.626,2.626,0,0,0,43.9,28.593L37.407,36.94h-2.73l-6.494-8.347a2.626,2.626,0,1,0-4.147,3.224l7,9v2.438a2.475,2.475,0,0,1-2.222,1.426h-.488V41.4a.766.766,0,1,0-1.533,0V61.551H21.665v-16a.766.766,0,0,0-1.533,0v16H15V29.661a.766.766,0,1,0-1.533,0V44.678h-.488a2.452,2.452,0,0,1-2.45-2.45V26.859a2.452,2.452,0,0,1,2.45-2.45H28.814a2.452,2.452,0,0,1,2.45,2.45.766.766,0,0,0,1.533,0,3.987,3.987,0,0,0-3.982-3.982H12.982A3.987,3.987,0,0,0,9,26.859V42.229a3.987,3.987,0,0,0,3.982,3.982h.488V62.318a.766.766,0,0,0,.766.766H27.56a.766.766,0,0,0,.766-.766V46.211h.488a3.967,3.967,0,0,0,2.222-.676V62.318a.766.766,0,0,0,.766.766h8.479a.766.766,0,0,0,.766-.766V45.532a3.968,3.968,0,0,0,1.031.5l-.508,4.962a.766.766,0,0,0,.762.844h1.423V62.318a.766.766,0,0,0,.766.766H57.848a.766.766,0,0,0,.766-.766V51.834h1.423a.766.766,0,0,0,.762-.844l-.507-4.96a3.979,3.979,0,0,0,2.792-3.8V26.859A3.987,3.987,0,0,0,59.1,22.877ZM36.808,61.551v-9.9a.766.766,0,0,0-1.533,0v9.9H32.569v-21a.766.766,0,0,0-.161-.471l-7.161-9.205a1.094,1.094,0,1,1,1.727-1.342L33.7,38.177a.766.766,0,0,0,.6.3h3.479a.766.766,0,0,0,.6-.3l6.724-8.644a1.094,1.094,0,0,1,1.727,1.342l-7.162,9.206a.766.766,0,0,0-.161.471v21Zm8.482-9.717h5.129v9.717H45.29Zm11.791,9.717H51.952V51.834h5.129ZM51.186,21a6,6,0,1,0-6-6,6.008,6.008,0,0,0,6,6Zm0-10.47A4.469,4.469,0,1,1,46.717,15a4.474,4.474,0,0,1,4.469-4.469ZM36.042,35.15a4.1,4.1,0,1,0-4.1-4.1A4.1,4.1,0,0,0,36.042,35.15Zm0-6.663a2.565,2.565,0,1,1-2.565,2.565A2.568,2.568,0,0,1,36.042,28.487Z" transform="translate(1022.958 4733.958)" fill="#fff"/>
  </g>
</svg>
