<svg xmlns="http://www.w3.org/2000/svg" width="150" height="150" viewBox="0 0 150 150">
  <g id="img21" transform="translate(-383.746 -8400)">
    <circle id="Ellipse_13609" data-name="Ellipse 13609" cx="75" cy="75" r="75" transform="translate(383.746 8400)" fill="#b9c296"/>
    <path id="Path_1020154" data-name="Path 1020154" d="M93.739,20a1.689,1.689,0,0,1-1.193-2.881,2.1,2.1,0,0,0,0-2.965L90.681,12.29a2.1,2.1,0,0,0-2.965,0A1.689,1.689,0,0,1,84.836,11.1,2.1,2.1,0,0,0,82.74,9H80.1a2.1,2.1,0,0,0-2.1,2.1,1.689,1.689,0,0,1-2.881,1.193,2.1,2.1,0,0,0-2.965,0L70.3,14.154a2.092,2.092,0,0,0-.6,1.715H36.012a1.23,1.23,0,0,0-.87.36L23.657,27.715a1.23,1.23,0,0,0-.361.87V67.01A14.413,14.413,0,1,0,35.689,88.966H80.308a1.23,1.23,0,0,0,1.23-1.23V37.828h1.2a2.1,2.1,0,0,0,2.1-2.1,1.689,1.689,0,0,1,2.88-1.193,2.1,2.1,0,0,0,2.965,0l1.865-1.864a2.1,2.1,0,0,0,0-2.965,1.689,1.689,0,0,1,1.193-2.88,2.1,2.1,0,0,0,2.1-2.1V22.1A2.1,2.1,0,0,0,93.739,20Zm-58.957.071v7.284H27.5Zm-11.368,73.3A11.953,11.953,0,1,1,35.367,81.421,11.967,11.967,0,0,1,23.414,93.374ZM36.9,86.505A14.406,14.406,0,0,0,25.757,67.2V29.816H36.012a1.23,1.23,0,0,0,1.23-1.23V18.33h33.55a1.83,1.83,0,0,1-.133.627A1.654,1.654,0,0,1,69.1,20a2.1,2.1,0,0,0-2.1,2.1v2.636a2.1,2.1,0,0,0,2.1,2.1A1.689,1.689,0,0,1,70.3,29.709a2.1,2.1,0,0,0,0,2.965l1.864,1.864a2.1,2.1,0,0,0,2.965,0,1.687,1.687,0,0,1,2.881,1.193,2.1,2.1,0,0,0,1.071,1.827V86.505H36.9ZM93.374,24.383a4.152,4.152,0,0,0-2.816,6.8l-1.371,1.37a4.152,4.152,0,0,0-6.8,2.816H80.452a4.15,4.15,0,0,0-6.8-2.816l-1.37-1.37a4.152,4.152,0,0,0-2.816-6.8V22.445a4.152,4.152,0,0,0,2.816-6.8l1.37-1.37a4.152,4.152,0,0,0,6.8-2.816H82.39a4.152,4.152,0,0,0,6.8,2.816l1.371,1.37a4.152,4.152,0,0,0,2.816,6.8ZM81.421,15.741a7.673,7.673,0,1,0,7.673,7.673,7.682,7.682,0,0,0-7.673-7.673Zm0,12.885a5.212,5.212,0,1,1,5.212-5.212A5.218,5.218,0,0,1,81.421,28.626ZM27.286,83.657a1.23,1.23,0,0,1-1.681.45l-1.722-.994a1.755,1.755,0,0,1-1.7-2.944V76.913a1.23,1.23,0,0,1,2.461,0v3.256a1.759,1.759,0,0,1,.469.813l1.722.994a1.231,1.231,0,0,1,.45,1.681ZM39.977,58.165H32.356a1.23,1.23,0,0,0-1.23,1.23v7.621a1.23,1.23,0,0,0,1.23,1.23h7.621a1.23,1.23,0,0,0,1.23-1.23V59.4A1.23,1.23,0,0,0,39.977,58.165Zm-1.23,7.621h-5.16v-5.16h5.16Zm1.23-20.167H32.356a1.23,1.23,0,0,0-1.23,1.23V54.47a1.23,1.23,0,0,0,1.23,1.23h7.621a1.23,1.23,0,0,0,1.23-1.23V46.849A1.231,1.231,0,0,0,39.977,45.619Zm-1.23,7.621h-5.16V48.08h5.16Zm1.23-20.167H32.356a1.23,1.23,0,0,0-1.23,1.23v7.621a1.23,1.23,0,0,0,1.23,1.23h7.621a1.23,1.23,0,0,0,1.23-1.23V34.3A1.23,1.23,0,0,0,39.977,33.073Zm-1.23,7.62h-5.16V35.534h5.16Zm34.963-2.58a1.23,1.23,0,0,1-1.23,1.23H46.114a1.23,1.23,0,1,1,0-2.461H72.479A1.23,1.23,0,0,1,73.709,38.114Zm0,12.546a1.23,1.23,0,0,1-1.23,1.23H46.114a1.23,1.23,0,1,1,0-2.461H72.479A1.23,1.23,0,0,1,73.709,50.66Zm0,12.546a1.23,1.23,0,0,1-1.23,1.23H46.114a1.23,1.23,0,1,1,0-2.461H72.479A1.231,1.231,0,0,1,73.709,63.206ZM18.17,86.665a1.23,1.23,0,0,1,0,1.74l-.423.423a1.23,1.23,0,1,1-1.74-1.74l.423-.423A1.231,1.231,0,0,1,18.17,86.665ZM16,81.421a1.23,1.23,0,0,1-1.23,1.23h-.6a1.23,1.23,0,1,1,0-2.461h.6A1.23,1.23,0,0,1,16,81.421Zm6.185-8.646v-.6a1.23,1.23,0,0,1,2.461,0v.6a1.23,1.23,0,1,1-2.461,0Zm6.474,3.4a1.23,1.23,0,0,1,0-1.74l.423-.423a1.23,1.23,0,1,1,1.74,1.74l-.423.423a1.23,1.23,0,0,1-1.74,0Zm5.232,5.244a1.23,1.23,0,0,1-1.23,1.23h-.6a1.23,1.23,0,1,1,0-2.461h.6A1.23,1.23,0,0,1,33.89,81.421ZM18.17,74.437a1.23,1.23,0,1,1-1.74,1.74l-.423-.423a1.23,1.23,0,0,1,1.74-1.74ZM30.821,87.088a1.23,1.23,0,1,1-1.74,1.74l-.423-.423a1.23,1.23,0,0,1,1.74-1.74Zm-6.177,2.979v.6a1.23,1.23,0,0,1-2.461,0v-.6a1.23,1.23,0,1,1,2.461,0Z" transform="translate(406.328 8421.582)" fill="#4a4e3c"/>
  </g>
</svg>
