<svg xmlns="http://www.w3.org/2000/svg" width="96" height="96" viewBox="0 0 96 96">
  <g id="img29" transform="translate(-794.039 -2920.081)">
    <path id="Elipse_5729" data-name="Elipse 5729" d="M48,0A48,48,0,1,1,0,48,48,48,0,0,1,48,0Z" transform="translate(794.039 2920.081)" fill="#9c3413"/>
    <g id="Group_1196536" data-name="Group 1196536" transform="translate(815.465 2941.544)">
      <path id="Path_1018670" data-name="Path 1018670" d="M113.172,34.09l1.046-1.308-10.1-1.835V29.275a9.416,9.416,0,0,0,3.917-5.349,4.26,4.26,0,0,0,3.765-4.218V11.8a11.716,11.716,0,0,0-20-8.285l-.911.91A6.181,6.181,0,0,0,86.2,10.4v9.3a4.259,4.259,0,0,0,3.765,4.217,9.41,9.41,0,0,0,3.917,5.349v1.671L83.786,32.782l1.046,1.308a5.953,5.953,0,0,0-3.754,5.527V53h35.847V39.616a5.952,5.952,0,0,0-3.754-5.527ZM94.8,27.84l.568-3.978a.855.855,0,0,1,.844-.732h0l5.575.023a.858.858,0,0,1,.84.731l.568,3.955a7.64,7.64,0,0,1-8.4,0Zm13.554-5.716c.018-.235.036-.468.036-.708v-4.11a2.545,2.545,0,0,1-.036,4.818ZM87.907,19.709a2.558,2.558,0,0,1,1.707-2.4v4.11c0,.239.018.473.036.708a2.556,2.556,0,0,1-1.743-2.415Zm1.707-7.92v3.738a4.242,4.242,0,0,0-1.707.789V10.4a4.468,4.468,0,0,1,3.582-4.369l.253-.05L93.01,4.717A10.01,10.01,0,0,1,110.1,11.8v4.522a4.242,4.242,0,0,0-1.708-.79V11.789l-1.059.264A38.388,38.388,0,0,1,99,12.881a38.386,38.386,0,0,1-8.328-.828Zm1.707,9.627V13.931A43.158,43.158,0,0,0,99,14.588a43.15,43.15,0,0,0,7.682-.657v7.485a7.639,7.639,0,0,1-1.947,5.094l-.412-2.867a2.575,2.575,0,0,0-2.524-2.2l-5.574-.023h-.012a2.57,2.57,0,0,0-2.535,2.2l-.413,2.887a7.649,7.649,0,0,1-1.945-5.093ZM99,30.8a9.328,9.328,0,0,0,3.414-.652v1.4a3.519,3.519,0,0,1-6.827,0v-1.4A9.332,9.332,0,0,0,99,30.8ZM94.159,32.63a5.208,5.208,0,0,0,9.687,0l7.252,1.319-3,3.748,2.5,2.5a7.633,7.633,0,0,0-2.208,5.389v5.707H89.614V45.582a7.631,7.631,0,0,0-2.207-5.389l2.5-2.5-3-3.748ZM82.786,39.616A4.262,4.262,0,0,1,85.7,35.568l.245-.082,1.667,2.083-2.623,2.623,1.164,1.164a5.934,5.934,0,0,1,1.75,4.224v5.707H82.786Zm32.433,11.672H110.1V45.582a5.934,5.934,0,0,1,1.75-4.224l1.164-1.164-2.623-2.623,1.667-2.083.245.082a4.262,4.262,0,0,1,2.918,4.048Zm0,0" transform="translate(-72.429 0)" fill="#fff"/>
      <path id="Path_1018671" data-name="Path 1018671" d="M202.785,160.932a.854.854,0,1,1-.853-.854A.853.853,0,0,1,202.785,160.932Zm0,0" transform="translate(-179.625 -142.93)" fill="#fff"/>
      <path id="Path_1018672" data-name="Path 1018672" d="M282.785,160.932a.854.854,0,1,1-.854-.854A.853.853,0,0,1,282.785,160.932Zm0,0" transform="translate(-251.09 -142.93)" fill="#fff"/>
      <path id="Path_1018673" data-name="Path 1018673" d="M233.078,232.078h3.414v1.707h-3.414Zm0,0" transform="translate(-208.211 -207.248)" fill="#fff"/>
      <path id="Path_1018674" data-name="Path 1018674" d="M177.078,432.078h1.707v1.707h-1.707Zm0,0" transform="translate(-158.186 -385.911)" fill="#fff"/>
      <path id="Path_1018675" data-name="Path 1018675" d="M201.078,384.078h1.707v1.707h-1.707Zm0,0" transform="translate(-179.625 -343.032)" fill="#fff"/>
      <path id="Path_1018676" data-name="Path 1018676" d="M289.078,360.078h1.707v1.707h-1.707Zm0,0" transform="translate(-258.237 -321.592)" fill="#fff"/>
      <path id="Path_1018677" data-name="Path 1018677" d="M265.078,400.078h1.707v1.707h-1.707Zm0,0" transform="translate(-236.797 -357.325)" fill="#fff"/>
      <path id="Path_1018678" data-name="Path 1018678" d="M241.078,352.078h1.707v1.707h-1.707Zm0,0" transform="translate(-215.358 -314.446)" fill="#fff"/>
      <path id="Path_1018679" data-name="Path 1018679" d="M185.078,336.078h1.707v1.707h-1.707Zm0,0" transform="translate(-165.332 -300.153)" fill="#fff"/>
      <path id="Path_1018680" data-name="Path 1018680" d="M305.078,448.078h1.707v1.707h-1.707Zm0,0" transform="translate(-272.53 -400.204)" fill="#fff"/>
      <path id="Path_1018681" data-name="Path 1018681" d="M225.078,416.078h1.707v1.707h-1.707Zm0,0" transform="translate(-201.065 -371.618)" fill="#fff"/>
      <path id="Path_1018682" data-name="Path 1018682" d="M257.078,448.078h1.707v1.707h-1.707Zm0,0" transform="translate(-229.651 -400.204)" fill="#fff"/>
      <path id="Path_1018683" data-name="Path 1018683" d="M391.053,208.078a5.975,5.975,0,1,0,5.975,5.975A5.982,5.982,0,0,0,391.053,208.078Zm0,10.242a4.268,4.268,0,1,1,4.268-4.268A4.272,4.272,0,0,1,391.053,218.32Zm0,0" transform="translate(-343.995 -185.809)" fill="#fff"/>
      <path id="Path_1018684" data-name="Path 1018684" d="M396.179,13.734H393.5V.078H391.8V15.441h.738l-2.445,2.935-2.445-2.935h.738V.078h-1.707V13.734H384l6.09,7.308Zm0,0" transform="translate(-343.032)" fill="#fff"/>
      <path id="Path_1018685" data-name="Path 1018685" d="M13.027,158.053a5.975,5.975,0,1,0-5.975,5.975A5.982,5.982,0,0,0,13.027,158.053ZM7.053,162.32a4.268,4.268,0,1,1,4.268-4.268A4.272,4.272,0,0,1,7.053,162.32Zm0,0" transform="translate(-0.963 -135.783)" fill="#fff"/>
      <path id="Path_1018686" data-name="Path 1018686" d="M12.179,7.76H9.5V.078H7.8V9.467h.738L6.089,12.4,3.644,9.467h.738V.078H2.675V7.76H0l6.09,7.308Zm0,0" transform="translate(0 0)" fill="#fff"/>
    </g>
  </g>
</svg>
