<svg xmlns="http://www.w3.org/2000/svg" width="150" height="150" viewBox="0 0 150 150">
  <g id="img31" transform="translate(-383.746 -8400)">
    <circle id="Ellipse_13609" data-name="Ellipse 13609" cx="75" cy="75" r="75" transform="translate(383.746 8400)" fill="#fff"/>
    <g id="Group_1197730" data-name="Group 1197730" transform="translate(411.426 8428.325)">
      <path id="Path_1020411" data-name="Path 1020411" d="M56.685,40.808A18.648,18.648,0,1,0,38.038,59.455,18.675,18.675,0,0,0,56.685,40.808ZM38.038,56.586A15.779,15.779,0,1,1,53.816,40.808,15.8,15.8,0,0,1,38.038,56.586Z" transform="translate(9.287 9.964)" fill="#4a4e3c"/>
      <path id="Path_1020412" data-name="Path 1020412" d="M24.23,25.776H48.586a1.426,1.426,0,0,0,1.434-1.434V21.236a10.507,10.507,0,0,0-6.4-9.716,19.662,19.662,0,0,0-2.322-.8,1.41,1.41,0,0,0-1.449.444l-3.46,3.889-3.579-4.067a1.429,1.429,0,0,0-1.42-.444,15.791,15.791,0,0,0-1.7.532,10.651,10.651,0,0,0-6.876,9.938v3.342a1.411,1.411,0,0,0,1.42,1.42ZM25.664,21a7.736,7.736,0,0,1,5.013-7.246c.192-.074.384-.133.562-.192l2.972,3.386a2.875,2.875,0,0,0,2.189.991,2.926,2.926,0,0,0,2.189-.991l2.795-3.194c.37.118.754.266,1.139.429a7.624,7.624,0,0,1,4.614,7.069v1.671H25.664Z" transform="translate(10.924 4.381)" fill="#4a4e3c"/>
      <path id="Path_1020413" data-name="Path 1020413" d="M34.112,14.393A6.522,6.522,0,1,0,27.59,7.872,6.532,6.532,0,0,0,34.112,14.393Zm0-10.174a3.653,3.653,0,1,1-3.653,3.653,3.661,3.661,0,0,1,3.653-3.653Z" transform="translate(13.213)" fill="#4a4e3c"/>
      <path id="Path_1020414" data-name="Path 1020414" d="M18.372,47.768a1.549,1.549,0,0,0,.444.074,1.454,1.454,0,0,0,1.36-.991L27.7,23.694a1.413,1.413,0,0,0-.089-1.094,1.45,1.45,0,0,0-.828-.71l-2.958-.961A10.534,10.534,0,0,0,12.605,24a17.985,17.985,0,0,0-1.479,1.967,1.449,1.449,0,0,0-.03,1.523l2.632,4.5L8.76,34.134A1.414,1.414,0,0,0,7.9,35.346a17.6,17.6,0,0,0-.03,1.789,10.646,10.646,0,0,0,7.32,9.612ZM10.742,37c-.015-.207-.015-.4-.015-.606l4.141-1.789a2.927,2.927,0,0,0,1.627-1.775,2.959,2.959,0,0,0-.266-2.4L14.054,26.8c.237-.311.488-.636.754-.946a7.628,7.628,0,0,1,8.148-2.2l1.582.518L17.9,44.6l-1.819-.592A7.749,7.749,0,0,1,10.742,37Z" transform="translate(3.768 9.125)" fill="#4a4e3c"/>
      <path id="Path_1020415" data-name="Path 1020415" d="M12.336,24.954a6.442,6.442,0,0,0-3.8-3.239,6.53,6.53,0,0,0-8.222,4.2A6.538,6.538,0,0,0,4.5,34.137a6.358,6.358,0,0,0,2.011.325,6.551,6.551,0,0,0,6.211-4.51A6.455,6.455,0,0,0,12.336,24.954ZM10,29.05A3.652,3.652,0,1,1,3.049,26.8a3.661,3.661,0,0,1,3.475-2.529,3.737,3.737,0,0,1,1.139.177A3.633,3.633,0,0,1,10,29.05Z" transform="translate(0 9.595)" fill="#4a4e3c"/>
      <path id="Path_1020416" data-name="Path 1020416" d="M19.034,41.3a1.444,1.444,0,0,0-1.065-.251,1.427,1.427,0,0,0-.932.577l-1.819,2.514a10.509,10.509,0,0,0-.532,11.623,20.986,20.986,0,0,0,1.4,2.011,1.437,1.437,0,0,0,1.434.5l5.087-1.109.5,5.4A1.423,1.423,0,0,0,24,63.76a17.537,17.537,0,0,0,1.7.577A10.609,10.609,0,0,0,37.12,60.344l1.967-2.706a1.444,1.444,0,0,0,.251-1.065,1.427,1.427,0,0,0-.577-.932ZM34.769,58.629a7.745,7.745,0,0,1-8.326,2.913l-.577-.177-.414-4.5A2.909,2.909,0,0,0,21.918,54.3l-4.126.946c-.222-.325-.458-.665-.665-1.006a7.623,7.623,0,0,1,.414-8.429l.976-1.346L35.893,57.091Z" transform="translate(6.315 18.998)" fill="#4a4e3c"/>
      <path id="Path_1020417" data-name="Path 1020417" d="M20.893,55.072a6.527,6.527,0,1,0,1.434,9.109,6.525,6.525,0,0,0-1.434-9.109ZM20.021,62.5A3.644,3.644,0,0,1,17.64,63.96a3.589,3.589,0,0,1-2.721-.651,3.653,3.653,0,1,1,5.1-.813Z" transform="translate(5.048 25.127)" fill="#4a4e3c"/>
      <path id="Path_1020418" data-name="Path 1020418" d="M56.6,57.845a15.075,15.075,0,0,0,1.065-1.434,10.624,10.624,0,0,0-.281-12.082l-1.967-2.706a1.427,1.427,0,0,0-.932-.577,1.444,1.444,0,0,0-1.065.251l-19.7,14.315a1.427,1.427,0,0,0-.577.932,1.444,1.444,0,0,0,.251,1.065l1.819,2.514a10.665,10.665,0,0,0,8.533,4.392,9.739,9.739,0,0,0,2.351-.281,18.932,18.932,0,0,0,2.351-.71,1.413,1.413,0,0,0,.917-1.213l.518-5.191,5.279,1.2a1.471,1.471,0,0,0,1.434-.473Zm-6.063-3.52A2.909,2.909,0,0,0,47,56.9l-.384,4.215c-.37.118-.769.222-1.168.325a7.649,7.649,0,0,1-7.9-3l-.976-1.346L53.952,44.462,55.076,46a7.751,7.751,0,0,1,.207,8.814c-.118.163-.222.325-.34.488Z" transform="translate(15.864 18.998)" fill="#4a4e3c"/>
      <path id="Path_1020419" data-name="Path 1020419" d="M47.332,55.072a6.522,6.522,0,1,0,9.095,1.449,6.525,6.525,0,0,0-9.095-1.449Zm7.438,5.856A3.653,3.653,0,0,1,48.2,62.5a3.653,3.653,0,1,1,5.915-4.289,3.559,3.559,0,0,1,.651,2.721Z" transform="translate(21.376 25.127)" fill="#4a4e3c"/>
      <path id="Path_1020420" data-name="Path 1020420" d="M61.465,34.053l-4.762-2.1,2.765-4.658a1.435,1.435,0,0,0-.015-1.479,15.882,15.882,0,0,0-1.035-1.464,10.639,10.639,0,0,0-11.579-3.475L43.66,21.912a1.437,1.437,0,0,0-.917,1.8L50.27,46.874a1.406,1.406,0,0,0,.71.828,1.461,1.461,0,0,0,.651.163,1.549,1.549,0,0,0,.444-.074l2.958-.961a10.484,10.484,0,0,0,7.261-9.08,17.122,17.122,0,0,0,.044-2.455,1.427,1.427,0,0,0-.872-1.242Zm-2.026,3.475a7.623,7.623,0,0,1-5.294,6.581l-1.582.518-6.64-20.437,1.819-.592a7.75,7.75,0,0,1,8.444,2.529c.118.163.251.311.37.473l-2.307,3.874a2.913,2.913,0,0,0,1.36,4.17l3.9,1.671c-.03.4-.044.8-.074,1.213Z" transform="translate(20.434 9.103)" fill="#4a4e3c"/>
      <path id="Path_1020421" data-name="Path 1020421" d="M67.905,25.9a6.528,6.528,0,0,0-12.422,4.022,6.551,6.551,0,0,0,6.211,4.51,6.358,6.358,0,0,0,2.011-.325,6.5,6.5,0,0,0,4.2-8.207Zm-5.072,5.5a3.659,3.659,0,0,1-2.248-6.965,3.737,3.737,0,0,1,1.139-.177A3.661,3.661,0,0,1,65.2,26.79,3.684,3.684,0,0,1,62.833,31.4Z" transform="translate(26.415 9.592)" fill="#4a4e3c"/>
    </g>
  </g>
</svg>
