<svg xmlns="http://www.w3.org/2000/svg" width="150" height="150" viewBox="0 0 150 150">
  <g id="img30" transform="translate(-383.746 -8400)">
    <circle id="Ellipse_13609" data-name="Ellipse 13609" cx="75" cy="75" r="75" transform="translate(383.746 8400)" fill="#fff"/>
    <g id="Group_1197729" data-name="Group 1197729" transform="translate(413.896 8433.582)">
      <path id="Path_1020408" data-name="Path 1020408" d="M88.078,37.512,81.35,31.4V10.643a4.215,4.215,0,0,0-2.037-7.905H67.5a4.215,4.215,0,0,0-2.038,7.905v6.343L48.175,1.289a4.927,4.927,0,0,0-6.648,0L1.622,37.512A4.945,4.945,0,1,0,8.27,44.836l.08-.073V80.21H6.265a1.314,1.314,0,0,0,0,2.628h77.17a1.314,1.314,0,0,0,0-2.628H81.35V61.916a1.314,1.314,0,1,0-2.628,0V80.21H10.978V42.377L44.85,11.631,78.722,42.377V55.784a1.314,1.314,0,1,0,2.628,0V44.763l.08.073a4.946,4.946,0,1,0,6.648-7.324ZM67.5,5.366H79.312a1.588,1.588,0,1,1,0,3.175H67.5a1.588,1.588,0,0,1,0-3.175Zm.591,14v-8.2H78.722v17.85L70.6,21.648ZM86.47,42.731a2.316,2.316,0,0,1-3.273.158L45.733,8.883a1.313,1.313,0,0,0-1.766,0L6.5,42.889a2.317,2.317,0,0,1-3.115-3.431l39.9-36.223a2.309,2.309,0,0,1,3.115,0l39.9,36.223a2.316,2.316,0,0,1,.158,3.273Zm0,0" transform="translate(0)" fill="#4a4e3c"/>
      <path id="Path_1020409" data-name="Path 1020409" d="M213.65,148.438h9.2a3.42,3.42,0,0,0,3.416-3.416v-9.2a3.42,3.42,0,0,0-3.416-3.416h-9.2a3.42,3.42,0,0,0-3.416,3.416v9.2A3.42,3.42,0,0,0,213.65,148.438Zm-.788-3.416v-3.287h4.076v4.075H213.65A.8.8,0,0,1,212.862,145.022Zm9.992.788h-3.288v-4.075h4.076v3.287A.8.8,0,0,1,222.854,145.81Zm.788-9.991v3.287h-4.076v-4.075h3.288A.8.8,0,0,1,223.642,135.819Zm-9.992-.788h3.288v4.075h-4.076v-3.287A.8.8,0,0,1,213.65,135.031Zm0,0" transform="translate(-173.402 -109.207)" fill="#4a4e3c"/>
      <path id="Path_1020410" data-name="Path 1020410" d="M163.212,262.225c0-.137,0-.276,0-.419a11.323,11.323,0,0,0-1.52-6.481,6.849,6.849,0,0,0-3.015-2.254l-3.852-1.491v-1.274a7.211,7.211,0,0,0,2.563-5.513v-4.674a7.3,7.3,0,0,0-13.4-4.044,8.312,8.312,0,0,0-12.46,0,7.3,7.3,0,0,0-13.4,4.045v4.674a7.112,7.112,0,0,0,2.705,5.624v1.163l-4,1.55a4.879,4.879,0,0,0-2.588,2.347A10.067,10.067,0,0,0,113.168,260v1.8a2.764,2.764,0,0,0,2.761,2.761h6.629c0,.06,0,.119,0,.179v2.916a2.515,2.515,0,0,0,2.512,2.512h10.058a1.314,1.314,0,1,0,0-2.628h-9.943v-2.8A5.521,5.521,0,0,1,127.91,260a21.8,21.8,0,0,1,3.031-1.25c.611.673,1.292,1.417,2.032,2.221a6.5,6.5,0,0,0,9.572,0c.764-.832,1.459-1.592,2.076-2.27l2.212.856a5.519,5.519,0,0,1,3.5,5.11v2.868h-9.075a1.314,1.314,0,1,0,0,2.628h9.191a2.515,2.515,0,0,0,2.512-2.512V264.67c0-.037,0-.074,0-.112h7.92a2.335,2.335,0,0,0,2.333-2.333Zm-9.862-8.405c-1.046,1.144-1.7,2.078-3.268,2.078s-2.224-.935-3.227-2.033c0,0-1.071-.252,5.346-2.139V252a2.027,2.027,0,0,0,1.15,1.817Zm-11.518-10.991c.938,1,1.4,1.488,1.66,1.782v2.553a5.734,5.734,0,0,1-11.465,0v-1.656a18.35,18.35,0,0,0,9.806-2.68Zm11.68-1.475c.623.667,1.051,1.118,1.251,1.341v2.1a4.6,4.6,0,0,1-4.6,4.6,4.7,4.7,0,0,1-4.049-2.13c0-.063,0-3.624,0-3.687a15.987,15.987,0,0,0,7.393-2.217Zm-10.381,13.954,1.1-.425q.56.616,1.2,1.314l-2.3-.889Zm-12.948-3.728v-.888a8.045,8.045,0,0,0,.657,1.142Zm15.295,0-.868.337a8.275,8.275,0,0,0,.847-1.51l.022.018Zm-14.149,3.262,1.215.471L130,256.3q.717-.781,1.332-1.458ZM145.6,238.758a4.67,4.67,0,0,1,8.961-.008c-1.967-1.123-2.831,1.935-8.473,2.19A8.666,8.666,0,0,0,145.6,238.758Zm-7.768-2.863a5.749,5.749,0,0,1,5.569,4.763,1.957,1.957,0,0,0-2.529-.331,15.655,15.655,0,0,1-8.846,2.552v-1.207a5.759,5.759,0,0,1,5.806-5.777ZM125.5,235.4a4.707,4.707,0,0,1,4.419,3.349c-2.016-1.146-3.2,2.291-9.16,2.2v-.835A4.7,4.7,0,0,1,125.5,235.4Zm-4.741,8.184a15.862,15.862,0,0,0,8.111-2.23l.532.568c0,.067,0,5.267,0,5.335-2.427,3.811-8.644,2.225-8.644-2.464Zm6.8,8.141a2.048,2.048,0,0,0,1.15,2.094c-1.044,1.144-1.7,2.077-3.269,2.078s-2.224-.936-3.227-2.033A2,2,0,0,0,123.46,252v-.257a7.637,7.637,0,0,0,4.095-.021ZM115.8,261.8V260a7.422,7.422,0,0,1,.8-3.333,2.253,2.253,0,0,1,1.194-1.084l1.8-.7q.74.814,1.639,1.791a5.741,5.741,0,0,0,4.216,1.851h.018a8.086,8.086,0,0,0-2.4,3.405H115.93a.134.134,0,0,1-.133-.133Zm21.962-1.351c-1.992,0-2.807-1.2-4.19-2.713a2.962,2.962,0,0,0,.678-.316,2.421,2.421,0,0,0,.959-2.387,8.719,8.719,0,0,0,5.273-.032,3.623,3.623,0,0,0,.114,1.318,2.171,2.171,0,0,0,1.4,1.369C140.606,259.205,139.765,260.447,137.758,260.447Zm22.828,1.341c0,.048,0,.1,0,.142h-8.1a8.069,8.069,0,0,0-2.343-3.407,5.74,5.74,0,0,0,4.156-1.849c.614-.667,1.174-1.28,1.677-1.833l1.756.68a4.463,4.463,0,0,1,1.764,1.246,8.735,8.735,0,0,1,1.092,5.021Zm0,0" transform="translate(-93.342 -191.991)" fill="#4a4e3c"/>
    </g>
  </g>
</svg>
