<svg xmlns="http://www.w3.org/2000/svg" width="292" height="226" viewBox="0 0 292 226">
  <g id="img3" transform="translate(-185 -2024)">
    <rect id="Rectangle_461454" data-name="Rectangle 461454" width="292" height="226" rx="20" transform="translate(185 2024)" fill="#9c3413"/>
    <g id="Group_1188294" data-name="Group 1188294" transform="translate(21.542 889.091)">
      <path id="Path_1012713" data-name="Path 1012713" d="M317.49,1202.858l.032.035h.081l.039-.074-.025-1.6.095-1.573.211-1.538.334-1.51h0l.528-1.689.686-1.647.641-1.182.764-1.088.876-.979.982-.852,1.024-.679,1.1-.528,1.123-.356,1.176-.187,1.007-.018,1.035.113.7.176.655.275h0l.556.338.51.422.472.507.426.591.222.123h3.115l.183-.046.141-.127.824-1.017.968-.81h0l.964-.542,1.08-.384,1.186-.222,1.3-.063,1,.063.936.162.9.26.841.355,1.267.774,1.147,1.028,1.017,1.288.866,1.513.714,1.76.542,1.936.359,2.108.162,2.161.2,5.8.222,3.337.208,1.362.32,1.306.426,1.25.538,1.193h0l.95,1.594.035.19-.12.155-.025.01-.961.331-.968.24-.957.144-.95.042-.911-.06-.887-.162-.827-.257-.788-.355-.788-.486-.736-.605-.658-.7-.6-.813-.084-.095-.172-.084h-.2l-.172.088-.116.158-.5,1.073-.57.975-.637.88-.7.788-1,.824-1.531.922-.331.187-.144.158-.018.215.176.711.1.172.176.095,3.065.711,2.157.626,1.693.686,1.654.88,1.556,1.049,1.5,1.235,1.418,1.408,1.341,1.587,1.228,1.721,1.133,1.873.179.19.246.074,16.214,1,1.675.211,1.527.408,1.38.6,1.225.8h0l.94.841.831.986.714,1.133.605,1.278.707,2.031.5,2.126.3,2.217.095,2.316-.1,4.466-.3,5.04-.482,5.617-.732,6.874.028.176.116.134,4.955,3.344.5.5.289.415.25.229,1.014.51,1.024.4,1.038.289,1.052.179h0l1.147.07,1.165-.056,1.183-.19,1.193-.313,11.509-3.516.929-.215,1.2-.19,1.1.01,1.066.268.4.193.345.253.253.278.172.331.081.363-.018.412-.222,1.038-.363,1.123-.479,1.147-.609,1.211-.746,1.278-.866,1.313-.992,1.366-1.088,1.369-2.988,3.5-3.122,3.4-1.316,1.352-1.038.972-.985.8-.95.641-.94.486-.9.32-.915.162-.869-.007-1.073-.243-1.028-.489-1.482-.972-1.394-1.077h0l-1.32-1.2-1.228-1.309-1.137-1.418-1.049-1.524-.31-.4-.422-.394-1.165-.774-.179-.025-.148.1-.327.394-.408.362-.5.328-.581.3-.222.172-.12.25-.028.127-.538,2.26-.507,1.514-.637,1.267-.81,1.052-.968.841-1.161.679-.141.12-.063.172-.37,3.854.063.433.257.352,3.4,2.879.141.186.046.229.028.239.13.289.229.243.338.222.408.179,1.151.268,1.158.046,1.848-.356,2.428-.75,10.741-3.674,1-.257.891-.091.778.078.672.232.5.317.468.45.07.091.165.394.025.507-.127.588-.257.644-1.239,2.411-1.38,2.323h0l-1.619,2.372-1.781,2.274-2.179,2.517-2.538,2.749-.553.591-2.5,2.545-1.014.884-.964.725-.943.577-.9.412-.9.26-.841.091-.542-.046-.595-.162-.651-.271-.707-.387-1.059-.7-1.049-.831-.989-.908-.975-1.035-.926-1.119-.894-1.232-.869-1.348-.827-1.44-.19-.229-.264-.141-.3-.032-.289.084-2.379,1.225-.313.056-.289-.134-1.446-1.2-.605-.352-.591-.24-.732-.162-.658-.158-.493-.282-.268-.275-.215-.338-.359-.979-.306-.62-.57-.595-5.24-4.28-2.918-2.193-.018-.01-.123,0-.084.091-.257.531-.366.4-.317.2-.127.116-.039.169.208,1.323.429,1.439.648,1.531.757,1.369.306.472.943,1.478.707,1.235.538,1.1.384,1,.225.908.063.785-.1.672-.275.591-.341.38-.464.313-.56.229-.693.158-1.327.113-1.365-.06-1.408-.225-1.383-.384-1.327-.531-1.235-.669-1.087-.767-.94-.873-2.2-2.312-1.908-1.89-.588-.644-.56-.788-.222-.514-.088-.616.025-.742.141-.876.26-.993.366-1.091,1.123-2.668.014-.215-.123-.172-.739-.5-.215-.084-.229.007-40.143,9.929-.218.134-.464,1.01-.525.957-.7.753-.9.626-1.126.517-1.679.567-1.2.391-.158.113-.07.183-.545,5.41-.848,6.916-.151.584-.289.465h0l-.257.239-.317.19-.806.229-1.475.116-1.457-.042-1.168-.194-.9-.341-.436-.394-.211-.545-1.7-12.055-.095-.19-.19-.095-53.214-7.919-.1.028-.049.088h0l-1.285,13.378-.165.422-.366.268-1.545.415-1.549.137h0l-.785-.039-.785-.109-1.57-.433-.155-.081-.19-.194-.123-.257-.134-.823-.007-.067-.746-8.915-.574-7.74-.134-.482-.436-.94-.317-.859-.194-.778-.077-.693-.229-8.166-.278-7.346-.331-6.526-.383-5.7-.676-8.24-.852-9.352-.38-3.252-.553-3.555-.725-3.861-.9-4.164-.2-.883-2.161-9.581-1.468-6.941-1.218-6.413-1.01-6.107-.352-2.587-.218-2.274-.1-2.112.017-1.992.141-1.88.264-1.792.387-1.682.507-1.591.943-2.179.542-.992.584-.929.644-.887.69-.82.736-.76.774-.7,1.13-.855,1.2-.743,1.309-.648,1.383-.538,1.468-.433,1.538-.327,1.64-.229,1.707-.12,19.03-.817.169-.06.113-.137.444-1.218.067-.179.475-1.007.669-1,.89-1.063,1.464-1.535,1.383-1.436.268-.306.605-.926.436-1.038.292-1.2.155-1.4.176-2.224.246-1.876.338-1.732.447-1.619.771-2,1-1.894,1.2-1.725,1.4-1.545,1.531-1.3,1.633-1.038.862-.422.9-.363.894-.282.922-.218.989-.151,1.017-.07.32-.092.887-.447.774-.246,1.813-.275,1.777-.1,1.735.084,1.7.268h0l1.5.4,1.461.542,1.432.69,1.4.838,1.622,1.214,1.482,1.411,1.285,1.552,1.088,1.7.848,1.77.584,1.792.338,1.851.063,1.82-.106,1.313-.218,1.274-.313,1.151-.408,1.031-.5.9-.57.739-.676.616-.725.44-.194.088-.155.123-.067.187-.169,1.7-.25,1.637-.327,1.577-.412,1.517-.007.032.049.162.158.07,6.55-.021,5.79.116,2.259.137,2.133.257,2,.373,1.865.493,1.777.623,1.651.736,1.58.88,1.454,1,1.714,1.45,1.545,1.647.919,1.147,1.116,1.566,1.017,1.637.922,1.707.827,1.785.693,1.967.7,1.974m-71.081,4.868.7,1.535.415.7.57.556.6.486,1.042.648,1.176.507,1.267.348,1.383.2,1.517.06,1.647-.084,1.795-.222,2.112-.384,1.271-.369,1.647-.672.535-.285.528-.373.461-.415.4-.468.278-.447.194-.468.084-.447-.01-.457-.239-.687-.239-.292-.788-.648-1.095-.922-.648-.76-.588-1.126-.3-1.141-.028-1.077.2-1.13.422-1.221.781-1.7.82-1.781.144-.507.155-1.619-.1-1.492-.246-1.095-.412-1.123-.581-1.221-.982-1.777-.352-.626-.415-.862h0l-.32-.972-.19-1.024-.063-1.077.067-1.126-.046-.187-.162-.113-.82-.257-.718-.341-.612-.429-.51-.514h0l-.461-.7-.32-.813-.144-.63-.063-.619.014-.6.088-.567.162-.514.232-.468.3-.412.376-.345.549-.32.658-.194.714-.056.806.088.06.018,1.323.6.253.032.229-.113,1.3-1.334,1.144-1.38,1.017-1.461.841-1.478.683-1.531.507-1.524.348-1.587.172-1.566.116-.3.046-.039.208-.063.179.12.7.9,1.084,1.362.8.8,1.158.873,1.235.732h0l.862.4.9.341,1.89.489.947.165,1.524.306.535.187.433.222.493.363.046.028.148-.014.07-.13-.028-1.014-.134-.947-.243-.884-.356-.813-.464-.616-.633-.429-2.6-1.2-1.07-.662-1.239-1.059-.067-.116.01-.134.046-.106.12-.109.162.028.028.025.929.859,1.01.739h0l1.411.774,1.545.57.278.12.239.187.468.542.373.591h0l.26.591.179.634.1.679.021.718-.109,2.017-.218,1.792-.225,1.753-.19,2.393-.042.574.074.179.19.046.063-.028.01-.007.5-.37.454-.422.422-.5.366-.553.612-1.306.412-1.517.2-1.749-.025-1.851-.25-1.855-.461-1.679-.468-1.154-.549-1.095-.641-1.059-.714-.992-.929-1.077-1.024-.985-1.137-.9-1.225-.806-1.306-.7-1.383-.595-1.446-.489-1.51-.38-1.176-.2-1.179-.095h0l-1.5.025-1.5.187-1.506.348-1.513.51-.348.081-.978.12-.943.187-.936.26-.9.327-.89.4-.852.465-.834.549-.788.605-.753.672-.7.725-1.306,1.651-1.123,1.872-.933,2.08-.707,2.224-.461,2.291-.218,2.474-.155,1.964-.236,1.376-.384,1.2-.56,1.063-.4.553-.486.531-.415.412-1.936,1.964-1.221,1.468-.89,1.429-.32.707-.253.743-.229,1.161-.063,1.271.088,1.408.275,1.922.275,2,.014.75-.179,1.189-.433,1.2-.679,1.256-1.144,1.686-1.172,1.732-.718,1.316-.479,1.281-.232,1.278-.021.707.053.739.165.9.26.817.356.743.454.665h0l.461.5.711.616.845.616.852.531.834.437.771.31.69.187.619.074.574-.049.056-.014.3-.215.232-.419.236-.493.373-.581.077-.222L247,1210l-.475-1.179-.222-1.067.084-.053.021.025m34.562-38.813-.313-.482-.4-.32-.352-.127-2.639-.662-2.062-.725-1.77-.887-.785-.514-.753-.581-1.179-1.133-1.038-1.316-.109-.056-.106.063h0l-.018.049-.232,1.415-.334,1.362-.436,1.316-.542,1.264h0l-.9,1.636-1.087,1.545-1.278,1.454-1.464,1.366-.1.148,0,.172.088.366-.039.148-.144.042-.063-.028-1.091-.823-.658-.341-.637-.176-.633-.014-.581.144-.373.194-.331.26-.285.324-.232.38-.176.429-.109.472-.025.975.218,1,.454.88.556.62.686.486.82.376.989.268.095.053.042.148-.113.831-.035.817.039.8.116.785.19.753.26.736.334.725.408.707,1.2,2.087.433.94.331.887.246.862.165.876.07.841-.018.855-.2,1.292-.412,1.26-.018.331.2.268,1.14.669,1.151.5,1.165.341,1.179.179h0l1.517-.007,1.538-.275.764-.253.637-.331.51-.408.384-.486h0l.218-.447.134-.493.056-.542-.028-.595-.035-.148L274,1191.464l-.246-.327-.38-.158-1.01-.162-.978-.232-.947-.3-.915-.37h0l-1.035-.525-1-.616-.95-.718-.908-.81-.078-.141.01-.148.084-.12.134-.056.144.018,1.059.605.894.535,1.946.8,2,.535h0l1.58.236,1.186-.014.549-.113.521-.176h0l.56-.289.521-.38.482-.468.444-.556.862-1.313.736-1.327.626-1.369.5-1.387.345-1.253.26-1.271.172-1.323.088-1.348.095-1.869.141-1.345.141-1.45.042-1.785-.049-.26-.144-.225-.215-.155-.257-.067-.964.046-1.059.253-.088,0-.116-.113.039-.158.545-.56.155-.106.187-.032,1.109.042.13-.056.035-.137h0l-.014-.035m.092-.664.781,1.355h0l.007,0h0l.176-.166.095-.236,0-.271-.095-.264-.06-.1-.179-.218-.236-.137-.25-.035-.232.071-.007,0v0m-.349,15.5-.088-.109-.137.018h0l-.042.049-1.422,2.583-1.154,1.844-.482.6-.538.479-.729.419-1,.37-.56.19-.077.042-.095.225.123.208.549.275.732.243.8.169.781.081,1.387.141,1.306.292.179-.01.134-.116.574-1.141.394-1.13.215-1.123.039-1.116h0l0-.084-.13-.813-.331-1.08-.426-1.506m36.415,27.5.144-7.25-.042-.3-1.457-4.083-.883-2.055-1.08-2.024-1.256-1.932-1.38-1.777-1.5-1.616-1.587-1.415-1.689-1.235-1.738-1.01-1.2-.546-1.387-.51-1.57-.472-1.753-.433-1.2-.222-1.436-.169-3.572-.2-5.55-.071-5.444.074-.148.074-.039.162.014.039.4,1.021.26,1.01.123,1-.014.989h0l-.116.817-.215.806-.306.8-.4.792-.014.025-.007.288.208.2,1.89.806,1.788.982,1.851,1.288,1.753,1.527,1.71,1.816,1.707,2.143,2.277,3.2,2.126,3.234,2.305,3.769.151.144.208.042,3.358-.229,2.453-.049,1.806.06,10.206.725h.007l.179-.067.077-.176m-75.206-25.618-1.288,0-1.816.113-1.394.088-15.06.626-1.439.106-1.4.2-1.323.289-1.281.38-1.221.468-1.168.567-1.084.648-1.031.739-.929.8-.869.883-.792.95-.732,1.038-.707,1.189-.767,1.573-.626,1.676-.472,1.735-.334,1.837-.194,1.929-.053,2.031.081,2.175.218,2.313.584,4.364.711,4.421.834,4.481.964,4.537,4,18,.672,3.252.538,2.964.4,2.679.264,2.386,1.5,17.852.352,4.977.317,6.071.282,7.173.246,8.271.127,1.9.26,1.246.429.936.612.9.746.792.915.729,1.042.626,1.179.521,1.249.391,1.253.24,16.629,2.414,38.07,5.656,4.079.574,1.82.134,1.689-.109,2.949-.472,2.228-.486,1.834-.577,1.51-.686.655-.422.574-.5h0l.637-.785.493-.922.359-1.056.215-1.2.489-5.272.2-4.931.091-12.2-.053-11.344-.2-10.492-.341-9.637-.239-3.249-.113-.433-.81-1.8-.778-1.274-.8-.936-1.112-1.028-.975-.735-.971-.542-1.3-.475-1.556-.31-4.6-.605-4.519-.514-4.255-.4-3.885-.275-5.55-.394-5.972-.553-1.4-.053-1.348.084-5.585.63-5.283.4-1.651.056-1.619-.028-1.587-.113-1.552-.2-1.542-.341-1.362-.524-1.119-.686-.943-.873-.619-.852-.493-1.01-.338-1.095-.2-1.242-.063-1.359.074-1.482.211-1.644.348-1.788.968-3.938,1.2-4.2,1.482-4.593,2.256-6.568.162-.468,0-.2-.134-.148-1.274-.76-1.042-.81-.82-.873-.619-.936-.5-1.218-.264-1.334-.021-1.316.225-1.281.464-1.285.707-1.323,1.154-1.749,1.14-1.724.686-1.292.44-1.242.2-1.232-.06-1.32-.278-2.112-.151-1.711-.021-1.3.106-.9,0-.021-.049-.176-.165-.081m103.616,27.993.567.69.588.581.644.5.672.394.612.264.63.2,1.408.215,1.63-.028,1.925-.267.046-.014.13-.144-.028-.2-.584-.964-.525-1.1-.436-1.161-.366-1.274-.289-1.362-.211-1.439-.134-1.538-.053-1.58-.084-4.178-.183-3.182-.215-1.64-.341-1.524-.479-1.457-.591-1.3-.714-1.172-.806-1-.911-.848-1.042-.711-.862-.426-.94-.331-.982-.222-1.052-.12-1.422.035-1.344.275h0l-.359.12-.672.3-.658.4-.648.51-.63.62-.084.271.162.232h0l.07.028,1.767.493,1.517.51,1.376.655,1.239.8,1.095.936h0l1,1.134.848,1.288.693,1.447.538,1.6.229.961.151.957.077.954,0,.95h0l-.088,1.081-.183,1.073-.282,1.07-.376,1.07-.01.144.07.127.535.612.376.644.239.7.081.7-.035.517-.116.507-.194.486-.264.461-.327.415-.387.376-.447.334-.5.285-.014.007-.077.116.032.134M331.93,1190.2l.028-.007.1-.095-.014-.137-.528-.732-.626-.56-.567-.331-.63-.236-.718-.148-.781-.053-1.218.078-1.147.243-1.158.437-1.07.6-1.017.781-.915.922-.852,1.109-.725,1.214-.616,1.344-.479,1.4-.5,1.968-.222,1.429-.57,9.489-.014,2.478.215,2.446h0l.26,1.6.363,1.584.081.165.144.12.176.053.186-.021h0l.032-.014,1.3-.7,1.116-.891.545-.588.489-.648.426-.707.37-.771.046-.447-.165-.63-.2-.179-.581-.183-.528-.25-.468-.31-.4-.363-.331-.4-.257-.443-.169-.475-.081-.5.018-.535.13-.549.232-.517.341-.51.507-.44.225-.172.116-.158.021-.193-.243-2.066-.032-1.939.176-1.82.387-1.7.528-1.4.711-1.341.876-1.246,1.031-1.126,1.116-.936,1.228-.778,1.3-.581,1.316-.363,1.682-.271m-5.388,10.63-.838.229-.57.218-.464.282-.327.331-.26.475-.144.623-.366,2.8-.183,1.506.01,1.658.194,1.813.391,2.038.394,1.26.584,1.172.771,1.091.929.964,1.08.831,1.19.665,1.246.468,1.309.282,1.552.144,1.475.007,1.436-.127,1.32-.26,1.235-.4,1.1-.51,1-.641.9-.785.577-.648.521-.729.443-.778.377-.855.436-1.123.123-.13.179-.014.633.18.359,0,.651-.289.419-.289.363-.345.3-.387.236-.426.165-.45.088-.468,0-.475-.084-.475-.285-.658-.493-.606-.338-.148-.348.1-.553.443-.3.345-.106.109-.144.042-.148-.032-.113-.1h0l-.049-.13-.035-3.294-.046-.869-.155-.961-.253-.982-.356-1.056-1.028-2.3-1.475-2.619-.025-.032-.137-.049-.127.078-.7.985-.774.855-.845.729-.919.6h0l-1.116.521-1.2.355-1.3.2-1.383.035-.352-.13-.451-.37-.137-.071-.155.025-1.721.739-1.946.542-.472.046-.26-.12h0l-.049-.141.018-.194.992-.229.957-.3.911-.373.873-.443h0l.908-.567.855-.651.81-.736.764-.823.141-.243.077-.331-.035-.908.035-.243.169-.179.134-.081.183-.014.123.137h0l.007.049-.035.718-.151.63-.3.623-.461.616-.648.63-1,.823-.37.292-.042.042-.049.225.144.179.609.2.686.049.894-.07.869-.144.81-.208.774-.281.725-.352.679-.422.6-.475.549-.546.415-.51,1.091-1.373.039-.039.3-.081.253.172,1.637,2.893,1.172,2.548.517,1.616.179.933.116,1.024L345,1207.7l.007.046.1.113.151-.014.577-.493.345-.517.232-.616.334-1.566.172-1.6v-1.573l-.169-1.559-.334-1.45-.5-1.394-.665-1.3-.8-1.154-.651-.722-.746-.658-.845-.616-.971-.581-1.038-.51-1.126-.454-1.144-.356-1.112-.257-1.123-.077-2.175,0-1.077.081-1.242.211-1.281.324-.975.349-1.344.711-1.2.834-1.084.975-.929,1.084-.764,1.151-.612,1.232-.475,1.334-.317,1.394-.155,1.443,0,1.482.162,1.5.327,1.517.056.095.208.056.151-.155.289-1.39.2-1.672.2-.873.183-.359.236-.313h0l.341-.3.415-.229,1.281-.591,1.035-.563.841-.563.757-.63.964-1.063.891-1.338.162-.067.116.035.13.109,0,.165-.007.018-.507.848-.56.729-.658.69-.8.7-1.133.866-.806.609m-62.483-3.707-.556,1.165-.021.232.134.19,1.225.757,1.228.612,1.267.5,1.235.338,1.235.2,1.179.053,1.158-.091,1.151-.243.472-.148,1.147-.51.957-.676.785-.841.563-.972.338-1.1.081-1.19-.179-1.211-.447-1.242-.426-.605-.605-.429-.419-.2-.155-.035-.176.046-.134.123-.056.172.032.179.5,1.32.239,1.189-.028,1.056-.113.482-.179.447h0l-.507.75-.739.634-1.028.556-1.183.366-1.256.162-1.355-.039-1.411-.253-1.344-.447-1.221-.612-1.049-.753-.025-.018L264.2,1197l-.137.12m-1.035,45.862.081.095v.179l-.007.025.042.158.148.078,8.429.521.215-.074.1-.208h0l.162-.8h0l.282-.535.419-.482.088-.018.06.067-.007.049-.662,1.566.01.282.222.176.056.007,2.9.179.053-.01.056-.084-.042-.095-.338-.3-.327-.394-.634-1.073-.07-.078h-.19l-.091.165.046.359.123.313.211.281.3.236.162.183.014.063h0l-.063.253-.123.074-.127-.063h0l-.025-.056-.081-.264-.162-.289-.268-.313-.373-.507-.2-.683.021-.521.007-.039-.056-.1-.116-.018-2.773.957-.348.071-1.418.032-1.475-.12-1.527-.271-1.58-.422-.01,0-.134.025-.074.113.109.454.106.292.021.236-.063.246-.127.155h0l-.275.053L263.3,1243l.218-.31.053-.239-.391-2.242-.046-.7.109-1.239.208-1.235.31-1.235.408-1.232.3-.493.426-.486.021-.032v-.13l-.1-.081-1.242-.1-2.587-.046-1.812-.06-1.816-.158-1.83-.253-1.834-.356-.225-.046h0l-1.714-.236-1.756-.018-3.069.264-1.323.2-1.183.246-.172-.032-.088-.155v-.032l0-.021.088-.2.2-.1,2.017-.257,2.017-.183,2.013-.106,2.013-.035.039,0,.141-.106.007-.176-.1-.4.039-.377.172-.482.179-.493,4.146-13.853.123-.172.2-.056.1.007.148.078.042.165h0l-.007.021-2.844,9.394-.095.376-.014.327.074.38.194.472.275.722,1.253,4.65.165.26.289.113,2.052.056,3.995.148,1.549.158,1.4.229.313.021.31-.053.289-.13.246-.194.324-.331,1.07-1.056.831-.7.778-.489.771-.31.19-.095.141-.155.074-.2v-.211l-.447-2.372.025-.109.095-.056h.014l1.992.035,11.8,1.443,1.545.144,1.795.056,1.721.134,1.922.384.172-.035.077-.158,0-.046-.331-1.753-.172-1.552-.021-1.429.13-1.373.271-1.292.521-2.214.239-1.749-.007-1.6-.257-1.5-.331-.943-.51-1.067-.69-1.179-.764-1.105-1.052-1.39-2.14-2.918-.637-1.028-.493-.971-.014-.039.032-.264.218-.155.176-.035h.01l.211.053.109.19.19.831.264.609.37.574,3.829,5.146.683,1.038.549,1.063.415,1.088.282,1.112h0l.134,1.007.032,1.024-.077,1.045-.179,1.066-.384,1.506-.419,1.651-.194,1.081-.021.232h0l-.042,1.309.106,1.32.25,1.334.394,1.348.151.218.246.109,9.612,1.32h.137l2.214-.373.711-.183.447-.179,4.09-2.224.077-.123-.07-.127-.007,0-1.774-1.07-.982-.753-.957-.862-.89-.933-.862-1.056-.841-1.169-.838-1.313-1.858-3.361-2.4-4.231-3.924-6.4-1.443-2.224-1.344-1.918-1.334-1.728-1.345-1.559-1.355-1.39-1.383-1.239-1.4-1.073-1.418-.919-1.443-.729-1.612-.581-1.781-.437-1.953-.289h-.042l-.109.084v.134l.278.472.334.57.19.475.25,1.147.074,1.081-.095,1.01-.275.94h0l-.489.943-.7.862-.581.528-.584.426-.619.352-.683.3-.714.229-.774.172-.8.1h-1.7l-1.816-.278-1.816-.542-1.725-.778-1.492-.947-.106-.025-.091.063h0l-.007.018-.211.655-.137.672-.06.637.018.634.091.609.172.584.239.521.32.482.7.7,1.288,1.045.7.722.345.672.095.475v.479l-.1.514-.187.5-.289.525-.359.489-.444.454-.479.38-1.035.612-1.207.538-1.323.44-1.453.352-1.559.253-1.619.151-1.633.039-1.58-.077L251.8,1213l-1.542-.5h0l-1.408-.715-1.316-.943-.042-.028-.19,0-.12.148-.165.51-.208.412-.275.345-.317.246-.6.215h-.75l-.894-.225-1.017-.447-.014-.007-.155,0-.106.116-1.422,4.227-2.629,8.042-.859,2.985-.714,2.837-.51,2.333-.306,1.851-.151,1.668.007,1.513.169,1.366.345,1.207.51,1.028.665.852.535.479.626.419.341.187,1.084.489,1.151.363,1.214.236,1.281.113,3.108.032,3.386-.134,3.685-.292,5.05-.538,3.773-.408m60.141-31.947-.447-4.54-.042-.046h-.01l-.025,0-.38.081-.356.166-.317.243-.271.31-.211.366-.144.408-.07.437.007.443.01.113.081.44.155.412.218.373.278.32.324.253.363.176.38.091.387,0h.025l.046-.053m.384,2.8-.651,1.073-.725.9-.633.613-.757.588-.859.553-1.038.567-.106.046-.3.025-.282-.1-.215-.211-.106-.281-.746-5.28-.07-.137-.144-.063-10-.736-1.883-.081-1.876,0-1.869.078-1.858.155-.032.007-.106.1.01.144,4.8,8.591.623,1,.679.94.739.876.8.82h0l.911.806.975.735,1.042.669,1.109.6.169.035.165-.046,3.65-2.182.859-.356,1.5-.419.609-.2.693-.454.06-.042.088-.032.137.081,0,.158-.134.288v.229l.1.06.1-.014.1-.056.039-.113.063-.352h0l.2-.268.331-.208,1.77-.7,1.788-.549,1.8-.4,1.816-.246h0l2.411-.091.348-.1.183-.165.134-.246.056-.313-.042-.176-.134-.123-1.256-.605-1.049-.577-.933-.665-.813-.75-.7-.834-.475-.735-.4-.792-.457-1.035-.021-.025-.1-.028-.088.063m6.991,6.265-.584,2.386-.028.289.06.282.134.253.2.2.757.472.82.331.918.215.947.077,1.024-.056,1-.19.992-.32.915-.433.648-.461.433-.531.032-.179-.461-2.636,0-.014-.116-.155-.19-.021-1.844.451-1.858.2-1.767-.046-1.777-.271-.162.028-.095.13m10.15,1.724-.046.433-.218.686-.366.623-.517.577-.686.545-.838.489-.957.408-.992.3-1,.176-1.679.053-.778-.074-.746-.148-.676-.208-.641-.282-.57-.338-.528-.408-.746-.813-.577-.95-.053-.194.028-.2.282-.785.007-.021-.032-.106-.1-.046-1.953.148-1.918.313-2.26.591-2.21.831-.3.183-.172.236h0l-.053.26.053.3.113.605-.053.56h0l-.169.44-.289.412-.056.12.091.222.236.028.475-.2.2-.046.2.028.179.1.134.158.426.9.253.855.074.813-.1.771h0l-.106.341.007.341,0,.01.137.45.053.521-.151,1.3-.116.764-.091.19-.077.116-.014.162-.081.531-.32.834-.612.922-.468.683-.046.2.081.19.179.282.053.281h0l-.074.289-.215.289-.352.285-.489.282-.095.141-.264,3.108v.014l.095.056,2.918-.9,2.83-.76,2.742-.626,2.657-.486,2.21-.236,2.569-.056,1.693.144h0l1.26.275,1.232.422,1.211.563,1.19.707,2.707,1.756,1.967,1.189.007,0,.282.032.222-.183,2.006-3.755.042-.169-.049-.165-.179-.275-.338-.591-1.147-3.407-.961-3.421,0-.025.039-.106.109-.039.176.014.155.063.095.134,1.746,5.677.267.62.486.823.134.091.155-.032.007,0,.785-.517.883-.447.908-.338.869-.208.841-.081.753.046.7.169.655.306.081.084-.01.215-.194.1-.641-.148-.535-.13-.834-.046-.806.042-.771.13-.746.211h0l-.9.4-.852.531-.169.172-.1.225-.141.243,0,.007L346,1245.437l-.01.141.1.1.028.007.908.222.891.377.845.51.771.634.655.711.535.8.373.82.222.869.116.2.225.078.44-.046.461-.123.975-.468,1.01-.679.929-.75.817-.8.722-.862.588-.876.479-.929.356-.947.239-.992.12-1.179-.053-1.228-.2-1.232-.338-1.3-.461-1.316-.588-1.373-.729-1.439-.862-1.489-1.014-1.591-1.176-1.693-1.161-1.478-1.253-1.334-1.348-1.193-1.443-1.045h0l-1.658-.968-1.77-.8-1.876-.634-1.988-.468-.014,0-.123.042-.053.116m-11.554-.241-.25.12-.12.253-.018.774.137.546.4.595.553.528.693.457.75.338,1.038.3,1.021.172,1,.039.975-.088h0l.876-.2.859-.306.841-.419.824-.525.517-.454h0l.531-.739.352-.9-.028-.289-.211-.2-.137-.056-.049-.014-.183.053-.07.179,0,.419-.081.394h0l-.179.4-.268.373-.363.345-.454.317-1.32.651-1.373.4-1.365.134-1.365-.134-1.2-.356-1.165-.591-.429-.31-.317-.32-.2-.327-.084-.338h0l.06-.447.25-.465.035-.071-.046-.2-.187-.074-.246.025m-22.647,24.794.222-.187.081-.275v-13.716l.081-.331.222-.257,1.415-.908,2.312-1.334,7.6-4.611.172-.176.035-.13-.06-.187-.176-.081-.028,0-.859.176-.933.3-.971.4-.89.465-4.343,2.481-4.551,2.422-.127.116-.046.165v15.743l0,.039.1.127.158,0,.581-.25m.774-.707.1.208.225.042.07-.032,3.534-2.369,3.446-2.4,2.277-1.436,2.076-1.288.056-.063-.01-.162-.144-.074-.679.01-.187-.042-.218-.169-.116-.264.014-.3.137-.271.169-.278.025-.25h0l-.134-.236-.443-.609-.123-.341-.053-.363.014-.271.028-.074.658-1.07.056-.2-.049-.2-.345-.757-.056-.306.021-.253.134-.3.3-.359.56-.715.095-.169.007-.014v-.134l-.1-.091-.464-.229-.282-.324h0l-.084-.264-.007-.3.218-.725.468-1.19.13-.82.053-.222.162-.162.225-.215.151-.363-.042-.158-.158-.046h0l-.074.042-.464.45-.271.2-10.551,6.142-.172.172-.063.236-.12,13.364m-52.817-18.914-1.211,4.209-.021.243.074.232.158.187.215.113,2.249.644h.088l.095-.078.014-.12-1.566-5.431-.01-.021-.084.021m46.34,20.36-.8.215-.792.084-2.069-.035-2.031-.208-.049,0-.074.081.032.1,1.373,1.123.218.169.866.82.774.985.679,1.158.588,1.334.253.289.38.056.595-.176.5-.26.531-.44.468-.6.419-.788.436-1.095.225-.725.148-.736h0l.074-.75,0-.76.257.13.243.253.141.1h.176l.194-.081h0l.257-.211.2-.31.07-.331v-15.955l-.088-.067-1.844.26-.081.095.049,15.8-.567.123-.464.01.232,0,.2-.2.021-.081-.123-15.574-.063-.155-.148-.078-28.94-3.421h-.37l-.549.021-.521-.078-.032,0-.12.046-.039.127.039.282,0,.014.1.144.176.021.116-.028h.042l.141.095.014.166-.187.151-.169.144-.053.218.091,1.19.074.155.158.07.113,0,.109-.021.679-.063,1.084.106.32.042.831-.014,2.02-.169,2.136.1,10.428,1.228,10.4,1.411.31.169.123.334.067,13.98m19.726-19.341-.6-.6-.113-.07-.172-.01-.155.081-.363.37-.426.5-.285.507-.1.429.106.289.018.018.289.1.429-.1.507-.285.5-.426.363-.37.091-.218-.091-.218m-1.1,3.837.187-.3.528-.56.619-.774.155-.359.06-.37-.091-.271-.211-.148-.275-.007-.26.134-.165.236-.278.521-.345.292-.01.007-1.042,1.735-.014.035.053.341h0l.236.144.408.021.13.053.035.137-.018.042-1.2,2.08-.007.194.158.109h0l.081-.007.545-.158.162-.1.084-.165.144-.331.327-.257.563-.162.408-.109.1-.081.014-.229-.2-.12-.6-.007h0l-.172-.074-.07-.176v-.12l.046-.088.095-.028.845.113.148-.032.088-.127.081-.507-.007-.5-.067-.391,0-.007-.095-.12-.155-.014-.6.253-.31.275h-.1l-.007-.032m-47.041,4.079.077-.088.25-.176.3-.046,1.313.158,1.26.225,1.207.3,1.151.363,3.062,1.362.253.042.236-.091.162-.2.042-.25-.088-.239-.482-.6-.542-.531h0l-.961-.686-1.112-.514-2.6-.8-2.984-.655-.2-.123-.063-.225v-.028l.109-.187.211-.053,1.587.282,1.594.384,1.6.479,1.608.581.461.063.44-.155.176-.116.127-.134.056-.172-.025-.183-.1-.151h0l-.077-.056-2.073-1.084-2.15-.88-2.453-.732-2.541-.486-.387.06-.669.384-.7.535-1.8,1.792-.169.179-.257.194-.377.165-1.109.243-.306.109-.451.363-.267.433,0,.007-.535,1.647-.352,1.542-.158,1.4.035,1.246.081.2.169.127,1.1.37,1.158.289,1.119.179,1.063.074.971-.035.855-.141.781-.253.633-.348.4-.166,1.6-.194,1.45-.032,2.2.1.4.021.169-.025.172-.116.095-.183,0-.208-.1-.183-.37-.317-.472-.275-1.285-.461-1.753-.341-2.112-.194-.141-.071-.039-.151,0-.021.032-.109.141-.2.236-.063,1.524.176,1.468.268,1.411.356,1.355.45.595.151,1.225.144.324-.106.1-.13.035-.158h0v-.028l-.07-.25-.162-.243-.623-.507-1.031-.538-1.443-.563-.056-.021-1.176-.384-1.137-.3-1.105-.211-1.066-.12-.028-.007-.053-.063.021-.081m7.664-.977-.042.01-.049.074.039.081,1.035.781.721.7.426.662.1.306.025.31-.144.31-.447.31-.464.134h0l-.468-.035-.12.028-.046.116h0l.014.046.232.644,0,.268-.074.2-.278.229-.489.109-.665-.018-.852-.141-.074.088.021.028.366.356.095.313-.158.257-.5.3-.679.169-.887.046-1.256-.07-.616-.046-.623.06-.123.074-.074.158.017.19.113.183.172.127.3.215.26.348,1.144,1.327.162.12.194.053,7.458.869,8.813,1.3,2.935.348,4.146.26.077,0h.014l.243-.1.095-.246-.12-6.606.032-6.152-.035-.275-.113-.2-.225-.141-.327-.042-.507-.071-9.84-1.327-9.622-1.063-1.07.056-.285.035-.489-.067-.609-.187-.612-.091h-.7l-.032.014.018.1,2.175.714.084.032,3.35,1.735.179.141.109.2.025.225-.063.218h0l0,0-.324.454-.4.292-.324.113-.363.032m76.52-1.248,1.1,2.045.862,2.059.584,1.953.3,1.844,0,1.376-.172,1.161-.324,1.112-.482,1.1-.619,1.035-.778,1.01-.9.922-1.024.852-1.112.739-.1.151.053.172h0l.028.028,11.16,8.422.063.035.2-.032.1-.183.144-4.146.285-4.2.278-2.263.433-2.084.584-1.9.739-1.714.788-1.278,1.01-1.133,1.179-.922,1.281-.672,1.348-.4.679-.1.679-.021.662.056.648.13.595.2.567.271.535.341.5.419.436.465.4.539.352.6.306.672.443,1.482-.028.2-.151.134-.1.039-.025.007-.2-.032-.113-.169-.155-.718-.215-.669-.275-.623-.331-.567-.383-.51-.433-.447-.482-.387-.528-.317-.876-.341-.964-.165-1.01.021-1.07.211-.982.366-.961.56-.866.7-.813.88-.714,1.017-.623,1.161-.489,1.239-.338,1.253-.521,2.89-.373,2.984-.222,3.083-.078,3.175-.007.394.007.539.085.338.19.278.338.281,14.088,9.957.032.018.141-.007.084-.113.275-2.21.989-11.175.3-4.287.056-3.439-.176-3.069-.179-1.383-.236-1.281-.3-1.239-.363-1.123-.426-1.042-.5-.982-.549-.859-.623-.792-.679-.69-.76-.612-1.1-.672-1.246-.521-1.337-.352-1.492-.193-2.4-.12-2.527-.134-.239-.021-4.983-.387-5.856-.366-.081.035-.021.084h0l.01.028m-37.355,1.334.1.215-.014.148-.116.088h0l-.014,0-.8.13-.144.077-.071.148.046.521.1.225.137.155.187.084h.2l.19-.081h0l.039-.032.781-.69.208-.3.408-.75.26-.317.053-.2-.137-.158-.081-.014-.6.116-.676.331-.095.13.032.158,0,.007m-1.062,2.488.031.14.1.123.348.123.358-.089.114-.112.045-.137-.031-.14-.1-.123-.348-.123-.358.089-.114.112-.045.137m-7.976,7.609-.039.084.056.07h.056l7.074-2.277.144-.179.215-2.531-.067-.06-.018.007-7.422,4.885m30.8,7.547-.356.3-1.183.911-.447.2-.345.042-.26-.078-.218-.183-.151-.257-.063-.306.021-.577.106-.5.169-.415.257-.433.824-.961.736-.831.025-.116-.081-.088-.039-.007-.51-.039-.869-.042-.531.077-.183.01-.106-.077-.07-.169.046-.134.94-1.285.253-.246.3-.183.338-.106.352-.028,1.151,0,1.109-.109,1.073-.218,1.031-.32h0l1.109-.489.07-.049.095-.257-.148-.232-5.075-3.037-1.939-1.038-.788-.324-.662-.194-1.274-.225-1.348-.13-1.362-.039-1.436.06-1.485.148-1.563.239-1.686.345-1.827.444-13.342,3.6-1.844.567-1.862.669-3.678,1.45-.12.095-.056.141-.338,1.4-.8,2.151-.243.51-.289.443-.334.38-.383.313h0l-.817.4-.975.187-.194.1-.053.211.007.028.313,1.482.165,1.7.44,10.636.158,8.929,0,.028.077.106.13.01,2.5-1.119,4.058-2.031,3.914-2.045,3.773-2.055,3.632-2.073,11.283-6.758.641-.331.707-.26.771-.19.841-.12.348.018.908.243.725.306,2.83,1.612,3.984,2.446,3.178,1.957,11.583,7.061,14,8.8,4.033,2.7,3.241,2.443.208.056.179-.113.014-.021,2.214-4.03,1.8-3.027,1.693-2.527,1.682-2.165.3-.3.37-.26.113-.169-.06-.194-.039-.032-8.415-5.818-8.309-5.843-8.2-5.867-8.091-5.9-.3-.151-.334-.046-.943.067-.271-.081-.194-.1-.187.021-.123.137-.313.742-.334.57-.507.6-.883.813-.2.183-.246.313-.327.574-.911,1.932-.225.37-.3.232-.37.1-.444-.046-.229-.166-.2-.426-.113-.475-.028-.535.06-.584-.007-.074-.113-.1-.141.049-1.4,1.665-.25.211-.3.109-.3-.007-.267-.12-.313-.348h0l-.137-.457.046-.567.07-.144.127-.1.194-.13.155-.215.088-.292-.049-.123-.13-.021h0l-.056.046-.373.465-.387.376-.4.285-.415.2-.32.067-.306-.028-.25-.116-.165-.194-.225-.363-.232-.2-.127-.155.025-.194.007-.014,1.63-2.415,0-.1-.084-.049h0l-.056.021m-1.629-4.051,1.137-.042,1.457-.384.067-.021.084-.01.165.113v.2l-.091.134-.493.341-.468.289-1.211,1.207-.813,1.017-.486.936-.116.429-.035.426.025.116.095.134.144.078h.165l.144-.078,3.868-3.414.151-.046.13.081.014.021.053.106.035.271-.12.243-.8.926-.648.961-.5,1-.352,1.042h0l-.169.823v.074l.123.148.19-.014.574-.394.831-.774,1.087-1.313.563-.711.211-.162.454-.194.084-.014.13.1-.018.162-1.087,1.693-1.052,2.052-.1.31.01.232.032.063.109.092.148.035.3-.127,1.348-1.478,1.721-2.1.236-.141.267.049.01.007.155.2-.035.257-.01.021-.538.961-.31.7-.169.626-.028.57.134.679.046.081.218.091.2-.13,1.214-2.545.352-.472.721-.605.743-.626.408-.507.246-.517.162-.5.081-.517-.007-.5-.2-.827-.468-.823-.69-.75-.926-.7-.926-.486-.883-.222-1,.035-1.309.345-1.365.373-.63.081-1.879.141-1.07.239-.179.144-.077.215.039.225.151.172h0l.229.074m.862,6.772v-.549l-.014-.035-.067-.032-.063.042-.151.479.106.141.148,0h0l.042-.049m37.654,48.643-.827-.729L374.737,1301l-6.324-6.142-6.127-6.078-5.934-6.015-5.74-5.948-12.769-13.3-1.045-.968-1.052-.785-1.063-.6-1.07-.412-.391-.06-.778.032-.707.113-.637.194-.567.278-11.523,6.863-7.6,4.238-6.9,3.622-2.041.943-1.573.514-.141.088-.053.155v3.636l.074.187.187.084,3.558.092,3.09-.018,3.284-.113,9.267-.595,2.256-.3,3.051-.658.285-.028.285.039.264.109.232.172,5.73,5.427,4.509,4.167,3.678,3.2,4.452,3.625,5.269,4.09,6.317,4.734,1.542,1.2,2.031,1.7,3.583,3.122,2.062,1.707,1.858,1.492.232.078.222-.109,1.176-1.408,1.373-1.8,1.732-2.2,1.791-1.978,1.844-1.756,1.9-1.531.077-.134-.049-.148-.014-.014m-39.2-40.4-.014.007-.014.127,18.2,18.943.232.081.2-.141h0l.028-.077.113-.972-.007-1.014-.444-5.438-.1-.3-.225-.225-17.84-10.988-.014,0-.113,0m64.613,16.516,1.045-.834,3.1-2.3,2.488-1.665,2.559-1.39.081-.1-.028-.13-.028-.025-.306-.19-.686-.257-.8-.095-.936.074-1.13.243-2.087.595-2.143.718-.134.1-.049.158-.032,1.077-.1.957-.169.838-.236.722-.56,1.524.063.046.074-.028.014-.035m9.567-5.64-.007-.032-.084-.095-.13.01-1.946,1.169-2.731,1.795-2.812,2.027-3.1,2.4-4.565,3.682-.278.225-1.235,1.077-1.095,1.123-.9,1.109-.722,1.112-.524,1.08-.327,1.049-.141,1.059.053,1,.046.246.081.215.144.179.605.422.63.229.665.088.714-.049.792-.183.838-.327.859-.461.806-.553.732-.626,2.914-2.921,2.7-2.914,2.485-2.911,2.273-2.9,1.084-1.587.891-1.6.7-1.616.507-1.626.084-.464v-.426m-21.154,19.865.039-1.39.239-1.232.444-1.232.658-1.232.862-1.218,1.056-1.2,1.274-1.225,1.51-1.271,2.119-1.644,1.228-.94.37-.31.528-.553.447-.605.387-.686.306-.725.243-.813.162-.845.081-.9,0-.9-.1-.2-.218-.06-.032.007-8.461,2.446-.151.081-.1.141-.451.873-.588.834-1.257,1.432-1.45,1.429-1.527,1.313-1.52,1.126-2.942,2.077-.12.183.035.218.722,1.14.781,1.08.838,1.024.9.968h0l1.689,1.531,1.862,1.359.028.01.081-.014.032-.078m-34.157-18.982.07.75.211,2.439.077,1.739-.035,1.5-.151,1.3.035.56.3.475,12.564,12.213.229.067,2.8-.507.736-.155.669-.222.637-.292.57-.356.577-.479.507-.542.464-.648.4-.707.352-.8.32-.915.545-2.245,0-.042-.074-.144-.162-.035-.834.208-.257,0-.236-.106-2.647-1.929-3-2.066-3.343-2.214-3.7-2.351-.225-.021-.155.165-.01.07-.081,9.391-.032.06-.222.179-.042.025-.123-.021-.06-.113.091-9.992-.077-.3-.215-.225-6.265-3.858-.042-.017-.123.032-.049.12m26.666,11.222,4.079-2.795.827-.644,1-.9,2.513-2.562.75-.915.538-.911,0-.141-.113-.081h-.042l-.929.06-.911-.021-.891-.1-.869-.176h0l-.845-.25-.824-.327-.806-.4-.785-.479-.148-.042-.148.056-.581.539-.528.637-1.95,2.77-2.066,3.15-.545,1,0,.155.091.13,2.985,2.249.208.007m-52.555-.271.014-.007.01-.106-5.4-5.248-.426-.239-.493.007-2.675.616-2.636.356-5.522.422-4.825.236-4.487.07-4.223-.095-.222.081-.091.215h0v.01l.116,6.135-.049,7.592-.19,8.032-.3,4.547-.2,1.851-.239,1.566,0,.042.081.151.169.035,39.312-9.725.3-.2.1-.341-.07-3.625.141-3.78.165-.943-.01-.271-.148-.229-7.338-6.458-.239-.123-.267,0-13.187,3.4-11.333,2.728-.894.123-.542.063-.162-.046-.077-.151h0v-.017l0-.025.084-.218.2-.116,4.2-.884,4.994-1.154,5.782-1.432,6.574-1.707,4.009-1.147m9.014,7.757-.113-.028-.091.07-.01.028-.144,1.144-.074,1.915.007,5.132.088.341.232.26,1.179.715,1.253.584,1.355.468,1.4.334,1.482.2,1.482.06,1.461-.084,1.418-.222.658-.282.285-.239.208-.271.07-.218-.025-.243-.12-.232-.2-.194-3.361-2.478-3.09-2.369-2.812-2.253-2.541-2.143m30.711,2.693-.179.144.053.222,2.675,2.636.158.063.141-.056.067-.137.317-3-.063-.176-.176-.06-2.992.359m21.83,11.93,2.15-1.742,2.207-2.013,1.517-1.271,1.844-1.207.176-.25-.07-.3-.032-.035-.116-.1-.447-.285-.507-.172-.577-.078-.69.018-.771.116-.852.215-2.1.75-.06.025-.158.123-.067.187-.141,1.4-.26,1.341-.376,1.292-.489,1.239-.313.641-.01.049.056.074.091-.01m.735-5.931-10.484,3.375-.218.179-.834,1.376-.918,1.292-1,1.207-1.08,1.123h0L378,1312.333l-1.5,1.1-1.612.982-1.725.862-.148.162.018.215.007.014,1.063,1.637,1.158,1.524,1.257,1.419,1.355,1.309h0l1.549,1.274.049.028.183-.017.1-.155.137-.8.222-.792.324-.824.394-.8.5-.834.56-.788.644-.774.672-.7,2.678-2.436,2.808-2.256,2.411-1.95.8-.778.531-.641.482-.774.394-.81.345-.95.236-.993.134-1.038.025-1.084v-.014l-.053-.074-.088-.01m6.962.328-.936.574-.978.778-2.08,1.763-2.65,2.112-3.329,2.675-3.372,2.6-1.7,1.355-1.383,1.218-1.183,1.172-.989,1.141-.774,1.088-.581,1.052-.384,1.038-.176.982.039.6.222.433h0l.444.278.651.088.954-.081,1.116-.3,1.095-.524,1.119-.774,1.161-1.042,3.354-3.478,3.991-4.456,2-2.457,1.763-2.513,1.517-2.562,1.271-2.59-.01-.127-.113-.06-.056.014m-49.488,2.493-1.608.194-1.577.042-1.545-.1-1.513-.25-1.591-.433-1.552-.6-.049-.014-.176.053-.063.172.271,1.32.574,1.464.862,1.6,1.147,1.714,1,1.239,1.014.961,1.038.693,1.091.447,1.221.222,1.228.025,1.172-.1,1.123-.232,1.07-.359.014-.007.081-.1-.021-.13-1.19-1.967-.82-1.679-.57-1.63-.331-1.63-.067-.718-.07-.144-.155-.042h-.01m30.767.823-.813.01-.764-.084-.714-.179-.665-.278h0l-.549-.328-.514-.4-.162-.067-.169.053-1.672,1.348-1.658,1.57-1.721,1.862-2.059,2.446-.081.229.081.229,1.644,2.027.127.084.151.007.718-.232.785-.348,1.781-1.028,1.587-1.14,1.436-1.242,1.288-1.352,1.14-1.457h0l.947-1.489.007-.141-.106-.091h0l-.046,0m-41.051-.4-.37.964-.306,1.063-.246,1.165-.187,1.264,0,.482.1.479.208.514.292.5.9,1.067,1.253,1.045.095.007.046-.081-.018-.053-.8-1.017-1.014-1.33-.525-.978-.162-.451v-.049l.063-.056.084.028,1.316,1.665.979,1.5.978,1.51,1.091,1.309,1.211,1.116,1.327.919h0l1.443.718,1.559.525,1.675.327,1.791.13,1-.074.883-.225.605-.345.2-.211.134-.25.049-.229-.035-.975-.282-1.123-.521-1.267-.788-1.468-.088-.071-.116.007-1.014.4-1.087.271-1.161.148-1.235.018-1.183-.137-1.112-.32-.8-.366-.76-.479-.718-.584-.676-.69-.792-.954-.732-1h0l-.669-1.028-.605-1.07-.549-1.109-.489-1.151-.028-.042-.116-.039-.095.077m-121.822,1.327-.123.028,0,.032,1.3,16.592.172.437.383.268,1.19.285,1.271.106,1.358-.077,1.439-.253.37-.222.169-.4,1.105-13.072-.081-.264-.243-.13-1.872-.253-1.563-.338-1.362-.454-1.242-.591-1.175-.767-1.095-.926m145.479,6.177-1.453-1.147-.06.007-.014.018-.056.183.063.243.172.26.253.246.081.063.3.19.3.106.25,0,.162-.1.014-.014v0l-.007-.056m-72.465,5.085-.056-.169-.165-.071h0l-.032,0-1.387.278-2.235.412-1.612.137-.644-.007-1.58-.106-1.679-.2-.141.046-.046.141,1.7,12.037.074.25.144.215.2.162.239.095.982.19.989.1h0l1.429,0,1.443-.169.334-.116.278-.218.2-.292.095-.341,1.464-12.382h0Z" fill="#040403"/>
      <path id="Path_1012714" data-name="Path 1012714" d="M363.584,1209.708l.222,1.067.475,1.179.042.229-.077.222-.373.581-.236.493-.232.419-.3.215-.056.014-.574.049-.619-.074-.69-.187-.771-.31-.834-.437-.852-.531-.845-.616-.711-.616-.461-.5h0l-.454-.665-.356-.743-.26-.817-.165-.9-.053-.739.021-.707.232-1.278.479-1.281.718-1.316,1.172-1.732,1.144-1.686.679-1.256.433-1.2.179-1.189-.014-.75-.275-2-.275-1.922-.088-1.408.063-1.271.229-1.161.253-.743.32-.707.89-1.429,1.221-1.468,1.936-1.964.415-.412.486-.531.4-.553.56-1.063.384-1.2.236-1.376.155-1.964.218-2.474.461-2.291.707-2.224.933-2.08,1.123-1.872,1.306-1.651.7-.725.753-.672.788-.605.834-.549.852-.465.89-.4.9-.327.936-.26.943-.187.978-.12.348-.081,1.513-.51,1.506-.348,1.5-.187,1.5-.025h0l1.179.095,1.176.2,1.51.38,1.446.489,1.383.595,1.306.7,1.225.806,1.137.9,1.024.986.929,1.077.714.992.641,1.059.549,1.095.468,1.154.461,1.679.25,1.855.025,1.851-.2,1.749-.412,1.517-.612,1.306-.366.553-.422.5-.454.422-.5.37-.01.007-.063.028-.19-.046-.074-.179.042-.574.19-2.393.225-1.753.218-1.792.109-2.017-.021-.718-.1-.679-.179-.634-.26-.591h0l-.373-.591-.468-.542-.239-.187-.278-.12-1.545-.57-1.411-.774-1.01-.739-.929-.859-.028-.025-.162-.028-.12.109-.046.106-.01.134.067.116,1.239,1.059,1.07.662,2.6,1.2.633.429.464.616.356.813.243.884.134.947.028,1.014-.07.13-.148.014-.046-.028-.493-.363-.433-.222-.535-.187-1.524-.306-.947-.165-1.89-.489-.9-.341-.862-.4h0l-1.235-.732-1.158-.873-.8-.8-1.084-1.362-.7-.9-.179-.12-.208.063-.046.039-.116.3-.172,1.566-.348,1.587-.507,1.524-.683,1.531-.841,1.478-1.017,1.461-1.144,1.38-1.3,1.334-.229.113-.253-.032-1.323-.6-.06-.018-.806-.088-.714.056-.658.194-.549.32-.376.345-.3.412-.232.468-.162.514-.088.567-.014.6.063.62.144.63.32.813.461.7h0l.51.514.612.43.718.341.82.257.162.113.046.187-.067,1.126.063,1.077.19,1.024.32.972h0l.415.862.352.626.982,1.777.581,1.221.412,1.123.246,1.095.1,1.492-.155,1.619-.144.507-.82,1.781-.781,1.7-.422,1.221-.2,1.13.028,1.077.3,1.141.588,1.126.648.76,1.095.922.788.648.239.292.239.686.01.458-.084.447-.194.468-.278.447-.4.468-.461.415-.528.373-.535.285-1.647.672-1.271.37-2.112.384-1.795.222-1.647.084-1.517-.06-1.383-.2-1.267-.348-1.176-.507-1.042-.648-.6-.486-.57-.556-.415-.7-.7-1.535-.021-.025-.084.053m-.138-1.182.067-.943.162-.894.253-.848.352-.8h0l.218-.391.936-1.658.725-1.5.514-1.327.3-1.162-.035-.222-.06-.053-.264-.028-.19.172-.014.035-.486,1.517-.591,1.39-1.017,2.041-.714,1.4-.253.665-.148.774-.039.894.063,1,.039.028.091-.007.088-.1h0Z" transform="translate(-117.282 -1.955)" fill="#78534b"/>
      <path id="Path_1012715" data-name="Path 1012715" d="M468.5,1202.093l-1.109-.042-.187.032-.155.106-.545.56-.039.158.116.113.088,0,1.059-.253.964-.046.257.067.215.155.144.225.049.26-.042,1.785-.141,1.45-.141,1.344-.095,1.869-.088,1.348-.172,1.323-.26,1.271-.345,1.253-.5,1.387-.626,1.369-.736,1.327-.862,1.313-.444.556-.482.468-.521.38-.56.289h0l-.521.176-.549.113-1.186.014-1.58-.236h0l-2-.535-1.946-.8-.894-.535-1.059-.605-.144-.018-.134.056-.084.12-.01.148h0l.077.141.908.809.95.718,1,.616,1.035.524h0l.915.37.947.3.979.232,1.01.162.38.158.246.327,1.165,2.981.035.148.028.595-.056.542-.134.493-.218.447h0l-.384.486-.51.408-.637.331-.764.253-1.538.275-1.517.007h0l-1.179-.179-1.165-.341-1.151-.5-1.14-.669-.2-.268.018-.331.412-1.26.2-1.292.018-.855-.07-.841-.165-.876-.246-.862-.331-.887-.433-.94-1.2-2.087-.408-.707-.334-.725-.26-.735-.19-.753-.116-.785-.039-.8.035-.817.113-.831-.021-.12-.1-.078-.018,0-.989-.268-.82-.377-.686-.486-.556-.62-.454-.88-.218-1,.025-.975.109-.472.176-.429.232-.38.285-.324.331-.26.373-.194.581-.144.633.014.637.176.658.341,1.091.823.063.028.144-.042.039-.148-.088-.366,0-.172.1-.148,1.464-1.366,1.277-1.454,1.087-1.545.9-1.637.542-1.264.436-1.316.334-1.362.232-1.415.018-.049.106-.063.109.056,1.038,1.316,1.179,1.133.753.581.785.514,1.77.887,2.062.725,2.64.662.352.127.4.32.313.482.014.035-.035.137-.13.056m-7.852.832-.179-.26-.282-.148-1.01-.12-.464.049-.44.12h0l-.419.2-.394.268-.7.76-.067.18.039.187.063.123.025.039.2.106.208-.084.422-.408.444-.32.461-.236.479-.155.672-.071.707.081.187-.046.077-.176-.014-.06-.01-.025m2.621,9.632.084.236.215.134.824.091.785-.063.574-.211.334-.345.091-.384-.088-.5-.7-2.08-.109-.51-.01-.521.169-2.119-.035-.13-.109-.078-.091-.028-.2.035-.123.165-.176.845-.088.831,0,.817.084.8h0l.306,1.221.517,1.19.007.239-.187.148-.07.007-1.707-.067-.2.071-.095.19v.018m4.387-6.421-.276.1-.238.286-.165.432-.066.512.043.514.145.439.225.3.271.108.276-.1.238-.285.165-.432.066-.512-.043-.514-.145-.438-.225-.3-.271-.108m-7.872.212-.267.156-.186.325-.077.444.044.5.158.472.249.376.3.223.308.036.267-.156.186-.325.077-.444-.044-.5-.158-.472-.249-.376-.3-.223-.308-.036m-.443,8.932-.141-.056-.158.021-.127.1-.06.144.018.158.271.545.366.514.472.493.542.422.567.331.6.232.574.12.567.007.525-.1.472-.2h0l.457-.334.391-.458.324-.577.253-.7,0-.211-.109-.179-.183-.1-.208.01-.19.134-.141.19-.155.141-.194.078-1.285.162-1.168-.032-1.045-.229-.933-.426h0l-.3-.2Z" transform="translate(-187.68 -32.95)" fill="#f1b699"/>
      <path id="Path_1012716" data-name="Path 1012716" d="M552.123,1222.908v0h0l.007,0,.232-.07.25.035.236.138.18.218.06.1.095.264,0,.271-.095.236-.176.166-.007,0h0l-.781-1.353Z" transform="translate(-271.063 -54.659)" fill="#be9583"/>
      <path id="Path_1012717" data-name="Path 1012717" d="M500.869,1229.2l.01.024.014.059-.077.177-.187.046-.707-.081-.672.07h0l-.479.155-.461.236-.444.321-.422.408-.208.085-.2-.107h0l-.025-.037-.063-.125-.039-.186.067-.181.7-.76.394-.269.419-.2h0l.44-.12.464-.048,1.01.12.282.146.18.262Z" transform="translate(-227.903 -59.224)" fill="#040403"/>
      <path id="Path_1012718" data-name="Path 1012718" d="M527.345,1251.624l1.707.068.07-.009.186-.146-.007-.24-.517-1.19-.306-1.222h0l-.084-.8,0-.818.088-.829.176-.845.123-.166.2-.035.091.028.109.076.035.131-.169,2.119.01.519.109.511.7,2.08.088.5-.091.384-.334.345-.574.209-.785.063-.823-.089-.215-.135-.084-.236v-.017l.1-.19.2-.07Z" transform="translate(-251.462 -72.295)" fill="#040403"/>
      <path id="Path_1012719" data-name="Path 1012719" d="M544.484,1245.8l.271.107.225.3.145.439.043.513-.066.513-.165.43-.238.286-.276.1-.271-.109-.225-.295-.145-.439-.043-.515.066-.511.165-.432.238-.286.276-.094Z" transform="translate(-264.509 -72.616)" fill="#040403"/>
      <path id="Path_1012720" data-name="Path 1012720" d="M509.184,1246.77l.308.037.3.223.248.378.158.471.044.5-.077.443-.186.325-.267.157-.307-.037-.3-.223-.249-.375-.158-.471-.044-.5.077-.443.186-.325.267-.157Z" transform="translate(-237.081 -73.374)" fill="#040403"/>
      <path id="Path_1012721" data-name="Path 1012721" d="M507.314,1287.488l.3.2h0l.933.426,1.045.229,1.168.032,1.285-.162.194-.078.155-.141.141-.19.19-.134.208-.01.183.1.109.179,0,.211-.253.7-.324.577-.391.458-.457.334h0l-.472.2-.525.1-.567-.007-.574-.12-.6-.232-.567-.331-.542-.422-.472-.493-.366-.514-.271-.545-.018-.158.06-.144.127-.1.158-.021.141.056m4.924,1.08-.781.25-.788.116h0l-.686,0-.693-.106-.7-.2-.707-.3-.053-.01-.077.063.017.095.422.408.521.377.556.3.588.218.521.106.507.014.443-.084.408-.19.387-.345.31-.5-.01-.141-.123-.071-.06.01h0Z" transform="translate(-235.654 -105.161)" fill="#040403"/>
      <path id="Path_1012722" data-name="Path 1012722" d="M515.541,1291.718l.06-.011.123.07.01.142-.31.5-.387.345-.408.19-.443.085-.507-.015-.521-.1-.588-.218-.556-.3-.521-.375-.422-.408-.017-.1.078-.063.053.011.707.3.7.2.693.107.686,0,.788-.116.781-.249Z" transform="translate(-238.958 -108.309)" fill="#f1c1a2"/>
      <path id="Path_1012723" data-name="Path 1012723" d="M527.875,1293.809l.426,1.506.331,1.08.13.814,0,.085h0l-.039,1.115-.215,1.122-.394,1.131-.574,1.139-.134.116-.179.011-1.306-.292-1.386-.14-.781-.081-.8-.168-.732-.244-.549-.273-.123-.21.095-.225h0l.077-.042.56-.19,1-.371.729-.419.538-.478.482-.6,1.154-1.844,1.422-2.582.042-.05.137-.017.088.109Z" transform="translate(-247.164 -110.061)" fill="#78534b"/>
      <path id="Path_1012724" data-name="Path 1012724" d="M587.951,1322.618l-10.206-.725-1.805-.061-2.453.05-3.357.229-.208-.044-.151-.144-2.305-3.77-2.126-3.235-2.277-3.2-1.707-2.143-1.71-1.816-1.753-1.528-1.851-1.288-1.788-.982-1.89-.805-.208-.205.007-.288h0l.014-.024.4-.792.306-.8.215-.805.116-.816h0l.014-.989-.123-1-.261-1.01-.4-1.021-.014-.037.039-.164.148-.072,5.444-.074,5.55.07,3.572.2,1.436.168,1.2.223,1.753.432,1.57.471,1.387.511,1.2.546,1.739,1.011,1.689,1.235,1.587,1.414,1.5,1.615,1.38,1.779,1.256,1.932,1.08,2.023.883,2.056,1.457,4.082.042.3-.145,7.251-.077.175-.18.068h-.007Z" transform="translate(-271.088 -111.124)" fill="#749eba"/>
      <path id="Path_1012725" data-name="Path 1012725" d="M244.126,1303.111l-.106.9.021,1.3.151,1.711.278,2.112.06,1.32-.2,1.232-.44,1.242-.686,1.292-1.14,1.724-1.154,1.749-.707,1.323-.464,1.285-.225,1.281.021,1.316.264,1.334.5,1.218.619.936.82.873,1.042.81,1.274.76.134.148,0,.2-.162.468-2.256,6.568-1.482,4.593-1.2,4.2-.968,3.938-.348,1.788-.211,1.644-.074,1.482.063,1.359.2,1.242.338,1.095.493,1.01.619.852.943.873,1.119.686,1.362.525,1.542.341,1.552.2,1.587.113,1.619.028,1.651-.056,5.283-.4,5.585-.63L262.8,1361l1.4.053,5.972.553,5.55.394,3.885.275,4.255.4,4.519.514,4.6.605,1.556.31,1.3.475.971.542.975.736,1.112,1.028.8.936.778,1.274.81,1.8.113.433.239,3.249.341,9.637.2,10.492.053,11.344-.091,12.2-.2,4.931-.489,5.272-.215,1.2-.359,1.056-.493.922-.637.785h0l-.574.5-.655.422-1.51.686-1.834.577-2.228.486-2.949.472-1.689.109-1.82-.134-4.079-.573-38.07-5.656-16.629-2.414-1.253-.239-1.249-.391-1.179-.521-1.042-.626-.915-.729-.746-.792-.612-.9-.429-.936-.26-1.246-.127-1.9-.246-8.271-.282-7.173-.317-6.071-.352-4.977-1.5-17.852-.264-2.386-.4-2.678-.538-2.964-.672-3.252-4-18-.964-4.537-.834-4.481-.711-4.421-.584-4.364-.218-2.312-.081-2.175.053-2.031.194-1.929.334-1.837.472-1.735.626-1.675.767-1.573.707-1.19.732-1.038.792-.95.869-.883.929-.8,1.031-.739,1.084-.648,1.168-.567,1.221-.468,1.281-.38,1.323-.289,1.4-.2,1.439-.106,15.06-.626,1.394-.088,1.816-.113,1.288,0,.165.081.049.176,0,.021m-7.574,55.789.007-.028-.039-.151-.141-.067-3.041-.106h-1.33l-1.408.141-1.429.289-1.408.415-1.443.56-1.383.672-1.334.788-1.232.873-.113.2.07.225.01.01,0,.007.239.106.246-.088.848-.686.908-.609.985-.553,1.091-.507,1.154-.437,1.242-.384,1.271-.306,1.33-.239,1.193-.081,1.563.078,1.971.074.13-.095.035-.106m47.171,23.265.208-.166.074-.253.042-2.151.211-2.07.38-1.886.538-1.714.69-1.489.845-1.281.978-1.049,1.105-.82.707-.377.771-.306.8-.222.859-.148.918-.032.876.134h0l.725.257.7.38.662.507.63.634.032.028.141.021.106-.1.007-.018.021-.253-.113-.229-.57-.581-.563-.447-.56-.313-.553-.176-1.4-.183-1.362.01-1.235.208-1.19.412-.7.363-.648.429-.63.514-.577.581-.552.672-.5.729-.464.813-.4.859-.683,1.946-.457,2.129-.225,2.26.028,2.267.07.13.144.028.025-.007.1-.039m-.246,3.579v2.295l.081,2.58.486,8.771.669,8.743.855,8.718,1.035,8.69.493,3.21.7,3.643.158.268.289.116h.06l.183-.116.032-.215-.714-2.819-.521-3.118-1.116-9.408-.9-9.236-.7-9.063-.482-8.891-.077-4.241v-.007l-.06-.123-.13-.046-.109.01-.162.077-.067.162h0Z" transform="translate(-1.995 -117.197)" fill="#749eba"/>
      <path id="Path_1012726" data-name="Path 1012726" d="M816.023,1336.758l-.032-.133.077-.116h0l.014-.009.5-.284.447-.334.387-.378.327-.415.264-.463.194-.484.116-.506.035-.517-.081-.705-.24-.7-.376-.644-.535-.613-.07-.127.011-.144.377-1.07.281-1.069.183-1.074.088-1.08h0l0-.952-.077-.954-.151-.956-.229-.96-.538-1.6-.693-1.447-.848-1.288-1-1.133h0l-1.095-.936-1.239-.8-1.376-.655-1.517-.511-1.767-.491-.07-.028-.162-.231.084-.273.63-.62.648-.509.658-.406.672-.3.359-.12h0l1.344-.275,1.422-.035,1.052.12.982.223.94.33.862.426,1.042.712.911.849.806,1,.714,1.172.591,1.3.479,1.458.341,1.523.215,1.641.183,3.18.084,4.178.053,1.58.134,1.539.211,1.441.289,1.362.366,1.273.437,1.163.524,1.1.584.963.028.2-.13.144-.046.013-1.925.268-1.63.028-1.408-.216-.63-.2-.612-.264-.672-.393-.644-.5-.588-.581-.567-.69Z" transform="translate(-470.487 -123.131)" fill="#78534b"/>
      <path id="Path_1012727" data-name="Path 1012727" d="M734.2,1315.508l-1.682.271-1.316.365-1.3.581-1.228.777-1.116.936-1.031,1.126-.876,1.246-.711,1.34-.528,1.406-.387,1.7-.176,1.82.032,1.938.243,2.067-.021.192-.116.159-.225.172-.507.439-.341.511-.232.517-.13.55-.018.535.081.5.169.476.257.443.331.4.4.365.468.308.528.251.581.183.2.179.165.631-.046.445-.37.771-.426.709-.489.646-.546.589-1.116.891-1.3.7-.032.013-.187.022-.176-.052-.144-.12-.081-.166-.363-1.582-.26-1.6h0l-.215-2.445.014-2.477.57-9.49.222-1.43.5-1.967.479-1.4.616-1.345.725-1.216.852-1.109.915-.921,1.017-.781,1.07-.6,1.158-.437,1.147-.242,1.218-.078.781.054.718.146.63.236.567.332.626.559.528.733.014.137-.1.094-.028.007Z" transform="translate(-402.268 -125.312)" fill="#78534b"/>
      <path id="Path_1012728" data-name="Path 1012728" d="M744.939,1335.382l-.144-.238-.169-.1h0l-.172.024.806-.609,1.133-.864.8-.7.658-.69.56-.729.507-.847.007-.017,0-.166-.13-.109-.116-.035-.162.068-.891,1.336-.964,1.063-.757.631-.841.563-1.035.563-1.281.592-.415.229-.341.3h0l-.236.312-.183.36-.2.873-.2,1.672-.289,1.39-.151.155-.208-.057-.056-.1-.327-1.517-.162-1.5,0-1.482.155-1.443.317-1.395.475-1.334.612-1.233.764-1.15.929-1.085,1.084-.973,1.2-.834,1.344-.712.975-.349,1.281-.323,1.242-.212,1.077-.081,2.175,0,1.123.076,1.112.258,1.144.356,1.126.454,1.038.511.971.581.845.615.746.657.651.722.8,1.155.665,1.3.5,1.395.334,1.449.169,1.558v1.574l-.172,1.6-.334,1.565-.232.615-.345.52-.577.491-.151.015-.1-.114h0l-.007-.046-.067-2.783-.116-1.026-.179-.932-.517-1.615-1.172-2.549-1.637-2.892-.253-.172-.3.081-.039.039-1.091,1.373-.415.511-.549.543-.6.476-.679.423-.725.351-.774.282-.81.207-.869.144-.894.07-.686-.048-.609-.2-.144-.179.049-.227.042-.042.37-.292,1-.823.647-.631.461-.616.3-.622.151-.631.035-.718-.007-.05-.123-.135-.183.013-.134.081-.169.179-.035.245.035.908-.077.33-.141.242-.764.825-.809.735-.855.651-.908.568h0l-.873.443-.912.373-.957.3-.993.227Z" transform="translate(-417.911 -134.24)" fill="#78534b"/>
      <path id="Path_1012729" data-name="Path 1012729" d="M472.5,1335.858l1.049.753,1.221.613,1.344.448,1.411.253,1.355.039,1.257-.161,1.182-.367,1.028-.557.739-.633.507-.751h0l.179-.445.113-.482.028-1.056-.239-1.19-.5-1.32-.032-.179.056-.172.134-.124.176-.046.155.037.419.2.605.43.426.607.447,1.242.18,1.211-.081,1.187-.338,1.1-.563.971-.785.843-.957.674-1.147.511-.472.148-1.151.242-1.158.092-1.179-.052-1.235-.2-1.235-.338-1.267-.5-1.228-.613-1.225-.757-.134-.19.021-.231.556-1.166.137-.118.18.026h0l.025.018Z" transform="translate(-208.1 -138.813)" fill="#e08b82"/>
      <path id="Path_1012730" data-name="Path 1012730" d="M373.313,1382.554l-.282-.014-3.773.408-5.05.538-3.685.292-3.386.134-3.108-.032-1.281-.113-1.214-.236-1.151-.363-1.084-.489-.341-.187-.626-.419-.535-.479-.665-.852-.51-1.028-.345-1.207-.169-1.366-.007-1.513.151-1.668.306-1.851.51-2.333.714-2.837.859-2.984,2.629-8.042,1.422-4.227.106-.116.155,0,.014.007,1.017.447.894.225h.75l.6-.215.317-.246.275-.345.208-.412.165-.51.12-.148.19,0h0l.042.028,1.316.943,1.408.715h0l1.542.5,1.637.267,1.58.078,1.633-.039,1.619-.151,1.559-.253,1.453-.352,1.323-.44,1.207-.539,1.035-.612.479-.38.444-.454.359-.489.289-.524.187-.5.1-.514v-.479l-.095-.475-.345-.672-.7-.722-1.288-1.045-.7-.7-.32-.482-.239-.521-.172-.584-.091-.609-.018-.634.06-.637.137-.672.211-.655.007-.018.091-.063.106.025,1.492.947,1.725.778,1.816.542,1.816.278h1.7l.8-.1.774-.172.714-.229.683-.3.619-.352.584-.426.581-.528.7-.862.489-.943h0l.275-.94.095-1.01-.074-1.081-.25-1.147-.19-.475-.334-.57-.278-.472v-.134l.109-.084h.042l1.953.288,1.781.437,1.612.581,1.443.729,1.418.919,1.4,1.073,1.383,1.239,1.355,1.39,1.345,1.559,1.334,1.728,1.344,1.918,1.443,2.224,3.924,6.4,2.4,4.231,1.858,3.361.838,1.313L414.9,1362l.862,1.056.89.933.957.862.982.753,1.774,1.07.074.1-.074.155-4.09,2.224-.447.179-.711.183-2.214.373h-.137l-9.612-1.32-.246-.109-.151-.218-.394-1.348-.25-1.334-.106-1.32.042-1.309h0l.021-.232.194-1.081.419-1.651.384-1.506.179-1.066.077-1.045-.032-1.024-.134-1.007h0l-.282-1.112-.415-1.088-.549-1.063-.683-1.038-3.829-5.146-.37-.574-.264-.609-.19-.831-.109-.19-.211-.053h-.01l-.176.035-.218.155-.032.264.014.039.493.972.637,1.028,2.14,2.918,1.052,1.39.764,1.105.69,1.179.51,1.066.331.943.257,1.5.007,1.6-.239,1.749-.521,2.214-.271,1.292-.13,1.373.021,1.429.172,1.552.331,1.753,0,.046-.077.158-.172.035-1.922-.384-1.721-.134-1.795-.056-1.545-.144-11.8-1.443-1.992-.035h-.014l-.095.056-.025.109.447,2.372v.211l-.074.2-.141.155-.19.095-.771.31-.778.489-.831.7-1.07,1.056-.324.331-.246.194-.289.13-.31.053-.313-.021-1.4-.229-1.549-.158-3.995-.148-2.052-.056-.289-.113-.165-.26-1.253-4.649-.275-.722-.194-.472-.074-.38.014-.327.095-.377,2.844-9.394.007-.021-.042-.165-.148-.078-.1-.007-.2.056-.123.172-4.146,13.853-.179.493-.172.482-.039.377.1.4-.007.176-.141.106-.039,0-2.013.035-2.013.106-2.017.183-2.017.257-.2.1-.088.2,0,.021v.032l.088.155.172.032,1.183-.246,1.323-.2,3.069-.264,1.756.018,1.714.236h0l.225.046,1.834.356,1.83.253,1.816.158,1.812.06,2.587.046,1.242.1.1.081v.13l-.021.032-.426.486-.3.493-.408,1.232-.31,1.235-.208,1.235-.109,1.239.046.7.391,2.242-.053.239-.218.31m23.382-40.718.01,0,.056-.1v-.215l-.172-.788-.151-.211-.116,0-.1.063-.017.257.264.764.113.187.1.056h0l.01,0m10.629,18.033-.588.4h0l-.6.517-.545.588-.018.021-.01.13.095.091.12.018.218-.088,1.647-1.165,1.784-.943.176-.151.039-.116-.039-.123-.12-.053-.028.007-.771.218-.736.3-.623.341m5.177,2.44-.007-.01-.137-.084-.162.018-2.661,1.285-.095.056-3.132,2.221-.2.236-.095.25.028.334.091.141.155.074.179-.018.158-.1.091-.165.141-.419.229-.25,1.6-1.063,1.08-.764.9-.549,1.753-.933.095-.106-.014-.137-.007-.014m-17.5.052-.168-.079-.175.063-.005,0-.079.168.063.175,3.51,3.858.168.079.175-.063.005,0,.079-.168-.063-.175-3.51-3.858m-33.787,6.917.007,0,.067-.1-.025-.12-.982-1.32-1.077-1.229h0l-1.538-1.457-1.7-1.306-.014-.01-.151-.01-.109.1-.06.148-.007.194.123.148,1,.69,1.211,1.063,1.411,1.432,1.615,1.806.141.025.084-.049m-9.108-1.471-.035.429.091.109,2.235.187,2.576.127.8-.035.289-.1v-.007l-.267-.141-.778-.169-2.562-.306-2.235-.187-.063.014-.046.078h0Z" transform="translate(-110.008 -139.559)" fill="#e47c81"/>
      <path id="Path_1012731" data-name="Path 1012731" d="M749.207,1356.8l.172-.025h0l.169.1.144.24-.018.194.049.141h0l.26.12.472-.046,1.946-.542,1.721-.739.155-.025.137.07.451.37.352.13,1.383-.035,1.3-.2,1.2-.355,1.116-.521h0l.919-.6.845-.729.774-.855.7-.985.127-.078.137.049.025.032,1.475,2.619,1.028,2.3.356,1.056.253.982.155.961.046.869.035,3.295.049.13.113.1.148.032.144-.042.106-.109.3-.345.553-.444.348-.1.338.148.493.605.285.658.084.475,0,.475-.088.468-.165.45-.236.426-.3.387-.363.345-.419.289-.651.288-.359,0-.633-.18-.179.014-.123.13-.436,1.123-.377.855-.443.778-.521.729-.577.648-.9.785-1,.641-1.1.51-1.235.4-1.32.26-1.436.127-1.475-.007-1.552-.144-1.309-.281-1.246-.468-1.19-.665-1.08-.831-.929-.964-.771-1.091-.584-1.172-.394-1.26-.391-2.038-.194-1.813-.01-1.658.183-1.506.366-2.8.144-.623.26-.475.327-.331.464-.281.57-.218.838-.229m-.071,3.918.007.007.2.088.211-.07.686-.458.725-.25h0l.827-.028.873.215.229-.018.137-.187.007-.042,0-.106-.067-.236-.2-.144-.556-.134-.535-.06-.51.021-.493.095h0l-.806.356-.742.591-.074.179.074.179m13.9.609-.01-.292-.148-.253-.732-.588-.788-.313h0l-.426-.053-.44.018-.922.246-.141.109-.06.165-.01.127v.042l.1.179.2.035.531-.109.5-.035.475.042.451.116h0l.56.275.514.412.169.056.148-.1.018-.053,0-.025m-11.427,1.187-.3.108-.263.323-.183.489-.075.58.045.583.157.5.246.336.3.124.3-.108.263-.323.183-.489.075-.58-.044-.583-.157-.5-.246-.336-.3-.124m9.379.461-.332.073-.309.285-.239.454-.132.554-.006.569.122.5.231.351.3.151.332-.073.309-.285.239-.454.132-.554.006-.569-.122-.5-.231-.351-.3-.151m-4.812,4.4.324-.289.123-.095.042-.148-.106-2.207-.074-.194-.176-.113-.116-.028-.13.025-.07.113h0v2.654l-.084.215-.2.1-.88.07-.144.053-.1.116-.021.151.056.144.134.095.669.141.845.017.194-.109.032-.222-.032-.06-.165-.144-.127-.092-.01-.158h0l.021-.035m9.614.19-.109-.358-.219-.329-.321-.286-.41-.233-.484-.17-.539-.1-.573-.028-.586.046-.576.118-.543.185-.49.246-.418.3-.33.337-.229.363-.12.376-.006.375.109.358.219.329.321.286.41.233.484.17.539.1.573.028.586-.046.576-.118.543-.185.49-.246.418-.3.33-.337.229-.364.12-.376.006-.375m-7.854,3.366.4-.292.289-.067.278-.13.148-.179-.007-.232-.077-.2,0-.007-.155-.148-.211.007-.918.327-1,.187-1.073.042-1.151-.095-.377-.134-.915-.553-.155-.025-.127.088-.06.088h0l-.056.271.155.232,1.021.69.116.1.676.595.739.408.732.166.637-.092.32-.155.3-.236.479-.662h0Z" transform="translate(-422.665 -155.972)" fill="#f1b699"/>
      <path id="Path_1012732" data-name="Path 1012732" d="M391.241,1363.605l-.088.1-.092.007-.039-.028-.063-1,.039-.895.148-.773.253-.666.715-1.4,1.017-2.041.591-1.39.486-1.517.014-.035.19-.172.264.028.06.052.035.22-.3,1.161-.514,1.327-.725,1.5-.936,1.657-.218.391h0l-.352.8-.253.847-.162.895-.067.943Z" transform="translate(-145.075 -157.035)" fill="#040403"/>
      <path id="Path_1012733" data-name="Path 1012733" d="M575.781,1373.02l.116,0,.151.212.172.788v.214l-.056.1-.01,0-.011,0h0l-.1-.057-.113-.186-.264-.764.017-.258.1-.063Z" transform="translate(-289.466 -172.068)" fill="#040403"/>
      <path id="Path_1012734" data-name="Path 1012734" d="M759.912,1385.3l-.074-.179.074-.179.743-.591.806-.356h0l.493-.1.51-.02.535.059.556.133.2.144.067.236,0,.107-.007.042-.137.188-.229.017-.873-.216-.827.028h0l-.725.251-.686.456-.211.072-.2-.089-.007-.006Z" transform="translate(-433.44 -180.557)" fill="#040403"/>
      <path id="Path_1012735" data-name="Path 1012735" d="M810.7,1387.81l0,.024-.018.055-.148.1-.169-.057-.514-.41-.56-.275-.45-.116-.475-.044-.5.037-.531.109-.2-.037-.1-.179h0v-.042l.011-.127.06-.166.141-.109.922-.247.44-.017.426.052h0l.788.314.732.587.148.253.01.293Z" transform="translate(-470.323 -182.457)" fill="#040403"/>
      <path id="Path_1012736" data-name="Path 1012736" d="M736.877,1402.778l-.042.052h-.028l-.387,0-.38-.092-.363-.175-.324-.253-.278-.321-.218-.373-.155-.412-.081-.439-.01-.114-.007-.443.07-.437.144-.408.211-.367.271-.31.317-.242.356-.166.38-.081.025,0,.028.009.025.039.447,4.54Z" transform="translate(-413.713 -191.744)" fill="#f1c1a2"/>
      <path id="Path_1012737" data-name="Path 1012737" d="M768.564,1398.62l.3.122.246.336.157.5.045.585-.075.578-.183.489-.263.323-.3.109-.3-.124-.246-.336-.157-.5-.044-.583.075-.581.183-.489.263-.323.3-.107Z" transform="translate(-439.618 -192.08)" fill="#040403"/>
      <path id="Path_1012738" data-name="Path 1012738" d="M810.844,1400.73l.3.151.231.351.122.5-.005.57-.132.554-.239.454-.309.284-.332.072-.3-.151-.23-.351-.122-.5.005-.57.132-.552.239-.454.309-.286.332-.072Z" transform="translate(-472.518 -193.729)" fill="#040403"/>
      <path id="Path_1012739" data-name="Path 1012739" d="M786.772,1410.147l.165.144.032.061-.032.223-.194.109-.845-.017-.669-.142-.134-.1-.056-.144.021-.151.1-.116.144-.054.88-.07.2-.1.084-.214v-2.654l.07-.114.13-.024.116.028.176.114.074.192.106,2.207-.042.148-.123.1-.324.288-.021.035.01.159.127.09Z" transform="translate(-453.142 -198.467)" fill="#040403"/>
      <path id="Path_1012740" data-name="Path 1012740" d="M815.169,1416.346l-.006.375-.12.375-.229.365-.33.336-.418.3-.49.247-.543.183-.576.118-.586.046-.573-.028-.539-.1-.484-.17-.41-.234-.321-.286-.219-.327-.109-.36.006-.373.12-.378.229-.362.33-.336.418-.3.49-.247.543-.186.576-.118.586-.046.573.028.539.1.484.17.41.231.321.286.219.33.109.358Z" transform="translate(-472.041 -204.76)" fill="#df9c78"/>
      <path id="Path_1012741" data-name="Path 1012741" d="M660.128,1422.967l.457,1.035.4.792.475.736h0l.7.834.813.749.933.666,1.049.578,1.257.6.134.122.042.177-.056.314-.134.247-.183.164-.349.1-2.411.092h0l-1.816.247-1.8.4-1.788.55-1.77.7-.331.207-.2.268h0l-.064.351-.039.114-.1.057-.1.013-.1-.061v-.227l.134-.29,0-.157-.137-.081-.088.031-.06.044-.693.454-.609.2-1.5.419-.859.356-3.65,2.183-.165.046-.169-.035-1.109-.6-1.042-.67-.975-.736-.911-.805h0l-.8-.821-.739-.875-.679-.941-.623-1-4.8-8.591-.01-.144.105-.1.032-.009,1.858-.155,1.869-.076,1.876,0,1.883.083,10,.735.144.063.07.137.746,5.278.106.282.215.212.282.1.3-.024.105-.046,1.038-.567.859-.552.757-.587.634-.613.725-.9.651-1.072.088-.063.1.026h0l.021.026Z" transform="translate(-336.369 -209.145)" fill="#74a87e"/>
      <path id="Path_1012742" data-name="Path 1012742" d="M782.385,1431.5l-3.53.238-.028.007-.028.131.507.443.553.229h0l.486.028.517-.116.549-.264.577-.4-.479.661-.3.236-.32.155-.637.092-.732-.166-.739-.408-.676-.6-.116-.1-1.021-.69-.155-.231.056-.271h0l.06-.09.127-.087.155.024.915.554.376.133,1.151.094,1.073-.041,1-.186.918-.327.211-.009.155.148,0,.007.078.2.007.231-.148.179-.278.131-.289.068Z" transform="translate(-446.713 -216.845)" fill="#040403"/>
      <path id="Path_1012743" data-name="Path 1012743" d="M789.481,1435.82l-.4.293-.577.4-.549.264-.517.116-.486-.028h0l-.553-.229-.507-.443.028-.131.028-.007,3.53-.238Z" transform="translate(-453.81 -221.16)" fill="#f1c1a2"/>
      <path id="Path_1012744" data-name="Path 1012744" d="M620.6,1459.116l-1.647,1.166-.218.087-.12-.017-.1-.092.011-.129.017-.022.546-.587.6-.517.588-.406.623-.34h0l.736-.3.771-.218.028-.007.12.052.039.124-.039.116-.176.151-1.784.943Z" transform="translate(-322.97 -238.288)" fill="#040403"/>
      <path id="Path_1012745" data-name="Path 1012745" d="M776.864,1458.82l1.777.273,1.767.046h0l1.858-.2,1.844-.45.19.02.116.157,0,.013.461,2.637-.032.179-.433.53-.648.463-.915.432-.992.321-1,.19-1.024.057-.947-.078-.918-.214-.82-.332-.757-.472-.2-.2-.134-.253-.06-.284.028-.288.584-2.386.1-.131.162-.028Z" transform="translate(-446.071 -238.882)" fill="#f1b699"/>
      <path id="Path_1012746" data-name="Path 1012746" d="M744.454,1467.624l.053-.116.123-.042.014,0,1.988.468,1.876.634,1.77.8,1.658.968h0l1.443,1.045,1.348,1.193,1.253,1.334,1.161,1.478,1.176,1.693,1.014,1.591.862,1.489.729,1.44.588,1.373.461,1.316.338,1.3.2,1.232.053,1.229-.12,1.179-.239.993-.356.947-.479.929-.588.876-.722.862-.817.8-.929.75-1.01.679-.975.468-.461.123-.44.046-.225-.077-.116-.2-.222-.869-.373-.82-.535-.8-.655-.711-.771-.634-.845-.51-.891-.376-.908-.222-.028-.007-.1-.1.01-.141,2.414-4.438,0-.007.141-.243.1-.225.169-.172.852-.531.9-.4h0l.746-.211.771-.13.806-.042.834.046.535.13.641.148.194-.1.01-.215h0l-.081-.084-.655-.306-.7-.169-.753-.046-.841.081-.869.208-.908.338-.883.447-.785.517-.007,0-.155.032-.134-.091-.486-.823-.267-.619-1.746-5.677-.095-.134-.155-.063-.176-.014-.109.039-.039.106,0,.025.961,3.421,1.147,3.407.338.591.179.275.049.165-.042.169-2.006,3.756-.222.183-.282-.032-.007,0-1.967-1.19-2.707-1.756-1.19-.707-1.211-.563-1.232-.422-1.26-.275h0l-1.693-.144-2.569.056-2.21.236-2.657.486-2.742.626-2.83.76-2.918.9-.095-.056v-.014l.264-3.108.095-.141.489-.282.352-.285.215-.288.074-.289h0l-.053-.282-.179-.282-.081-.19.046-.2.468-.683.612-.922.32-.834.081-.531.014-.162.077-.116.091-.19.116-.764.151-1.3-.053-.521-.137-.45,0-.01-.007-.341.106-.341h0l.1-.771-.074-.813-.253-.855-.426-.9-.134-.158-.179-.1-.2-.028-.2.046-.475.2-.236-.028-.091-.222.056-.12.289-.412.169-.44.053-.56-.113-.605-.053-.3.053-.26h0l.172-.236.3-.183,2.21-.831,2.26-.591,1.918-.313,1.953-.148.1.046.032.106-.007.021-.282.785-.028.2.053.194.577.95.746.813.528.408.57.338.641.281.676.208.746.148.778.074,1.679-.053,1-.176.992-.3.957-.408.838-.489.686-.545.517-.577.366-.623.218-.686.046-.433m6.367,5.274-.019-.2-.153-.127-.067-.021-.2.018-.127.154-.683,2.206.018.2.153.127.067.021.2-.018.127-.153.683-2.206m1.776,12.19.545-.616.584-.686.76-.556.82-.38h0l.535-.148.563-.078,1.19.049h.042l.116-.074.01-.137-.07-.179-.187-.236-.289-.091-.739.028-.7.106-.658.183-.619.264h0l-.838.524-.75.7-.4.581-.172.588.056.144.151.039.049-.021h0Z" transform="translate(-403.768 -245.803)" fill="#f3c288"/>
      <path id="Path_1012747" data-name="Path 1012747" d="M770.98,1467.278l.246-.024.186.072.046.2-.035.07-.25.465-.06.447h0l.084.336.2.327.317.321.429.31,1.165.592,1.2.356,1.365.133,1.365-.133,1.373-.4,1.32-.65.454-.317.362-.345.268-.373.179-.406h0l.081-.393,0-.419.07-.181.183-.052.049.015.137.057.211.2.028.29-.352.9-.531.74-.517.454-.824.524-.841.419-.859.306-.876.2h0l-.975.087-1-.039-1.021-.172-1.038-.3-.75-.336-.693-.458-.553-.528-.4-.594-.137-.546.018-.775.12-.253.25-.12Z" transform="translate(-441.848 -245.699)" fill="#f1b699"/>
      <path id="Path_1012748" data-name="Path 1012748" d="M627.016,1472.8l-1.753.932-.9.548-1.08.764-1.6,1.063-.229.251-.141.419-.091.166-.158.1-.18.018-.155-.072-.092-.142-.028-.334h0l.1-.251.2-.236,3.132-2.22.095-.057,2.661-1.286.162-.018.137.085.007.011.007.013.014.138-.095.107Z" transform="translate(-324.596 -249.795)" fill="#040403"/>
      <path id="Path_1012749" data-name="Path 1012749" d="M572.131,1476.705l.063.175-.079.17-.005,0-.175.063-.168-.081-3.51-3.857-.063-.175.079-.17.005,0,.175-.061.168.078,3.51,3.857Z" transform="translate(-283.625 -250.046)" fill="#040403"/>
      <path id="Path_1012750" data-name="Path 1012750" d="M395.338,1484.909l-.084.048-.141-.024-1.615-1.805-1.411-1.434-1.211-1.063-1-.69-.123-.146.007-.194.06-.148.109-.1.151.011.014.011,1.7,1.305,1.538,1.458h0l1.077,1.229.982,1.321.025.118-.067.1h0l-.007,0Z" transform="translate(-144.13 -255.189)" fill="#040403"/>
      <path id="Path_1012751" data-name="Path 1012751" d="M664.752,1501.712v-15.744l.046-.166.127-.116,4.551-2.423,4.343-2.479.89-.465.971-.4.933-.3.859-.177.028,0,.176.081.06.185-.035.131-.172.175-7.6,4.612-2.312,1.334-1.415.908-.222.258-.081.33v13.716l-.081.275-.222.188-.581.249-.158,0-.1-.126,0-.039Z" transform="translate(-359.109 -255.26)" fill="#fff"/>
      <path id="Path_1012752" data-name="Path 1012752" d="M672.153,1504.059l.12-13.365.063-.236.172-.172,10.551-6.142.271-.2.464-.452.074-.042.158.046.042.159-.151.362-.225.214-.162.161-.053.223-.13.821-.468,1.19-.218.725.007.3.084.264h0l.282.325.465.229.1.089v.135l-.007.013-.095.17-.56.714-.3.358-.134.3-.021.255.056.306.345.757.049.2-.056.2-.658,1.069-.028.074-.014.273.053.362.123.341.443.609.134.236h0l-.025.251-.169.277-.137.271-.014.3.116.264.218.17h0l.187.042.679-.011.144.074.01.161h0l-.056.063-2.076,1.288-2.277,1.436-3.446,2.4-3.534,2.37-.07.031-.225-.042-.1-.207Z" transform="translate(-364.894 -258.394)" fill="#fff"/>
      <path id="Path_1012753" data-name="Path 1012753" d="M425.762,1491.132l.084-.022.011.022,1.566,5.43-.039.157-.158.039-2.249-.644-.215-.111-.158-.188-.074-.231.021-.244,1.211-4.208Z" transform="translate(-171.319 -264.383)" fill="#83b9bc"/>
      <path id="Path_1012754" data-name="Path 1012754" d="M849.326,1493.761l-.127.153-.2.02-.067-.022-.153-.127-.018-.2.683-2.207.127-.153.2-.017.067.02.153.129.018.2-.683,2.2Z" transform="translate(-502.954 -264.461)" fill="#040403"/>
      <path id="Path_1012755" data-name="Path 1012755" d="M539.315,1512.905l-.725.271-.563.059-.067-13.98-.123-.334-.31-.168-10.4-1.412-10.428-1.229-2.136-.1-2.02.17-.831.013-.32-.042-1.084-.1-.679.063-.109.02-.113,0-.158-.07-.074-.155-.091-1.19.053-.218.169-.144.186-.153-.014-.164-.141-.1H509.3l-.116.028-.176-.022-.1-.144,0-.013-.039-.282.039-.127.12-.046.032,0,.521.079.549-.022h.37l28.94,3.42.148.079.063.155.123,15.573-.021.081-.2.2-.232,0Z" transform="translate(-237.243 -266.126)" fill="#fff"/>
      <path id="Path_1012756" data-name="Path 1012756" d="M724.934,1493.41l.091.218-.091.218-.363.371-.5.426-.507.284-.429.1-.289-.1-.018-.017-.105-.288.1-.43.285-.506.426-.5.363-.369.222-.089.218.089.6.6Z" transform="translate(-404.424 -265.641)" fill="#f3c288"/>
      <path id="Path_1012757" data-name="Path 1012757" d="M373.5,1497.752l.109-.092,2.235.186,2.562.308.778.168.267.14h0v.009l-.289.1-.8.035-2.576-.127-2.235-.188-.091-.109.035-.428Z" transform="translate(-131.399 -269.503)" fill="#040403"/>
      <path id="Path_1012758" data-name="Path 1012758" d="M722.545,1503.51l.31-.275.6-.253.155.013.095.12,0,.006.067.391.007.5-.081.506-.088.127-.148.031-.844-.111-.1.028-.046.087h0v.12l.07.175.172.074h0l.6.009.2.118-.014.229-.1.081-.408.109-.563.161-.327.258-.144.332-.084.164-.162.1-.546.157-.081.006-.158-.109.007-.192,1.2-2.08.018-.044-.035-.137-.13-.052-.408-.02-.236-.146h0l-.053-.34.014-.035,1.042-1.735.01-.006.345-.292.278-.522.165-.236.26-.133.275.006.211.148.091.271-.06.369-.155.36-.619.775-.528.559-.187.3.007.033Z" transform="translate(-403.025 -271.871)" fill="#f3c288"/>
      <path id="Path_1012759" data-name="Path 1012759" d="M481.212,1512.937l1.066.12,1.105.212,1.137.295,1.175.384.056.022,1.446.563,1.024.535.623.506.165.247.07.249v.028l-.035.159-.1.131-.324.1-1.225-.144-.595-.151-1.355-.452-1.411-.356-1.467-.266-1.524-.177-.236.063-.141.2-.032.109,0,.022.039.151.141.072,2.112.192,1.753.343,1.285.461.471.275.37.317.1.183,0,.207-.1.183-.172.116h0l-.169.024-.4-.02-2.2-.1-1.45.033-1.6.194-.4.166-.633.347-.781.253-.855.142-.971.035-1.063-.074-1.119-.179-1.158-.29-1.1-.369-.169-.127-.081-.2-.035-1.246.158-1.4.352-1.541.535-1.648,0-.007.267-.434.451-.362.306-.109,1.109-.242.377-.166.257-.194.169-.179,1.8-1.792.7-.535.669-.382.387-.061,2.541.487,2.453.731h0l2.15.88,2.073,1.085.077.057.1.151.024.183-.056.172-.127.133-.176.116-.44.155-.461-.063-1.608-.581-1.6-.478-1.594-.384-1.587-.282-.211.052-.109.188v.028l.063.225.2.122,2.984.655,2.6.8,1.112.515.961.685.542.533.482.6.088.24-.042.251-.162.2-.236.092-.253-.044-3.062-1.362-1.151-.362-1.207-.295-1.26-.225-1.313-.159-.3.046-.25.177-.077.087-.021.081.053.063.028.006Z" transform="translate(-208.781 -277.101)" fill="#f1b699"/>
      <path id="Path_1012760" data-name="Path 1012760" d="M525.763,1512.366l.362-.031.324-.113.4-.292.324-.454,0,0,.063-.218-.025-.225-.109-.2-.179-.142-3.351-1.735-.084-.031-2.175-.716-.018-.1.032-.015h.7l.612.092.609.186.489.068.285-.035,1.07-.057,9.622,1.063,9.84,1.327.507.07.327.044.225.14.113.2.035.275-.032,6.153.12,6.6-.095.247-.243.1H545.5l-.078,0-4.146-.262-2.935-.347-8.813-1.3-7.458-.869-.194-.052-.162-.12-1.144-1.327-.26-.347-.3-.216-.172-.127-.113-.183-.017-.19.074-.157.123-.074.623-.061.616.046,1.257.072.887-.046.679-.17.5-.295.158-.257-.095-.314-.366-.354-.021-.028.074-.089.859.142.665.017.486-.109.275-.229.074-.2,0-.268-.232-.644-.014-.046.046-.116.12-.028.468.035h0l.465-.133.447-.31.144-.31-.025-.31-.1-.306-.426-.661-.722-.7-1.035-.781-.039-.081.049-.074.042-.011Z" transform="translate(-245.727 -277.656)" fill="#fff"/>
      <path id="Path_1012761" data-name="Path 1012761" d="M653.364,1524.8l-.3-.155-.13-.155-.049-15.8.081-.094,1.844-.262.088.068v15.955l-.07.33-.2.31-.257.212-.194.081H654l-.141-.1-.243-.253-.257-.131Z" transform="translate(-349.832 -277.844)" fill="#fff"/>
      <path id="Path_1012762" data-name="Path 1012762" d="M888.454,1521.428l-.011-.028.021-.085.081-.035,5.856.367,4.984.386.239.022,2.527.133,2.4.12,1.492.194,1.337.351,1.246.522,1.1.672.76.611.675.69.626.792.55.858.5.98.428,1.041.358,1.124.306,1.238.236,1.286.181,1.384.175,3.069-.057,3.433-.295,4.291-.989,11.175-.275,2.211-.083.111-.142.006-.033-.015-14.087-9.957-.338-.282-.19-.279-.084-.338-.007-.537.007-.4.077-3.176.222-3.082.373-2.984.521-2.89.338-1.255.489-1.238.623-1.161.714-1.017.813-.88.866-.7.961-.559.982-.367,1.07-.212,1.01-.022.964.166.876.343.528.317.482.386.433.447.384.511.33.568.275.622.216.668.153.718.114.17.2.031h0l.024-.006.1-.039.151-.133.028-.2-.443-1.482-.306-.672-.351-.6-.4-.539-.437-.465-.5-.419-.535-.34-.567-.271-.595-.2-.648-.129-.662-.057-.679.02-.679.1-1.348.4-1.281.672-1.179.923-1.01,1.133-.788,1.277-.739,1.713-.584,1.9-.433,2.082-.278,2.263-.285,4.2-.144,4.147-.1.183-.2.033-.063-.037-11.16-8.421-.028-.028-.053-.172.1-.153L887,1537.9l1.024-.853.9-.921.778-1.01.62-1.035.482-1.1.324-1.111.172-1.161,0-1.377-.3-1.844-.584-1.953-.862-2.058-1.1-2.045Z" transform="translate(-531.898 -287.967)" fill="#749eba"/>
      <path id="Path_1012763" data-name="Path 1012763" d="M723.129,1525.117l.676-.332.6-.116.081.013.137.159-.053.2-.261.317-.408.749-.208.3-.781.69-.039.031-.19.081h-.2l-.187-.083-.137-.155-.1-.225-.046-.522.071-.148.144-.076.8-.131.014,0,.116-.087.014-.148-.1-.214,0-.006-.032-.159.1-.129Z" transform="translate(-403.869 -290.618)" fill="#f3c288"/>
      <path id="Path_1012764" data-name="Path 1012764" d="M861.7,1537.432l-.049.02-.151-.037-.056-.144.172-.589.4-.581.75-.7.838-.526h0l.619-.262.658-.183.7-.107.739-.026.289.089.187.236.07.181-.01.137-.116.072h-.042l-1.19-.048-.563.076-.535.148h0l-.82.38-.76.557-.584.685-.545.618Z" transform="translate(-512.865 -298.146)" fill="#040403"/>
      <path id="Path_1012765" data-name="Path 1012765" d="M722,1538.266l.045-.135.114-.114.358-.087.348.122.1.122.031.142-.045.135-.114.114-.358.087-.348-.122-.1-.124-.031-.14Z" transform="translate(-403.859 -300.983)" fill="#dfddd8"/>
      <path id="Path_1012766" data-name="Path 1012766" d="M685.318,1556.811l7.422-4.885.018-.006.067.059-.215,2.532-.144.179-7.074,2.276h-.056l-.056-.07.039-.085Z" transform="translate(-375.155 -311.92)" fill="#74a87e"/>
      <path id="Path_1012767" data-name="Path 1012767" d="M678.677,1565.4l-1.63,2.414-.007.014-.025.194.127.155.232.2.225.363.165.193.25.116.306.028.32-.067.415-.2.4-.285.387-.376.373-.465.056-.046.13.021.049.123-.088.292-.155.215-.194.13-.127.1-.07.144-.046.567.137.457h0l.313.348.267.12.3.007.3-.109.25-.211,1.4-1.665.141-.049.113.1.007.074-.06.584.028.535.113.475.2.426.229.165.444.046.37-.1.3-.232.225-.37.911-1.932.327-.574.246-.313.2-.183.883-.813.507-.6.334-.57.313-.743.123-.137.187-.021.194.1.271.081.943-.067.334.046.3.151,8.091,5.9,8.2,5.867,8.309,5.843,8.415,5.818.039.032.06.194-.113.169-.37.26-.3.3-1.682,2.165-1.693,2.527-1.8,3.027-2.214,4.03-.014.021-.179.113-.208-.056-3.242-2.443-4.033-2.7-14-8.8-11.583-7.06-3.178-1.957-3.984-2.446-2.83-1.612-.725-.306-.908-.243-.348-.018-.841.12-.771.19-.707.26-.641.331-11.283,6.758-3.632,2.073-3.773,2.055-3.914,2.045-4.058,2.031-2.5,1.119-.13-.01-.078-.106,0-.028-.159-8.929-.44-10.636-.165-1.7-.313-1.482-.007-.028.053-.211.194-.1.975-.187.817-.4h0l.383-.313.334-.38.289-.443.243-.51.8-2.151.338-1.4.056-.141.12-.095,3.678-1.45,1.862-.669,1.844-.567,13.342-3.6,1.827-.443,1.686-.345,1.563-.239,1.485-.148,1.436-.06,1.362.039,1.348.13,1.274.225.662.194.788.324,1.939,1.038,5.075,3.037.148.232-.095.257-.07.049-1.109.489-1.031.32-1.073.218-1.109.109-1.151,0-.352.028-.338.106-.3.183-.253.246-.94,1.285-.046.134.07.169.106.078.183-.01.531-.078.869.042.51.039.039.007.081.088-.025.116-.736.831-.823.961-.257.433-.169.415-.106.5-.021.577.063.306.151.257.218.183.26.078.345-.042.447-.2,1.183-.911.356-.3.056-.021.084.049,0,.1m-8.158,7.074.088.035.208-.074.053-.215-.345-1.52-.236-1.52-.12-1.514-.01-1.513h0l.095-1.411.19-1.408-.042-.257-.194-.176-.091-.039-.246.007-.155.187-.007.042-.169,2.281,0,2.189.162,2.1.331,2.017.134.387.225.3h0l.134.1m-5.054-5.593-.134,0-.237.231,0,.135,3.224,3.316.134,0,.237-.231,0-.134-3.224-3.316m.246,3.935-.081-.107-7.859-1.077-.107.081-.067.488.081.107,7.859,1.077.107-.081.067-.488Z" transform="translate(-337.579 -312.83)" fill="#83b9bc"/>
      <path id="Path_1012768" data-name="Path 1012768" d="M287.881,1558.461l-.035.107-.13.094-1.971-.072-1.563-.079-1.193.081-1.33.24-1.271.305-1.242.384-1.154.437-1.091.506-.985.552-.908.609-.848.688-.246.087-.239-.1,0-.009-.011-.011-.07-.225.113-.2,1.232-.873,1.334-.788,1.383-.672,1.443-.561,1.408-.415,1.429-.288,1.408-.142h1.33l3.041.107.141.066.039.153-.007.026Z" transform="translate(-53.323 -316.759)" fill="#040403"/>
      <path id="Path_1012769" data-name="Path 1012769" d="M469.485,1559.537l.282.013.387.118.274-.055h0l.127-.155.063-.247-.021-.236-.105-.29-.109-.454.074-.114.134-.024.01,0,1.58.423,1.527.271,1.475.12,1.418-.033.348-.07,2.773-.958.116.02.056.1-.007.039-.021.522.2.681.373.509.267.312.162.288.081.264.025.057.127.063.123-.074.063-.253h0l-.014-.063-.162-.183-.3-.236-.211-.282h0l-.123-.312-.046-.36.092-.166h.19l.071.079.633,1.074.327.393.338.3.042.094-.056.085-.053.011-2.9-.179-.056-.007-.222-.177-.011-.282.662-1.567.007-.048-.06-.068-.088.018-.419.482-.282.535h0l-.162.8h0l-.1.207-.215.074-8.429-.522-.148-.079-.042-.157h0l.007-.024v-.181l-.081-.094Z" transform="translate(-206.462 -316.555)" fill="#e08b82"/>
      <path id="Path_1012770" data-name="Path 1012770" d="M816.222,1583.025l-.229-.074-.151-.172-.039-.225.077-.216.179-.144,1.07-.24,1.879-.14.63-.081,1.366-.373,1.309-.345,1-.035.883.22.926.487.926.7.69.751.468.823.2.827.007.5-.081.517-.162.5-.246.517-.408.506-.743.626-.721.607-.352.471-1.214,2.545-.2.131-.218-.092h0l-.046-.083-.134-.679.028-.57.169-.626.31-.7.538-.96.011-.022.035-.258-.155-.2-.011-.006-.267-.05-.236.142-1.721,2.1-1.348,1.48-.3.127-.148-.035-.109-.092-.032-.063-.01-.234.1-.31,1.052-2.052,1.087-1.692.018-.164-.13-.1h0l-.084.015-.454.192-.211.164-.563.709-1.088,1.314-.831.773-.574.4-.19.013-.123-.146v-.074l.169-.823.352-1.043.5-1,.647-.96.8-.928.12-.242-.035-.271-.053-.107-.014-.02-.13-.081-.151.046-3.868,3.414-.144.076h-.165l-.145-.076-.095-.133h0l-.025-.118.035-.426.116-.428.486-.936.813-1.017,1.211-1.207.468-.29.493-.34.091-.133v-.2l-.165-.114-.084.011-.067.022-1.457.382-1.137.044Z" transform="translate(-476.89 -334.637)" fill="#f1b699"/>
      <path id="Path_1012771" data-name="Path 1012771" d="M623.993,1582.36l.13.155.3.155,0,.762-.074.749h0l-.148.736-.225.725-.437,1.1-.419.788-.468.6-.531.439-.5.262-.595.175-.38-.055-.253-.29-.588-1.334-.679-1.157-.774-.987-.866-.821-.218-.168-1.373-1.122-.032-.1.074-.081.049,0,2.031.207,2.069.035.792-.083.8-.216.563-.059.725-.271.464-.011.567-.124Z" transform="translate(-320.89 -335.716)" fill="#f1c1a2"/>
      <path id="Path_1012772" data-name="Path 1012772" d="M786.284,1607.472l-.134-.1h0l-.225-.295-.134-.389-.331-2.017-.162-2.1,0-2.189.169-2.281.007-.042.155-.188.246-.007.091.039.194.175.042.258-.19,1.408-.095,1.412h0l.01,1.513.12,1.515.236,1.519.345,1.521-.053.214-.208.074-.088-.035Z" transform="translate(-453.344 -347.832)" fill="#040403"/>
      <path id="Path_1012773" data-name="Path 1012773" d="M553.875,1615.083l-.1.039-.025.007-.144-.026-.07-.131-.028-2.268.225-2.259.458-2.128.683-1.947.4-.86.465-.812.5-.729.553-.672.577-.581.63-.513.647-.43.7-.362,1.19-.412,1.235-.207,1.362-.011,1.4.183.553.177.56.312.563.447.57.581.113.229-.021.253-.007.017-.106.1-.141-.022h0l-.032-.028-.63-.633-.662-.506-.7-.382-.725-.255h0l-.876-.135-.918.033-.859.148-.8.22-.771.308-.707.375-1.105.821-.979,1.048-.845,1.281-.69,1.489-.538,1.716-.38,1.886-.211,2.069-.042,2.152-.074.253-.208.164Z" transform="translate(-272.146 -350.115)" fill="#040403"/>
      <path id="Path_1012774" data-name="Path 1012774" d="M768.545,1619.6l0,.135-.237.231-.135,0-3.224-3.316,0-.135.237-.229h.134l3.224,3.315Z" transform="translate(-437.435 -362.232)" fill="#040403"/>
      <path id="Path_1012775" data-name="Path 1012775" d="M821.988,1619.166l-.042.05-.148,0-.105-.14.151-.48.063-.042.067.033h0l.014.035v.548Z" transform="translate(-481.794 -364.007)" fill="#5a667a"/>
      <path id="Path_1012776" data-name="Path 1012776" d="M738.655,1630.562l-.107.081-7.859-1.076-.081-.109.067-.487.107-.081,7.859,1.076.081.107-.067.489Z" transform="translate(-410.59 -372.09)" fill="#040403"/>
      <path id="Path_1012777" data-name="Path 1012777" d="M719.244,1690.125l-1.9,1.531-1.844,1.756-1.791,1.978-1.732,2.2-1.373,1.8-1.176,1.408-.222.109-.232-.077-1.858-1.492-2.062-1.707-3.583-3.122-2.031-1.7-1.542-1.2-6.317-4.734-5.269-4.09-4.452-3.625-3.678-3.2-4.509-4.167-5.73-5.427-.232-.172-.264-.109-.285-.039-.285.028-3.051.658-2.256.3-9.267.595-3.284.113-3.09.018-3.558-.091-.187-.084-.074-.187v-3.636l.053-.155.141-.088,1.573-.514,2.041-.943,6.9-3.622,7.6-4.238,11.523-6.863.567-.278.637-.194.707-.113.778-.032.391.06,1.07.412,1.063.6,1.052.785,1.045.968,12.769,13.3,5.74,5.948,5.934,6.015,6.127,6.078,6.325,6.142,2.284,2.077.827.729.014.014.049.148-.077.134m-58.666-34.136.486.253.137-.042.1-.19.334-.859.032-.3-.074-.148h0l-.049-.028-.165.028-.229.194-.514.767-.1.19-.007.007.049.13m3.17,3.1-.113-.072-.412.091-.072.113,1.057,4.77.113.072.412-.091.072-.113-1.057-4.77m4.052,5.28.961-1.285,0-.113-.014-.01-.039-.028h0l-.2-.084-.236.021-.236.116-.2.2-.2.264-.134.246-.046.26.046.232.134.169h0l.042.032.032.014.091-.032h0Z" transform="translate(-341.41 -386.028)" fill="#83b9bc"/>
      <path id="Path_1012778" data-name="Path 1012778" d="M815.883,1659.124l.112,0,.014,0,17.84,10.988.225.225.1.3.443,5.437.007,1.015-.113.971-.028.079-.2.14-.232-.081-18.2-18.943.014-.127.014-.006Z" transform="translate(-477.231 -395.722)" fill="#749eba"/>
      <path id="Path_1012779" data-name="Path 1012779" d="M554.058,1681.819l.067-.161.162-.076.109-.011.13.046.06.122v.009l.078,4.241.482,8.89.7,9.062.9,9.237,1.116,9.407.521,3.119.714,2.818-.032.216-.183.116h-.06l-.289-.116-.159-.268-.7-3.643-.493-3.208-1.035-8.691-.855-8.718-.669-8.744-.486-8.77-.081-2.58v-2.3Z" transform="translate(-272.575 -413.271)" fill="#040403"/>
      <path id="Path_1012780" data-name="Path 1012780" d="M726.567,1684.466l-.042-.138.1-.19.514-.766.229-.194.165-.028.049.028h0l.074.148-.032.3-.334.86-.1.19-.046.046-.091,0-.486-.253Z" transform="translate(-407.399 -414.507)" fill="#040403"/>
      <path id="Path_1012781" data-name="Path 1012781" d="M1111.32,1709.8l.559-1.526.236-.72.17-.838.1-.958.033-1.076.05-.159.133-.1,2.143-.718,2.087-.6,1.131-.242.936-.074.794.1.685.255.308.19.026.026.028.129-.081.1-2.558,1.39-2.488,1.665-3.1,2.3-1.046.834-.013.037-.074.028-.063-.046Z" transform="translate(-708.206 -429.86)" fill="#e08b82"/>
      <path id="Path_1012782" data-name="Path 1012782" d="M740.158,1707.891l-.072.114-.412.092-.114-.072-1.057-4.769.072-.114.412-.092.113.072,1.057,4.769Z" transform="translate(-416.762 -430.063)" fill="#040403"/>
      <path id="Path_1012783" data-name="Path 1012783" d="M1082.052,1708.517v.426l-.085.465-.506,1.626-.7,1.615-.891,1.6-1.085,1.589-2.274,2.9-2.484,2.912-2.7,2.914-2.914,2.92-.733.626-.805.554-.858.461-.838.327-.792.181-.714.05-.666-.087-.631-.229-.6-.423-.144-.179-.081-.214-.046-.247-.052-1,.14-1.059.327-1.048.524-1.08.722-1.113.9-1.109,1.1-1.124,1.235-1.076.277-.225,4.564-3.682,3.1-2.4,2.811-2.028,2.733-1.794,1.945-1.17.131-.009.085.094.006.033Z" transform="translate(-669.221 -434.238)" fill="#f3c288"/>
      <path id="Path_1012784" data-name="Path 1012784" d="M1033.967,1731.273l-.033.076-.081.015-.028-.011-1.862-1.358-1.689-1.532h0l-.9-.967-.838-1.026-.781-1.08-.72-1.139-.037-.218.12-.183,2.942-2.076,1.521-1.126,1.528-1.314,1.449-1.43,1.257-1.432.587-.834.45-.873.1-.142.151-.081,8.462-2.445.031-.009.218.061.1.2,0,.9-.081.9-.161.845-.242.814-.306.725-.389.688-.448.6-.526.552-.371.31-1.229.941-2.117,1.644-1.51,1.27-1.275,1.224-1.054,1.2-.862,1.218-.659,1.231-.443,1.231-.24,1.233-.037,1.39Z" transform="translate(-642.29 -437.13)" fill="#e08b82"/>
      <path id="Path_1012785" data-name="Path 1012785" d="M902.427,1712.47l.049-.118.123-.033.042.017,6.265,3.857.214.227.078.3-.091,9.992.06.111.123.022.042-.024.222-.179.032-.061.081-9.39.01-.07.155-.166.225.02,3.7,2.353,3.344,2.213,2.995,2.067,2.647,1.927.236.1.257,0,.834-.207.162.035.074.144,0,.042-.543,2.246-.321.917-.352.795-.4.707-.464.648-.507.541-.577.478-.57.356-.637.292-.669.223-.736.155-2.8.506-.229-.068-12.564-12.212-.3-.476-.035-.559.151-1.3.035-1.5-.077-1.74-.211-2.438-.07-.751Z" transform="translate(-544.907 -437.31)" fill="#749eba"/>
      <path id="Path_1012786" data-name="Path 1012786" d="M1012.843,1726.139l-.207-.007-2.984-2.248-.092-.131,0-.155.546-1,2.067-3.152,1.949-2.77.528-.637.581-.537.148-.057.148.042.784.478.805.406.825.327.845.249h0l.869.177.891.1.91.022.93-.059h.044l.111.081,0,.14-.539.912-.749.915-2.514,2.562-1,.9-.827.644-4.079,2.794Z" transform="translate(-628.656 -439.757)" fill="#f1b699"/>
      <path id="Path_1012787" data-name="Path 1012787" d="M758.571,1722.129l-.123.02-.042-.033h0l-.134-.168-.046-.234.046-.26.134-.247.2-.264.2-.2.236-.116.236-.022.2.085.039.028.014.009,0,.114-.961,1.283Z" transform="translate(-432.18 -443.79)" fill="#040403"/>
      <path id="Path_1012788" data-name="Path 1012788" d="M669.765,1743.129l-4.009,1.148-6.574,1.707-5.782,1.432-4.994,1.155-4.2.884-.2.116-.084.218,0,.024v.017l.078.153.162.046.542-.063.894-.124,11.332-2.728,13.188-3.4.267,0,.239.124,7.338,6.458.148.229.011.271-.165.943-.141,3.78.07,3.625-.1.341-.3.2-39.312,9.724-.169-.035-.081-.151,0-.044.239-1.565.2-1.853.3-4.547.19-8.032.049-7.591-.116-6.135v-.009l.091-.216.222-.081,4.223.094,4.487-.07,4.825-.236,5.522-.421,2.636-.356,2.675-.615.493-.007.426.238,5.4,5.247-.01.107-.014.007Z" transform="translate(-338.134 -457.017)" fill="#749eba"/>
      <path id="Path_1012789" data-name="Path 1012789" d="M823.56,1798.618l2.541,2.143,2.812,2.253,3.09,2.368,3.361,2.479.2.192.12.234.024.242-.07.218-.208.271-.285.24-.658.282-1.418.22-1.46.085-1.482-.059-1.482-.205-1.4-.334-1.355-.467-1.253-.585-1.179-.716-.232-.26-.088-.34-.007-5.131.074-1.916.144-1.144.011-.028.091-.07.113.028Z" transform="translate(-482.916 -504.75)" fill="#749eba"/>
      <path id="Path_1012790" data-name="Path 1012790" d="M965.144,1809.77l2.992-.36.176.061.063.175-.317,2.995-.141.181-.225-.05-2.675-2.637-.06-.2.067-.111.12-.052Z" transform="translate(-593.789 -513.208)" fill="#be9583"/>
      <path id="Path_1012791" data-name="Path 1012791" d="M1065.169,1838.912l.314-.642h0l.489-1.24.375-1.29.262-1.342.14-1.4.068-.186.157-.124.061-.024,2.1-.749.851-.216.771-.116.69-.017.578.076.506.172.447.286.116.1.033.035.07.3-.177.249L1071.18,1834l-1.517,1.272-2.207,2.012-2.15,1.742-.092.011-.055-.074.009-.048Z" transform="translate(-672.121 -530.531)" fill="#e08b82"/>
      <path id="Path_1012792" data-name="Path 1012792" d="M994.34,1838.55l.087.011.055.074v.013l-.026,1.085-.133,1.039-.236.991-.345.952-.393.81-.482.773-.533.642-.8.777-2.41,1.951-2.809,2.255-2.678,2.436-.672.7-.644.775-.559.788-.5.834-.393.8-.325.825-.22.79-.138.8-.1.155-.183.017-.05-.028-1.547-1.275h0l-1.355-1.307-1.257-1.419-1.158-1.526-1.063-1.635-.007-.015-.018-.214.148-.161,1.725-.862,1.612-.982,1.5-1.1,1.384-1.218h0l1.08-1.124,1-1.207.919-1.292.834-1.375.218-.179,10.483-3.377Z" transform="translate(-600.419 -535.988)" fill="#e47c81"/>
      <path id="Path_1012793" data-name="Path 1012793" d="M1027.633,1840l.055-.013.114.059.011.127-1.27,2.591-1.517,2.563-1.764,2.512-1.995,2.458-3.992,4.455-3.353,3.477-1.163,1.043-1.117.775-1.1.524-1.115.3-.954.081-.65-.087-.443-.279h0l-.223-.432-.039-.6.177-.982.384-1.039.581-1.052.775-1.087.989-1.142,1.181-1.172,1.384-1.218,1.7-1.353,3.372-2.606,3.329-2.674,2.652-2.113,2.078-1.764.98-.777.936-.574Z" transform="translate(-626.749 -537.114)" fill="#f3c288"/>
      <path id="Path_1012794" data-name="Path 1012794" d="M839.955,1847.481l.067.718.331,1.63.57,1.628.82,1.681,1.19,1.967.021.131-.081.1-.014.009-1.07.358-1.123.234-1.172.1-1.228-.024-1.221-.223-1.091-.445-1.038-.694-1.014-.96-1-1.24-1.147-1.713-.862-1.6-.574-1.465-.271-1.321.063-.172.176-.052.049.013,1.552.6,1.591.434,1.513.249,1.545.1,1.577-.044,1.608-.192h.011l.155.041.07.144Z" transform="translate(-488.323 -541.913)" fill="#f1b699"/>
      <path id="Path_1012795" data-name="Path 1012795" d="M974.023,1850.479l.046,0,.1.092-.007.14-.947,1.489h0l-1.139,1.458-1.288,1.351-1.436,1.242-1.587,1.142-1.781,1.028-.785.347-.718.234-.151-.007-.127-.085-1.644-2.028-.074-.155.074-.3,2.059-2.445,1.721-1.862,1.658-1.572,1.672-1.347.169-.052.162.066.514.406.55.327h0l.664.277.716.179.764.085.812-.011Z" transform="translate(-591.86 -544.274)" fill="#f1c1a2"/>
      <path id="Path_1012796" data-name="Path 1012796" d="M823.51,1853.111l.489,1.152.549,1.109.605,1.069.669,1.028h0l.732,1,.792.954.676.69.718.585.76.478.8.367h0l1.112.319,1.183.138,1.235-.017,1.161-.146,1.087-.273,1.014-.4.116-.009.088.072.788,1.467.521,1.266.282,1.124.035.976-.049.227-.134.251-.2.212-.605.345-.883.225-1,.074-1.792-.131-1.675-.327-1.559-.524-1.443-.718h0l-1.327-.919-1.211-1.115-1.091-1.31-.978-1.51-.978-1.5-1.316-1.663-.084-.028-.064.054v.05l.162.45.525.98,1.014,1.329.8,1.017.018.055-.046.081-.095-.009-1.253-1.046-.9-1.065-.292-.5-.208-.515-.1-.478,0-.482.187-1.264.246-1.163.306-1.063.37-.965.1-.079.116.039.028.042Z" transform="translate(-482.159 -547.307)" fill="#e47c81"/>
      <path id="Path_1012797" data-name="Path 1012797" d="M268.669,1859.47l1.095.925,1.176.766,1.242.592,1.362.454,1.563.338,1.872.253.243.131.081.264-1.105,13.072-.169.4-.37.223-1.439.253-1.359.076-1.27-.1-1.19-.286-.383-.266-.172-.437-1.3-16.593,0-.033.123-.026Z" transform="translate(-49.378 -552.342)" fill="#be9583"/>
      <path id="Path_1012798" data-name="Path 1012798" d="M929.971,1883.658l.007.059-.014.013-.162.1-.25,0-.3-.1-.3-.19-.081-.063-.253-.247-.173-.262-.063-.242.056-.183.014-.017.06-.006,1.453,1.148Z" transform="translate(-565.201 -570.353)" fill="#fff"/>
      <path id="Path_1012799" data-name="Path 1012799" d="M569.342,1910.21l-1.464,12.382-.1.34-.2.292-.278.218-.334.116-1.443.17-1.429,0h0l-.989-.1-.982-.19-.239-.094-.2-.164-.144-.214-.074-.251-1.7-12.035.017-.1.169-.085,1.679.2,1.58.1.644.009,1.612-.138,2.235-.412,1.387-.277.032,0,.165.07.056.17Z" transform="translate(-277.037 -591.819)" fill="#be9583"/>
    </g>
  </g>
</svg>
