<svg xmlns="http://www.w3.org/2000/svg" width="1020" height="500" viewBox="0 0 1020 500">
  <g id="img4" transform="translate(-290 -2979)">
    <rect id="Rectangle_461455" data-name="Rectangle 461455" width="1020" height="500" rx="9" transform="translate(290 2979)" fill="#fff7ed"/>
    <g id="Group_1197758" data-name="Group 1197758" transform="translate(2589.581 12128.827)">
      <path id="Path_1020506" data-name="Path 1020506" d="M137.143.5h-85.5a8.4,8.4,0,0,0-7.275,4.2L1.626,78.742a8.4,8.4,0,0,0,0,8.4l42.747,74.04a8.4,8.4,0,0,0,7.275,4.2h85.5a8.4,8.4,0,0,0,7.275-4.2l42.748-74.04a8.4,8.4,0,0,0,0-8.4L144.418,4.7A8.4,8.4,0,0,0,137.143.5Z" transform="translate(-2197.081 -9049.154)" fill="#fff"/>
      <path id="Path_1020507" data-name="Path 1020507" d="M129.6,12.7H55.482a4.38,4.38,0,0,0-3.793,2.19L14.63,79.08a4.38,4.38,0,0,0,0,4.38l37.059,64.188a4.38,4.38,0,0,0,3.793,2.19H129.6a4.38,4.38,0,0,0,3.793-2.19L170.451,83.46a4.38,4.38,0,0,0,0-4.38L133.392,14.892A4.38,4.38,0,0,0,129.6,12.7" transform="translate(-2195.225 -9047.482)" fill="#959a79"/>
      <path id="Path_1020508" data-name="Path 1020508" d="M55.163,146.889a1.753,1.753,0,0,1-1.515-.876L16.591,81.826a1.747,1.747,0,0,1,0-1.749L53.649,15.889a1.754,1.754,0,0,1,1.515-.874h74.118a1.754,1.754,0,0,1,1.515.874l37.059,64.188a1.753,1.753,0,0,1,0,1.749L130.8,146.013a1.753,1.753,0,0,1-1.515.876Z" transform="translate(-2194.908 -9047.165)" fill="#bac197"/>
      <path id="Path_1020509" data-name="Path 1020509" d="M86.125,186.638h0a25.262,25.262,0,0,1-25.262-25.261V115.589h50.525v45.788a25.262,25.262,0,0,1-25.262,25.261" transform="translate(-2188.81 -9033.386)" fill="#bac197"/>
      <path id="Path_1020510" data-name="Path 1020510" d="M113.6,30.98H65.631A6.245,6.245,0,0,0,60.222,34.1L36.239,75.643a6.243,6.243,0,0,0,0,6.243l23.983,41.541a6.245,6.245,0,0,0,5.409,3.122H113.6A6.245,6.245,0,0,0,119,123.428l23.983-41.541a6.243,6.243,0,0,0,0-6.243L119,34.1A6.245,6.245,0,0,0,113.6,30.98Z" transform="translate(-2192.298 -9044.978)" fill="none" stroke="#fff" stroke-miterlimit="10" stroke-width="1.157"/>
      <g id="Group_1197765" data-name="Group 1197765" transform="translate(-2131.685 -8995.227)">
        <g id="Group_1197766" data-name="Group 1197766" transform="translate(3.398 18.592)">
          <g id="Group_1197765-2" data-name="Group 1197765">
            <path id="Path_1020511" data-name="Path 1020511" d="M39.742,196.623h-.774v-31.49a1.133,1.133,0,1,0-2.266,0v31.49H35.664A5.67,5.67,0,0,0,30,202.287a1.133,1.133,0,0,0,1.133,1.133H44.273a1.133,1.133,0,0,0,1.133-1.133A5.67,5.67,0,0,0,39.742,196.623Zm-7.282,4.531a3.4,3.4,0,0,1,3.2-2.266h4.078a3.4,3.4,0,0,1,3.2,2.266Z" transform="translate(-30 -164)" fill="#4a4e3c"/>
          </g>
        </g>
        <g id="Group_1197768" data-name="Group 1197768" transform="translate(0 0.02)">
          <g id="Group_1197767" data-name="Group 1197767" transform="translate(0)">
            <path id="Path_1020512" data-name="Path 1020512" d="M22.392,14.706,17.03.773A1.133,1.133,0,0,0,15.972.047H6.495A1.133,1.133,0,0,0,5.437.773L.075,14.706a1.133,1.133,0,0,0,1.057,1.54H3.965v5.075a1.133,1.133,0,0,0,2.266,0V16.246h15.1a1.133,1.133,0,0,0,1.057-1.54ZM2.782,13.981,7.272,2.313h7.922l4.49,11.668Z" transform="translate(0 -0.047)" fill="#4a4e3c"/>
          </g>
        </g>
        <g id="Group_1197770" data-name="Group 1197770" transform="translate(3.965 24.143)">
          <g id="Group_1197769" data-name="Group 1197769">
            <path id="Path_1020513" data-name="Path 1020513" d="M36.934,213.332a1.132,1.132,0,1,0,.332.8A1.14,1.14,0,0,0,36.934,213.332Z" transform="translate(-35 -213)" fill="#4a4e3c"/>
          </g>
        </g>
        <g id="Group_1197772" data-name="Group 1197772" transform="translate(14.726 25.889)">
          <g id="Group_1197771" data-name="Group 1197771">
            <path id="Path_1020514" data-name="Path 1020514" d="M169.137,234.985v-1.266a5.308,5.308,0,0,0-5.3-5.3h-7.668a1.133,1.133,0,1,0,0,2.266h7.668a3.04,3.04,0,0,1,3.037,3.037v1.266a5.278,5.278,0,0,0-4.122,4.786,3.286,3.286,0,0,0-1.048-.172H141.57a3.286,3.286,0,0,0-1.048.172,5.277,5.277,0,0,0-4.122-4.786v-1.266a3.04,3.04,0,0,1,3.037-3.037h7.441a1.133,1.133,0,1,0,0-2.266h-7.441a5.308,5.308,0,0,0-5.3,5.3v1.266A5.276,5.276,0,0,0,130,240.129v12.027a1.133,1.133,0,0,0,1.133,1.133h41.008a1.133,1.133,0,0,0,1.133-1.133V240.129A5.276,5.276,0,0,0,169.137,234.985ZM138.27,242.9v8.123h-6V240.129a3,3,0,0,1,6,0Zm24.467,8.123h-22.2V246.4h22.2Zm0-6.892h-22.2V242.9a1.036,1.036,0,0,1,1.035-1.035H161.7a1.036,1.036,0,0,1,1.035,1.035Zm8.27,6.892h-6V240.129a3,3,0,0,1,6,0Z" transform="translate(-129.999 -228.417)" fill="#4a4e3c"/>
          </g>
        </g>
        <g id="Group_1197774" data-name="Group 1197774" transform="translate(35.23 25.89)">
          <g id="Group_1197773" data-name="Group 1197773">
            <path id="Path_1020515" data-name="Path 1020515" d="M312.934,228.752a1.132,1.132,0,1,0,.332.8A1.136,1.136,0,0,0,312.934,228.752Z" transform="translate(-311 -228.42)" fill="#4a4e3c"/>
          </g>
        </g>
        <g id="Group_1197776" data-name="Group 1197776" transform="translate(27.867 0.016)">
          <g id="Group_1197775" data-name="Group 1197775" transform="translate(0 0)">
            <path id="Path_1020516" data-name="Path 1020516" d="M272.734.016H249.4a3.4,3.4,0,0,0-3.4,3.4V15.422a3.4,3.4,0,0,0,3.4,3.4h23.336a3.4,3.4,0,0,0,3.4-3.4V3.414A3.4,3.4,0,0,0,272.734.016Zm1.133,15.406a1.134,1.134,0,0,1-1.133,1.133h-7.478a1.133,1.133,0,0,0-.1-.121l-9.827-9.827a1.133,1.133,0,0,0-1.6,0l-3.284,3.284a1.133,1.133,0,1,0,1.6,1.6l2.483-2.483,7.545,7.545H249.4a1.134,1.134,0,0,1-1.133-1.133V3.414A1.134,1.134,0,0,1,249.4,2.282h23.336a1.134,1.134,0,0,1,1.133,1.133V9.289l-4.58-4.58a1.133,1.133,0,0,0-1.6,0l-4.176,4.176a1.133,1.133,0,1,0,1.6,1.6l3.375-3.375,5.146,5.146a1.13,1.13,0,0,0,.235.179Z" transform="translate(-246 -0.016)" fill="#4a4e3c"/>
          </g>
        </g>
      </g>
    </g>
    <g id="Group_1197759" data-name="Group 1197759" transform="translate(2797.581 12128.827)">
      <path id="Path_1020506-2" data-name="Path 1020506" d="M137.143.5h-85.5a8.4,8.4,0,0,0-7.275,4.2L1.626,78.742a8.4,8.4,0,0,0,0,8.4l42.747,74.04a8.4,8.4,0,0,0,7.275,4.2h85.5a8.4,8.4,0,0,0,7.275-4.2l42.748-74.04a8.4,8.4,0,0,0,0-8.4L144.418,4.7A8.4,8.4,0,0,0,137.143.5Z" transform="translate(-2197.081 -9049.154)" fill="#fff"/>
      <path id="Path_1020507-2" data-name="Path 1020507" d="M129.6,12.7H55.482a4.38,4.38,0,0,0-3.793,2.19L14.63,79.08a4.38,4.38,0,0,0,0,4.38l37.059,64.188a4.38,4.38,0,0,0,3.793,2.19H129.6a4.38,4.38,0,0,0,3.793-2.19L170.451,83.46a4.38,4.38,0,0,0,0-4.38L133.392,14.892A4.38,4.38,0,0,0,129.6,12.7" transform="translate(-2195.225 -9047.482)" fill="#959a79"/>
      <path id="Path_1020508-2" data-name="Path 1020508" d="M55.163,146.889a1.753,1.753,0,0,1-1.515-.876L16.591,81.826a1.747,1.747,0,0,1,0-1.749L53.649,15.889a1.754,1.754,0,0,1,1.515-.874h74.118a1.754,1.754,0,0,1,1.515.874l37.059,64.188a1.753,1.753,0,0,1,0,1.749L130.8,146.013a1.753,1.753,0,0,1-1.515.876Z" transform="translate(-2194.908 -9047.165)" fill="#bac197"/>
      <path id="Path_1020509-2" data-name="Path 1020509" d="M86.125,186.638h0a25.262,25.262,0,0,1-25.262-25.261V115.589h50.525v45.788a25.262,25.262,0,0,1-25.262,25.261" transform="translate(-2188.81 -9033.386)" fill="#bac197"/>
      <path id="Path_1020510-2" data-name="Path 1020510" d="M113.6,30.98H65.631A6.245,6.245,0,0,0,60.222,34.1L36.239,75.643a6.243,6.243,0,0,0,0,6.243l23.983,41.541a6.245,6.245,0,0,0,5.409,3.122H113.6A6.245,6.245,0,0,0,119,123.428l23.983-41.541a6.243,6.243,0,0,0,0-6.243L119,34.1A6.245,6.245,0,0,0,113.6,30.98Z" transform="translate(-2192.298 -9044.978)" fill="none" stroke="#fff" stroke-miterlimit="10" stroke-width="1.157"/>
      <g id="Group_1197777" data-name="Group 1197777" transform="translate(-2136.057 -9018.213)">
        <g id="Group_1197778" data-name="Group 1197778" transform="translate(14.522 42.644)">
          <g id="Group_1197777-2" data-name="Group 1197777" transform="translate(0 0)">
            <path id="Path_1020517" data-name="Path 1020517" d="M117.459,184.449a.978.978,0,0,0-1.375.144,1.818,1.818,0,0,1-2.95,0,.978.978,0,1,0-1.519,1.232,3.769,3.769,0,0,0,5.987,0A.978.978,0,0,0,117.459,184.449Z" transform="translate(-111.397 -184.231)" fill="#4a4e3c"/>
          </g>
        </g>
        <g id="Group_1197780" data-name="Group 1197780" transform="translate(12.288 37.059)">
          <g id="Group_1197779" data-name="Group 1197779" transform="translate(0 0)">
            <path id="Path_1020518" data-name="Path 1020518" d="M95.237,141.386a.978.978,0,0,0-.978.978v1.117a.978.978,0,1,0,1.955,0v-1.117A.978.978,0,0,0,95.237,141.386Z" transform="translate(-94.259 -141.386)" fill="#4a4e3c"/>
          </g>
        </g>
        <g id="Group_1197782" data-name="Group 1197782" transform="translate(21.224 37.059)">
          <g id="Group_1197781" data-name="Group 1197781" transform="translate(0 0)">
            <path id="Path_1020519" data-name="Path 1020519" d="M163.789,141.386a.978.978,0,0,0-.978.978v1.117a.978.978,0,1,0,1.955,0v-1.117A.978.978,0,0,0,163.789,141.386Z" transform="translate(-162.811 -141.386)" fill="#4a4e3c"/>
          </g>
        </g>
        <g id="Group_1197784" data-name="Group 1197784" transform="translate(46.917 48.23)">
          <g id="Group_1197783" data-name="Group 1197783" transform="translate(0 0)">
            <path id="Path_1020520" data-name="Path 1020520" d="M365.959,227.293a.978.978,0,0,0-1.375.144,1.818,1.818,0,0,1-2.95,0,.978.978,0,1,0-1.519,1.232,3.769,3.769,0,0,0,5.987,0A.978.978,0,0,0,365.959,227.293Z" transform="translate(-359.898 -227.075)" fill="#4a4e3c"/>
          </g>
        </g>
        <g id="Group_1197786" data-name="Group 1197786" transform="translate(44.683 42.644)">
          <g id="Group_1197785" data-name="Group 1197785">
            <path id="Path_1020521" data-name="Path 1020521" d="M343.737,184.231a.978.978,0,0,0-.978.978v1.117a.978.978,0,1,0,1.955,0v-1.117A.978.978,0,0,0,343.737,184.231Z" transform="translate(-342.759 -184.231)" fill="#4a4e3c"/>
          </g>
        </g>
        <g id="Group_1197788" data-name="Group 1197788" transform="translate(53.619 42.644)">
          <g id="Group_1197787" data-name="Group 1197787">
            <path id="Path_1020522" data-name="Path 1020522" d="M412.289,184.231a.978.978,0,0,0-.978.978v1.117a.978.978,0,0,0,1.955,0v-1.117A.978.978,0,0,0,412.289,184.231Z" transform="translate(-411.311 -184.231)" fill="#4a4e3c"/>
          </g>
        </g>
        <g id="Group_1197790" data-name="Group 1197790" transform="translate(0 21.42)">
          <g id="Group_1197789" data-name="Group 1197789">
            <path id="Path_1020523" data-name="Path 1020523" d="M64.024,61.979l-7.66-3.064a1.282,1.282,0,0,1-.119-.058c5.29-1.2,7.8-3.217,7.907-3.308a.978.978,0,0,0,.348-.895,126.661,126.661,0,0,1-1.107-15.5,13.265,13.265,0,1,0-26.531,0c0,2-.091,4.456-.239,6.776L34.49,47l-6.265-3.132c-.018-.009-.037-.016-.055-.023a10.952,10.952,0,0,0,.564-2.735,3.21,3.21,0,0,0,1.148-5.5V29.1a5.441,5.441,0,0,0-2.4-4.489,4.3,4.3,0,0,0-4.166-3.191H14.382a8.807,8.807,0,0,0-8.8,8.8v5.388a3.21,3.21,0,0,0,1.148,5.5,11.027,11.027,0,0,0,4.437,8.022v2.7L3.085,54.257A4.3,4.3,0,0,0,0,58.4V69.315a.978.978,0,0,0,.978.978h.139V81.6a.978.978,0,1,0,1.955,0V70.292H6.7V81.6a.978.978,0,1,0,1.955,0V64.744a4.315,4.315,0,0,0-.727-2.4L6.26,59.836a.978.978,0,1,0-1.627,1.085L6.3,63.428a2.366,2.366,0,0,1,.4,1.317v3.593H1.955V58.4A2.359,2.359,0,0,1,3.647,56.13L7,55.123a11.033,11.033,0,0,0,15.958,7.15,3.209,3.209,0,0,0,2.591,1.317h.139v.139a8.8,8.8,0,0,0,4.468,7.654v1.595a.139.139,0,0,1-.1.132l-3.647,1.216a4.323,4.323,0,0,0-2.96,4.107V81.6a.978.978,0,0,0,1.955,0v-3.17a2.37,2.37,0,0,1,1.623-2.252l1.072-.358a7.68,7.68,0,0,0,12.761,0l1.072.357a2.37,2.37,0,0,1,1.623,2.252V81.6a.978.978,0,0,0,1.955,0v-3.17a4.323,4.323,0,0,0-2.96-4.107L38.914,73.11a.139.139,0,0,1-.1-.132V71.383a8.833,8.833,0,0,0,4.139-5.277,9.913,9.913,0,0,0,16.608-3.8L63.3,63.795A2.362,2.362,0,0,1,64.79,66v4.573H61.16V69.315a.978.978,0,0,0-1.955,0V81.6a.978.978,0,1,0,1.955,0V72.527h2.513V81.6a.978.978,0,1,0,1.955,0V72.527h.139a.978.978,0,0,0,.978-.978V66A4.307,4.307,0,0,0,64.024,61.979ZM38.819,39.154a11.31,11.31,0,1,1,22.62,0,128.367,128.367,0,0,0,1.048,15.184A20.931,20.931,0,0,1,55.575,57V55.448a10.948,10.948,0,0,0,1.484-1.008,11.006,11.006,0,0,0,4.1-8.583c0-5.526-4-6.32-7.861-7.087-2.459-.488-5-.993-7.027-2.613a.978.978,0,0,0-1.588.764c0,.026-.043,2.6-3.728,3.52a.978.978,0,0,0,.474,1.9c3.084-.771,4.343-2.5,4.856-3.8a20.478,20.478,0,0,0,6.633,2.152c4.131.82,6.287,1.423,6.287,5.169a9.051,9.051,0,0,1-3.375,7.063,9.074,9.074,0,0,1-10.983.317A11.048,11.048,0,0,0,42.17,49.11v-4.37a.978.978,0,0,0-1.415-.874L38.644,44.92C38.76,42.884,38.819,40.948,38.819,39.154Zm1.4,7.167V49.86L36.676,48.09Zm-11.449,0L32.3,48.09,28.765,49.86ZM23.458,57.027v.929a3.212,3.212,0,0,0-1.117,2.423A9.076,9.076,0,0,1,8.881,54.56l2.415-.725a6.561,6.561,0,0,0,12.257,1.752A10.994,10.994,0,0,0,23.458,57.027Zm-10.332-4.47V50.292a11.017,11.017,0,0,0,9.215,0v2.266a4.608,4.608,0,0,1-9.215.013S13.126,52.562,13.126,52.557Zm4.608-3.21a9.086,9.086,0,0,1-9.076-9.076.978.978,0,0,0-.978-.978,1.256,1.256,0,0,1,0-2.513H9.914a.978.978,0,0,0,.928-.668l.9-2.692c2.247-.051,9.212-.367,13.134-2.328A.978.978,0,0,0,24,29.343c-4.208,2.1-12.881,2.131-12.968,2.131a.978.978,0,0,0-.927.669L9.21,34.825H7.68c-.047,0-.093,0-.139,0V30.217a6.85,6.85,0,0,1,6.842-6.842h8.937a2.356,2.356,0,0,1,2.333,2,.978.978,0,0,0,.485.7,3.49,3.49,0,0,1,1.79,3.026v5.728c-.046,0-.093,0-.139,0H26.67a.978.978,0,0,0,0,1.955h1.117a1.256,1.256,0,1,1,0,2.513.978.978,0,0,0-.978.978A9.086,9.086,0,0,1,17.734,49.347ZM24.3,52.559v-3.43a11.121,11.121,0,0,0,2.513-2.6V49.11a11.047,11.047,0,0,0-2.52,3.721C24.294,52.74,24.3,52.65,24.3,52.559ZM38.919,75.173a5.72,5.72,0,0,1-8.859,0l.623-.208a2.092,2.092,0,0,0,1.432-1.987V72.2a8.752,8.752,0,0,0,4.747,0v.779A2.092,2.092,0,0,0,38.3,74.965Zm3.39-13.538a.978.978,0,0,0-.978.978v.972c0,.008,0,.017,0,.025v.12a6.842,6.842,0,1,1-13.684,0V62.612a.978.978,0,0,0-.978-.978H25.553A1.258,1.258,0,0,1,24.3,60.378a1.242,1.242,0,0,1,.631-1.079.972.972,0,0,0,.232-.19c2.417-.07,10.252-.525,15.4-3.467a.978.978,0,1,0-.97-1.7c-4.511,2.578-11.6,3.094-14.176,3.2v-.114a9.085,9.085,0,0,1,1.548-5.064.975.975,0,0,0,1.262.353l6.265-3.133,6.265,3.133a.972.972,0,0,0,1.262-.353,9.085,9.085,0,0,1,1.548,5.064v1.427a.977.977,0,0,0,.486.845,1.242,1.242,0,0,1,.631,1.079,1.258,1.258,0,0,1-1.256,1.256Zm7.819,5.585a7.969,7.969,0,0,1-6.68-3.63,3.2,3.2,0,0,0,2.072-5.634v-.929a10.993,10.993,0,0,0-.063-1.173,11.024,11.024,0,0,0,8.161.462v1.432a3.2,3.2,0,0,0,2.019,2.982l2.108.843A7.954,7.954,0,0,1,50.129,67.22Z" transform="translate(0 -21.42)" fill="#4a4e3c"/>
          </g>
        </g>
        <g id="Group_1197792" data-name="Group 1197792" transform="translate(31.278 64.986)">
          <g id="Group_1197791" data-name="Group 1197791">
            <path id="Path_1020524" data-name="Path 1020524" d="M245.994,355.828a.978.978,0,0,0-1.375.144,1.818,1.818,0,0,1-2.95,0,.978.978,0,0,0-1.519,1.232,3.769,3.769,0,0,0,5.987,0A.978.978,0,0,0,245.994,355.828Z" transform="translate(-239.932 -355.61)" fill="#4a4e3c"/>
          </g>
        </g>
        <g id="Group_1197794" data-name="Group 1197794" transform="translate(30.179 60.522)">
          <g id="Group_1197793" data-name="Group 1197793">
            <circle id="Ellipse_15200" data-name="Ellipse 15200" cx="0.978" cy="0.978" r="0.978" fill="#4a4e3c"/>
          </g>
        </g>
        <g id="Group_1197796" data-name="Group 1197796" transform="translate(36.827 60.522)">
          <g id="Group_1197795" data-name="Group 1197795">
            <circle id="Ellipse_15201" data-name="Ellipse 15201" cx="0.978" cy="0.978" r="0.978" fill="#4a4e3c"/>
          </g>
        </g>
      </g>
    </g>
    <g id="Group_1197760" data-name="Group 1197760" transform="translate(3005.581 12128.827)">
      <path id="Path_1020506-3" data-name="Path 1020506" d="M137.143.5h-85.5a8.4,8.4,0,0,0-7.275,4.2L1.626,78.742a8.4,8.4,0,0,0,0,8.4l42.747,74.04a8.4,8.4,0,0,0,7.275,4.2h85.5a8.4,8.4,0,0,0,7.275-4.2l42.748-74.04a8.4,8.4,0,0,0,0-8.4L144.418,4.7A8.4,8.4,0,0,0,137.143.5Z" transform="translate(-2197.081 -9049.154)" fill="#fff"/>
      <path id="Path_1020507-3" data-name="Path 1020507" d="M129.6,12.7H55.482a4.38,4.38,0,0,0-3.793,2.19L14.63,79.08a4.38,4.38,0,0,0,0,4.38l37.059,64.188a4.38,4.38,0,0,0,3.793,2.19H129.6a4.38,4.38,0,0,0,3.793-2.19L170.451,83.46a4.38,4.38,0,0,0,0-4.38L133.392,14.892A4.38,4.38,0,0,0,129.6,12.7" transform="translate(-2195.225 -9047.482)" fill="#959a79"/>
      <path id="Path_1020508-3" data-name="Path 1020508" d="M55.163,146.889a1.753,1.753,0,0,1-1.515-.876L16.591,81.826a1.747,1.747,0,0,1,0-1.749L53.649,15.889a1.754,1.754,0,0,1,1.515-.874h74.118a1.754,1.754,0,0,1,1.515.874l37.059,64.188a1.753,1.753,0,0,1,0,1.749L130.8,146.013a1.753,1.753,0,0,1-1.515.876Z" transform="translate(-2194.908 -9047.165)" fill="#bac197"/>
      <path id="Path_1020509-3" data-name="Path 1020509" d="M86.125,186.638h0a25.262,25.262,0,0,1-25.262-25.261V115.589h50.525v45.788a25.262,25.262,0,0,1-25.262,25.261" transform="translate(-2188.81 -9033.386)" fill="#bac197"/>
      <path id="Path_1020510-3" data-name="Path 1020510" d="M113.6,30.98H65.631A6.245,6.245,0,0,0,60.222,34.1L36.239,75.643a6.243,6.243,0,0,0,0,6.243l23.983,41.541a6.245,6.245,0,0,0,5.409,3.122H113.6A6.245,6.245,0,0,0,119,123.428l23.983-41.541a6.243,6.243,0,0,0,0-6.243L119,34.1A6.245,6.245,0,0,0,113.6,30.98Z" transform="translate(-2192.298 -9044.978)" fill="none" stroke="#fff" stroke-miterlimit="10" stroke-width="1.157"/>
      <g id="Group_1197797" data-name="Group 1197797" transform="translate(-2158.71 -8999.851)">
        <path id="Path_1020525" data-name="Path 1020525" d="M31.222,43.486l3.384,2.562c.028.023.056.046.085.067l2.186,1.652,8.677,6.567a4.636,4.636,0,0,0,2.79.93h9.731a.983.983,0,1,0,0-1.966H48.344a2.7,2.7,0,1,1,0-5.39H61.888a.983.983,0,1,0,0-1.966h-4.74V40.171a.983.983,0,0,0-1.966,0v5.771H48.344l-.1,0V17.1h6.937V35.982a.983.983,0,1,0,1.966,0V17.006a3.391,3.391,0,0,0,2.6-3.292v-9.4A4.319,4.319,0,0,0,55.431,0H29.872a.983.983,0,1,0,0,1.966H55.431a2.351,2.351,0,0,1,2.349,2.349V9.887H45.112V7.118a.983.983,0,0,0-.983-.983H40.586a.983.983,0,1,0,0,1.966h2.561v5.613a3.389,3.389,0,0,0,3.133,3.375V39.341l-.7-.528a3.284,3.284,0,0,0-5.176,1.86l-1.019-.77a3.895,3.895,0,0,0-6.208,2.6l-.769-.582A4.143,4.143,0,0,0,27,48.168l5.784,5.716a.983.983,0,1,0,1.382-1.4L28.377,46.77a2.177,2.177,0,0,1,2.845-3.285Zm13.89-29.772V11.852H57.779v1.861a1.421,1.421,0,0,1-1.42,1.42H46.532A1.421,1.421,0,0,1,45.112,13.714ZM42.547,40.638a1.321,1.321,0,0,1,1.848-.257L46.28,41.8v3.307l-3.491-2.638A1.321,1.321,0,0,1,42.547,40.638ZM35.5,41.846a1.93,1.93,0,0,1,2.7-.376l3.388,2.56.031.024,3.833,2.9a4.654,4.654,0,0,0-1.765,3.5l-5.593-4.226-2.258-1.709a1.929,1.929,0,0,1-.336-2.667Z" fill="#4a4e3c"/>
        <path id="Path_1020526" data-name="Path 1020526" d="M136.8,431.237l-4.955-4.132a.982.982,0,0,0-.629-.228H109.036a4.149,4.149,0,0,1-2.934-1.2l-4.592-4.538a.983.983,0,1,0-1.382,1.4l4.592,4.538a6.1,6.1,0,0,0,4.315,1.772h21.825l4.681,3.9a.983.983,0,0,0,1.259-1.51Z" transform="translate(-64.365 -365.699)" fill="#4a4e3c"/>
        <path id="Path_1020527" data-name="Path 1020527" d="M57.117,46.813H50.592a.983.983,0,1,0,0,1.966h6.525a.983.983,0,1,0,0-1.966Z" transform="translate(-20.72 -40.678)" fill="#4a4e3c"/>
        <path id="Path_1020528" data-name="Path 1020528" d="M223.125,157.935v-6.6a.983.983,0,1,0-1.966,0v6.6a.983.983,0,1,0,1.966,0Z" transform="translate(-169.789 -130.648)" fill="#4a4e3c"/>
        <path id="Path_1020529" data-name="Path 1020529" d="M210.764,292.086v2.08a.983.983,0,0,0,1.966,0v-2.08a.983.983,0,1,0-1.966,0Z" transform="translate(-160.756 -252.955)" fill="#4a4e3c"/>
        <path id="Path_1020530" data-name="Path 1020530" d="M295.813,152.905a14.89,14.89,0,0,0,4.374,1.006,3.286,3.286,0,0,0,.984-.131,3.914,3.914,0,1,0-2.371-7.461c-.382.121-1.545.491-3.869,3.808a1.832,1.832,0,0,0,.883,2.777Zm3.582-4.712a1.949,1.949,0,1,1,1.18,3.714c-.411.13-1.684,0-3.934-.794C298.022,149.168,298.985,148.324,299.4,148.193Z" transform="translate(-233.603 -126.985)" fill="#4a4e3c"/>
        <path id="Path_1020531" data-name="Path 1020531" d="M304.6,234.318c-.3-.019-1.2-.072-3.569,1.518a1.558,1.558,0,0,0-.149,2.473c2.159,1.863,3.064,1.917,3.361,1.935h0q.09.005.18.005a2.969,2.969,0,0,0,.177-5.932Zm.823,3.023a1,1,0,0,1-1.061.941,5.157,5.157,0,0,1-1.779-1.112,5.242,5.242,0,0,1,1.9-.891,1,1,0,0,1,.941,1.061Z" transform="translate(-238.59 -203.607)" fill="#4a4e3c"/>
        <path id="Path_1020532" data-name="Path 1020532" d="M97.092,173.176a3.561,3.561,0,0,0,1.866,4.677,3.162,3.162,0,0,0,1.379.235,14.644,14.644,0,0,0,3.461-.534,1.73,1.73,0,0,0,1.086-2.527c-1.768-3.139-2.782-3.574-3.115-3.717a3.561,3.561,0,0,0-4.678,1.866Zm1.806.776a1.593,1.593,0,0,1,2.1-.836,7.255,7.255,0,0,1,2.024,2.606,7.253,7.253,0,0,1-3.283.326,1.6,1.6,0,0,1-.836-2.1Z" transform="translate(-61.727 -148.608)" fill="#4a4e3c"/>
        <path id="Path_1020533" data-name="Path 1020533" d="M346.682,360.593l-8.086-6.1a19.551,19.551,0,0,0-11.7-3.92h-.028a.983.983,0,1,0,0,1.966h.028a17.573,17.573,0,0,1,10.521,3.524l8.086,6.1a.983.983,0,1,0,1.184-1.569Z" transform="translate(-260.787 -304.631)" fill="#4a4e3c"/>
      </g>
    </g>
    <g id="Group_1197761" data-name="Group 1197761" transform="translate(3213.581 12128.827)">
      <path id="Path_1020506-4" data-name="Path 1020506" d="M137.143.5h-85.5a8.4,8.4,0,0,0-7.275,4.2L1.626,78.742a8.4,8.4,0,0,0,0,8.4l42.747,74.04a8.4,8.4,0,0,0,7.275,4.2h85.5a8.4,8.4,0,0,0,7.275-4.2l42.748-74.04a8.4,8.4,0,0,0,0-8.4L144.418,4.7A8.4,8.4,0,0,0,137.143.5Z" transform="translate(-2197.081 -9049.154)" fill="#fff"/>
      <path id="Path_1020507-4" data-name="Path 1020507" d="M129.6,12.7H55.482a4.38,4.38,0,0,0-3.793,2.19L14.63,79.08a4.38,4.38,0,0,0,0,4.38l37.059,64.188a4.38,4.38,0,0,0,3.793,2.19H129.6a4.38,4.38,0,0,0,3.793-2.19L170.451,83.46a4.38,4.38,0,0,0,0-4.38L133.392,14.892A4.38,4.38,0,0,0,129.6,12.7" transform="translate(-2195.225 -9047.482)" fill="#959a79"/>
      <path id="Path_1020508-4" data-name="Path 1020508" d="M55.163,146.889a1.753,1.753,0,0,1-1.515-.876L16.591,81.826a1.747,1.747,0,0,1,0-1.749L53.649,15.889a1.754,1.754,0,0,1,1.515-.874h74.118a1.754,1.754,0,0,1,1.515.874l37.059,64.188a1.753,1.753,0,0,1,0,1.749L130.8,146.013a1.753,1.753,0,0,1-1.515.876Z" transform="translate(-2194.908 -9047.165)" fill="#bac197"/>
      <path id="Path_1020509-4" data-name="Path 1020509" d="M86.125,186.638h0a25.262,25.262,0,0,1-25.262-25.261V115.589h50.525v45.788a25.262,25.262,0,0,1-25.262,25.261" transform="translate(-2188.81 -9033.386)" fill="#bac197"/>
      <path id="Path_1020510-4" data-name="Path 1020510" d="M113.6,30.98H65.631A6.245,6.245,0,0,0,60.222,34.1L36.239,75.643a6.243,6.243,0,0,0,0,6.243l23.983,41.541a6.245,6.245,0,0,0,5.409,3.122H113.6A6.245,6.245,0,0,0,119,123.428l23.983-41.541a6.243,6.243,0,0,0,0-6.243L119,34.1A6.245,6.245,0,0,0,113.6,30.98Z" transform="translate(-2192.298 -9044.978)" fill="none" stroke="#fff" stroke-miterlimit="10" stroke-width="1.157"/>
      <g id="Group_1197799" data-name="Group 1197799" transform="translate(-2134.834 -8998.347)">
        <g id="Group_1197798" data-name="Group 1197798" transform="translate(0.018 0)">
          <path id="Path_1020534" data-name="Path 1020534" d="M62.6,40.355l-8.65-5.766h9.071a1.255,1.255,0,0,0,0-2.51H60.377V17.573c.043,0,.086,0,.13,0a3.8,3.8,0,0,0,.746-.074,3.765,3.765,0,0,0,1.35-6.825L47.6.675A3.744,3.744,0,0,0,43.364.637L40.011,2.873A1.255,1.255,0,1,0,41.4,4.961l3.353-2.235a1.248,1.248,0,0,1,1.416.015l.023.015L61.21,12.767a1.255,1.255,0,1,1-1.392,2.089L46.149,5.743a1.255,1.255,0,0,0-1.392,0L31.088,14.855A1.255,1.255,0,0,1,29.7,12.767l3.354-2.236a1.255,1.255,0,0,0-1.392-2.089L28.3,10.678a3.765,3.765,0,0,0,1.35,6.825,3.787,3.787,0,0,0,.876.071v4.3L20.99,15.514a3.743,3.743,0,0,0-4.234-.038L13.4,17.712A1.255,1.255,0,1,0,14.8,19.8l3.354-2.236a1.248,1.248,0,0,1,1.416.015l.023.015,11.494,7.662,0,0L34.6,27.605a1.255,1.255,0,1,1-1.392,2.089L19.541,20.581a1.255,1.255,0,0,0-1.392,0L4.48,29.694a1.255,1.255,0,0,1-1.392-2.089L6.44,25.37a1.255,1.255,0,1,0-1.392-2.088L1.695,25.517a3.768,3.768,0,0,0,2.1,6.9c.043,0,.086,0,.13,0v9.738a4.566,4.566,0,0,0-2.648-.84,1.255,1.255,0,1,0,0,2.51,2.053,2.053,0,0,1,1.965,1.438,1.255,1.255,0,0,0,1.775.735,2.076,2.076,0,0,1,.459-.173l.009,0a2.064,2.064,0,0,1,2.534,2.2c0,.012,0,.024,0,.036a2.062,2.062,0,0,1-.218.716,1.255,1.255,0,0,0,.735,1.775,2.055,2.055,0,0,1,1.014.71H1.273a1.255,1.255,0,0,0,0,2.51H11.22a1.255,1.255,0,0,0,1.255-1.255,4.559,4.559,0,0,0-1.191-3.084H30.529v3.647a4.187,4.187,0,0,0-2.2,1.6,4.219,4.219,0,0,0-4.882,4.881,4.2,4.2,0,0,0-1.793,3.452,1.255,1.255,0,1,0,2.51,0,1.7,1.7,0,0,1,1.187-1.623,1.255,1.255,0,0,0,.735-1.775,1.7,1.7,0,0,1,2.3-2.3,1.255,1.255,0,0,0,1.775-.735,1.7,1.7,0,0,1,.368-.636v5.809a1.255,1.255,0,0,0,0,2.51H60.377a1.255,1.255,0,0,0,0-2.51V47.25c.043,0,.086,0,.13,0a3.8,3.8,0,0,0,.746-.074,3.765,3.765,0,0,0,1.35-6.825Zm-15.005-10a3.744,3.744,0,0,0-4.233-.037l-.422.281v-7.3h5.021v7.3ZM33.769,34.589h3.184l-3.184,2.123Zm-.73-11.043V16.571L45.453,8.3l12.414,8.276V32.079H50.473V22.038a1.255,1.255,0,0,0-1.255-1.255H41.687a1.255,1.255,0,0,0-1.255,1.255V32.079h-4.97a3.766,3.766,0,0,0,.533-6.562ZM6.431,43.272V31.41l12.414-8.276L31.259,31.41v6.975L28.3,40.355a3.766,3.766,0,0,0,.533,6.562H23.865V36.877a1.255,1.255,0,0,0-1.255-1.255H15.08a1.255,1.255,0,0,0-1.255,1.255V46.917h-3.38a4.588,4.588,0,0,0-4.014-3.645Zm14.924,3.645h-5.02V38.132h5.02ZM47.963,61.756H42.943V52.97h5.021Zm2.51,0V51.715a1.255,1.255,0,0,0-1.255-1.255H41.687a1.255,1.255,0,0,0-1.255,1.255V61.756H33.039V46.248l12.414-8.276,12.414,8.276V61.756ZM61.559,44.184a1.255,1.255,0,0,1-1.74.348L46.149,35.42a1.255,1.255,0,0,0-1.392,0L31.088,44.532h0A1.255,1.255,0,0,1,29.7,42.444L33.211,40.1l.007,0L41.8,34.376l0,0,.585-.39.006,0L44.757,32.4a1.249,1.249,0,0,1,1.416.015l.023.015,2.32,1.546,0,0,.586.391,0,0,12.1,8.068A1.257,1.257,0,0,1,61.559,44.184Z" transform="translate(-0.018 0)" fill="#4a4e3c"/>
          <path id="Path_1020535" data-name="Path 1020535" d="M353.273,352.582a1.255,1.255,0,1,0,1.255,1.256h0A1.255,1.255,0,0,0,353.273,352.582Z" transform="translate(-307.838 -308.329)" fill="#4a4e3c"/>
          <path id="Path_1020536" data-name="Path 1020536" d="M141.275,236.867a1.255,1.255,0,0,0,1.255-1.255h0a1.255,1.255,0,1,0-1.255,1.256Z" transform="translate(-122.448 -204.942)" fill="#4a4e3c"/>
          <path id="Path_1020537" data-name="Path 1020537" d="M353.273,118.641a1.255,1.255,0,0,0,1.255-1.255h0a1.255,1.255,0,1,0-1.255,1.256Z" transform="translate(-307.838 -101.554)" fill="#4a4e3c"/>
          <path id="Path_1020538" data-name="Path 1020538" d="M70.177,164.138a1.249,1.249,0,0,0,.7-.211h0a1.254,1.254,0,1,0-.7.211Z" transform="translate(-60.273 -141.341)" fill="#4a4e3c"/>
          <path id="Path_1020539" data-name="Path 1020539" d="M282.181,45.906a1.249,1.249,0,0,0,.7-.211h0a1.254,1.254,0,1,0-.7.211Z" transform="translate(-245.668 -37.949)" fill="#4a4e3c"/>
        </g>
      </g>
    </g>
    <rect id="Rectangle_461898" data-name="Rectangle 461898" width="188" height="70" rx="10" transform="translate(393 3307.827)" fill="#ffe3c2"/>
    <rect id="Rectangle_461899" data-name="Rectangle 461899" width="188" height="70" rx="10" transform="translate(601 3307.827)" fill="#ffe3c2"/>
    <rect id="Rectangle_461900" data-name="Rectangle 461900" width="188" height="70" rx="10" transform="translate(809 3307.827)" fill="#ffe3c2"/>
    <rect id="Rectangle_461901" data-name="Rectangle 461901" width="188" height="70" rx="10" transform="translate(1017 3307.827)" fill="#ffe3c2"/>
    <path id="Path_1020623" data-name="Path 1020623" d="M21.869,17V5.625h3.5a5.315,5.315,0,0,1,2.684.676A4.712,4.712,0,0,1,29.9,8.223a5.928,5.928,0,0,1,.664,2.832v.523a5.945,5.945,0,0,1-.652,2.82,4.672,4.672,0,0,1-1.84,1.914,5.355,5.355,0,0,1-2.68.688Zm2.344-9.477v7.594h1.133a2.545,2.545,0,0,0,2.1-.9,4.06,4.06,0,0,0,.742-2.57v-.6a4.124,4.124,0,0,0-.719-2.629,2.537,2.537,0,0,0-2.1-.895ZM36.05,17.156a4.15,4.15,0,0,1-3.027-1.141,4.054,4.054,0,0,1-1.168-3.039v-.219a5.106,5.106,0,0,1,.492-2.277,3.612,3.612,0,0,1,1.395-1.547A3.914,3.914,0,0,1,35.8,8.391a3.508,3.508,0,0,1,2.73,1.094,4.444,4.444,0,0,1,1,3.1v.922H34.144a2.1,2.1,0,0,0,.66,1.328,2,2,0,0,0,1.395.5,2.437,2.437,0,0,0,2.039-.945l1.109,1.242a3.389,3.389,0,0,1-1.375,1.121A4.511,4.511,0,0,1,36.05,17.156Zm-.258-6.945a1.411,1.411,0,0,0-1.09.455,2.357,2.357,0,0,0-.535,1.3h3.141v-.181a1.681,1.681,0,0,0-.406-1.165A1.456,1.456,0,0,0,35.792,10.211Zm7.759-3.742V8.547H45V10.2H43.551v4.219a1.007,1.007,0,0,0,.18.672.9.9,0,0,0,.688.2,3.6,3.6,0,0,0,.664-.055v1.711a4.648,4.648,0,0,1-1.367.2,2.156,2.156,0,0,1-2.422-2.4V10.2H40.059V8.547h1.234V6.469Zm6.634,10.688a4.15,4.15,0,0,1-3.027-1.141,4.054,4.054,0,0,1-1.168-3.039v-.219a5.106,5.106,0,0,1,.492-2.277,3.612,3.612,0,0,1,1.395-1.547,3.914,3.914,0,0,1,2.059-.543,3.508,3.508,0,0,1,2.73,1.094,4.444,4.444,0,0,1,1,3.1v.922H48.278a2.1,2.1,0,0,0,.66,1.328,2,2,0,0,0,1.395.5,2.437,2.437,0,0,0,2.039-.945l1.109,1.242a3.389,3.389,0,0,1-1.375,1.121A4.511,4.511,0,0,1,50.185,17.156Zm-.258-6.945a1.411,1.411,0,0,0-1.09.455,2.357,2.357,0,0,0-.535,1.3h3.141v-.181a1.681,1.681,0,0,0-.406-1.165A1.456,1.456,0,0,0,49.927,10.211Zm9.806.453a6.134,6.134,0,0,0-.812-.062,1.654,1.654,0,0,0-1.68.867V17H54.982V8.547h2.133l.063,1.008a2.092,2.092,0,0,1,1.883-1.164,2.366,2.366,0,0,1,.7.1Zm3.243-2.117.07.945a2.971,2.971,0,0,1,2.43-1.1A2.255,2.255,0,0,1,67.718,9.68a2.9,2.9,0,0,1,2.539-1.289,2.521,2.521,0,0,1,2.047.8,3.681,3.681,0,0,1,.672,2.41V17H70.71V11.609a1.61,1.61,0,0,0-.281-1.051,1.246,1.246,0,0,0-.992-.332,1.409,1.409,0,0,0-1.406.969l.008,5.8H65.78V11.617a1.59,1.59,0,0,0-.289-1.062,1.259,1.259,0,0,0-.984-.328,1.463,1.463,0,0,0-1.391.8V17H60.858V8.547ZM77.133,17H74.867V8.547h2.266Zm-2.4-10.641a1.112,1.112,0,0,1,.34-.836,1.465,1.465,0,0,1,1.848,0,1.105,1.105,0,0,1,.344.836,1.108,1.108,0,0,1-.348.844,1.448,1.448,0,0,1-1.836,0A1.108,1.108,0,0,1,74.734,6.359ZM81.11,8.547l.07.977a2.951,2.951,0,0,1,2.43-1.133,2.453,2.453,0,0,1,2,.789,3.682,3.682,0,0,1,.672,2.359V17H84.024V11.594a1.465,1.465,0,0,0-.312-1.043,1.4,1.4,0,0,0-1.039-.324,1.553,1.553,0,0,0-1.43.813V17H78.985V8.547ZM92.932,17a2.507,2.507,0,0,1-.227-.758,2.732,2.732,0,0,1-2.133.914,3,3,0,0,1-2.059-.719,2.312,2.312,0,0,1-.816-1.812,2.389,2.389,0,0,1,1-2.062,4.915,4.915,0,0,1,2.879-.727h1.039v-.484a1.393,1.393,0,0,0-.3-.937,1.183,1.183,0,0,0-.949-.352,1.345,1.345,0,0,0-.895.273.929.929,0,0,0-.324.75H87.885a2.268,2.268,0,0,1,.453-1.359,3,3,0,0,1,1.281-.98,4.669,4.669,0,0,1,1.859-.355,3.689,3.689,0,0,1,2.48.785,2.747,2.747,0,0,1,.918,2.207v3.664a4.041,4.041,0,0,0,.336,1.82V17Zm-1.867-1.57a1.945,1.945,0,0,0,.922-.223,1.462,1.462,0,0,0,.625-.6V13.156h-.844q-1.7,0-1.8,1.172l-.008.133a.9.9,0,0,0,.3.7A1.153,1.153,0,0,0,91.064,15.43Zm7.665-6.883.07.977a2.951,2.951,0,0,1,2.43-1.133,2.453,2.453,0,0,1,2,.789,3.682,3.682,0,0,1,.672,2.359V17h-2.258V11.594a1.465,1.465,0,0,0-.312-1.043,1.4,1.4,0,0,0-1.039-.324,1.553,1.553,0,0,0-1.43.813V17H96.6V8.547Zm9.626-2.078V8.547H109.8V10.2h-1.445v4.219a1.007,1.007,0,0,0,.18.672.9.9,0,0,0,.688.2,3.6,3.6,0,0,0,.664-.055v1.711a4.648,4.648,0,0,1-1.367.2,2.156,2.156,0,0,1-2.422-2.4V10.2h-1.234V8.547H106.1V6.469Zm6.634,10.688a4.15,4.15,0,0,1-3.027-1.141,4.054,4.054,0,0,1-1.168-3.039v-.219a5.106,5.106,0,0,1,.492-2.277,3.612,3.612,0,0,1,1.395-1.547,3.914,3.914,0,0,1,2.059-.543,3.508,3.508,0,0,1,2.73,1.094,4.444,4.444,0,0,1,1,3.1v.922h-5.383a2.1,2.1,0,0,0,.66,1.328,2,2,0,0,0,1.395.5,2.437,2.437,0,0,0,2.039-.945l1.109,1.242a3.389,3.389,0,0,1-1.375,1.121A4.511,4.511,0,0,1,114.989,17.156Zm-.258-6.945a1.411,1.411,0,0,0-1.09.455,2.357,2.357,0,0,0-.535,1.3h3.141v-.181a1.681,1.681,0,0,0-.406-1.165A1.456,1.456,0,0,0,114.731,10.211Zm9.634,4.453a.727.727,0,0,0-.41-.652,4.659,4.659,0,0,0-1.316-.426q-3.016-.633-3.016-2.562a2.323,2.323,0,0,1,.934-1.879A3.766,3.766,0,0,1,123,8.391a4.053,4.053,0,0,1,2.574.758,2.388,2.388,0,0,1,.965,1.969h-2.258a1.092,1.092,0,0,0-.312-.8A1.322,1.322,0,0,0,122.99,10a1.351,1.351,0,0,0-.883.258.814.814,0,0,0-.312.656.7.7,0,0,0,.355.605,3.657,3.657,0,0,0,1.2.4,9.8,9.8,0,0,1,1.422.379,2.336,2.336,0,0,1,1.789,2.273,2.2,2.2,0,0,1-.992,1.871,4.28,4.28,0,0,1-2.562.715,4.47,4.47,0,0,1-1.887-.379,3.166,3.166,0,0,1-1.293-1.039,2.414,2.414,0,0,1-.469-1.426H121.5a1.179,1.179,0,0,0,.445.922,1.766,1.766,0,0,0,1.109.32,1.635,1.635,0,0,0,.98-.246A.766.766,0,0,0,124.365,14.664ZM38.675,28.547l.07.945a2.971,2.971,0,0,1,2.43-1.1,2.255,2.255,0,0,1,2.242,1.289,2.9,2.9,0,0,1,2.539-1.289,2.521,2.521,0,0,1,2.047.8,3.681,3.681,0,0,1,.672,2.41V37H46.41V31.609a1.61,1.61,0,0,0-.281-1.051,1.246,1.246,0,0,0-.992-.332,1.409,1.409,0,0,0-1.406.969l.008,5.8H41.48V31.617a1.59,1.59,0,0,0-.289-1.062,1.259,1.259,0,0,0-.984-.328,1.463,1.463,0,0,0-1.391.8V37H36.558V28.547ZM55.348,37a2.507,2.507,0,0,1-.227-.758,2.732,2.732,0,0,1-2.133.914,3,3,0,0,1-2.059-.719,2.312,2.312,0,0,1-.816-1.812,2.389,2.389,0,0,1,1-2.062,4.915,4.915,0,0,1,2.879-.727h1.039v-.484a1.393,1.393,0,0,0-.3-.937,1.183,1.183,0,0,0-.949-.352,1.345,1.345,0,0,0-.895.273.929.929,0,0,0-.324.75H50.3a2.268,2.268,0,0,1,.453-1.359,3,3,0,0,1,1.281-.98,4.669,4.669,0,0,1,1.859-.355,3.689,3.689,0,0,1,2.48.785,2.747,2.747,0,0,1,.918,2.207v3.664a4.041,4.041,0,0,0,.336,1.82V37Zm-1.867-1.57a1.945,1.945,0,0,0,.922-.223,1.462,1.462,0,0,0,.625-.6V33.156h-.844q-1.7,0-1.8,1.172l-.008.133a.9.9,0,0,0,.3.7A1.153,1.153,0,0,0,53.481,35.43Zm8.29-8.961v2.078h1.445V30.2H61.771v4.219a1.007,1.007,0,0,0,.18.672.9.9,0,0,0,.688.2,3.6,3.6,0,0,0,.664-.055v1.711a4.648,4.648,0,0,1-1.367.2,2.156,2.156,0,0,1-2.422-2.4V30.2H58.279V28.547h1.234V26.469ZM68.4,37.156a4.15,4.15,0,0,1-3.027-1.141,4.054,4.054,0,0,1-1.168-3.039v-.219A5.106,5.106,0,0,1,64.7,30.48,3.612,3.612,0,0,1,66.1,28.934a3.914,3.914,0,0,1,2.059-.543,3.508,3.508,0,0,1,2.73,1.094,4.444,4.444,0,0,1,1,3.1v.922H66.5a2.1,2.1,0,0,0,.66,1.328,2,2,0,0,0,1.395.5,2.437,2.437,0,0,0,2.039-.945L71.7,35.633a3.389,3.389,0,0,1-1.375,1.121A4.511,4.511,0,0,1,68.4,37.156Zm-.258-6.945a1.411,1.411,0,0,0-1.09.455,2.357,2.357,0,0,0-.535,1.3h3.141v-.181a1.681,1.681,0,0,0-.406-1.165A1.456,1.456,0,0,0,68.147,30.211Zm9.806.453a6.134,6.134,0,0,0-.812-.062,1.654,1.654,0,0,0-1.68.867V37H73.2V28.547h2.133l.063,1.008a2.092,2.092,0,0,1,1.883-1.164,2.366,2.366,0,0,1,.7.1ZM81.461,37H79.2V28.547h2.266Zm-2.4-10.641a1.112,1.112,0,0,1,.34-.836,1.465,1.465,0,0,1,1.848,0,1.193,1.193,0,0,1,0,1.68,1.448,1.448,0,0,1-1.836,0A1.108,1.108,0,0,1,79.063,26.359ZM88.259,37a2.507,2.507,0,0,1-.227-.758,2.732,2.732,0,0,1-2.133.914,3,3,0,0,1-2.059-.719,2.312,2.312,0,0,1-.816-1.812,2.389,2.389,0,0,1,1-2.062,4.915,4.915,0,0,1,2.879-.727h1.039v-.484a1.393,1.393,0,0,0-.3-.937,1.183,1.183,0,0,0-.949-.352,1.345,1.345,0,0,0-.895.273.929.929,0,0,0-.324.75H83.212a2.268,2.268,0,0,1,.453-1.359,3,3,0,0,1,1.281-.98,4.669,4.669,0,0,1,1.859-.355,3.689,3.689,0,0,1,2.48.785,2.747,2.747,0,0,1,.918,2.207v3.664a4.041,4.041,0,0,0,.336,1.82V37Zm-1.867-1.57a1.945,1.945,0,0,0,.922-.223,1.462,1.462,0,0,0,.625-.6V33.156H87.1q-1.7,0-1.8,1.172l-.008.133a.9.9,0,0,0,.3.7A1.153,1.153,0,0,0,86.392,35.43ZM94.362,37H92.1V25h2.266Zm5.79.156a4.15,4.15,0,0,1-3.027-1.141,4.054,4.054,0,0,1-1.168-3.039v-.219a5.106,5.106,0,0,1,.492-2.277,3.612,3.612,0,0,1,1.395-1.547,3.914,3.914,0,0,1,2.059-.543,3.508,3.508,0,0,1,2.73,1.094,4.444,4.444,0,0,1,1,3.1v.922H98.245a2.1,2.1,0,0,0,.66,1.328,2,2,0,0,0,1.395.5,2.437,2.437,0,0,0,2.039-.945l1.109,1.242a3.389,3.389,0,0,1-1.375,1.121A4.511,4.511,0,0,1,100.152,37.156Zm-.258-6.945a1.411,1.411,0,0,0-1.09.455,2.357,2.357,0,0,0-.535,1.3h3.141v-.181A1.681,1.681,0,0,0,101,30.623,1.456,1.456,0,0,0,99.894,30.211Zm9.634,4.453a.727.727,0,0,0-.41-.652,4.659,4.659,0,0,0-1.316-.426q-3.016-.633-3.016-2.562a2.323,2.323,0,0,1,.934-1.879,3.766,3.766,0,0,1,2.441-.754,4.053,4.053,0,0,1,2.574.758,2.388,2.388,0,0,1,.965,1.969h-2.258a1.092,1.092,0,0,0-.312-.8,1.322,1.322,0,0,0-.977-.316,1.351,1.351,0,0,0-.883.258.814.814,0,0,0-.312.656.7.7,0,0,0,.355.605,3.657,3.657,0,0,0,1.2.4,9.8,9.8,0,0,1,1.422.379,2.336,2.336,0,0,1,1.789,2.273,2.2,2.2,0,0,1-.992,1.871,4.28,4.28,0,0,1-2.562.715,4.47,4.47,0,0,1-1.887-.379,3.166,3.166,0,0,1-1.293-1.039,2.414,2.414,0,0,1-.469-1.426h2.141a1.179,1.179,0,0,0,.445.922,1.766,1.766,0,0,0,1.109.32,1.635,1.635,0,0,0,.98-.246A.766.766,0,0,0,109.528,34.664Z" transform="translate(413 3323.827)" fill="#12263f"/>
    <path id="Path_1020624" data-name="Path 1020624" d="M21.869,17V5.625h3.5a5.315,5.315,0,0,1,2.684.676A4.712,4.712,0,0,1,29.9,8.223a5.928,5.928,0,0,1,.664,2.832v.523a5.945,5.945,0,0,1-.652,2.82,4.672,4.672,0,0,1-1.84,1.914,5.355,5.355,0,0,1-2.68.688Zm2.344-9.477v7.594h1.133a2.545,2.545,0,0,0,2.1-.9,4.06,4.06,0,0,0,.742-2.57v-.6a4.124,4.124,0,0,0-.719-2.629,2.537,2.537,0,0,0-2.1-.895ZM36.05,17.156a4.15,4.15,0,0,1-3.027-1.141,4.054,4.054,0,0,1-1.168-3.039v-.219a5.106,5.106,0,0,1,.492-2.277,3.612,3.612,0,0,1,1.395-1.547A3.914,3.914,0,0,1,35.8,8.391a3.508,3.508,0,0,1,2.73,1.094,4.444,4.444,0,0,1,1,3.1v.922H34.144a2.1,2.1,0,0,0,.66,1.328,2,2,0,0,0,1.395.5,2.437,2.437,0,0,0,2.039-.945l1.109,1.242a3.389,3.389,0,0,1-1.375,1.121A4.511,4.511,0,0,1,36.05,17.156Zm-.258-6.945a1.411,1.411,0,0,0-1.09.455,2.357,2.357,0,0,0-.535,1.3h3.141v-.181a1.681,1.681,0,0,0-.406-1.165A1.456,1.456,0,0,0,35.792,10.211Zm7.759-3.742V8.547H45V10.2H43.551v4.219a1.007,1.007,0,0,0,.18.672.9.9,0,0,0,.688.2,3.6,3.6,0,0,0,.664-.055v1.711a4.648,4.648,0,0,1-1.367.2,2.156,2.156,0,0,1-2.422-2.4V10.2H40.059V8.547h1.234V6.469Zm6.634,10.688a4.15,4.15,0,0,1-3.027-1.141,4.054,4.054,0,0,1-1.168-3.039v-.219a5.106,5.106,0,0,1,.492-2.277,3.612,3.612,0,0,1,1.395-1.547,3.914,3.914,0,0,1,2.059-.543,3.508,3.508,0,0,1,2.73,1.094,4.444,4.444,0,0,1,1,3.1v.922H48.278a2.1,2.1,0,0,0,.66,1.328,2,2,0,0,0,1.395.5,2.437,2.437,0,0,0,2.039-.945l1.109,1.242a3.389,3.389,0,0,1-1.375,1.121A4.511,4.511,0,0,1,50.185,17.156Zm-.258-6.945a1.411,1.411,0,0,0-1.09.455,2.357,2.357,0,0,0-.535,1.3h3.141v-.181a1.681,1.681,0,0,0-.406-1.165A1.456,1.456,0,0,0,49.927,10.211Zm9.806.453a6.134,6.134,0,0,0-.812-.062,1.654,1.654,0,0,0-1.68.867V17H54.982V8.547h2.133l.063,1.008a2.092,2.092,0,0,1,1.883-1.164,2.366,2.366,0,0,1,.7.1Zm3.243-2.117.07.945a2.971,2.971,0,0,1,2.43-1.1A2.255,2.255,0,0,1,67.718,9.68a2.9,2.9,0,0,1,2.539-1.289,2.521,2.521,0,0,1,2.047.8,3.681,3.681,0,0,1,.672,2.41V17H70.71V11.609a1.61,1.61,0,0,0-.281-1.051,1.246,1.246,0,0,0-.992-.332,1.409,1.409,0,0,0-1.406.969l.008,5.8H65.78V11.617a1.59,1.59,0,0,0-.289-1.062,1.259,1.259,0,0,0-.984-.328,1.463,1.463,0,0,0-1.391.8V17H60.858V8.547ZM77.133,17H74.867V8.547h2.266Zm-2.4-10.641a1.112,1.112,0,0,1,.34-.836,1.465,1.465,0,0,1,1.848,0,1.105,1.105,0,0,1,.344.836,1.108,1.108,0,0,1-.348.844,1.448,1.448,0,0,1-1.836,0A1.108,1.108,0,0,1,74.734,6.359ZM81.11,8.547l.07.977a2.951,2.951,0,0,1,2.43-1.133,2.453,2.453,0,0,1,2,.789,3.682,3.682,0,0,1,.672,2.359V17H84.024V11.594a1.465,1.465,0,0,0-.312-1.043,1.4,1.4,0,0,0-1.039-.324,1.553,1.553,0,0,0-1.43.813V17H78.985V8.547ZM92.932,17a2.507,2.507,0,0,1-.227-.758,2.732,2.732,0,0,1-2.133.914,3,3,0,0,1-2.059-.719,2.312,2.312,0,0,1-.816-1.812,2.389,2.389,0,0,1,1-2.062,4.915,4.915,0,0,1,2.879-.727h1.039v-.484a1.393,1.393,0,0,0-.3-.937,1.183,1.183,0,0,0-.949-.352,1.345,1.345,0,0,0-.895.273.929.929,0,0,0-.324.75H87.885a2.268,2.268,0,0,1,.453-1.359,3,3,0,0,1,1.281-.98,4.669,4.669,0,0,1,1.859-.355,3.689,3.689,0,0,1,2.48.785,2.747,2.747,0,0,1,.918,2.207v3.664a4.041,4.041,0,0,0,.336,1.82V17Zm-1.867-1.57a1.945,1.945,0,0,0,.922-.223,1.462,1.462,0,0,0,.625-.6V13.156h-.844q-1.7,0-1.8,1.172l-.008.133a.9.9,0,0,0,.3.7A1.153,1.153,0,0,0,91.064,15.43Zm7.665-6.883.07.977a2.951,2.951,0,0,1,2.43-1.133,2.453,2.453,0,0,1,2,.789,3.682,3.682,0,0,1,.672,2.359V17h-2.258V11.594a1.465,1.465,0,0,0-.312-1.043,1.4,1.4,0,0,0-1.039-.324,1.553,1.553,0,0,0-1.43.813V17H96.6V8.547Zm9.626-2.078V8.547H109.8V10.2h-1.445v4.219a1.007,1.007,0,0,0,.18.672.9.9,0,0,0,.688.2,3.6,3.6,0,0,0,.664-.055v1.711a4.648,4.648,0,0,1-1.367.2,2.156,2.156,0,0,1-2.422-2.4V10.2h-1.234V8.547H106.1V6.469Zm6.634,10.688a4.15,4.15,0,0,1-3.027-1.141,4.054,4.054,0,0,1-1.168-3.039v-.219a5.106,5.106,0,0,1,.492-2.277,3.612,3.612,0,0,1,1.395-1.547,3.914,3.914,0,0,1,2.059-.543,3.508,3.508,0,0,1,2.73,1.094,4.444,4.444,0,0,1,1,3.1v.922h-5.383a2.1,2.1,0,0,0,.66,1.328,2,2,0,0,0,1.395.5,2.437,2.437,0,0,0,2.039-.945l1.109,1.242a3.389,3.389,0,0,1-1.375,1.121A4.511,4.511,0,0,1,114.989,17.156Zm-.258-6.945a1.411,1.411,0,0,0-1.09.455,2.357,2.357,0,0,0-.535,1.3h3.141v-.181a1.681,1.681,0,0,0-.406-1.165A1.456,1.456,0,0,0,114.731,10.211Zm9.634,4.453a.727.727,0,0,0-.41-.652,4.659,4.659,0,0,0-1.316-.426q-3.016-.633-3.016-2.562a2.323,2.323,0,0,1,.934-1.879A3.766,3.766,0,0,1,123,8.391a4.053,4.053,0,0,1,2.574.758,2.388,2.388,0,0,1,.965,1.969h-2.258a1.092,1.092,0,0,0-.312-.8A1.322,1.322,0,0,0,122.99,10a1.351,1.351,0,0,0-.883.258.814.814,0,0,0-.312.656.7.7,0,0,0,.355.605,3.657,3.657,0,0,0,1.2.4,9.8,9.8,0,0,1,1.422.379,2.336,2.336,0,0,1,1.789,2.273,2.2,2.2,0,0,1-.992,1.871,4.28,4.28,0,0,1-2.562.715,4.47,4.47,0,0,1-1.887-.379,3.166,3.166,0,0,1-1.293-1.039,2.414,2.414,0,0,1-.469-1.426H121.5a1.179,1.179,0,0,0,.445.922,1.766,1.766,0,0,0,1.109.32,1.635,1.635,0,0,0,.98-.246A.766.766,0,0,0,124.365,14.664Zm-74.837,20a.727.727,0,0,0-.41-.652,4.659,4.659,0,0,0-1.316-.426q-3.016-.633-3.016-2.562a2.323,2.323,0,0,1,.934-1.879,3.766,3.766,0,0,1,2.441-.754,4.053,4.053,0,0,1,2.574.758,2.388,2.388,0,0,1,.965,1.969H49.442a1.092,1.092,0,0,0-.312-.8A1.322,1.322,0,0,0,48.153,30a1.351,1.351,0,0,0-.883.258.814.814,0,0,0-.312.656.7.7,0,0,0,.355.605,3.657,3.657,0,0,0,1.2.4,9.8,9.8,0,0,1,1.422.379,2.336,2.336,0,0,1,1.789,2.273,2.205,2.205,0,0,1-.992,1.871,4.28,4.28,0,0,1-2.562.715,4.47,4.47,0,0,1-1.887-.379,3.166,3.166,0,0,1-1.293-1.039,2.414,2.414,0,0,1-.469-1.426h2.141a1.179,1.179,0,0,0,.445.922,1.766,1.766,0,0,0,1.109.32,1.635,1.635,0,0,0,.98-.246A.766.766,0,0,0,49.528,34.664ZM52.865,32.7a5.013,5.013,0,0,1,.484-2.242,3.546,3.546,0,0,1,1.395-1.523,4.069,4.069,0,0,1,2.113-.539,3.849,3.849,0,0,1,2.793,1.047,4.2,4.2,0,0,1,1.207,2.844l.016.578a4.418,4.418,0,0,1-1.086,3.121,4.209,4.209,0,0,1-5.832,0,4.5,4.5,0,0,1-1.09-3.187Zm2.258.16a3.16,3.16,0,0,0,.453,1.843,1.628,1.628,0,0,0,2.578.008,3.457,3.457,0,0,0,.461-2.015,3.128,3.128,0,0,0-.461-1.831,1.5,1.5,0,0,0-1.3-.649,1.474,1.474,0,0,0-1.281.646A3.516,3.516,0,0,0,55.123,32.856Zm10.7,2.48a1.481,1.481,0,0,0,1.016-.344,1.2,1.2,0,0,0,.406-.914h2.117a2.9,2.9,0,0,1-.469,1.574,3.093,3.093,0,0,1-1.262,1.109,3.949,3.949,0,0,1-1.77.395A3.67,3.67,0,0,1,63,36a4.56,4.56,0,0,1-1.047-3.184v-.148a4.508,4.508,0,0,1,1.039-3.117,3.627,3.627,0,0,1,2.852-1.164,3.555,3.555,0,0,1,2.543.9,3.2,3.2,0,0,1,.973,2.4H67.241a1.551,1.551,0,0,0-.406-1.072,1.51,1.51,0,0,0-2.223.163,3.333,3.333,0,0,0-.4,1.866v.235a3.375,3.375,0,0,0,.4,1.878A1.377,1.377,0,0,0,65.819,35.336ZM73.07,37H70.8V28.547H73.07Zm-2.4-10.641a1.112,1.112,0,0,1,.34-.836,1.465,1.465,0,0,1,1.848,0,1.193,1.193,0,0,1,0,1.68,1.448,1.448,0,0,1-1.836,0A1.108,1.108,0,0,1,70.671,26.359ZM79.868,37a2.507,2.507,0,0,1-.227-.758,2.732,2.732,0,0,1-2.133.914,3,3,0,0,1-2.059-.719,2.312,2.312,0,0,1-.816-1.812,2.389,2.389,0,0,1,1-2.062,4.915,4.915,0,0,1,2.879-.727h1.039v-.484a1.393,1.393,0,0,0-.3-.937,1.183,1.183,0,0,0-.949-.352,1.345,1.345,0,0,0-.895.273.929.929,0,0,0-.324.75H74.821a2.268,2.268,0,0,1,.453-1.359,3,3,0,0,1,1.281-.98,4.669,4.669,0,0,1,1.859-.355,3.689,3.689,0,0,1,2.48.785,2.747,2.747,0,0,1,.918,2.207v3.664a4.041,4.041,0,0,0,.336,1.82V37ZM78,35.43a1.945,1.945,0,0,0,.922-.223,1.462,1.462,0,0,0,.625-.6V33.156H78.7q-1.7,0-1.8,1.172l-.008.133a.9.9,0,0,0,.3.7A1.153,1.153,0,0,0,78,35.43ZM85.97,37H83.7V25H85.97Zm5.79.156a4.15,4.15,0,0,1-3.027-1.141,4.054,4.054,0,0,1-1.168-3.039v-.219a5.106,5.106,0,0,1,.492-2.277,3.612,3.612,0,0,1,1.395-1.547,3.914,3.914,0,0,1,2.059-.543,3.508,3.508,0,0,1,2.73,1.094,4.444,4.444,0,0,1,1,3.1v.922H89.854a2.1,2.1,0,0,0,.66,1.328,2,2,0,0,0,1.395.5,2.437,2.437,0,0,0,2.039-.945l1.109,1.242a3.389,3.389,0,0,1-1.375,1.121A4.511,4.511,0,0,1,91.76,37.156ZM91.5,30.211a1.411,1.411,0,0,0-1.09.455,2.357,2.357,0,0,0-.535,1.3h3.141v-.181a1.681,1.681,0,0,0-.406-1.165A1.456,1.456,0,0,0,91.5,30.211Zm9.634,4.453a.727.727,0,0,0-.41-.652,4.659,4.659,0,0,0-1.316-.426q-3.016-.633-3.016-2.562a2.323,2.323,0,0,1,.934-1.879,3.766,3.766,0,0,1,2.441-.754,4.053,4.053,0,0,1,2.574.758,2.388,2.388,0,0,1,.965,1.969H101.05a1.092,1.092,0,0,0-.312-.8A1.322,1.322,0,0,0,99.761,30a1.351,1.351,0,0,0-.883.258.814.814,0,0,0-.312.656.7.7,0,0,0,.355.605,3.657,3.657,0,0,0,1.2.4,9.8,9.8,0,0,1,1.422.379,2.336,2.336,0,0,1,1.789,2.273,2.2,2.2,0,0,1-.992,1.871,4.28,4.28,0,0,1-2.562.715,4.47,4.47,0,0,1-1.887-.379A3.166,3.166,0,0,1,96.6,35.738a2.414,2.414,0,0,1-.469-1.426h2.141a1.179,1.179,0,0,0,.445.922,1.766,1.766,0,0,0,1.109.32,1.635,1.635,0,0,0,.98-.246A.766.766,0,0,0,101.136,34.664Z" transform="translate(621 3323.827)" fill="#12263f"/>
    <path id="Path_1020625" data-name="Path 1020625" d="M21.869,17V5.625h3.5a5.315,5.315,0,0,1,2.684.676A4.712,4.712,0,0,1,29.9,8.223a5.928,5.928,0,0,1,.664,2.832v.523a5.945,5.945,0,0,1-.652,2.82,4.672,4.672,0,0,1-1.84,1.914,5.355,5.355,0,0,1-2.68.688Zm2.344-9.477v7.594h1.133a2.545,2.545,0,0,0,2.1-.9,4.06,4.06,0,0,0,.742-2.57v-.6a4.124,4.124,0,0,0-.719-2.629,2.537,2.537,0,0,0-2.1-.895ZM36.05,17.156a4.15,4.15,0,0,1-3.027-1.141,4.054,4.054,0,0,1-1.168-3.039v-.219a5.106,5.106,0,0,1,.492-2.277,3.612,3.612,0,0,1,1.395-1.547A3.914,3.914,0,0,1,35.8,8.391a3.508,3.508,0,0,1,2.73,1.094,4.444,4.444,0,0,1,1,3.1v.922H34.144a2.1,2.1,0,0,0,.66,1.328,2,2,0,0,0,1.395.5,2.437,2.437,0,0,0,2.039-.945l1.109,1.242a3.389,3.389,0,0,1-1.375,1.121A4.511,4.511,0,0,1,36.05,17.156Zm-.258-6.945a1.411,1.411,0,0,0-1.09.455,2.357,2.357,0,0,0-.535,1.3h3.141v-.181a1.681,1.681,0,0,0-.406-1.165A1.456,1.456,0,0,0,35.792,10.211Zm7.759-3.742V8.547H45V10.2H43.551v4.219a1.007,1.007,0,0,0,.18.672.9.9,0,0,0,.688.2,3.6,3.6,0,0,0,.664-.055v1.711a4.648,4.648,0,0,1-1.367.2,2.156,2.156,0,0,1-2.422-2.4V10.2H40.059V8.547h1.234V6.469Zm6.634,10.688a4.15,4.15,0,0,1-3.027-1.141,4.054,4.054,0,0,1-1.168-3.039v-.219a5.106,5.106,0,0,1,.492-2.277,3.612,3.612,0,0,1,1.395-1.547,3.914,3.914,0,0,1,2.059-.543,3.508,3.508,0,0,1,2.73,1.094,4.444,4.444,0,0,1,1,3.1v.922H48.278a2.1,2.1,0,0,0,.66,1.328,2,2,0,0,0,1.395.5,2.437,2.437,0,0,0,2.039-.945l1.109,1.242a3.389,3.389,0,0,1-1.375,1.121A4.511,4.511,0,0,1,50.185,17.156Zm-.258-6.945a1.411,1.411,0,0,0-1.09.455,2.357,2.357,0,0,0-.535,1.3h3.141v-.181a1.681,1.681,0,0,0-.406-1.165A1.456,1.456,0,0,0,49.927,10.211Zm9.806.453a6.134,6.134,0,0,0-.812-.062,1.654,1.654,0,0,0-1.68.867V17H54.982V8.547h2.133l.063,1.008a2.092,2.092,0,0,1,1.883-1.164,2.366,2.366,0,0,1,.7.1Zm3.243-2.117.07.945a2.971,2.971,0,0,1,2.43-1.1A2.255,2.255,0,0,1,67.718,9.68a2.9,2.9,0,0,1,2.539-1.289,2.521,2.521,0,0,1,2.047.8,3.681,3.681,0,0,1,.672,2.41V17H70.71V11.609a1.61,1.61,0,0,0-.281-1.051,1.246,1.246,0,0,0-.992-.332,1.409,1.409,0,0,0-1.406.969l.008,5.8H65.78V11.617a1.59,1.59,0,0,0-.289-1.062,1.259,1.259,0,0,0-.984-.328,1.463,1.463,0,0,0-1.391.8V17H60.858V8.547ZM77.133,17H74.867V8.547h2.266Zm-2.4-10.641a1.112,1.112,0,0,1,.34-.836,1.465,1.465,0,0,1,1.848,0,1.105,1.105,0,0,1,.344.836,1.108,1.108,0,0,1-.348.844,1.448,1.448,0,0,1-1.836,0A1.108,1.108,0,0,1,74.734,6.359ZM81.11,8.547l.07.977a2.951,2.951,0,0,1,2.43-1.133,2.453,2.453,0,0,1,2,.789,3.682,3.682,0,0,1,.672,2.359V17H84.024V11.594a1.465,1.465,0,0,0-.312-1.043,1.4,1.4,0,0,0-1.039-.324,1.553,1.553,0,0,0-1.43.813V17H78.985V8.547ZM92.932,17a2.507,2.507,0,0,1-.227-.758,2.732,2.732,0,0,1-2.133.914,3,3,0,0,1-2.059-.719,2.312,2.312,0,0,1-.816-1.812,2.389,2.389,0,0,1,1-2.062,4.915,4.915,0,0,1,2.879-.727h1.039v-.484a1.393,1.393,0,0,0-.3-.937,1.183,1.183,0,0,0-.949-.352,1.345,1.345,0,0,0-.895.273.929.929,0,0,0-.324.75H87.885a2.268,2.268,0,0,1,.453-1.359,3,3,0,0,1,1.281-.98,4.669,4.669,0,0,1,1.859-.355,3.689,3.689,0,0,1,2.48.785,2.747,2.747,0,0,1,.918,2.207v3.664a4.041,4.041,0,0,0,.336,1.82V17Zm-1.867-1.57a1.945,1.945,0,0,0,.922-.223,1.462,1.462,0,0,0,.625-.6V13.156h-.844q-1.7,0-1.8,1.172l-.008.133a.9.9,0,0,0,.3.7A1.153,1.153,0,0,0,91.064,15.43Zm7.665-6.883.07.977a2.951,2.951,0,0,1,2.43-1.133,2.453,2.453,0,0,1,2,.789,3.682,3.682,0,0,1,.672,2.359V17h-2.258V11.594a1.465,1.465,0,0,0-.312-1.043,1.4,1.4,0,0,0-1.039-.324,1.553,1.553,0,0,0-1.43.813V17H96.6V8.547Zm9.626-2.078V8.547H109.8V10.2h-1.445v4.219a1.007,1.007,0,0,0,.18.672.9.9,0,0,0,.688.2,3.6,3.6,0,0,0,.664-.055v1.711a4.648,4.648,0,0,1-1.367.2,2.156,2.156,0,0,1-2.422-2.4V10.2h-1.234V8.547H106.1V6.469Zm6.634,10.688a4.15,4.15,0,0,1-3.027-1.141,4.054,4.054,0,0,1-1.168-3.039v-.219a5.106,5.106,0,0,1,.492-2.277,3.612,3.612,0,0,1,1.395-1.547,3.914,3.914,0,0,1,2.059-.543,3.508,3.508,0,0,1,2.73,1.094,4.444,4.444,0,0,1,1,3.1v.922h-5.383a2.1,2.1,0,0,0,.66,1.328,2,2,0,0,0,1.395.5,2.437,2.437,0,0,0,2.039-.945l1.109,1.242a3.389,3.389,0,0,1-1.375,1.121A4.511,4.511,0,0,1,114.989,17.156Zm-.258-6.945a1.411,1.411,0,0,0-1.09.455,2.357,2.357,0,0,0-.535,1.3h3.141v-.181a1.681,1.681,0,0,0-.406-1.165A1.456,1.456,0,0,0,114.731,10.211Zm9.634,4.453a.727.727,0,0,0-.41-.652,4.659,4.659,0,0,0-1.316-.426q-3.016-.633-3.016-2.562a2.323,2.323,0,0,1,.934-1.879A3.766,3.766,0,0,1,123,8.391a4.053,4.053,0,0,1,2.574.758,2.388,2.388,0,0,1,.965,1.969h-2.258a1.092,1.092,0,0,0-.312-.8A1.322,1.322,0,0,0,122.99,10a1.351,1.351,0,0,0-.883.258.814.814,0,0,0-.312.656.7.7,0,0,0,.355.605,3.657,3.657,0,0,0,1.2.4,9.8,9.8,0,0,1,1.422.379,2.336,2.336,0,0,1,1.789,2.273,2.2,2.2,0,0,1-.992,1.871,4.28,4.28,0,0,1-2.562.715,4.47,4.47,0,0,1-1.887-.379,3.166,3.166,0,0,1-1.293-1.039,2.414,2.414,0,0,1-.469-1.426H121.5a1.179,1.179,0,0,0,.445.922,1.766,1.766,0,0,0,1.109.32,1.635,1.635,0,0,0,.98-.246A.766.766,0,0,0,124.365,14.664ZM29.8,35.336a1.481,1.481,0,0,0,1.016-.344,1.2,1.2,0,0,0,.406-.914h2.117a2.9,2.9,0,0,1-.469,1.574,3.093,3.093,0,0,1-1.262,1.109,3.949,3.949,0,0,1-1.77.395A3.67,3.67,0,0,1,26.983,36a4.56,4.56,0,0,1-1.047-3.184v-.148a4.508,4.508,0,0,1,1.039-3.117,3.627,3.627,0,0,1,2.852-1.164,3.555,3.555,0,0,1,2.543.9,3.2,3.2,0,0,1,.973,2.4H31.225a1.551,1.551,0,0,0-.406-1.072,1.51,1.51,0,0,0-2.223.163,3.333,3.333,0,0,0-.4,1.866v.235a3.375,3.375,0,0,0,.4,1.878A1.377,1.377,0,0,0,29.8,35.336ZM34.32,32.7a5.013,5.013,0,0,1,.484-2.242A3.546,3.546,0,0,1,36.2,28.93a4.069,4.069,0,0,1,2.113-.539,3.849,3.849,0,0,1,2.793,1.047,4.2,4.2,0,0,1,1.207,2.844l.016.578a4.418,4.418,0,0,1-1.086,3.121,4.209,4.209,0,0,1-5.832,0A4.5,4.5,0,0,1,34.32,32.8Zm2.258.16a3.16,3.16,0,0,0,.453,1.843,1.628,1.628,0,0,0,2.578.008,3.457,3.457,0,0,0,.461-2.015,3.128,3.128,0,0,0-.461-1.831,1.5,1.5,0,0,0-1.3-.649,1.474,1.474,0,0,0-1.281.646A3.516,3.516,0,0,0,36.578,32.856Zm9.259-4.309.07.977a2.951,2.951,0,0,1,2.43-1.133,2.453,2.453,0,0,1,2,.789,3.682,3.682,0,0,1,.672,2.359V37H48.751V31.594a1.465,1.465,0,0,0-.312-1.043,1.4,1.4,0,0,0-1.039-.324,1.553,1.553,0,0,0-1.43.813V37H43.712V28.547Zm6.571,4.164a5.094,5.094,0,0,1,.887-3.148,2.877,2.877,0,0,1,2.426-1.172,2.589,2.589,0,0,1,2.039.922V25h2.266V37H57.986l-.109-.9A2.657,2.657,0,0,1,55.7,37.156,2.869,2.869,0,0,1,53.31,35.98,5.258,5.258,0,0,1,52.408,32.711Zm2.258.168A3.337,3.337,0,0,0,55.08,34.7a1.349,1.349,0,0,0,1.2.634,1.511,1.511,0,0,0,1.477-.884V31.111a1.489,1.489,0,0,0-1.461-.884Q54.666,30.227,54.666,32.879Zm12.212,3.262a2.831,2.831,0,0,1-2.312,1.016,2.67,2.67,0,0,1-2.074-.781,3.335,3.335,0,0,1-.73-2.289V28.547h2.258v5.467q0,1.322,1.2,1.322a1.63,1.63,0,0,0,1.578-.8V28.547h2.266V37H66.94Zm7.446-.8a1.481,1.481,0,0,0,1.016-.344,1.2,1.2,0,0,0,.406-.914h2.117a2.9,2.9,0,0,1-.469,1.574,3.093,3.093,0,0,1-1.262,1.109,3.949,3.949,0,0,1-1.77.395A3.67,3.67,0,0,1,71.5,36a4.56,4.56,0,0,1-1.047-3.184v-.148A4.508,4.508,0,0,1,71.5,29.555a3.627,3.627,0,0,1,2.852-1.164,3.555,3.555,0,0,1,2.543.9,3.2,3.2,0,0,1,.973,2.4H75.746a1.551,1.551,0,0,0-.406-1.072,1.51,1.51,0,0,0-2.223.163,3.333,3.333,0,0,0-.4,1.866v.235a3.375,3.375,0,0,0,.4,1.878A1.377,1.377,0,0,0,74.324,35.336ZM81.9,26.469v2.078H83.34V30.2H81.9v4.219a1.007,1.007,0,0,0,.18.672.9.9,0,0,0,.688.2,3.6,3.6,0,0,0,.664-.055v1.711a4.648,4.648,0,0,1-1.367.2,2.156,2.156,0,0,1-2.422-2.4V30.2H78.4V28.547h1.234V26.469ZM89.7,36.141a2.831,2.831,0,0,1-2.312,1.016,2.67,2.67,0,0,1-2.074-.781,3.335,3.335,0,0,1-.73-2.289V28.547h2.258v5.467q0,1.322,1.2,1.322a1.63,1.63,0,0,0,1.578-.8V28.547h2.266V37H89.763ZM98.53,37a2.507,2.507,0,0,1-.227-.758,2.732,2.732,0,0,1-2.133.914,3,3,0,0,1-2.059-.719,2.312,2.312,0,0,1-.816-1.812,2.389,2.389,0,0,1,1-2.062,4.915,4.915,0,0,1,2.879-.727h1.039v-.484a1.393,1.393,0,0,0-.3-.937,1.183,1.183,0,0,0-.949-.352,1.345,1.345,0,0,0-.895.273.929.929,0,0,0-.324.75H93.483a2.268,2.268,0,0,1,.453-1.359,3,3,0,0,1,1.281-.98,4.669,4.669,0,0,1,1.859-.355,3.689,3.689,0,0,1,2.48.785,2.747,2.747,0,0,1,.918,2.207v3.664a4.041,4.041,0,0,0,.336,1.82V37Zm-1.867-1.57a1.945,1.945,0,0,0,.922-.223,1.462,1.462,0,0,0,.625-.6V33.156h-.844q-1.7,0-1.8,1.172l-.008.133a.9.9,0,0,0,.3.7A1.153,1.153,0,0,0,96.662,35.43Zm7.97,1.57h-2.266V25h2.266Zm5.79.156a4.15,4.15,0,0,1-3.027-1.141,4.054,4.054,0,0,1-1.168-3.039v-.219a5.106,5.106,0,0,1,.492-2.277,3.612,3.612,0,0,1,1.395-1.547,3.914,3.914,0,0,1,2.059-.543,3.508,3.508,0,0,1,2.73,1.094,4.444,4.444,0,0,1,1,3.1v.922h-5.383a2.1,2.1,0,0,0,.66,1.328,2,2,0,0,0,1.395.5,2.437,2.437,0,0,0,2.039-.945l1.109,1.242a3.389,3.389,0,0,1-1.375,1.121A4.511,4.511,0,0,1,110.422,37.156Zm-.258-6.945a1.411,1.411,0,0,0-1.09.455,2.357,2.357,0,0,0-.535,1.3h3.141v-.181a1.681,1.681,0,0,0-.406-1.165A1.456,1.456,0,0,0,110.164,30.211Zm9.634,4.453a.727.727,0,0,0-.41-.652,4.659,4.659,0,0,0-1.316-.426q-3.016-.633-3.016-2.562a2.323,2.323,0,0,1,.934-1.879,3.766,3.766,0,0,1,2.441-.754,4.053,4.053,0,0,1,2.574.758,2.388,2.388,0,0,1,.965,1.969h-2.258a1.092,1.092,0,0,0-.312-.8,1.322,1.322,0,0,0-.977-.316,1.351,1.351,0,0,0-.883.258.814.814,0,0,0-.312.656.7.7,0,0,0,.355.605,3.657,3.657,0,0,0,1.2.4,9.8,9.8,0,0,1,1.422.379,2.336,2.336,0,0,1,1.789,2.273A2.2,2.2,0,0,1,121,36.441a4.28,4.28,0,0,1-2.562.715,4.47,4.47,0,0,1-1.887-.379,3.166,3.166,0,0,1-1.293-1.039,2.414,2.414,0,0,1-.469-1.426h2.141a1.179,1.179,0,0,0,.445.922,1.766,1.766,0,0,0,1.109.32,1.635,1.635,0,0,0,.98-.246A.766.766,0,0,0,119.8,34.664Z" transform="translate(829 3323.827)" fill="#12263f"/>
    <path id="Path_1020626" data-name="Path 1020626" d="M26.536,13.211A4.025,4.025,0,0,1,25.181,16.1a4.76,4.76,0,0,1-3.223,1.055,4.28,4.28,0,0,1-3.441-1.473,6.038,6.038,0,0,1-1.254-4.043v-.7a6.819,6.819,0,0,1,.578-2.891,4.332,4.332,0,0,1,1.652-1.918,4.629,4.629,0,0,1,2.5-.668,4.637,4.637,0,0,1,3.172,1.055,4.326,4.326,0,0,1,1.391,2.961H24.208a2.376,2.376,0,0,0-.613-1.6,2.271,2.271,0,0,0-1.605-.5,1.991,1.991,0,0,0-1.754.84,4.707,4.707,0,0,0-.6,2.605V11.7a5.038,5.038,0,0,0,.559,2.7,1.954,1.954,0,0,0,1.762.852,2.314,2.314,0,0,0,1.621-.5,2.241,2.241,0,0,0,.613-1.535Zm1.079-.516a5.013,5.013,0,0,1,.484-2.242A3.546,3.546,0,0,1,29.494,8.93a4.069,4.069,0,0,1,2.113-.539A3.849,3.849,0,0,1,34.4,9.438a4.2,4.2,0,0,1,1.207,2.844l.016.578a4.418,4.418,0,0,1-1.086,3.121,3.775,3.775,0,0,1-2.914,1.176,3.793,3.793,0,0,1-2.918-1.172,4.5,4.5,0,0,1-1.09-3.187Zm2.258.16a3.16,3.16,0,0,0,.453,1.843,1.628,1.628,0,0,0,2.578.008,3.457,3.457,0,0,0,.461-2.015A3.128,3.128,0,0,0,32.9,10.86a1.5,1.5,0,0,0-1.3-.649,1.474,1.474,0,0,0-1.281.646A3.516,3.516,0,0,0,29.873,12.856Zm9.384-3.387a2.818,2.818,0,0,1,2.258-1.078q2.75,0,2.789,3.2V17H42.046V11.648a1.57,1.57,0,0,0-.312-1.074,1.34,1.34,0,0,0-1.039-.348,1.537,1.537,0,0,0-1.437.766V17H37V5h2.258Zm10.681,7.688a4.15,4.15,0,0,1-3.027-1.141,4.054,4.054,0,0,1-1.168-3.039v-.219a5.106,5.106,0,0,1,.492-2.277,3.612,3.612,0,0,1,1.395-1.547,3.914,3.914,0,0,1,2.059-.543,3.508,3.508,0,0,1,2.73,1.094,4.444,4.444,0,0,1,1,3.1v.922H48.031a2.1,2.1,0,0,0,.66,1.328,2,2,0,0,0,1.395.5,2.437,2.437,0,0,0,2.039-.945l1.109,1.242a3.389,3.389,0,0,1-1.375,1.121A4.511,4.511,0,0,1,49.938,17.156Zm-.258-6.945a1.411,1.411,0,0,0-1.09.455,2.357,2.357,0,0,0-.535,1.3H51.2v-.181a1.681,1.681,0,0,0-.406-1.165A1.456,1.456,0,0,0,49.68,10.211Zm9.634,4.453a.727.727,0,0,0-.41-.652,4.659,4.659,0,0,0-1.316-.426q-3.016-.633-3.016-2.562A2.323,2.323,0,0,1,55.5,9.145a3.766,3.766,0,0,1,2.441-.754,4.053,4.053,0,0,1,2.574.758,2.388,2.388,0,0,1,.965,1.969H59.228a1.092,1.092,0,0,0-.312-.8A1.322,1.322,0,0,0,57.939,10a1.351,1.351,0,0,0-.883.258.814.814,0,0,0-.312.656.7.7,0,0,0,.355.605,3.657,3.657,0,0,0,1.2.4,9.8,9.8,0,0,1,1.422.379,2.336,2.336,0,0,1,1.789,2.273,2.2,2.2,0,0,1-.992,1.871,4.28,4.28,0,0,1-2.562.715,4.47,4.47,0,0,1-1.887-.379,3.166,3.166,0,0,1-1.293-1.039,2.414,2.414,0,0,1-.469-1.426h2.141a1.179,1.179,0,0,0,.445.922,1.766,1.766,0,0,0,1.109.32,1.635,1.635,0,0,0,.98-.246A.766.766,0,0,0,59.314,14.664ZM65.385,17H63.119V8.547h2.266Zm-2.4-10.641a1.112,1.112,0,0,1,.34-.836,1.465,1.465,0,0,1,1.848,0,1.105,1.105,0,0,1,.344.836,1.108,1.108,0,0,1-.348.844,1.448,1.448,0,0,1-1.836,0A1.108,1.108,0,0,1,62.986,6.359ZM66.933,12.7a5.013,5.013,0,0,1,.484-2.242A3.546,3.546,0,0,1,68.812,8.93a4.069,4.069,0,0,1,2.113-.539,3.849,3.849,0,0,1,2.793,1.047,4.2,4.2,0,0,1,1.207,2.844l.016.578a4.418,4.418,0,0,1-1.086,3.121,4.209,4.209,0,0,1-5.832,0,4.5,4.5,0,0,1-1.09-3.187Zm2.258.16a3.16,3.16,0,0,0,.453,1.843,1.628,1.628,0,0,0,2.578.008,3.457,3.457,0,0,0,.461-2.015,3.128,3.128,0,0,0-.461-1.831,1.5,1.5,0,0,0-1.3-.649,1.474,1.474,0,0,0-1.281.646A3.516,3.516,0,0,0,69.19,12.856ZM71.37,5h2.461L71.667,7.422H69.831Zm7.079,3.547.07.977a2.951,2.951,0,0,1,2.43-1.133,2.453,2.453,0,0,1,2,.789,3.682,3.682,0,0,1,.672,2.359V17H81.363V11.594a1.465,1.465,0,0,0-.312-1.043,1.4,1.4,0,0,0-1.039-.324,1.553,1.553,0,0,0-1.43.813V17H76.324V8.547Zm15.525,6.117a.727.727,0,0,0-.41-.652,4.659,4.659,0,0,0-1.316-.426q-3.016-.633-3.016-2.562a2.323,2.323,0,0,1,.934-1.879,3.766,3.766,0,0,1,2.441-.754,4.053,4.053,0,0,1,2.574.758,2.388,2.388,0,0,1,.965,1.969H93.889a1.092,1.092,0,0,0-.312-.8A1.322,1.322,0,0,0,92.6,10a1.351,1.351,0,0,0-.883.258.814.814,0,0,0-.312.656.7.7,0,0,0,.355.605,3.657,3.657,0,0,0,1.2.4,9.8,9.8,0,0,1,1.422.379A2.336,2.336,0,0,1,96.17,14.57a2.2,2.2,0,0,1-.992,1.871,4.28,4.28,0,0,1-2.562.715,4.47,4.47,0,0,1-1.887-.379,3.166,3.166,0,0,1-1.293-1.039,2.414,2.414,0,0,1-.469-1.426h2.141a1.179,1.179,0,0,0,.445.922,1.766,1.766,0,0,0,1.109.32,1.635,1.635,0,0,0,.98-.246A.766.766,0,0,0,93.975,14.664ZM97.311,12.7a5.013,5.013,0,0,1,.484-2.242A3.546,3.546,0,0,1,99.19,8.93a4.069,4.069,0,0,1,2.113-.539A3.849,3.849,0,0,1,104.1,9.438a4.2,4.2,0,0,1,1.207,2.844l.016.578a4.418,4.418,0,0,1-1.086,3.121,4.209,4.209,0,0,1-5.832,0,4.5,4.5,0,0,1-1.09-3.187Zm2.258.16a3.16,3.16,0,0,0,.453,1.843,1.628,1.628,0,0,0,2.578.008,3.457,3.457,0,0,0,.461-2.015,3.128,3.128,0,0,0-.461-1.831,1.5,1.5,0,0,0-1.3-.649,1.474,1.474,0,0,0-1.281.646A3.516,3.516,0,0,0,99.569,12.856Zm10.7,2.48a1.481,1.481,0,0,0,1.016-.344,1.2,1.2,0,0,0,.406-.914H113.8a2.9,2.9,0,0,1-.469,1.574,3.093,3.093,0,0,1-1.262,1.109,3.949,3.949,0,0,1-1.77.395A3.67,3.67,0,0,1,107.445,16,4.56,4.56,0,0,1,106.4,12.82v-.148a4.508,4.508,0,0,1,1.039-3.117,3.627,3.627,0,0,1,2.852-1.164,3.555,3.555,0,0,1,2.543.9,3.2,3.2,0,0,1,.973,2.4h-2.117a1.551,1.551,0,0,0-.406-1.072,1.51,1.51,0,0,0-2.223.163,3.333,3.333,0,0,0-.4,1.866v.235a3.375,3.375,0,0,0,.4,1.878A1.377,1.377,0,0,0,110.265,15.336ZM117.516,17h-2.266V8.547h2.266Zm-2.4-10.641a1.112,1.112,0,0,1,.34-.836,1.465,1.465,0,0,1,1.848,0,1.105,1.105,0,0,1,.344.836,1.108,1.108,0,0,1-.348.844,1.448,1.448,0,0,1-1.836,0A1.108,1.108,0,0,1,115.118,6.359ZM124.314,17a2.507,2.507,0,0,1-.227-.758,2.732,2.732,0,0,1-2.133.914,3,3,0,0,1-2.059-.719,2.312,2.312,0,0,1-.816-1.812,2.389,2.389,0,0,1,1-2.062,4.915,4.915,0,0,1,2.879-.727h1.039v-.484a1.393,1.393,0,0,0-.3-.937,1.183,1.183,0,0,0-.949-.352,1.345,1.345,0,0,0-.895.273.929.929,0,0,0-.324.75h-2.258a2.268,2.268,0,0,1,.453-1.359A3,3,0,0,1,121,8.746a4.669,4.669,0,0,1,1.859-.355,3.689,3.689,0,0,1,2.48.785,2.747,2.747,0,0,1,.918,2.207v3.664a4.041,4.041,0,0,0,.336,1.82V17Zm-1.867-1.57a1.945,1.945,0,0,0,.922-.223,1.462,1.462,0,0,0,.625-.6V13.156h-.844q-1.7,0-1.8,1.172l-.008.133a.9.9,0,0,0,.3.7A1.153,1.153,0,0,0,122.447,15.43Zm7.97,1.57h-2.266V5h2.266Z" transform="translate(1037 3333.827)" fill="#12263f"/>
  </g>
</svg>
