<svg xmlns="http://www.w3.org/2000/svg" width="150" height="150" viewBox="0 0 150 150">
  <g id="img4" transform="translate(-383.746 -8400)">
    <circle id="Ellipse_13609" data-name="Ellipse 13609" cx="75" cy="75" r="75" transform="translate(383.746 8400)" fill="#fff"/>
    <g id="Group_1197551" data-name="Group 1197551" transform="translate(372.4 8435.168)">
      <g id="Group_1197550" data-name="Group 1197550" transform="translate(55.111 0)">
        <path id="Path_1019951" data-name="Path 1019951" d="M112.857,272.867a18.289,18.289,0,0,1-9.282-28.308,1.589,1.589,0,0,0,.141-.231,1.56,1.56,0,0,0-2.668-1.6,21.407,21.407,0,0,0,.1,25.484,21.581,21.581,0,0,0,10.787,7.633,1.56,1.56,0,0,0,.926-2.979Z" transform="translate(-90.374 -204.31)" fill="#4a4e3c"/>
        <path id="Path_1019952" data-name="Path 1019952" d="M117.581,36.453a13.735,13.735,0,0,0-2.677-8.184L105.03,13.61a1.56,1.56,0,0,0-2.588,0l-4.161,6.177L85.415.688a1.56,1.56,0,0,0-2.587,0L60.743,33.473a29.012,29.012,0,1,0,52.39,17.18,29.284,29.284,0,0,0-.251-3.816A13.815,13.815,0,0,0,117.581,36.453ZM103.736,17.273l8.58,12.738q.026.04.054.078a10.725,10.725,0,1,1-17.269,0c.018-.024.035-.049.052-.075l4.418-6.559.024-.036Zm6.277,33.38A25.891,25.891,0,1,1,63.279,35.29c.019-.025.037-.052.055-.079L84.122,4.352,96.4,22.579l-3.833,5.69a13.843,13.843,0,0,0,17.38,20.555q.064.913.065,1.83Z" transform="translate(-55.111 0)" fill="#4a4e3c"/>
        <path id="Path_1019953" data-name="Path 1019953" d="M314.681,207.64a5.3,5.3,0,0,1,.458-2.168,1.56,1.56,0,0,0-2.851-1.267,8.471,8.471,0,0,0,3.035,10.474,1.56,1.56,0,0,0,1.735-2.593A5.341,5.341,0,0,1,314.681,207.64Z" transform="translate(-271.556 -171.568)" fill="#4a4e3c"/>
        <path id="Path_1019954" data-name="Path 1019954" d="M220.131,448.169a1.56,1.56,0,1,0-1.746,2.126A1.572,1.572,0,0,0,220.131,448.169Z" transform="translate(-191.86 -377.451)" fill="#4a4e3c"/>
        <path id="Path_1019955" data-name="Path 1019955" d="M357.848,270.017a1.56,1.56,0,1,0,0-2.594A1.567,1.567,0,0,0,357.848,270.017Z" transform="translate(-310.045 -225.484)" fill="#4a4e3c"/>
      </g>
    </g>
  </g>
</svg>
