<svg xmlns="http://www.w3.org/2000/svg" width="84" height="84" viewBox="0 0 84 84">
  <g id="img8" transform="translate(-185 -3128)">
    <rect id="Rectangle_461419" data-name="Rectangle 461419" width="84" height="84" rx="9" transform="translate(185 3128)" fill="#9c3413"/>
    <path id="Path_1019964" data-name="Path 1019964" d="M52.027,78.584H45.7a9.418,9.418,0,0,0-6.408-12.925V45.987a9.447,9.447,0,0,0,4.671-3.159.746.746,0,0,0,.192-.256,9.358,9.358,0,0,0,1.85-5.189h6.156a2.781,2.781,0,1,0,0-1.505h-6.2a9.426,9.426,0,0,0-18.731,0h-5.95a2.792,2.792,0,1,0,0,1.505h5.9a9.353,9.353,0,0,0,1.892,5.24.744.744,0,0,0,.133.178A9.457,9.457,0,0,0,33.96,46V65.919a9.416,9.416,0,0,0-5.53,12.664h-7.2a2.835,2.835,0,0,0-2.838,2.824v2.086a.752.752,0,0,0,.753.753H54.1a.752.752,0,0,0,.753-.753V81.408a2.828,2.828,0,0,0-2.824-2.824Zm2.8-43.227a1.281,1.281,0,1,1-1.274,1.274A1.275,1.275,0,0,1,54.828,35.357ZM18.619,37.92a1.281,1.281,0,1,1,1.274-1.289A1.283,1.283,0,0,1,18.619,37.92Zm17.985-8.9A7.92,7.92,0,0,1,43.5,40.845,10.385,10.385,0,0,0,39,38.324a.468.468,0,0,1-.051-.153c1.084-1.242,1.472-3.007,1.256-5.649a3.459,3.459,0,0,0-3.6-3.233H36.59a3.442,3.442,0,0,0-3.581,3.224c-.234,2.686.141,4.407,1.25,5.656a.861.861,0,0,1-.043.154A10.354,10.354,0,0,0,29.7,40.854a7.85,7.85,0,0,1-1.034-3.895A7.943,7.943,0,0,1,36.6,29.024Zm-5.983,13.12c.265-.507,1.163-1.408,4.138-2.417l.058-.022a1.783,1.783,0,0,0,.974-1.788.75.75,0,0,0-.227-.559c-.948-.921-1.263-2.331-1.055-4.727a1.964,1.964,0,0,1,2.084-1.837H36.6a1.977,1.977,0,0,1,2.1,1.846c.195,2.386-.122,3.8-1.059,4.722a.751.751,0,0,0-.224.536,1.767,1.767,0,0,0,.974,1.808l.059.022c2.961,1,3.864,1.9,4.133,2.41a7.9,7.9,0,0,1-11.961.007Zm4.843,4.163a8.565,8.565,0,0,0,2.325-.007V65.418c-.239-.018-.479-.036-.723-.036a9.414,9.414,0,0,0-1.6.147V46.308Zm1.6,20.579a7.927,7.927,0,1,1-7.92,7.935,7.936,7.936,0,0,1,7.92-7.935ZM19.894,82.741V81.408a1.344,1.344,0,0,1,1.333-1.319h8.027a9.486,9.486,0,0,0,2.722,2.652Zm33.452,0H42.157a9.488,9.488,0,0,0,2.722-2.652h7.148a1.336,1.336,0,0,1,1.319,1.319ZM29.9,61.865h1.24a.753.753,0,1,0,0-1.505H26.11c.09-.1.178-.21.263-.317a.8.8,0,0,0,.095-.122,9.425,9.425,0,1,0-15.01,0,.764.764,0,0,0,.095.122q.128.161.263.317H6.789a.753.753,0,0,0,0,1.505h1.24a5.061,5.061,0,0,0,5.048,4.843H24.848A5.061,5.061,0,0,0,29.9,61.865ZM18.962,46.279A7.922,7.922,0,0,1,25.856,58.1a10.376,10.376,0,0,0-4.5-2.519.554.554,0,0,1-.052-.159c1.093-1.243,1.48-3.008,1.251-5.646a3.458,3.458,0,0,0-3.6-3.233,3.455,3.455,0,0,0-3.6,3.224c-.23,2.647.156,4.413,1.25,5.655a.847.847,0,0,1-.044.156A10.389,10.389,0,0,0,12.068,58.1a7.922,7.922,0,0,1,6.894-11.821ZM12.98,59.4c.266-.507,1.166-1.408,4.137-2.415.021-.007.04-.015.059-.022a1.787,1.787,0,0,0,.973-1.789.752.752,0,0,0-.227-.559c-.948-.921-1.264-2.331-1.056-4.724a1.974,1.974,0,0,1,2.1-1.84,1.977,1.977,0,0,1,2.1,1.85c.207,2.383-.109,3.794-1.057,4.715a.753.753,0,0,0-.227.559,1.787,1.787,0,0,0,.973,1.789c.019.008.039.016.059.022,2.971,1.007,3.871,1.907,4.137,2.415a8.021,8.021,0,0,1-1,.962H13.979a7.96,7.96,0,0,1-1-.962ZM9.533,61.865H28.391A3.556,3.556,0,0,1,24.848,65.2H13.076a3.556,3.556,0,0,1-3.543-3.338ZM67.344,60.36H62.318q.135-.156.263-.317a.768.768,0,0,0,.095-.122,9.439,9.439,0,1,0-14.655.439H43a.753.753,0,1,0,0,1.505h1.24a5.061,5.061,0,0,0,5.048,4.843H61.056A5.061,5.061,0,0,0,66.1,61.865h1.24a.753.753,0,0,0,0-1.505ZM55.171,46.279A7.922,7.922,0,0,1,62.065,58.1a10.378,10.378,0,0,0-4.5-2.519.553.553,0,0,1-.052-.158c1.094-1.238,1.47-2.958,1.251-5.646a3.617,3.617,0,0,0-7.192-.009c-.23,2.647.156,4.413,1.251,5.655a.864.864,0,0,1-.044.156,10.355,10.355,0,0,0-4.509,2.528,7.849,7.849,0,0,1-1.036-3.893A7.944,7.944,0,0,1,55.171,46.279ZM49.188,59.4c.265-.506,1.164-1.408,4.138-2.416.02-.007.04-.015.06-.022a1.787,1.787,0,0,0,.973-1.789.751.751,0,0,0-.227-.559c-.948-.921-1.264-2.331-1.056-4.724a2.113,2.113,0,0,1,4.192.005c.195,2.4-.121,3.809-1.056,4.719a.751.751,0,0,0-.227.559,1.787,1.787,0,0,0,.973,1.789c.019.008.039.016.059.022,2.971,1.007,3.871,1.907,4.137,2.415a7.994,7.994,0,0,1-1,.962H50.187A8.126,8.126,0,0,1,49.188,59.4Zm11.868,5.8H49.285a3.556,3.556,0,0,1-3.543-3.338H64.6A3.556,3.556,0,0,1,61.056,65.2Z" transform="translate(189.934 3114.618)" fill="#fff"/>
  </g>
</svg>
