<svg xmlns="http://www.w3.org/2000/svg" width="150" height="150" viewBox="0 0 150 150">
  <g id="img8" transform="translate(-383.746 -8400)">
    <circle id="Ellipse_13609" data-name="Ellipse 13609" cx="75" cy="75" r="75" transform="translate(383.746 8400)" fill="#b9c296"/>
    <path id="Path_1020073" data-name="Path 1020073" d="M37.076,50.705A13.666,13.666,0,1,0,23.411,37.039,13.666,13.666,0,0,0,37.076,50.705Zm6.383-4.285a11.324,11.324,0,0,1-12.766,0c-.014-1.062,0-2.136.03-3.194a1.856,1.856,0,0,1,.8-1.126c1.25-.307,2.52-.592,3.778-.849a1.158,1.158,0,0,0,.9-.908c.017-.083.036-.207.06-.445a3.089,3.089,0,0,0,1.622.038c.022.214.04.328.056.407a1.158,1.158,0,0,0,.9.908c1.259.257,2.529.542,3.778.849a1.857,1.857,0,0,1,.8,1.126C43.464,44.287,43.474,45.36,43.459,46.42ZM34.582,33.373c-.047-.437-.215-2.634,1.072-2.912l.031-.007a6.169,6.169,0,0,1,2.926,0l.031.007c1.275.276,1.1,2.482,1.058,2.922-.234,2.185-1.5,4.328-2.551,4.328s-2.331-2.149-2.566-4.338Zm2.494-7.684a11.343,11.343,0,0,1,8.695,18.637c-.007-.429-.016-.857-.031-1.284a1.172,1.172,0,0,0-.021-.184A4.168,4.168,0,0,0,43.625,40a1.16,1.16,0,0,0-.278-.108c-1.058-.262-2.132-.509-3.2-.737-.014-.187-.031-.423-.05-.713A9.321,9.321,0,0,0,42,33.629c.31-2.892-.784-4.97-2.854-5.428a8.489,8.489,0,0,0-4,0c-2.078.459-3.176,2.533-2.868,5.417a9.445,9.445,0,0,0,1.788,4.665c-.023.366-.043.651-.06.871-1.071.228-2.145.475-3.2.737a1.16,1.16,0,0,0-.278.108,4.167,4.167,0,0,0-2.094,2.858,1.168,1.168,0,0,0-.021.183q-.022.639-.031,1.284a11.343,11.343,0,0,1,8.695-18.637ZM56.35,69.745h.018c3.33-.031,6.707-.031,10.037,0h.018a1.955,1.955,0,0,0,1.948-1.91c.019-.984.012-1.981-.022-2.965a1.156,1.156,0,0,0-.021-.184,3.484,3.484,0,0,0-1.751-2.39,1.161,1.161,0,0,0-.277-.108c-.757-.188-1.525-.365-2.294-.531-.006-.078-.012-.165-.018-.26a7.519,7.519,0,0,0,1.468-3.77c.255-2.38-.668-4.1-2.409-4.482a6.835,6.835,0,0,0-3.212,0c-1.747.388-2.674,2.1-2.42,4.474a7.6,7.6,0,0,0,1.376,3.653q-.014.22-.026.386c-.768.165-1.536.343-2.293.531a1.16,1.16,0,0,0-.277.108,3.485,3.485,0,0,0-1.751,2.39,1.152,1.152,0,0,0-.021.184c-.034.983-.041,1.98-.022,2.965a1.955,1.955,0,0,0,1.949,1.91ZM60.342,55.4l.031-.007a4.507,4.507,0,0,1,2.138,0l.031.007c.783.17.633,1.791.613,1.976-.19,1.776-1.17,3.113-1.713,3.113s-1.533-1.34-1.724-3.121C59.7,57.189,59.549,55.576,60.342,55.4Zm-3.608,9.653a1.172,1.172,0,0,1,.466-.664c.947-.232,1.911-.449,2.868-.643a1.158,1.158,0,0,0,.9-.908c0-.022.009-.046.013-.075a2.537,2.537,0,0,0,.806.017q.006.033.011.059a1.158,1.158,0,0,0,.9.907c.957.2,1.921.411,2.868.643a1.173,1.173,0,0,1,.466.664c.025.786.033,1.581.023,2.369-3.1-.026-6.247-.026-9.351,0C56.7,66.638,56.708,65.844,56.734,65.058Zm-37.026-.372a3.485,3.485,0,0,0-1.751-2.39,1.16,1.16,0,0,0-.277-.108c-.757-.188-1.525-.365-2.294-.531-.005-.078-.012-.165-.018-.26a7.518,7.518,0,0,0,1.468-3.771c.255-2.38-.668-4.1-2.409-4.482a6.834,6.834,0,0,0-3.212,0c-1.747.388-2.674,2.1-2.419,4.474a7.6,7.6,0,0,0,1.376,3.653q-.014.219-.026.386c-.768.166-1.537.343-2.294.531a1.161,1.161,0,0,0-.277.108,3.484,3.484,0,0,0-1.751,2.39,1.157,1.157,0,0,0-.021.184c-.034.984-.041,1.981-.022,2.965a1.955,1.955,0,0,0,1.948,1.91h.018c3.33-.031,6.707-.031,10.037,0H17.8a1.955,1.955,0,0,0,1.948-1.91c.019-.985.012-1.982-.022-2.965a1.138,1.138,0,0,0-.021-.183ZM11.722,55.4l.031-.007a4.507,4.507,0,0,1,2.138,0l.031.007c.783.17.633,1.791.613,1.976-.19,1.776-1.17,3.113-1.713,3.113s-1.533-1.34-1.724-3.121c-.02-.183-.17-1.8.624-1.968Zm5.72,12.022c-3.1-.026-6.247-.026-9.351,0-.01-.788,0-1.583.023-2.369a1.173,1.173,0,0,1,.466-.664c.947-.232,1.91-.449,2.868-.643a1.158,1.158,0,0,0,.9-.908c0-.022.009-.046.013-.075a2.538,2.538,0,0,0,.806.017c0,.021.007.041.011.058a1.158,1.158,0,0,0,.9.908c.957.195,1.921.411,2.868.643a1.174,1.174,0,0,1,.466.664c.025.786.033,1.581.023,2.369ZM12.766,48.616a12.727,12.727,0,1,0,12.088,8.724L27.5,55.657a20.852,20.852,0,0,0,3.186,1.322l1.253,5.634a1.158,1.158,0,0,0,1.13.906h8.016a1.158,1.158,0,0,0,1.13-.906l1.253-5.634a20.869,20.869,0,0,0,3.186-1.322L49.3,57.339a12.723,12.723,0,1,0,8.077-8.078l-1.682-2.644a20.86,20.86,0,0,0,1.322-3.186l5.634-1.253a1.158,1.158,0,0,0,.906-1.13V33.031a1.158,1.158,0,0,0-.906-1.13l-5.634-1.253a20.862,20.862,0,0,0-1.322-3.186l1.682-2.645A12.735,12.735,0,1,0,49.3,16.739l-2.646,1.683A20.852,20.852,0,0,0,43.468,17.1l-1.253-5.634a1.158,1.158,0,0,0-1.13-.906H33.068a1.158,1.158,0,0,0-1.13.906L30.685,17.1A20.863,20.863,0,0,0,27.5,18.422L24.854,16.74a12.732,12.732,0,1,0-8.078,8.077l1.682,2.645a20.87,20.87,0,0,0-1.322,3.186L11.5,31.9a1.158,1.158,0,0,0-.906,1.13v8.016a1.158,1.158,0,0,0,.906,1.13l5.634,1.253a20.86,20.86,0,0,0,1.322,3.186l-1.682,2.644a12.7,12.7,0,0,0-4.01-.646Zm0,23.152a10.419,10.419,0,1,1,2.72-20.477l-.127.2a1.158,1.158,0,0,0,.158,1.44L21.187,58.6a1.158,1.158,0,0,0,1.44.158l.2-.127a10.424,10.424,0,0,1-10.06,13.138ZM58.635,52.93a1.158,1.158,0,0,0,.158-1.44l-.127-.2a10.417,10.417,0,1,1-7.339,7.34l.2.126a1.158,1.158,0,0,0,1.44-.158ZM56.711,18.807c-.01-.789,0-1.583.023-2.369a1.172,1.172,0,0,1,.466-.664c.948-.232,1.912-.449,2.868-.644a1.158,1.158,0,0,0,.9-.908c0-.022.009-.046.013-.075a2.531,2.531,0,0,0,.806.016c0,.022.007.042.011.059a1.158,1.158,0,0,0,.9.907c.956.195,1.92.411,2.868.644a1.173,1.173,0,0,1,.466.664c.025.786.033,1.581.023,2.369-3.1-.026-6.247-.026-9.351,0ZM60.343,6.785l.031-.007a4.506,4.506,0,0,1,2.138,0l.031.007c.783.17.633,1.791.613,1.976-.19,1.776-1.17,3.113-1.713,3.113s-1.533-1.34-1.724-3.121c-.02-.183-.17-1.8.623-1.968Zm1.044-4.474a10.419,10.419,0,1,1-2.72,20.478l.127-.2a1.158,1.158,0,0,0-.158-1.44L58.6,21.11c2.6-.013,5.219-.008,7.809.015h.018a1.955,1.955,0,0,0,1.948-1.91c.019-.984.012-1.981-.022-2.965a1.158,1.158,0,0,0-.021-.184,3.484,3.484,0,0,0-1.751-2.39,1.164,1.164,0,0,0-.277-.108c-.758-.188-1.526-.366-2.294-.531-.006-.078-.012-.165-.018-.26a7.52,7.52,0,0,0,1.468-3.771c.255-2.38-.668-4.1-2.409-4.481a6.832,6.832,0,0,0-3.212,0c-1.747.388-2.674,2.1-2.42,4.474a7.6,7.6,0,0,0,1.376,3.653q-.014.219-.026.386c-.767.165-1.536.343-2.293.531a1.156,1.156,0,0,0-.277.108,3.484,3.484,0,0,0-1.751,2.39,1.151,1.151,0,0,0-.021.184q-.011.333-.019.669L52.966,15.48a1.158,1.158,0,0,0-1.44-.158l-.2.127A10.426,10.426,0,0,1,61.386,2.311Zm-43.944,16.5c-3.1-.026-6.247-.026-9.351,0-.01-.788,0-1.583.023-2.369a1.173,1.173,0,0,1,.466-.664c.948-.232,1.912-.449,2.868-.644a1.158,1.158,0,0,0,.9-.908c0-.022.009-.046.013-.075a2.537,2.537,0,0,0,.806.017c0,.021.007.041.011.058a1.158,1.158,0,0,0,.9.908c.956.195,1.92.411,2.868.644a1.174,1.174,0,0,1,.466.664C17.444,17.224,17.452,18.019,17.442,18.807ZM11.722,6.785l.031-.007a4.506,4.506,0,0,1,2.138,0l.031.007c.783.17.633,1.791.613,1.976-.191,1.776-1.171,3.113-1.713,3.113s-1.533-1.34-1.724-3.121C11.079,8.57,10.929,6.956,11.722,6.785Zm3.664,6.253c-.005-.078-.012-.165-.018-.26a7.521,7.521,0,0,0,1.468-3.771c.255-2.38-.668-4.1-2.409-4.481a6.834,6.834,0,0,0-3.212,0C9.469,4.913,8.542,6.625,8.8,9a7.6,7.6,0,0,0,1.376,3.653q-.014.219-.026.386c-.767.166-1.536.343-2.293.531a1.164,1.164,0,0,0-.277.108,3.484,3.484,0,0,0-1.751,2.39,1.157,1.157,0,0,0-.021.184c-.034.984-.041,1.981-.022,2.965a1.955,1.955,0,0,0,1.948,1.91h.018c2.59-.024,5.207-.029,7.809-.015l-.039.039a1.158,1.158,0,0,0-.158,1.44l.126.2a10.409,10.409,0,1,1,7.34-7.337l-.2-.127a1.158,1.158,0,0,0-1.44.158L19.748,16.92q-.007-.335-.019-.669a1.139,1.139,0,0,0-.021-.184,3.485,3.485,0,0,0-1.751-2.39,1.156,1.156,0,0,0-.277-.108c-.757-.189-1.526-.366-2.293-.532Zm5.389,34.251A1.158,1.158,0,0,0,20.81,46.1a18.53,18.53,0,0,1-1.648-3.971,1.158,1.158,0,0,0-.862-.814l-5.389-1.2V33.96l5.389-1.2a1.158,1.158,0,0,0,.862-.814,18.539,18.539,0,0,1,1.648-3.971,1.158,1.158,0,0,0-.034-1.186L17.811,22.13l4.356-4.356,4.661,2.965a1.158,1.158,0,0,0,1.186.034,18.534,18.534,0,0,1,3.971-1.648,1.158,1.158,0,0,0,.814-.862L34,12.874h6.16l1.2,5.389a1.158,1.158,0,0,0,.814.862,18.524,18.524,0,0,1,3.971,1.647,1.158,1.158,0,0,0,1.186-.034l4.661-2.965,4.356,4.356-2.964,4.661a1.158,1.158,0,0,0-.034,1.186,18.522,18.522,0,0,1,1.647,3.971,1.158,1.158,0,0,0,.862.814l5.389,1.2v6.16l-5.389,1.2a1.158,1.158,0,0,0-.862.814A18.527,18.527,0,0,1,53.343,46.1a1.158,1.158,0,0,0,.034,1.186l2.965,4.661L51.986,56.3,47.325,53.34a1.158,1.158,0,0,0-1.186-.034,18.532,18.532,0,0,1-3.971,1.647,1.158,1.158,0,0,0-.814.862l-1.2,5.389H34l-1.2-5.389a1.158,1.158,0,0,0-.814-.862,18.526,18.526,0,0,1-3.971-1.647,1.158,1.158,0,0,0-1.186.034L22.167,56.3l-4.356-4.356Z" transform="translate(421.666 8437.967)" fill="#4a4e3c"/>
  </g>
</svg>
