<svg xmlns="http://www.w3.org/2000/svg" width="150" height="150" viewBox="0 0 150 150">
  <g id="img8" transform="translate(-383.746 -8400)">
    <circle id="Ellipse_13609" data-name="Ellipse 13609" cx="75" cy="75" r="75" transform="translate(383.746 8400)" fill="#b9c296"/>
    <g id="Group_1196528" data-name="Group 1196528" transform="translate(416.011 8432.7)">
      <path id="Path_1018586" data-name="Path 1018586" d="M1.252,46.94H84.219a1.252,1.252,0,1,0,0-2.5H72.075V37.878a1.252,1.252,0,1,0-2.5,0v6.558H62.55V12.423h7.021V33.037a1.252,1.252,0,1,0,2.5,0V6.025a1.253,1.253,0,0,0-.366-.884L66.947.368a1.253,1.253,0,0,0-1.773,0L60.411,5.141a1.253,1.253,0,0,0-.366.884V44.436H51.462V12.378a1.252,1.252,0,0,0-1.252-1.252H25.237a1.252,1.252,0,1,0,0,2.5H48.958v6.318H15.9V13.63h4.5a1.252,1.252,0,1,0,0-2.5H14.648A1.252,1.252,0,0,0,13.4,12.378V44.436H1.252a1.252,1.252,0,1,0,0,2.5ZM66.06,3.025l3.51,3.518V9.919H62.55V6.543ZM26.7,44.436V32.994a.672.672,0,0,1,.671-.671H37.49a.672.672,0,0,1,.671.671V44.436ZM15.9,22.451H48.958V44.436H40.665V32.994a3.179,3.179,0,0,0-3.175-3.175H27.368a3.178,3.178,0,0,0-3.175,3.175V44.436H15.9Z" fill="#4a4e3c"/>
      <path id="Path_1018587" data-name="Path 1018587" d="M84.219,497H1.252a1.252,1.252,0,0,0,0,2.5H84.219a1.252,1.252,0,1,0,0-2.5Z" transform="translate(0 -414.033)" fill="#4a4e3c"/>
      <path id="Path_1018588" data-name="Path 1018588" d="M53.984,335.427a.975.975,0,0,1,1.34,0,3.448,3.448,0,0,0,4.256,0,.913.913,0,0,1,.67-.267,1.252,1.252,0,0,0,0-2.5,3.345,3.345,0,0,0-2.128.735.975.975,0,0,1-1.34,0,3.448,3.448,0,0,0-4.256,0,.974.974,0,0,1-1.339,0,3.343,3.343,0,0,0-2.128-.735,1.252,1.252,0,0,0,0,2.5.913.913,0,0,1,.67.267,3.447,3.447,0,0,0,4.255,0Z" transform="translate(-39.826 -277.124)" fill="#4a4e3c"/>
      <path id="Path_1018589" data-name="Path 1018589" d="M400.783,463.255c.22,0,.266.032.516.212a3.205,3.205,0,0,0,3.947,0c.25-.179.3-.212.516-.212s.266.032.516.212a3.206,3.206,0,0,0,3.948,0c.251-.179.3-.212.516-.212a1.252,1.252,0,1,0,0-2.5,3.1,3.1,0,0,0-1.974.68c-.251.179-.3.212-.516.212s-.266-.032-.516-.212a3.206,3.206,0,0,0-3.948,0c-.25.179-.3.212-.516.212s-.266-.032-.516-.212a3.1,3.1,0,0,0-1.974-.68,1.252,1.252,0,1,0,0,2.5Z" transform="translate(-332.835 -383.836)" fill="#4a4e3c"/>
      <path id="Path_1018590" data-name="Path 1018590" d="M69.6,451.088c.22,0,.265.032.516.212a3.206,3.206,0,0,0,3.948,0c.25-.179.3-.212.516-.212s.266.032.516.212a3.206,3.206,0,0,0,3.948,0c.25-.179.3-.212.516-.212a1.252,1.252,0,0,0,0-2.5,3.1,3.1,0,0,0-1.974.68c-.25.179-.3.212-.516.212s-.266-.032-.516-.212a3.206,3.206,0,0,0-3.948,0c-.25.179-.3.212-.516.212s-.265-.032-.516-.212a3.1,3.1,0,0,0-1.974-.68,1.252,1.252,0,0,0,0,2.5Z" transform="translate(-56.942 -373.7)" fill="#4a4e3c"/>
      <path id="Path_1018591" data-name="Path 1018591" d="M421.1,339.052a2.788,2.788,0,0,0-1.757.6c-.187.134-.187.134-.3.134s-.112,0-.3-.134a2.864,2.864,0,0,0-3.513,0c-.187.134-.187.134-.3.134s-.112,0-.3-.134a2.786,2.786,0,0,0-1.757-.6,1.252,1.252,0,0,0,0,2.5c.112,0,.112,0,.3.134a2.864,2.864,0,0,0,3.513,0c.187-.134.187-.134.3-.134s.112,0,.3.134a2.865,2.865,0,0,0,3.513,0c.187-.134.187-.134.3-.134a1.252,1.252,0,0,0,0-2.5Z" transform="translate(-342.914 -282.452)" fill="#4a4e3c"/>
      <path id="Path_1018592" data-name="Path 1018592" d="M140.586,391.618a3.448,3.448,0,0,0,4.255,0,.974.974,0,0,1,1.34,0,3.449,3.449,0,0,0,4.256,0,.913.913,0,0,1,.67-.267,1.252,1.252,0,1,0,0-2.5,3.345,3.345,0,0,0-2.128.735.975.975,0,0,1-1.34,0,3.448,3.448,0,0,0-4.255,0,.974.974,0,0,1-1.34,0,3.343,3.343,0,0,0-2.128-.735,1.252,1.252,0,0,0,0,2.5A.914.914,0,0,1,140.586,391.618Z" transform="translate(-115.516 -323.935)" fill="#4a4e3c"/>
      <path id="Path_1018593" data-name="Path 1018593" d="M253.028,328.619h-1.856a1.252,1.252,0,1,0,0,2.5h1.856A12.6,12.6,0,0,0,263,326.275l2.464-3.137a1.252,1.252,0,0,0-.985-2.025h-7.833l-2.1-3.632h3.417a2.274,2.274,0,0,0,2.272-2.272v-9.428a2.274,2.274,0,0,0-2.272-2.272H241.254a2.274,2.274,0,0,0-2.272,2.272v9.428a2.274,2.274,0,0,0,2.272,2.272h3.417l-2.1,3.632h-7.833a1.252,1.252,0,0,0-.985,2.025l2.464,3.137a12.6,12.6,0,0,0,10.11,4.848,1.252,1.252,0,0,0,0-2.5h-.139a10.115,10.115,0,0,1-8-3.89l-.873-1.112H261.9l-.873,1.112A10.115,10.115,0,0,1,253.028,328.619Zm-11.542-22.605h16.248v8.964H241.486Zm3.979,15.1,2.1-3.632h4.1l2.1,3.632Z" transform="translate(-194.512 -252.843)" fill="#4a4e3c"/>
      <path id="Path_1018594" data-name="Path 1018594" d="M110.468,92.5v.607a1.252,1.252,0,0,0,2.5,0V92.5a1.252,1.252,0,0,0-2.5,0Z" transform="translate(-92.027 -76.019)" fill="#4a4e3c"/>
      <path id="Path_1018595" data-name="Path 1018595" d="M137.151,94.363a1.252,1.252,0,0,0,1.252-1.252V92.5a1.252,1.252,0,0,0-2.5,0v.607A1.252,1.252,0,0,0,137.151,94.363Z" transform="translate(-113.213 -76.019)" fill="#4a4e3c"/>
      <path id="Path_1018596" data-name="Path 1018596" d="M163.834,93.111V92.5a1.252,1.252,0,0,0-2.5,0v.607a1.252,1.252,0,0,0,2.5,0Z" transform="translate(-134.398 -76.019)" fill="#4a4e3c"/>
      <path id="Path_1018597" data-name="Path 1018597" d="M189.265,93.111V92.5a1.252,1.252,0,1,0-2.5,0v.607a1.252,1.252,0,1,0,2.5,0Z" transform="translate(-155.584 -76.019)" fill="#4a4e3c"/>
      <path id="Path_1018598" data-name="Path 1018598" d="M214.7,93.111V92.5a1.252,1.252,0,0,0-2.5,0v.607a1.252,1.252,0,0,0,2.5,0Z" transform="translate(-176.771 -76.019)" fill="#4a4e3c"/>
      <path id="Path_1018599" data-name="Path 1018599" d="M240.128,93.111V92.5a1.252,1.252,0,1,0-2.5,0v.607a1.252,1.252,0,1,0,2.5,0Z" transform="translate(-197.956 -76.019)" fill="#4a4e3c"/>
      <path id="Path_1018600" data-name="Path 1018600" d="M265.558,93.111V92.5a1.252,1.252,0,0,0-2.5,0v.607a1.252,1.252,0,0,0,2.5,0Z" transform="translate(-219.141 -76.019)" fill="#4a4e3c"/>
      <path id="Path_1018601" data-name="Path 1018601" d="M388.224,124.431v8.38a1.252,1.252,0,0,0,2.5,0v-8.38a1.252,1.252,0,0,0-2.5,0Z" transform="translate(-323.416 -102.616)" fill="#4a4e3c"/>
      <path id="Path_1018602" data-name="Path 1018602" d="M141.086,150.683h15.668a1.252,1.252,0,0,0,0-2.5H141.086a1.252,1.252,0,1,0,0,2.5Z" transform="translate(-116.491 -123.443)" fill="#4a4e3c"/>
    </g>
  </g>
</svg>
