<svg xmlns="http://www.w3.org/2000/svg" width="292" height="320" viewBox="0 0 292 320">
  <g id="img9" transform="translate(-185 -2279)">
    <rect id="Rectangle_461556" data-name="Rectangle 461556" width="292" height="320" rx="9" transform="translate(185 2279)" fill="#e1c1b7"/>
    <g id="Group_1193865" data-name="Group 1193865" transform="translate(-1860.525 762.04)">
      <g id="Group_1193458" data-name="Group 1193458" transform="translate(2081.845 1567.296)">
        <g id="Group_1193457" data-name="Group 1193457" transform="translate(0 0)">
          <path id="Path_1016823" data-name="Path 1016823" d="M2247.125,1586.078C2356.3,1596.914,2396.9,1732.955,2305.9,1733.4s-101.1-.64-120.5,18.223-75.676-28.053-63.09-69.106,65.943-9.777,74.409-26.75c5.968-11.964-2.582-44.783,13.814-60.93C2217.39,1588.077,2228.625,1584.239,2247.125,1586.078Z" transform="translate(-2120.491 -1585.619)" fill="#f2e6d8"/>
        </g>
      </g>
      <g id="Group_1193543" data-name="Group 1193543" transform="translate(2105.426 1570.947)">
        <g id="Group_1193461" data-name="Group 1193461" transform="translate(86.944 196.483)">
          <g id="Group_1193460" data-name="Group 1193460">
            <g id="Group_1193459" data-name="Group 1193459">
              <path id="Path_1016824" data-name="Path 1016824" d="M2400.389,2056.531s7.022,11.26,16.581,13.582a3.885,3.885,0,0,1,4.346.805c1.509,1.527,1.787,4.383-.055,5.518a7.743,7.743,0,0,1-4.343,1.178s-20.335-2.392-23.41-1.071-10.093,2.895-11.543-1.094.288-8.751.288-8.751l1.709-3.2-8-12.228,21.879-3.053Z" transform="translate(-2375.966 -2048.22)" fill="#dd958b"/>
            </g>
          </g>
        </g>
        <g id="Group_1193463" data-name="Group 1193463" transform="translate(40.922 96.001)">
          <g id="Group_1193462" data-name="Group 1193462">
            <path id="Path_1016825" data-name="Path 1016825" d="M2339.223,1909.589c-12.908-29.91-29.835-82.353-28.635-93.629l-39.792,3.4c-6.209,22.147,12.437,68.622,34.31,96.987a16.194,16.194,0,0,0,14.685,6.188l12.813-1.479a8.243,8.243,0,0,0,6.62-11.462Z" transform="translate(-2269.587 -1815.96)" fill="#bf5c42"/>
          </g>
        </g>
        <g id="Group_1193465" data-name="Group 1193465" transform="translate(51.373 72.968)">
          <g id="Group_1193464" data-name="Group 1193464">
            <path id="Path_1016826" data-name="Path 1016826" d="M2317.658,1762.72c-11.83,2.417-23.914,9.922-23.914,9.922l31.164,26.458Z" transform="translate(-2293.744 -1762.72)" fill="#dd958b"/>
          </g>
        </g>
        <g id="Group_1193470" data-name="Group 1193470" transform="translate(111.005 105.322)">
          <g id="Group_1193467" data-name="Group 1193467">
            <g id="Group_1193466" data-name="Group 1193466">
              <path id="Path_1016827" data-name="Path 1016827" d="M2449.384,1890.646a22.55,22.55,0,0,0,1.648,5.113,26.051,26.051,0,0,1,2.92,8.673,1.749,1.749,0,0,1-1.023,1.86h0a1.751,1.751,0,0,1-2.4-1.163l-1.233-3.888.077,11.243a1.936,1.936,0,0,1-.03.327,1.961,1.961,0,0,1-1.305,1.518h0a1.962,1.962,0,0,1-2.545-1.434l-.408-4.521.049,5.679a1.709,1.709,0,0,1-1.23,1.668h0a1.708,1.708,0,0,1-2.187-1.584l-.106-5.681-.326,4.621a1.729,1.729,0,0,1-1.307,1.487h0a1.73,1.73,0,0,1-2.142-1.7l.013-6.654-.622,4.385a1.294,1.294,0,0,1-.9.972h0a1.293,1.293,0,0,1-1.649-1.368l1.284-15.248-4.329-46.282a10.214,10.214,0,0,1,11.28-11.106h0a10.215,10.215,0,0,1,9.087,10.784Z" transform="translate(-2431.583 -1837.505)" fill="#dd958b"/>
            </g>
          </g>
          <g id="Group_1193469" data-name="Group 1193469" transform="translate(11.047 61.668)">
            <g id="Group_1193468" data-name="Group 1193468">
              <path id="Path_1016828" data-name="Path 1016828" d="M2461.211,1982.935a4.806,4.806,0,0,1-1.869-.372,3.8,3.8,0,0,1-2.218-2.3.162.162,0,0,1,.31-.1,3.473,3.473,0,0,0,2.035,2.1,4.978,4.978,0,0,0,4.239-.288.162.162,0,0,1,.147.289A5.829,5.829,0,0,1,2461.211,1982.935Z" transform="translate(-2457.117 -1980.048)" fill="#3f1c16"/>
            </g>
          </g>
        </g>
        <g id="Group_1193472" data-name="Group 1193472" transform="translate(142.648 93.68)">
          <g id="Group_1193471" data-name="Group 1193471" transform="translate(0 0)">
            <circle id="Ellipse_15115" data-name="Ellipse 15115" cx="6.657" cy="6.657" r="6.657" transform="translate(0 13.248) rotate(-84.347)" fill="#3f1c16"/>
          </g>
        </g>
        <g id="Group_1193477" data-name="Group 1193477" transform="translate(1.188 192.541)">
          <g id="Group_1193474" data-name="Group 1193474">
            <g id="Group_1193473" data-name="Group 1193473">
              <path id="Path_1016829" data-name="Path 1016829" d="M2203.439,2072.7a3.879,3.879,0,0,0-.086-7.641c-1.71-5.963-4.691-21.272-4.691-21.272l-15-4.68s-1.822,13.794-5.755,30.09a2.188,2.188,0,0,0-.124,1.259,6.823,6.823,0,0,1,6.968,1.628,2.227,2.227,0,0,0,1.8-2.341h.1a2.712,2.712,0,0,0,.026.879,2.755,2.755,0,0,0,5.412-1.026l.044,0a3.256,3.256,0,0,0,.056.5,3.369,3.369,0,0,0,6.658-.42A3.9,3.9,0,0,0,2203.439,2072.7Z" transform="translate(-2177.742 -2039.11)" fill="#dd958b"/>
            </g>
          </g>
          <g id="Group_1193476" data-name="Group 1193476" transform="translate(20.97 25.839)">
            <g id="Group_1193475" data-name="Group 1193475">
              <path id="Path_1016830" data-name="Path 1016830" d="M2226.377,2101.749l-.025,0a.162.162,0,0,1-.135-.185,2.992,2.992,0,0,1,3.122-2.709.162.162,0,1,1-.041.321,2.67,2.67,0,0,0-2.761,2.438A.162.162,0,0,1,2226.377,2101.749Z" transform="translate(-2226.215 -2098.836)" fill="#3f1c16"/>
            </g>
          </g>
        </g>
        <g id="Group_1193479" data-name="Group 1193479" transform="translate(0 79.966)">
          <g id="Group_1193478" data-name="Group 1193478">
            <path id="Path_1016831" data-name="Path 1016831" d="M2257.024,1806.879l-28.493-27.984c-24.542,11.433-52.235,70.955-53.527,106.714a10.676,10.676,0,0,0,10.661,11.075h9.361a10.671,10.671,0,0,0,9.832-6.532C2216.21,1863.285,2246.5,1814.126,2257.024,1806.879Z" transform="translate(-2174.997 -1778.895)" fill="#bf6849"/>
          </g>
        </g>
        <g id="Group_1193481" data-name="Group 1193481" transform="translate(71.005 67.439)">
          <g id="Group_1193480" data-name="Group 1193480">
            <path id="Path_1016832" data-name="Path 1016832" d="M2399.538,1749.94a523.136,523.136,0,0,0-60.414,4.045c2.035,11.533,10.854,45.369,15.264,48.846l14.925-6.784,5.29,2.1a9.412,9.412,0,0,0,18.428.386l6.387-2.4S2402.978,1776.629,2399.538,1749.94Z" transform="translate(-2339.124 -1749.94)" fill="#f2cf63"/>
          </g>
        </g>
        <g id="Group_1193486" data-name="Group 1193486" transform="translate(111.005 0)">
          <g id="Group_1193483" data-name="Group 1193483">
            <g id="Group_1193482" data-name="Group 1193482">
              <path id="Path_1016833" data-name="Path 1016833" d="M2449.384,1619.2a22.548,22.548,0,0,1,1.648-5.113,26.052,26.052,0,0,0,2.92-8.673,1.75,1.75,0,0,0-1.023-1.861h0a1.751,1.751,0,0,0-2.4,1.163l-1.233,3.888.077-11.243a1.931,1.931,0,0,0-.03-.327,1.962,1.962,0,0,0-1.305-1.519h0a1.963,1.963,0,0,0-2.545,1.434l-.408,4.52.049-5.679a1.708,1.708,0,0,0-1.23-1.668h0a1.708,1.708,0,0,0-2.187,1.584l-.106,5.681-.326-4.621a1.73,1.73,0,0,0-1.307-1.487h0a1.73,1.73,0,0,0-2.142,1.7l.013,6.654-.622-4.384a1.294,1.294,0,0,0-.9-.972h0a1.293,1.293,0,0,0-1.649,1.368l1.284,15.248-4.329,46.282a10.214,10.214,0,0,0,11.28,11.106h0a10.215,10.215,0,0,0,9.087-10.784Z" transform="translate(-2431.583 -1594.056)" fill="#dd958b"/>
            </g>
          </g>
          <g id="Group_1193485" data-name="Group 1193485" transform="translate(11.046 13.736)">
            <g id="Group_1193484" data-name="Group 1193484">
              <path id="Path_1016834" data-name="Path 1016834" d="M2457.277,1628.694a.157.157,0,0,1-.048-.007.162.162,0,0,1-.107-.2,3.794,3.794,0,0,1,2.218-2.3,5.293,5.293,0,0,1,4.512.3.162.162,0,1,1-.147.288,4.977,4.977,0,0,0-4.239-.288,3.474,3.474,0,0,0-2.035,2.1A.158.158,0,0,1,2457.277,1628.694Z" transform="translate(-2457.115 -1625.807)" fill="#3f1c16"/>
            </g>
          </g>
        </g>
        <g id="Group_1193538" data-name="Group 1193538" transform="translate(127.287 79.153)">
          <g id="Group_1193488" data-name="Group 1193488" transform="translate(0 7.878)">
            <g id="Group_1193487" data-name="Group 1193487">
              <path id="Path_1016835" data-name="Path 1016835" d="M2487.713,1804.292l-3.844-9.065-10.458,1.073a4.621,4.621,0,1,0,1.043,9.181Z" transform="translate(-2469.217 -1795.227)" fill="#dd958b"/>
            </g>
          </g>
          <g id="Group_1193490" data-name="Group 1193490" transform="translate(8.264)">
            <g id="Group_1193489" data-name="Group 1193489">
              <path id="Path_1016836" data-name="Path 1016836" d="M2510.561,1783.785c-1.641-5.769-9.453-6.335-13.51-6.731s-10.3,2.4-8.37,8.844a11.472,11.472,0,0,0,2.031,3.808,20.809,20.809,0,0,0,7.819,5.7,38.569,38.569,0,0,1,4.154-.742C2508.19,1795.1,2513.118,1789.34,2510.561,1783.785Z" transform="translate(-2488.32 -1777.017)" fill="#fff"/>
            </g>
          </g>
          <g id="Group_1193492" data-name="Group 1193492" transform="translate(8.264)">
            <g id="Group_1193491" data-name="Group 1193491">
              <path id="Path_1016837" data-name="Path 1016837" d="M2510.561,1783.785c-1.641-5.769-9.453-6.335-13.51-6.731s-10.3,2.4-8.37,8.844a11.472,11.472,0,0,0,2.031,3.808,20.809,20.809,0,0,0,7.819,5.7,38.569,38.569,0,0,1,4.154-.742C2508.19,1795.1,2513.118,1789.34,2510.561,1783.785Z" transform="translate(-2488.32 -1777.017)" fill="#dd958b"/>
            </g>
          </g>
          <g id="Group_1193494" data-name="Group 1193494" transform="translate(18.725 1.772)">
            <g id="Group_1193493" data-name="Group 1193493">
              <path id="Path_1016838" data-name="Path 1016838" d="M2524.444,1786.091c-.715-2.515-2.772-4.024-5.01-4.978,3.029,4.016,4.531,9.185.109,9.757-1.607,3.131-8.226.9-6.86,5.223a4.25,4.25,0,0,0,1.025,1.327,6.982,6.982,0,0,1,2.827.051C2522.043,1797.911,2527.005,1791.65,2524.444,1786.091Z" transform="translate(-2512.499 -1781.113)" fill="#3f1c16"/>
            </g>
          </g>
          <g id="Group_1193496" data-name="Group 1193496" transform="translate(13.053 0.26)">
            <g id="Group_1193495" data-name="Group 1193495">
              <path id="Path_1016839" data-name="Path 1016839" d="M2503.321,1777.653c.442.043.931.089,1.45.143a2.705,2.705,0,0,1-5.258.88,2.775,2.775,0,0,1-.125-.511A9.529,9.529,0,0,1,2503.321,1777.653Z" transform="translate(-2499.388 -1777.617)" fill="#dd7d72"/>
            </g>
          </g>
          <g id="Group_1193498" data-name="Group 1193498" transform="translate(14.489 8.96)">
            <g id="Group_1193497" data-name="Group 1193497">
              <path id="Path_1016840" data-name="Path 1016840" d="M2506.312,1802.989a2.707,2.707,0,1,1,1.657-3.451A2.707,2.707,0,0,1,2506.312,1802.989Z" transform="translate(-2502.707 -1797.728)" fill="#dd7d72"/>
            </g>
          </g>
          <g id="Group_1193500" data-name="Group 1193500" transform="translate(21.567 1.418)">
            <g id="Group_1193499" data-name="Group 1193499">
              <path id="Path_1016841" data-name="Path 1016841" d="M2519.913,1782.149a.162.162,0,0,1-.162-.157,2.481,2.481,0,0,0-.641-1.426.162.162,0,0,1,.241-.217,2.767,2.767,0,0,1,.723,1.633.162.162,0,0,1-.157.167Z" transform="translate(-2519.069 -1780.296)" fill="#3f1c16"/>
            </g>
          </g>
          <g id="Group_1193505" data-name="Group 1193505" transform="translate(15.79 3.653)">
            <g id="Group_1193502" data-name="Group 1193502" transform="translate(0.162 0.163)">
              <g id="Group_1193501" data-name="Group 1193501">
                <path id="Path_1016842" data-name="Path 1016842" d="M2508.218,1786.748a1.3,1.3,0,0,0-.954-.9c-.54-.093-1.1.289-1.175,1.3A20.206,20.206,0,0,1,2508.218,1786.748Z" transform="translate(-2506.089 -1785.84)" fill="#dd7d72"/>
              </g>
            </g>
            <g id="Group_1193504" data-name="Group 1193504">
              <g id="Group_1193503" data-name="Group 1193503">
                <path id="Path_1016843" data-name="Path 1016843" d="M2505.877,1787.1h-.012a.163.163,0,0,1-.15-.174,1.644,1.644,0,0,1,.553-1.248,1.024,1.024,0,0,1,.812-.2,1.466,1.466,0,0,1,1.079,1,.162.162,0,1,1-.306.108,1.142,1.142,0,0,0-.829-.79.69.69,0,0,0-.557.137,1.379,1.379,0,0,0-.428,1.017A.163.163,0,0,1,2505.877,1787.1Z" transform="translate(-2505.715 -1785.462)" fill="#3f1c16"/>
              </g>
            </g>
          </g>
          <g id="Group_1193512" data-name="Group 1193512" transform="translate(15.218 15.753)">
            <g id="Group_1193507" data-name="Group 1193507">
              <g id="Group_1193506" data-name="Group 1193506">
                <path id="Path_1016844" data-name="Path 1016844" d="M2507.828,1813.494a2.831,2.831,0,1,0,2.164,3.368A2.831,2.831,0,0,0,2507.828,1813.494Z" transform="translate(-2504.394 -1813.429)" fill="#dd7d72"/>
              </g>
            </g>
            <g id="Group_1193509" data-name="Group 1193509" transform="translate(1.195 1.286)">
              <g id="Group_1193508" data-name="Group 1193508">
                <path id="Path_1016845" data-name="Path 1016845" d="M2509.9,1819.663a.162.162,0,0,1-.131-.256,1.8,1.8,0,0,0-.188-2.26,1.606,1.606,0,0,0-2.175.012.162.162,0,0,1-.185-.266,1.906,1.906,0,0,1,2.59.026,2.132,2.132,0,0,1,.221,2.677A.161.161,0,0,1,2509.9,1819.663Z" transform="translate(-2507.156 -1816.401)" fill="#3f1c16"/>
              </g>
            </g>
            <g id="Group_1193511" data-name="Group 1193511" transform="translate(2.123 1.428)">
              <g id="Group_1193510" data-name="Group 1193510">
                <path id="Path_1016846" data-name="Path 1016846" d="M2509.582,1818.167a.967.967,0,0,1-.141-.01.162.162,0,0,1-.138-.183.168.168,0,0,1,.183-.138.574.574,0,0,0,.583-.252.657.657,0,0,0,.1-.616.162.162,0,0,1,.287-.151.979.979,0,0,1-.121.953A.911.911,0,0,1,2509.582,1818.167Z" transform="translate(-2509.301 -1816.73)" fill="#3f1c16"/>
              </g>
            </g>
          </g>
          <g id="Group_1193515" data-name="Group 1193515" transform="translate(12.385 3.229)">
            <g id="Group_1193513" data-name="Group 1193513" transform="translate(0.161 0.16)">
              <path id="Path_1016847" data-name="Path 1016847" d="M2500.217,1784.85l1.787,5.435C2497.808,1789.137,2496.934,1785.91,2500.217,1784.85Z" transform="translate(-2498.218 -1784.85)" fill="#3f1c16"/>
            </g>
            <g id="Group_1193514" data-name="Group 1193514">
              <path id="Path_1016848" data-name="Path 1016848" d="M2501.792,1790.238a.168.168,0,0,1-.043-.006c-2.339-.641-3.872-1.988-3.9-3.433-.023-1.03.747-1.872,2.11-2.312a.162.162,0,0,1,.2.1l1.787,5.435a.161.161,0,0,1-.154.212Zm-1.89-5.391c-1.123.4-1.753,1.106-1.734,1.945.023,1.021,1.077,2.333,3.374,3.043Z" transform="translate(-2497.845 -1784.48)" fill="#3f1c16"/>
            </g>
          </g>
          <g id="Group_1193518" data-name="Group 1193518" transform="translate(12.386 4.873)">
            <g id="Group_1193516" data-name="Group 1193516" transform="translate(0.161 0.162)">
              <path id="Path_1016849" data-name="Path 1016849" d="M2501.971,1792.343l-1.5-2.675a2.81,2.81,0,0,0-2.192-.989c-.361,1.347.961,3.008,3.726,3.766Z" transform="translate(-2498.22 -1788.656)" fill="#dd7d72"/>
            </g>
            <g id="Group_1193517" data-name="Group 1193517">
              <path id="Path_1016850" data-name="Path 1016850" d="M2502.041,1792.468l-.292-.079c-3-.821-4.2-2.616-3.84-3.964l.027-.1.1-.018a2.921,2.921,0,0,1,2.342,1.042l.019.027,1.513,2.7Zm-3.842-3.859c-.22,1.129.823,2.586,3.286,3.361l-1.359-2.423A2.709,2.709,0,0,0,2498.2,1788.609Z" transform="translate(-2497.847 -1788.28)" fill="#3f1c16"/>
            </g>
          </g>
          <g id="Group_1193521" data-name="Group 1193521" transform="translate(13.919 3.406)">
            <g id="Group_1193519" data-name="Group 1193519" transform="translate(0.162 0.16)">
              <path id="Path_1016851" data-name="Path 1016851" d="M2504.013,1790.516h0l-1.729-5.257C2501.183,1786.644,2501.867,1788.919,2504.013,1790.516Z" transform="translate(-2501.766 -1785.259)" fill="#fff"/>
            </g>
            <g id="Group_1193520" data-name="Group 1193520">
              <path id="Path_1016852" data-name="Path 1016852" d="M2503.8,1790.471a.166.166,0,0,1-.046-.006.162.162,0,0,1-.029-.011.146.146,0,0,1-.024-.015,5.384,5.384,0,0,1-2.287-3.436,2.657,2.657,0,0,1,.531-2.052.16.16,0,0,1,.155-.058.162.162,0,0,1,.125.109l1.729,5.257a.162.162,0,0,1-.048.173A.172.172,0,0,1,2503.8,1790.471Zm-1.782-5.062a2.4,2.4,0,0,0-.284,1.549,4.809,4.809,0,0,0,1.741,2.882Z" transform="translate(-2501.391 -1784.89)" fill="#3f1c16"/>
            </g>
          </g>
          <g id="Group_1193523" data-name="Group 1193523" transform="translate(22.063 6.299)">
            <g id="Group_1193522" data-name="Group 1193522">
              <path id="Path_1016853" data-name="Path 1016853" d="M2520.378,1794.4a.162.162,0,0,1-.1-.289c.006,0,.7-.6.53-2.356a.162.162,0,0,1,.146-.177.168.168,0,0,1,.177.145c.193,1.954-.618,2.615-.653,2.642A.157.157,0,0,1,2520.378,1794.4Z" transform="translate(-2520.216 -1791.577)" fill="#3f1c16"/>
            </g>
          </g>
          <g id="Group_1193529" data-name="Group 1193529" transform="translate(17.988 0.944)">
            <g id="Group_1193526" data-name="Group 1193526" transform="translate(0 0.776)">
              <g id="Group_1193525" data-name="Group 1193525">
                <g id="Group_1193524" data-name="Group 1193524">
                  <path id="Path_1016854" data-name="Path 1016854" d="M2511.508,1781.165c-.559.287-.849.84-.646,1.234a1.016,1.016,0,0,0,1.379.194c.559-.287.849-.84.646-1.234A1.01,1.01,0,0,0,2511.508,1781.165Z" transform="translate(-2510.797 -1780.994)" fill="#3f1c16"/>
                </g>
              </g>
            </g>
            <g id="Group_1193528" data-name="Group 1193528" transform="translate(1.203)">
              <g id="Group_1193527" data-name="Group 1193527">
                <path id="Path_1016855" data-name="Path 1016855" d="M2513.781,1780.363a.162.162,0,0,1-.156-.119.943.943,0,0,1,.1-.839.462.462,0,0,1,.322-.206.168.168,0,0,1,.167.157.162.162,0,0,1-.157.167c-.03.013-.244.192-.123.635a.162.162,0,0,1-.113.2A.1.1,0,0,1,2513.781,1780.363Z" transform="translate(-2513.577 -1779.199)" fill="#3f1c16"/>
              </g>
            </g>
          </g>
          <g id="Group_1193535" data-name="Group 1193535" transform="translate(18.594 6.187)">
            <g id="Group_1193532" data-name="Group 1193532" transform="translate(0 0.777)">
              <g id="Group_1193531" data-name="Group 1193531">
                <g id="Group_1193530" data-name="Group 1193530">
                  <path id="Path_1016856" data-name="Path 1016856" d="M2512.908,1793.285c-.559.287-.849.84-.646,1.234a1.015,1.015,0,0,0,1.379.194c.56-.287.848-.84.646-1.234S2513.47,1793,2512.908,1793.285Z" transform="translate(-2512.197 -1793.114)" fill="#3f1c16"/>
                </g>
              </g>
            </g>
            <g id="Group_1193534" data-name="Group 1193534" transform="translate(1.207)">
              <g id="Group_1193533" data-name="Group 1193533">
                <path id="Path_1016857" data-name="Path 1016857" d="M2515.191,1792.483a.162.162,0,0,1-.156-.119.94.94,0,0,1,.1-.839.461.461,0,0,1,.322-.206.162.162,0,0,1,.01.324c-.03.012-.244.192-.122.635a.162.162,0,0,1-.114.2A.1.1,0,0,1,2515.191,1792.483Z" transform="translate(-2514.987 -1791.319)" fill="#3f1c16"/>
              </g>
            </g>
          </g>
          <g id="Group_1193537" data-name="Group 1193537" transform="translate(24.743 10.81)">
            <g id="Group_1193536" data-name="Group 1193536">
              <path id="Path_1016858" data-name="Path 1016858" d="M2529.1,1804.914a5.345,5.345,0,0,0-2.7-2.61l.125-.3a5.573,5.573,0,0,1,2.871,2.787Z" transform="translate(-2526.409 -1802.004)" fill="#dd7d72"/>
            </g>
          </g>
        </g>
        <g id="Group_1193540" data-name="Group 1193540" transform="translate(50.702 84.131)">
          <g id="Group_1193539" data-name="Group 1193539">
            <path id="Path_1016859" data-name="Path 1016859" d="M2318.049,1812.251a.16.16,0,0,1-.109-.042l-25.7-23.405a.162.162,0,0,1,.219-.24l25.7,23.405a.162.162,0,0,1,.011.229A.166.166,0,0,1,2318.049,1812.251Z" transform="translate(-2292.192 -1788.522)" fill="#3f1c16"/>
          </g>
        </g>
        <g id="Group_1193542" data-name="Group 1193542" transform="translate(39.252 97.868)">
          <g id="Group_1193541" data-name="Group 1193541">
            <path id="Path_1016860" data-name="Path 1016860" d="M2278.833,1824.919c-3.48,0-7.788-1.141-13.028-4.344a.162.162,0,1,1,.169-.276c12.612,7.708,19.712,3.325,22.821.027a.162.162,0,0,1,.236.222A13.682,13.682,0,0,1,2278.833,1824.919Z" transform="translate(-2265.727 -1820.275)" fill="#3f1c16"/>
          </g>
        </g>
      </g>
      <g id="Group_1193643" data-name="Group 1193643" transform="translate(2225.066 1674.435)">
        <g id="Group_1193552" data-name="Group 1193552" transform="translate(0 21.423)">
          <g id="Group_1193545" data-name="Group 1193545">
            <g id="Group_1193544" data-name="Group 1193544">
              <path id="Path_1016861" data-name="Path 1016861" d="M2475.79,1910.67a10.412,10.412,0,0,1-8.332-3.987c-2.42-3.086-5.3-6.84-6.04-7.367a32.515,32.515,0,0,0-8.284-4.44,1.039,1.039,0,0,1-.676-1.243l.013-.052a1.039,1.039,0,0,1,.986-.782h0l-1.229-.61a1.175,1.175,0,0,1-.579-1.463h0a1.13,1.13,0,0,1,.125-.244,1.175,1.175,0,0,1,1.183-.5l.026,0-.795-.42a1.212,1.212,0,0,1-.54-1.566h0a1.212,1.212,0,0,1,1.3-.7,36.167,36.167,0,0,1,4.486,1.132c-.423-3.169,2.331-5.886,4.983-5.626a1.342,1.342,0,0,1,1.082,1.91h0a1.376,1.376,0,0,1-.162.262,1.292,1.292,0,0,1-.763.474,2.351,2.351,0,0,0-1.023,4.2,2.307,2.307,0,0,0,2.934-3.4,1.406,1.406,0,0,1-.165-.491,1.326,1.326,0,0,1,.114-.748h0a1.617,1.617,0,0,1,2.527-.527c1.337,1.181,2.542,3.407,1.331,7.139l7.563,8.44,11.9-.368,1.595,10.8Z" transform="translate(-2451.542 -1882.786)" fill="#ddab9e"/>
            </g>
          </g>
          <g id="Group_1193547" data-name="Group 1193547" transform="translate(1.927 7.284)">
            <g id="Group_1193546" data-name="Group 1193546">
              <path id="Path_1016862" data-name="Path 1016862" d="M2459.6,1900.971a.121.121,0,0,1-.038-.007c-.02-.007-2.021-.716-3.485-1.121a.113.113,0,0,1,.06-.218c1.471.407,3.48,1.118,3.5,1.125a.112.112,0,0,1,.068.144A.108.108,0,0,1,2459.6,1900.971Z" transform="translate(-2455.997 -1899.623)" fill="#3f1c16"/>
            </g>
          </g>
          <g id="Group_1193549" data-name="Group 1193549" transform="translate(2.539 10.16)">
            <g id="Group_1193548" data-name="Group 1193548">
              <path id="Path_1016863" data-name="Path 1016863" d="M2460.232,1907.646a.119.119,0,0,1-.048-.011c-.015-.007-1.511-.715-2.7-1.146a.113.113,0,0,1,.077-.212c1.2.435,2.7,1.147,2.717,1.154a.113.113,0,0,1-.048.215Z" transform="translate(-2457.412 -1906.27)" fill="#3f1c16"/>
            </g>
          </g>
          <g id="Group_1193551" data-name="Group 1193551" transform="translate(5.844 8.009)">
            <g id="Group_1193550" data-name="Group 1193550">
              <path id="Path_1016864" data-name="Path 1016864" d="M2465.253,1905.288a.113.113,0,0,1-.112-.1,19.084,19.084,0,0,1,.007-3.789.113.113,0,0,1,.224.025,18.9,18.9,0,0,0-.008,3.738.113.113,0,0,1-.1.125Z" transform="translate(-2465.05 -1901.299)" fill="#3f1c16"/>
            </g>
          </g>
        </g>
        <g id="Group_1193567" data-name="Group 1193567" transform="translate(19.839 78.518)">
          <g id="Group_1193554" data-name="Group 1193554" transform="translate(0.139)">
            <g id="Group_1193553" data-name="Group 1193553">
              <path id="Path_1016865" data-name="Path 1016865" d="M2519.46,2014.76l2.74,25.522-24.479.072c1.256-4.106,11.752-7.187,12.671-8.347s-1.741-12.894-1.741-12.894Z" transform="translate(-2497.721 -2014.76)" fill="#ddab9e"/>
            </g>
          </g>
          <g id="Group_1193557" data-name="Group 1193557" transform="translate(0.142 23.277)">
            <g id="Group_1193555" data-name="Group 1193555">
              <path id="Path_1016866" data-name="Path 1016866" d="M2522.207,2070.808l-24.479.072c.027-.088.06-.176.095-.263l.025-.061c.037-.086.076-.172.122-.258l.01-.017c.044-.083.092-.165.143-.247l.029-.047c.055-.087.114-.174.177-.26l.01-.014q.094-.128.2-.253l.02-.024c.074-.088.152-.177.234-.265l.006-.005q.253-.271.549-.535h0l22.621-.067Z" transform="translate(-2497.728 -2068.565)" fill="#fff"/>
            </g>
            <g id="Group_1193556" data-name="Group 1193556" transform="translate(0.158 0.115)">
              <path id="Path_1016867" data-name="Path 1016867" d="M2522.073,2068.83l-22.477.066q-.276.249-.515.5c-.08.086-.156.173-.229.26l-.087-.072.067.1c-.068.083-.133.165-.206.262s-.119.169-.173.253l-.028.046c-.05.08-.1.16-.148.257s-.082.166-.118.251l-.024.058c-.014.036-.028.072-.042.108l24.2-.071Z" transform="translate(-2498.094 -2068.83)" fill="#3f1c16"/>
            </g>
          </g>
          <g id="Group_1193559" data-name="Group 1193559" transform="translate(8.574 15.171)">
            <g id="Group_1193558" data-name="Group 1193558">
              <path id="Path_1016868" data-name="Path 1016868" d="M2519.893,2051.914c-1.693-.408-2.692-.995-2.674-1.569.008-.252.218-.443.549-.5a1.994,1.994,0,0,1,1.929,1.129c.036-.6.182-.957.421-1.017.152-.038.307.059.4.253a1.441,1.441,0,0,1-.531,1.682.112.112,0,0,1-.071.025A.134.134,0,0,1,2519.893,2051.914Zm.277-1.739c-.08.02-.281.287-.257,1.275a.113.113,0,0,1-.217.044,1.9,1.9,0,0,0-1.892-1.428c-.171.03-.356.12-.361.286-.009.27.5.851,2.446,1.329a1.2,1.2,0,0,0,.428-1.371c-.041-.082-.1-.135-.136-.135Z" transform="translate(-2517.219 -2049.828)" fill="#3f1c16"/>
            </g>
          </g>
          <g id="Group_1193562" data-name="Group 1193562" transform="translate(0.142 13.646)">
            <g id="Group_1193561" data-name="Group 1193561">
              <g id="Group_1193560" data-name="Group 1193560">
                <path id="Path_1016869" data-name="Path 1016869" d="M2522.207,2058.177l-24.479.072c1.256-4.106,11.752-7.187,12.672-8.347.292-.369.222-1.808-.009-3.6a5.874,5.874,0,0,1,3.558,1.692,9.543,9.543,0,0,0,7.057-1Z" transform="translate(-2497.728 -2046.303)" fill="#73672c"/>
              </g>
            </g>
          </g>
          <g id="Group_1193564" data-name="Group 1193564" transform="translate(1.76 13.649)">
            <g id="Group_1193563" data-name="Group 1193563">
              <path id="Path_1016870" data-name="Path 1016870" d="M2512.522,2049.909c.28-.263.168-1.852-.009-3.6a5.6,5.6,0,0,1,3.528,1.8c1.232,3.144-.71,7.319-7,8.148a26.269,26.269,0,0,1-7.57-.25C2504.674,2052.916,2511.367,2051,2512.522,2049.909Z" transform="translate(-2501.467 -2046.31)" fill="#f2e6d8"/>
            </g>
          </g>
          <g id="Group_1193566" data-name="Group 1193566" transform="translate(0 23.029)">
            <g id="Group_1193565" data-name="Group 1193565">
              <path id="Path_1016871" data-name="Path 1016871" d="M2499.23,2068.241l22.529-.25.276,2.566-24.634.057A4.637,4.637,0,0,1,2499.23,2068.241Z" transform="translate(-2497.4 -2067.991)" fill="#f2e6d8"/>
            </g>
          </g>
        </g>
        <g id="Group_1193569" data-name="Group 1193569" transform="translate(21.381 56.712)">
          <g id="Group_1193568" data-name="Group 1193568">
            <path id="Path_1016872" data-name="Path 1016872" d="M2519.855,1970.89a79.494,79.494,0,0,0-15.405,4.185,5.491,5.491,0,0,0-3.052,7.248l7.322,17.372,17.3-2.025-3.313-12.332,12.7-2.393-2.577-18.589Z" transform="translate(-2500.965 -1964.356)" fill="#f2ae52"/>
          </g>
        </g>
        <g id="Group_1193583" data-name="Group 1193583" transform="translate(51.45 96.005)">
          <g id="Group_1193571" data-name="Group 1193571" transform="translate(0.001)">
            <g id="Group_1193570" data-name="Group 1193570">
              <path id="Path_1016873" data-name="Path 1016873" d="M2592.21,2055.18l2.74,25.522-24.479.072c1.256-4.106,11.752-7.187,12.672-8.347s-1.741-12.894-1.741-12.894Z" transform="translate(-2570.471 -2055.18)" fill="#ddab9e"/>
            </g>
          </g>
          <g id="Group_1193573" data-name="Group 1193573" transform="translate(0 23.277)">
            <g id="Group_1193572" data-name="Group 1193572">
              <path id="Path_1016874" data-name="Path 1016874" d="M2594.947,2111.228l-24.479.072c.027-.088.06-.176.095-.263l.025-.06c.037-.086.076-.172.121-.258l.01-.017c.044-.083.092-.165.143-.247l.029-.047q.083-.131.177-.26l.011-.014c.063-.085.129-.17.2-.253l.02-.024c.074-.088.151-.177.234-.265l.005-.006q.254-.271.549-.535h0l22.621-.067Z" transform="translate(-2570.468 -2108.984)" fill="#fff"/>
            </g>
          </g>
          <g id="Group_1193575" data-name="Group 1193575" transform="translate(8.432 15.168)">
            <g id="Group_1193574" data-name="Group 1193574">
              <path id="Path_1016875" data-name="Path 1016875" d="M2592.633,2092.325c-1.692-.408-2.692-.995-2.673-1.569.008-.252.219-.443.549-.5a2,2,0,0,1,1.929,1.129c.036-.6.181-.957.421-1.016.152-.038.307.059.4.253a1.441,1.441,0,0,1-.531,1.682.11.11,0,0,1-.071.025A.047.047,0,0,1,2592.633,2092.325Zm.281-1.739c-.08.02-.281.287-.257,1.275a.113.113,0,0,1-.217.044,1.9,1.9,0,0,0-1.891-1.428c-.172.03-.356.12-.361.286-.009.27.5.851,2.446,1.329a1.2,1.2,0,0,0,.429-1.371c-.041-.083-.1-.136-.136-.136Z" transform="translate(-2589.959 -2090.24)" fill="#3f1c16"/>
            </g>
          </g>
          <g id="Group_1193578" data-name="Group 1193578" transform="translate(0 13.646)">
            <g id="Group_1193577" data-name="Group 1193577">
              <g id="Group_1193576" data-name="Group 1193576">
                <path id="Path_1016876" data-name="Path 1016876" d="M2594.947,2098.6l-24.479.072c1.255-4.106,11.752-7.187,12.672-8.347.292-.369.223-1.808-.008-3.6a5.873,5.873,0,0,1,3.558,1.692,9.541,9.541,0,0,0,7.057-1Z" transform="translate(-2570.468 -2086.722)" fill="#73672c"/>
              </g>
            </g>
          </g>
          <g id="Group_1193580" data-name="Group 1193580" transform="translate(1.34 13.645)">
            <g id="Group_1193579" data-name="Group 1193579">
              <path id="Path_1016877" data-name="Path 1016877" d="M2584.846,2090.379c.344-.321.278-1.869.047-3.66a5.875,5.875,0,0,1,3.558,1.692c1.232,3.144-.74,7.656-7.035,8.486a28.4,28.4,0,0,1-7.85-.229C2576.773,2093.581,2583.782,2091.37,2584.846,2090.379Z" transform="translate(-2573.566 -2086.719)" fill="#f2e6d8"/>
            </g>
          </g>
          <g id="Group_1193582" data-name="Group 1193582" transform="translate(0.003 22.903)">
            <g id="Group_1193581" data-name="Group 1193581">
              <path id="Path_1016878" data-name="Path 1016878" d="M2572.618,2108.12l22.078.152.264,2.489-24.485.049A5.784,5.784,0,0,1,2572.618,2108.12Z" transform="translate(-2570.475 -2108.12)" fill="#f2e6d8"/>
            </g>
          </g>
        </g>
        <g id="Group_1193585" data-name="Group 1193585" transform="translate(46.254 56.714)">
          <g id="Group_1193584" data-name="Group 1193584">
            <path id="Path_1016879" data-name="Path 1016879" d="M2574.837,1964.36c13.067,21.166,14.356,49.877,14.356,49.877h-16.38s-6.525-19.265-9.2-27.239a198.661,198.661,0,0,1-5.153-20.184Z" transform="translate(-2558.457 -1964.36)" fill="#f2cf63"/>
          </g>
        </g>
        <g id="Group_1193594" data-name="Group 1193594" transform="translate(63.798 17.724)">
          <g id="Group_1193587" data-name="Group 1193587">
            <g id="Group_1193586" data-name="Group 1193586">
              <path id="Path_1016880" data-name="Path 1016880" d="M2612.572,1902.12a10.415,10.415,0,0,0,8.332-3.987c2.42-3.085,5.3-6.84,6.04-7.367a32.549,32.549,0,0,1,8.284-4.439,1.039,1.039,0,0,0,.676-1.243l-.014-.052a1.039,1.039,0,0,0-.986-.782h0l1.229-.61a1.176,1.176,0,0,0,.579-1.463h0a1.142,1.142,0,0,0-.125-.245,1.176,1.176,0,0,0-1.183-.5l-.026,0,.795-.42a1.211,1.211,0,0,0,.54-1.566h0a1.211,1.211,0,0,0-1.3-.7,36.125,36.125,0,0,0-4.486,1.132c.423-3.169-2.33-5.886-4.983-5.626a1.342,1.342,0,0,0-1.082,1.911h0a1.388,1.388,0,0,0,.162.262,1.292,1.292,0,0,0,.763.474,2.351,2.351,0,0,1,1.023,4.2,2.307,2.307,0,0,1-2.934-3.4,1.39,1.39,0,0,0,.165-.491,1.324,1.324,0,0,0-.114-.748h0a1.617,1.617,0,0,0-2.526-.527c-1.337,1.182-2.542,3.407-1.331,7.139l-7.563,8.44-11.9-.368-1.6,10.8Z" transform="translate(-2599.009 -1874.236)" fill="#ddab9e"/>
            </g>
          </g>
          <g id="Group_1193589" data-name="Group 1193589" transform="translate(32.165 7.284)">
            <g id="Group_1193588" data-name="Group 1193588">
              <path id="Path_1016881" data-name="Path 1016881" d="M2673.472,1892.421a.113.113,0,0,0,.038-.007c.02-.007,2.021-.715,3.485-1.12a.113.113,0,1,0-.06-.218c-1.471.407-3.48,1.118-3.5,1.125a.112.112,0,0,0-.068.144A.122.122,0,0,0,2673.472,1892.421Z" transform="translate(-2673.359 -1891.072)" fill="#3f1c16"/>
            </g>
          </g>
          <g id="Group_1193591" data-name="Group 1193591" transform="translate(32.343 10.16)">
            <g id="Group_1193590" data-name="Group 1193590">
              <path id="Path_1016882" data-name="Path 1016882" d="M2673.882,1899.1a.113.113,0,0,0,.048-.011c.015-.007,1.511-.715,2.7-1.146a.113.113,0,1,0-.077-.212c-1.2.435-2.7,1.147-2.717,1.154a.112.112,0,0,0-.053.15A.12.12,0,0,0,2673.882,1899.1Z" transform="translate(-2673.77 -1897.72)" fill="#3f1c16"/>
            </g>
          </g>
          <g id="Group_1193593" data-name="Group 1193593" transform="translate(31.648 8.005)">
            <g id="Group_1193592" data-name="Group 1193592">
              <path id="Path_1016883" data-name="Path 1016883" d="M2672.282,1896.728a.113.113,0,0,0,.112-.1,19.087,19.087,0,0,0-.007-3.79.113.113,0,0,0-.224.025,18.858,18.858,0,0,1,.008,3.739.113.113,0,0,0,.1.125Z" transform="translate(-2672.162 -1892.739)" fill="#3f1c16"/>
            </g>
          </g>
        </g>
        <g id="Group_1193597" data-name="Group 1193597" transform="translate(32.819 33.119)">
          <g id="Group_1193596" data-name="Group 1193596">
            <g id="Group_1193595" data-name="Group 1193595">
              <path id="Path_1016884" data-name="Path 1016884" d="M2561.267,1923.431l-5.153.046s1.656,9.663,2.393,12.147c0,0-15.184,4.877-23.65,4.325,0,0-.46-5.89-.644-14.08l-5.4,1.411-1.411-12.638a38.444,38.444,0,0,0,7.454-.276s5.821-2.661,16.356-4.426a8.625,8.625,0,0,1,1.216-.116,8.4,8.4,0,0,1,1.9.169,48.82,48.82,0,0,0,7.811.692Z" transform="translate(-2527.402 -1909.822)" fill="#73672c"/>
            </g>
          </g>
        </g>
        <g id="Group_1193599" data-name="Group 1193599" transform="translate(44.856 27.954)">
          <g id="Group_1193598" data-name="Group 1193598">
            <path id="Path_1016885" data-name="Path 1016885" d="M2559.282,1907.615h0a2.35,2.35,0,0,0,1.876-2.743l-1.312-6.99-4.619.867,1.313,6.99a2.35,2.35,0,0,0,2.743,1.876Z" transform="translate(-2555.226 -1897.882)" fill="#ddab9e"/>
          </g>
        </g>
        <g id="Group_1193601" data-name="Group 1193601" transform="translate(33.838 1.028)">
          <g id="Group_1193600" data-name="Group 1193600">
            <path id="Path_1016886" data-name="Path 1016886" d="M2554.872,1862.729c3.891-1.64,8.675-8.161,4.16-11.828,3.1-.938,1.031-3.063-.459-1.947,1.512-3.182-1.1-3.528-1.811-1.644.278-2.3-5.5-11.149-14.7-8.062.594-4.312-10.636-6.678-10.376,4.334-2.537,1.4-2.983,5.635,1.228,6.155s16.476,12.324,16.476,12.324Z" transform="translate(-2529.757 -1835.644)" fill="#3f1c16"/>
          </g>
        </g>
        <g id="Group_1193603" data-name="Group 1193603" transform="translate(33.802 9.639)">
          <g id="Group_1193602" data-name="Group 1193602">
            <path id="Path_1016887" data-name="Path 1016887" d="M2550.063,1872.092c-3.312-1.026-1.98-5.192.51-8.835-1.963-.32-3.951-2.957-2.114-6.224-.9.256-.993-.39-.993-.39-5.033,1.864-9.268.222-9.4-1.1-1.591,3.137-4.294,3.207-4.858,3.032a24.726,24.726,0,0,0-2.1,8.1c-.012,1.77-2.685,3.871-.719,7.779s9.915,7.939,18.809,1.868C2549.725,1873.844,2550.063,1872.092,2550.063,1872.092Z" transform="translate(-2529.676 -1855.547)" fill="#ddab9e"/>
          </g>
        </g>
        <g id="Group_1193605" data-name="Group 1193605" transform="translate(33.803 20.949)">
          <g id="Group_1193604" data-name="Group 1193604">
            <path id="Path_1016888" data-name="Path 1016888" d="M2531.107,1881.69a3.1,3.1,0,0,1-1.3,5.959C2529.2,1884.874,2530.955,1883.152,2531.107,1881.69Z" transform="translate(-2529.678 -1881.69)" fill="#dd8973"/>
          </g>
        </g>
        <g id="Group_1193613" data-name="Group 1193613" transform="translate(52.109 25.18)">
          <g id="Group_1193608" data-name="Group 1193608">
            <g id="Group_1193607" data-name="Group 1193607">
              <g id="Group_1193606" data-name="Group 1193606">
                <path id="Path_1016889" data-name="Path 1016889" d="M2571.99,1895.031a3.561,3.561,0,1,1,.092.812A3.509,3.509,0,0,1,2571.99,1895.031Z" transform="translate(-2571.99 -1891.47)" fill="#dd8973"/>
              </g>
            </g>
          </g>
          <g id="Group_1193610" data-name="Group 1193610" transform="translate(1.668 1.607)">
            <g id="Group_1193609" data-name="Group 1193609">
              <path id="Path_1016890" data-name="Path 1016890" d="M2575.969,1897.718h.011a.112.112,0,0,0,.1-.123,1.991,1.991,0,0,1,1.784-2.174,1.963,1.963,0,0,1,1.453.446,1.984,1.984,0,0,1,.714,1.347.112.112,0,0,0,.224-.022,2.21,2.21,0,1,0-4.4.424A.114.114,0,0,0,2575.969,1897.718Z" transform="translate(-2575.845 -1895.185)" fill="#3f1c16"/>
            </g>
          </g>
          <g id="Group_1193612" data-name="Group 1193612" transform="translate(2.951 1.799)">
            <g id="Group_1193611" data-name="Group 1193611">
              <path id="Path_1016891" data-name="Path 1016891" d="M2579.412,1898.025a.112.112,0,0,0,.081-.035,1.45,1.45,0,0,0-.041-2.048,1.425,1.425,0,0,0-.488-.308.113.113,0,1,0-.08.211,1.2,1.2,0,0,1,.412.26,1.225,1.225,0,0,1,.034,1.73.113.113,0,0,0,0,.159A.124.124,0,0,0,2579.412,1898.025Z" transform="translate(-2578.811 -1895.627)" fill="#3f1c16"/>
            </g>
          </g>
        </g>
        <g id="Group_1193615" data-name="Group 1193615" transform="translate(43.811 21.426)">
          <g id="Group_1193614" data-name="Group 1193614">
            <path id="Path_1016892" data-name="Path 1016892" d="M2554.025,1885.081c.691,0,1.348-.757,1.506-1.774a.113.113,0,1,0-.223-.035c-.15.964-.776,1.672-1.393,1.575s-1-.959-.848-1.924a.112.112,0,0,0-.094-.128.114.114,0,0,0-.129.094c-.169,1.087.3,2.065,1.036,2.181A1.006,1.006,0,0,0,2554.025,1885.081Z" transform="translate(-2552.809 -1882.794)" fill="#3f1c16"/>
          </g>
        </g>
        <g id="Group_1193617" data-name="Group 1193617" transform="translate(37.092 19.921)">
          <g id="Group_1193616" data-name="Group 1193616">
            <path id="Path_1016893" data-name="Path 1016893" d="M2538.495,1881.6c.691,0,1.348-.757,1.506-1.774a.113.113,0,0,0-.223-.034c-.15.964-.776,1.673-1.393,1.575s-1-.959-.848-1.924a.112.112,0,0,0-.094-.128.114.114,0,0,0-.129.094c-.169,1.087.3,2.065,1.037,2.181A1.26,1.26,0,0,0,2538.495,1881.6Z" transform="translate(-2537.278 -1879.315)" fill="#3f1c16"/>
          </g>
        </g>
        <g id="Group_1193619" data-name="Group 1193619" transform="translate(44.748 23.17)">
          <g id="Group_1193618" data-name="Group 1193618">
            <path id="Path_1016894" data-name="Path 1016894" d="M2561.013,1890.959a3.105,3.105,0,1,1-1.9-3.958A3.105,3.105,0,0,1,2561.013,1890.959Z" transform="translate(-2554.977 -1886.825)" fill="#dd8973"/>
          </g>
        </g>
        <g id="Group_1193624" data-name="Group 1193624" transform="translate(38.475 22.263)">
          <g id="Group_1193621" data-name="Group 1193621" transform="translate(0.115 0.116)">
            <g id="Group_1193620" data-name="Group 1193620">
              <path id="Path_1016895" data-name="Path 1016895" d="M2543.185,1886.524a1.281,1.281,0,1,1-.835-1.447A1.188,1.188,0,0,1,2543.185,1886.524Z" transform="translate(-2540.741 -1884.995)" fill="#dd8973"/>
            </g>
          </g>
          <g id="Group_1193623" data-name="Group 1193623">
            <g id="Group_1193622" data-name="Group 1193622">
              <path id="Path_1016896" data-name="Path 1016896" d="M2541.477,1887.091a.113.113,0,0,0,.037-.219.99.99,0,1,1,.646-1.843.113.113,0,1,0,.075-.212,1.213,1.213,0,1,0-.8,2.269A.077.077,0,0,0,2541.477,1887.091Z" transform="translate(-2540.476 -1884.727)" fill="#3f1c16"/>
            </g>
          </g>
        </g>
        <g id="Group_1193626" data-name="Group 1193626" transform="translate(39.728 26.065)">
          <g id="Group_1193625" data-name="Group 1193625">
            <path id="Path_1016897" data-name="Path 1016897" d="M2544.7,1894.608h.023a1.683,1.683,0,0,0,1.471-.927.113.113,0,1,0-.2-.1,1.459,1.459,0,0,1-1.275.807,1.251,1.251,0,0,1-1.136-.628.113.113,0,1,0-.2.111A1.479,1.479,0,0,0,2544.7,1894.608Z" transform="translate(-2543.372 -1893.515)" fill="#3f1c16"/>
          </g>
        </g>
        <g id="Group_1193628" data-name="Group 1193628" transform="translate(33.686 12.557)">
          <g id="Group_1193627" data-name="Group 1193627">
            <path id="Path_1016898" data-name="Path 1016898" d="M2539.844,1883.369a14.465,14.465,0,0,0,4.322-.68.113.113,0,1,0-.067-.215c-6.851,2.139-12.257-1.268-13.753-4.245a5.991,5.991,0,0,1,.146-5.865,4.876,4.876,0,0,0,.585-1.863,24.523,24.523,0,0,1,2.087-8.051.113.113,0,0,0-.207-.09,25.027,25.027,0,0,0-2.105,8.14,4.744,4.744,0,0,1-.565,1.772,6.186,6.186,0,0,0-.142,6.059C2531.342,1880.716,2534.977,1883.369,2539.844,1883.369Z" transform="translate(-2529.407 -1862.292)" fill="#3f1c16"/>
          </g>
        </g>
        <g id="Group_1193630" data-name="Group 1193630" transform="translate(63.932 13.849)">
          <g id="Group_1193629" data-name="Group 1193629">
            <path id="Path_1016899" data-name="Path 1016899" d="M2599.458,1867.948a1.592,1.592,0,0,0,1.664-.983,1.5,1.5,0,0,0-.663-1.668.113.113,0,0,0-.127.186,1.28,1.28,0,0,1,.574,1.414,1.388,1.388,0,0,1-1.473.825.109.109,0,0,0-.114.112.113.113,0,0,0,.112.114Z" transform="translate(-2599.32 -1865.278)" fill="#3f1c16"/>
          </g>
        </g>
        <g id="Group_1193632" data-name="Group 1193632" transform="translate(35.583 0)">
          <g id="Group_1193631" data-name="Group 1193631">
            <path id="Path_1016900" data-name="Path 1016900" d="M2533.9,1838.066a.113.113,0,0,0,.111-.094,5.05,5.05,0,0,1,5.654-4.46.113.113,0,1,0,.017-.225,5.264,5.264,0,0,0-5.893,4.647.114.114,0,0,0,.092.13A.073.073,0,0,0,2533.9,1838.066Z" transform="translate(-2533.791 -1833.268)" fill="#3f1c16"/>
          </g>
        </g>
        <g id="Group_1193634" data-name="Group 1193634" transform="translate(44.916 17.646)">
          <g id="Group_1193633" data-name="Group 1193633">
            <path id="Path_1016901" data-name="Path 1016901" d="M2558.053,1875.723a.113.113,0,0,0,.083-.189,5.73,5.73,0,0,0-2.635-1.476.113.113,0,1,0-.051.22,5.6,5.6,0,0,1,2.519,1.408A.116.116,0,0,0,2558.053,1875.723Z" transform="translate(-2555.364 -1874.056)" fill="#3f1c16"/>
          </g>
        </g>
        <g id="Group_1193636" data-name="Group 1193636" transform="translate(37.399 16.447)">
          <g id="Group_1193635" data-name="Group 1193635">
            <path id="Path_1016902" data-name="Path 1016902" d="M2538.1,1872a.112.112,0,0,0,.067-.023,4.464,4.464,0,0,1,2.027-.468.113.113,0,0,0-.017-.225,4.469,4.469,0,0,0-2.145.513.113.113,0,0,0-.022.158A.1.1,0,0,0,2538.1,1872Z" transform="translate(-2537.989 -1871.284)" fill="#3f1c16"/>
          </g>
        </g>
        <g id="Group_1193638" data-name="Group 1193638" transform="translate(56.744 33.046)">
          <g id="Group_1193637" data-name="Group 1193637">
            <path id="Path_1016903" data-name="Path 1016903" d="M2582.888,1916.227h.016a.113.113,0,0,0,.1-.127c-.007-.046-.6-4.6,2.018-6.239a.113.113,0,1,0-.119-.191c-2.745,1.721-2.149,6.268-2.123,6.461A.114.114,0,0,0,2582.888,1916.227Z" transform="translate(-2582.704 -1909.651)" fill="#3f1c16"/>
          </g>
        </g>
        <g id="Group_1193640" data-name="Group 1193640" transform="translate(39.514 42.246)">
          <g id="Group_1193639" data-name="Group 1193639">
            <path id="Path_1016904" data-name="Path 1016904" d="M2542.992,1937.953a.112.112,0,0,0,.113-.113,25.989,25.989,0,0,1,.685-6.777.113.113,0,0,0-.216-.066,26.187,26.187,0,0,0-.7,6.843A.115.115,0,0,0,2542.992,1937.953Z" transform="translate(-2542.879 -1930.917)" fill="#3f1c16"/>
          </g>
        </g>
        <g id="Group_1193642" data-name="Group 1193642" transform="translate(39.058 71.602)">
          <g id="Group_1193641" data-name="Group 1193641">
            <path id="Path_1016905" data-name="Path 1016905" d="M2545.893,2004.98l.021,0a.113.113,0,0,0,.092-.1,7.414,7.414,0,0,0-.47-3.652.113.113,0,1,0-.2.1,6.912,6.912,0,0,1,.483,3.159c-2.881-5.274-3.8-5.689-3.835-5.7a.113.113,0,0,0-.084.209c.035.017.967.509,3.9,5.93A.106.106,0,0,0,2545.893,2004.98Z" transform="translate(-2541.823 -1998.774)" fill="#3f1c16"/>
          </g>
        </g>
      </g>
      <g id="Group_1193662" data-name="Group 1193662" transform="translate(2245.42 1774.804)">
        <g id="Group_1193649" data-name="Group 1193649" transform="translate(0 0)">
          <g id="Group_1193648" data-name="Group 1193648">
            <g id="Group_1193647" data-name="Group 1193647">
              <g id="Group_1193646" data-name="Group 1193646">
                <g id="Group_1193645" data-name="Group 1193645">
                  <g id="Group_1193644" data-name="Group 1193644">
                    <circle id="Ellipse_15116" data-name="Ellipse 15116" cx="9.118" cy="9.118" r="9.118" transform="translate(0 12.895) rotate(-45)" fill="#bf5c42"/>
                  </g>
                </g>
              </g>
            </g>
          </g>
        </g>
        <g id="Group_1193655" data-name="Group 1193655" transform="translate(7.063 7.046)">
          <g id="Group_1193654" data-name="Group 1193654">
            <g id="Group_1193653" data-name="Group 1193653">
              <g id="Group_1193652" data-name="Group 1193652">
                <g id="Group_1193651" data-name="Group 1193651">
                  <g id="Group_1193650" data-name="Group 1193650">
                    <path id="Path_1016906" data-name="Path 1016906" d="M2516.787,2095.608l12.184-12.184a9.127,9.127,0,0,0-1.212-1.87l-12.843,12.843A9.14,9.14,0,0,0,2516.787,2095.608Z" transform="translate(-2514.917 -2081.554)" fill="#f2e6d8"/>
                  </g>
                </g>
              </g>
            </g>
          </g>
        </g>
        <g id="Group_1193661" data-name="Group 1193661" transform="translate(4.849 4.832)">
          <g id="Group_1193660" data-name="Group 1193660">
            <g id="Group_1193659" data-name="Group 1193659">
              <g id="Group_1193658" data-name="Group 1193658">
                <g id="Group_1193657" data-name="Group 1193657">
                  <g id="Group_1193656" data-name="Group 1193656">
                    <path id="Path_1016907" data-name="Path 1016907" d="M2509.8,2088.759a9.151,9.151,0,0,0,1.266,1.816l12.873-12.873a9.129,9.129,0,0,0-1.816-1.266Z" transform="translate(-2509.8 -2076.436)" fill="#f2e6d8"/>
                  </g>
                </g>
              </g>
            </g>
          </g>
        </g>
      </g>
      <g id="Group_1193683" data-name="Group 1193683" transform="translate(2052.377 1694.749)">
        <g id="Group_1193677" data-name="Group 1193677">
          <g id="Group_1193664" data-name="Group 1193664" transform="translate(0.239 15.98)">
            <g id="Group_1193663" data-name="Group 1193663">
              <path id="Path_1016908" data-name="Path 1016908" d="M2052.93,1920.87c9.86-8.719,19.3.451,24.086,1.954s14.79,6.915,15.212,11.876-.563,10.824.281,13.68-.563,8.719-.563,8.719-8.592-11.425-9.578-12.628-8.029-9.621-8.592-10.072-9.719-5.112-10-5.562S2052.93,1920.87,2052.93,1920.87Z" transform="translate(-2052.93 -1917.157)" fill="#73672c"/>
            </g>
          </g>
          <g id="Group_1193666" data-name="Group 1193666" transform="translate(32.637)">
            <g id="Group_1193665" data-name="Group 1193665">
              <path id="Path_1016909" data-name="Path 1016909" d="M2144.578,1895.254a11.93,11.93,0,0,0-7.747-11.275c-3.944-1.654-9.015-3.758-9.015-3.758,1.126,7.667.7,10.523.845,16.987s1.126,10.223,1.831,12.027S2144.578,1895.254,2144.578,1895.254Z" transform="translate(-2127.816 -1880.221)" fill="#73672c"/>
            </g>
          </g>
          <g id="Group_1193668" data-name="Group 1193668" transform="translate(34.205 10.853)">
            <g id="Group_1193667" data-name="Group 1193667">
              <path id="Path_1016910" data-name="Path 1016910" d="M2137.337,1949.778c3.38-4.961,13.24-9.02,12.958-18.039s12.4-18.04,17.184-19.242c-10-4.66-18.874-9.772-22.959-5.712s-4.085,8.118-8.592,10.674-5.493,9.471-3.521,13.831,1.409,11.425.845,12.177S2137.337,1949.778,2137.337,1949.778Z" transform="translate(-2131.441 -1905.308)" fill="#a38f38"/>
            </g>
          </g>
          <g id="Group_1193670" data-name="Group 1193670" transform="translate(38.877 36.947)">
            <g id="Group_1193669" data-name="Group 1193669">
              <path id="Path_1016911" data-name="Path 1016911" d="M2142.478,2000.383c7.465-5.712,7.887-10.073,11.268-17.137s5.211-10.373,10.564-12.477,5.775-2.255,5.775-2.255c-5.211-2.255-8.874-5.112-11.268-.151s-5.916,5.262-10.564,8.118S2141.491,1995.723,2142.478,2000.383Z" transform="translate(-2142.24 -1965.623)" fill="#73672c"/>
            </g>
          </g>
          <g id="Group_1193672" data-name="Group 1193672" transform="translate(12.821 50.355)">
            <g id="Group_1193671" data-name="Group 1193671">
              <path id="Path_1016912" data-name="Path 1016912" d="M2108.869,2019.974c.375-7.417-.845-11.826-5.446-12.628s-6.855-1.3-8.827-4.911-2.16-5.211-5.822-5.612a36.771,36.771,0,0,0-6.761-.1c3.1,4.009,2.629,9.12,4.319,13.73s3.85,7.917,8.921,8.118S2107.273,2018.27,2108.869,2019.974Z" transform="translate(-2082.013 -1996.615)" fill="#73672c"/>
            </g>
          </g>
          <g id="Group_1193674" data-name="Group 1193674" transform="translate(0 19.535)">
            <g id="Group_1193673" data-name="Group 1193673">
              <path id="Path_1016913" data-name="Path 1016913" d="M2090.367,1977.548c4.085-4.36,5.775-9.321,3.944-12.628s0-7.667-5.211-10.373-2.676-9.922-6.057-14.281-7.466-.6-12.958-6.614-15.494-9.02-17.466-8.118,8.733,7.517,9.437,9.02a12.655,12.655,0,0,0,8.31,7.667c5.916,1.8,8.17,8.118,9.156,12.928s5.211,7.066,7.324,9.922S2090.505,1976.2,2090.367,1977.548Z" transform="translate(-2052.376 -1925.376)" fill="#a38f38"/>
            </g>
          </g>
          <g id="Group_1193676" data-name="Group 1193676" transform="translate(36.277 56.127)">
            <g id="Group_1193675" data-name="Group 1193675">
              <path id="Path_1016914" data-name="Path 1016914" d="M2136.23,2030.149c2.629-8.619-.188-9.02,5.071-10.824s7.512,0,10.517-2.906,3.568-6.214,8.451-6.414,5.916.3,5.916.3c-4.6,6.815-.751,11.425-7.512,14.532s-9.954.6-14.367,3.407-5.822,5.211-6.1,5.613S2136.23,2030.149,2136.23,2030.149Z" transform="translate(-2136.23 -2009.958)" fill="#a38f38"/>
            </g>
          </g>
        </g>
        <g id="Group_1193682" data-name="Group 1193682" transform="translate(22.775 73.965)">
          <g id="Group_1193678" data-name="Group 1193678" transform="translate(17.443 22.548)">
            <rect id="Rectangle_461715" data-name="Rectangle 461715" width="4.836" height="6.063" fill="#4f638c"/>
          </g>
          <g id="Group_1193679" data-name="Group 1193679" transform="translate(2.864 22.548)">
            <rect id="Rectangle_461716" data-name="Rectangle 461716" width="4.836" height="6.063" fill="#4f638c"/>
          </g>
          <g id="Group_1193680" data-name="Group 1193680" transform="translate(31.841 22.548)">
            <rect id="Rectangle_461717" data-name="Rectangle 461717" width="4.836" height="6.063" fill="#4f638c"/>
          </g>
          <g id="Group_1193681" data-name="Group 1193681">
            <rect id="Rectangle_461718" data-name="Rectangle 461718" width="39.721" height="24.354" fill="#4f638c"/>
          </g>
        </g>
      </g>
      <g id="Group_1193699" data-name="Group 1193699" transform="translate(2142.191 1599.519)">
        <g id="Group_1193694" data-name="Group 1193694" transform="translate(0 0)">
          <g id="Group_1193686" data-name="Group 1193686" transform="translate(1.609 4.205)">
            <g id="Group_1193685" data-name="Group 1193685">
              <g id="Group_1193684" data-name="Group 1193684">
                <rect id="Rectangle_461719" data-name="Rectangle 461719" width="6.373" height="4.903" fill="#f2cf63"/>
              </g>
            </g>
          </g>
          <g id="Group_1193688" data-name="Group 1193688" transform="translate(61.039 4.205)">
            <g id="Group_1193687" data-name="Group 1193687">
              <rect id="Rectangle_461720" data-name="Rectangle 461720" width="6.373" height="4.903" fill="#f2cf63"/>
            </g>
          </g>
          <g id="Group_1193690" data-name="Group 1193690">
            <g id="Group_1193689" data-name="Group 1193689">
              <rect id="Rectangle_461721" data-name="Rectangle 461721" width="68.893" height="4.202" fill="#f2cf63"/>
            </g>
          </g>
          <g id="Group_1193693" data-name="Group 1193693" transform="translate(61.039 4.205)">
            <g id="Group_1193692" data-name="Group 1193692">
              <g id="Group_1193691" data-name="Group 1193691">
                <path id="Path_1016915" data-name="Path 1016915" d="M2401.07,1669.82h6.377l-6.377,2.565Z" transform="translate(-2401.07 -1669.82)" fill="#f2cf63"/>
              </g>
            </g>
          </g>
        </g>
        <g id="Group_1193698" data-name="Group 1193698" transform="translate(1.609 4.205)">
          <g id="Group_1193697" data-name="Group 1193697">
            <g id="Group_1193696" data-name="Group 1193696">
              <g id="Group_1193695" data-name="Group 1193695">
                <path id="Path_1016916" data-name="Path 1016916" d="M2263.7,1669.82h6.373l-6.373,2.565Z" transform="translate(-2263.7 -1669.82)" fill="#f2cf63"/>
              </g>
            </g>
          </g>
        </g>
      </g>
      <g id="Group_1193715" data-name="Group 1193715" transform="translate(2078.898 1631.386)">
        <g id="Group_1193710" data-name="Group 1193710" transform="translate(0 0)">
          <g id="Group_1193702" data-name="Group 1193702" transform="translate(1.735 4.525)">
            <g id="Group_1193701" data-name="Group 1193701">
              <g id="Group_1193700" data-name="Group 1193700">
                <rect id="Rectangle_461722" data-name="Rectangle 461722" width="6.864" height="5.28" fill="#f2cf63"/>
              </g>
            </g>
          </g>
          <g id="Group_1193704" data-name="Group 1193704" transform="translate(65.746 4.525)">
            <g id="Group_1193703" data-name="Group 1193703">
              <rect id="Rectangle_461723" data-name="Rectangle 461723" width="6.864" height="5.28" fill="#f2cf63"/>
            </g>
          </g>
          <g id="Group_1193706" data-name="Group 1193706">
            <g id="Group_1193705" data-name="Group 1193705">
              <rect id="Rectangle_461724" data-name="Rectangle 461724" width="74.202" height="4.526" fill="#f2cf63"/>
            </g>
          </g>
          <g id="Group_1193709" data-name="Group 1193709" transform="translate(65.746 4.525)">
            <g id="Group_1193708" data-name="Group 1193708">
              <g id="Group_1193707" data-name="Group 1193707">
                <path id="Path_1016917" data-name="Path 1016917" d="M2265.65,1744.22h6.861l-6.861,2.765Z" transform="translate(-2265.65 -1744.22)" fill="#f2cf63"/>
              </g>
            </g>
          </g>
        </g>
        <g id="Group_1193714" data-name="Group 1193714" transform="translate(1.735 4.525)">
          <g id="Group_1193713" data-name="Group 1193713">
            <g id="Group_1193712" data-name="Group 1193712">
              <g id="Group_1193711" data-name="Group 1193711">
                <path id="Path_1016918" data-name="Path 1016918" d="M2117.69,1744.22h6.866l-6.866,2.765Z" transform="translate(-2117.69 -1744.22)" fill="#f2cf63"/>
              </g>
            </g>
          </g>
        </g>
      </g>
      <g id="Group_1193734" data-name="Group 1193734" transform="translate(2081.511 1572.652)">
        <g id="Group_1193718" data-name="Group 1193718" transform="translate(16.532 0)">
          <g id="Group_1193717" data-name="Group 1193717">
            <g id="Group_1193716" data-name="Group 1193716">
              <path id="Path_1016919" data-name="Path 1016919" d="M2160.055,1645.346c-3.109-7.174-2.391-13.391-.478-16.978s.478-2.391,1.913-3.587,4.065-5.5,2.63-13.391,6.217-13.391,6.217-13.391c.239,5.978,1.913,7.652,3.826,15.3s0,15.3-5.5,18.891-5.5,13.152-5.5,13.152Z" transform="translate(-2157.932 -1597.999)" fill="#73672c"/>
            </g>
          </g>
        </g>
        <g id="Group_1193721" data-name="Group 1193721" transform="translate(22.504 14.348)">
          <g id="Group_1193720" data-name="Group 1193720">
            <g id="Group_1193719" data-name="Group 1193719">
              <path id="Path_1016920" data-name="Path 1016920" d="M2174.1,1663.207c-3.109-5.739-3.587-13.391,1.2-17.217s8.13-11.478,8.13-14.826c4.543,4.3,3.826,12.434-.239,16.739s-3.348,14.826-3.348,14.826Z" transform="translate(-2171.737 -1631.164)" fill="#a38f38"/>
            </g>
          </g>
        </g>
        <g id="Group_1193724" data-name="Group 1193724" transform="translate(7.042 5.981)">
          <g id="Group_1193723" data-name="Group 1193723">
            <g id="Group_1193722" data-name="Group 1193722">
              <path id="Path_1016921" data-name="Path 1016921" d="M2141.869,1652.713c-7.652-7.652-6.217-17.217-4.543-24.869s-.239-15.3-.239-16.021c7.652,8.369,10.282,12.913,8.369,18.652s1.674,16.978,1.674,16.978l.24,4.783Z" transform="translate(-2135.997 -1611.823)" fill="#73672c"/>
            </g>
          </g>
        </g>
        <g id="Group_1193727" data-name="Group 1193727" transform="translate(2.994 29.654)">
          <g id="Group_1193726" data-name="Group 1193726">
            <g id="Group_1193725" data-name="Group 1193725">
              <path id="Path_1016922" data-name="Path 1016922" d="M2130.343,1684.716c-4.065-4.065-5.021-10.282-1.674-18.173,7.891,6.456,6.935,16.978,6.935,16.978Z" transform="translate(-2126.64 -1666.543)" fill="#a38f38"/>
            </g>
          </g>
        </g>
        <g id="Group_1193730" data-name="Group 1193730" transform="translate(13.321 9.418)">
          <g id="Group_1193729" data-name="Group 1193729">
            <g id="Group_1193728" data-name="Group 1193728">
              <path id="Path_1016923" data-name="Path 1016923" d="M2150.584,1641.677c-.717-14.108,4.065-23.195,5.021-21.76,7.413,17.7,2.153,37.781,2.153,37.781H2152.5A67.768,67.768,0,0,1,2150.584,1641.677Z" transform="translate(-2150.511 -1619.769)" fill="#a38f38"/>
            </g>
          </g>
        </g>
        <g id="Group_1193733" data-name="Group 1193733" transform="translate(0 44.003)">
          <g id="Group_1193732" data-name="Group 1193732">
            <g id="Group_1193731" data-name="Group 1193731">
              <path id="Path_1016924" data-name="Path 1016924" d="M2119.72,1699.71c0,8.584,7.655,15.543,17.1,15.543s17.1-6.959,17.1-15.543Z" transform="translate(-2119.72 -1699.71)" fill="#bf6849"/>
            </g>
          </g>
        </g>
      </g>
      <g id="Group_1193772" data-name="Group 1193772" transform="translate(2181.245 1553.325)">
        <g id="Group_1193765" data-name="Group 1193765">
          <g id="Group_1193737" data-name="Group 1193737" transform="translate(18.772 17.792)">
            <g id="Group_1193736" data-name="Group 1193736">
              <g id="Group_1193735" data-name="Group 1193735">
                <path id="Path_1016925" data-name="Path 1016925" d="M2401.715,1594.468c-8.99-.53-10.364,11.745-4.653,12.006S2412.184,1595.087,2401.715,1594.468Z" transform="translate(-2393.643 -1594.451)" fill="#73672c"/>
              </g>
            </g>
          </g>
          <g id="Group_1193740" data-name="Group 1193740" transform="translate(0 12.074)">
            <g id="Group_1193739" data-name="Group 1193739">
              <g id="Group_1193738" data-name="Group 1193738">
                <path id="Path_1016926" data-name="Path 1016926" d="M2352.332,1582.149c-6.687,3.541,4.221,20.615,11.968,14.56a6.4,6.4,0,0,0,2.36-6.93,9.076,9.076,0,0,0-.277-.9C2364.51,1583.724,2357.809,1579.246,2352.332,1582.149Z" transform="translate(-2350.252 -1581.233)" fill="#73672c"/>
              </g>
            </g>
          </g>
          <g id="Group_1193743" data-name="Group 1193743" transform="translate(7.902)">
            <g id="Group_1193742" data-name="Group 1193742">
              <g id="Group_1193741" data-name="Group 1193741">
                <path id="Path_1016927" data-name="Path 1016927" d="M2373.623,1553.379c-7.665.871-5.3,10.667-1.958,14.593s6.585,6.834,8.482,2.373S2382.561,1552.367,2373.623,1553.379Z" transform="translate(-2368.517 -1553.325)" fill="#a38f38"/>
              </g>
            </g>
          </g>
          <g id="Group_1193746" data-name="Group 1193746" transform="translate(5.622 19.678)">
            <g id="Group_1193745" data-name="Group 1193745">
              <g id="Group_1193744" data-name="Group 1193744">
                <path id="Path_1016928" data-name="Path 1016928" d="M2373.484,1611.1a.124.124,0,0,1-.121-.1,16.782,16.782,0,0,0-10.04-11.955.124.124,0,1,1,.094-.229,17.029,17.029,0,0,1,10.187,12.13.124.124,0,0,1-.094.148A.184.184,0,0,0,2373.484,1611.1Z" transform="translate(-2363.247 -1598.811)" fill="#4e1721"/>
              </g>
            </g>
          </g>
          <g id="Group_1193749" data-name="Group 1193749" transform="translate(15.202 5.721)">
            <g id="Group_1193748" data-name="Group 1193748">
              <g id="Group_1193747" data-name="Group 1193747">
                <path id="Path_1016929" data-name="Path 1016929" d="M2388.852,1592.395h-.006a.124.124,0,0,1-.118-.13c.007-.144.627-14.506-3.329-25.55a.124.124,0,0,1,.234-.083c3.973,11.09,3.349,25.5,3.343,25.645A.124.124,0,0,1,2388.852,1592.395Z" transform="translate(-2385.392 -1566.549)" fill="#4e1721"/>
              </g>
            </g>
          </g>
          <g id="Group_1193752" data-name="Group 1193752" transform="translate(20.555 23.653)">
            <g id="Group_1193751" data-name="Group 1193751">
              <g id="Group_1193750" data-name="Group 1193750">
                <path id="Path_1016930" data-name="Path 1016930" d="M2397.888,1616.011h-.01a.123.123,0,0,1-.113-.134c.367-4.354,3.243-7.42,5.091-7.875a.124.124,0,1,1,.059.241c-1.777.438-4.546,3.415-4.9,7.655A.125.125,0,0,1,2397.888,1616.011Z" transform="translate(-2397.764 -1607.998)" fill="#4e1721"/>
              </g>
            </g>
          </g>
          <g id="Group_1193755" data-name="Group 1193755" transform="translate(15.162 11.596)">
            <g id="Group_1193754" data-name="Group 1193754">
              <g id="Group_1193753" data-name="Group 1193753">
                <path id="Path_1016931" data-name="Path 1016931" d="M2387.454,1581.972a.123.123,0,0,1-.076-.026l-2.031-1.6a.124.124,0,1,1,.153-.195l2.031,1.6a.124.124,0,0,1-.077.221Z" transform="translate(-2385.3 -1580.129)" fill="#4e1721"/>
              </g>
            </g>
          </g>
          <g id="Group_1193758" data-name="Group 1193758" transform="translate(15.96 6.09)">
            <g id="Group_1193757" data-name="Group 1193757">
              <g id="Group_1193756" data-name="Group 1193756">
                <path id="Path_1016932" data-name="Path 1016932" d="M2387.267,1569.616a.124.124,0,0,1-.114-.173l.853-1.966a.124.124,0,0,1,.228.1l-.853,1.966A.124.124,0,0,1,2387.267,1569.616Z" transform="translate(-2387.143 -1567.402)" fill="#4e1721"/>
              </g>
            </g>
          </g>
          <g id="Group_1193761" data-name="Group 1193761" transform="translate(23.95 22.676)">
            <g id="Group_1193760" data-name="Group 1193760">
              <g id="Group_1193759" data-name="Group 1193759">
                <path id="Path_1016933" data-name="Path 1016933" d="M2405.737,1607.8l-.026,0a.124.124,0,0,1-.1-.147l.389-1.807a.124.124,0,1,1,.242.052l-.389,1.807A.128.128,0,0,1,2405.737,1607.8Z" transform="translate(-2405.612 -1605.741)" fill="#4e1721"/>
              </g>
            </g>
          </g>
          <g id="Group_1193764" data-name="Group 1193764" transform="translate(22.216 26.508)">
            <g id="Group_1193763" data-name="Group 1193763">
              <g id="Group_1193762" data-name="Group 1193762">
                <path id="Path_1016934" data-name="Path 1016934" d="M2401.727,1614.966a.124.124,0,0,1-.008-.247l1.9-.121a.124.124,0,0,1,.015.247l-1.9.121Z" transform="translate(-2401.604 -1614.597)" fill="#4e1721"/>
              </g>
            </g>
          </g>
        </g>
        <g id="Group_1193768" data-name="Group 1193768" transform="translate(9.729 30.788)">
          <g id="Group_1193767" data-name="Group 1193767">
            <g id="Group_1193766" data-name="Group 1193766">
              <rect id="Rectangle_461725" data-name="Rectangle 461725" width="16.226" height="3.516" fill="#bf6849"/>
            </g>
          </g>
        </g>
        <g id="Group_1193771" data-name="Group 1193771" transform="translate(11.212 34.305)">
          <g id="Group_1193770" data-name="Group 1193770">
            <g id="Group_1193769" data-name="Group 1193769">
              <path id="Path_1016935" data-name="Path 1016935" d="M2389.421,1632.62H2376.17l1.038,11.841h11.179Z" transform="translate(-2376.17 -1632.62)" fill="#bf6849"/>
            </g>
          </g>
        </g>
      </g>
      <g id="Group_1193788" data-name="Group 1193788" transform="translate(2124.886 1613.312)">
        <g id="Group_1193783" data-name="Group 1193783" transform="translate(0 0)">
          <g id="Group_1193782" data-name="Group 1193782">
            <g id="Group_1193781" data-name="Group 1193781">
              <g id="Group_1193775" data-name="Group 1193775" transform="translate(3.662)">
                <g id="Group_1193774" data-name="Group 1193774">
                  <g id="Group_1193773" data-name="Group 1193773">
                    <path id="Path_1016936" data-name="Path 1016936" d="M2230.143,1699.292h-1.549a.58.58,0,0,0,.265.941h16.753a3.956,3.956,0,0,0,3.058-1.707,4.187,4.187,0,0,0-3.423-6.545h-16.382a.579.579,0,0,0-.288.922h1.736Z" transform="translate(-2228.445 -1691.982)" fill="#73672c"/>
                  </g>
                </g>
              </g>
              <g id="Group_1193778" data-name="Group 1193778">
                <g id="Group_1193777" data-name="Group 1193777">
                  <g id="Group_1193776" data-name="Group 1193776">
                    <path id="Path_1016937" data-name="Path 1016937" d="M2222.637,1699.292h-2.507a.58.58,0,0,0,.265.941h5.372a3.956,3.956,0,0,0,3.058-1.707,4.187,4.187,0,0,0-3.423-6.545h-5a.579.579,0,0,0-.288.922h2.695Z" transform="translate(-2219.981 -1691.982)" fill="#73532a"/>
                  </g>
                </g>
              </g>
              <g id="Group_1193780" data-name="Group 1193780" transform="translate(0.561 0.561)">
                <g id="Group_1193779" data-name="Group 1193779">
                  <path id="Path_1016938" data-name="Path 1016938" d="M2226.137,1700.409h-4.859a5.245,5.245,0,0,0,.159-6.942l-.159-.189h4.859a3.565,3.565,0,0,1,3.565,3.565h0A3.566,3.566,0,0,1,2226.137,1700.409Z" transform="translate(-2221.278 -1693.278)" fill="#f2e6d8"/>
                </g>
              </g>
            </g>
          </g>
        </g>
        <g id="Group_1193785" data-name="Group 1193785" transform="translate(5.036 4.09)">
          <g id="Group_1193784" data-name="Group 1193784">
            <path id="Path_1016939" data-name="Path 1016939" d="M2234.77,1701.472h-3.131a.018.018,0,1,1,0-.036h3.131a.018.018,0,0,1,.018.018A.019.019,0,0,1,2234.77,1701.472Z" transform="translate(-2231.621 -1701.436)" fill="#3f1c16"/>
          </g>
        </g>
        <g id="Group_1193787" data-name="Group 1193787" transform="translate(5.446 1.667)">
          <g id="Group_1193786" data-name="Group 1193786">
            <path id="Path_1016940" data-name="Path 1016940" d="M2233.807,1695.872h-1.219a.018.018,0,1,1,0-.036h1.219a.018.018,0,0,1,.018.018A.02.02,0,0,1,2233.807,1695.872Z" transform="translate(-2232.57 -1695.836)" fill="#3f1c16"/>
          </g>
        </g>
      </g>
      <g id="Group_1193806" data-name="Group 1193806" transform="translate(2117.061 1621.664)">
        <g id="Group_1193799" data-name="Group 1193799">
          <g id="Group_1193798" data-name="Group 1193798">
            <g id="Group_1193797" data-name="Group 1193797">
              <g id="Group_1193791" data-name="Group 1193791">
                <g id="Group_1193790" data-name="Group 1193790">
                  <g id="Group_1193789" data-name="Group 1193789">
                    <path id="Path_1016941" data-name="Path 1016941" d="M2224.539,1719.9h5.186a.683.683,0,0,1-.312,1.109h-23.093a4.66,4.66,0,0,1-3.6-2.01,4.931,4.931,0,0,1,4.032-7.709h22.655a.682.682,0,0,1,.339,1.086h-5.407Z" transform="translate(-2201.892 -1711.289)" fill="#4f638c"/>
                  </g>
                </g>
              </g>
              <g id="Group_1193794" data-name="Group 1193794" transform="translate(17.72)">
                <g id="Group_1193793" data-name="Group 1193793">
                  <g id="Group_1193792" data-name="Group 1193792">
                    <path id="Path_1016942" data-name="Path 1016942" d="M2254.328,1719.9h2.952a.683.683,0,0,1-.312,1.109h-9.688a4.659,4.659,0,0,1-3.6-2.01,4.931,4.931,0,0,1,4.031-7.709h9.251a.682.682,0,0,1,.339,1.086h-3.173Z" transform="translate(-2242.852 -1711.289)" fill="#4f4a6c"/>
                  </g>
                </g>
              </g>
              <g id="Group_1193796" data-name="Group 1193796" transform="translate(18.379 0.662)">
                <g id="Group_1193795" data-name="Group 1193795">
                  <path id="Path_1016943" data-name="Path 1016943" d="M2248.574,1721.217h9.085a6.177,6.177,0,0,1-.187-8.175l.187-.222h-9.085a4.2,4.2,0,0,0-4.2,4.2h0A4.2,4.2,0,0,0,2248.574,1721.217Z" transform="translate(-2244.375 -1712.819)" fill="#f2e6d8"/>
                </g>
              </g>
            </g>
          </g>
        </g>
        <g id="Group_1193801" data-name="Group 1193801" transform="translate(24.023 7.012)">
          <g id="Group_1193800" data-name="Group 1193800">
            <path id="Path_1016944" data-name="Path 1016944" d="M2263.521,1727.546h-6.075a.024.024,0,0,1-.024-.025.024.024,0,0,1,.024-.024h6.075a.025.025,0,0,1,.025.024A.025.025,0,0,1,2263.521,1727.546Z" transform="translate(-2257.421 -1727.497)" fill="#3f1c16"/>
          </g>
        </g>
        <g id="Group_1193803" data-name="Group 1193803" transform="translate(21.178 7.012)">
          <g id="Group_1193802" data-name="Group 1193802">
            <path id="Path_1016945" data-name="Path 1016945" d="M2251.871,1727.546h-1a.024.024,0,0,1-.024-.025.024.024,0,0,1,.024-.024h1a.024.024,0,0,1,.024.024A.025.025,0,0,1,2251.871,1727.546Z" transform="translate(-2250.843 -1727.497)" fill="#3f1c16"/>
          </g>
        </g>
        <g id="Group_1193805" data-name="Group 1193805" transform="translate(26.902 3.919)">
          <g id="Group_1193804" data-name="Group 1193804">
            <path id="Path_1016946" data-name="Path 1016946" d="M2265.535,1720.4H2264.1a.024.024,0,0,1,0-.049h1.436a.025.025,0,0,1,.024.024C2265.557,1720.387,2265.548,1720.4,2265.535,1720.4Z" transform="translate(-2264.075 -1720.347)" fill="#3f1c16"/>
          </g>
        </g>
      </g>
      <g id="Group_1193809" data-name="Group 1193809" transform="translate(2175.157 1575.932)">
        <g id="Group_1193808" data-name="Group 1193808" transform="translate(0 0)">
          <g id="Group_1193807" data-name="Group 1193807">
            <rect id="Rectangle_461726" data-name="Rectangle 461726" width="4.612" height="23.398" fill="#f2cf63"/>
          </g>
        </g>
      </g>
      <g id="Group_1193812" data-name="Group 1193812" transform="translate(2172.704 1575.932)">
        <g id="Group_1193811" data-name="Group 1193811" transform="translate(0 0)">
          <g id="Group_1193810" data-name="Group 1193810">
            <rect id="Rectangle_461727" data-name="Rectangle 461727" width="2.469" height="23.398" fill="#f2ae52"/>
          </g>
        </g>
      </g>
      <g id="Group_1193815" data-name="Group 1193815" transform="translate(2163.986 1575.663)">
        <g id="Group_1193814" data-name="Group 1193814" transform="translate(0 0)">
          <g id="Group_1193813" data-name="Group 1193813">
            <rect id="Rectangle_461728" data-name="Rectangle 461728" width="23.398" height="7.044" transform="matrix(0.071, -0.998, 0.998, 0.071, 0, 23.339)" fill="#bf6849"/>
          </g>
        </g>
      </g>
      <g id="Group_1193818" data-name="Group 1193818" transform="translate(2150.488 1575.472)">
        <g id="Group_1193817" data-name="Group 1193817" transform="translate(0 0)">
          <g id="Group_1193816" data-name="Group 1193816">
            <rect id="Rectangle_461729" data-name="Rectangle 461729" width="23.398" height="7.044" transform="matrix(0.369, -0.929, 0.929, 0.369, 0, 21.748)" fill="#4f638c"/>
          </g>
        </g>
      </g>
      <g id="Group_1193863" data-name="Group 1193863" transform="translate(2247.43 1574.748)">
        <g id="Group_1193822" data-name="Group 1193822" transform="translate(0 0)">
          <g id="Group_1193821" data-name="Group 1193821" transform="translate(0 0)">
            <g id="Group_1193820" data-name="Group 1193820">
              <g id="Group_1193819" data-name="Group 1193819">
                <circle id="Ellipse_15117" data-name="Ellipse 15117" cx="21.636" cy="21.636" r="21.636" transform="translate(0 30.597) rotate(-45)" fill="#fcca57"/>
              </g>
            </g>
          </g>
        </g>
        <g id="Group_1193826" data-name="Group 1193826" transform="translate(13.545 13.529)">
          <g id="Group_1193825" data-name="Group 1193825">
            <g id="Group_1193824" data-name="Group 1193824">
              <g id="Group_1193823" data-name="Group 1193823">
                <circle id="Ellipse_15118" data-name="Ellipse 15118" cx="17.064" cy="17.064" r="17.064" fill="#fff"/>
              </g>
            </g>
          </g>
        </g>
        <g id="Group_1193830" data-name="Group 1193830" transform="translate(30.305 14.751)">
          <g id="Group_1193829" data-name="Group 1193829">
            <g id="Group_1193828" data-name="Group 1193828">
              <g id="Group_1193827" data-name="Group 1193827">
                <path id="Path_1016947" data-name="Path 1016947" d="M2573.59,1639.073h0a.3.3,0,0,1-.3-.3v-1.524a.3.3,0,0,1,.3-.3h0a.3.3,0,0,1,.3.3v1.524A.3.3,0,0,1,2573.59,1639.073Z" transform="translate(-2573.286 -1636.94)" fill="#3f1c16"/>
              </g>
            </g>
          </g>
        </g>
        <g id="Group_1193834" data-name="Group 1193834" transform="translate(40.22 19.301)">
          <g id="Group_1193833" data-name="Group 1193833">
            <g id="Group_1193832" data-name="Group 1193832">
              <g id="Group_1193831" data-name="Group 1193831">
                <path id="Path_1016948" data-name="Path 1016948" d="M2596.293,1649.055h0a.3.3,0,0,1,0-.431l1.077-1.077a.305.305,0,0,1,.431,0h0a.3.3,0,0,1,0,.431l-1.077,1.077A.3.3,0,0,1,2596.293,1649.055Z" transform="translate(-2596.204 -1647.458)" fill="#3f1c16"/>
              </g>
            </g>
          </g>
        </g>
        <g id="Group_1193838" data-name="Group 1193838" transform="translate(44.324 30.289)">
          <g id="Group_1193837" data-name="Group 1193837">
            <g id="Group_1193836" data-name="Group 1193836">
              <g id="Group_1193835" data-name="Group 1193835">
                <path id="Path_1016949" data-name="Path 1016949" d="M2605.69,1673.161h0a.3.3,0,0,1,.3-.3h1.524a.3.3,0,0,1,.305.3h0a.3.3,0,0,1-.305.3h-1.524A.3.3,0,0,1,2605.69,1673.161Z" transform="translate(-2605.69 -1672.856)" fill="#3f1c16"/>
              </g>
            </g>
          </g>
        </g>
        <g id="Group_1193842" data-name="Group 1193842" transform="translate(40.218 40.199)">
          <g id="Group_1193841" data-name="Group 1193841">
            <g id="Group_1193840" data-name="Group 1193840">
              <g id="Group_1193839" data-name="Group 1193839">
                <path id="Path_1016950" data-name="Path 1016950" d="M2596.291,1695.853h0a.3.3,0,0,1,.431,0l1.077,1.077a.3.3,0,0,1,0,.431h0a.3.3,0,0,1-.431,0l-1.077-1.077A.3.3,0,0,1,2596.291,1695.853Z" transform="translate(-2596.2 -1695.764)" fill="#3f1c16"/>
              </g>
            </g>
          </g>
        </g>
        <g id="Group_1193846" data-name="Group 1193846" transform="translate(30.305 44.308)">
          <g id="Group_1193845" data-name="Group 1193845">
            <g id="Group_1193844" data-name="Group 1193844">
              <g id="Group_1193843" data-name="Group 1193843">
                <path id="Path_1016951" data-name="Path 1016951" d="M2573.59,1705.26h0a.3.3,0,0,1,.3.3v1.524a.3.3,0,0,1-.3.3h0a.3.3,0,0,1-.3-.3v-1.524A.3.3,0,0,1,2573.59,1705.26Z" transform="translate(-2573.286 -1705.26)" fill="#3f1c16"/>
              </g>
            </g>
          </g>
        </g>
        <g id="Group_1193850" data-name="Group 1193850" transform="translate(19.317 19.301)">
          <g id="Group_1193849" data-name="Group 1193849">
            <g id="Group_1193848" data-name="Group 1193848">
              <g id="Group_1193847" data-name="Group 1193847">
                <path id="Path_1016952" data-name="Path 1016952" d="M2549.485,1649.055h0a.3.3,0,0,1-.431,0l-1.077-1.077a.3.3,0,0,1,0-.431h0a.3.3,0,0,1,.431,0l1.077,1.077A.308.308,0,0,1,2549.485,1649.055Z" transform="translate(-2547.888 -1647.458)" fill="#3f1c16"/>
              </g>
            </g>
          </g>
        </g>
        <g id="Group_1193854" data-name="Group 1193854" transform="translate(30.22 18.176)">
          <g id="Group_1193853" data-name="Group 1193853">
            <g id="Group_1193852" data-name="Group 1193852">
              <g id="Group_1193851" data-name="Group 1193851">
                <path id="Path_1016953" data-name="Path 1016953" d="M2573.292,1657.725a.327.327,0,0,1-.067-.033.3.3,0,0,1-.087-.422L2581.2,1645a.3.3,0,1,1,.509.334l-8.06,12.275A.306.306,0,0,1,2573.292,1657.725Z" transform="translate(-2573.088 -1644.858)" fill="#3f1c16"/>
              </g>
            </g>
          </g>
        </g>
        <g id="Group_1193858" data-name="Group 1193858" transform="translate(29.999 30.242)">
          <g id="Group_1193857" data-name="Group 1193857">
            <g id="Group_1193856" data-name="Group 1193856">
              <g id="Group_1193855" data-name="Group 1193855">
                <path id="Path_1016954" data-name="Path 1016954" d="M2572.578,1673.021a.342.342,0,0,1,.017-.073.305.305,0,0,1,.391-.183l12.622,4.611a.3.3,0,1,1-.207.573l-12.622-4.611A.307.307,0,0,1,2572.578,1673.021Z" transform="translate(-2572.577 -1672.747)" fill="#3f1c16"/>
              </g>
            </g>
          </g>
        </g>
        <g id="Group_1193862" data-name="Group 1193862" transform="translate(28.834 28.787)">
          <g id="Group_1193861" data-name="Group 1193861">
            <g id="Group_1193860" data-name="Group 1193860">
              <g id="Group_1193859" data-name="Group 1193859">
                <path id="Path_1016955" data-name="Path 1016955" d="M2573.438,1671.819a1.828,1.828,0,1,1-1.121-2.33A1.828,1.828,0,0,1,2573.438,1671.819Z" transform="translate(-2569.884 -1669.385)" fill="#3f1c16"/>
              </g>
            </g>
          </g>
        </g>
      </g>
      <g id="Group_1193864" data-name="Group 1193864" transform="translate(2240.974 1650.011)">
        <path id="Path_1016956" data-name="Path 1016956" d="M2491.219,1790.3a.1.1,0,0,1-.066-.025c-3.451-2.987-2.793-8.144-2.786-8.2a6.668,6.668,0,0,1,3.544-4.317c5.184-2.538,13.752.78,13.837.814a.1.1,0,1,1-.073.187c-.085-.033-8.572-3.32-13.676-.82a6.468,6.468,0,0,0-3.436,4.178c0,.036-.647,5.087,2.721,8a.1.1,0,0,1,.01.142A.1.1,0,0,1,2491.219,1790.3Z" transform="translate(-2488.313 -1776.812)" fill="#3f1c16"/>
      </g>
    </g>
  </g>
</svg>
