<svg xmlns="http://www.w3.org/2000/svg" width="150" height="150" viewBox="0 0 150 150">
  <g id="img9" transform="translate(-383.746 -8400)">
    <circle id="Ellipse_13609" data-name="Ellipse 13609" cx="75" cy="75" r="75" transform="translate(383.746 8400)" fill="#b9c296"/>
    <g id="Group_1197593" data-name="Group 1197593" transform="translate(426.332 8438.697)">
      <path id="Path_1020070" data-name="Path 1020070" d="M92.965,16.86V12.841A6.541,6.541,0,1,0,86.6,10.478,7.779,7.779,0,0,0,80,18.157h2.593a5.186,5.186,0,0,1,5.186-5.186h2.593v3.89ZM91.669,2.6a3.89,3.89,0,1,1-3.89,3.89A3.89,3.89,0,0,1,91.669,2.6Zm0,0" transform="translate(-67.034 -0.005)" fill="#4a4e3c"/>
      <path id="Path_1020071" data-name="Path 1020071" d="M188.965,16.855v-3.89h2.593a5.186,5.186,0,0,1,5.186,5.186h2.593a7.779,7.779,0,0,0-6.6-7.679,6.483,6.483,0,1,0-10.142,0,7.779,7.779,0,0,0-6.6,7.679h2.593a5.186,5.186,0,0,1,5.186-5.186h2.593v3.89Zm-1.3-14.262a3.89,3.89,0,1,1-3.89,3.89A3.89,3.89,0,0,1,187.669,2.593Zm0,0" transform="translate(-147.476)" fill="#4a4e3c"/>
      <path id="Path_1020072" data-name="Path 1020072" d="M59.641,169.489H54.455V157.821h1.3a3.89,3.89,0,0,0,3.89-3.89v-7.779a7.779,7.779,0,0,0-6.6-7.679,6.46,6.46,0,1,0-6.367,2.363v4.019h2.593v-3.89h2.593a5.186,5.186,0,0,1,5.186,5.186v7.779a1.3,1.3,0,0,1-1.3,1.3h-1.3v-6.483H51.862V169.49H49.269v-9.076H46.676v9.076H44.083v-9.076H41.489v9.076H38.9V157.821h1.3a3.89,3.89,0,0,0,3.89-3.89v-7.779a7.779,7.779,0,0,0-6.6-7.679,6.483,6.483,0,1,0-10.142,0,7.779,7.779,0,0,0-6.6,7.679v7.779a3.89,3.89,0,0,0,3.89,3.89h1.3V169.49H23.338v-9.076H20.745v9.076H18.152v-9.076H15.559v9.076H12.966V148.745H10.372v6.483h-1.3a1.3,1.3,0,0,1-1.3-1.3v-7.779a5.186,5.186,0,0,1,5.186-5.186h2.593v3.89h2.593v-4.019a6.541,6.541,0,1,0-6.367-2.363,7.779,7.779,0,0,0-6.6,7.679v7.779a3.89,3.89,0,0,0,3.89,3.89h1.3v11.669H5.186a5.186,5.186,0,0,0,0,10.372H59.641a5.186,5.186,0,0,0,0-10.372ZM44.083,134.483a3.89,3.89,0,1,1,3.89,3.89A3.89,3.89,0,0,1,44.083,134.483Zm-27.227-3.89a3.89,3.89,0,1,1-3.89,3.89A3.89,3.89,0,0,1,16.855,130.593Zm15.559,0a3.89,3.89,0,1,1-3.89,3.89A3.89,3.89,0,0,1,32.414,130.593Zm-3.89,25.931v-7.779H25.931v6.483h-1.3a1.3,1.3,0,0,1-1.3-1.3v-7.779a5.186,5.186,0,0,1,5.186-5.186h2.593v3.89H33.71v-3.89H36.3a5.186,5.186,0,0,1,5.186,5.186v7.779a1.3,1.3,0,0,1-1.3,1.3H38.9v-6.483H36.3v20.745H33.71v-9.076H31.117v9.076H28.524Zm31.117,20.745H5.186a2.593,2.593,0,0,1,0-5.186H59.641a2.593,2.593,0,0,1,0,5.186Zm0,0" transform="translate(0 -107.255)" fill="#4a4e3c"/>
    </g>
  </g>
</svg>
